<?xml version="1.0" encoding="utf-8"?>
<!-- Generator: Adobe Illustrator 21.1.0, SVG Export Plug-In . SVG Version: 6.00 Build 0)  -->
<svg version="1.1" id="Layer_1" xmlns="http://www.w3.org/2000/svg" xmlns:xlink="http://www.w3.org/1999/xlink" x="0px" y="0px"
	 viewBox="0 0 200 155" style="enable-background:new 0 0 200 155;" xml:space="preserve">
<style type="text/css">
	.st0{opacity:0.7;fill:#768693;enable-background:new    ;}
	.st1{fill:#FFFFFF;}
</style>
<circle class="st0" cx="99.667" cy="77.167" r="75.333"/>
<g>
	<path class="st1" d="M92.709,74.985c6.945-7.256,15.581-10.454,25.603-10.065c0-11.166,0-22.249,0-33.412c-0.455,0-0.832,0-1.209,0
		c-13.33-0.002-26.66-0.004-39.991-0.005c-3.367,0-6.735-0.01-10.102,0.008c-1.563,0.008-2.706,0.783-2.807,2.082
		c-0.122,1.574-0.029,3.165-0.029,4.856c1.048,0,2.013-0.034,2.976,0.007c2.083,0.088,3.772,1.587,3.949,3.458
		c0.21,2.223-1.602,4.048-4.198,4.188c-0.889,0.048-1.783,0.008-2.684,0.008c0,1.536,0,2.929,0,4.415
		c1.097,0,2.102-0.053,3.101,0.011c2.035,0.13,3.649,1.655,3.784,3.501c0.134,1.832-1.175,3.541-3.143,3.957
		c-0.805,0.17-1.654,0.137-2.485,0.178c-0.432,0.021-0.865,0.004-1.27,0.004c0,1.448,0,2.711,0,4.043
		c0.982,0,1.881-0.03,2.778,0.006c2.627,0.104,4.469,2.127,4.077,4.45c-0.299,1.778-2.082,3.156-4.199,3.22
		c-0.888,0.027-1.777,0.004-2.675,0.004c0,1.527,0,2.899,0,4.393c1.025,0,1.99-0.042,2.951,0.008
		c2.784,0.143,4.645,2.615,3.779,4.978c-0.57,1.554-2.18,2.616-4.107,2.678c-0.857,0.028-1.717,0.005-2.597,0.005
		c0,1.514,0,2.908,0,4.414c1.122,0,2.163-0.07,3.192,0.015c2.056,0.168,3.616,1.715,3.707,3.571c0.092,1.87-1.297,3.524-3.333,3.913
		c-0.574,0.11-1.171,0.117-1.759,0.139c-0.608,0.022-1.218,0.005-1.895,0.005c0,1.482-0.007,2.797,0.002,4.111
		c0.014,1.998,1.024,3.023,3.005,3.027c4.409,0.008,8.817,0.002,13.226,0.002c1.104,0,2.208,0,3.437,0
		C82.97,91.033,85.755,82.251,92.709,74.985z M80.909,42.275c9.047,0,18.068,0,27.224,0c0,3.627,0,7.236,0,10.945
		c-9.02,0-17.996,0-27.224,0C80.909,49.555,80.909,45.986,80.909,42.275z"/>
	<path class="st1" d="M116.257,67.78c-16.39-0.027-29.743,13.252-29.836,29.671c-0.093,16.473,13.246,29.953,29.709,30.024
		c16.518,0.071,29.95-13.293,29.994-29.845C146.167,81.172,132.794,67.807,116.257,67.78z M116.276,122.031
		c-13.634-0.012-24.551-10.864-24.557-24.412c-0.006-13.398,11.13-24.583,24.428-24.537c13.572,0.048,24.548,11.061,24.529,24.612
		C140.657,111.15,129.737,122.042,116.276,122.031z"/>
	<path class="st1" d="M59.805,64.466c-0.767,0.363-1.331,0.909-1.321,1.816c0.01,0.948,0.583,1.543,1.422,1.848
		c0.477,0.173,1.005,0.253,1.515,0.28c0.828,0.045,1.661,0.012,2.492,0.012c0.001,0.02,0.002,0.039,0.003,0.059
		c1.172-0.061,2.358-0.029,3.511-0.209c1.18-0.184,1.914-1.071,1.915-2.009c0.002-0.922-0.769-1.924-1.922-1.988
		c-2.304-0.128-4.619-0.046-6.93-0.03C60.26,64.246,60.021,64.364,59.805,64.466z"/>
	<path class="st1" d="M60.844,56.399c2.04,0.058,4.083,0.06,6.123,0c1.384-0.041,2.418-1.043,2.377-2.133
		c-0.041-1.086-1.12-2.004-2.481-2.056c-0.967-0.036-1.937-0.007-2.906-0.007c0-0.002,0-0.005,0-0.007c-0.519,0-1.038-0.001-1.557,0
		c-0.519,0.002-1.041-0.026-1.557,0.017c-1.348,0.113-2.395,1.088-2.365,2.166C58.508,55.453,59.485,56.36,60.844,56.399z"/>
	<path class="st1" d="M60.827,44.465c2.08,0.075,4.166,0.071,6.247,0.001c1.251-0.042,2.241-1.032,2.265-2.049
		c0.026-1.068-0.968-2.037-2.291-2.12c-1.037-0.065-2.081-0.013-3.122-0.013c0-0.002,0-0.004,0-0.005
		c-1.007,0-2.015-0.042-3.019,0.01c-1.362,0.07-2.376,0.941-2.418,1.991C58.443,43.391,59.438,44.415,60.827,44.465z"/>
	<path class="st1" d="M59.55,79.897c0.408,0.228,0.905,0.405,1.365,0.415c2.006,0.044,4.014,0.056,6.019,0.005
		c1.363-0.035,2.418-1.027,2.406-2.118c-0.013-1.099-1.043-2.004-2.442-2.072c-0.966-0.047-1.937-0.009-2.905-0.009
		c0-0.005,0-0.01,0-0.015c-0.934,0-1.872-0.054-2.801,0.02c-0.568,0.045-1.177,0.186-1.667,0.462
		C58.088,77.39,58.11,79.094,59.55,79.897z"/>
	<path class="st1" d="M67.047,92.24c1.28-0.079,2.249-0.983,2.293-2.015c0.041-0.961-0.973-2.087-2.188-2.139
		c-2.147-0.092-4.305-0.093-6.452,0.002c-1.281,0.057-2.224,1.071-2.226,2.083c-0.003,1.081,0.955,1.981,2.33,2.073
		c1.002,0.067,2.012,0.013,3.018,0.013c0-0.001,0-0.002,0-0.003C64.897,92.253,65.976,92.305,67.047,92.24z"/>
	<path class="st1" d="M118.908,75.554c-1.431,0.122-2.412,1.217-2.427,2.747c-0.015,1.492-0.004,2.985-0.004,4.478
		c0,4.927,0,9.853,0,14.962c-0.457,0-0.796,0-1.136,0c-3.228,0.002-6.456-0.018-9.684,0.015c-1.74,0.018-2.835,1.103-2.814,2.671
		c0.021,1.577,1.138,2.623,2.861,2.628c4.547,0.014,9.094,0.014,13.641,0.012c1.294-0.001,2.165-0.723,2.411-1.985
		c0.059-0.304,0.079-0.621,0.079-0.931c0.004-7.15,0.004-14.3,0-21.451c0-0.276-0.01-0.557-0.06-0.828
		C121.507,76.408,120.296,75.436,118.908,75.554z"/>
</g>
</svg>
