<?xml version="1.0" encoding="utf-8"?>
<!-- Generator: Adobe Illustrator 22.0.0, SVG Export Plug-In . SVG Version: 6.00 Build 0)  -->
<svg version="1.1" id="Layer_1" xmlns="http://www.w3.org/2000/svg" xmlns:xlink="http://www.w3.org/1999/xlink" x="0px" y="0px"
	 viewBox="0 0 200 155" style="enable-background:new 0 0 200 155;" xml:space="preserve">
<style type="text/css">
	.st0{opacity:0.7;fill:#768693;enable-background:new    ;}
	.st1{fill:#FFFFFF;}
</style>
<circle class="st0" cx="100" cy="77.5" r="75.333"/>
<g>
	<path class="st1" d="M125.053,86.571L125.053,86.571c-0.077-0.154-0.077-0.308-0.154-0.385c0,0,0,0,0-0.077
		c-0.077-0.077-0.154-0.154-0.231-0.231l-0.077-0.077c-0.077-0.077-0.231-0.154-0.308-0.231l-6.396-3.313V71.853
		c0-0.848-0.694-1.541-1.541-1.541H83.442c-0.848,0-1.541,0.694-1.541,1.541v10.403l-6.396,3.313l0,0l0,0
		c-0.077,0.077-0.231,0.154-0.308,0.231l-0.077,0.077c-0.077,0.077-0.154,0.154-0.154,0.231l-0.077,0.077
		c-0.077,0.077-0.077,0.231-0.154,0.308v0.077c0,0.077,0,0.154-0.077,0.308v0.077v29.667l0,0c0,0.077,0,0.077,0,0.154
		c0,0.077,0,0.231,0.077,0.308l0,0c0,0.077,0.077,0.077,0.077,0.077c0.077,0.077,0.077,0.154,0.154,0.231
		c0,0.077,0.077,0.077,0.154,0.154s0.154,0.154,0.154,0.154c0.077,0.077,0.077,0.077,0.154,0.077s0.077,0.077,0.077,0.077h0.077
		c0.077,0,0.154,0.077,0.154,0.077c0.077,0,0.154,0,0.231,0.077h0.077h47.313c0.154,0,0.308,0,0.385-0.077
		c0.077,0,0.077,0,0.154-0.077c0.077,0,0.077,0,0.154-0.077c0.077,0,0.077-0.077,0.077-0.077c0.077,0,0.077-0.077,0.154-0.077
		c0.077-0.077,0.154-0.077,0.154-0.154c0.077-0.077,0.077-0.077,0.154-0.154c0.077-0.077,0.077-0.154,0.154-0.231
		c0-0.077,0.077-0.077,0.077-0.077l0,0c0-0.077,0.077-0.231,0.077-0.308s0-0.077,0-0.154l0,0v-29.59c0,0,0,0,0-0.077
		C125.13,86.802,125.13,86.648,125.053,86.571z M119.197,115.082H80.668l15.874-12.56c1.926-1.541,4.701-1.541,6.704,0
		L119.197,115.082z M117.27,93.275L117.27,93.275l4.778-3.313v23.58l-15.797-12.483L117.27,93.275z M114.881,91.195l-11.327,7.937
		c-2.312-1.079-4.932-1.079-7.243,0l-11.327-7.937v-17.8h29.821v17.8H114.881z M77.817,89.885l4.778,3.313l0,0l11.019,7.706
		l-15.797,12.483C77.817,113.387,77.817,89.885,77.817,89.885z M117.964,89.037v-3.313l2.697,1.387L117.964,89.037z M81.901,89.037
		l-2.697-1.849l2.697-1.387V89.037z"/>
	<path class="st1" d="M99.085,86.725h1.618c0.848,0,1.541,0.694,1.541,1.541c0,0.848-0.694,1.541-1.541,1.541h-3.236
		c-0.616,0-1.156,0.539-1.156,1.156s0.539,1.156,1.156,1.156h1.31v1.156c0,0.616,0.539,1.156,1.156,1.156
		c0.616,0,1.156-0.539,1.156-1.156v-1.156c1.926-0.154,3.545-1.772,3.545-3.853c0-2.158-1.695-3.853-3.853-3.853h-1.618
		c-0.848,0-1.541-0.694-1.541-1.541c0-0.848,0.694-1.541,1.541-1.541h3.236c0.616,0,1.156-0.539,1.156-1.156
		s-0.539-1.156-1.156-1.156h-1.31v-1.156c0-0.616-0.539-1.156-1.156-1.156c-0.616,0-1.156,0.539-1.156,1.156v1.156
		c-1.926,0.154-3.545,1.772-3.545,3.853C95.232,85.03,97.004,86.725,99.085,86.725z"/>
	<path class="st1" d="M141.543,43.573H58.321c-2.543,0-4.623,2.081-4.623,4.623v55.173c0,2.543,2.081,4.623,4.623,4.623h11.79
		c0.848,0,1.541-0.694,1.541-1.541s-0.694-1.541-1.541-1.541h-11.79c-0.848,0-1.541-0.694-1.541-1.541V57.443h86.304v45.926
		c0,0.848-0.694,1.541-1.541,1.541h-11.79c-0.848,0-1.541,0.694-1.541,1.541s0.694,1.541,1.541,1.541h11.79
		c2.543,0,4.623-2.081,4.623-4.623v-55.25C146.167,45.654,144.086,43.573,141.543,43.573z M56.78,54.361v-6.165
		c0-0.848,0.694-1.541,1.541-1.541h83.222c0.848,0,1.541,0.694,1.541,1.541v6.165H56.78z"/>
	<path class="st1" d="M139.309,48.89h-5.163c-0.848,0-1.541,0.694-1.541,1.541c0,0.848,0.694,1.541,1.541,1.541h5.163
		c0.848,0,1.541-0.694,1.541-1.541C140.85,49.583,140.156,48.89,139.309,48.89z"/>
</g>
</svg>
