<?xml version="1.0" encoding="utf-8"?>
<!-- Generator: Adobe Illustrator 22.0.0, SVG Export Plug-In . SVG Version: 6.00 Build 0)  -->
<svg version="1.1" id="Layer_1" xmlns="http://www.w3.org/2000/svg" xmlns:xlink="http://www.w3.org/1999/xlink" x="0px" y="0px"
	 viewBox="0 0 36 10" style="enable-background:new 0 0 36 10;" xml:space="preserve">
<style type="text/css">
	.st0{fill:#00B3E3;}
	.st1{fill:#FFFFFF;}
</style>
<g>
	<path class="st0" d="M2.955,7.054C2.938,7.234,2.876,7.373,2.768,7.471C2.66,7.567,2.514,7.616,2.329,7.616
		c-0.125,0-0.235-0.032-0.332-0.095c-0.096-0.063-0.171-0.153-0.224-0.27C1.72,7.136,1.693,7.003,1.692,6.853V6.582
		c0-0.15,0.026-0.284,0.079-0.402c0.052-0.117,0.127-0.208,0.224-0.273C2.092,5.842,2.203,5.81,2.329,5.81
		c0.184,0,0.33,0.048,0.438,0.145C2.875,6.051,2.938,6.189,2.955,6.37H2.89C2.872,6.209,2.815,6.086,2.721,6.002
		C2.627,5.917,2.496,5.875,2.329,5.875c-0.171,0-0.309,0.064-0.414,0.193S1.758,6.369,1.758,6.586v0.259
		c0,0.139,0.023,0.261,0.07,0.367c0.046,0.106,0.114,0.19,0.201,0.249c0.087,0.06,0.187,0.09,0.3,0.09
		c0.168,0,0.299-0.041,0.394-0.124s0.15-0.208,0.167-0.373H2.955z"/>
	<path class="st0" d="M4.11,7.592C4.094,7.536,4.086,7.457,4.086,7.353C4.034,7.437,3.964,7.501,3.875,7.547
		s-0.19,0.069-0.303,0.069c-0.121,0-0.218-0.033-0.292-0.099C3.207,7.452,3.169,7.366,3.169,7.261c0-0.119,0.054-0.216,0.163-0.288
		c0.108-0.071,0.252-0.108,0.432-0.11h0.322v-0.19c0-0.109-0.035-0.194-0.103-0.255c-0.069-0.06-0.167-0.091-0.295-0.091
		c-0.119,0-0.218,0.031-0.298,0.092C3.31,6.479,3.27,6.555,3.27,6.646L3.205,6.643c0-0.105,0.047-0.195,0.14-0.27
		s0.208-0.111,0.343-0.111c0.141,0,0.253,0.035,0.335,0.105c0.083,0.07,0.125,0.17,0.128,0.298v0.624
		c0,0.143,0.012,0.24,0.034,0.292v0.011H4.11z M3.572,7.551c0.122,0,0.228-0.027,0.315-0.082c0.088-0.055,0.154-0.132,0.199-0.23
		V6.928H3.784c-0.187,0-0.33,0.037-0.429,0.111C3.275,7.1,3.235,7.175,3.235,7.265c0,0.08,0.032,0.147,0.095,0.203
		S3.474,7.551,3.572,7.551z"/>
	<path class="st0" d="M5.444,7.592H5.378V6.715c0-0.131-0.029-0.229-0.086-0.293C5.235,6.358,5.145,6.326,5.021,6.326
		c-0.143,0-0.26,0.063-0.351,0.189C4.616,6.592,4.58,6.675,4.562,6.767v0.825H4.496V6.285h0.066v0.31
		C4.607,6.488,4.67,6.406,4.752,6.349s0.173-0.087,0.273-0.087c0.109,0,0.199,0.023,0.269,0.072S5.409,6.461,5.431,6.57
		c0.039-0.094,0.101-0.169,0.188-0.225c0.087-0.057,0.185-0.084,0.292-0.084c0.141,0,0.246,0.039,0.314,0.119S6.329,6.58,6.33,6.739
		v0.853H6.265V6.745c0-0.143-0.029-0.249-0.086-0.317C6.121,6.358,6.03,6.325,5.907,6.326C5.749,6.329,5.623,6.393,5.531,6.516
		C5.478,6.588,5.449,6.656,5.444,6.724V7.592z"/>
	<path class="st0" d="M7.663,6.951c0,0.203-0.044,0.365-0.132,0.485c-0.087,0.119-0.207,0.18-0.358,0.18
		c-0.099,0-0.187-0.021-0.264-0.061C6.831,7.516,6.771,7.46,6.727,7.389v0.705H6.662V6.285h0.065v0.233
		c0.045-0.083,0.106-0.146,0.182-0.19C6.986,6.283,7.073,6.262,7.17,6.262c0.153,0,0.273,0.059,0.361,0.176
		c0.088,0.117,0.132,0.281,0.132,0.493V6.951z M7.596,6.926c0-0.188-0.037-0.334-0.112-0.44C7.41,6.379,7.306,6.326,7.171,6.326
		c-0.11,0-0.203,0.029-0.279,0.086C6.816,6.469,6.761,6.55,6.727,6.656v0.61c0.034,0.091,0.089,0.16,0.166,0.21
		c0.077,0.05,0.17,0.074,0.281,0.074c0.133,0,0.237-0.053,0.311-0.159C7.559,7.285,7.596,7.13,7.596,6.926z"/>
	<path class="st0" d="M8.799,7.592C8.783,7.536,8.775,7.457,8.775,7.353C8.723,7.437,8.653,7.501,8.563,7.547
		s-0.19,0.069-0.303,0.069c-0.121,0-0.218-0.033-0.292-0.099C7.896,7.452,7.858,7.366,7.858,7.261c0-0.119,0.054-0.216,0.163-0.288
		c0.108-0.071,0.252-0.108,0.432-0.11h0.322v-0.19c0-0.109-0.035-0.194-0.103-0.255c-0.069-0.06-0.167-0.091-0.295-0.091
		c-0.119,0-0.218,0.031-0.298,0.092c-0.08,0.062-0.119,0.137-0.119,0.228L7.894,6.643c0-0.105,0.047-0.195,0.14-0.27
		s0.208-0.111,0.343-0.111c0.141,0,0.253,0.035,0.335,0.105c0.083,0.07,0.125,0.17,0.128,0.298v0.624
		c0,0.143,0.012,0.24,0.034,0.292v0.011H8.799z M8.261,7.551c0.122,0,0.228-0.027,0.315-0.082c0.088-0.055,0.154-0.132,0.199-0.23
		V6.928H8.473c-0.187,0-0.33,0.037-0.429,0.111C7.964,7.1,7.924,7.175,7.924,7.265c0,0.08,0.032,0.147,0.095,0.203
		S8.163,7.551,8.261,7.551z"/>
	<path class="st0" d="M9.18,5.877c0-0.019,0.006-0.034,0.02-0.047c0.013-0.014,0.028-0.02,0.047-0.02s0.035,0.006,0.048,0.02
		c0.013,0.013,0.02,0.029,0.02,0.047s-0.007,0.034-0.02,0.047C9.281,5.938,9.265,5.944,9.247,5.944S9.212,5.938,9.2,5.925
		C9.187,5.912,9.18,5.896,9.18,5.877z M9.279,7.592H9.214V6.285h0.065V7.592z"/>
	<path class="st0" d="M9.584,6.926c0-0.209,0.044-0.371,0.132-0.488c0.087-0.117,0.208-0.176,0.361-0.176
		c0.097,0,0.184,0.021,0.259,0.066s0.137,0.11,0.183,0.196V6.285h0.066v1.284c0,0.172-0.044,0.307-0.133,0.403
		c-0.089,0.097-0.209,0.146-0.361,0.146c-0.088,0-0.168-0.019-0.241-0.057S9.716,7.969,9.664,7.897L9.71,7.854
		c0.051,0.064,0.106,0.113,0.167,0.147c0.061,0.034,0.131,0.051,0.213,0.051c0.134,0,0.239-0.041,0.313-0.122
		c0.075-0.082,0.114-0.196,0.116-0.346V7.386c-0.045,0.073-0.106,0.131-0.183,0.171c-0.077,0.039-0.164,0.06-0.261,0.06
		c-0.151,0-0.271-0.061-0.358-0.18c-0.088-0.12-0.132-0.285-0.132-0.494V6.926z M9.651,6.951c0,0.187,0.037,0.333,0.111,0.439
		c0.074,0.106,0.178,0.16,0.311,0.16c0.11,0,0.204-0.025,0.281-0.077c0.078-0.051,0.132-0.122,0.165-0.215V6.666
		c-0.071-0.227-0.219-0.34-0.443-0.34c-0.134,0-0.239,0.053-0.313,0.158C9.688,6.59,9.651,6.745,9.651,6.951z"/>
	<path class="st0" d="M11.005,6.59c0.042-0.102,0.105-0.182,0.188-0.24c0.083-0.059,0.175-0.088,0.275-0.088
		c0.14,0,0.244,0.039,0.312,0.119c0.068,0.078,0.103,0.199,0.104,0.358v0.853h-0.065V6.738c-0.001-0.141-0.029-0.244-0.085-0.311
		c-0.057-0.067-0.146-0.102-0.268-0.102c-0.113,0-0.21,0.041-0.293,0.121s-0.138,0.183-0.167,0.309v0.836H10.94V6.285h0.065V6.59z"
		/>
	<path class="st1" d="M13.237,6.84h-0.609v0.752h-0.065V5.834h0.56c0.176,0,0.316,0.045,0.421,0.137
		c0.104,0.091,0.156,0.215,0.156,0.371c0,0.119-0.037,0.225-0.112,0.313c-0.074,0.09-0.169,0.146-0.284,0.168l0.47,0.752v0.017
		h-0.069L13.237,6.84z M12.627,6.774h0.554c0.135,0,0.245-0.041,0.328-0.123c0.083-0.082,0.125-0.186,0.125-0.31
		c0-0.137-0.046-0.245-0.139-0.324c-0.092-0.079-0.218-0.118-0.378-0.118h-0.49V6.774z"/>
	<path class="st1" d="M14.56,7.616c-0.105,0-0.202-0.028-0.291-0.085c-0.088-0.058-0.157-0.135-0.207-0.234
		c-0.05-0.099-0.075-0.208-0.075-0.329V6.913c0-0.12,0.024-0.231,0.072-0.331c0.048-0.102,0.115-0.18,0.199-0.236
		s0.177-0.084,0.277-0.084c0.146,0,0.265,0.052,0.357,0.155c0.093,0.104,0.139,0.24,0.139,0.409v0.069h-0.979v0.071
		c0,0.105,0.022,0.204,0.067,0.294c0.044,0.091,0.106,0.161,0.185,0.213s0.164,0.077,0.255,0.077c0.088,0,0.162-0.015,0.224-0.044
		c0.062-0.029,0.116-0.074,0.164-0.135l0.046,0.032C14.896,7.546,14.751,7.616,14.56,7.616z M14.536,6.326
		c-0.127,0-0.235,0.048-0.324,0.143c-0.088,0.094-0.141,0.215-0.156,0.361h0.91V6.814c0-0.089-0.019-0.171-0.056-0.247
		c-0.037-0.076-0.089-0.136-0.154-0.177C14.69,6.348,14.617,6.326,14.536,6.326z"/>
	<path class="st1" d="M15.214,6.926c0-0.209,0.043-0.371,0.131-0.488s0.208-0.176,0.361-0.176c0.098,0,0.185,0.021,0.261,0.066
		c0.077,0.044,0.137,0.107,0.183,0.19V6.285h0.065v1.809h-0.065V7.389c-0.047,0.073-0.108,0.13-0.186,0.169
		c-0.077,0.039-0.164,0.059-0.26,0.059c-0.151,0-0.271-0.061-0.358-0.18c-0.088-0.12-0.131-0.285-0.131-0.494V6.926z M15.281,6.951
		c0,0.185,0.037,0.331,0.11,0.438s0.177,0.161,0.312,0.161c0.108,0,0.2-0.024,0.276-0.072s0.133-0.118,0.17-0.21V6.656
		c-0.038-0.109-0.095-0.191-0.171-0.246c-0.077-0.056-0.167-0.084-0.273-0.084c-0.134,0-0.238,0.053-0.312,0.158
		C15.318,6.59,15.281,6.745,15.281,6.951z"/>
	<path class="st1" d="M17.441,7.592V7.381c-0.039,0.072-0.095,0.13-0.169,0.172c-0.074,0.042-0.168,0.063-0.282,0.063
		c-0.142,0-0.249-0.042-0.32-0.125c-0.071-0.084-0.107-0.205-0.109-0.364V6.285h0.065V7.13c0.001,0.138,0.033,0.243,0.094,0.314
		c0.061,0.071,0.15,0.106,0.268,0.106c0.125,0,0.226-0.029,0.304-0.088c0.078-0.059,0.127-0.146,0.148-0.259V6.285h0.066v1.307
		H17.441z"/>
	<path class="st1" d="M18.326,7.616c-0.105,0-0.202-0.028-0.291-0.085c-0.088-0.058-0.157-0.135-0.207-0.234
		c-0.05-0.099-0.075-0.208-0.075-0.329V6.913c0-0.12,0.024-0.231,0.072-0.331c0.048-0.102,0.115-0.18,0.199-0.236
		s0.177-0.084,0.277-0.084c0.146,0,0.265,0.052,0.357,0.155c0.093,0.104,0.139,0.24,0.139,0.409v0.069h-0.979v0.071
		c0,0.105,0.022,0.204,0.067,0.294c0.044,0.091,0.106,0.161,0.185,0.213s0.164,0.077,0.255,0.077c0.088,0,0.162-0.015,0.224-0.044
		c0.062-0.029,0.116-0.074,0.164-0.135l0.046,0.032C18.662,7.546,18.518,7.616,18.326,7.616z M18.302,6.326
		c-0.127,0-0.235,0.048-0.324,0.143c-0.088,0.094-0.141,0.215-0.156,0.361h0.91V6.814c0-0.089-0.019-0.171-0.056-0.247
		c-0.037-0.076-0.089-0.136-0.154-0.177C18.457,6.348,18.383,6.326,18.302,6.326z"/>
	<path class="st1" d="M19.846,7.271c0-0.158-0.135-0.266-0.405-0.323c-0.163-0.034-0.276-0.079-0.339-0.133
		c-0.064-0.055-0.096-0.13-0.096-0.225c0-0.096,0.04-0.175,0.121-0.236s0.186-0.093,0.316-0.093c0.141,0,0.254,0.033,0.338,0.101
		c0.086,0.067,0.129,0.157,0.129,0.272h-0.066c0-0.088-0.037-0.161-0.111-0.221c-0.074-0.059-0.171-0.088-0.289-0.088
		c-0.115,0-0.205,0.025-0.272,0.075s-0.101,0.112-0.101,0.188c0,0.059,0.014,0.104,0.038,0.138c0.024,0.034,0.065,0.063,0.122,0.091
		s0.139,0.053,0.246,0.078c0.107,0.024,0.193,0.054,0.256,0.088s0.108,0.074,0.137,0.12c0.027,0.046,0.042,0.103,0.042,0.17
		c0,0.103-0.042,0.186-0.127,0.248c-0.085,0.063-0.195,0.095-0.332,0.095c-0.146,0-0.265-0.033-0.354-0.1s-0.135-0.152-0.135-0.257
		h0.066c0.006,0.092,0.047,0.163,0.121,0.214c0.074,0.052,0.175,0.077,0.302,0.077c0.116,0,0.212-0.027,0.284-0.081
		C19.81,7.415,19.846,7.35,19.846,7.271z"/>
	<path class="st1" d="M20.355,5.933v0.352h0.297v0.065h-0.297v0.929c0,0.092,0.016,0.161,0.046,0.205
		c0.029,0.044,0.08,0.066,0.151,0.066c0.035,0,0.078-0.004,0.129-0.011l0.011,0.062c-0.026,0.01-0.072,0.015-0.137,0.015
		c-0.095,0-0.162-0.026-0.204-0.079C20.31,7.484,20.29,7.4,20.289,7.287V6.351h-0.241V6.285h0.241V5.933H20.355z"/>
</g>
<g>
	<path class="st0" d="M7.197,4.253L7.197,4.253C7.194,4.246,7.194,4.238,7.19,4.235c0,0,0,0,0-0.004
		C7.187,4.228,7.183,4.224,7.18,4.221L7.176,4.217C7.173,4.214,7.165,4.21,7.162,4.207L6.867,4.054V3.575
		c0-0.039-0.032-0.071-0.071-0.071H5.281c-0.039,0-0.071,0.032-0.071,0.071v0.479L4.916,4.207l0,0l0,0
		C4.912,4.21,4.905,4.214,4.902,4.217L4.898,4.221C4.894,4.224,4.891,4.228,4.891,4.231L4.887,4.235
		C4.884,4.238,4.884,4.246,4.88,4.249v0.004c0,0.004,0,0.007-0.004,0.014V4.27v1.366l0,0c0,0.004,0,0.004,0,0.007
		c0,0.004,0,0.011,0.004,0.014l0,0c0,0.004,0.004,0.004,0.004,0.004c0.004,0.004,0.004,0.007,0.007,0.011
		c0,0.004,0.004,0.004,0.007,0.007c0.004,0.004,0.007,0.007,0.007,0.007C4.909,5.69,4.909,5.69,4.912,5.69s0.004,0.004,0.004,0.004
		h0.004c0.004,0,0.007,0.004,0.007,0.004c0.004,0,0.007,0,0.011,0.004h0.004h2.179c0.007,0,0.014,0,0.018-0.004
		c0.004,0,0.004,0,0.007-0.004c0.004,0,0.004,0,0.007-0.004c0.004,0,0.004-0.004,0.004-0.004c0.004,0,0.004-0.004,0.007-0.004
		c0.004-0.004,0.007-0.004,0.007-0.007c0.004-0.004,0.004-0.004,0.007-0.007C7.18,5.665,7.18,5.661,7.183,5.658
		c0-0.004,0.004-0.004,0.004-0.004l0,0c0-0.004,0.004-0.011,0.004-0.014c0-0.004,0-0.004,0-0.007l0,0V4.27c0,0,0,0,0-0.004
		C7.201,4.263,7.201,4.256,7.197,4.253z M6.928,5.566H5.153l0.731-0.578c0.089-0.071,0.216-0.071,0.309,0L6.928,5.566z M6.839,4.561
		L6.839,4.561l0.22-0.153v1.086L6.332,4.92L6.839,4.561z M6.729,4.466L6.207,4.831c-0.106-0.05-0.227-0.05-0.334,0L5.352,4.466
		v-0.82h1.373v0.82H6.729z M5.022,4.405l0.22,0.153l0,0L5.75,4.913L5.022,5.488C5.022,5.488,5.022,4.405,5.022,4.405z M6.871,4.366
		V4.214l0.124,0.064L6.871,4.366z M5.21,4.366L5.086,4.281L5.21,4.217V4.366z"/>
	<path class="st0" d="M6.002,4.26h0.075c0.039,0,0.071,0.032,0.071,0.071c0,0.039-0.032,0.071-0.071,0.071H5.927
		c-0.028,0-0.053,0.025-0.053,0.053c0,0.028,0.025,0.053,0.053,0.053h0.06v0.053c0,0.028,0.025,0.053,0.053,0.053
		c0.028,0,0.053-0.025,0.053-0.053V4.508c0.089-0.007,0.163-0.082,0.163-0.177c0-0.099-0.078-0.177-0.177-0.177H6.005
		c-0.039,0-0.071-0.032-0.071-0.071c0-0.039,0.032-0.071,0.071-0.071h0.149c0.028,0,0.053-0.025,0.053-0.053
		S6.183,3.905,6.154,3.905h-0.06V3.852c0-0.028-0.025-0.053-0.053-0.053c-0.028,0-0.053,0.025-0.053,0.053v0.053
		C5.899,3.912,5.824,3.987,5.824,4.082C5.824,4.182,5.906,4.26,6.002,4.26z"/>
	<path class="st0" d="M7.957,2.273H4.124c-0.117,0-0.213,0.096-0.213,0.213v2.541c0,0.117,0.096,0.213,0.213,0.213h0.543
		c0.039,0,0.071-0.032,0.071-0.071c0-0.039-0.032-0.071-0.071-0.071H4.124c-0.039,0-0.071-0.032-0.071-0.071V2.911h3.974v2.115
		c0,0.039-0.032,0.071-0.071,0.071H7.414c-0.039,0-0.071,0.032-0.071,0.071c0,0.039,0.032,0.071,0.071,0.071h0.543
		c0.117,0,0.213-0.096,0.213-0.213V2.482C8.17,2.368,8.074,2.273,7.957,2.273z M4.053,2.769V2.486c0-0.039,0.032-0.071,0.071-0.071
		h3.832c0.039,0,0.071,0.032,0.071,0.071v0.284H4.053z"/>
	<path class="st0" d="M7.854,2.517H7.616c-0.039,0-0.071,0.032-0.071,0.071c0,0.039,0.032,0.071,0.071,0.071h0.238
		c0.039,0,0.071-0.032,0.071-0.071C7.925,2.549,7.893,2.517,7.854,2.517z"/>
</g>
</svg>
