<?xml version="1.0" encoding="utf-8"?>
<!-- Generator: Adobe Illustrator 22.1.0, SVG Export Plug-In . SVG Version: 6.00 Build 0)  -->
<svg version="1.1" id="Layer_1" xmlns="http://www.w3.org/2000/svg" xmlns:xlink="http://www.w3.org/1999/xlink" x="0px" y="0px"
	 viewBox="0 0 150 25" style="enable-background:new 0 0 150 25;" xml:space="preserve">
<style type="text/css">
	.st0{fill:#0073BB;}
</style>
<g>
	<path class="st0" d="M77.078,4.953c-2.795,0.503-5.591,1.002-8.387,1.499c-0.133,0.023-0.188,0.066-0.188,0.215
		c0.005,3.863,0.004,7.726,0.001,11.589c0,0.129,0.028,0.18,0.168,0.205c2.803,0.495,5.606,0.994,8.407,1.504
		c0.221,0.04,0.242-0.019,0.242-0.21c-0.006-2.429-0.003-4.859-0.003-7.289c0-2.437-0.003-4.873,0.005-7.31
		C77.322,4.948,77.26,4.921,77.078,4.953z M73.928,14.74c-0.32,0.712-0.933,0.897-1.579,0.886c-0.412-0.007-0.809-0.088-1.168-0.311
		c-0.101-0.063-0.151-0.13-0.147-0.257c0.009-0.362,0.003-0.725,0.003-1.128c0.109,0.1,0.184,0.173,0.264,0.24
		c0.301,0.254,0.645,0.398,1.044,0.378c0.455-0.023,0.7-0.393,0.559-0.829c-0.062-0.192-0.183-0.342-0.342-0.457
		c-0.226-0.164-0.463-0.312-0.689-0.475c-0.718-0.521-0.982-1.227-0.814-2.089c0.163-0.836,0.818-1.371,1.691-1.405
		c0.331-0.012,0.657,0.01,0.977,0.11c0.113,0.035,0.161,0.083,0.158,0.208c-0.009,0.365-0.003,0.73-0.003,1.139
		c-0.299-0.221-0.597-0.342-0.933-0.374c-0.373-0.036-0.676,0.095-0.802,0.368c-0.136,0.296-0.054,0.646,0.225,0.889
		c0.118,0.103,0.253,0.186,0.383,0.276c0.2,0.138,0.406,0.268,0.601,0.414C74.258,13,74.223,14.086,73.928,14.74z"/>
	<path class="st0" d="M82.95,10.979c-0.138,0.011-0.188-0.031-0.238-0.145c-0.398-0.9-1.037-1.57-1.931-1.987
		c-0.118-0.055-0.152-0.116-0.137-0.244c0.065-0.571-0.249-1.148-0.765-1.429c-0.511-0.278-1.131-0.214-1.59,0.158
		c-0.091,0.074-0.137,0.151-0.134,0.272c0.008,0.293,0.003,0.588,0.003,0.882c0,0.301,0.004,0.602-0.002,0.903
		c-0.002,0.112,0.036,0.186,0.12,0.258c0.554,0.473,1.343,0.467,1.878-0.031c0.096-0.09,0.167-0.096,0.278-0.043
		c0.738,0.35,1.257,0.906,1.584,1.651c0.048,0.111,0.02,0.178-0.05,0.265c-0.487,0.603-0.491,1.351-0.004,1.95
		c0.087,0.107,0.09,0.189,0.038,0.304c-0.321,0.713-0.825,1.247-1.528,1.595c-0.131,0.065-0.22,0.063-0.34-0.041
		c-0.544-0.474-1.273-0.479-1.829-0.033c-0.105,0.083-0.149,0.174-0.147,0.31c0.007,0.566,0.009,1.132-0.001,1.698
		c-0.003,0.163,0.052,0.272,0.178,0.362c0.496,0.352,1.018,0.4,1.557,0.119c0.501-0.261,0.819-0.865,0.76-1.413
		c-0.011-0.101-0.032-0.184,0.099-0.242c0.92-0.419,1.572-1.106,1.976-2.029c0.048-0.11,0.107-0.123,0.214-0.114
		c0.846,0.072,1.566-0.611,1.568-1.481C84.508,11.604,83.796,10.913,82.95,10.979z"/>
	<path class="st0" d="M122.657,8.612c-0.606-0.498-1.327-0.648-2.087-0.656c-0.788-0.008-1.576,0.004-2.364-0.006
		c-0.184-0.003-0.24,0.037-0.238,0.232c0.01,1.433,0.006,2.865,0.006,4.298c0,1.433,0.002,2.865-0.003,4.298
		c-0.001,0.16,0.028,0.233,0.209,0.219c0.221-0.017,0.444-0.014,0.665-0.001c0.161,0.01,0.203-0.039,0.203-0.2
		c-0.008-1.003,0.001-2.006-0.008-3.009c-0.001-0.174,0.052-0.209,0.216-0.209c0.515-0.001,1.03,0.021,1.546-0.03
		c1.711-0.166,2.812-1.434,2.708-3.148C123.463,9.695,123.218,9.073,122.657,8.612z M122.369,11
		c-0.123,0.977-0.789,1.54-1.844,1.596c-0.435,0.023-0.873,0.009-1.309,0.023c-0.145,0.005-0.18-0.045-0.178-0.182
		c0.007-0.558,0.003-1.117,0.003-1.675c0-0.544,0.005-1.088-0.003-1.632c-0.002-0.15,0.023-0.217,0.195-0.209
		c0.563,0.025,1.13-0.034,1.692,0.054C122.055,9.155,122.503,9.94,122.369,11z"/>
	<path class="st0" d="M99.815,13.979c-0.003-0.544,0.031-1.09-0.043-1.632c-0.076-0.565-0.229-1.105-0.683-1.487
		c-0.681-0.572-1.469-0.581-2.275-0.354c-0.555,0.157-0.947,0.546-1.276,1.036c-0.061-0.102-0.039-0.181-0.039-0.256
		c-0.001-1.19,0-2.38-0.002-3.569c-0.001-0.329,0.038-0.275-0.289-0.28c-0.165-0.002-0.331,0.013-0.494-0.004
		c-0.209-0.022-0.275,0.034-0.274,0.262c0.009,3.01,0.006,6.021,0.006,9.032c0,0.036,0.004,0.072-0.001,0.107
		c-0.015,0.121,0.032,0.165,0.156,0.16c0.229-0.008,0.459-0.014,0.687,0.001c0.176,0.012,0.214-0.052,0.212-0.217
		c-0.007-1.168-0.006-2.336-0.003-3.505c0.001-0.649,0.218-1.211,0.725-1.632c0.952-0.79,2.237-0.332,2.474,0.875
		c0.061,0.311,0.074,0.626,0.076,0.94c0.006,1.111,0.006,2.222-0.001,3.333c-0.001,0.156,0.033,0.217,0.2,0.205
		c0.214-0.015,0.431-0.014,0.645,0c0.16,0.01,0.205-0.037,0.203-0.2C99.813,15.857,99.82,14.918,99.815,13.979z"/>
	<path class="st0" d="M92.152,12.847c-0.53-0.422-1.13-0.729-1.705-1.076c-0.338-0.203-0.674-0.41-0.93-0.719
		c-0.49-0.592-0.356-1.543,0.278-1.973c0.481-0.326,1.019-0.344,1.57-0.289c0.497,0.05,0.956,0.213,1.399,0.53
		c0-0.368-0.009-0.694,0.004-1.02c0.006-0.149-0.051-0.214-0.183-0.266c-0.421-0.165-0.862-0.209-1.305-0.227
		c-0.726-0.032-1.427,0.057-2.065,0.448c-1.291,0.791-1.501,2.533-0.428,3.601c0.369,0.367,0.805,0.641,1.251,0.902
		c0.556,0.326,1.128,0.631,1.584,1.096c0.397,0.404,0.475,0.901,0.332,1.433c-0.132,0.495-0.51,0.721-0.975,0.831
		c-0.266,0.063-0.539,0.081-0.811,0.063c-0.756-0.05-1.433-0.315-2.074-0.804c0,0.369,0.015,0.697-0.006,1.024
		c-0.012,0.201,0.067,0.299,0.24,0.369c0.963,0.388,1.949,0.521,2.963,0.251c0.767-0.205,1.39-0.612,1.691-1.389
		C93.387,14.588,93.08,13.587,92.152,12.847z"/>
	<path class="st0" d="M116.632,12.71c-0.143-0.874-0.497-1.624-1.323-2.044c-1.163-0.592-3.023-0.385-3.879,1.384
		c-0.426,0.88-0.465,1.807-0.293,2.749c0.262,1.437,1.275,2.318,2.699,2.357c0.791,0.021,1.557-0.089,2.246-0.519
		c0.085-0.053,0.165-0.099,0.16-0.228c-0.01-0.271-0.003-0.542-0.003-0.86c-0.502,0.377-1.016,0.618-1.597,0.687
		c-0.605,0.072-1.193,0.028-1.703-0.348c-0.529-0.389-0.734-0.95-0.786-1.582c-0.023-0.281-0.023-0.281,0.25-0.281
		c1.354,0,2.708-0.003,4.063,0.004c0.182,0.001,0.229-0.049,0.222-0.227C116.673,13.438,116.691,13.073,116.632,12.71z
		 M115.429,13.151c-0.516-0.001-1.031-0.001-1.547-0.001c-0.516,0-1.031-0.005-1.547,0.003c-0.158,0.003-0.198-0.04-0.158-0.196
		c0.193-0.765,0.563-1.394,1.37-1.615c1.037-0.284,2.015,0.259,2.062,1.675C115.614,13.166,115.525,13.152,115.429,13.151z"/>
	<path class="st0" d="M130.004,12.705c-0.273-1.153-0.929-1.956-2.117-2.234c-0.703-0.164-1.408-0.131-2.097,0.096
		c-0.743,0.245-1.287,0.727-1.647,1.42c-0.249,0.478-0.359,0.993-0.389,1.526c-0.045,0.785,0.045,1.548,0.468,2.232
		c0.713,1.151,1.8,1.512,3.084,1.39c1.193-0.113,2.04-0.733,2.519-1.834c0.218-0.499,0.292-1.03,0.276-1.583
		C130.112,13.383,130.083,13.04,130.004,12.705z M128.753,15.226c-0.315,0.644-0.847,0.977-1.549,1.026
		c-1.352,0.094-2.239-0.681-2.367-2.034c-0.053-0.564-0.017-1.116,0.183-1.648c0.329-0.877,1.127-1.364,2.106-1.296
		c0.94,0.065,1.577,0.608,1.803,1.533c0.079,0.322,0.101,0.65,0.105,0.924C129.032,14.284,128.976,14.771,128.753,15.226z"/>
	<path class="st0" d="M105.974,12.706c0-0.216-0.015-0.43-0.055-0.641c-0.143-0.761-0.528-1.339-1.3-1.559
		c-1.049-0.299-2.039-0.051-2.993,0.404c-0.063,0.03-0.127,0.064-0.127,0.155c0.003,0.318,0.001,0.636,0.001,0.952
		c0.075,0.008,0.102-0.031,0.134-0.056c0.512-0.395,1.089-0.618,1.734-0.683c0.747-0.074,1.258,0.211,1.46,0.841
		c0.063,0.198,0.085,0.405,0.106,0.612c0.013,0.126-0.025,0.175-0.155,0.191c-0.468,0.059-0.935,0.129-1.404,0.194
		c-0.483,0.066-0.96,0.144-1.413,0.343c-1.362,0.597-1.374,2.527-0.503,3.217c0.678,0.537,1.439,0.592,2.236,0.362
		c0.542-0.156,0.914-0.538,1.238-1.059c0,0.338,0.003,0.61-0.002,0.882c-0.002,0.103,0.033,0.137,0.135,0.135
		c0.229-0.006,0.459-0.014,0.687,0.002c0.183,0.014,0.223-0.05,0.222-0.226C105.97,15.415,105.973,14.061,105.974,12.706z
		 M104.936,13.93c-0.012,0.099-0.002,0.2-0.002,0.317c0.024,0.64-0.164,1.21-0.681,1.644c-0.55,0.462-1.428,0.486-1.954,0.096
		c-0.511-0.379-0.494-1.555,0.238-1.818c0.402-0.145,0.816-0.202,1.231-0.269c0.324-0.052,0.652-0.088,0.976-0.14
		C104.888,13.737,104.957,13.767,104.936,13.93z"/>
	<path class="st0" d="M139.495,13.139c-0.001-0.301-0.014-0.601-0.07-0.898c-0.144-0.762-0.459-1.413-1.234-1.706
		c-0.656-0.249-1.319-0.219-1.962,0.073c-0.444,0.201-0.76,0.546-1.059,0.931c0-0.149,0.004-0.299-0.001-0.448
		c-0.006-0.178,0.075-0.406-0.031-0.519c-0.108-0.116-0.339-0.033-0.515-0.035c-0.492-0.006-0.492-0.002-0.492,0.481
		c0,1.906,0.005,3.812-0.006,5.717c-0.001,0.228,0.067,0.282,0.274,0.262c0.17-0.017,0.345-0.017,0.515,0
		c0.2,0.021,0.265-0.035,0.262-0.251c-0.012-1.161-0.01-2.321-0.004-3.482c0.003-0.589,0.183-1.115,0.621-1.526
		c0.466-0.439,1.019-0.565,1.63-0.396c0.576,0.158,0.819,0.605,0.94,1.146c0.063,0.281,0.081,0.566,0.081,0.853
		c-0.001,1.154,0.002,2.307-0.003,3.461c-0.001,0.145,0.032,0.205,0.188,0.196c0.214-0.013,0.431-0.014,0.644,0
		c0.178,0.012,0.227-0.045,0.227-0.225C139.492,15.561,139.497,14.35,139.495,13.139z"/>
	<path class="st0" d="M142.643,11.428c0.422,0.008,0.845-0.002,1.268,0.006c0.131,0.002,0.178-0.036,0.171-0.169
		c-0.01-0.193-0.01-0.387,0-0.58c0.006-0.127-0.043-0.155-0.16-0.154c-0.422,0.006-0.845-0.004-1.268,0.006
		c-0.149,0.003-0.196-0.037-0.193-0.19c0.009-0.516,0.001-1.032,0.006-1.547c0.001-0.134-0.021-0.183-0.168-0.127
		c-0.24,0.09-0.488,0.164-0.735,0.235c-0.114,0.033-0.156,0.087-0.154,0.211c0.009,0.408-0.003,0.817,0.007,1.225
		c0.003,0.145-0.03,0.202-0.187,0.194c-0.257-0.013-0.516,0.001-0.774-0.006c-0.114-0.003-0.17,0.021-0.164,0.152
		c0.01,0.2,0.008,0.401,0.001,0.601c-0.004,0.112,0.034,0.152,0.147,0.148c0.251-0.006,0.502,0.01,0.752-0.006
		c0.18-0.012,0.226,0.044,0.225,0.224c-0.008,1.239-0.011,2.479-0.001,3.718c0.004,0.518,0.115,1.006,0.51,1.391
		c0.506,0.493,1.576,0.456,2.075,0.22c0.059-0.028,0.081-0.072,0.08-0.136c-0.002-0.25-0.001-0.5-0.001-0.785
		c-0.075,0.035-0.113,0.053-0.151,0.07c-0.807,0.371-1.427-0.006-1.464-0.887c-0.001-0.014,0-0.029,0-0.043
		c0-1.196,0.002-2.393-0.003-3.589C142.46,11.466,142.504,11.426,142.643,11.428z"/>
	<path class="st0" d="M110.703,10.447c-0.9-0.123-1.571,0.251-1.956,1.091c-0.03,0.064-0.031,0.151-0.132,0.196
		c0-0.361-0.003-0.705,0.001-1.048c0.001-0.103-0.017-0.159-0.139-0.155c-0.258,0.008-0.516,0.008-0.774,0
		c-0.118-0.003-0.143,0.044-0.143,0.151c0.003,2.049,0.003,4.098-0.001,6.148c0,0.138,0.05,0.169,0.175,0.165
		c0.222-0.008,0.445-0.012,0.666,0.001c0.167,0.01,0.219-0.039,0.218-0.211c-0.008-1.046-0.003-2.092-0.004-3.138
		c0-0.449,0.062-0.888,0.25-1.297c0.218-0.474,0.53-0.858,1.084-0.946c0.338-0.054,0.667,0.003,0.999,0.185
		c0-0.309-0.017-0.587,0.006-0.862C110.972,10.517,110.872,10.47,110.703,10.447z"/>
	<path class="st0" d="M132.4,15.456c0-1.57-0.002-3.139,0.003-4.709c0.001-0.163-0.032-0.231-0.21-0.217
		c-0.214,0.017-0.431,0.014-0.645,0.001c-0.158-0.01-0.207,0.034-0.205,0.2c0.008,1.01,0.004,2.021,0.004,3.031
		c0,1.018,0.002,2.035-0.003,3.054c-0.001,0.136,0.03,0.191,0.176,0.185c0.229-0.011,0.459-0.011,0.687,0
		c0.147,0.008,0.198-0.035,0.195-0.189C132.393,16.359,132.4,15.907,132.4,15.456z"/>
	<path class="st0" d="M131.879,7.56c-0.393,0.001-0.674,0.283-0.674,0.674c0,0.4,0.272,0.672,0.671,0.672
		c0.389,0.001,0.687-0.283,0.694-0.663C132.578,7.856,132.278,7.558,131.879,7.56z"/>
</g>
</svg>
