<?xml version="1.0" encoding="utf-8"?>
<!-- Generator: Adobe Illustrator 22.1.0, SVG Export Plug-In . SVG Version: 6.00 Build 0)  -->
<svg version="1.1" id="Layer_1" xmlns="http://www.w3.org/2000/svg" xmlns:xlink="http://www.w3.org/1999/xlink" x="0px" y="0px"
	 viewBox="0 0 150 25" style="enable-background:new 0 0 150 25;" xml:space="preserve">
<style type="text/css">
	.st0{fill:#80A7D8;}
</style>
<g>
	<path class="st0" d="M113.097,5.108c-5.849,0-11.698,0-17.548,0c-0.485,0-0.599,0.117-0.599,0.608c0,4.298,0,8.597,0,12.895
		c0,0.49,0.115,0.607,0.601,0.607c2.914,0,5.828,0,8.743,0c2.935,0,5.87,0,8.805,0c0.464,0,0.584-0.122,0.584-0.593
		c0-4.309,0-8.617,0-12.926C113.682,5.23,113.562,5.108,113.097,5.108z M111.883,5.812c0.228,0,0.457-0.008,0.684,0.005
		c0.24,0.014,0.384,0.139,0.383,0.395c-0.001,0.104,0.002,0.208,0,0.311c-0.007,0.347-0.121,0.462-0.467,0.469
		c-0.124,0.002-0.249,0.001-0.373,0.001c-0.093,0-0.186,0.001-0.28,0c-0.465-0.002-0.558-0.096-0.56-0.567
		C111.268,5.903,111.358,5.813,111.883,5.812z M108.691,5.812c0.249-0.001,0.498-0.006,0.747,0.003
		c0.242,0.009,0.386,0.132,0.388,0.388c0.001,0.073,0.001,0.145,0.001,0.218c-0.001,0.499-0.073,0.57-0.577,0.572
		c-0.093,0-0.186,0-0.28,0c-0.073,0-0.145,0-0.218,0c-0.52-0.001-0.609-0.092-0.607-0.619
		C108.149,5.929,108.258,5.815,108.691,5.812z M105.57,5.812c0.239-0.001,0.478,0.001,0.716,0c0.263-0.001,0.405,0.137,0.434,0.39
		c0.014,0.112,0.016,0.228,0.008,0.342c-0.023,0.327-0.143,0.44-0.469,0.449c-0.135,0.004-0.27,0.001-0.405,0.001
		c-0.073,0-0.145,0-0.218,0c-0.524-0.001-0.626-0.109-0.614-0.646C105.033,5.932,105.152,5.815,105.57,5.812z M102.448,5.812
		c0.239-0.001,0.478,0,0.716,0c0.279,0.001,0.42,0.15,0.44,0.419c0.009,0.114,0.009,0.229,0.001,0.342
		c-0.018,0.267-0.148,0.425-0.434,0.42c-0.145-0.003-0.291-0.001-0.436-0.001c-0.073,0.001-0.145,0.001-0.218,0.001
		c-0.523-0.001-0.634-0.117-0.618-0.646C101.913,5.935,102.034,5.815,102.448,5.812z M98.808,6.185
		c0.001-0.241,0.147-0.361,0.373-0.369c0.3-0.011,0.601-0.009,0.902-0.001c0.245,0.007,0.378,0.149,0.398,0.39
		c0.008,0.092,0.006,0.186,0.004,0.279c-0.008,0.386-0.122,0.502-0.501,0.507c-0.114,0.001-0.228,0-0.342,0
		c-0.031,0-0.063-0.001-0.093,0.001C98.72,7.035,98.804,6.826,98.808,6.185z M95.71,6.092c0.009-0.102,0.203-0.25,0.324-0.265
		c0.317-0.038,0.644-0.037,0.961,0c0.123,0.014,0.299,0.149,0.329,0.262c0.053,0.201,0.053,0.438-0.001,0.639
		c-0.029,0.109-0.204,0.215-0.333,0.252c-0.154,0.043-0.329,0.01-0.495,0.01c0,0.001,0,0.001,0,0.002
		c-0.041,0-0.083-0.003-0.124,0.001C95.586,7.057,95.652,6.707,95.71,6.092z M97.362,17.909c-0.014,0.323-0.134,0.442-0.462,0.451
		c-0.124,0.004-0.249,0.001-0.373,0.001c-0.052,0-0.104,0-0.156,0c-0.649,0-0.703-0.057-0.688-0.717
		c0.008-0.337,0.13-0.467,0.47-0.478c0.249-0.008,0.498-0.009,0.747,0.001c0.316,0.013,0.45,0.154,0.462,0.462
		C97.365,17.722,97.366,17.816,97.362,17.909z M100.011,18.36c-0.124,0.003-0.249,0.001-0.373,0.001c-0.031,0-0.063,0-0.093,0
		c-0.713,0-0.757-0.053-0.742-0.759c0.006-0.291,0.159-0.418,0.418-0.434c0.269-0.016,0.54-0.014,0.809-0.001
		c0.364,0.017,0.469,0.186,0.457,0.69C100.476,18.228,100.361,18.351,100.011,18.36z M102.994,18.361
		c-0.218,0.001-0.437-0.003-0.655,0c-0.269,0.004-0.395-0.143-0.433-0.393c-0.097-0.646,0.075-0.804,0.878-0.804
		c0.083,0,0.166-0.001,0.25,0c0.446,0.004,0.57,0.129,0.575,0.577C103.615,18.255,103.511,18.36,102.994,18.361z M96.089,16.581
		c0-2.938,0-5.876,0-8.846c5.493,0,10.963,0,16.454,0c0,2.948,0,5.887,0,8.846C107.066,16.581,101.588,16.581,96.089,16.581z
		 M106.226,18.361c-0.114,0.002-0.229,0-0.343,0c-0.094,0-0.187,0.001-0.281,0c-0.473-0.002-0.581-0.113-0.58-0.592
		c0.001-0.484,0.122-0.603,0.611-0.605c0.198-0.001,0.395-0.005,0.592,0.001c0.383,0.011,0.508,0.168,0.506,0.62
		C106.729,18.225,106.617,18.353,106.226,18.361z M109.403,18.36c-0.135,0.002-0.27,0.001-0.405,0.001
		c-0.083,0.001-0.166,0.001-0.249,0.001c-0.504-0.001-0.603-0.099-0.603-0.594c0-0.482,0.119-0.601,0.608-0.603
		c0.208-0.001,0.415-0.007,0.622,0.002c0.321,0.015,0.443,0.146,0.449,0.464c0.002,0.104-0.001,0.208,0.001,0.311
		C109.83,18.228,109.676,18.356,109.403,18.36z M112.459,18.361c-0.114,0.002-0.228,0-0.342,0c-0.052,0-0.104-0.004-0.156,0.001
		c-0.746,0.058-0.728-0.258-0.673-0.876c0.02-0.229,0.219-0.314,0.434-0.319c0.259-0.006,0.519-0.01,0.778,0.001
		c0.32,0.013,0.442,0.146,0.449,0.466c0.002,0.083,0.001,0.166,0,0.249C112.943,18.244,112.83,18.354,112.459,18.361z"/>
	<path class="st0" d="M102.578,15.256c1.56-1.045,3.071-2.057,4.619-3.094c-1.565-1.047-3.076-2.057-4.619-3.089
		C102.578,11.157,102.578,13.173,102.578,15.256z"/>
	<polygon class="st0" points="121.105,15.503 118.818,8.866 117.663,8.866 120.641,16.912 121.58,16.912 124.565,8.866 
		123.404,8.866 	"/>
	<path class="st0" d="M125.807,8.755c-0.199,0-0.349,0.057-0.45,0.171c-0.102,0.114-0.152,0.254-0.152,0.42
		c0,0.166,0.05,0.304,0.152,0.415c0.101,0.11,0.252,0.166,0.45,0.166c0.199,0,0.35-0.055,0.453-0.166
		c0.103-0.111,0.155-0.249,0.155-0.415c0-0.166-0.052-0.306-0.155-0.42S126.006,8.755,125.807,8.755z"/>
	<rect x="125.288" y="10.932" class="st0" width="1.023" height="5.98"/>
	<path class="st0" d="M131.437,11.54c-0.409-0.479-0.964-0.718-1.663-0.718c-0.704,0-1.273,0.279-1.707,0.837
		c-0.434,0.558-0.652,1.296-0.652,2.213v0.078c0,0.914,0.218,1.654,0.655,2.222c0.437,0.567,1.001,0.851,1.694,0.851
		c0.73,0,1.299-0.25,1.708-0.752l0.05,0.641h0.939V8.423h-1.023L131.437,11.54L131.437,11.54z M131.437,15.281
		c-0.299,0.582-0.772,0.873-1.42,0.873c-0.494,0-0.88-0.191-1.161-0.575c-0.28-0.383-0.42-0.914-0.42-1.591
		c0-0.759,0.14-1.332,0.42-1.719c0.28-0.387,0.671-0.58,1.172-0.58c0.634,0,1.104,0.282,1.409,0.846L131.437,15.281L131.437,15.281z
		"/>
	<path class="st0" d="M136.117,10.822c-0.475,0-0.917,0.132-1.323,0.395c-0.407,0.264-0.724,0.628-0.951,1.094
		c-0.227,0.466-0.34,0.996-0.34,1.589v0.188c0,0.892,0.254,1.604,0.762,2.136c0.508,0.533,1.168,0.799,1.978,0.799
		c1.002,0,1.754-0.385,2.255-1.155l-0.624-0.486c-0.188,0.243-0.407,0.438-0.658,0.586c-0.25,0.147-0.556,0.221-0.917,0.221
		c-0.508,0-0.927-0.181-1.257-0.544c-0.33-0.363-0.502-0.839-0.517-1.429h4.051V13.79c0-0.954-0.215-1.687-0.646-2.199
		C137.499,11.078,136.895,10.822,136.117,10.822z M137.554,13.375h-2.995c0.066-0.542,0.24-0.962,0.519-1.263
		c0.28-0.3,0.626-0.45,1.039-0.45c0.427,0,0.767,0.143,1.017,0.428c0.25,0.286,0.39,0.688,0.42,1.207L137.554,13.375L137.554,13.375
		z"/>
	<path class="st0" d="M143.895,11.668c-0.503-0.564-1.161-0.846-1.975-0.846c-0.527,0-0.996,0.127-1.407,0.381
		c-0.411,0.255-0.731,0.615-0.961,1.083s-0.346,0.995-0.346,1.581v0.072c0,0.929,0.252,1.675,0.755,2.238
		c0.503,0.564,1.16,0.846,1.971,0.846c0.538,0,1.014-0.129,1.429-0.387c0.415-0.257,0.733-0.618,0.956-1.08
		c0.223-0.462,0.334-0.985,0.334-1.567v-0.072C144.649,12.981,144.397,12.231,143.895,11.668z M143.168,15.577
		c-0.306,0.407-0.718,0.611-1.238,0.611c-0.516,0-0.927-0.201-1.235-0.602c-0.308-0.402-0.462-0.934-0.462-1.597
		c0-0.748,0.155-1.323,0.464-1.724s0.716-0.602,1.221-0.602c0.516,0,0.929,0.203,1.241,0.611s0.467,0.939,0.467,1.594
		C143.627,14.6,143.474,15.171,143.168,15.577z"/>
</g>
</svg>
