<?xml version="1.0" encoding="utf-8"?>
<!-- Generator: Adobe Illustrator 22.1.0, SVG Export Plug-In . SVG Version: 6.00 Build 0)  -->
<svg version="1.1" id="Layer_1" xmlns="http://www.w3.org/2000/svg" xmlns:xlink="http://www.w3.org/1999/xlink" x="0px" y="0px"
	 viewBox="0 0 250 125" style="enable-background:new 0 0 250 125;" xml:space="preserve">
<style type="text/css">
	.st0{fill:#A1D784;}
	.st1{enable-background:new    ;}
	.st2{fill:#FFFFFF;}
</style>
<g>
	<path class="st0" d="M228.56,46.237c3.604-4.369,4.418-9.027,1.747-13.958c-2.3-4.245-6.074-6.46-10.876-6.214
		c-6.261,0.321-9.92,4.031-11.501,10.012c-1.06-0.67-2.014-1.273-3.087-1.95c4.151-7.218,3.701-12.879-1.262-17.234
		c-4.24-3.72-10.659-3.875-15.139-0.342c-2.194,1.73-3.727,3.954-4.306,6.686c-0.843,3.977,0.145,7.591,2.768,10.802
		c-1.151,0.733-2.136,1.36-3.245,2.067c-1.572-5.977-5.159-9.666-11.324-10.034c-4.889-0.292-8.726,1.935-11.071,6.251
		c-2.69,4.951-1.704,9.59,1.773,13.926c-5.812,3.536-8.934,8.659-9.281,15.576c2.1,0,3.979,0,5.859,0
		c0.523-5.035,2.821-8.705,7.374-10.821c4.728-2.196,8.97-0.496,13.322,1.936c1.649-8.856,6.257-14.898,15.529-14.903
		c9.291-0.005,13.842,6.096,15.51,14.987c4.31-2.833,8.632-4.099,13.319-2.021c4.674,2.073,6.837,5.954,7.355,10.784
		c2.049,0,3.929,0,5.851,0C237.476,54.853,234.272,49.785,228.56,46.237z M171.933,44.059c-3.306,0.11-6.163-2.649-6.215-6.004
		c-0.05-3.321,2.764-6.155,6.095-6.137c3.253,0.017,5.923,2.705,5.979,6.021C177.849,41.209,175.227,43.948,171.933,44.059z
		 M195.872,31.998c-3.362,0.044-6.147-2.712-6.142-6.079c0.005-3.196,2.785-5.964,6.027-6.002c3.297-0.038,6.161,2.807,6.149,6.106
		C201.896,29.255,199.169,31.954,195.872,31.998z M219.871,44.061c-3.35,0.018-6.062-2.755-6.032-6.165
		c0.029-3.264,2.758-5.977,6.015-5.978c3.314-0.002,6.112,2.847,6.071,6.177C225.884,41.319,223.12,44.043,219.871,44.061z"/>
	<path class="st0" d="M204.543,70.251c5.005-5.834,3.605-13.035-0.51-16.924c-4.388-4.146-11.238-4.323-15.979-0.417
		c-5.073,4.18-5.488,10.55-1.069,17.469c-5.647,3.622-8.954,8.622-9.126,15.598c2.082,0,3.897,0,5.691,0
		c1.369-7.267,5.208-11.337,10.984-11.834c2.868-0.247,5.52,0.286,7.923,1.873c3.573,2.359,5.129,5.904,5.541,9.914
		c2.041,0,3.849,0,5.754,0C213.596,78.871,210.148,73.903,204.543,70.251z M195.499,68.11c-3.322-0.217-6.018-3.257-5.757-6.49
		c0.261-3.223,3.227-5.837,6.389-5.63c3.258,0.214,5.904,3.09,5.765,6.265C201.75,65.573,198.745,68.322,195.499,68.11z"/>
</g>
<g>
	<path class="st0" d="M18.924,69.634c-0.969-0.467-2.092-0.701-3.368-0.701H8.925v16.998h3.502v-5.988h3.07
		c2.016,0,3.594-0.481,4.734-1.442s1.71-2.274,1.71-3.941c0-1.097-0.26-2.076-0.782-2.936
		C20.639,70.764,19.893,70.101,18.924,69.634z M17.675,76.452c-0.486,0.436-1.193,0.654-2.119,0.654h-3.129V71.77h3.21
		c0.864,0.016,1.541,0.281,2.031,0.794c0.49,0.514,0.736,1.187,0.736,2.019C18.405,75.394,18.161,76.017,17.675,76.452z"/>
	<path class="st0" d="M33.587,69.943c-1.179-0.673-2.516-1.01-4.01-1.01h-5.23v16.998h5.265c1.486-0.008,2.821-0.35,4.004-1.027
		c1.183-0.678,2.099-1.63,2.75-2.86c0.65-1.23,0.974-2.635,0.974-4.215v-0.782c0-1.579-0.331-2.99-0.992-4.232
		C35.686,71.574,34.766,70.617,33.587,69.943z M33.791,77.935c-0.016,1.665-0.385,2.946-1.109,3.841
		c-0.724,0.895-1.77,1.342-3.141,1.342h-1.693V71.77h1.728c1.377,0,2.424,0.446,3.14,1.337c0.716,0.892,1.074,2.2,1.074,3.929
		L33.791,77.935L33.791,77.935z"/>
	<path class="st0" d="M49.768,72.827c0.579-0.837,1.453-1.255,2.621-1.255c1.074,0,1.874,0.247,2.399,0.741
		c0.525,0.494,0.83,1.291,0.916,2.388h3.502c-0.187-1.899-0.88-3.374-2.078-4.425c-1.199-1.051-2.779-1.576-4.74-1.576
		c-1.417,0-2.66,0.333-3.73,0.998s-1.893,1.621-2.469,2.866s-0.864,2.685-0.864,4.32v1.039c0,2.56,0.625,4.574,1.873,6.041
		c1.249,1.468,2.963,2.201,5.143,2.201c1.992,0,3.597-0.525,4.815-1.576c1.218-1.051,1.893-2.49,2.026-4.32H55.68
		c-0.078,1.035-0.383,1.8-0.916,2.294c-0.533,0.494-1.341,0.741-2.422,0.741c-1.199,0-2.076-0.424-2.633-1.273
		c-0.557-0.848-0.834-2.191-0.834-4.028v-1.284C48.89,74.961,49.188,73.665,49.768,72.827z"/>
	<path class="st0" d="M70.874,74.631c-1.078-1.044-2.469-1.565-4.173-1.565c-1.199,0-2.252,0.268-3.158,0.806
		c-0.907,0.537-1.601,1.296-2.084,2.277c-0.483,0.981-0.724,2.098-0.724,3.35v0.151c0,2.008,0.543,3.597,1.629,4.764
		c1.085,1.168,2.539,1.751,4.36,1.751s3.273-0.586,4.354-1.757c1.081-1.171,1.622-2.726,1.622-4.664l-0.023-0.865
		C72.553,77.09,71.952,75.675,70.874,74.631z M68.639,82.504c-0.46,0.628-1.098,0.941-1.915,0.941c-0.841,0-1.487-0.317-1.938-0.953
		c-0.451-0.635-0.678-1.553-0.678-2.753c0-1.348,0.226-2.344,0.678-2.988c0.451-0.643,1.089-0.965,1.915-0.965
		c0.833,0,1.478,0.324,1.938,0.97c0.459,0.647,0.689,1.56,0.689,2.737C69.327,80.873,69.098,81.876,68.639,82.504z"/>
	<path class="st0" d="M81.621,73.067c-1.518,0-2.728,0.564-3.631,1.693l-0.105-1.46H74.71v12.632h3.374v-8.929
		c0.475-0.81,1.187-1.217,2.137-1.217c0.723,0,1.241,0.163,1.553,0.486c0.311,0.324,0.467,0.845,0.467,1.562v8.098h3.374v-8.16
		c-0.016-1.564-0.35-2.739-1.004-3.526C83.956,73.459,82.959,73.067,81.621,73.067z"/>
	<path class="st0" d="M90.312,68.928c-0.813,0.782-1.22,1.881-1.22,3.298V73.3h-1.879v2.475h1.879v10.157h3.386V75.775h2.51V73.3
		h-2.51v-1.024c0-1.2,0.634-1.801,1.903-1.801c0.404,0,0.747,0.035,1.027,0.105l0.035-2.594c-0.677-0.154-1.249-0.231-1.716-0.231
		C92.263,67.755,91.125,68.146,90.312,68.928z"/>
	<path class="st0" d="M101.899,73.067c-1.152,0-2.177,0.27-3.076,0.812c-0.899,0.54-1.594,1.311-2.084,2.311
		c-0.49,1.001-0.735,2.135-0.735,3.403v0.328c0,1.891,0.582,3.405,1.745,4.54c1.163,1.137,2.672,1.705,4.524,1.705
		c1.051,0,2.008-0.201,2.872-0.601c0.864-0.401,1.549-0.96,2.055-1.676l-1.658-1.856c-0.732,0.941-1.747,1.412-3.047,1.412
		c-0.84,0-1.535-0.249-2.084-0.747c-0.549-0.497-0.877-1.159-0.987-1.984h8.044v-1.378c0-2-0.496-3.544-1.489-4.635
		C104.987,73.611,103.626,73.067,101.899,73.067z M104.152,78.414h-4.693c0.116-0.845,0.383-1.493,0.8-1.947
		c0.416-0.453,0.959-0.681,1.629-0.681c0.716,0,1.268,0.206,1.657,0.616c0.389,0.41,0.592,0.991,0.607,1.741V78.414z"/>
	<path class="st0" d="M112.662,74.806l-0.094-1.506h-3.187v12.632h3.374v-8.265c0.397-0.865,1.234-1.297,2.51-1.297
		c0.35,0,0.755,0.033,1.214,0.094l0.046-3.246c-0.327-0.101-0.677-0.152-1.051-0.152C114.277,73.067,113.339,73.647,112.662,74.806z
		"/>
	<path class="st0" d="M123.32,73.067c-1.152,0-2.177,0.27-3.076,0.812c-0.899,0.54-1.594,1.311-2.084,2.311
		c-0.49,1.001-0.735,2.135-0.735,3.403v0.328c0,1.891,0.582,3.405,1.745,4.54c1.163,1.137,2.672,1.705,4.524,1.705
		c1.051,0,2.008-0.201,2.872-0.601c0.863-0.401,1.549-0.96,2.055-1.676l-1.657-1.856c-0.732,0.941-1.748,1.412-3.047,1.412
		c-0.841,0-1.536-0.249-2.084-0.747c-0.549-0.497-0.877-1.159-0.987-1.984h8.044v-1.378c0-2-0.496-3.544-1.489-4.635
		C126.408,73.611,125.048,73.067,123.32,73.067z M125.573,78.414h-4.693c0.116-0.845,0.383-1.493,0.8-1.947
		c0.416-0.453,0.959-0.681,1.628-0.681c0.716,0,1.269,0.206,1.658,0.616c0.389,0.41,0.592,0.991,0.607,1.741V78.414z"/>
	<path class="st0" d="M137.646,73.067c-1.518,0-2.729,0.564-3.63,1.693l-0.106-1.46h-3.175v12.632h3.374v-8.929
		c0.474-0.81,1.187-1.217,2.136-1.217c0.724,0,1.241,0.163,1.553,0.486c0.311,0.324,0.467,0.845,0.467,1.562v8.098h3.374v-8.16
		c-0.015-1.564-0.35-2.739-1.004-3.526C139.98,73.459,138.984,73.067,137.646,73.067z"/>
	<path class="st0" d="M147.645,76.647c0.4-0.573,0.994-0.86,1.779-0.86c0.639,0,1.153,0.206,1.541,0.616
		c0.389,0.411,0.592,0.946,0.608,1.603h3.163c-0.015-1.494-0.5-2.691-1.453-3.59c-0.954-0.899-2.221-1.349-3.8-1.349
		c-1.806,0-3.226,0.58-4.262,1.739c-1.035,1.16-1.553,2.714-1.553,4.659v0.222c0,2.023,0.522,3.608,1.564,4.757
		c1.042,1.148,2.467,1.722,4.273,1.722c0.965,0,1.847-0.196,2.644-0.589c0.798-0.393,1.426-0.946,1.885-1.658
		c0.46-0.712,0.693-1.496,0.701-2.352h-3.163c-0.016,0.568-0.218,1.024-0.608,1.365c-0.388,0.343-0.895,0.514-1.517,0.514
		c-0.81,0-1.413-0.284-1.809-0.853c-0.397-0.569-0.596-1.505-0.596-2.807v-0.351C147.043,78.149,147.244,77.219,147.645,76.647z"/>
	<path class="st0" d="M162.102,73.067c-1.152,0-2.177,0.27-3.076,0.812c-0.898,0.54-1.593,1.311-2.084,2.311
		s-0.736,2.135-0.736,3.403v0.328c0,1.891,0.582,3.405,1.746,4.54c1.163,1.137,2.672,1.705,4.524,1.705
		c1.051,0,2.008-0.201,2.872-0.601c0.863-0.401,1.549-0.96,2.055-1.676l-1.657-1.856c-0.732,0.941-1.748,1.412-3.047,1.412
		c-0.841,0-1.535-0.249-2.085-0.747c-0.549-0.497-0.877-1.159-0.985-1.984h8.043v-1.378c0-2-0.496-3.544-1.489-4.635
		C165.19,73.611,163.831,73.067,162.102,73.067z M164.356,78.414h-4.693c0.116-0.845,0.384-1.493,0.8-1.947
		c0.416-0.453,0.959-0.681,1.628-0.681c0.716,0,1.269,0.206,1.658,0.616c0.389,0.41,0.592,0.991,0.607,1.741L164.356,78.414
		L164.356,78.414z"/>
</g>
<g class="st1">
	<path class="st2" d="M16.381,102.892c0-0.846-0.297-1.514-0.891-2.007c-0.594-0.493-1.68-0.96-3.258-1.404
		c-1.579-0.444-2.731-0.927-3.457-1.451c-1.034-0.74-1.551-1.711-1.551-2.912c0-1.166,0.48-2.114,1.44-2.844
		s2.188-1.096,3.683-1.096c1.013,0,1.919,0.196,2.719,0.587c0.8,0.392,1.42,0.937,1.859,1.635c0.44,0.698,0.66,1.477,0.66,2.336
		h-1.299c0-1.044-0.356-1.883-1.069-2.517c-0.712-0.633-1.669-0.951-2.87-0.951c-1.167,0-2.095,0.26-2.787,0.782
		c-0.691,0.521-1.037,1.202-1.037,2.041c0,0.776,0.311,1.41,0.933,1.899c0.621,0.49,1.617,0.923,2.985,1.297
		s2.406,0.761,3.112,1.163c0.706,0.402,1.236,0.882,1.593,1.441c0.356,0.559,0.535,1.218,0.535,1.979
		c0,1.202-0.481,2.166-1.441,2.893c-0.96,0.726-2.226,1.089-3.798,1.089c-1.076,0-2.062-0.192-2.959-0.576
		c-0.898-0.383-1.579-0.922-2.043-1.613c-0.465-0.691-0.697-1.484-0.697-2.378h1.288c0,1.075,0.402,1.923,1.205,2.545
		c0.803,0.622,1.872,0.933,3.206,0.933c1.188,0,2.141-0.263,2.861-0.786C16.021,104.453,16.381,103.758,16.381,102.892z"/>
	<path class="st2" d="M26.919,105.207c-0.754,1.097-1.959,1.644-3.614,1.644c-1.209,0-2.127-0.351-2.756-1.053
		c-0.628-0.702-0.949-1.741-0.963-3.117v-7.376h1.246v7.219c0,2.158,0.873,3.238,2.619,3.238c1.816,0,2.965-0.751,3.447-2.253
		v-8.203h1.257v11.337H26.94L26.919,105.207z"/>
	<path class="st2" d="M39.991,101.089c0,1.768-0.391,3.169-1.173,4.207c-0.782,1.037-1.83,1.555-3.143,1.555
		c-1.551,0-2.738-0.544-3.562-1.634V111h-1.246V95.306h1.163l0.063,1.604c0.818-1.209,2.001-1.813,3.552-1.813
		c1.355,0,2.418,0.514,3.19,1.54c0.772,1.027,1.157,2.452,1.157,4.275L39.991,101.089L39.991,101.089z M38.735,100.87
		c0-1.447-0.297-2.588-0.891-3.426c-0.594-0.839-1.421-1.257-2.483-1.257c-0.769,0-1.428,0.185-1.98,0.555s-0.974,0.908-1.268,1.613
		v5.438c0.3,0.65,0.73,1.146,1.289,1.488c0.559,0.343,1.219,0.514,1.98,0.514c1.055,0,1.877-0.421,2.467-1.263
		C38.439,103.689,38.735,102.469,38.735,100.87z"/>
	<path class="st2" d="M51.346,101.089c0,1.768-0.391,3.169-1.173,4.207c-0.782,1.037-1.83,1.555-3.143,1.555
		c-1.551,0-2.738-0.544-3.562-1.634V111h-1.246V95.306h1.163l0.063,1.604c0.818-1.209,2.001-1.813,3.552-1.813
		c1.355,0,2.418,0.514,3.19,1.54c0.772,1.027,1.157,2.452,1.157,4.275L51.346,101.089L51.346,101.089z M50.09,100.87
		c0-1.447-0.297-2.588-0.891-3.426c-0.594-0.839-1.421-1.257-2.483-1.257c-0.769,0-1.428,0.185-1.98,0.555s-0.974,0.908-1.268,1.613
		v5.438c0.3,0.65,0.73,1.146,1.289,1.488c0.559,0.343,1.219,0.514,1.98,0.514c1.055,0,1.877-0.421,2.467-1.263
		C49.794,103.689,50.09,102.469,50.09,100.87z"/>
	<path class="st2" d="M52.895,100.806c0-1.089,0.211-2.07,0.634-2.944c0.422-0.873,1.019-1.551,1.791-2.037s1.646-0.729,2.625-0.729
		c1.508,0,2.73,0.529,3.666,1.587c0.936,1.059,1.404,2.46,1.404,4.207v0.261c0,1.097-0.211,2.084-0.634,2.96
		c-0.422,0.876-1.018,1.553-1.786,2.027c-0.768,0.475-1.645,0.712-2.629,0.712c-1.502,0-2.723-0.529-3.662-1.587
		c-0.94-1.058-1.409-2.46-1.409-4.206V100.806z M54.152,101.152c0,1.355,0.351,2.467,1.053,3.336
		c0.702,0.87,1.622,1.305,2.761,1.305c1.131,0,2.048-0.435,2.75-1.305c0.702-0.869,1.053-2.016,1.053-3.441v-0.242
		c0-0.866-0.161-1.658-0.482-2.378s-0.772-1.276-1.352-1.671c-0.58-0.394-1.243-0.592-1.99-0.592c-1.118,0-2.03,0.438-2.734,1.314
		c-0.706,0.876-1.059,2.024-1.059,3.442V101.152z"/>
	<path class="st2" d="M70.305,96.375c-0.266-0.049-0.549-0.073-0.848-0.073c-0.783,0-1.445,0.218-1.985,0.654
		c-0.542,0.437-0.927,1.07-1.158,1.902v7.784h-1.246V95.306h1.225l0.021,1.802c0.664-1.341,1.729-2.012,3.196-2.012
		c0.349,0,0.625,0.045,0.827,0.136L70.305,96.375z"/>
	<path class="st2" d="M74.222,92.404v2.902h2.347v1.027h-2.347v7.562c0,0.63,0.114,1.098,0.34,1.406
		c0.227,0.307,0.606,0.461,1.137,0.461c0.209,0,0.548-0.035,1.016-0.105l0.052,1.017c-0.328,0.119-0.775,0.177-1.341,0.177
		c-0.859,0-1.484-0.25-1.875-0.748c-0.392-0.5-0.587-1.235-0.587-2.206v-7.564H70.88v-1.027h2.085v-2.902L74.222,92.404
		L74.222,92.404z"/>
	<path class="st2" d="M89.304,100.283h-4.432v6.359h-1.299V91.388h4.955c1.628,0,2.898,0.394,3.814,1.182
		c0.915,0.789,1.372,1.891,1.372,3.307c0,0.976-0.286,1.838-0.859,2.585c-0.573,0.746-1.341,1.263-2.305,1.549l3.813,6.495v0.136
		h-1.372L89.304,100.283z M84.872,99.193h3.95c1.083,0,1.952-0.308,2.608-0.923c0.657-0.616,0.985-1.413,0.985-2.393
		c0-1.077-0.342-1.913-1.027-2.508c-0.684-0.595-1.644-0.893-2.881-0.893h-3.636L84.872,99.193L84.872,99.193z"/>
	<path class="st2" d="M100.785,106.851c-0.964,0-1.836-0.237-2.614-0.712c-0.779-0.474-1.385-1.137-1.818-1.985
		s-0.65-1.8-0.65-2.855v-0.45c0-1.09,0.211-2.071,0.634-2.945c0.422-0.873,1.011-1.558,1.765-2.058s1.571-0.75,2.451-0.75
		c1.376,0,2.467,0.469,3.274,1.41c0.807,0.939,1.21,2.222,1.21,3.85v0.702H96.95v0.241c0,1.285,0.368,2.356,1.106,3.211
		c0.737,0.856,1.664,1.284,2.782,1.284c0.671,0,1.262-0.122,1.776-0.367c0.513-0.244,0.98-0.636,1.399-1.173l0.786,0.596
		C103.876,106.184,102.538,106.851,100.785,106.851z M100.554,96.166c-0.943,0-1.737,0.345-2.384,1.037s-1.039,1.621-1.178,2.787
		h6.799v-0.136c-0.035-1.09-0.346-1.977-0.932-2.661C102.272,96.507,101.504,96.166,100.554,96.166z"/>
	<path class="st2" d="M106.44,100.87c0-1.775,0.393-3.181,1.179-4.217c0.786-1.038,1.859-1.556,3.221-1.556
		c1.53,0,2.693,0.583,3.489,1.75l0.063-1.541h1.173V111h-1.257v-5.762c-0.824,1.076-1.987,1.613-3.489,1.613
		c-1.327,0-2.389-0.523-3.185-1.571c-0.797-1.048-1.195-2.463-1.195-4.243L106.44,100.87L106.44,100.87z M107.708,101.089
		c0,1.467,0.295,2.617,0.886,3.451c0.59,0.836,1.409,1.253,2.457,1.253c1.501,0,2.587-0.653,3.258-1.959v-5.553
		c-0.314-0.678-0.749-1.199-1.304-1.567c-0.555-0.367-1.199-0.55-1.933-0.55c-1.055,0-1.879,0.417-2.472,1.252
		C108.005,98.252,107.708,99.476,107.708,101.089z"/>
	<path class="st2" d="M125.663,105.207c-0.754,1.097-1.959,1.644-3.614,1.644c-1.209,0-2.127-0.351-2.756-1.053
		c-0.628-0.702-0.949-1.741-0.963-3.117v-7.376h1.246v7.219c0,2.158,0.873,3.238,2.619,3.238c1.816,0,2.965-0.751,3.447-2.253
		v-8.203h1.257v11.337h-1.216L125.663,105.207z"/>
	<path class="st2" d="M134.012,106.851c-0.965,0-1.835-0.237-2.615-0.712c-0.779-0.474-1.384-1.137-1.818-1.985
		c-0.432-0.848-0.65-1.8-0.65-2.855v-0.45c0-1.09,0.212-2.071,0.635-2.945c0.422-0.873,1.011-1.558,1.765-2.058
		s1.571-0.75,2.451-0.75c1.376,0,2.468,0.469,3.275,1.41c0.807,0.939,1.21,2.222,1.21,3.85v0.702h-8.088v0.241
		c0,1.285,0.368,2.356,1.105,3.211c0.737,0.856,1.664,1.284,2.782,1.284c0.671,0,1.262-0.122,1.776-0.367
		c0.514-0.244,0.98-0.636,1.399-1.173l0.786,0.596C137.102,106.184,135.764,106.851,134.012,106.851z M133.78,96.166
		c-0.942,0-1.737,0.345-2.383,1.037c-0.646,0.691-1.039,1.621-1.178,2.787h6.8v-0.136c-0.035-1.09-0.345-1.977-0.932-2.661
		C135.499,96.507,134.731,96.166,133.78,96.166z"/>
	<path class="st2" d="M146.958,103.761c0-0.622-0.25-1.121-0.748-1.498c-0.5-0.378-1.253-0.673-2.258-0.886
		c-1.006-0.213-1.786-0.458-2.342-0.733c-0.555-0.277-0.968-0.614-1.236-1.011c-0.268-0.399-0.403-0.881-0.403-1.446
		c0-0.895,0.374-1.633,1.121-2.216c0.747-0.583,1.704-0.875,2.87-0.875c1.264,0,2.279,0.313,3.044,0.938s1.147,1.441,1.147,2.446
		h-1.257c0-0.664-0.278-1.216-0.833-1.655c-0.554-0.44-1.255-0.66-2.1-0.66c-0.824,0-1.486,0.182-1.985,0.55
		c-0.5,0.367-0.75,0.844-0.75,1.431c0,0.565,0.208,1.004,0.623,1.314c0.416,0.311,1.174,0.595,2.274,0.854
		c1.099,0.258,1.923,0.535,2.472,0.827c0.549,0.292,0.955,0.646,1.221,1.059c0.265,0.411,0.397,0.911,0.397,1.498
		c0,0.956-0.386,1.721-1.157,2.294s-1.779,0.859-3.023,0.859c-1.32,0-2.39-0.32-3.211-0.959c-0.82-0.639-1.231-1.447-1.231-2.425
		h1.256c0.049,0.733,0.358,1.305,0.927,1.713c0.569,0.409,1.322,0.614,2.258,0.614c0.873,0,1.578-0.192,2.116-0.576
		C146.689,104.833,146.958,104.348,146.958,103.761z"/>
	<path class="st2" d="M152.446,92.404v2.902h2.347v1.027h-2.347v7.562c0,0.63,0.114,1.098,0.34,1.406
		c0.227,0.307,0.607,0.461,1.137,0.461c0.21,0,0.549-0.035,1.017-0.105l0.052,1.017c-0.329,0.119-0.775,0.177-1.341,0.177
		c-0.859,0-1.484-0.25-1.876-0.748c-0.39-0.5-0.587-1.235-0.587-2.206v-7.564h-2.085v-1.027h2.085v-2.902L152.446,92.404
		L152.446,92.404z"/>
	<path class="st2" d="M170.232,99.508h-7.113v7.134h-1.289V91.388h9.45v1.089h-8.162v5.941h7.113v1.09H170.232z"/>
	<path class="st2" d="M172.157,100.806c0-1.089,0.212-2.07,0.635-2.944c0.422-0.873,1.019-1.551,1.791-2.037
		s1.647-0.729,2.625-0.729c1.508,0,2.731,0.529,3.667,1.587c0.936,1.059,1.404,2.46,1.404,4.207v0.261
		c0,1.097-0.212,2.084-0.633,2.96c-0.423,0.876-1.018,1.553-1.786,2.027c-0.769,0.475-1.646,0.712-2.63,0.712
		c-1.503,0-2.723-0.529-3.662-1.587s-1.41-2.46-1.41-4.206v-0.251H172.157z M173.415,101.152c0,1.355,0.351,2.467,1.053,3.336
		c0.702,0.87,1.622,1.305,2.761,1.305c1.131,0,2.048-0.435,2.75-1.305c0.702-0.869,1.053-2.016,1.053-3.441v-0.242
		c0-0.866-0.16-1.658-0.481-2.378c-0.322-0.719-0.773-1.276-1.352-1.671c-0.58-0.394-1.243-0.592-1.991-0.592
		c-1.118,0-2.029,0.438-2.734,1.314c-0.705,0.876-1.059,2.024-1.059,3.442L173.415,101.152L173.415,101.152z"/>
	<path class="st2" d="M189.568,96.375c-0.265-0.049-0.549-0.073-0.848-0.073c-0.782,0-1.445,0.218-1.986,0.654
		c-0.54,0.437-0.926,1.07-1.157,1.902v7.784h-1.247V95.306h1.226l0.021,1.802c0.664-1.341,1.729-2.012,3.196-2.012
		c0.349,0,0.625,0.045,0.827,0.136L189.568,96.375z"/>
	<path class="st2" d="M192.154,95.306l0.042,1.844c0.42-0.684,0.942-1.198,1.571-1.54c0.629-0.343,1.327-0.514,2.095-0.514
		c1.789,0,2.924,0.733,3.405,2.2c0.406-0.705,0.947-1.248,1.625-1.629c0.678-0.38,1.425-0.571,2.242-0.571
		c2.431,0,3.67,1.327,3.72,3.981v7.564h-1.257v-7.47c-0.007-1.012-0.225-1.763-0.655-2.252c-0.429-0.489-1.13-0.733-2.1-0.733
		c-0.902,0.014-1.663,0.306-2.285,0.875c-0.622,0.568-0.967,1.262-1.037,2.079v7.502h-1.257v-7.564
		c-0.007-0.97-0.236-1.696-0.687-2.174c-0.45-0.478-1.144-0.717-2.079-0.717c-0.789,0-1.467,0.225-2.033,0.675
		c-0.566,0.451-0.984,1.119-1.257,2.007v7.773h-1.257V95.306H192.154z"/>
</g>
</svg>
