<?xml version="1.0" encoding="utf-8"?>
<!-- Generator: Adobe Illustrator 22.1.0, SVG Export Plug-In . SVG Version: 6.00 Build 0)  -->
<svg version="1.1" id="Layer_1" xmlns="http://www.w3.org/2000/svg" xmlns:xlink="http://www.w3.org/1999/xlink" x="0px" y="0px"
	 viewBox="0 0 200 155" style="enable-background:new 0 0 200 155;" xml:space="preserve">
<style type="text/css">
	.st0{opacity:0.7;fill:#768693;enable-background:new    ;}
	.st1{fill:#FFFFFF;}
</style>
<circle class="st0" cx="99.667" cy="77.167" r="75.333"/>
<g>
	<path class="st1" d="M139.003,74.506c4.149-5.03,5.086-10.392,2.011-16.068c-2.648-4.887-6.992-7.437-12.52-7.153
		c-7.207,0.37-11.42,4.64-13.24,11.526c-1.22-0.771-2.319-1.465-3.554-2.245c4.778-8.309,4.261-14.826-1.453-19.839
		c-4.881-4.282-12.27-4.461-17.427-0.394c-2.526,1.992-4.29,4.552-4.957,7.697c-0.971,4.578,0.167,8.739,3.187,12.435
		c-1.325,0.844-2.459,1.566-3.735,2.379c-1.81-6.88-5.939-11.127-13.036-11.551c-5.628-0.336-10.045,2.228-12.745,7.196
		c-3.097,5.699-1.962,11.04,2.041,16.031c-6.691,4.071-10.284,9.968-10.684,17.93c2.417,0,4.58,0,6.745,0
		c0.602-5.796,3.247-10.021,8.489-12.457c5.443-2.528,10.326-0.571,15.336,2.229c1.898-10.195,7.203-17.15,17.877-17.156
		c10.696-0.006,15.934,7.017,17.854,17.252c4.962-3.261,9.937-4.719,15.332-2.327c5.38,2.386,7.871,6.854,8.467,12.414
		c2.359,0,4.523,0,6.736,0C149.267,84.424,145.578,78.59,139.003,74.506z M73.816,71.998c-3.806,0.127-7.095-3.05-7.154-6.912
		c-0.058-3.823,3.182-7.085,7.016-7.065c3.745,0.02,6.818,3.114,6.883,6.931C80.626,68.718,77.608,71.871,73.816,71.998z
		 M101.373,58.114c-3.87,0.051-7.076-3.122-7.07-6.998c0.006-3.679,3.206-6.866,6.938-6.909c3.795-0.044,7.092,3.231,7.079,7.029
		C108.308,54.957,105.169,58.064,101.373,58.114z M129,72c-3.856,0.021-6.978-3.171-6.944-7.097c0.033-3.757,3.175-6.88,6.924-6.882
		c3.815-0.002,7.036,3.277,6.989,7.111C135.922,68.844,132.74,71.98,129,72z"/>
	<path class="st1" d="M111.355,102.149c5.761-6.716,4.15-15.005-0.587-19.482c-5.051-4.773-12.937-4.976-18.394-0.48
		c-5.84,4.812-6.317,12.145-1.231,20.11c-6.501,4.169-10.307,9.925-10.506,17.956c2.397,0,4.486,0,6.551,0
		c1.576-8.366,5.995-13.051,12.644-13.623c3.301-0.284,6.354,0.329,9.121,2.156c4.113,2.716,5.904,6.796,6.379,11.413
		c2.349,0,4.431,0,6.624,0C121.777,112.072,117.808,106.353,111.355,102.149z M100.944,99.685c-3.824-0.25-6.928-3.749-6.627-7.471
		c0.3-3.71,3.715-6.719,7.355-6.481c3.751,0.246,6.797,3.557,6.636,7.212C108.14,96.764,104.681,99.929,100.944,99.685z"/>
</g>
</svg>
