<?xml version="1.0" encoding="utf-8"?>
<!-- Generator: Adobe Illustrator 21.0.2, SVG Export Plug-In . SVG Version: 6.00 Build 0)  -->
<svg version="1.1" id="Layer_1" xmlns="http://www.w3.org/2000/svg" xmlns:xlink="http://www.w3.org/1999/xlink" x="0px" y="0px"
	 viewBox="0 0 200 155" style="enable-background:new 0 0 200 155;" xml:space="preserve">
<style type="text/css">
	.st0{opacity:0.7;fill:#768693;enable-background:new    ;}
	.st1{fill:#FFFFFF;}
</style>
<circle class="st0" cx="99.667" cy="77.167" r="75.333"/>
<g id="NK8c8s.tif">
	<g>
		<path class="st1" d="M106.255,39.422c0.841,0.378,1.152,1.026,1.117,1.941c-0.049,1.305-0.013,2.614-0.013,3.989
			c-1.524,0-2.971,0-4.417,0c-0.922,0-1.845-0.009-2.767,0.003c-0.969,0.012-1.616,0.572-1.653,1.406
			c-0.036,0.822,0.653,1.496,1.632,1.512c1.614,0.027,3.228,0.008,4.843,0.008c0.758,0,1.515,0,2.318,0c0,0.976,0,1.909,0,2.963
			c-0.463,0-0.935-0.004-1.407,0.001c-0.783,0.009-1.569-0.015-2.349,0.048c-0.823,0.067-1.323,0.641-1.328,1.404
			c-0.005,0.768,0.489,1.352,1.308,1.419c0.802,0.066,1.611,0.042,2.417,0.052c0.437,0.006,0.874,0.001,1.356,0.001
			c0,0.982,0,1.918,0,2.963c-0.221,0-0.463,0-0.705,0c-2.098,0-4.197-0.002-6.295,0.001c-0.681,0.001-1.291,0.174-1.623,0.834
			c-0.503,1.001,0.201,2.073,1.396,2.086c2.144,0.023,4.289,0.008,6.434,0.008c0.25,0,0.5,0,0.794,0c0,1.009,0,1.963,0,3.004
			c-0.971,0-1.931-0.002-2.892,0.001c-0.323,0.001-0.649-0.015-0.967,0.028c-0.67,0.091-1.171,0.648-1.22,1.309
			c-0.05,0.682,0.334,1.313,1.011,1.458c0.555,0.119,1.139,0.113,1.712,0.128c0.78,0.019,1.562,0.005,2.375,0.005
			c0.019,0.31,0.035,0.571,0.058,0.942c2.418-3.416,4.767-6.735,6.994-9.881c-0.493-1.156-1.08-2.138-1.328-3.2
			c-0.432-1.848,0.143-3.549,1.234-5.073c0.496-0.693,1.003-1.38,1.531-2.049c1.182-1.496,1.398-3.026,0.363-4.717
			c-0.66-1.079-0.214-2.142,0.893-2.366c0.215-0.043,0.458-0.018,0.676,0.03c4.471,0.982,7.852,4.713,8.431,9.245
			c0.348,2.724-0.008,5.284-1.639,7.565c-0.844,1.181-1.965,1.997-3.401,2.319c-0.416,0.093-0.656,0.301-0.846,0.693
			c-1.331,2.756-2.71,5.488-4.029,8.25c-0.414,0.867-1.019,1.229-1.957,1.213c-1.683-0.028-3.367-0.02-5.05-0.003
			c-0.822,0.009-1.501-0.195-1.89-1.132c-0.473,1.055-1.309,1.138-2.222,1.134c-3.528-0.017-7.056-0.012-10.585-0.004
			c-0.897,0.002-1.651-0.19-1.944-1.263c-0.298,0.973-0.957,1.264-1.827,1.262c-2.744-0.008-5.488-0.01-8.232,0.002
			c-0.73,0.003-1.261-0.27-1.694-0.869c-1.024-1.417-2.09-2.805-3.175-4.251c2.645-2.205,5.261-4.385,7.939-6.617
			c2.282,3.195,4.539,6.354,6.796,9.513c0.048-0.004,0.096-0.007,0.144-0.011c0-0.258,0-0.516,0-0.774
			c0-8.163,0.006-16.327-0.008-24.49c-0.002-0.907,0.239-1.624,1.095-2.041C97.859,39.422,102.057,39.422,106.255,39.422z
			 M119.911,43.853c-0.15,2.48-0.861,3.533-2.211,5.368c-0.477,0.649-1.002,1.274-1.392,1.973c-0.966,1.729-0.18,3.915,1.692,4.31
			c0.402,0.085,0.793,0.241,1.177,0.393c0.789,0.312,1.555,0.167,2.14-0.351c0.553-0.489,1.067-1.103,1.379-1.766
			c0.805-1.711,0.798-3.528,0.345-5.336C122.573,46.575,121.578,45.045,119.911,43.853z"/>
		<path class="st1" d="M74.84,52.431c0.721-1.355,1.378-1.535,2.718-0.736c1.758,1.049,3.514,2.101,5.269,3.154
			c0.193,0.116,0.375,0.248,0.599,0.396c-2.376,1.982-4.708,3.927-7.145,5.961c-0.212-1.254-0.399-2.412-0.606-3.567
			c-0.27-1.507-0.556-3.01-0.835-4.515C74.84,52.892,74.84,52.662,74.84,52.431z"/>
		<path class="st1" d="M119.185,95.534c0,2.044,0.022,3.979-0.009,5.912c-0.016,1.033-0.003,2.09-0.212,3.093
			c-0.698,3.338-3.695,5.729-7.114,5.733c-8.74,0.012-17.481-0.076-26.22,0.039c-4.201,0.056-7.891-3.263-7.828-7.843
			c0.092-6.64,0.023-13.283,0.023-19.924c0-2.836-0.001-5.673,0-8.509c0.001-1.687,0.453-2.148,2.115-2.148
			c12.384-0.001,24.767-0.001,37.151,0c1.622,0,2.086,0.47,2.093,2.102c0.001,0.271,0,0.541,0,0.82
			c7.342-0.742,11.863,5.269,11.815,10.298c-0.019,2-0.523,3.867-1.599,5.568c-1.088,1.721-2.561,2.997-4.393,3.883
			C123.194,95.433,121.254,95.563,119.185,95.534z M119.247,77.867c0,4.929,0,9.797,0,14.664c3.346,0.277,6.049-0.774,7.755-3.679
			c1.504-2.561,1.417-5.227-0.225-7.704C125.015,78.491,122.407,77.555,119.247,77.867z"/>
	</g>
</g>
</svg>
