<?xml version="1.0" encoding="utf-8"?>
<!-- Generator: Adobe Illustrator 23.0.3, SVG Export Plug-In . SVG Version: 6.00 Build 0)  -->
<svg version="1.1" id="Layer_1" xmlns="http://www.w3.org/2000/svg" xmlns:xlink="http://www.w3.org/1999/xlink" x="0px" y="0px"
	 viewBox="0 0 36 10" style="enable-background:new 0 0 36 10;" xml:space="preserve">
<style type="text/css">
	.st0{fill:#00B3E3;}
	.st1{fill:#FFFFFF;}
</style>
<g>
	<path class="st0" d="M10.564,6.362c0.069,0,0.125-0.056,0.125-0.125V5.898c0-0.069-0.056-0.125-0.125-0.125
		c-0.069,0-0.125,0.057-0.125,0.125v0.339C10.439,6.306,10.495,6.362,10.564,6.362z"/>
	<path class="st0" d="M12.301,6.362c0.069,0,0.125-0.056,0.125-0.125V5.898c0-0.069-0.056-0.125-0.125-0.125
		c-0.069,0-0.125,0.056-0.125,0.125v0.339C12.176,6.306,12.232,6.362,12.301,6.362z"/>
	<path class="st0" d="M12.164,7.753c0.074-0.001,0.147,0,0.22,0c0.021,0,0.042,0,0.063,0c0-0.112,0-0.218,0-0.324
		c-0.108,0-0.213,0-0.321,0c-0.001,0.012-0.003,0.021-0.003,0.03c0,0.085,0.001,0.169,0,0.254
		C12.121,7.745,12.135,7.753,12.164,7.753z"/>
	<path class="st0" d="M11.98,7.426c-0.044,0.001-0.088,0-0.132,0l0,0c-0.047,0-0.095,0-0.142,0c-0.019,0-0.036,0.003-0.036,0.03
		c0.001,0.081,0,0.163,0,0.244c0,0.028,0.026,0.052,0.055,0.052c0.079,0,0.158,0,0.237,0c0.041,0,0.055-0.014,0.055-0.056
		c0-0.078,0-0.156,0-0.234C12.019,7.433,12.006,7.425,11.98,7.426z"/>
	<path class="st0" d="M11.57,7.022c0-0.007-0.017-0.02-0.026-0.021c-0.042-0.002-0.084-0.002-0.125-0.002c-0.058,0-0.117,0-0.178,0
		c0,0.11,0,0.216,0,0.323c0.111,0,0.219,0,0.33,0C11.571,7.22,11.571,7.121,11.57,7.022z"/>
	<path class="st0" d="M11.711,7.326c0.045,0,0.09,0,0.135,0l0,0c0.045,0,0.09,0,0.135,0c0.023,0,0.037-0.008,0.036-0.033
		c0-0.084,0.001-0.167,0-0.251c0-0.025-0.012-0.044-0.043-0.043c-0.085,0.001-0.17,0-0.254,0c-0.031,0-0.051,0.02-0.051,0.051
		c0,0.078,0.001,0.156-0.001,0.234C11.668,7.317,11.683,7.326,11.711,7.326z"/>
	<path class="st0" d="M10.788,8.177c0.112,0,0.219,0,0.328,0c0-0.108,0-0.213,0-0.321c-0.11,0-0.218,0-0.328,0
		C10.788,7.963,10.788,8.069,10.788,8.177z"/>
	<path class="st0" d="M11.701,7.854c-0.021,0-0.032,0.01-0.032,0.034c0.001,0.08,0,0.161,0,0.241c0,0.024,0.028,0.051,0.052,0.051
		c0.091,0,0.181,0,0.275,0c0.007-0.017,0.019-0.033,0.02-0.049c0.002-0.082,0-0.165,0.001-0.247c0-0.02-0.01-0.03-0.029-0.03
		C11.893,7.853,11.797,7.853,11.701,7.854z"/>
	<path class="st0" d="M12.123,7.323c0.112,0,0.218,0,0.323,0c0-0.109,0-0.215,0-0.324c-0.087,0-0.17,0-0.254,0
		c-0.085,0-0.069,0.002-0.069,0.07C12.122,7.152,12.123,7.235,12.123,7.323z"/>
	<path class="st0" d="M11.115,7.429c-0.111,0-0.219,0-0.327,0c0,0.109,0,0.214,0,0.321c0.111,0,0.218,0,0.327,0
		C11.115,7.641,11.115,7.535,11.115,7.429z"/>
	<path class="st0" d="M10.372,8.179c0.09,0,0.181,0,0.271,0c0.006,0,0.013-0.002,0.019-0.004c0-0.107,0-0.213,0-0.32
		c-0.108,0-0.213,0-0.323,0c0,0.102,0,0.201,0,0.299C10.338,8.179,10.354,8.179,10.372,8.179z"/>
	<path class="st0" d="M11.569,7.429c-0.112,0-0.22,0-0.328,0c0,0.108,0,0.214,0,0.321c0.111,0,0.218,0,0.328,0
		C11.569,7.642,11.569,7.537,11.569,7.429z"/>
	<path class="st0" d="M12.956,6.083c0-0.012-0.001-0.024-0.001-0.038h-0.5v0.143c0.004,0.016,0.018,0.027,0.018,0.045
		c0,0.093-0.075,0.168-0.168,0.168s-0.168-0.075-0.168-0.168c0-0.018,0.014-0.029,0.019-0.044V6.046h-1.442v0.142
		c0.005,0.016,0.019,0.027,0.019,0.044c0,0.093-0.075,0.168-0.168,0.168c-0.093,0-0.168-0.075-0.168-0.168
		c0-0.018,0.014-0.029,0.019-0.044V6.046H9.833c0,0.941,0,1.719,0,2.662c0.02,0,0.036,0,0.052,0c1.006,0,2.013,0,3.019,0
		c0.054,0,0.054,0,0.054-0.055C12.956,7.744,12.956,6.993,12.956,6.083z M12.65,8.401c-0.838,0-1.675,0-2.514,0
		c0-0.577,0-1.153,0-1.732c0.837,0,1.674,0,2.514,0C12.65,7.247,12.65,7.823,12.65,8.401z"/>
	<path class="st0" d="M10.662,7.429c-0.11,0-0.215,0-0.321,0c0,0.109,0,0.214,0,0.321c0.109,0,0.214,0,0.321,0
		C10.662,7.642,10.662,7.536,10.662,7.429z"/>
	<path class="st0" d="M11.116,7.001c-0.11,0-0.216,0-0.327,0c0,0.109,0,0.215,0,0.321c0.111,0,0.219,0,0.327,0
		C11.116,7.215,11.116,7.11,11.116,7.001z"/>
	<path class="st0" d="M11.543,8.179c0.023,0,0.028-0.014,0.028-0.033c0-0.046,0-0.093,0-0.139c0-0.049,0-0.099,0-0.151
		c-0.113,0-0.222,0-0.331,0c0,0.108,0,0.213,0,0.322C11.344,8.179,11.444,8.178,11.543,8.179z"/>
</g>
<g>
	<polygon class="st1" points="1.765,3.896 2.77,3.896 2.77,3.489 1.765,3.489 1.765,2.883 2.941,2.883 2.941,2.459 1.242,2.459 
		1.242,5 2.944,5 2.944,4.58 1.765,4.58 	"/>
	<polygon class="st1" points="3.791,4.384 3.44,3.112 2.913,3.112 3.55,5 4.031,5 4.668,3.112 4.141,3.112 	"/>
	<path class="st1" d="M5.591,3.077c-0.172,0-0.325,0.041-0.46,0.121C4.997,3.279,4.893,3.395,4.819,3.544
		c-0.073,0.149-0.11,0.319-0.11,0.509v0.049c0,0.283,0.087,0.509,0.261,0.679C5.145,4.95,5.37,5.035,5.646,5.035
		c0.157,0,0.3-0.03,0.429-0.09c0.129-0.06,0.232-0.143,0.307-0.25L6.135,4.417C6.026,4.558,5.874,4.628,5.68,4.628
		c-0.125,0-0.229-0.037-0.312-0.112C5.286,4.442,5.237,4.343,5.221,4.22h1.203V4.014c0-0.299-0.074-0.53-0.223-0.693
		C6.052,3.159,5.849,3.077,5.591,3.077z M5.928,3.876H5.226c0.018-0.126,0.057-0.223,0.12-0.291
		c0.062-0.068,0.143-0.102,0.243-0.102c0.107,0,0.19,0.03,0.248,0.092s0.088,0.148,0.091,0.26V3.876z"/>
	<path class="st1" d="M7.643,3.077c-0.227,0-0.408,0.084-0.543,0.253L7.084,3.112H6.609V5h0.504V3.666
		c0.071-0.121,0.177-0.182,0.319-0.182c0.108,0,0.186,0.024,0.232,0.072c0.047,0.048,0.07,0.126,0.07,0.233V5h0.504V3.78
		c-0.002-0.234-0.052-0.41-0.15-0.527C7.992,3.136,7.843,3.077,7.643,3.077z"/>
	<path class="st1" d="M9.176,4.574c-0.026-0.03-0.04-0.08-0.04-0.15V3.482h0.323v-0.37H9.136V2.648H8.631v0.464H8.356v0.37h0.275
		v1.017c0.007,0.357,0.188,0.536,0.541,0.536c0.105,0,0.207-0.015,0.306-0.045V4.607C9.435,4.616,9.385,4.62,9.33,4.62
		C9.254,4.62,9.203,4.604,9.176,4.574z"/>
	<polygon class="st1" points="9.662,5.218 10.037,5.218 10.972,2.459 10.597,2.459 	"/>
	<polygon class="st1" points="13.305,5 13.83,5 13.83,2.459 13.143,2.459 12.494,4.302 11.841,2.459 11.157,2.459 11.157,5 
		11.681,5 11.681,4.306 11.628,3.108 12.312,5 12.671,5 13.357,3.107 13.305,4.306 	"/>
	<path class="st1" d="M15.522,4.417c-0.109,0.141-0.261,0.211-0.456,0.211c-0.125,0-0.229-0.037-0.312-0.112
		c-0.082-0.074-0.131-0.173-0.147-0.296h1.203V4.014c0-0.299-0.074-0.53-0.223-0.693c-0.148-0.163-0.352-0.244-0.61-0.244
		c-0.172,0-0.325,0.041-0.46,0.121c-0.134,0.081-0.238,0.196-0.312,0.346c-0.073,0.149-0.11,0.319-0.11,0.509v0.049
		c0,0.283,0.087,0.509,0.261,0.679c0.174,0.17,0.399,0.254,0.676,0.254c0.157,0,0.3-0.03,0.429-0.09
		c0.129-0.06,0.232-0.143,0.307-0.25L15.522,4.417z M14.733,3.585c0.062-0.068,0.143-0.102,0.243-0.102
		c0.107,0,0.19,0.03,0.248,0.092s0.088,0.148,0.091,0.26v0.041h-0.702C14.631,3.75,14.67,3.653,14.733,3.585z"/>
	<path class="st1" d="M16.876,5.035c0.157,0,0.3-0.03,0.429-0.09c0.129-0.06,0.232-0.143,0.307-0.25l-0.248-0.278
		c-0.109,0.141-0.261,0.211-0.456,0.211c-0.125,0-0.229-0.037-0.312-0.112c-0.082-0.074-0.131-0.173-0.147-0.296h1.203V4.014
		c0-0.299-0.074-0.53-0.223-0.693c-0.148-0.163-0.352-0.244-0.61-0.244c-0.172,0-0.325,0.041-0.46,0.121
		c-0.134,0.081-0.238,0.196-0.312,0.346c-0.073,0.149-0.11,0.319-0.11,0.509v0.049c0,0.283,0.087,0.509,0.261,0.679
		C16.374,4.95,16.599,5.035,16.876,5.035z M16.575,3.585c0.062-0.068,0.143-0.102,0.243-0.102c0.107,0,0.19,0.03,0.248,0.092
		s0.088,0.148,0.091,0.26v0.041h-0.702C16.473,3.75,16.513,3.653,16.575,3.585z"/>
	<path class="st1" d="M17.949,4.499c0.007,0.357,0.188,0.536,0.541,0.536c0.105,0,0.207-0.015,0.306-0.045V4.607
		c-0.043,0.008-0.093,0.012-0.148,0.012c-0.076,0-0.127-0.015-0.154-0.045c-0.026-0.03-0.04-0.08-0.04-0.15V3.482h0.323v-0.37
		h-0.323V2.648h-0.504v0.464h-0.275v0.37h0.275V4.499z"/>
	<path class="st1" d="M19.247,2.363c-0.087,0-0.156,0.024-0.207,0.073s-0.076,0.111-0.076,0.187c0,0.077,0.026,0.14,0.078,0.188
		s0.12,0.073,0.205,0.073c0.085,0,0.153-0.024,0.205-0.073s0.077-0.112,0.077-0.188c0-0.076-0.025-0.138-0.076-0.187
		S19.333,2.363,19.247,2.363z"/>
	<rect x="18.994" y="3.112" class="st1" width="0.506" height="1.888"/>
	<path class="st1" d="M20.32,3.666c0.071-0.121,0.178-0.182,0.319-0.182c0.108,0,0.186,0.024,0.232,0.072
		c0.046,0.048,0.069,0.126,0.069,0.233V5h0.505V3.78c-0.003-0.234-0.053-0.41-0.15-0.527c-0.098-0.118-0.247-0.176-0.447-0.176
		c-0.227,0-0.407,0.084-0.542,0.253l-0.016-0.218h-0.475V5h0.504V3.666z"/>
	<path class="st1" d="M22.425,5.035c0.189,0,0.343-0.065,0.459-0.197v0.101c0,0.131-0.037,0.233-0.111,0.305
		c-0.074,0.071-0.179,0.107-0.312,0.107c-0.179,0-0.331-0.07-0.457-0.211L21.78,5.447c0.067,0.087,0.167,0.158,0.299,0.214
		c0.131,0.055,0.267,0.083,0.404,0.083c0.183,0,0.343-0.032,0.479-0.096s0.241-0.157,0.316-0.279s0.112-0.266,0.112-0.431V3.112
		h-0.457L22.913,3.29c-0.115-0.142-0.276-0.213-0.483-0.213c-0.234,0-0.42,0.088-0.558,0.265s-0.207,0.41-0.207,0.7v0.021
		c0,0.293,0.07,0.528,0.211,0.706C22.015,4.946,22.199,5.035,22.425,5.035z M22.273,3.633c0.069-0.1,0.164-0.149,0.285-0.149
		c0.15,0,0.259,0.058,0.326,0.173v0.797c-0.066,0.116-0.176,0.174-0.329,0.174c-0.12,0-0.215-0.049-0.283-0.146
		s-0.103-0.232-0.103-0.404C22.169,3.88,22.204,3.732,22.273,3.633z"/>
	<path class="st1" d="M15.14,7.257c0.112-0.135,0.167-0.292,0.167-0.473c0-0.235-0.078-0.421-0.235-0.558s-0.368-0.205-0.633-0.205
		h-0.842v2.644h0.098V7.534h0.917l0.703,1.131h0.104V8.64l-0.706-1.131C14.885,7.476,15.027,7.393,15.14,7.257z M14.528,7.436
		h-0.833V6.119h0.737c0.241,0,0.431,0.061,0.569,0.179s0.208,0.28,0.208,0.486c0,0.188-0.063,0.343-0.188,0.467
		C14.896,7.374,14.732,7.436,14.528,7.436z"/>
	<path class="st1" d="M16.565,6.664c-0.15,0-0.289,0.043-0.416,0.127c-0.127,0.085-0.227,0.203-0.299,0.354
		c-0.073,0.151-0.109,0.317-0.109,0.499v0.082c0,0.182,0.038,0.347,0.113,0.495c0.075,0.149,0.179,0.267,0.312,0.352
		c0.132,0.085,0.278,0.128,0.437,0.128c0.288,0,0.505-0.105,0.652-0.317l-0.069-0.049c-0.071,0.091-0.153,0.158-0.246,0.202
		c-0.093,0.044-0.205,0.066-0.337,0.066c-0.138,0-0.266-0.039-0.384-0.116C16.1,8.41,16.007,8.304,15.94,8.168
		c-0.067-0.137-0.101-0.284-0.101-0.443V7.617h1.473V7.514c0-0.254-0.07-0.459-0.209-0.615S16.784,6.664,16.565,6.664z
		 M17.213,7.496V7.52h-1.369c0.023-0.221,0.101-0.401,0.234-0.544c0.133-0.142,0.295-0.213,0.486-0.213
		c0.123,0,0.233,0.031,0.332,0.095s0.176,0.152,0.232,0.268C17.185,7.239,17.213,7.362,17.213,7.496z"/>
	<path class="st1" d="M18.992,7.051c-0.068-0.124-0.159-0.22-0.274-0.286c-0.115-0.067-0.246-0.101-0.392-0.101
		c-0.23,0-0.411,0.088-0.543,0.265c-0.132,0.176-0.198,0.421-0.198,0.734v0.025c0,0.314,0.066,0.562,0.198,0.742
		c0.132,0.181,0.312,0.271,0.539,0.271c0.146,0,0.276-0.029,0.391-0.088c0.116-0.059,0.208-0.144,0.279-0.253v1.06h0.098V6.701
		h-0.098V7.051z M18.992,8.179c-0.056,0.139-0.141,0.244-0.256,0.316c-0.115,0.072-0.253,0.108-0.416,0.108
		c-0.202,0-0.358-0.081-0.468-0.242c-0.11-0.162-0.165-0.382-0.165-0.66c0-0.309,0.056-0.542,0.168-0.701
		c0.112-0.158,0.268-0.237,0.469-0.237c0.159,0,0.295,0.041,0.41,0.125c0.115,0.084,0.201,0.207,0.258,0.37V8.179z"/>
	<path class="st1" d="M20.935,8.082c-0.032,0.171-0.106,0.301-0.224,0.389c-0.117,0.089-0.27,0.133-0.458,0.133
		c-0.177,0-0.311-0.054-0.402-0.161c-0.092-0.106-0.14-0.265-0.142-0.473V6.701H19.61v1.265c0.003,0.24,0.058,0.422,0.165,0.548
		c0.106,0.125,0.268,0.188,0.481,0.188c0.171,0,0.312-0.031,0.423-0.095s0.196-0.15,0.255-0.259v0.317h0.1V6.701h-0.1V8.082z"/>
	<path class="st1" d="M22.23,6.664c-0.15,0-0.289,0.043-0.416,0.127c-0.127,0.085-0.227,0.203-0.3,0.354
		c-0.072,0.151-0.108,0.317-0.108,0.499v0.082c0,0.182,0.037,0.347,0.112,0.495c0.075,0.149,0.179,0.267,0.312,0.352
		s0.278,0.128,0.437,0.128c0.288,0,0.505-0.105,0.651-0.317L22.85,8.335c-0.071,0.091-0.153,0.158-0.246,0.202
		s-0.205,0.066-0.337,0.066c-0.138,0-0.266-0.039-0.384-0.116s-0.211-0.184-0.278-0.319c-0.066-0.137-0.101-0.284-0.101-0.443V7.617
		h1.473V7.514c0-0.254-0.069-0.459-0.209-0.615S22.449,6.664,22.23,6.664z M22.878,7.496V7.52H21.51
		c0.022-0.221,0.101-0.401,0.234-0.544c0.133-0.142,0.295-0.213,0.486-0.213c0.122,0,0.232,0.031,0.331,0.095
		s0.176,0.152,0.232,0.268C22.851,7.239,22.878,7.362,22.878,7.496z"/>
	<path class="st1" d="M24.381,7.75c-0.095-0.051-0.223-0.095-0.385-0.133C23.834,7.58,23.71,7.541,23.626,7.5
		c-0.085-0.04-0.146-0.086-0.184-0.136c-0.038-0.05-0.057-0.119-0.057-0.208c0-0.112,0.051-0.206,0.151-0.281
		c0.1-0.075,0.236-0.112,0.408-0.112c0.179,0,0.324,0.044,0.436,0.132c0.111,0.089,0.167,0.199,0.167,0.331h0.1
		c0-0.172-0.063-0.309-0.192-0.409c-0.128-0.102-0.298-0.152-0.51-0.152c-0.195,0-0.354,0.047-0.475,0.14
		c-0.122,0.094-0.183,0.212-0.183,0.356c0,0.143,0.048,0.255,0.144,0.337c0.096,0.081,0.266,0.148,0.51,0.2
		c0.407,0.086,0.61,0.248,0.61,0.486c0,0.116-0.055,0.216-0.165,0.297c-0.109,0.082-0.252,0.123-0.427,0.123
		c-0.191,0-0.343-0.039-0.455-0.115c-0.112-0.077-0.173-0.185-0.183-0.322h-0.098c0,0.157,0.067,0.286,0.202,0.386
		s0.312,0.149,0.533,0.149c0.205,0,0.372-0.047,0.499-0.142c0.127-0.094,0.19-0.219,0.19-0.374c0-0.101-0.021-0.186-0.063-0.255
		S24.476,7.801,24.381,7.75z"/>
	<path class="st1" d="M25.808,8.587c-0.076,0.011-0.142,0.017-0.194,0.017c-0.106,0-0.183-0.033-0.229-0.101
		c-0.045-0.066-0.067-0.169-0.067-0.309V6.799h0.446V6.701h-0.446V6.17h-0.101v0.531h-0.362v0.098h0.362v1.408
		c0.002,0.171,0.033,0.296,0.095,0.375c0.062,0.08,0.164,0.119,0.307,0.119c0.097,0,0.165-0.007,0.205-0.021L25.808,8.587z"/>
</g>
</svg>
