<?xml version="1.0" encoding="utf-8"?>
<!-- Generator: Adobe Illustrator 23.0.3, SVG Export Plug-In . SVG Version: 6.00 Build 0)  -->
<svg version="1.1" id="Layer_1" xmlns="http://www.w3.org/2000/svg" xmlns:xlink="http://www.w3.org/1999/xlink" x="0px" y="0px"
	 viewBox="0 0 400 58.333" style="enable-background:new 0 0 400 58.333;" xml:space="preserve">
<style type="text/css">
	.st0{fill:#FFFFFF;}
</style>
<g id="S1p1Gx_1_">
	<g>
		<path class="st0" d="M199.936,12.038c0.586,0,1.172,0,1.758,0c0.102,0.025,0.203,0.061,0.307,0.075
			c1.092,0.148,2.201,0.216,3.274,0.449c10.958,2.379,17.955,13.431,15.482,24.416c-2.36,10.485-12.523,17.4-23.112,15.704
			c-4.362-0.698-8.132-2.604-11.256-5.732c-3.204-3.208-5.144-7.065-5.787-11.562c-0.096-0.669-0.164-1.342-0.245-2.013
			c0-0.586,0-1.172,0-1.758c0.081-0.671,0.15-1.344,0.245-2.013c0.61-4.295,2.413-8.025,5.398-11.162
			c3.258-3.423,7.238-5.486,11.925-6.16C198.592,12.186,199.265,12.119,199.936,12.038z M198.302,35.157
			c-0.138-0.201-0.193-0.313-0.277-0.397c-1.748-1.753-3.5-3.503-5.251-5.254c-0.764-0.764-1.453-0.77-2.21-0.016
			c-0.49,0.489-0.98,0.978-1.468,1.468c-0.742,0.745-0.746,1.445-0.011,2.181c2.588,2.59,5.176,5.179,7.764,7.767
			c0.734,0.734,1.436,0.733,2.178-0.007c1.423-1.42,2.844-2.842,4.265-4.263c3.088-3.087,6.176-6.174,9.262-9.263
			c0.721-0.721,0.716-1.426-0.008-2.152c-0.357-0.358-0.716-0.715-1.074-1.072c-0.818-0.812-1.479-0.814-2.289-0.005
			c-3.531,3.529-7.061,7.059-10.589,10.591C198.502,34.828,198.441,34.954,198.302,35.157z"/>
	</g>
</g>
</svg>
