<?xml version="1.0" encoding="utf-8"?>
<!-- Generator: Adobe Illustrator 25.1.0, SVG Export Plug-In . SVG Version: 6.00 Build 0)  -->
<svg version="1.1" id="Layer_1" xmlns="http://www.w3.org/2000/svg" xmlns:xlink="http://www.w3.org/1999/xlink" x="0px" y="0px"
	 viewBox="0 0 50 50" style="enable-background:new 0 0 50 50;" xml:space="preserve">
<style type="text/css">
	.st0{display:none;}
	.st1{display:inline;}
	.st2{fill:#FFFFFF;}
</style>
<g id="_x34_2FiKe_1_" class="st0">
	<g class="st1">
		<path d="M7.229,7.897c0.43,0,0.766,0,1.102,0c7.634,0,15.268,0.009,22.902-0.016c0.704-0.002,1.197,0.202,1.688,0.696
			c1.459,1.467,2.981,2.871,4.444,4.335c0.256,0.256,0.484,0.682,0.485,1.03c0.024,11.095,0.018,22.19,0.013,33.285
			c0,0.129-0.041,0.257-0.073,0.44c-10.188,0-20.345,0-30.56,0C7.229,34.415,7.229,21.229,7.229,7.897z M9.96,10.613
			c0,11.492,0,22.907,0,34.349c8.425,0,16.786,0,25.161,0c0-10.078,0-20.097,0-30.169c-1.161,0-2.247-0.043-3.328,0.014
			c-0.78,0.041-1.106-0.172-1.048-1.012c0.072-1.038,0.017-2.085,0.017-3.183C23.789,10.613,16.917,10.613,9.96,10.613z"/>
		<path d="M43.036,41.57c-1.245,0-2.451,0-3.726,0c0-0.854,0-1.682,0-2.568c0.322-0.054,0.641-0.108,1.002-0.169
			c0-10.032,0-20.025,0-30.124c-1.426,0-2.8,0-4.278,0c0-1.441,0-2.78,0-4.19c-7.036,0-13.967,0-20.962,0
			c-0.027,0.624-0.053,1.218-0.082,1.865c-0.864,0-1.663,0-2.537,0c0-1.497,0-2.97,0-4.592c0.345,0,0.703,0,1.06,0
			c7.635,0,15.27,0.009,22.905-0.015c0.703-0.002,1.204,0.2,1.694,0.695c1.456,1.471,2.977,2.878,4.425,4.355
			c0.293,0.299,0.538,0.8,0.539,1.209c0.029,10.927,0.023,21.853,0.021,32.78C43.095,41.047,43.06,41.277,43.036,41.57z"/>
		<path d="M22.158,40.501c-2.578,0-5.156-0.006-7.735,0.004c-0.754,0.003-1.401-0.151-1.422-1.054
			c-0.022-0.968,0.668-1.143,1.452-1.144c5.19-0.001,10.381,0.002,15.571-0.002c0.76-0.001,1.42,0.212,1.435,1.074
			c0.016,0.924-0.649,1.135-1.465,1.129C27.382,40.489,24.77,40.501,22.158,40.501z"/>
		<path d="M22.503,28.51c2.576,0,5.153,0.005,7.729-0.003c0.772-0.003,1.467,0.086,1.52,1.066c0.042,0.775-0.452,1.132-1.564,1.134
			c-5.119,0.005-10.237-0.001-15.356,0.006c-0.784,0.001-1.458-0.144-1.535-1.082c-0.061-0.75,0.479-1.117,1.578-1.119
			C17.418,28.507,19.96,28.51,22.503,28.51z"/>
		<path d="M22.506,20.949c-2.61,0-5.22-0.014-7.83,0.009c-0.802,0.007-1.374-0.248-1.371-1.106c0.003-0.81,0.599-1.081,1.322-1.082
			c5.288-0.005,10.576-0.008,15.864,0.005c0.719,0.002,1.279,0.289,1.258,1.13c-0.021,0.842-0.568,1.053-1.31,1.049
			C27.794,20.942,25.15,20.949,22.506,20.949z"/>
		<path d="M22.56,26.026c-2.542,0-5.085-0.007-7.627,0.004c-0.801,0.004-1.549-0.062-1.634-1.076
			c-0.063-0.748,0.484-1.124,1.579-1.125c5.119-0.004,10.237,0.001,15.356-0.004c0.772-0.001,1.497,0.102,1.511,1.075
			c0.015,1.043-0.75,1.131-1.557,1.129C27.644,26.022,25.102,26.026,22.56,26.026z"/>
		<path d="M22.508,33.59c2.609,0,5.218,0.01,7.827-0.006c0.756-0.004,1.391,0.115,1.412,1.04c0.02,0.915-0.623,1.129-1.362,1.13
			c-5.218,0.01-10.436,0.007-15.654,0.004c-0.744,0-1.417-0.205-1.423-1.084c-0.007-0.944,0.666-1.101,1.475-1.093
			C17.358,33.606,19.933,33.59,22.508,33.59z"/>
	</g>
</g>
<g>
	<path class="st2" d="M41.275,18.712c0.019-0.421-0.13-0.688-0.489-0.947c-4.272-3.072-8.531-6.159-12.794-9.242
		c-1.167-0.844-2.335-1.687-3.479-2.513c-0.064,0.015-0.084,0.014-0.096,0.023c-5.503,3.974-11.005,7.949-16.504,11.928
		c-0.098,0.071-0.218,0.192-0.22,0.291c-0.017,0.959-0.01,1.918-0.01,2.929c0.986,0,1.914,0,2.879,0c0,5.836,0,11.618,0,17.422
		c9.28,0,18.521,0,27.854,0c0-5.829,0-11.623,0-17.451c0.97,0,1.885,0,2.848,0C41.265,20.316,41.24,19.512,41.275,18.712z
		 M18.305,35.551c-1.193,0-2.392,0-3.626,0c0-4.772,0-9.551,0-14.364c1.226,0,2.413,0,3.626,0
		C18.305,25.978,18.305,30.746,18.305,35.551z M26.483,35.569c-1.352,0-2.676,0-4.028,0c0-4.798,0-9.576,0-14.38
		c1.344,0,2.667,0,4.028,0C26.483,25.966,26.483,30.745,26.483,35.569z M24.451,17.744c-2.024-0.013-3.667-1.549-3.663-3.424
		c0.004-1.872,1.663-3.406,3.683-3.407c2.042-0.001,3.694,1.545,3.686,3.45C28.149,16.228,26.473,17.758,24.451,17.744z
		 M34.266,35.588c-1.121,0-2.21,0-3.299-0.001c-0.099,0-0.197-0.009-0.323-0.015c0-4.804,0-9.582,0-14.385c1.211,0,2.398,0,3.622,0
		C34.266,25.967,34.266,30.746,34.266,35.588z"/>
	<path class="st2" d="M7.705,42.957c11.207,0,22.37,0,33.519,0c0-1.02,0-2.006,0-2.98c-11.194,0-22.344,0-33.519,0
		C7.705,40.977,7.705,41.951,7.705,42.957z"/>
	<path class="st2" d="M25.092,13.968c-0.233-0.097-0.487-0.16-0.699-0.285c-0.138-0.081-0.217-0.248-0.323-0.376
		c0.157-0.098,0.312-0.274,0.471-0.278c0.33-0.007,0.663,0.077,1.032,0.129c0.05-0.195,0.103-0.401,0.164-0.637
		c-0.342-0.089-0.63-0.163-0.911-0.236c-0.026-0.167-0.05-0.317-0.075-0.474c-0.199,0-0.363,0-0.592,0
		c0.067,0.393-0.057,0.594-0.438,0.715c-0.436,0.139-0.664,0.486-0.671,0.923c-0.007,0.426,0.248,0.715,0.637,0.899
		c0.272,0.129,0.582,0.196,0.837,0.346c0.162,0.095,0.255,0.292,0.379,0.443c-0.183,0.111-0.364,0.31-0.548,0.314
		c-0.378,0.006-0.759-0.093-1.171-0.154c-0.052,0.205-0.104,0.412-0.148,0.584c0.381,0.363,1.265,0.01,1.137,0.844
		c0.219,0,0.396,0,0.583,0c0.013-0.208,0.023-0.379,0.034-0.557c0.088-0.035,0.163-0.069,0.241-0.095
		c0.527-0.175,0.867-0.483,0.895-1.033C25.954,14.474,25.59,14.177,25.092,13.968z"/>
</g>
</svg>
