<?xml version="1.0" encoding="utf-8"?>
<!-- Generator: Adobe Illustrator 21.0.2, SVG Export Plug-In . SVG Version: 6.00 Build 0)  -->
<svg version="1.1" id="Layer_1" xmlns="http://www.w3.org/2000/svg" xmlns:xlink="http://www.w3.org/1999/xlink" x="0px" y="0px"
	 viewBox="0 0 200 155" style="enable-background:new 0 0 200 155;" xml:space="preserve">
<style type="text/css">
	.st0{opacity:0.7;fill:#768693;enable-background:new    ;}
	.st1{fill:#FFFFFF;}
</style>
<circle class="st0" cx="99.667" cy="77.167" r="75.333"/>
<g id="_x34_m1IO1.tif">
	<g>
		<path class="st1" d="M68.738,77.448c0.162-0.727,0.325-1.455,0.545-2.441c4.612,0,9.283,0,14.025,0c0,9.127,0,18.047,0,27.168
			c-3.377,0-6.717,0.038-10.053-0.051c-0.384-0.01-0.974-0.672-1.088-1.127c-1.076-4.285-2.071-8.59-3.087-12.89
			c-0.121-0.513-0.229-1.029-0.342-1.544C68.738,83.524,68.738,80.486,68.738,77.448z M78.196,99.024
			c1.369-0.005,2.06-0.7,2.094-1.88c0.034-1.197-0.702-1.962-1.887-1.981c-1.167-0.018-1.94,0.648-1.956,1.892
			C76.43,98.276,77.09,98.941,78.196,99.024z"/>
		<path class="st1" d="M123.532,94.841c0.827,3.147-0.711,7.398-3.308,9.132c-0.527,0.352-1.18,0.743-1.77,0.735
			c-5.726-0.078-11.511,0.741-17.153-0.777c-3.911-1.052-7.749-2.372-11.653-3.455c-1.326-0.368-2.752-0.373-4.304-0.566
			c0-1.657,0-3.542,0-5.426c0-5.531-0.02-11.062,0.028-16.593c0.006-0.626,0.279-1.329,0.634-1.858
			c1.922-2.861,4.282-5.496,5.78-8.557c1.948-3.982,4.493-7.382,7.643-10.402c2.594-2.486,3.783-5.597,4.179-9.085
			c0.183-1.613,0.427-3.22,0.573-4.837c0.109-1.204,0.881-1.652,1.877-1.528c0.929,0.116,1.954,0.372,2.698,0.902
			c3.206,2.28,4.881,6.956,3.567,10.717c-1.207,3.454-2.86,6.752-4.326,10.114c-0.151,0.345-0.456,0.64-0.539,0.994
			c-0.227,0.968-0.845,2.457-0.45,2.828c0.753,0.707,2.113,1.104,3.199,1.062c4.274-0.166,8.537-0.61,12.81-0.838
			c3.37-0.18,5.806,2.575,5.422,6.008c-0.09,0.802-0.246,1.613-0.5,2.377c-0.435,1.308-0.713,2.353,0.006,3.882
			c0.559,1.188-0.122,3.163-0.687,4.62c-0.617,1.592-1.006,2.933-0.416,4.697C127.55,91.097,126.355,92.867,123.532,94.841z"/>
	</g>
</g>
</svg>
