<?xml version="1.0" encoding="utf-8"?>
<!-- Generator: Adobe Illustrator 21.1.0, SVG Export Plug-In . SVG Version: 6.00 Build 0)  -->
<svg version="1.1" id="Layer_1" xmlns="http://www.w3.org/2000/svg" xmlns:xlink="http://www.w3.org/1999/xlink" x="0px" y="0px"
	 viewBox="0 0 400 58.3" style="enable-background:new 0 0 400 58.3;" xml:space="preserve">
<style type="text/css">
	.st0{fill:#A1D784;}
</style>
<g>
	<path class="st0" d="M31.3,22c-0.4-0.1-0.9-0.2-1.3-0.2c-1.8,0-3.4,0.8-4.4,2.3c-1.4,1.9-2.3,4.2-2.3,6.6c0,2.9,1.8,4.9,4.7,4.9
		c1.4,0,2.7-0.9,2.8-2.3l-0.2,0.2c0,0.2,0,0.3-0.2,0.5v-0.2L30.2,34h0l0,0.2h0l0,0.1h-0.1v0l-0.1,0l0-0.1l-0.3,0
		c0-0.3,0.3-0.5,0.3-0.8c0,0,0-0.1-0.1-0.2c-0.3,0.4-0.4,0.9-0.9,1.2c0.1-0.4,0.5-0.7,0.5-1.2v-0.1l0,0c-0.3,0.9-1.1,1.6-2.1,1.6
		c-0.7,0-0.8-1.8-0.8-2.3c0-0.4,0-1.2,0.1-1.6c3.2,0,7.4-2.5,7.4-6.1c0-2.1-1.3-3.7-3.3-4.4l-0.4,0.1L31.3,22z M27.9,24.7L27.9,24.7
		L27.9,24.7l-0.1,0.1C27.8,24.8,27.8,24.7,27.9,24.7z M26.6,25.2c0,0,0,0.1-0.1,0.2h0C26.5,25.4,26.6,25.3,26.6,25.2z M26.3,25.5
		c0,0.1,0,0.1,0,0.2C26.3,25.7,26.3,25.6,26.3,25.5z M25,26.8L25,26.8C24.9,26.7,24.9,26.7,25,26.8L25,26.8z M25.2,26.3L25.2,26.3
		l0-0.3L25.2,26.3z M25.3,26L25.3,26L25.3,26L25.3,26z M25.9,28.5L25.9,28.5c0-0.1,0-0.2,0-0.2V28.5z M26,24.8L25.8,25l-0.1,0.2
		c0,0.2-0.1,0.4-0.3,0.5c0.1-0.2,0.2-0.3,0.3-0.5v0l0.1-0.1l0.2-0.4c0,0,0.1,0,0.1,0l-0.1,0C26,24.7,26,24.7,26,24.8z M26.1,28
		c0-1,0.9-2.4,1.6-3.1C27.3,26,26.4,26.9,26.1,28z M31,26.4L31,26.4l-0.1,0.1L31,26.4c0,0,0-0.1,0-0.2L31,26.4z M33,25.4
		c-0.2,0.6-0.5,1.3-1,1.8C32,26.9,32.8,25.8,33,25.4z M31.9,27.3c0,0,0.1,0,0.1,0C32,27.3,31.9,27.3,31.9,27.3z M31.9,26.1l0,0.1h0
		L31.9,26.1z M31.8,27.3C31.8,27.3,31.8,27.3,31.8,27.3L31.8,27.3z M31.5,25.3L31.5,25.3C31.6,25.4,31.6,25.4,31.5,25.3L31.5,25.3z
		 M31.3,26L31.3,26l0.1-0.2C31.4,25.8,31.3,25.9,31.3,26z M31.3,23.8c0,1.8-2.6,4.6-4.3,4.8c0.4-2.1,2.1-4.5,4.3-5V23.8z"/>
	<path class="st0" d="M49.5,13.6c-0.6-0.8-0.9-1-1.9-1c-0.9,0-1.7,0-2.5,0.2c-0.3,0.1-0.7,0-1.1,0.1c0,0,1.8-5,1.8-5.2
		c0-0.4-0.5-0.7-0.8-0.9l-0.4,0.1V6.4l-0.5-0.2l-0.4,0.3l0.2-0.7l-0.4,0l-0.2-0.3c-0.2,0.3-0.4,0.6-0.7,0.9L43,5.7l-0.6-0.3
		c-0.4,0-0.6,0.3-0.8,0.6c-0.7,1.2-1.5,2.4-2,3.6c-0.7,1.7-1.7,3.1-2.7,4.5c-1.1,0.2-2.2,0.3-3.3,0.6c-0.5,0.1-0.6,0.3-0.7,0.8
		l0.4,0.2l0,0.3c0.3,0.4,1,0.9,1.5,1.1l0,0c0.5,0,1,0,1.5,0c0.1,0,0.6,0,0.6,0.2c0,0.3-0.1,0.6-0.2,1c-0.2,1.4-0.5,2.7-0.8,4.1
		c-0.2,1.2-0.3,2.4-0.5,3.5c-0.6,4.1-1.2,8.3-1.4,12.4c-1-0.5-1.9-0.8-3-0.9c-1.5-0.1-3.2,0.2-4.7,0.4c-2.4,0.3-4.7,0.9-7,1.6
		l-6.9,1.9h-0.4l0.4-2c0.6-2.5,1.9-8.3,2.6-10.8c0.7-2.6,1.4-5.1,2.4-7.6c0.8-2,1.7-3.9,2.8-5.8c0-0.2,0.2-0.4,0.4-0.5
		c2-1.3,4-2.5,6-3.9c1.3-0.9,2.5-1.9,3.5-3.2c0.6-0.9,0.9-1.8,0.4-2.8c-0.2-0.5-0.6-1-1-1.4c-0.3-0.3-0.8-0.6-1.3-0.8
		c-1-0.3-1.9,0.1-2.8,0.6c-1.6,0.9-2.8,2.1-3.9,3.5c-1.6,1.8-2.9,3.8-4.1,6c-0.2,0.4-0.5,0.6-0.9,0.9c-2.5,1.5-4.9,3.2-7,5.3
		c-0.7,0.8-1.4,1.8-1.8,2.8c-0.7,1.9,0.7,3.6,2.1,3.8c0.1,0,0.2,0,0.5,0c-0.4-1.2,0.1-2.2,0.6-3.2c0.7-1.3,1.8-2.1,3-3.1l0.5-0.3
		c0,0.1,0,0.2,0,0.3c-0.6,2-4.4,16.5-4.5,21.5c-0.1,0.4-0.1,0.8-0.1,1.3c-0.9,0.2-1.8,0.2-2.6,0.1c-0.5-0.1-1-0.1-1.5-0.6
		c-0.2-0.2-0.5,0-0.6,0.3c0,1.8,1,2.7,2.4,3.3c1.1,0.4,2.2,0.4,3.5,0.2c1.7-0.3,3.3-0.7,4.8-1.1c2.1-0.5,4.1-1.1,6.1-1.6
		c1.7-0.4,3.4-0.8,5-1.1c1.5-0.2,3.1-0.4,4.6-0.6c0.9-0.1,1.7,0,2.6,0.2c0,0.1,0,0.1,0,0.2c0,1.7,0,5,1.8,5.9
		c0.6,0.3,1.2,0.4,1.8,0.7l0.3-0.4c0,0.1,0.1,0.2,0.2,0.2c0.3,0,1-0.1,1-0.6c0-0.1,0-0.2,0-0.4c-0.3-1.2-0.5-2.5-0.5-3.8
		c0-3.2,0.4-6.4,0.9-9.5c1-5.9,2-11.8,3.7-17.5c1.8-0.3,6.1-0.7,7.2-2C49.9,14.1,49.5,14,49.5,13.6z M20.8,8.6c0,0,0.1,0,0.2,0
		C20.9,8.5,20.9,8.5,20.8,8.6z M24.5,7.6c0,0,0.1-0.1,0.1-0.1L24.5,7.6z M25.3,10.6c-0.1,0-0.1,0-0.2,0c-0.1,0-0.1,0.1-0.1,0.1
		c0,0,0,0,0.1-0.1C25.1,10.6,25.2,10.6,25.3,10.6c0-0.1,0-0.1,0-0.2c0,0,0,0,0.1-0.1c0,0,0,0.1,0,0.1C25.4,10.5,25.3,10.5,25.3,10.6
		z M25.3,8.7C25.3,8.6,25.3,8.6,25.3,8.7L25.3,8.7L25.3,8.7z M25.5,10.3c0.1,0,0.2,0,0.2,0C25.7,10.3,25.5,10.3,25.5,10.3z
		 M26.2,9.9l-0.4,0.2C26,10,26.1,10,26.2,9.9c0,0,0-0.1,0-0.1C26.2,9.8,26.2,9.9,26.2,9.9z M25.9,8.2C25.9,8.2,26,8.2,25.9,8.2
		C26,8.2,25.9,8.2,25.9,8.2z M29.2,6.9c0,0.1-0.1,0.2-0.1,0.3c-0.6,0.9-1.3,1.6-2.2,2.2c0,0-0.1,0-0.1,0l0.1-0.1L29,7.1L29.2,6.9z
		 M27.1,8.3L27.1,8.3C27.2,8.3,27.2,8.3,27.1,8.3C27.2,8.3,27.1,8.3,27.1,8.3z M27.2,8.1c0,0,0.1,0,0.1,0l0.1-0.1
		c0,0-0.1,0.1-0.1,0.1C27.3,8.1,27.3,8.1,27.2,8.1z M27.5,7.9L27.5,7.9C27.6,7.9,27.6,7.9,27.5,7.9z M28,7.2
		C28.1,7.2,28.1,7.2,28,7.2l0.1-0.1l0,0C28.2,7.2,28.1,7.2,28,7.2L28,7.2c-0.2,0.2-0.3,0.4-0.4,0.5l0.3-0.4L28,7.2z M27.8,6.4
		C27.9,6.4,27.9,6.4,27.8,6.4C27.9,6.4,27.9,6.4,27.8,6.4c0,0,0,0.1-0.1,0.1c-0.1,0.1-0.2,0.3-0.3,0.5L27.3,7c0,0,0,0.1-0.1,0.1
		c0,0,0,0.1-0.1,0.1c0,0,0,0-0.1,0.1l-0.1,0.1c0,0-0.1,0.1-0.1,0.1l-0.1,0.1l-0.1,0.1c0,0,0.1-0.1,0.1-0.1c0,0,0-0.1,0-0.1l0.1-0.1
		c0,0,0-0.1,0.1-0.1c0.1,0,0.1-0.1,0.1-0.1c0,0,0.1,0,0.1-0.1c0,0,0,0,0.1-0.1c0,0,0.1-0.1,0.1-0.1c0.1-0.2,0.1-0.3,0.3-0.5
		L27.8,6.4z M27.5,5.6C27.5,5.6,27.5,5.5,27.5,5.6L27.5,5.6C27.5,5.5,27.5,5.5,27.5,5.6l0.1-0.1L27.5,5.6
		C27.5,5.5,27.5,5.5,27.5,5.6C27.6,5.6,27.5,5.6,27.5,5.6L26.1,7c-0.4,0.4-0.8,0.7-1.3,1C25.7,7.1,26.4,6.2,27.5,5.6z M25.6,6.4
		L25.6,6.4C25.7,6.4,25.7,6.4,25.6,6.4C25.6,6.4,25.6,6.4,25.6,6.4z M25.8,6.3L25.8,6.3C25.9,6.2,25.9,6.2,25.8,6.3z M26,6.1
		C26,6,26,6,26,6.1C26,6,26.1,6,26,6.1C26.1,6.1,26.1,6.1,26,6.1z M26,5.3l0.4-0.2L26,5.3l-2.6,2.8l-1.2,1.6
		c-0.1,0.2-0.3,0.4-0.5,0.7c0,0-0.1,0-0.1-0.1l0.3-0.5c1-1.3,1.9-2.7,3.2-3.8C25.4,5.7,25.7,5.6,26,5.3z M22.7,7.7
		C22.7,7.7,22.7,7.6,22.7,7.7C22.8,7.7,22.7,7.7,22.7,7.7z M23.1,7.1L23.1,7.1C23.2,7.1,23.1,7.1,23.1,7.1z M25.2,5.1L25.2,5.1
		c0,0.1,0,0.1-0.1,0.2L25.2,5.1z M23.7,6.7c-0.1,0.1-0.2,0.2-0.4,0.3L24,6.1c0.2-0.2,0.5-0.5,0.8-0.7c0,0,0.1,0,0.2-0.1L23.7,6.7z
		 M24.9,4.4C24.9,4.4,24.9,4.4,24.9,4.4C24.9,4.4,24.9,4.4,24.9,4.4C24.9,4.4,24.9,4.4,24.9,4.4z M24,5.1c0,0,0.1,0,0.1-0.1
		c0,0,0-0.1,0-0.1c0,0,0.1-0.1,0.1-0.1c0,0,0,0,0,0c0.1-0.1,0.2-0.2,0.4-0.1l0.1-0.1c0,0,0-0.1,0-0.1c0,0,0,0.1,0,0.1
		c0,0,0,0.1-0.1,0.1l-0.4,0.1c0,0,0,0,0,0L24.2,5c0,0,0,0,0,0.1L24,5.1c0,0-0.1,0.1-0.1,0.1C23.9,5.2,23.9,5.2,24,5.1z M22.6,6.5
		c0,0,0.1,0,0.1-0.1c0,0,0,0,0.1-0.1c0.1,0,0.1-0.1,0.1-0.1c0,0,0,0,0-0.1l0.6-0.5c0,0,0.1-0.1,0.1-0.1c0,0,0,0.1-0.1,0.1L23,6.1
		c0,0,0,0,0,0.1l-0.2,0.1c0,0,0,0.1-0.1,0.1L22.6,6.5l-0.2,0.4C22.4,6.7,22.5,6.6,22.6,6.5z M22.2,8.2c0,0,0.1,0,0.1,0
		C22.3,8.2,22.2,8.2,22.2,8.2C22.2,8.3,22.1,8.3,22.2,8.2C22.1,8.4,22,8.5,22,8.6c0,0-0.1,0-0.1,0c0,0,0.1,0,0.1-0.1
		C22,8.5,22,8.4,22.2,8.2C22.1,8.3,22.2,8.3,22.2,8.2z M21.9,7.2c0.1,0,0.1,0,0.2,0C22,7.2,22,7.2,21.9,7.2l-0.2,0.3L21.9,7.2z
		 M21.6,9C21.6,9,21.6,9,21.6,9C21.6,9,21.6,9,21.6,9z M21.6,7.7c0,0-0.1,0-0.1,0c0,0.1,0,0.2,0,0.3V7.8C21.4,7.8,21.5,7.7,21.6,7.7
		z M21.1,8.2c0,0,0.2-0.1,0.2-0.1L21.1,8.2C21.1,8.2,21.1,8.2,21.1,8.2C21.1,8.3,21,8.4,21,8.5C21,8.4,21,8.3,21.1,8.2
		C21,8.2,21.1,8.2,21.1,8.2z M20.8,8.6c0,0.1,0,0.2-0.2,0.3C20.7,8.8,20.8,8.7,20.8,8.6z M20,9.9C20,9.9,20,9.9,20,9.9
		C19.9,9.9,19.9,9.9,20,9.9C20,9.9,20,9.9,20,9.9z M18.4,16.1L18,17c-0.3,0.6-0.6,1.3-0.9,1.9c-0.1,0.1-0.2,0.3-0.3,0.4
		C17.1,18.3,18,16.5,18.4,16.1z M16.7,19.3c0,0,0,0.1,0,0.1h0V19.3z M16.4,20.2c0-0.1,0.1-0.3,0.2-0.4
		C16.6,19.9,16.7,20.1,16.4,20.2c0,0,0,0.1,0,0.2h-0.1C16.3,20.3,16.4,20.2,16.4,20.2z M15.9,21.4C16,21.4,16,21.4,15.9,21.4
		C16,21.4,16,21.4,15.9,21.4L15.9,21.4L15.9,21.4z M10.2,20.2L10.2,20.2c0,0-0.1,0.1-0.2,0.1c0,0,0,0.1-0.1,0.1l-0.1,0.4
		c0,0,0,0,0,0c0-0.1,0.1-0.2,0.2-0.4c0,0,0,0,0.1-0.1C10.1,20.3,10.1,20.3,10.2,20.2z M9.7,19.5c0,0,0.1,0,0.2,0c0,0,0,0,0,0
		c0,0,0,0,0,0C9.9,19.5,9.8,19.5,9.7,19.5c0,0,0,0.1-0.1,0.1L9.7,19.5z M8.9,20.6C8.9,20.6,8.9,20.6,8.9,20.6
		C8.9,20.6,8.9,20.6,8.9,20.6C9,20.6,9,20.6,8.9,20.6z M9.2,20.2c-0.1,0-0.1,0-0.1,0.1C9.1,20.3,9.1,20.2,9.2,20.2
		c0-0.1,0-0.2,0.1-0.2c0,0,0-0.1,0-0.1c0,0,0,0,0,0c0,0,0,0,0,0.1C9.3,20,9.2,20.1,9.2,20.2z M9.4,22.6C9.4,22.5,9.4,22.5,9.4,22.6
		C9.5,22.5,9.5,22.5,9.4,22.6L9.4,22.6z M9.4,19.9c0,0,0.1-0.1,0.1-0.1L9.4,19.9z M9.6,22.3L9.6,22.3C9.6,22.3,9.6,22.3,9.6,22.3z
		 M10.9,21.3L10.9,21.3L10.9,21.3L10.9,21.3z M11.4,19.9c-0.5,0.8-1.1,1.5-1.7,2.2c0,0-0.1,0.1-0.1,0.1c0.3-0.8,0.9-1.5,1.5-2.1
		l0.5-0.4L11.4,19.9z M12,19.5c0,0,0-0.1,0-0.2C12,19.4,12,19.4,12,19.5z M12.2,19.2c0,0,0-0.1,0.1-0.1L12.2,19.2z M12.4,19
		C12.4,19.1,12.3,19.1,12.4,19C12.3,19.1,12.3,19,12.4,19l0.1-0.1C12.5,18.9,12.4,19,12.4,19z M16.7,42.9
		C16.7,42.9,16.7,42.9,16.7,42.9L16.7,42.9C16.7,42.9,16.7,42.9,16.7,42.9C16.7,42.9,16.7,42.9,16.7,42.9z M17.8,42.6L17.8,42.6
		L17.8,42.6L17.8,42.6z M18.3,42.5L18.3,42.5C18.3,42.4,18.3,42.4,18.3,42.5C18.3,42.5,18.3,42.5,18.3,42.5z M18.7,42.3
		C18.6,42.3,18.6,42.4,18.7,42.3C18.6,42.3,18.6,42.3,18.7,42.3C18.6,42.3,18.6,42.3,18.7,42.3C18.7,42.3,18.7,42.3,18.7,42.3z
		 M19.1,42.2C19.1,42.2,19.1,42.2,19.1,42.2C19.1,42.2,19.1,42.2,19.1,42.2L19.1,42.2z M19.4,42.2L19.4,42.2l0.2,0
		C19.5,42.2,19.4,42.2,19.4,42.2z M19.9,42.1c-0.1,0-0.1,0-0.2,0l0.2-0.2V42.1z M20.7,41.8c0,0-0.1,0-0.2,0L20.7,41.8L20.7,41.8z
		 M21.5,41.6C21.5,41.6,21.5,41.6,21.5,41.6C21.6,41.6,21.6,41.6,21.5,41.6C21.5,41.6,21.5,41.6,21.5,41.6z M41.7,8l0.1-0.2
		C41.8,7.9,41.8,8,41.7,8c0,0.1,0,0.2-0.1,0.2L41.7,8z M41.6,8.4C41.6,8.4,41.6,8.4,41.6,8.4C41.6,8.4,41.6,8.4,41.6,8.4z M41.3,12
		C41.3,12,41.3,12,41.3,12C41.3,12,41.3,12,41.3,12z M41.3,12.1c-0.1,0.5-0.1,1-0.5,1.4C40.8,13,40.9,12.4,41.3,12.1z M40.1,17.5
		L40.1,17.5C40.2,17.5,40.2,17.5,40.1,17.5L40.1,17.5z M40,17.9L40,17.9v0.3V17.9z M39.7,12.9L39.7,12.9
		C39.7,12.9,39.7,12.9,39.7,12.9z M37.7,13.9c0-0.1,0.1-0.2,0.2-0.2L37.7,13.9L37.7,13.9z M35.3,34.3L35.3,34.3l0,0.6h0V34.3z
		 M35.1,36.4L35.1,36.4l0,0.6h0V36.4z M35.5,33.5L35.5,33.5l0.4-4l0.1,0C35.9,30.8,35.7,32.2,35.5,33.5z M36.1,28.8
		c0-1.6,1.6-10.8,2.3-11.9c-1,4-1.6,8.1-2.3,12.1V28.8z M36.2,38.4L36.2,38.4l0-0.5h0V38.4z M36.3,37.2L36.3,37.2L36.3,37.2
		L36.3,37.2L36.3,37.2z M36.4,36.2L36.4,36.2v-0.9h0L36.4,36.2z M36.5,34.8L36.5,34.8c-0.1-0.2,0-0.4,0-0.7h0V34.8z M36.6,33.3
		c0-2,2.2-15.5,3.1-16.6c-0.6,2.8-1.2,5.6-1.8,8.4c-0.5,2.8-0.9,5.6-1.4,8.4V33.3z M39.9,18.8L39.8,19l0,0L39.9,18.8z M39.7,19.4
		v0.1h-0.1L39.7,19.4z M39.5,20.5v0.1h0L39.5,20.5L39.5,20.5z M39.3,21.1L39.3,21.1L39.3,21.1L39.3,21.1z M39.2,21.6l0,0.2h0
		C39.2,21.7,39.2,21.7,39.2,21.6L39.2,21.6z M39.1,22.2v0.1h0L39.1,22.2L39.1,22.2z M38,38.9L38,38.9l0-0.1h0V38.9z M38.1,37.5
		L38.1,37.5c0-0.1,0-0.2,0-0.2V37.5z M38.3,35.9L38.3,35.9l0-0.1h0V35.9z M37,43.7c-0.1-0.7-0.1-1.5-0.1-2.2c0-4.2,0.7-8.5,1.3-12.7
		c0.7-4.1,1.4-8.3,2.6-12.3l0.4,0C39,25.4,37.4,34.5,37,43.7z M38.4,34.8L38.4,34.8l0-0.2h0V34.8z M38.5,33.7v-0.2h0L38.5,33.7z
		 M38.7,32.8c0,0,0-0.1,0-0.2h0C38.7,32.7,38.7,32.8,38.7,32.8L38.7,32.8z M38.8,32L38.8,32l0-0.3h0V32z M39,31L39,31l0-0.2h0V31z
		 M39.1,30.2L39.1,30.2l0-0.4h0V30.2z M39.3,29.4L39.3,29.4l-0.1-0.3h0.1V29.4z M39.3,28.6v-0.2h0C39.4,28.5,39.4,28.5,39.3,28.6
		L39.3,28.6z M39.5,27.8L39.5,27.8l0-0.2h0V27.8z M39.7,27.2L39.7,27.2l0-0.3h0V27.2z M39.7,26.5v-0.3h0
		C39.8,26.3,39.8,26.4,39.7,26.5L39.7,26.5z M39.9,25.9L39.9,25.9l0-0.4h0V25.9z M40.1,25.2C40,25.2,40,25.2,40.1,25.2l0-0.3h0V25.2
		z M40.1,24.5L40.1,24.5l0-0.3h0V24.5z M40.3,23.9L40.3,23.9l0-0.3h0V23.9z M40.4,23.3L40.4,23.3V23V23.3z M40.5,22.8
		c0-0.1,0-0.1,0-0.2c0-0.1,0.1-0.2,0.2-0.2L40.5,22.8z M40.6,22.4c0-0.1,0-0.1,0-0.2c0-0.1,0.1-0.2,0.2-0.2L40.6,22.4z M40.8,21.8
		c0-0.1,0-0.3,0-0.4h0.1C40.8,21.5,40.8,21.7,40.8,21.8z M40.9,21.1L40.9,21.1c-0.1-0.1,0-0.1,0-0.2V21.1z M41,20.7L41,20.7
		C40.9,20.7,40.9,20.6,41,20.7L41,20.7z M41.5,18.8L41.5,18.8L41.5,18.8c-0.1,0.3-0.2,0.6-0.3,0.8v0l-0.1,0.4l0,0.1c0,0,0-0.1,0-0.1
		c0-0.1,0-0.2,0-0.4l0,0C41.2,19.3,41.2,19.1,41.5,18.8L41.5,18.8c0-0.1,0-0.2,0-0.3c0-0.2,0.1-0.4,0.2-0.5
		C41.6,18.3,41.6,18.5,41.5,18.8z M41.8,17.5l-0.1,0.3c0-0.2,0-0.3,0.1-0.5V17.5z M42.3,7.1c0-0.2,0.1-0.3,0.2-0.5v0.1L42.3,7.1
		c0,0,0,0.1-0.1,0.2C42.2,7.3,42.2,7.2,42.3,7.1z M42.4,9.4l-0.1,0.1V9.4H42.4z M42.1,16.6c0,0.1,0,0.3-0.2,0.3l0.2-0.5V16.6z
		 M42.5,12.9c0,0.2-0.1,0.4-0.4,0.4H42c0-0.4,1.1-3.2,1.4-3.6c0.1-0.2,0.3-0.4,0.5-0.6C43.4,10.4,43,11.6,42.5,12.9z"/>
	<path class="st0" d="M57,7.9l-3.4,0.3c-0.4,2.7-1.4,6.7-2.2,8.9l2.1-0.3C54.5,15.2,56.1,11.1,57,7.9z"/>
	<rect x="52.6" y="37.2" class="st0" width="0" height="0.2"/>
	<polygon class="st0" points="52.8,36.7 52.7,36.9 52.8,36.9 	"/>
	<path class="st0" d="M53.5,36.9L53.5,36.9l0-0.3C53.5,36.6,53.5,36.8,53.5,36.9z"/>
	<path class="st0" d="M96.3,24.6c0-1.1-0.4-1.9-1.2-2.6c-1.4-1.3-3.2-2.3-4.9-3.3c0-1.1-0.2-2.1-0.3-3.2c-0.2-1.7-1.2-3.2-2.8-3.9
		c-0.4-0.2-0.8-0.3-1.2-0.3c-1.4,0-2.6,1.6-2.6,2.9c0,2.6,2.6,4,4.4,5.3C87,24,85.4,28.1,83,32c-0.1,0.2-0.3,0.5-0.5,0.7l-0.6-0.5
		c-0.2,0.1-0.5,0.2-0.7,0.3c-1.3,0.9-2.4,1.6-4.1,1.8c0-0.2-0.1-0.3-0.1-0.5c0-3.5,0.7-7.7,3.7-10c0.3-0.2,0.7-0.3,1.1-0.3h0.3
		c-0.3,0.7-0.5,1.4-0.5,2.1c0,1.6,1,2.7,2.5,2.9c-0.1-0.5-0.3-0.9-0.3-1.4c0-0.8,0.4-1.6,0.4-2.4c0-0.3-0.1-0.6-0.2-0.9
		c-0.8-1.6-2.5-3.1-4.4-3.1c-3.7,0-6.2,6.7-6.2,9.8c0,2.8,1.9,5.7,5,5.7c0.8,0,2.1-0.5,3.2-1.1l0.9,0.3c0.9-0.5,1.5-1.3,2.1-2
		c2.8-3.8,5-8,5.5-12.8c0.9,0.4,2.2,0.9,2.2,2c0,0.7-0.5,2.3-0.8,3c-1.2,3.1-3.2,8.4-3.2,11.7c0,2.7,1.3,6.1,4.4,6.1
		c0.7,0,2.2-0.3,2.2-1.2c0-0.2,0-0.4-0.1-0.6h-0.4l-0.2,0.3l0,0l0-0.4l-1.4-0.3c-0.2-0.6-0.3-1.3-0.3-1.9c0-2.7,1.6-6.7,2.4-9.3
		C95.4,28.5,96.3,26.1,96.3,24.6z M95.3,26.5L95.3,26.5L95.3,26.5L95.3,26.5z M84.4,13.3L84.4,13.3l0.2-0.5
		C84.5,12.9,84.5,13.1,84.4,13.3z M85.7,14.1c0-0.1,0-0.1,0-0.2c0-0.2,0.1-0.4,0.3-0.6C85.8,13.6,85.8,13.9,85.7,14.1z M82.6,24.1
		L82.6,24.1L82.6,24.1C82.5,24.1,82.5,24.1,82.6,24.1z M78.4,23.3c-0.2,0.3-0.5,0.5-0.8,0.8C77.5,23.8,78.1,23.3,78.4,23.3z
		 M76.5,24c0.2-0.3,0.9-1.4,1.3-1.4C77.5,22.9,76.9,23.8,76.5,24z M79.1,23.5l0.4-0.1h0c-0.9,0.8-1.5,1.7-2.1,2.7
		c-0.2,0.3-0.3,0.4-0.4,0.7h0C77.3,26,78.3,23.9,79.1,23.5z M87.9,21.8L87.9,21.8V22V21.8z M87.8,17.5c-0.9-0.5-1.5-1.7-1.5-2.7
		c0-0.6,0.3-1.2,0.8-1.7c0.5,0.7,0.8,2.8,0.8,3.7C87.9,17.1,87.8,17.4,87.8,17.5z M87.8,22.3L87.8,22.3l-0.1,0.2L87.8,22.3z
		 M87.6,23.1L87.6,23.1c0,0,0,0.1,0,0.2C87.6,23.2,87.6,23.1,87.6,23.1z M87.5,23.3c0,0,0,0.1,0,0.1L87.5,23.3z M87.4,23.7l-0.1,0.6
		C87.2,24.2,87.3,23.9,87.4,23.7z M87.2,24.5L87.2,24.5c0,0.4-0.2,0.9-0.4,1.4L87.2,24.5z M84.6,32.2L84.6,32.2L84.6,32.2L84.6,32.2
		z M85,29.7l0.4-0.8C85.3,29.2,85.2,29.5,85,29.7z M86.4,29.3c1-2.3,1.8-4.6,2.6-7c0-0.1,0-0.2,0.1-0.2C89,23.6,87.5,28.1,86.4,29.3
		z M89.3,21.7L89.3,21.7l0-0.2h0V21.7z M89.3,21.1L89.3,21.1l0-0.1h0V21.1z M93.7,25.8L93.7,25.8v0.1V25.8z M92.8,25L92.8,25
		c0,0,0,0.1,0,0.2V25z M89.3,35.9l0.5-1.9l2.3-7.1c0.1-0.5,0.3-1.2,0.6-1.6c-0.7,2.6-1.7,5.2-2.5,7.7C90,34,89.7,35.1,89.3,35.9z
		 M90.3,36.9c0-0.1,0-0.1,0-0.2C90.4,36.7,90.4,36.8,90.3,36.9L90.3,36.9z M90.4,36.5c0.2-1.1,0.4-2.2,0.7-3.3l2.4-7l0.1-0.1
		c-0.3,2-1.3,4-1.9,5.9C91.3,33.4,91,34.9,90.4,36.5L90.4,36.5z M93.5,28L93.5,28L93.5,28L93.5,28z M92.8,30.1L92.8,30.1L92.8,30.1
		L92.8,30.1z M92.2,32L92.2,32L92.2,32L92.2,32z M92.1,32.3L92.1,32.3L92.1,32.3L92.1,32.3z M92,32.7L92,32.7L92,32.7L92,32.7z
		 M91.4,34.4L91.4,34.4L91.4,34.4L91.4,34.4z M92.1,37.1C92,37,92,37,92.1,37.1L92.1,37.1L92.1,37.1z M92.2,36.6L92.2,36.6
		L92.2,36.6L92.2,36.6L92.2,36.6z M91.5,36.8c-0.1,0.7-0.2,1.4-0.3,2c0-0.3,0-0.6,0-0.9c0-1,0.2-2,0.5-3c1-3.3,2.1-6.7,3.3-9.9H95
		c-0.1,1.6-0.8,3.1-1.3,4.5C92.9,31.9,92,34.3,91.5,36.8z M92.5,35.4L92.5,35.4l0-0.1h0V35.4z M92.6,35L92.6,35l0-0.1h0V35z
		 M92.8,34.3L92.8,34.3C92.8,34.3,92.8,34.2,92.8,34.3L92.8,34.3z M92.9,33.9L92.9,33.9L92.9,33.9L92.9,33.9z M92.9,33.5L92.9,33.5
		C93,33.5,93,33.5,92.9,33.5L92.9,33.5z M93.1,33.3L93.1,33.3l0-0.1h0V33.3z M93.4,32.2C93.4,32.2,93.4,32.2,93.4,32.2L93.4,32.2
		L93.4,32.2z M93.5,31.9C93.5,31.9,93.5,31.9,93.5,31.9L93.5,31.9z M93.7,31.3L93.7,31.3L93.7,31.3L93.7,31.3z M93.8,31L93.8,31
		L93.8,31C93.9,31,93.9,31,93.8,31z M94,30.7L94,30.7L94,30.7L94,30.7L94,30.7z M94.5,29.2L94.5,29.2L94.5,29.2L94.5,29.2L94.5,29.2
		z M94.6,28.9L94.6,28.9L94.6,28.9L94.6,28.9L94.6,28.9z M94.7,28.5L94.7,28.5L94.7,28.5L94.7,28.5z"/>
	<path class="st0" d="M107.8,24.5c0-2.1-1.3-3.7-3.3-4.4l-0.4,0.1l1,1.8c-0.4-0.1-0.9-0.2-1.3-0.2c-1.8,0-3.4,0.8-4.4,2.3
		c-1.4,1.9-2.3,4.2-2.3,6.6c0,2.9,1.8,4.9,4.7,4.9c1.4,0,2.7-0.9,2.8-2.3l-0.2,0.2c0,0.2,0,0.3-0.2,0.5v-0.2l-0.1,0.2h0l0,0.2h0
		l0,0.1h-0.1v0l-0.1,0l0-0.1l-0.3,0c0-0.3,0.3-0.5,0.3-0.8c0,0,0-0.1-0.1-0.2c-0.3,0.4-0.4,0.9-0.9,1.2c0.1-0.4,0.5-0.7,0.5-1.2
		v-0.1l0,0c-0.3,0.9-1.1,1.6-2.1,1.6c-0.7,0-0.8-1.8-0.8-2.3c0-0.4,0-1.2,0.1-1.6C103.6,30.5,107.8,28,107.8,24.5z M104.9,26.4
		L104.9,26.4l-0.1,0.1L104.9,26.4c0,0,0-0.1,0-0.2L104.9,26.4z M106.9,25.4c-0.2,0.6-0.5,1.3-1,1.8
		C105.9,26.9,106.7,25.8,106.9,25.4z M105.8,27.3c0,0,0.1,0,0.1,0C105.9,27.3,105.8,27.3,105.8,27.3z M105.8,26.1l0,0.1h0
		L105.8,26.1z M105.7,27.3C105.7,27.3,105.7,27.3,105.7,27.3L105.7,27.3z M105.4,25.3L105.4,25.3C105.5,25.4,105.5,25.4,105.4,25.3
		L105.4,25.3z M105.2,26L105.2,26l0.1-0.2C105.3,25.8,105.2,25.9,105.2,26z M105.2,23.6v0.2c0,1.8-2.6,4.6-4.3,4.8
		C101.3,26.4,103.1,24.1,105.2,23.6z M101.8,24.7L101.8,24.7L101.8,24.7l-0.1,0.1C101.7,24.8,101.7,24.7,101.8,24.7z M100.5,25.2
		c0,0,0,0.1-0.1,0.2h0C100.4,25.4,100.5,25.3,100.5,25.2z M100.2,25.5c0,0.1,0,0.1,0,0.2C100.2,25.7,100.2,25.6,100.2,25.5z
		 M98.9,26.8L98.9,26.8C98.8,26.7,98.8,26.7,98.9,26.8L98.9,26.8z M99.1,26.3L99.1,26.3l0-0.3L99.1,26.3z M99.2,26L99.2,26L99.2,26
		L99.2,26z M99.8,28.5L99.8,28.5c0-0.1,0-0.2,0-0.2V28.5z M99.9,24.8L99.7,25l-0.1,0.2c0,0.2-0.1,0.4-0.3,0.5
		c0.1-0.2,0.2-0.3,0.3-0.5v0l0.1-0.1l0.2-0.4c0,0,0.1,0,0.1,0l-0.1,0C99.9,24.7,99.9,24.7,99.9,24.8z M100,28c0-1,0.9-2.4,1.6-3.1
		C101.2,26,100.3,26.9,100,28z"/>
	<path class="st0" d="M121.9,30.9L121.9,30.9c0,0.1-0.1,0.2-0.2,0.4l-0.1,0.1h0c-0.1,0.2-0.2,0.4-0.3,0.6l0-0.2l-0.3,0.5h0l-0.1,0.2
		h0c-0.1,0.2-0.3,0.5-0.4,0.7c-0.1,0.4-0.5,0.7-0.6,1.1l-0.1,0.2l-0.1,0.1l-0.1,0.2v-0.2c-0.3,0.2-0.4,0.5-0.5,0.9h0.1l0,0v0h0
		c-0.1,0.2-0.4,0.5-0.4,0.8l0-0.2l-0.3,0.2l0.4-0.8l-1.6,1.8c0.9-1.8,2.5-3.4,3.5-5.2l-0.2,0.2c-0.2,0.2-0.4,0.6-0.6,0.9
		c-0.8,1-1.6,2-2.4,2.9c0,0,0,0,0,0v0h0c0.4-1,1.3-1.8,1.9-2.7h-0.1c-0.5,0.5-1,1.2-1.6,1.6c0-1.6,2.1-7.6,2.8-9.3
		c0.1-0.3,0.2-0.6,0.2-1c0-0.2-0.2-0.4-0.4-0.4c-0.5,1-0.9,2.1-1.4,3.2c0,0.1-0.1,0.1-0.1,0.2c0,0,0,0,0,0l0,0
		c0.4-1.2,0.9-2.3,1.3-3.5l-0.2-0.1v0l-0.2,0.1l0-0.3c0,0-0.1-0.1-0.2-0.1c-0.1,0-0.2,0.1-0.3,0.2l-0.1,0.1l0,0.2l-0.1,0
		c0.2-0.2,0.1-0.1,0.2-0.3l0.1,0l0-0.5c-1.1,0.4-1.3,1.5-2.1,2.2l-4.7,4.2l-0.8,0.6l-0.1-0.1c1.4-3.2,3.2-7.1,6.7-8.3l1.4,0.4
		c0-0.1,0.1-0.2,0.1-0.3c0-0.1-0.1-0.3-0.2-0.4c-0.9-0.8-1.9-1.5-3.1-1.5s-2.4,0.7-3.4,1.4c-2.3,1.7-5.4,6.9-5.4,9.7
		c0,1.4,1.8,2.5,3,2.5c1.7,0,3.1-2,4.1-3.1l1.7-1.7c-0.5,2.6-1.1,5.2-1.1,7.8c0,1.4,0.8,1.5,1.8,1.8c2.1-1.7,4.5-6,5.6-8.6
		C122.3,30.4,122.1,30.6,121.9,30.9z M119.2,24.7c0,0.1,0,0.1,0,0.2C119.1,24.9,119.1,24.8,119.2,24.7z M119.1,25l-0.2,0.4
		c0,0,0-0.1,0-0.1C118.9,25.1,119,25.1,119.1,25z M118.2,29.4c0,0,0-0.1,0-0.1L118.2,29.4z M118.4,28.9L118.4,28.9c0,0,0-0.1,0-0.1
		V28.9z M118.5,24.6l-0.4,0.7C118.1,25.1,118.3,24.8,118.5,24.6z M118.1,29.6c0,0.3-0.1,0.7-0.3,1C117.9,30.2,118,29.9,118.1,29.6z
		 M117.7,30.6L117.7,30.6l0,0.2L117.7,30.6z M117.7,31v0.2h0C117.6,31.2,117.6,31.1,117.7,31z M117.4,32v0.1V32L117.4,32z
		 M112.4,24.4L112.4,24.4L112.4,24.4C112.3,24.4,112.3,24.4,112.4,24.4z M112.2,24.7L112.2,24.7L112.2,24.7
		C112.1,24.7,112.1,24.7,112.2,24.7z M112,23.5L112,23.5L112,23.5L112,23.5z M108.9,28.7L108.9,28.7c0,0,0-0.1,0-0.1V28.7z
		 M109.1,28.1l-0.1,0.2C109,28.3,109,28.2,109.1,28.1c0.3-0.9,1.8-3.6,2.5-4.2l0.1-0.2c0,0.2-0.4,0.8-0.6,1c-0.7,1-1.3,2.2-1.9,3.3
		C109.2,28,109.1,28.1,109.1,28.1z M111.6,25.4L111.6,25.4c-0.5,1-1.1,1.8-1.6,2.7C110.4,27.1,111,26.3,111.6,25.4z M109.7,28.9
		c0.1-0.1,0.1-0.3,0.2-0.3L109.7,28.9L109.7,28.9z M109.8,31.4L109.8,31.4c0,0,0-0.1,0-0.2V31.4z M110,30.8c0,0.1-0.1,0.2-0.2,0.3
		c0.1-0.5,0.2-1.1,0.4-1.7c0.5-1.4,2.3-4.9,3.6-5.6C112.2,25.8,110.9,28.3,110,30.8z M117.2,33L117.2,33L117.2,33L117.2,33L117.2,33
		z M117.3,37.7C117.3,37.7,117.4,37.6,117.3,37.7L117.3,37.7z M117.4,37.6l0.3-0.4C117.8,37.4,117.6,37.4,117.4,37.6z M117.8,37.3
		C117.8,37.3,117.8,37.3,117.8,37.3C117.9,37.3,117.8,37.3,117.8,37.3z M117.8,37.1l0.3-0.4c0,0.1,0,0.2,0,0.3L117.8,37.1z
		 M118.1,36.9L118.1,36.9C118.2,36.9,118.2,36.9,118.1,36.9z M118.4,36.9L118.4,36.9C118.3,36.9,118.3,36.8,118.4,36.9L118.4,36.9z
		 M118.6,36.5L118.6,36.5L118.6,36.5l0.1-0.1L118.6,36.5z M119.5,35.1c0,0,0-0.1,0-0.2C119.6,35,119.6,35.1,119.5,35.1z"/>
	<path class="st0" d="M131.3,16.2c1.8-0.3,6.1-0.7,7.2-2c-0.3,0-0.7-0.1-0.7-0.5c-0.6-0.8-0.9-1-1.9-1c-0.9,0-1.7,0-2.5,0.2
		c-0.3,0.1-0.7,0-1.1,0.1c0,0,1.8-5,1.8-5.2c0-0.4-0.5-0.7-0.8-0.9l-0.4,0.1V6.4l-0.5-0.2L132,6.5l0.2-0.7l-0.4,0l-0.2-0.3
		c-0.2,0.3-0.4,0.6-0.7,0.9l0.3-0.8l-0.6-0.3c-0.4,0-0.6,0.3-0.8,0.6c-0.7,1.2-1.5,2.4-2,3.6c-0.7,1.7-1.7,3.1-2.7,4.5
		c-1.1,0.2-2.2,0.3-3.3,0.6c-0.5,0.1-0.6,0.3-0.7,0.8l0.4,0.2l0,0.3c0.3,0.4,1,0.9,1.5,1.1l0,0c0.5,0,1,0,1.5,0c0.1,0,0.6,0,0.6,0.2
		c0,0.3-0.1,0.6-0.2,1c-0.2,1.4-0.5,2.7-0.8,4.1c-0.2,1.2-0.3,2.4-0.5,3.5c-0.8,5.1-1.5,10.3-1.5,15.4c0,1.7,0,5,1.8,5.9
		c0.6,0.3,1.2,0.4,1.8,0.7l0.3-0.4c0,0.1,0.1,0.2,0.2,0.2c0.3,0,1-0.1,1-0.6c0-0.1,0-0.2,0-0.4c-0.3-1.2-0.5-2.5-0.5-3.8
		c0-3.2,0.4-6.4,0.9-9.5C128.5,27.8,129.6,21.9,131.3,16.2z M130.6,7.1c0-0.2,0.1-0.3,0.2-0.5v0.1L130.6,7.1c0,0,0,0.1-0.1,0.2
		C130.5,7.3,130.5,7.2,130.6,7.1z M130.7,9.4l-0.1,0.1V9.4H130.7z M131.6,9.7c0.1-0.2,0.3-0.4,0.5-0.6c-0.5,1.3-0.9,2.6-1.4,3.8
		c0,0.2-0.1,0.4-0.4,0.4h-0.1C130.3,12.9,131.4,10.1,131.6,9.7z M130.4,16.4v0.2c0,0.1,0,0.3-0.2,0.3L130.4,16.4z M123.5,37
		L123.5,37l0-0.6h0V37z M127.6,28.6v-0.2h0C127.7,28.5,127.7,28.5,127.6,28.6L127.6,28.6z M127.8,27.8L127.8,27.8l0-0.2h0V27.8z
		 M127.9,27.2L127.9,27.2l0-0.3h0V27.2z M128,26.5v-0.3h0C128.1,26.3,128.1,26.4,128,26.5L128,26.5z M128.2,25.9L128.2,25.9l0-0.4h0
		V25.9z M128.3,25.2C128.3,25.2,128.3,25.2,128.3,25.2l0-0.3h0V25.2z M128.4,24.5L128.4,24.5l0-0.3h0V24.5z M128.6,23.9L128.6,23.9
		l0-0.3h0V23.9z M128.7,23.3L128.7,23.3V23V23.3z M128.8,22.8c0-0.1,0-0.1,0-0.2c0-0.1,0.1-0.2,0.2-0.2L128.8,22.8z M128.9,22.4
		c0-0.1,0-0.1,0-0.2c0-0.1,0.1-0.2,0.2-0.2L128.9,22.4z M129.1,21.8c0-0.1,0-0.3,0-0.4h0.1C129.1,21.5,129.1,21.7,129.1,21.8z
		 M129.2,21.1L129.2,21.1c-0.1-0.1,0-0.1,0-0.2V21.1z M129.3,20.7L129.3,20.7C129.2,20.7,129.2,20.6,129.3,20.7L129.3,20.7z
		 M130.1,17.5l-0.1,0.3c0-0.2,0-0.3,0.1-0.5V17.5z M130,8l0.1-0.2C130.1,7.9,130,8,130,8c0,0.1,0,0.2-0.1,0.2L130,8z M129.9,8.4
		C129.9,8.4,129.9,8.4,129.9,8.4C129.8,8.4,129.9,8.4,129.9,8.4z M129.7,18.5c0-0.2,0.1-0.4,0.2-0.5c-0.1,0.3-0.1,0.5-0.2,0.8v0h0
		c0,0.2-0.1,0.5-0.2,0.8v0l-0.1,0.4l0,0.1c0,0,0-0.1,0-0.1c0-0.1,0-0.2,0-0.4l0,0c0-0.3,0-0.6,0.2-0.8l0,0
		C129.7,18.7,129.7,18.6,129.7,18.5z M129.6,12C129.6,12,129.6,12,129.6,12C129.6,12,129.6,12,129.6,12z M129.6,12.1
		c-0.1,0.5-0.1,1-0.5,1.4C129.1,13,129.2,12.4,129.6,12.1z M128.4,17.5L128.4,17.5C128.5,17.5,128.5,17.5,128.4,17.5L128.4,17.5z
		 M128.3,17.9L128.3,17.9v0.3V17.9z M128,12.9L128,12.9C127.9,12.9,127.9,12.9,128,12.9z M126,13.9c0-0.1,0.1-0.2,0.2-0.2L126,13.9
		L126,13.9z M123.7,34.9L123.7,34.9l0-0.6h0V34.9z M123.8,33.5L123.8,33.5l0.4-4l0.1,0C124.2,30.8,124,32.2,123.8,33.5z M124.4,28.8
		c0-1.6,1.6-10.8,2.3-11.9c-1,4-1.6,8.1-2.3,12.1V28.8z M124.5,38.4L124.5,38.4l0-0.5h0V38.4z M124.5,37.2L124.5,37.2L124.5,37.2
		L124.5,37.2L124.5,37.2z M124.6,36.2L124.6,36.2v-0.9h0L124.6,36.2z M124.8,34.8L124.8,34.8c-0.1-0.2,0-0.4,0-0.7h0V34.8z
		 M124.9,33.3c0-2,2.2-15.5,3.1-16.6c-0.6,2.8-1.2,5.6-1.8,8.4c-0.5,2.8-0.9,5.6-1.4,8.4V33.3z M128.2,18.8l-0.1,0.2l0,0L128.2,18.8
		z M128,19.4v0.1h-0.1L128,19.4z M127.8,20.5v0.1h0L127.8,20.5L127.8,20.5z M127.6,21.1L127.6,21.1L127.6,21.1L127.6,21.1z
		 M127.5,21.6l0,0.2h0C127.5,21.7,127.5,21.7,127.5,21.6L127.5,21.6z M127.4,22.2v0.1h0L127.4,22.2L127.4,22.2z M126.2,38.9
		L126.2,38.9l0-0.1h0V38.9z M126.4,37.5L126.4,37.5c0-0.1,0-0.2,0-0.2V37.5z M126.6,35.9L126.6,35.9l0-0.1h0V35.9z M125.3,43.7
		c-0.1-0.7-0.1-1.5-0.1-2.2c0-4.2,0.7-8.5,1.3-12.7c0.7-4.1,1.4-8.3,2.6-12.3l0.4,0C127.3,25.4,125.7,34.5,125.3,43.7z M126.7,34.8
		L126.7,34.8l0-0.2h0V34.8z M126.8,33.7v-0.2h0L126.8,33.7z M127,32.8c0,0,0-0.1,0-0.2h0C127,32.7,127,32.8,127,32.8L127,32.8z
		 M127.1,32L127.1,32l0-0.3h0V32z M127.3,31L127.3,31l0-0.2h0V31z M127.4,30.2L127.4,30.2l0-0.4h0V30.2z M127.5,29.1L127.5,29.1
		l0.1,0.3h-0.1V29.1z"/>
	<path class="st0" d="M138.2,20.1l-0.4,0.1l1,1.8c-0.4-0.1-0.9-0.2-1.3-0.2c-1.8,0-3.4,0.8-4.4,2.3c-1.4,1.9-2.3,4.2-2.3,6.6
		c0,2.9,1.8,4.9,4.7,4.9c1.4,0,2.7-0.9,2.8-2.3l-0.2,0.2c0,0.2,0,0.3-0.2,0.5v-0.2l-0.1,0.2h0l0,0.2h0l0,0.1h-0.1v0l-0.1,0l0-0.1
		l-0.3,0c0-0.3,0.3-0.5,0.3-0.8c0,0,0-0.1-0.1-0.2c-0.3,0.4-0.4,0.9-0.9,1.2c0.1-0.4,0.5-0.7,0.5-1.2v-0.1l0,0
		c-0.3,0.9-1.1,1.6-2.1,1.6c-0.7,0-0.8-1.8-0.8-2.3c0-0.4,0-1.2,0.1-1.6c3.2,0,7.4-2.5,7.4-6.1C141.4,22.3,140.1,20.7,138.2,20.1z
		 M139.4,26.1l0,0.1h0L139.4,26.1z M135.4,24.7L135.4,24.7L135.4,24.7l-0.1,0.1C135.3,24.8,135.3,24.7,135.4,24.7z M134.1,25.2
		c0,0,0,0.1-0.1,0.2h0C134,25.4,134.1,25.3,134.1,25.2z M133.8,25.5c0,0.1,0,0.1,0,0.2C133.8,25.7,133.8,25.6,133.8,25.5z
		 M132.5,26.8L132.5,26.8C132.4,26.7,132.4,26.7,132.5,26.8L132.5,26.8z M132.7,26.3L132.7,26.3l0-0.3L132.7,26.3z M132.8,26
		L132.8,26L132.8,26L132.8,26z M133.4,28.5L133.4,28.5c0-0.1,0-0.2,0-0.2V28.5z M133.5,24.8l-0.2,0.1l-0.1,0.2
		c0,0.2-0.1,0.4-0.3,0.5c0.1-0.2,0.2-0.3,0.3-0.5v0l0.1-0.1l0.2-0.4c0,0,0.1,0,0.1,0l-0.1,0C133.5,24.7,133.5,24.7,133.5,24.8z
		 M133.6,28c0-1,0.9-2.4,1.6-3.1C134.8,26,133.9,26.9,133.6,28z M134.5,28.6c0.4-2.1,2.1-4.5,4.3-5v0.2
		C138.8,25.5,136.3,28.4,134.5,28.6z M138.5,26.4L138.5,26.4l-0.1,0.1L138.5,26.4c0,0,0-0.1,0-0.2L138.5,26.4z M138.8,26L138.8,26
		l0.1-0.2C138.9,25.8,138.8,25.9,138.8,26z M139,25.4L139,25.4L139,25.4C139.1,25.4,139.1,25.4,139,25.4z M139.2,27.4L139.2,27.4
		C139.3,27.3,139.3,27.3,139.2,27.4z M139.4,27.3c0,0,0.1,0,0.1,0C139.5,27.3,139.4,27.3,139.4,27.3z M139.5,27.2
		c0-0.3,0.8-1.4,1-1.8C140.3,26.1,140,26.7,139.5,27.2z"/>
	<rect x="152.5" y="37.3" class="st0" width="0" height="0"/>
	<polygon class="st0" points="152,36.9 152,36.7 151.9,36.9 	"/>
	<rect x="151.8" y="37.2" class="st0" width="0" height="0.2"/>
	<path class="st0" d="M173.1,19c-2.1,0-4,2.8-5.2,4.3l-0.9-0.4c-2,0-3.8,4.1-4.3,6.4c-0.2-0.4-0.3-0.8-0.6-1.2
		c-0.6-0.9-1.5-1.8-2.7-2.7c-0.1-0.1-0.2-0.2-0.5-0.4c-0.3-0.2-0.5-0.3-0.5-0.4c-0.3-0.2-0.5-0.4-0.6-0.6c-0.1-0.2,0-0.4,0.1-0.5
		c0.1-0.1,0.3-0.2,0.6-0.2c0.3,0,0.6,0,1,0.2c0.2,0.1,0.4,0.1,0.6,0.3c0.2,0.1,0.4,0.3,0.6,0.4c0.2,0.2,0.3,0.4,0.4,0.6
		c0.1,0.2,0,0.4-0.1,0.7c0.1-0.1,0.2-0.3,0.3-0.5c0-0.2,0-0.4-0.2-0.6c0.3,0.3,0.4,0.6,0.3,0.8c-0.1,0.2-0.4,0.4-0.8,0.4
		c0.5,0.2,1,0.3,1.5,0.2c0.5,0,0.9-0.2,1.2-0.4c0.4-0.2,0.6-0.5,0.9-0.8c0.2-0.3,0.4-0.7,0.4-1.1c0.1,0.3,0.1,0.6,0,0.9
		c0.3-0.8,0.3-1.5,0.2-2c-0.1-0.5-0.4-1-0.8-1.3c-0.4-0.3-0.9-0.6-1.5-0.8c-0.6-0.2-1.3-0.3-2-0.3c-1.5-0.1-2.8,0-3.8,0.3
		c-1,0.3-1.8,0.8-2.3,1.3c-0.5,0.6-0.6,1.2-0.4,2c0.2,0.8,0.7,1.5,1.7,2.3c0.1,0.1,0.3,0.2,0.5,0.3c0.2,0.2,0.3,0.3,0.5,0.3
		c1,0.7,1.7,1.4,2.2,2.2c0.5,0.8,0.7,1.6,0.8,2.3c0.1,0.9,0,1.6-0.3,2.2c-0.3,0.6-0.6,1-1.1,1.3c-0.4,0.3-0.9,0.5-1.5,0.5
		c-0.5,0-1,0-1.5-0.2c-0.5-0.2-0.9-0.4-1.3-0.8s-0.6-0.8-0.8-1.3c-0.1-0.5-0.2-1.1,0-1.6c0.1-0.5,0.3-1,0.6-1.4
		c0.3-0.4,0.6-0.8,0.9-1.2c0.4-0.3,0.7-0.6,1-0.9c-0.1,0-0.3,0.1-0.4,0.1c-0.1,0-0.3,0.1-0.4,0.2c0.1-0.2,0.3-0.4,0.5-0.5
		s0.4-0.2,0.6-0.3c-0.1-0.1-0.3-0.2-0.4-0.2c-0.2,0-0.3,0.1-0.4,0.1c0.1-0.1,0.3-0.2,0.5-0.2c0.2,0,0.4,0,0.5,0.1
		c-0.1-0.2-0.3-0.5-0.7-0.9c-0.3-0.4-0.6-0.6-0.8-0.8c-0.1-0.1-0.3-0.1-0.6-0.1c-0.2,0-0.5,0.1-0.7,0.3c-1,0.9-1.7,1.9-2.1,3
		c-0.4,1.1-0.6,2.1-0.6,3.2c0,1,0.3,2,0.8,2.8c0.5,0.8,1.2,1.5,2.1,1.9c1,0.4,2,0.6,3,0.7c1,0,2-0.1,2.7-0.5
		c0.8-0.3,1.6-0.8,2.4-1.6c0.6-0.5,1.1-1.1,1.6-1.8c0.9,1.7,2.6,2.9,4.7,2.9c0.3,0,0.7,0,1-0.1c1.2-0.2,1.9-0.8,2.8-1.6
		c2.8-2.6,5.9-7.1,5.9-11.1C177.6,21.6,175.2,19,173.1,19z M160.5,22.7c0.2,0,0.5,0.1,0.7,0.2c0.2,0.1,0.5,0.2,0.6,0.3
		c0.2,0.1,0.3,0.2,0.3,0.4c-0.1-0.1-0.2-0.3-0.6-0.5c-0.3-0.2-0.9-0.3-1.7-0.5C160.1,22.6,160.3,22.7,160.5,22.7z M161.9,23.8
		c-0.2-0.2-0.5-0.4-0.9-0.6c-0.4-0.2-0.7-0.3-0.9-0.3c0.5,0.1,1,0.2,1.4,0.4C161.8,23.4,162,23.6,161.9,23.8z M161,23.6
		c0.7,0.4,1,0.9,1,1.5c-0.1-0.5-0.3-0.8-0.6-1.1c-0.3-0.3-0.7-0.5-1.1-0.6c-0.4-0.1-0.8-0.2-1.2-0.3c-0.4-0.1-0.6-0.1-0.8-0.1
		C159.4,23,160.3,23.2,161,23.6z M159.9,28.8c0.1,0.2,0.3,0.5,0.4,0.8c0.1,0.3,0.2,0.6,0.2,0.9c0.1,0.3,0.1,0.6,0,0.9
		c0-0.2,0-0.5-0.1-0.8c-0.1-0.3-0.1-0.6-0.2-0.9C160.1,29.4,160,29.1,159.9,28.8c-0.2-0.2-0.3-0.3-0.5-0.5
		C159.6,28.4,159.8,28.5,159.9,28.8z M159.7,30.4c-0.2-0.8-0.5-1.4-0.9-2c-0.4-0.5-0.7-1-1.1-1.2s-0.6-0.4-0.6-0.5
		c0.3,0.1,0.6,0.3,1,0.7c0.4,0.4,0.8,0.8,1.1,1.4c0.3,0.6,0.6,1.2,0.8,1.9c0.2,0.7,0.1,1.5-0.2,2.3C160,32,160,31.1,159.7,30.4z
		 M160.8,32.9c0,0.4-0.1,0.8-0.3,1.2c-0.1,0.4-0.4,0.6-0.7,0.8c0.3-0.2,0.5-0.4,0.6-0.8c0.1-0.3,0.2-0.7,0.3-1.1
		c0.1-0.4,0.1-0.8,0.1-1.1c0-0.4,0-0.7-0.1-1c0,0.1,0.1,0.4,0.1,0.8C160.9,32.1,160.9,32.5,160.8,32.9z M172.3,21.6
		C172.4,21.6,172.4,21.6,172.3,21.6l0.1,0v0c-1.1,1.1-2,2.4-3,3.6C169.8,24,171.3,22.4,172.3,21.6z M169.8,23.4c0-0.2,0.6-0.8,0.8-1
		C170.4,22.7,170.1,23,169.8,23.4z M171.3,20.6L171.3,20.6c-0.3,0.4-1.9,2-2.1,2.4l-0.1,0.1C169.7,22.2,170.4,21.3,171.3,20.6z
		 M167.3,24.7L167.3,24.7c-0.1,0.3-0.4,0.9-0.7,1.4c-0.1,0-0.2,0-0.2,0.1C166.6,25.6,166.9,25.1,167.3,24.7z M166.6,24.5
		c0,0.2-0.2,0.5-0.4,0.7L166.6,24.5z M166.2,24.1l-0.8,0.9C165.6,24.6,165.8,24.3,166.2,24.1z M166.2,34.2c-0.2-0.7-0.2-1.4-0.2-2
		c0-1.9,0.7-3.8,1.4-5.6c0.7,0.9,1.4,2,2.7,2c0.2,0,0.4-0.1,0.5-0.3c-0.4-0.3-0.7-0.7-0.7-1.2c0-1.6,3.4-5.6,5-5.6
		c0.1,0.2,0.1,0.4,0.1,0.6c0,0.3-0.1,0.6-0.1,1C174,27.4,170.6,33,166.2,34.2z M173.8,29.6l0,0.1C173.7,29.7,173.7,29.6,173.8,29.6z
		 M171.9,31c0-0.2,0.8-1.2,1.1-1.5C172.7,30,172.3,30.6,171.9,31z M172.1,31.8C172.1,31.8,172.1,31.8,172.1,31.8L172.1,31.8z
		 M172.6,31.2l1.1-1.5C173.5,30.2,173,30.7,172.6,31.2L172.6,31.2L172.6,31.2z M174.6,30.8L174.6,30.8L174.6,30.8L174.6,30.8z
		 M171.8,33.4c0-0.2,0.2-0.3,0.3-0.5c1.2-1.6,2.4-3.1,3.3-4.9C175.4,29.6,172.8,32.3,171.8,33.4z"/>
	<path class="st0" d="M203.9,31.7c0.6-2,3.9-10.3,3.9-11.5c0-0.3,0-0.5-0.2-0.7c-0.4-0.5-1.9-1.3-2.5-1.3c-0.3,0-0.6,0.1-0.9,0.3
		l-2.9,2.1c-2.4,1.8-4.4,4-6.5,6.1c-0.3,0.3-0.6,0.5-0.8,0.8l0-0.2c0.5-1.2,1-3.6,1.4-5c0.1-0.5,0.3-1.1,0.3-1.7
		c0-0.4,0-0.9-0.3-1.2c-0.3-0.4-1.5-0.9-2-0.9c-0.6,0-1.1,0.3-1.6,0.7c-3.8,3.1-6.6,7.2-9.3,11.2l0-0.2c0,0,1.4-5.6,1.4-6.9
		c0-2-0.6-3-2.2-4.1c-0.4-0.3-1.2-0.5-1.8-0.5c-0.3,0-1.2,0.2-1.2,0.6c0,0.2,0.4,0.4,0.6,0.6l0,0.1c0.2,0,0.2,0.2,0.4,0.4
		c0.2,0.2,0.2,0.5,0.2,0.9c0,2.8-0.8,5.7-1.4,8.5c-0.2,1-0.4,2-0.4,3.1c0,1.4,1.4,2.3,2.7,2.3c0.5,0,0.9-0.2,1.2-0.6
		c2.8-3.3,4.7-7.2,7.4-10.6c0.5-0.6,1.3-1.2,1.8-1.8h0c-0.1,0.1-0.1,0.3-0.1,0.5c-0.1,0.5-0.4,1.1-0.6,1.6c-0.7,1.8-1.5,4.8-1.5,6.7
		c0,0.5,0,1,0.5,1.3l1.4,0.9c0.9-0.3,1.2,0.4,2-0.6c3-3.3,6.1-8.2,9.8-10.6c-0.6,1.4-1.3,2.8-1.8,4.2c-0.9,2.5-1.9,6.4-1.9,9
		c0,0.2,0,0.5,0,0.7c0.1,1.2,1.7,2.1,2.8,2.1c0.4,0,1.3,0,1.3-0.6c0-0.4-0.5-0.4-0.5-0.9c0-0.1,0-0.2,0-0.3
		C203.1,34.7,203.5,33.2,203.9,31.7z M180.6,32.7h-0.2c0.7-2.9,1.3-5.8,1.9-8.7l0.1,0C181.9,27,181.3,29.8,180.6,32.7z M186.5,27.3
		c0-0.1,0.1-0.1,0.1-0.2L186.5,27.3z M186.9,25.2c0-0.1,0-0.1,0.1-0.2L186.9,25.2z M190.3,28.6L190.3,28.6l0-0.2h0L190.3,28.6z
		 M190.5,27.9L190.5,27.9L190.5,27.9L190.5,27.9z M190.7,27.1C190.6,27.1,190.6,27.1,190.7,27.1C190.6,27,190.6,27,190.7,27.1
		L190.7,27.1z M190.8,26.7L190.8,26.7l0-0.1L190.8,26.7z M191,29.8L191,29.8L191,29.8L191,29.8z M191,26.1
		C190.9,26.1,190.9,26.2,191,26.1C190.9,26.1,190.9,26.1,191,26.1L191,26.1z M194,25.1L194,25.1L194,25.1L194,25.1z M193.6,21.4
		l0,0.1L193.6,21.4L193.6,21.4z M191.2,29.2L191.2,29.2c0-0.1,0-0.1,0-0.2V29.2z M191.2,28.8l0.1-0.4l0.1,0L191.2,28.8z M191.4,28
		L191.4,28L191.4,28L191.4,28z M191.5,27.7L191.5,27.7l0-0.1h0V27.7z M191.6,27.2L191.6,27.2c0,0,0-0.1,0-0.1V27.2z M191.5,24.5
		c0.3-1.2,0.8-2.3,1.3-3.5c-0.1,1.1-0.8,2.3-1.2,3.3L191.5,24.5z M193.3,22.1c-0.3,0.8-0.4,1.7-0.9,2.5
		C192.6,23.8,193,22.8,193.3,22.1z M192.2,25.5c0,0.1-0.1,0.2-0.2,0.3C192,25.6,192.1,25.5,192.2,25.5L192.2,25.5z M192,25.8v0.5
		h-0.1L192,25.8z M191.8,26.7L191.8,26.7C191.7,26.7,191.7,26.7,191.8,26.7L191.8,26.7z M192.2,29.2c-0.1,0.2-0.2,0.5-0.3,0.7
		l-0.2,0l2.9-9.3l0.1,0c-0.1,0.4-0.2,0.9-0.3,1.4C193.7,24.4,193,26.8,192.2,29.2z M203.1,32.5c0,0,0-0.1,0-0.1h0
		C203.1,32.4,203.1,32.4,203.1,32.5L203.1,32.5z M203.3,31.8L203.3,31.8L203.3,31.8L203.3,31.8z M203.6,30.7
		C203.6,30.7,203.6,30.7,203.6,30.7C203.6,30.7,203.6,30.7,203.6,30.7z M203.6,30.4c0,0,0-0.1,0-0.1L203.6,30.4L203.6,30.4z
		 M203.9,29.8C203.9,29.8,203.9,29.8,203.9,29.8C203.8,29.8,203.9,29.8,203.9,29.8L203.9,29.8z M204,29.5L204,29.5L204,29.5
		L204,29.5L204,29.5z M204.1,29.2L204.1,29.2C204.1,29.2,204.1,29.2,204.1,29.2L204.1,29.2z M204.7,27.4v-0.1V27.4L204.7,27.4z
		 M205,26.7L205,26.7c0,0,0-0.1,0-0.1V26.7z M205.1,26.3C205.1,26.3,205.1,26.3,205.1,26.3h0.1H205.1z M205.5,25.3c0,0,0-0.1,0-0.1
		h0L205.5,25.3z M205.7,24.7L205.7,24.7L205.7,24.7L205.7,24.7z M205.8,24.5L205.8,24.5L205.8,24.5L205.8,24.5z M205.9,24.3
		L205.9,24.3L205.9,24.3L205.9,24.3z M206,24L206,24L206,24L206,24z M206.2,23.7L206.2,23.7L206.2,23.7L206.2,23.7z M206.5,22.8
		C206.5,22.8,206.5,22.8,206.5,22.8L206.5,22.8L206.5,22.8z M206.8,22.1L206.8,22.1C206.8,22.1,206.8,22.1,206.8,22.1L206.8,22.1z
		 M205.7,20.2L205.7,20.2c-0.3,1.4-1,2.6-1.5,3.9c-0.7,1.8-1.3,3.6-1.9,5.4c-0.2,0.5-0.3,1.3-0.6,1.8c0.3-0.7,0.4-1.6,0.6-2.3
		C203,25.9,204.5,23.1,205.7,20.2z M204,25.7C204,25.7,204,25.7,204,25.7C204,25.7,204,25.7,204,25.7z M203.8,26.2
		C203.8,26.2,203.8,26.2,203.8,26.2L203.8,26.2L203.8,26.2z M203.7,26.4L203.7,26.4L203.7,26.4L203.7,26.4z M203.3,27.8L203.3,27.8
		L203.3,27.8L203.3,27.8z M203.2,28L203.2,28L203.2,28L203.2,28z M200.3,32.4L200.3,32.4C200.3,32.5,200.3,32.5,200.3,32.4z
		 M200.5,31.9L200.5,31.9l0-0.1h0V31.9z M200.6,31.4L200.6,31.4l0-0.6C200.7,31,200.6,31.2,200.6,31.4z M200.7,30.8l0.4-1.5
		C201.1,29.8,201,30.3,200.7,30.8z M204.4,20.9L204.4,20.9c-0.2,1-0.7,1.8-1.1,2.7c-0.6,1.3-1,2.6-1.5,3.9c-0.2,0.6-0.3,1.2-0.7,1.7
		C201.8,26.3,203,23.5,204.4,20.9z M201.2,33.1L201.2,33.1L201.2,33.1L201.2,33.1z M201.2,33l0-0.2h0.1L201.2,33z M201.4,32.5
		L201.4,32.5c0-0.1,0-0.1,0-0.1V32.5z M202.5,32.4c-0.3,1.1-0.5,2.3-0.9,3.4l-0.1,0c0.2-2.1,0.9-4.3,1.6-6.4c1-3.2,2.3-6.2,3.6-9.3
		h0.1c0,0.2,0,0.5-0.1,0.7l-1.9,5.1C203.8,28,203.1,30.2,202.5,32.4z"/>
	<path class="st0" d="M217.5,24.5c0-2.1-1.3-3.7-3.3-4.4l-0.4,0.1l1,1.8c-0.4-0.1-0.9-0.2-1.3-0.2c-1.8,0-3.4,0.8-4.4,2.3
		c-1.4,1.9-2.3,4.2-2.3,6.6c0,2.9,1.8,4.9,4.7,4.9c1.4,0,2.7-0.9,2.8-2.3l-0.2,0.2c0,0.2,0,0.3-0.2,0.5v-0.2l-0.1,0.2h0l0,0.2h0
		l0,0.1h-0.1v0l-0.1,0l0-0.1l-0.3,0c0-0.3,0.3-0.5,0.3-0.8c0,0,0-0.1-0.1-0.2c-0.3,0.4-0.4,0.9-0.9,1.2c0.1-0.4,0.5-0.7,0.5-1.2
		v-0.1l0,0c-0.3,0.9-1.1,1.6-2.1,1.6c-0.7,0-0.8-1.8-0.8-2.3c0-0.4,0-1.2,0.1-1.6C213.3,30.5,217.5,28,217.5,24.5z M214.6,26.4
		L214.6,26.4l-0.1,0.1L214.6,26.4c0,0,0-0.1,0-0.2L214.6,26.4z M216.6,25.4c-0.2,0.6-0.5,1.3-1,1.8
		C215.6,26.9,216.4,25.8,216.6,25.4z M215.5,27.3c0,0,0.1,0,0.1,0C215.6,27.3,215.5,27.3,215.5,27.3z M215.5,26.1l0,0.1h0
		L215.5,26.1z M215.4,27.3C215.4,27.3,215.4,27.3,215.4,27.3L215.4,27.3z M215.1,25.3L215.1,25.3C215.2,25.4,215.2,25.4,215.1,25.3
		L215.1,25.3z M214.9,26L214.9,26l0.1-0.2C215,25.8,214.9,25.9,214.9,26z M214.9,23.6v0.2c0,1.8-2.6,4.6-4.3,4.8
		C211,26.4,212.7,24.1,214.9,23.6z M211.5,24.7L211.5,24.7L211.5,24.7l-0.1,0.1C211.4,24.8,211.4,24.7,211.5,24.7z M210.2,25.2
		c0,0,0,0.1-0.1,0.2h0C210.1,25.4,210.2,25.3,210.2,25.2z M209.9,25.5c0,0.1,0,0.1,0,0.2C209.9,25.7,209.9,25.6,209.9,25.5z
		 M208.6,26.8L208.6,26.8C208.5,26.7,208.5,26.7,208.6,26.8L208.6,26.8z M208.7,26.3L208.7,26.3l0.1-0.3L208.7,26.3z M208.8,26
		L208.8,26L208.8,26L208.8,26z M209.5,28.5L209.5,28.5c0-0.1,0-0.2,0-0.2V28.5z M209.6,24.8l-0.2,0.1l-0.1,0.2
		c0,0.2-0.1,0.4-0.3,0.5c0.1-0.2,0.2-0.3,0.3-0.5v0l0.1-0.1l0.2-0.4c0,0,0.1,0,0.1,0l-0.1,0C209.6,24.7,209.6,24.7,209.6,24.8z
		 M209.7,28c0-1,0.9-2.4,1.6-3.1C210.8,26,210,26.9,209.7,28z"/>
	<path class="st0" d="M240.9,22c0-0.9-0.2-1.3-0.9-1.8c-0.7-0.5-1.6-1.1-2.5-1.1c-0.4,0-0.7,0.1-1.1,0.4c-2.9,1.9-4.3,3.5-6.2,6.4
		c0,0,0-0.1,0-0.2c0-0.9,0.8-3.7,1.1-4.7c0.5-2,1-4,1.5-6c0.5-0.2,0.9-0.5,1.1-0.8c-0.3,0-0.7-0.1-0.7-0.5c0,0-0.1-0.1-0.1-0.1
		c0-0.1,0.1-0.2,0.1-0.4c0.5-1.9,1.8-5.6,1.8-7.4V5.3c0-0.4-0.1-0.6-0.4-0.9c-0.3-0.3-1-0.9-1.5-0.9c-0.3,0-0.5-0.1-0.8-0.3
		c-0.3,0.4-0.5,0.9-0.7,1.4c-0.7,1.8-1.5,3.6-2.1,5.5c-0.3,0.9-0.5,1.8-0.7,2.7c0,0,0,0,0,0c-0.3,0.1-0.7,0-1.1,0.1
		c0,0,1.8-5,1.8-5.2c0-0.4-0.5-0.7-0.8-0.9l-0.4,0.1V6.4l-0.5-0.2l-0.4,0.3l0.2-0.7l-0.4,0l-0.2-0.3c-0.2,0.3-0.4,0.6-0.7,0.9
		l0.3-0.8L226,5.4c-0.4,0-0.6,0.3-0.8,0.6c-0.7,1.2-1.5,2.4-2,3.6c-0.7,1.7-1.7,3.1-2.7,4.5c-1.1,0.2-2.2,0.3-3.3,0.6
		c-0.5,0.1-0.6,0.3-0.7,0.8l0.4,0.2l0,0.3c0.3,0.4,1,0.9,1.5,1.1l0,0c0.5,0,1,0,1.5,0c0.1,0,0.6,0,0.6,0.2c0,0.3-0.1,0.6-0.2,1
		c-0.2,1.4-0.5,2.7-0.8,4.1c-0.2,1.2-0.3,2.4-0.5,3.5c-0.8,5.1-1.5,10.3-1.5,15.4c0,1.7,0,5,1.8,5.9c0.6,0.3,1.2,0.4,1.8,0.7
		l0.3-0.4c0,0.1,0.1,0.2,0.2,0.2c0.3,0,1-0.1,1-0.6c0-0.1,0-0.2,0-0.4c-0.3-1.2-0.5-2.5-0.5-3.8c0-3.2,0.4-6.4,0.9-9.5
		c1-5.9,2-11.8,3.7-17.5c0.4-0.1,0.8-0.1,1.4-0.2c0,0,0,0.1,0,0.1c-1.1,5-2.3,10-2.3,15.1c0,2.9,0.3,5.1,3.6,5.4
		c0.1-0.3,0.1-0.5,0.2-0.8c0.7-3.5,2-6.8,3.8-9.8c0.6-1,1.6-2.5,2.5-3.3l1.5-1.3l0.1,0.1c-1.3,4.2-1.8,8.2-2.3,12.5
		c-0.1,1.1-0.1,2.2-0.1,3.4c0,0.6,0,1.2,0,1.8c0.1,1.4,1.5,2.5,2.9,2.5c0.2,0,0.4,0,0.6,0c0-0.1,0-0.2,0-0.3c0,0,0-0.1,0-0.1
		c-0.2-0.6-0.2-1.3-0.2-1.9c0-4.1,1.1-8.2,1.8-12.2C240.3,25.5,240.9,23.7,240.9,22z M218.8,37L218.8,37l0-0.6h0V37z M225.3,8
		l0.1-0.2C225.4,7.9,225.3,8,225.3,8c0,0.1,0,0.2-0.1,0.2L225.3,8z M225.2,8.4C225.2,8.4,225.2,8.4,225.2,8.4
		C225.1,8.4,225.2,8.4,225.2,8.4z M224.8,12.1C224.8,12,224.8,12,224.8,12.1C224.9,12,224.8,12,224.8,12.1c-0.1,0.5-0.1,1-0.5,1.4
		C224.4,13,224.5,12.4,224.8,12.1z M223.7,17.5L223.7,17.5C223.8,17.5,223.8,17.5,223.7,17.5L223.7,17.5z M223.6,17.9L223.6,17.9
		v0.3V17.9z M223.3,12.9L223.3,12.9C223.2,12.9,223.2,12.9,223.3,12.9z M221.2,13.9c0-0.1,0.1-0.2,0.2-0.2L221.2,13.9L221.2,13.9z
		 M219,34.9L219,34.9l0-0.6h0V34.9z M219.1,33.5L219.1,33.5l0.4-4l0.1,0C219.4,30.8,219.2,32.2,219.1,33.5z M219.7,28.8
		c0-1.6,1.6-10.8,2.3-11.9c-1,4-1.6,8.1-2.3,12.1V28.8z M219.8,38.4L219.8,38.4l0-0.5h0V38.4z M219.8,37.2L219.8,37.2L219.8,37.2
		L219.8,37.2L219.8,37.2z M219.9,36.2L219.9,36.2v-0.9h0L219.9,36.2z M220.1,34.8L220.1,34.8c-0.1-0.2,0-0.4,0-0.7h0V34.8z
		 M220.2,33.3c0-2,2.2-15.5,3.1-16.6c-0.6,2.8-1.2,5.6-1.8,8.4c-0.5,2.8-0.9,5.6-1.4,8.4V33.3z M223.5,18.8l-0.1,0.2l0,0L223.5,18.8
		z M223.3,19.4v0.1h-0.1L223.3,19.4z M223,20.5v0.1h0L223,20.5L223,20.5z M222.9,21.1L222.9,21.1L222.9,21.1L222.9,21.1z
		 M222.8,21.6l0,0.2h0C222.8,21.7,222.8,21.7,222.8,21.6L222.8,21.6z M222.7,22.2v0.1h0L222.7,22.2L222.7,22.2z M221.5,38.9
		L221.5,38.9l0-0.1h0V38.9z M221.7,37.5L221.7,37.5c0-0.1,0-0.2,0-0.2V37.5z M221.9,35.9L221.9,35.9l0-0.1h0V35.9z M220.6,43.7
		c-0.1-0.7-0.1-1.5-0.1-2.2c0-4.2,0.7-8.5,1.3-12.7c0.7-4.1,1.4-8.3,2.6-12.3l0.4,0C222.6,25.4,221,34.5,220.6,43.7z M222,34.8
		L222,34.8l0-0.2h0V34.8z M222.1,33.7v-0.2h0L222.1,33.7z M222.3,32.8c0,0,0-0.1,0-0.2h0C222.3,32.7,222.3,32.8,222.3,32.8
		L222.3,32.8z M222.4,32L222.4,32l0-0.3h0V32z M222.6,31L222.6,31l0-0.2h0V31z M222.7,30.2L222.7,30.2l0-0.4h0V30.2z M222.8,29.4
		L222.8,29.4l-0.1-0.3h0.1V29.4z M222.9,28.6v-0.2h0C223,28.5,223,28.5,222.9,28.6L222.9,28.6z M223.1,27.8L223.1,27.8l0-0.2h0V27.8
		z M223.2,27.2L223.2,27.2l0-0.3h0V27.2z M223.3,26.5v-0.3h0C223.4,26.3,223.4,26.4,223.3,26.5L223.3,26.5z M223.5,25.9L223.5,25.9
		l0-0.4h0V25.9z M223.6,25.2C223.6,25.2,223.6,25.2,223.6,25.2l0-0.3h0V25.2z M223.7,24.5L223.7,24.5l0-0.3h0V24.5z M223.9,23.9
		L223.9,23.9l0-0.3h0V23.9z M224,23.3L224,23.3V23V23.3z M224.1,22.8c0-0.1,0-0.1,0-0.2c0-0.1,0.1-0.2,0.2-0.2L224.1,22.8z
		 M224.2,22.4c0-0.1,0-0.1,0-0.2c0-0.1,0.1-0.2,0.2-0.2L224.2,22.4z M224.4,21.8c0-0.1,0-0.3,0-0.4h0.1
		C224.4,21.5,224.4,21.7,224.4,21.8z M224.5,21.1L224.5,21.1c-0.1-0.1,0-0.1,0-0.2V21.1z M224.5,20.7L224.5,20.7
		C224.5,20.7,224.5,20.6,224.5,20.7L224.5,20.7z M224.6,20.2c0,0,0-0.1,0-0.1L224.6,20.2z M224.7,20.1c0-0.1,0-0.2,0-0.4l0,0v0
		L224.7,20.1z M225.1,18.9L225.1,18.9c-0.1,0.2-0.2,0.5-0.3,0.8C224.8,19.3,224.8,19.1,225.1,18.9L225.1,18.9L225.1,18.9z
		 M225.1,18.8c0-0.1,0-0.2,0-0.3c0-0.2,0.1-0.4,0.2-0.5C225.2,18.3,225.1,18.5,225.1,18.8z M225.4,17.5l-0.1,0.3
		c0-0.2,0-0.3,0.1-0.5V17.5z M225.9,7.1c0-0.2,0.1-0.3,0.2-0.5v0.1L225.9,7.1c0,0,0,0.1-0.1,0.2C225.8,7.3,225.8,7.2,225.9,7.1z
		 M226,9.4l-0.1,0.1V9.4H226z M225.7,16.6c0,0.1,0,0.3-0.2,0.3l0.2-0.5V16.6z M226.1,12.9c0,0.2-0.1,0.4-0.4,0.4h-0.1
		c0-0.4,1.1-3.2,1.4-3.6c0.1-0.2,0.3-0.4,0.5-0.6C226.9,10.4,226.5,11.6,226.1,12.9z M231.2,26.6L231.2,26.6
		C231.2,26.7,231.2,26.7,231.2,26.6L231.2,26.6z M230.1,27.3l-0.4,0.9h-0.1L230.1,27.3z M231.3,17.5L231.3,17.5L231.3,17.5
		L231.3,17.5z M231.8,15.6L231.8,15.6L231.8,15.6C231.8,15.5,231.8,15.5,231.8,15.6z M232.5,12.8L232.5,12.8L232.5,12.8L232.5,12.8z
		 M232.6,12.5C232.6,12.4,232.6,12.4,232.6,12.5L232.6,12.5L232.6,12.5z M233.7,6.4V6.2C233.7,6.2,233.7,6.3,233.7,6.4L233.7,6.4z
		 M233.8,6l-0.1,0.2C233.7,6.1,233.8,6,233.8,6L233.8,6z M233.5,6.7L233.5,6.7c0.1,0.4,0,0.7-0.2,1C233.4,7.3,233.4,7,233.5,6.7z
		 M233.3,7.8L233.3,7.8c-0.3,1.6-0.8,3.3-1.2,4.9c-0.1,0-0.2,0-0.3-0.1C232.2,11,232.7,9.4,233.3,7.8z M231.5,10.3L231.5,10.3
		L231.5,10.3L231.5,10.3z M231.4,10.7L231.4,10.7L231.4,10.7L231.4,10.7L231.4,10.7z M231.3,11.1L231.3,11.1v0.1V11.1z M230.8,9.3
		L230.8,9.3L230.8,9.3L230.8,9.3z M230.6,10L230.6,10C230.5,10.1,230.5,10.1,230.6,10L230.6,10z M231,12c0-0.1,0.1-0.2,0.1-0.3
		c0,0,0-0.1,0-0.2l0,0.2L231,12c0,0.1-0.1,0.3-0.1,0.6c0,0,0,0-0.1,0C230.9,12.4,231,12.2,231,12z M229.6,18.1L229.6,18.1
		c-0.1-0.1-0.1-0.2,0-0.3C229.5,17.9,229.5,18,229.6,18.1z M229.4,18.4L229.4,18.4L229.4,18.4C229.4,18.5,229.4,18.5,229.4,18.4z
		 M229.4,18.9l-0.1,0.6h-0.1l0.1-0.3C229.2,19,229.3,18.9,229.4,18.9L229.4,18.9z M230.1,15.6c0,0,0.1,0,0.1,0
		c-0.1,0.5-0.2,0.8-0.3,0.9C229.9,16.2,230,15.9,230.1,15.6z M229,15.8c0,0.1,0,0.2-0.1,0.3l-0.1,0C228.9,16,228.9,15.9,229,15.8
		C229,15.8,229,15.8,229,15.8z M229,20.2v0.2h0L229,20.2L229,20.2z M228.9,16.1c0,0.2,0,0.5,0,0.8l-0.1,0L228.9,16.1z M228.7,17.4
		c0,0,0,0.1-0.1,0.2L228.7,17.4L228.7,17.4z M228.6,17.6v0.2h0C228.5,17.7,228.5,17.6,228.6,17.6z M228,20.7L228,20.7L228,20.7
		L228,20.7L228,20.7z M228,20.2L228,20.2l0-0.3C228.1,20,228,20.1,228,20.2z M228.1,19.9v-0.2h0C228.1,19.7,228.1,19.8,228.1,19.9z
		 M228.2,19c0,0.1,0,0.2,0,0.2h-0.1C228.2,19.1,228.2,19.1,228.2,19z M228.2,29.8c0-0.1,0-0.1,0-0.2
		C228.2,29.7,228.3,29.7,228.2,29.8L228.2,29.8z M228.4,29.1L228.4,29.1c-0.1-0.2,0-0.4,0-0.6V29.1z M229.5,22
		c0.5-2.2,1-4.4,1.5-6.6c0.1,0,0.2-0.1,0.3-0.1c-0.7,2.5-1.3,5-1.8,7.4c-0.3,1.7-0.6,4.1-1.1,5.6C228.6,26.3,229,24.2,229.5,22z
		 M229.4,30.6L229.4,30.6L229.4,30.6L229.4,30.6z M230.4,31L230.4,31L230.4,31L230.4,31z M230.9,29.8L230.9,29.8L230.9,29.8
		L230.9,29.8z M232.4,25.9l-1.2,2.3c-0.7,1.5-1.2,3.1-1.8,4.6c0,0.1-0.1,0.3-0.2,0.4c0-0.1,0-0.3,0-0.5
		C229.6,31.2,231.3,26.9,232.4,25.9L232.4,25.9z M232.5,25.7c0-0.1,0.1-0.2,0.1-0.3C232.7,25.5,232.6,25.6,232.5,25.7z M237.7,33.5
		L237.7,33.5l0-0.1h0V33.5z M237.9,32C237.9,32,237.9,32,237.9,32L237.9,32L237.9,32z M238.2,30.7L238.2,30.7v-0.3V30.7z
		 M238.9,27.1c-0.2,0.8-0.3,1.8-0.6,2.6c0.4-2.2,0.8-4.4,1.4-6.6C239.5,24.5,239.2,25.8,238.9,27.1z M239.7,22.9v-0.2h0.1
		L239.7,22.9z"/>
	<path class="st0" d="M247.1,22.7c0.3,0,0.6,0.2,0.9,0.2c0.1,0,0.3,0,0.4-0.1c0-0.6-0.2-1.3-0.2-1.9c0-1.2,0.5-2.2,0.5-3.4
		c0-0.3-0.2-0.6-0.5-0.8l-0.2,0v-0.5l-0.6-0.1l0.1-0.3l-0.5-0.2c-0.1,0.1-0.2,0.2-0.3,0.2v-0.3l-0.2,0l-0.1-0.2
		c-0.9,0-1.5,2.5-1.5,3.3C244.9,19.8,245.9,22,247.1,22.7z"/>
	<polygon class="st0" points="257.9,29.3 257.9,29.3 257.9,29.3 	"/>
	<path class="st0" d="M264,40.8c-0.4-0.2-0.6-0.7-0.6-1.2c0-3.3,3.5-13.1,4.8-16.5c0.2-0.7,1-2.7,1-3.3c0-1.1-1.8-2.1-2.7-2.2
		c-0.5,0.1-0.9,0.5-1.3,0.9c-1.2,1.3-2.4,2.7-3.5,4c-3,3.5-5.6,7.3-8.3,11l-0.1,0c1-2.8,2.9-8.8,2.9-11.6c0-1.4-0.8-2.6-2-3.2
		c-0.1,0-0.6-0.3-0.7-0.3c-0.2,0-0.4,0-0.5,0.2c0,0.2,0.1,0.5,0.1,0.7c0,1.3-0.4,2.8-0.8,4c-0.3,0.9-0.7,2.3-1,3.7
		c-0.8,1-1.6,2-2.4,3c-1.2,1.8-2.4,3.7-3.7,5.4c0,0,0-0.1,0-0.1c0,0,0,0,0-0.1l1.1-3.6c0.5-1.8,1.2-3.4,1.2-5.3
		c0-2.3-1.8-3.5-3.9-3.7c-0.1,0-0.4,0.1-0.4,0.3c0,0.2,0.1,0.5,0.1,0.7v0.2c-0.1,2-0.6,3.9-1.2,5.9c-0.7,2.5-1.3,5.3-1.3,7.9
		c0,1.5,1,2.2,2.4,2.2c0.4,0,0.7,0,1-0.3c1.1-1.2,2.7-3.4,3.6-4.8c0.8-1.1,1.5-2.3,2.2-3.5c0.1-0.2,0.3-0.4,0.4-0.6
		c-0.3,1.5-0.5,2.8-0.5,3.8c0,1.5,1.5,2.8,2.9,2.8c0.3,0,0.5,0,0.8-0.3c1.3-1.1,3.7-5.3,4.8-7c1.6-2.6,3.4-5.3,5.5-7.4
		c0.1-0.1,0.3-0.2,0.4-0.3c-0.5,1.4-1.2,2.8-1.6,4.2c-0.9,3-2.4,7.1-2.4,10.2c0,2.3,0.5,4.6,3.3,4.6C263.8,41.3,264,41.1,264,40.8z
		 M250.9,28.5c-0.2,0.3-0.4,0.5-0.6,0.8c0.2-0.5,0.5-1,0.8-1.5C251.1,28,251,28.3,250.9,28.5z M245.6,28.9L245.6,28.9
		c0,0.1,0,0.2,0,0.3V28.9z M243.2,37.9L243.2,37.9L243.2,37.9c0.1-1.8,0.8-3.5,1.3-5.2c0.3-1.1,0.5-2.3,1.1-3.3
		C244.8,32.2,243.9,35.1,243.2,37.9z M246.8,34.9c0.1-0.2,0.2-0.4,0.4-0.5L246.8,34.9z M247.4,34.1L247.4,34.1
		c0-0.4,0.2-0.5,0.4-0.5L247.4,34.1z M249.4,31.5l-0.2,0.1c0.2-0.3,0.4-0.6,0.6-0.9C249.7,31,249.6,31.3,249.4,31.5z M245.5,36
		c-0.1,0.1-0.3,0.3-0.5,0.4c0.4-0.9,1.1-1.6,1.7-2.4c0.8-1.4,1.8-2.7,2.6-4c0.5-0.9,1.3-1.6,2-2.4c0,0,0,0.1,0,0.1
		C249.2,30.4,247.3,33.2,245.5,36z M250.5,30.1v-0.2l-0.2,0.1l0.5-0.7c0,0.1,0,0.2-0.1,0.3c0,0.1-0.1,0.2-0.2,0.3c0,0,0,0,0.1,0
		C250.6,30,250.6,30,250.5,30.1L250.5,30.1z M267.3,20L267.3,20v0.2V20z M267,20.8c-0.2,0.5-0.5,1.1-0.7,1.6
		C266.5,21.8,266.7,21.3,267,20.8z M266.5,19.9v0.2c-0.5,1-1,1.9-1.5,2.9l-0.1,0.1v0.4l-0.1,0l0.1-0.3
		C265.3,22.1,265.8,21,266.5,19.9z M254.3,35c0-0.1,0-0.1,0.1-0.2L254.3,35z M255.7,33.1l-0.2,0.2c0-0.2,0.2-0.4,0.4-0.6
		C255.8,32.8,255.7,32.9,255.7,33.1z M255.7,32.4L255.7,32.4C255.8,32.4,255.8,32.4,255.7,32.4z M255.1,32c0.2-0.3,0.4-0.7,0.7-1
		C255.6,31.4,255.4,31.7,255.1,32z M258.3,27.3c2.1-3,4.5-5.7,7-8.3l0.1,0.1l-0.1,0.2c-2.5,3.1-5.3,5.8-7.5,9.1
		c-0.3,0.5-0.6,1-1,1.5c-0.2,0.2-0.4,0.3-0.5,0.6l-0.2,0.2C256.7,29.5,257.6,28.4,258.3,27.3z M257.4,29.7L257.4,29.7L257.4,29.7
		c0.1-0.1,0.2,0,0.2,0C257.6,29.7,257.6,29.7,257.4,29.7l0.1,0.3C257.5,29.9,257.4,29.7,257.4,29.7z M257.5,29.9h-0.2
		c0,0,0,0.1,0,0.2c0,0,0-0.1,0-0.1v-0.1l0.1,0C257.4,29.9,257.5,29.9,257.5,29.9z M257.1,30.3l0,0.1h-0.2c0,0,0.1-0.1,0.1-0.2
		L257.1,30.3L257.1,30.3z M256.2,31.8L256.2,31.8L256.2,31.8L256.2,31.8z M256.3,32c0.2-0.4,0.5-0.8,0.8-1.2
		C256.9,31.3,256.6,31.6,256.3,32z M257.2,31.2L257.2,31.2L257.2,31.2L257.2,31.2z M257.1,30.8c0.1-0.4,0.4-0.7,0.6-1
		C257.6,30.1,257.4,30.5,257.1,30.8z M257.9,29.3C257.9,29.3,257.9,29.3,257.9,29.3c-0.1,0-0.2,0.1-0.2,0.2c0,0,0-0.1,0-0.2v-0.1
		l0.1,0C257.8,29.3,257.9,29.3,257.9,29.3c0-0.1,0-0.2,0-0.3v-0.1h0c0,0,0.1,0,0.1,0l-0.1,0C257.9,29.1,257.9,29.2,257.9,29.3z
		 M258.1,29.4L258.1,29.4l0-0.2L258.1,29.4z M258.8,28.5c-0.1,0-0.2,0.1-0.3,0.2l0.4-0.6C258.9,28.2,258.8,28.4,258.8,28.5
		L258.8,28.5z M258.8,28.6L258.8,28.6l0-0.1C258.9,28.5,258.9,28.6,258.8,28.6z M261.5,24.9c-0.1,0.1-0.6,0.7-0.6,0.8l-0.2,0.2h-0.1
		l-0.2,0.3l0.1,0.1c-0.1,0-0.1,0.1-0.2,0.2l-0.1,0.1c-0.1,0.3-0.3,0.5-0.5,0.8h-0.1l-0.3,0.2c0.1-0.1,0.1-0.3,0.2-0.5
		c-0.5,0.6-0.9,1.1-1.3,1.8l0-0.2v-0.1c1.9-2.8,4.1-5.5,6.5-7.9c-0.5,0.7-2.9,3.3-3.2,3.8c0.6-0.4,1.1-1.1,1.6-1.7V23l0.1,0
		C262.8,23.2,261.6,24.6,261.5,24.9z M264.1,22c-0.2,0.1-0.3,0.3-0.5,0.5c-0.2,0-0.3,0.1-0.4,0.2l1.9-2.1l-0.5,0.7
		C264.5,21.6,264.2,21.7,264.1,22z M264.7,23.8L264.7,23.8L264.7,23.8C264.6,23.9,264.7,23.9,264.7,23.8z M264.4,24.7L264.4,24.7
		L264.4,24.7L264.4,24.7z M262.8,36.5L262.8,36.5l0-0.1h0V36.5z M262.9,36.1l-0.1,0l0.3-1.2C263.1,35.2,263,35.6,262.9,36.1z
		 M263.1,34.7c1.1-4.5,3.1-10.7,5.1-14.8l0.1,0c-0.9,2.6-2,5.2-3,7.8c-0.8,2.2-1.3,4.5-2.1,6.7C263.2,34.5,263.2,34.6,263.1,34.7z"
		/>
	<path class="st0" d="M277.2,20.7c-4.7,0-8.3,5.8-8.3,10.1c0,2.4,2,4.4,4.4,4.4c2.2,0,3.5-2.2,5.1-3.5c-0.1,1.5-0.4,3.9-1.2,5.2
		c-0.1-0.4-0.6-0.7-1-0.8l-0.2-0.4c-1.8,0.9-3.3,2.1-4.7,3.6c-2.8,2.8-7.5,10.1-7.5,14.1c0,1.8,2.1,3,3.7,3c2.1,0,4.2-1.7,5.6-3.1
		c3.5-3.6,5.4-8.2,6.9-12.9c1.1-3.6,1.5-7.5,1.5-11.4c0-0.5-0.2-0.9-0.7-1.2l-1.9-1.1c-0.8,0.7-1.4,1.9-1.9,2.8
		c-0.9,1.4-2,2.6-3.4,3.5c-0.3,0.2-0.6,0.4-1,0.4h-0.2c0-0.1,0-0.2,0-0.4c0-3.9,3.3-9.7,7.6-9.7c0.7,0,2,1,2.6,1.4
		c0-0.2,0.1-0.4,0.1-0.6c0-0.1-0.1-0.3-0.2-0.4C281.1,21.8,279.2,20.7,277.2,20.7z M276.4,32.9c0,0-0.1,0-0.2,0v0H276.4L276.4,32.9
		c0-0.4,0.3-0.6,0.6-0.8L276.4,32.9z M277.6,31.8L277.6,31.8L277.6,31.8L277.6,31.8z M277.5,31.5c0.1-0.2,0.3-0.5,0.5-0.7
		C277.9,31,277.7,31.3,277.5,31.5z M278.3,30L278.3,30L278.3,30C278.3,30,278.3,30,278.3,30z M277.5,39.2L277.5,39.2L277.5,39.2
		L277.5,39.2z M277.2,40.4L277.2,40.4L277.2,40.4L277.2,40.4z M272.1,41.6C272.1,41.6,272.1,41.6,272.1,41.6L272.1,41.6z
		 M270.5,41.2C270.5,41.2,270.5,41.2,270.5,41.2L270.5,41.2z M265.2,50c0.1-0.5,1.7-3.7,1.9-3.9l-1.7,3.3
		C265.5,49.6,265.4,49.8,265.2,50z M267,48.2L267,48.2C266.9,48.2,267,48.2,267,48.2z M265.9,52.9L265.9,52.9v-0.2V52.9z
		 M266.9,49.8c0.9-1.8,1.9-3.5,2.9-5.3l0.3-0.2c-0.2,0.5-0.5,1-0.8,1.5c-0.8,1.4-1.7,2.8-2.3,4.3c-0.3,0.8-0.5,1.8-1.1,2.5
		C266.3,51.7,266.5,50.7,266.9,49.8z M267.2,53.7l-0.3,0.1h-0.1c0-4.1,7.1-13.5,10.5-15.8C275.5,43.4,272.3,50.9,267.2,53.7z
		 M277,41.1l-0.1,0.3C276.9,41.3,276.9,41.2,277,41.1z M275.5,44.4c0,0,0,0.1,0,0.2l-0.1,0.2C275.4,44.6,275.5,44.5,275.5,44.4z
		 M273.5,48.3c0.6-1.2,1.2-2.3,1.8-3.5C274.9,45.9,274.3,47.3,273.5,48.3z M274.5,48.5c0,0-0.1,0.1-0.2,0.1L274.5,48.5z M273.8,49.4
		L273.8,49.4L273.8,49.4C273.7,49.4,273.7,49.4,273.8,49.4z M277.3,45.8L277.3,45.8L277.3,45.8L277.3,45.8z M279.2,38.6L279.2,38.6
		c0,0.1,0,0.2,0,0.3V38.6z M279.2,38.9v0.2h-0.1L279.2,38.9z M279,39.6h0.1c0,0.2-0.1,0.4-0.2,0.6L279,39.6z M278.8,40.4
		c-0.3,0.8-0.4,1.7-0.7,2.5c-1,2.9-2.6,6.1-4.6,8.4c0.3-0.8,0.9-1.5,1.3-2.2c1.6-2.6,2.8-5.4,3.8-8.3
		C278.7,40.6,278.7,40.4,278.8,40.4z M278.5,27.9L278.5,27.9c0,0.2-0.4,0.7-0.6,1L278.5,27.9z M277.8,30.6L277.8,30.6L277.8,30.6
		C277.7,30.7,277.8,30.7,277.8,30.6z M277.6,29.3c-0.5,0.7-1,1.3-1.5,1.9L277.6,29.3z M273.2,23.4L273.2,23.4l-0.1,0.1L273.2,23.4z
		 M273.2,24.6L273.2,24.6L273.2,24.6L273.2,24.6z M271.1,25.9c0.3-0.5,0.7-1.1,1.1-1.5C272,24.6,271.3,25.7,271.1,25.9z M271.7,29.2
		L271.7,29.2l0-0.2C271.7,29.1,271.7,29.2,271.7,29.2z M272.6,27.2c-0.2,0.5-0.4,0.9-0.8,1.4c0.3-1.6,1.3-3,2.5-4
		c0.1-0.1,0.2-0.1,0.3-0.1C273.9,25.2,273.2,26.2,272.6,27.2z"/>
	<path class="st0" d="M302.2,16.2c1.8-0.3,6.1-0.7,7.2-2c-0.3,0-0.7-0.1-0.7-0.5c-0.6-0.8-0.9-1-1.9-1c-0.9,0-1.7,0-2.5,0.2
		c-0.3,0.1-0.7,0-1.1,0.1c0,0,1.8-5,1.8-5.2c0-0.4-0.5-0.7-0.8-0.9l-0.4,0.1V6.4l-0.5-0.2l-0.4,0.3l0.2-0.7l-0.4,0l-0.2-0.3
		c-0.2,0.3-0.4,0.6-0.7,0.9l0.3-0.8l-0.6-0.3c-0.4,0-0.6,0.3-0.8,0.6c-0.7,1.2-1.5,2.4-2,3.6c-0.7,1.7-1.7,3.1-2.7,4.5
		c-1.1,0.2-2.2,0.3-3.3,0.6c-0.5,0.1-0.6,0.3-0.7,0.8l0.4,0.2l0,0.3c0.3,0.4,1,0.9,1.5,1.1l0,0c0.5,0,1,0,1.5,0c0.1,0,0.6,0,0.6,0.2
		c0,0.3-0.1,0.6-0.2,1c-0.2,1.4-0.5,2.7-0.8,4.1c-0.2,1.2-0.3,2.4-0.5,3.5c-0.8,5.1-1.5,10.3-1.5,15.4c0,1.7,0,5,1.8,5.9
		c0.6,0.3,1.2,0.4,1.8,0.7l0.3-0.4c0,0.1,0.1,0.2,0.2,0.2c0.3,0,1-0.1,1-0.6c0-0.1,0-0.2,0-0.4c-0.3-1.2-0.5-2.5-0.5-3.8
		c0-3.2,0.4-6.4,0.9-9.5C299.4,27.8,300.4,21.9,302.2,16.2z M301.7,6.6L301.7,6.6l-0.2,0.5C301.5,6.9,301.6,6.8,301.7,6.6z
		 M301.6,9.4l-0.1,0.1V9.4H301.6z M301.5,7.1c0,0,0,0.1-0.1,0.2C301.4,7.3,301.4,7.2,301.5,7.1z M302.5,9.7c0.1-0.2,0.3-0.4,0.5-0.6
		c-0.5,1.3-0.9,2.6-1.4,3.8c0,0.2-0.1,0.4-0.4,0.4h-0.1C301.2,12.9,302.3,10.1,302.5,9.7z M301.3,16.4v0.2c0,0.1,0,0.3-0.2,0.3
		L301.3,16.4z M294.4,37L294.4,37l0-0.6h0V37z M298.5,28.6v-0.2h0C298.6,28.5,298.6,28.5,298.5,28.6L298.5,28.6z M298.7,27.8
		L298.7,27.8l0-0.2h0V27.8z M298.8,27.2L298.8,27.2l0-0.3h0V27.2z M298.9,26.5v-0.3h0C299,26.3,299,26.4,298.9,26.5L298.9,26.5z
		 M299.1,25.9L299.1,25.9l0-0.4h0V25.9z M299.2,25.2C299.2,25.2,299.2,25.2,299.2,25.2l0-0.3h0V25.2z M299.3,24.5L299.3,24.5l0-0.3
		h0V24.5z M299.5,23.9L299.5,23.9l0-0.3h0V23.9z M299.6,23.3L299.6,23.3V23V23.3z M299.7,22.8c0-0.1,0-0.1,0-0.2
		c0-0.1,0.1-0.2,0.2-0.2L299.7,22.8z M299.8,22.4c0-0.1,0-0.1,0-0.2c0-0.1,0.1-0.2,0.2-0.2L299.8,22.4z M300,21.8c0-0.1,0-0.3,0-0.4
		h0.1C300,21.5,300,21.7,300,21.8z M300.1,21.1L300.1,21.1c-0.1-0.1,0-0.1,0-0.2V21.1z M300.1,20.7L300.1,20.7
		C300.1,20.7,300.1,20.6,300.1,20.7L300.1,20.7z M300.2,20.2c0,0,0-0.1,0-0.1L300.2,20.2z M301,17.5l-0.1,0.3c0-0.2,0-0.3,0.1-0.5
		V17.5z M301,7.8c0,0,0,0.1-0.1,0.2L301,7.8z M300.9,8c0,0.1,0,0.2-0.1,0.2L300.9,8z M300.8,8.4C300.8,8.4,300.8,8.4,300.8,8.4
		C300.7,8.4,300.8,8.4,300.8,8.4z M300.9,18c-0.1,0.3-0.1,0.5-0.2,0.8c0-0.1,0-0.2,0-0.3C300.6,18.3,300.7,18.1,300.9,18z
		 M300.7,18.8L300.7,18.8L300.7,18.8c-0.1,0.3-0.2,0.6-0.3,0.8h0v0l-0.1,0.4c0-0.1,0-0.2,0-0.4l0,0
		C300.4,19.3,300.4,19.1,300.7,18.8L300.7,18.8z M300.4,12.1C300.4,12,300.4,12,300.4,12.1C300.5,12,300.4,12,300.4,12.1
		c-0.1,0.5-0.1,1-0.5,1.4C300,13,300.1,12.4,300.4,12.1z M299.3,17.5L299.3,17.5C299.4,17.5,299.4,17.5,299.3,17.5L299.3,17.5z
		 M299.2,17.9L299.2,17.9v0.3V17.9z M298.9,12.9L298.9,12.9C298.8,12.9,298.8,12.9,298.9,12.9z M296.8,13.9c0-0.1,0.1-0.2,0.2-0.2
		L296.8,13.9L296.8,13.9z M294.6,34.9L294.6,34.9l0-0.6h0V34.9z M294.7,33.5L294.7,33.5l0.4-4l0.1,0C295,30.8,294.8,32.2,294.7,33.5
		z M295.3,28.8c0-1.6,1.6-10.8,2.3-11.9c-1,4-1.6,8.1-2.3,12.1V28.8z M295.4,38.4L295.4,38.4l0-0.5h0V38.4z M295.4,37.2L295.4,37.2
		L295.4,37.2L295.4,37.2L295.4,37.2z M295.5,36.2L295.5,36.2v-0.9h0L295.5,36.2z M295.7,34.8L295.7,34.8c-0.1-0.2,0-0.4,0-0.7h0h0
		V34.8z M295.8,33.3c0-2,2.2-15.5,3.1-16.6c-0.6,2.8-1.2,5.6-1.8,8.4c-0.5,2.8-0.9,5.6-1.4,8.4V33.3z M299.1,18.8L299,19l0,0
		L299.1,18.8z M298.9,19.4v0.1h-0.1L298.9,19.4z M298.6,20.5v0.1h0L298.6,20.5L298.6,20.5z M298.5,21.1L298.5,21.1L298.5,21.1
		L298.5,21.1z M298.4,21.6l0,0.2h0C298.3,21.7,298.3,21.7,298.4,21.6L298.4,21.6z M298.3,22.2v0.1h0L298.3,22.2L298.3,22.2z
		 M297.1,38.9L297.1,38.9l0-0.1h0V38.9z M297.3,37.5L297.3,37.5c0-0.1,0-0.2,0-0.2V37.5z M297.5,35.9L297.5,35.9l0-0.1h0V35.9z
		 M296.2,43.7c-0.1-0.7-0.1-1.5-0.1-2.2c0-4.2,0.7-8.5,1.3-12.7c0.7-4.1,1.4-8.3,2.6-12.3l0.4,0C298.2,25.4,296.6,34.5,296.2,43.7z
		 M297.6,34.8L297.6,34.8l0-0.2h0V34.8z M297.7,33.7v-0.2h0L297.7,33.7z M297.9,32.8c0,0,0-0.1,0-0.2h0
		C297.9,32.7,297.9,32.8,297.9,32.8L297.9,32.8z M298,32L298,32l0-0.3h0V32z M298.2,31L298.2,31l0-0.2h0V31z M298.3,30.2L298.3,30.2
		l0-0.4h0V30.2z M298.3,29.1L298.3,29.1l0.1,0.3h-0.1V29.1z"/>
	<path class="st0" d="M312.1,19c-2.1,0-4,2.8-5.2,4.3l-0.9-0.4c-2.3,0-4.4,5.4-4.4,7.4v0.6c0,3,2.2,5.5,5.3,5.5c0.3,0,0.7,0,1-0.1
		c1.2-0.2,1.9-0.8,2.8-1.6c2.8-2.6,5.9-7.1,5.9-11.1C316.6,21.6,314.2,19,312.1,19z M311.3,21.6C311.4,21.6,311.4,21.6,311.3,21.6
		l0.1,0v0c-1.1,1.1-2,2.4-3,3.6C308.8,24,310.3,22.4,311.3,21.6z M308.8,23.4c0-0.2,0.6-0.8,0.8-1C309.4,22.7,309,23,308.8,23.4z
		 M310.3,20.6L310.3,20.6c-0.3,0.4-1.9,2-2.1,2.4l-0.1,0.1C308.7,22.2,309.4,21.3,310.3,20.6z M306.3,24.7L306.3,24.7
		c-0.1,0.4-1.1,1.9-1.3,2.3C305.3,26.2,305.7,25.3,306.3,24.7z M305.6,24.5c0,0.2-0.2,0.5-0.4,0.7L305.6,24.5z M305.2,24.1l-0.8,0.9
		C304.6,24.6,304.8,24.3,305.2,24.1z M304.7,27.8L304.7,27.8L304.7,27.8C304.8,27.7,304.8,27.8,304.7,27.8z M305.2,34.2
		c-0.2-0.7-0.2-1.4-0.2-2c0-1.9,0.7-3.8,1.4-5.6c0.7,0.9,1.4,2,2.7,2c0.2,0,0.4-0.1,0.5-0.3c-0.4-0.3-0.7-0.7-0.7-1.2
		c0-1.6,3.4-5.6,5-5.6c0.1,0.2,0.1,0.4,0.1,0.6c0,0.3-0.1,0.6-0.1,1C313,27.4,309.6,33,305.2,34.2z M310.9,31c0-0.2,0.8-1.2,1.1-1.5
		C311.7,30,311.3,30.6,310.9,31z M311.1,31.8C311.1,31.8,311.1,31.8,311.1,31.8L311.1,31.8z M311.6,31.2l1.1-1.5
		C312.4,30.2,312,30.7,311.6,31.2L311.6,31.2L311.6,31.2z M312.7,29.7c0,0,0-0.1,0-0.1L312.7,29.7z M313.6,30.8L313.6,30.8
		L313.6,30.8L313.6,30.8z M310.8,33.4c0-0.2,0.2-0.3,0.3-0.5c1.2-1.6,2.4-3.1,3.3-4.9C314.4,29.6,311.8,32.3,310.8,33.4z"/>
	<path class="st0" d="M325.9,20.7c-4.7,0-8.3,5.8-8.3,10.1c0,2.4,2,4.4,4.4,4.4c2.2,0,3.5-2.2,5.1-3.5c-0.1,1.5-0.4,3.9-1.2,5.2
		c-0.1-0.4-0.6-0.7-1-0.8l-0.2-0.4c-1.8,0.9-3.3,2.1-4.7,3.6c-2.8,2.8-7.5,10.1-7.5,14.1c0,1.8,2.1,3,3.7,3c2.1,0,4.2-1.7,5.6-3.1
		c3.5-3.6,5.4-8.2,6.9-12.9c1.1-3.6,1.5-7.5,1.5-11.4c0-0.5-0.2-0.9-0.7-1.2l-1.9-1.1c-0.8,0.7-1.4,1.9-1.9,2.8
		c-0.9,1.4-2,2.6-3.4,3.5c-0.3,0.2-0.6,0.4-1,0.4h-0.2c0-0.1,0-0.2,0-0.4c0-3.9,3.3-9.7,7.6-9.7c0.7,0,2,1,2.6,1.4
		c0-0.2,0.1-0.4,0.1-0.6c0-0.1-0.1-0.3-0.2-0.4C329.9,21.8,327.9,20.7,325.9,20.7z M325.1,32.9c0,0-0.1,0-0.2,0v0H325.1L325.1,32.9
		c0-0.4,0.3-0.6,0.6-0.8L325.1,32.9z M326.4,31.8L326.4,31.8L326.4,31.8L326.4,31.8z M326.2,31.5c0.1-0.2,0.3-0.5,0.5-0.7
		C326.6,31,326.5,31.3,326.2,31.5z M327,30L327,30L327,30C327,30,327,30,327,30z M326.3,39.2L326.3,39.2L326.3,39.2L326.3,39.2z
		 M320.8,41.6C320.8,41.6,320.8,41.6,320.8,41.6L320.8,41.6z M319.2,41.2C319.2,41.2,319.2,41.2,319.2,41.2L319.2,41.2z M314,50
		c0.1-0.5,1.7-3.7,1.9-3.9l-1.7,3.3C314.2,49.6,314.1,49.8,314,50z M315.8,48.2L315.8,48.2C315.7,48.2,315.7,48.2,315.8,48.2z
		 M314.6,52.9L314.6,52.9v-0.2V52.9z M315.6,49.8c0.9-1.8,1.9-3.5,2.9-5.3l0.3-0.2c-0.2,0.5-0.5,1-0.8,1.5c-0.8,1.4-1.7,2.8-2.3,4.3
		c-0.3,0.8-0.5,1.8-1.1,2.5C315,51.7,315.2,50.7,315.6,49.8z M315.9,53.7l-0.3,0.1h-0.1c0-4.1,7.1-13.5,10.5-15.8
		C324.2,43.4,321,50.9,315.9,53.7z M325.9,40.4L325.9,40.4L325.9,40.4L325.9,40.4z M325.7,41.1l-0.1,0.3
		C325.6,41.3,325.6,41.2,325.7,41.1z M322.2,48.3c0.6-1.2,1.2-2.3,1.8-3.5C323.6,45.9,323,47.3,322.2,48.3z M323.2,48.5
		c0,0-0.1,0.1-0.2,0.1L323.2,48.5z M322.5,49.4L322.5,49.4L322.5,49.4C322.4,49.4,322.4,49.4,322.5,49.4z M324.1,44.8
		c0-0.1,0.1-0.3,0.2-0.4c0,0,0,0.1,0,0.2L324.1,44.8z M326,45.8L326,45.8L326,45.8L326,45.8z M328,38.6L328,38.6c0,0.1,0,0.2,0,0.3
		V38.6z M328,38.9v0.2h-0.1L328,38.9z M327.7,39.6h0.1c0,0.2-0.1,0.4-0.2,0.6L327.7,39.6z M327.5,40.4c-0.3,0.8-0.4,1.7-0.7,2.5
		c-1,2.9-2.6,6.1-4.6,8.4c0.3-0.8,0.9-1.5,1.3-2.2c1.6-2.6,2.8-5.4,3.8-8.3C327.4,40.6,327.4,40.4,327.5,40.4z M327.2,27.9
		L327.2,27.9c0,0.2-0.4,0.7-0.6,1L327.2,27.9z M326.5,30.6L326.5,30.6L326.5,30.6C326.5,30.7,326.5,30.7,326.5,30.6z M326.4,29.3
		c-0.5,0.7-1,1.3-1.5,1.9L326.4,29.3z M321.9,23.4L321.9,23.4l-0.1,0.1L321.9,23.4z M321.9,24.6L321.9,24.6L321.9,24.6L321.9,24.6z
		 M319.8,25.9c0.3-0.5,0.7-1.1,1.1-1.5C320.8,24.6,320,25.7,319.8,25.9z M320.4,29.2L320.4,29.2l0-0.2
		C320.4,29.1,320.4,29.2,320.4,29.2z M321.3,27.2c-0.2,0.5-0.4,0.9-0.8,1.4c0.3-1.6,1.3-3,2.5-4c0.1-0.1,0.2-0.1,0.3-0.1
		C322.7,25.2,321.9,26.2,321.3,27.2z"/>
	<path class="st0" d="M342.5,24.5c0-2.1-1.3-3.7-3.3-4.4l-0.4,0.1l1,1.8c-0.4-0.1-0.9-0.2-1.3-0.2c-1.8,0-3.4,0.8-4.4,2.3
		c-1.4,1.9-2.3,4.2-2.3,6.6c0,2.9,1.8,4.9,4.7,4.9c1.4,0,2.7-0.9,2.8-2.3l-0.2,0.2c0,0.2,0,0.3-0.2,0.5v-0.2l-0.1,0.2h0l0,0.2h0
		l0,0.1h-0.1v0l-0.1,0l0-0.1l-0.3,0c0.1-0.3,0.3-0.5,0.3-0.8c0,0,0-0.1-0.1-0.2c-0.3,0.4-0.4,0.9-0.9,1.2c0.1-0.4,0.5-0.7,0.5-1.2
		v-0.1l0,0c-0.3,0.9-1.1,1.6-2.1,1.6c-0.7,0-0.8-1.8-0.8-2.3c0-0.4,0-1.2,0.1-1.6C338.4,30.5,342.5,28,342.5,24.5z M339.6,26.4
		L339.6,26.4l-0.1,0.1L339.6,26.4c0,0,0-0.1,0-0.2L339.6,26.4z M341.6,25.4c-0.2,0.6-0.5,1.3-1,1.8
		C340.6,26.9,341.4,25.8,341.6,25.4z M340.5,27.3c0,0,0.1,0,0.1,0C340.6,27.3,340.5,27.3,340.5,27.3z M340.5,26.1l0,0.1h0
		L340.5,26.1z M340.5,27.3C340.5,27.3,340.4,27.3,340.5,27.3L340.5,27.3z M340.2,25.3L340.2,25.3C340.3,25.4,340.2,25.4,340.2,25.3
		L340.2,25.3z M339.9,26L339.9,26l0.1-0.2C340,25.8,340,25.9,339.9,26z M340,23.6v0.2c0,1.8-2.6,4.6-4.3,4.8
		C336,26.4,337.8,24.1,340,23.6z M336.5,24.7L336.5,24.7L336.5,24.7l-0.1,0.1C336.4,24.8,336.4,24.7,336.5,24.7z M335.2,25.2
		c0,0,0,0.1-0.1,0.2h0C335.2,25.4,335.2,25.3,335.2,25.2z M335,25.5c0,0.1,0,0.1,0,0.2C334.9,25.7,334.9,25.6,335,25.5z M333.6,26.8
		L333.6,26.8C333.5,26.7,333.5,26.7,333.6,26.8L333.6,26.8z M333.8,26.3L333.8,26.3l0-0.3L333.8,26.3z M333.9,26L333.9,26L333.9,26
		L333.9,26z M334.5,28.5L334.5,28.5c0-0.1,0-0.2,0-0.2V28.5z M334.6,24.8l-0.2,0.1l-0.1,0.2c0,0.2-0.1,0.4-0.3,0.5
		c0.1-0.2,0.2-0.3,0.3-0.5v0l0.1-0.1l0.2-0.4c0,0,0.1,0,0.1,0l-0.1,0C334.7,24.7,334.6,24.7,334.6,24.8z M334.7,28
		c0-1,0.9-2.4,1.6-3.1C335.9,26,335.1,26.9,334.7,28z"/>
	<path class="st0" d="M365,20.2c-0.7-0.5-1.6-1.1-2.5-1.1c-0.4,0-0.7,0.1-1.1,0.4c-2.9,1.9-4.3,3.5-6.2,6.4c0,0,0-0.1,0-0.2
		c0-0.9,0.8-3.7,1.1-4.7c0.5-2,1-4,1.5-6c0.5-0.2,0.9-0.5,1.1-0.8c-0.3,0-0.7-0.1-0.7-0.5c0,0-0.1-0.1-0.1-0.1
		c0-0.1,0.1-0.2,0.1-0.4c0.5-1.9,1.8-5.6,1.8-7.4V5.3c0-0.4-0.1-0.6-0.4-0.9c-0.3-0.3-1-0.9-1.5-0.9c-0.3,0-0.5-0.1-0.8-0.3
		c-0.3,0.4-0.5,0.9-0.7,1.4c-0.7,1.8-1.5,3.6-2.1,5.5c-0.3,0.9-0.5,1.8-0.7,2.7c0,0,0,0,0,0c-0.3,0.1-0.7,0-1.1,0.1
		c0,0,1.8-5,1.8-5.2c0-0.4-0.5-0.7-0.8-0.9l-0.4,0.1V6.4l-0.5-0.2l-0.4,0.3l0.2-0.7l-0.4,0L352,5.6c-0.2,0.3-0.4,0.6-0.7,0.9
		l0.3-0.8L351,5.4c-0.4,0-0.6,0.3-0.8,0.6c-0.7,1.2-1.5,2.4-2,3.6c-0.7,1.7-1.7,3.1-2.7,4.5c-1.1,0.2-2.2,0.3-3.3,0.6
		c-0.5,0.1-0.6,0.3-0.7,0.8l0.4,0.2l0,0.3c0.3,0.4,1,0.9,1.5,1.1l0,0c0.5,0,1,0,1.5,0c0.1,0,0.6,0,0.6,0.2c0,0.3-0.1,0.6-0.2,1
		c-0.2,1.4-0.5,2.7-0.8,4.1c-0.2,1.2-0.3,2.4-0.5,3.5c-0.8,5.1-1.5,10.3-1.5,15.4c0,1.7,0,5,1.8,5.9c0.6,0.3,1.2,0.4,1.8,0.7
		l0.3-0.4c0,0.1,0.1,0.2,0.2,0.2c0.3,0,1-0.1,1-0.6c0-0.1,0-0.2,0-0.4c-0.3-1.2-0.5-2.5-0.5-3.8c0-3.2,0.4-6.4,0.9-9.5
		c1-5.9,2-11.8,3.7-17.5c0.4-0.1,0.8-0.1,1.4-0.2c0,0,0,0.1,0,0.1c-1.1,5-2.3,10-2.3,15.1c0,2.9,0.3,5.1,3.6,5.4
		c0.1-0.3,0.1-0.5,0.2-0.8c0.7-3.5,2-6.8,3.8-9.8c0.6-1,1.6-2.5,2.5-3.3l1.5-1.3l0.1,0.1c-1.3,4.2-1.8,8.2-2.3,12.5
		c-0.1,1.1-0.1,2.2-0.1,3.4c0,0.6,0,1.2,0,1.8c0.1,1.4,1.5,2.5,2.9,2.5c0.2,0,0.4,0,0.6,0c0-0.1,0-0.2,0-0.3c0,0,0-0.1,0-0.1
		c-0.2-0.6-0.2-1.3-0.2-1.9c0-4.1,1.1-8.2,1.8-12.2c0.3-1.7,0.9-3.5,0.9-5.2C365.9,21.1,365.7,20.7,365,20.2z M343.8,37L343.8,37
		l0-0.6h0V37z M350.3,8l0.1-0.2C350.4,7.9,350.4,8,350.3,8c0,0.1,0,0.2-0.1,0.2L350.3,8z M350.2,8.4C350.2,8.4,350.2,8.4,350.2,8.4
		C350.2,8.4,350.2,8.4,350.2,8.4z M349.9,12C349.9,12,349.9,12,349.9,12C349.9,12,349.9,12,349.9,12z M349.9,12.1
		c-0.1,0.5-0.1,1-0.5,1.4C349.4,13,349.5,12.4,349.9,12.1z M348.8,17.5L348.8,17.5C348.8,17.5,348.8,17.5,348.8,17.5L348.8,17.5z
		 M348.6,17.9L348.6,17.9v0.3V17.9z M348.3,12.9L348.3,12.9C348.3,12.9,348.3,12.9,348.3,12.9z M346.3,13.9c0-0.1,0.1-0.2,0.2-0.2
		L346.3,13.9L346.3,13.9z M344,34.9L344,34.9l0-0.6h0V34.9z M344.1,33.5L344.1,33.5l0.4-4l0.1,0C344.5,30.8,344.3,32.2,344.1,33.5z
		 M344.7,28.8c0-1.6,1.6-10.8,2.3-11.9c-1,4-1.6,8.1-2.3,12.1V28.8z M344.8,38.4L344.8,38.4l0-0.5h0V38.4z M344.9,37.2L344.9,37.2
		L344.9,37.2L344.9,37.2L344.9,37.2z M345,36.2L345,36.2v-0.9h0L345,36.2z M345.2,34.8L345.2,34.8c-0.1-0.2,0-0.4,0-0.7h0h0V34.8z
		 M345.3,33.3c0-2,2.2-15.5,3.1-16.6c-0.6,2.8-1.2,5.6-1.8,8.4c-0.5,2.8-0.9,5.6-1.4,8.4V33.3z M348.5,18.8l-0.1,0.2l0,0L348.5,18.8
		z M348.3,19.4v0.1h-0.1L348.3,19.4z M348.1,20.5v0.1h0L348.1,20.5L348.1,20.5z M347.9,21.1L347.9,21.1L347.9,21.1L347.9,21.1z
		 M347.8,21.6l0,0.2h0C347.8,21.7,347.8,21.7,347.8,21.6L347.8,21.6z M347.7,22.2v0.1h0L347.7,22.2L347.7,22.2z M346.6,38.9
		L346.6,38.9l0-0.1h0V38.9z M346.7,37.5L346.7,37.5c0-0.1,0-0.2,0-0.2V37.5z M346.9,35.9L346.9,35.9l0-0.1h0V35.9z M345.7,43.7
		c-0.1-0.7-0.1-1.5-0.1-2.2c0-4.2,0.7-8.5,1.3-12.7c0.7-4.1,1.4-8.3,2.6-12.3l0.4,0C347.6,25.4,346,34.5,345.7,43.7z M347.1,34.8
		L347.1,34.8l0-0.2h0V34.8z M347.2,33.7v-0.2h0L347.2,33.7z M347.3,32.8c0,0,0-0.1,0-0.2h0C347.3,32.7,347.3,32.8,347.3,32.8
		L347.3,32.8z M347.5,32L347.5,32l0-0.3h0V32z M347.6,31L347.6,31l0-0.2h0V31z M347.7,30.2L347.7,30.2l0-0.4h0V30.2z M347.9,29.4
		L347.9,29.4l-0.1-0.3h0.1V29.4z M347.9,28.6v-0.2h0C348,28.5,348,28.5,347.9,28.6L347.9,28.6z M348.1,27.8L348.1,27.8l0-0.2h0V27.8
		z M348.3,27.2L348.3,27.2l0-0.3h0V27.2z M348.3,26.5v-0.3h0C348.4,26.3,348.4,26.4,348.3,26.5L348.3,26.5z M348.5,25.9L348.5,25.9
		l0-0.4h0V25.9z M348.7,25.2C348.6,25.2,348.6,25.2,348.7,25.2l0-0.3h0V25.2z M348.8,24.5L348.8,24.5l0-0.3h0V24.5z M348.9,23.9
		L348.9,23.9l0-0.3h0V23.9z M349.1,23.3L349.1,23.3V23V23.3z M349.1,22.8c0-0.1,0-0.1,0-0.2c0-0.1,0.1-0.2,0.2-0.2L349.1,22.8z
		 M349.3,22.4c0-0.1,0-0.1,0-0.2c0-0.1,0.1-0.2,0.2-0.2L349.3,22.4z M349.4,21.8c0-0.1,0-0.3,0-0.4h0.1
		C349.4,21.5,349.4,21.7,349.4,21.8z M349.5,21.1L349.5,21.1c-0.1-0.1,0-0.1,0-0.2V21.1z M349.6,20.7L349.6,20.7
		C349.5,20.7,349.5,20.6,349.6,20.7L349.6,20.7z M349.7,20.2c0,0,0-0.1,0-0.1L349.7,20.2z M350.1,18.9L350.1,18.9
		c-0.1,0.2-0.2,0.5-0.3,0.8h0v0l-0.1,0.4c0-0.1,0-0.2,0-0.4l0,0C349.8,19.3,349.8,19.1,350.1,18.9L350.1,18.9L350.1,18.9z
		 M350.1,18.8c0-0.1,0-0.2,0-0.3c0-0.2,0.1-0.4,0.2-0.5C350.2,18.3,350.2,18.5,350.1,18.8z M350.5,17.5l-0.1,0.3
		c0-0.2,0-0.3,0.1-0.5V17.5z M350.9,7.1c0-0.2,0.1-0.3,0.2-0.5v0.1L350.9,7.1c0,0,0,0.1-0.1,0.2C350.8,7.3,350.9,7.2,350.9,7.1z
		 M351,9.4l-0.1,0.1V9.4H351z M350.7,16.6c0,0.1,0,0.3-0.2,0.3l0.2-0.5V16.6z M351.1,12.9c0,0.2-0.1,0.4-0.4,0.4h-0.1
		c0-0.4,1.1-3.2,1.4-3.6c0.1-0.2,0.3-0.4,0.5-0.6C352,10.4,351.6,11.6,351.1,12.9z M356.3,26.6L356.3,26.6
		C356.3,26.7,356.3,26.7,356.3,26.6L356.3,26.6z M355.2,27.3l-0.4,0.9h-0.1L355.2,27.3z M356.3,17.5L356.3,17.5L356.3,17.5
		L356.3,17.5z M356.8,15.6L356.8,15.6L356.8,15.6C356.8,15.5,356.8,15.5,356.8,15.6z M357.6,12.8L357.6,12.8L357.6,12.8L357.6,12.8z
		 M357.7,12.5C357.7,12.4,357.7,12.4,357.7,12.5L357.7,12.5L357.7,12.5z M358.7,6.2L358.7,6.2c0-0.1,0.1-0.1,0.1-0.2l0,0L358.7,6.2
		c0,0,0,0.1,0,0.2h0V6.2z M358.6,6.7L358.6,6.7c0.1,0.4,0,0.7-0.2,1C358.4,7.3,358.5,7,358.6,6.7z M358.3,7.8L358.3,7.8
		c-0.3,1.6-0.8,3.3-1.2,4.9c-0.1,0-0.2,0-0.3-0.1C357.3,11,357.8,9.4,358.3,7.8z M356.5,10.3L356.5,10.3L356.5,10.3L356.5,10.3z
		 M356.4,10.7L356.4,10.7L356.4,10.7L356.4,10.7L356.4,10.7z M356.3,11.1L356.3,11.1v0.1V11.1z M355.8,9.3L355.8,9.3L355.8,9.3
		L355.8,9.3z M355.6,10L355.6,10C355.6,10.1,355.6,10.1,355.6,10L355.6,10z M356.1,12c0-0.1,0-0.2,0.1-0.3c0,0,0-0.1,0-0.2l0,0.2
		L356.1,12c0,0.1-0.1,0.3-0.1,0.6c0,0,0,0-0.1,0C355.9,12.4,356,12.2,356.1,12z M354.6,18.1L354.6,18.1c-0.1-0.1-0.1-0.2,0-0.3
		C354.6,17.9,354.6,18,354.6,18.1z M354.4,18.4L354.4,18.4L354.4,18.4C354.4,18.5,354.4,18.5,354.4,18.4z M354.4,18.9l-0.1,0.6h-0.1
		l0.1-0.3C354.3,19,354.3,18.9,354.4,18.9L354.4,18.9z M355.1,15.6c0,0,0.1,0,0.1,0c-0.1,0.5-0.2,0.8-0.3,0.9
		C354.9,16.2,355,15.9,355.1,15.6z M354.1,15.8c0,0.1,0,0.2-0.1,0.3l-0.1,0c0,0.2,0,0.5,0,0.8l-0.1,0l0.1-0.7
		C353.9,16,354,15.9,354.1,15.8C354,15.8,354.1,15.8,354.1,15.8z M354,20.2v0.2h0L354,20.2L354,20.2z M353.7,17.4c0,0,0,0.1-0.1,0.2
		L353.7,17.4L353.7,17.4z M353.6,17.6v0.2h0C353.6,17.7,353.6,17.6,353.6,17.6z M353,20.7L353,20.7L353,20.7L353,20.7L353,20.7z
		 M353.1,20.2L353.1,20.2l0-0.3C353.1,20,353.1,20.1,353.1,20.2z M353.1,19.9v-0.2h0C353.2,19.7,353.2,19.8,353.1,19.9z M353.3,19
		c0,0.1,0,0.2,0,0.2h-0.1C353.2,19.1,353.2,19.1,353.3,19z M353.2,29.8c0-0.1,0-0.1,0-0.2C353.3,29.7,353.3,29.7,353.2,29.8
		L353.2,29.8z M353.4,29.1L353.4,29.1c-0.1-0.2,0-0.4,0-0.6V29.1z M354.5,22c0.5-2.2,1-4.4,1.5-6.6c0.1,0,0.2-0.1,0.3-0.1
		c-0.7,2.5-1.3,5-1.8,7.4c-0.3,1.7-0.6,4.1-1.1,5.6C353.6,26.3,354.1,24.2,354.5,22z M354.5,30.6L354.5,30.6L354.5,30.6L354.5,30.6z
		 M355.5,31L355.5,31L355.5,31L355.5,31z M355.9,29.8L355.9,29.8L355.9,29.8L355.9,29.8z M357.5,25.9l-1.2,2.3
		c-0.7,1.5-1.2,3.1-1.8,4.6c0,0.1-0.1,0.3-0.2,0.4c0-0.1,0-0.3,0-0.5C354.6,31.2,356.3,26.9,357.5,25.9L357.5,25.9z M357.6,25.7
		c0-0.1,0.1-0.2,0.1-0.3C357.7,25.5,357.6,25.6,357.6,25.7z M362.8,33.5L362.8,33.5l0-0.1h0V33.5z M363,32C363,32,362.9,32,363,32
		L363,32L363,32z M363.2,30.7L363.2,30.7v-0.3V30.7z M363.9,27.1c-0.2,0.8-0.3,1.8-0.6,2.6c0.4-2.2,0.8-4.4,1.4-6.6
		C364.5,24.5,364.2,25.8,363.9,27.1z M364.7,22.9v-0.2h0.1L364.7,22.9z"/>
	<path class="st0" d="M388.1,24.6c0-1.1-0.4-1.9-1.2-2.6c-1.4-1.3-3.2-2.3-4.9-3.3c0-1.1-0.2-2.1-0.3-3.2c-0.2-1.7-1.2-3.2-2.8-3.9
		c-0.4-0.2-0.8-0.3-1.2-0.3c-1.4,0-2.6,1.6-2.6,2.9c0,2.6,2.6,4,4.4,5.3c-0.8,4.5-2.4,8.7-4.9,12.5c-0.5,0.8-1.1,1.5-1.7,2.2
		c0.2-0.3,0.3-0.6,0.3-1l-0.2,0.2c0,0.2,0,0.3-0.2,0.5v-0.2L373,34h0l0,0.2h0l0,0.1h-0.1v0l-0.1,0l0-0.1l-0.3,0
		c0.1-0.3,0.3-0.5,0.3-0.8c0,0,0-0.1-0.1-0.2c-0.3,0.4-0.4,0.9-0.9,1.2c0.1-0.4,0.5-0.7,0.5-1.2v-0.1l0,0c-0.3,0.9-1.1,1.6-2.1,1.6
		c-0.7,0-0.8-1.8-0.8-2.3c0-0.4,0-1.2,0.1-1.6c3.2,0,7.4-2.5,7.4-6.1c0-2.1-1.3-3.7-3.3-4.4l-0.4,0.1l1,1.8
		c-0.4-0.1-0.9-0.2-1.3-0.2c-1.8,0-3.4,0.8-4.4,2.3c-1.4,1.9-2.3,4.2-2.3,6.6c0,2.9,1.8,4.9,4.7,4.9c0.7,0,1.4-0.3,2-0.7l1.7,0.6
		c0.9-0.5,1.5-1.3,2.1-2c2.8-3.8,5-8,5.5-12.8c0.9,0.4,2.2,0.9,2.2,2c0,0.7-0.5,2.3-0.8,3c-1.2,3.1-3.2,8.4-3.2,11.7
		c0,2.7,1.3,6.1,4.4,6.1c0.7,0,2.2-0.3,2.2-1.2c0-0.2,0-0.4-0.1-0.6h-0.4l-0.2,0.3l0,0l0-0.4l-1.4-0.3c-0.2-0.6-0.3-1.3-0.3-1.9
		c0-2.7,1.6-6.7,2.4-9.3C387.2,28.5,388.1,26.1,388.1,24.6z M387.2,26.5L387.2,26.5L387.2,26.5L387.2,26.5z M376.3,13.3L376.3,13.3
		l0.2-0.5C376.4,12.9,376.3,13.1,376.3,13.3z M377.5,14.1c0-0.1,0-0.1,0-0.2c0-0.2,0.1-0.4,0.3-0.6
		C377.6,13.6,377.6,13.9,377.5,14.1z M373.8,26.4L373.8,26.4l-0.1,0.1L373.8,26.4c0,0,0-0.1,0-0.2L373.8,26.4z M375.8,25.4
		c-0.2,0.6-0.5,1.3-1,1.8C374.8,26.9,375.6,25.8,375.8,25.4z M374.7,27.3c0,0,0.1,0,0.1,0C374.8,27.3,374.7,27.3,374.7,27.3z
		 M374.7,26.1l0,0.1h0L374.7,26.1z M374.6,27.3C374.6,27.3,374.6,27.3,374.6,27.3L374.6,27.3z M374.3,25.3L374.3,25.3
		C374.4,25.4,374.4,25.4,374.3,25.3L374.3,25.3z M374.1,26L374.1,26l0.1-0.2C374.2,25.8,374.1,25.9,374.1,26z M374.1,23.6v0.2
		c0,1.8-2.6,4.6-4.3,4.8C370.2,26.4,372,24.1,374.1,23.6z M370.7,24.7L370.7,24.7L370.7,24.7l-0.1,0.1
		C370.6,24.8,370.6,24.7,370.7,24.7z M369.4,25.2c0,0,0,0.1-0.1,0.2h0C369.3,25.4,369.4,25.3,369.4,25.2z M369.1,25.5
		c0,0.1,0,0.1,0,0.2C369.1,25.7,369.1,25.6,369.1,25.5z M367.8,26.8L367.8,26.8C367.7,26.7,367.7,26.7,367.8,26.8L367.8,26.8z
		 M368,26.3L368,26.3l0-0.3L368,26.3z M368.1,26L368.1,26L368.1,26L368.1,26z M368.7,28.5L368.7,28.5c0-0.1,0-0.2,0-0.2V28.5z
		 M368.8,24.8l-0.2,0.1l-0.1,0.2c0,0.2-0.1,0.4-0.3,0.5c0.1-0.2,0.2-0.3,0.3-0.5v0l0.1-0.1l0.2-0.4c0,0,0.1,0,0.1,0l-0.1,0
		C368.8,24.7,368.8,24.7,368.8,24.8z M370.5,24.9c-0.4,1.1-1.3,2-1.6,3.1C368.9,26.9,369.8,25.6,370.5,24.9z M379.8,21.8L379.8,21.8
		V22V21.8z M379.7,17.5c-0.9-0.5-1.5-1.7-1.5-2.7c0-0.6,0.3-1.2,0.8-1.7c0.5,0.7,0.8,2.8,0.8,3.7C379.7,17.1,379.7,17.4,379.7,17.5z
		 M379.7,22.3L379.7,22.3l-0.1,0.2L379.7,22.3z M379.4,23.1L379.4,23.1c0,0,0,0.1,0,0.2C379.4,23.2,379.4,23.1,379.4,23.1z
		 M379.4,23.3c0,0,0,0.1,0,0.1L379.4,23.3z M379.2,23.7l-0.1,0.6C379.1,24.2,379.1,23.9,379.2,23.7z M379,24.5L379,24.5
		c0,0.4-0.2,0.9-0.4,1.4L379,24.5z M376.5,32.2L376.5,32.2L376.5,32.2L376.5,32.2z M376.8,29.7l0.4-0.8
		C377.2,29.2,377.1,29.5,376.8,29.7z M378.3,29.3c1-2.3,1.8-4.6,2.6-7c0-0.1,0-0.2,0.1-0.2C380.8,23.6,379.3,28.1,378.3,29.3z
		 M381.1,21.7L381.1,21.7l0-0.2h0V21.7z M381.2,21.1L381.2,21.1l0-0.1h0V21.1z M385.5,25.8L385.5,25.8v0.1V25.8z M384.7,25L384.7,25
		c0,0,0,0.1,0,0.2V25z M381.1,35.9l0.5-1.9l2.3-7.1c0.1-0.5,0.3-1.2,0.6-1.6c-0.7,2.6-1.7,5.2-2.5,7.7
		C381.9,34,381.6,35.1,381.1,35.9z M382.2,36.9c0-0.1,0-0.1,0-0.2C382.2,36.7,382.3,36.8,382.2,36.9L382.2,36.9z M382.3,36.5
		c0.2-1.1,0.4-2.2,0.7-3.3l2.4-7l0.1-0.1c-0.3,2-1.3,4-1.9,5.9C383.1,33.4,382.8,34.9,382.3,36.5L382.3,36.5z M385.4,28L385.4,28
		L385.4,28L385.4,28z M384.6,30.1L384.6,30.1L384.6,30.1L384.6,30.1z M384,32L384,32L384,32L384,32z M383.9,32.3L383.9,32.3
		L383.9,32.3L383.9,32.3z M383.8,32.7L383.8,32.7L383.8,32.7L383.8,32.7z M383.3,34.4L383.3,34.4L383.3,34.4L383.3,34.4z
		 M383.9,37.1C383.9,37,383.9,37,383.9,37.1L383.9,37.1L383.9,37.1z M384,36.6L384,36.6L384,36.6L384,36.6L384,36.6z M383.4,36.8
		c-0.1,0.7-0.2,1.4-0.3,2c0-0.3,0-0.6,0-0.9c0-1,0.2-2,0.5-3c1-3.3,2.1-6.7,3.3-9.9h0.1c-0.1,1.6-0.8,3.1-1.3,4.5
		C384.7,31.9,383.9,34.3,383.4,36.8z M384.4,35.4L384.4,35.4l0-0.1h0V35.4z M384.5,35L384.5,35l0-0.1h0V35z M384.6,34.3L384.6,34.3
		C384.6,34.3,384.6,34.2,384.6,34.3L384.6,34.3z M384.7,33.9L384.7,33.9L384.7,33.9L384.7,33.9z M384.8,33.5L384.8,33.5
		C384.9,33.5,384.9,33.5,384.8,33.5L384.8,33.5z M385,33.3L385,33.3l0-0.1h0V33.3z M385.3,32.2C385.2,32.2,385.2,32.2,385.3,32.2
		L385.3,32.2L385.3,32.2z M385.3,31.9C385.3,31.9,385.3,31.9,385.3,31.9L385.3,31.9z M385.6,31.3L385.6,31.3L385.6,31.3L385.6,31.3z
		 M385.7,31L385.7,31L385.7,31C385.7,31,385.7,31,385.7,31z M385.8,30.7L385.8,30.7L385.8,30.7L385.8,30.7L385.8,30.7z M386.3,29.2
		L386.3,29.2L386.3,29.2L386.3,29.2L386.3,29.2z M386.4,28.9L386.4,28.9L386.4,28.9L386.4,28.9L386.4,28.9z M386.5,28.5L386.5,28.5
		L386.5,28.5L386.5,28.5z"/>
	<path class="st0" d="M394.5,30.3c-1.7,0-2.9,1.3-2.9,3.1c0,1.8,1.2,3.1,2.9,3.1c1.8,0,2.9-1.3,2.9-3.1
		C397.3,31.6,396.2,30.3,394.5,30.3z"/>
	<path class="st0" d="M61.4,21.5c-0.5-0.4-1-0.7-1.7-0.9c-0.7-0.2-1.5-0.3-2.3-0.4c-1.7-0.1-3.2,0-4.3,0.3c-1.2,0.4-2.1,0.9-2.6,1.5
		c-0.5,0.6-0.7,1.4-0.5,2.3c0.2,0.9,0.8,1.8,1.9,2.7c0.1,0.1,0.3,0.2,0.5,0.4c0.2,0.2,0.4,0.3,0.5,0.4c1.1,0.8,2,1.6,2.5,2.5
		c0.5,0.9,0.8,1.8,0.9,2.7c0.1,1,0,1.8-0.3,2.5c-0.3,0.6-0.7,1.1-1.2,1.5c-0.4,0.3-0.9,0.4-1.3,0.5h0v0c-0.1,0-0.2,0.1-0.3,0.1
		c-0.6,0-1.2,0-1.7-0.2c-0.6-0.2-1-0.5-1.5-0.9c-0.4-0.4-0.7-0.9-0.9-1.5c-0.2-0.6-0.2-1.2,0-1.8s0.4-1.1,0.7-1.6
		c0.3-0.5,0.6-0.9,1.1-1.3c0.4-0.4,0.8-0.7,1.2-1c-0.2,0-0.3,0.1-0.5,0.1c-0.1,0-0.3,0.1-0.5,0.2c0.2-0.2,0.3-0.4,0.6-0.6
		s0.4-0.3,0.7-0.3c-0.1-0.1-0.3-0.2-0.5-0.2c-0.2,0-0.3,0.1-0.4,0.1c0.1-0.1,0.3-0.2,0.5-0.3c0.2,0,0.4,0,0.6,0.1
		c-0.1-0.3-0.4-0.6-0.8-1.1c-0.4-0.4-0.7-0.7-0.9-0.9c-0.2-0.1-0.4-0.1-0.6-0.1c-0.3,0-0.5,0.1-0.8,0.4c-1.1,1-1.9,2.2-2.4,3.4
		c-0.5,1.2-0.7,2.5-0.7,3.6c0,1.2,0.4,2.3,1,3.2c0.6,1,1.4,1.7,2.5,2.2c1.1,0.5,2.3,0.7,3.5,0.8c1.2,0,2.2-0.2,3.1-0.5
		c0.9-0.3,2-0.8,2.8-1.8c1.8-2.4,1.6-5,1.6-5c-0.1-1-0.4-2.1-1.1-3.2c-0.7-1.1-1.7-2.1-3-3.1c-0.1-0.1-0.3-0.2-0.6-0.4
		c-0.3-0.2-0.5-0.4-0.6-0.4c-0.4-0.3-0.6-0.5-0.7-0.7c-0.1-0.2,0-0.4,0.1-0.5c0.1-0.1,0.4-0.2,0.7-0.2c0.3,0,0.7,0,1.1,0.2
		c0.2,0.1,0.4,0.2,0.7,0.3c0.2,0.1,0.5,0.3,0.7,0.5c0.2,0.2,0.3,0.4,0.4,0.6s0.1,0.5-0.1,0.8c0.2-0.1,0.3-0.3,0.3-0.5
		c0-0.2,0-0.4-0.2-0.6c0.3,0.4,0.4,0.7,0.3,1c-0.1,0.3-0.4,0.4-1,0.5c0.6,0.2,1.1,0.3,1.7,0.3c0.5,0,1-0.2,1.4-0.4
		c0.4-0.2,0.7-0.5,1-0.9c0.2-0.4,0.4-0.8,0.5-1.3c0.1,0.4,0.1,0.7,0,1.1c0.3-0.9,0.4-1.7,0.2-2.3C62.1,22.4,61.8,21.9,61.4,21.5z
		 M57.8,32.5c0,0.2,0.1,0.5,0.1,0.9c0,0.4,0,0.9,0,1.4c0,0.5-0.2,1-0.3,1.4c-0.2,0.4-0.4,0.7-0.8,0.9c0.3-0.2,0.5-0.5,0.7-0.9
		c0.2-0.4,0.3-0.8,0.3-1.2c0.1-0.4,0.1-0.9,0.1-1.3C57.8,33.2,57.8,32.8,57.8,32.5z M56.8,30c0.2,0.2,0.3,0.5,0.4,0.9
		c0.1,0.3,0.2,0.7,0.3,1.1c0.1,0.4,0.1,0.7,0,1.1c0-0.3,0-0.6-0.1-0.9c-0.1-0.4-0.2-0.7-0.3-1.1C57.1,30.7,56.9,30.4,56.8,30
		c-0.2-0.2-0.3-0.4-0.5-0.5C56.5,29.6,56.6,29.8,56.8,30z M54.7,28.4c0.5,0.4,0.9,1,1.3,1.6c0.4,0.7,0.7,1.4,0.9,2.2
		c0.2,0.8,0.1,1.7-0.2,2.6c0.2-1.1,0.2-2.1,0-3c-0.3-0.9-0.6-1.6-1-2.3c-0.4-0.6-0.9-1.1-1.3-1.4c-0.4-0.3-0.7-0.5-0.7-0.5
		C53.9,27.7,54.2,28,54.7,28.4z M58.4,24.6c-0.4-0.3-0.8-0.5-1.3-0.7c-0.5-0.2-0.9-0.3-1.3-0.3c-0.4-0.1-0.7-0.1-0.9-0.1
		c1.2,0,2.2,0.2,3,0.7c0.8,0.5,1.2,1.1,1.1,1.7C59.1,25.3,58.8,24.9,58.4,24.6z M57,23.3c0.6,0.1,1.1,0.2,1.5,0.4
		c0.4,0.2,0.6,0.4,0.5,0.6c-0.2-0.3-0.6-0.5-1-0.7C57.7,23.5,57.3,23.4,57,23.3z M58.8,23.5c-0.4-0.2-1-0.4-2-0.5
		c0.2,0,0.4,0,0.7,0.1c0.3,0,0.6,0.1,0.8,0.2c0.3,0.1,0.5,0.2,0.7,0.3c0.2,0.1,0.3,0.3,0.3,0.4C59.3,23.9,59.1,23.7,58.8,23.5z"/>
	<path class="st0" d="M52.1,28.6C52.1,28.6,52,28.6,52.1,28.6C52,28.6,52,28.7,52.1,28.6C52,28.7,52.1,28.7,52.1,28.6
		C52.1,28.6,52.1,28.6,52.1,28.6z"/>
	<path class="st0" d="M52.1,29C52.2,29,52.2,29,52.1,29c0.1-0.1,0.1-0.2,0-0.2c-0.1,0-0.1,0-0.1,0.1C52,28.9,52,29,52.1,29z"/>
	<path class="st0" d="M52.5,28.5c-0.1,0-0.3,0.1-0.4,0.2c0.1,0.1,0.2,0.1,0.4,0.1c0.2,0,0.3,0,0.2-0.2
		C52.7,28.5,52.6,28.4,52.5,28.5z"/>
	<path class="st0" d="M155.8,27.5C155.8,27.5,155.7,27.5,155.8,27.5C155.7,27.6,155.7,27.6,155.8,27.5
		C155.7,27.6,155.8,27.6,155.8,27.5C155.8,27.5,155.8,27.5,155.8,27.5z"/>
	<path class="st0" d="M156.3,27.6c0-0.1-0.1-0.2-0.2-0.2c-0.1,0-0.2,0.1-0.3,0.2c0.1,0.1,0.2,0.1,0.3,0.1
		C156.3,27.8,156.4,27.7,156.3,27.6z"/>
	<path class="st0" d="M155.8,27.9C155.8,27.9,155.9,27.9,155.8,27.9c0.1-0.1,0.1-0.1,0-0.2c-0.1,0-0.1,0-0.1,0.1
		C155.7,27.8,155.7,27.8,155.8,27.9z"/>
</g>
</svg>
