<?xml version="1.0" encoding="utf-8"?>
<!-- Generator: Adobe Illustrator 22.1.0, SVG Export Plug-In . SVG Version: 6.00 Build 0)  -->
<svg version="1.1" id="Layer_1" xmlns="http://www.w3.org/2000/svg" xmlns:xlink="http://www.w3.org/1999/xlink" x="0px" y="0px"
	 viewBox="0 0 100 36.875" style="enable-background:new 0 0 100 36.875;" xml:space="preserve">
<style type="text/css">
	.st0{fill:#FFFFFF;}
	.st1{fill:#00B4E4;}
</style>
<g>
	<path class="st0" d="M11.938,23.402c-0.556,0-1.009,0.452-1.009,1.009c0,0.556,0.452,1.009,1.009,1.009
		c0.556,0,1.009-0.452,1.009-1.009C12.947,23.855,12.494,23.402,11.938,23.402z M11.938,25.015c-0.334,0-0.604-0.27-0.604-0.604
		s0.27-0.604,0.604-0.604s0.604,0.27,0.604,0.604S12.271,25.015,11.938,25.015z"/>
	<path class="st0" d="M5.581,23.402c-0.556,0-1.009,0.452-1.009,1.009c0,0.556,0.452,1.009,1.009,1.009
		c0.556,0,1.009-0.452,1.009-1.009C6.59,23.855,6.138,23.402,5.581,23.402z M5.581,25.015c-0.334,0-0.604-0.27-0.604-0.604
		s0.27-0.604,0.604-0.604s0.604,0.27,0.604,0.604C6.186,24.745,5.915,25.015,5.581,25.015z"/>
	<path class="st0" d="M16.167,20.051c-0.158-0.184-1.891-0.788-1.891-0.788s-0.016,0.76-0.053,1.103
		c-0.056,0.524-0.362,1.176-1.255,1.78c-0.893,0.604-4.15,0.552-4.15,0.552s-3.257,0.052-4.15-0.552s-1.166-0.965-1.372-1.78
		c-0.053-0.341-0.053-1.103-0.053-1.103s-1.733,0.604-1.891,0.788c-0.157,0.184-0.289,1.602-0.289,4.281s0.368,3.73,0.657,3.835
		s1.895,0.525,2.994,0.63c1.917,0.184,2.758,0.788,2.758,0.788s0.709,0,1.287,0s1.287,0,1.287,0s0.84-0.604,2.758-0.788
		c1.1-0.105,2.705-0.525,2.994-0.63s0.657-1.156,0.657-3.835C16.456,21.653,16.324,20.235,16.167,20.051z M5.581,25.525
		c-0.614,0-1.114-0.5-1.114-1.114s0.5-1.114,1.114-1.114s1.114,0.5,1.114,1.114C6.695,25.025,6.196,25.525,5.581,25.525z
		 M8.654,28.22c-0.334,0-0.604-0.27-0.604-0.604s0.27-0.604,0.604-0.604s0.604,0.27,0.604,0.604
		C9.259,27.95,8.988,28.22,8.654,28.22z M11.938,25.525c-0.614,0-1.114-0.5-1.114-1.114s0.5-1.114,1.114-1.114
		s1.114,0.5,1.114,1.114S12.552,25.525,11.938,25.525z"/>
	<path class="st0" d="M8.547,22.325l0.213-0.002l0.213,0.002c1.031,0.013,4.17,0.053,4.827-1.487
		c0.238-0.558,0.206-1.426,0.192-1.665c-0.215-0.205-1.21-1.101-2.735-1.657c-0.244,0.305-0.816,0.991-1.127,1.138
		c-0.382,0.181-1.329,0.193-1.369,0.193c-0.042,0-0.989-0.012-1.371-0.193c-0.311-0.147-0.884-0.834-1.128-1.138
		c-1.527,0.555-2.521,1.451-2.735,1.657c-0.014,0.238-0.046,1.107,0.193,1.665C4.378,22.378,7.517,22.337,8.547,22.325z"/>
	<path class="st0" d="M7.487,18.447c0.28,0.132,1.014,0.168,1.274,0.171c0.257-0.003,0.992-0.039,1.271-0.171
		c0.228-0.108,0.703-0.653,0.992-1.008c-0.669-0.22-1.428-0.372-2.265-0.372s-1.596,0.151-2.265,0.371
		C6.784,17.793,7.26,18.339,7.487,18.447z"/>
</g>
<g>
	<path class="st0" d="M29.86,15.158h-2.911c-0.167,0-0.302,0.135-0.302,0.301v8.347l-3.435-8.459
		c-0.047-0.114-0.158-0.188-0.28-0.188h-2.76c-0.167,0-0.301,0.135-0.301,0.301v18.573c0,0.166,0.134,0.301,0.301,0.301h2.911
		c0.167,0,0.302-0.135,0.302-0.301v-8.348l3.435,8.459c0.047,0.114,0.158,0.188,0.28,0.188h2.76c0.167,0,0.302-0.135,0.302-0.301
		V15.46C30.161,15.294,30.027,15.158,29.86,15.158z"/>
	<path class="st0" d="M37.19,15.158h-3.113c-0.146,0-0.271,0.105-0.297,0.248l-3.313,18.573c-0.017,0.088,0.009,0.177,0.066,0.246
		s0.141,0.108,0.23,0.108h2.913c0.144,0,0.269-0.101,0.297-0.243l1.661-8.397l1.661,8.397c0.028,0.141,0.153,0.243,0.297,0.243
		h2.911c0.09,0,0.174-0.04,0.23-0.108c0.057-0.068,0.083-0.158,0.066-0.246l-3.312-18.572C37.461,15.263,37.336,15.158,37.19,15.158
		z"/>
	<path class="st0" d="M48.207,15.196h-2.01c-2.88,0-4.97,2.291-4.97,5.446v8.283c0,3.155,2.09,5.446,4.97,5.446h2.01
		c2.88,0,4.97-2.291,4.97-5.446v-8.282C53.177,17.487,51.087,15.196,48.207,15.196z M49.635,28.674c0,1.162-0.946,2.109-2.109,2.109
		H46.88c-1.162,0-2.109-0.946-2.109-2.109v-7.782c0-1.162,0.946-2.109,2.109-2.109h0.647c1.162,0,2.109,0.946,2.109,2.109v7.782
		H49.635z"/>
</g>
<g>
	<path class="st1" d="M60.407,20.241h-2.511v3.603H57.16v-8.643h2.808c0.922,0,1.642,0.223,2.16,0.67
		c0.519,0.447,0.778,1.071,0.778,1.873c0,0.553-0.162,1.042-0.487,1.465s-0.759,0.716-1.305,0.878l2.16,3.68v0.077h-0.777
		L60.407,20.241z M57.896,19.623h2.238c0.613,0,1.107-0.174,1.478-0.523c0.372-0.349,0.558-0.801,0.558-1.356
		c0-0.61-0.194-1.084-0.581-1.421c-0.388-0.337-0.932-0.505-1.633-0.505h-2.06C57.896,15.818,57.896,19.623,57.896,19.623z"/>
	<path class="st1" d="M69.364,19.701h-4.042v3.526h4.648v0.617h-5.378v-8.643h5.348v0.617h-4.618v3.265h4.042
		C69.364,19.083,69.364,19.701,69.364,19.701z"/>
	<path class="st1" d="M77.566,19.992c0,0.823-0.146,1.54-0.436,2.152c-0.291,0.612-0.705,1.074-1.244,1.386l1.573,1.371
		l-0.505,0.451l-1.763-1.525c-0.324,0.091-0.655,0.137-0.991,0.137c-0.657,0-1.242-0.162-1.755-0.487
		c-0.512-0.324-0.909-0.785-1.19-1.38c-0.281-0.596-0.423-1.283-0.427-2.063v-0.969c0-0.788,0.139-1.485,0.418-2.092
		c0.28-0.608,0.674-1.075,1.184-1.401c0.51-0.326,1.097-0.49,1.757-0.49c0.673,0,1.265,0.162,1.775,0.487
		c0.51,0.325,0.905,0.79,1.184,1.395c0.279,0.605,0.418,1.304,0.418,2.096v0.932H77.566z M76.836,19.053
		c0-1.041-0.236-1.856-0.706-2.446c-0.472-0.589-1.118-0.884-1.942-0.884c-0.8,0-1.438,0.296-1.914,0.888
		c-0.477,0.591-0.715,1.418-0.715,2.478v0.903c0,1.025,0.237,1.837,0.709,2.437c0.473,0.6,1.117,0.899,1.933,0.899
		c0.823,0,1.467-0.295,1.935-0.884c0.467-0.59,0.7-1.413,0.7-2.469C76.836,19.975,76.836,19.053,76.836,19.053z"/>
	<path class="st1" d="M83.899,19.701h-4.042v3.526h4.648v0.617h-5.378v-8.643h5.348v0.617h-4.618v3.265h4.042
		C83.899,19.083,83.899,19.701,83.899,19.701z"/>
	<path class="st1" d="M90.629,21.719c0-0.479-0.168-0.858-0.504-1.137c-0.337-0.279-0.952-0.544-1.847-0.795
		c-0.894-0.251-1.547-0.526-1.958-0.822c-0.586-0.419-0.879-0.97-0.879-1.65c0-0.661,0.272-1.198,0.816-1.611
		c0.545-0.413,1.24-0.62,2.087-0.62c0.574,0,1.088,0.111,1.54,0.332c0.454,0.222,0.805,0.531,1.054,0.926
		c0.25,0.396,0.374,0.837,0.374,1.324h-0.736c0-0.591-0.202-1.067-0.606-1.426c-0.403-0.359-0.945-0.539-1.626-0.539
		c-0.66,0-1.187,0.148-1.579,0.443c-0.391,0.295-0.588,0.681-0.588,1.156c0,0.44,0.176,0.799,0.529,1.076
		c0.352,0.278,0.916,0.522,1.692,0.734c0.776,0.212,1.363,0.432,1.763,0.66c0.4,0.228,0.7,0.5,0.902,0.816
		c0.202,0.317,0.303,0.691,0.303,1.122c0,0.681-0.272,1.227-0.816,1.638c-0.545,0.412-1.261,0.617-2.152,0.617
		c-0.61,0-1.169-0.109-1.677-0.327c-0.509-0.218-0.895-0.522-1.158-0.914c-0.263-0.392-0.395-0.841-0.395-1.347h0.73
		c0,0.61,0.228,1.09,0.683,1.442c0.455,0.353,1.06,0.528,1.817,0.528c0.673,0,1.213-0.149,1.621-0.445
		C90.425,22.603,90.629,22.21,90.629,21.719z"/>
	<path class="st1" d="M98.5,15.818h-2.962v8.026h-0.73v-8.026h-2.956v-0.617H98.5V15.818z"/>
</g>
<g>
	<path class="st1" d="M61.921,30.199H57.89v4.042h-0.73v-8.643h5.354v0.617H57.89v3.366h4.031
		C61.921,29.581,61.921,30.199,61.921,30.199z"/>
	<path class="st1" d="M70.082,30.389c0,0.795-0.137,1.494-0.413,2.095c-0.275,0.602-0.667,1.065-1.178,1.389
		c-0.511,0.324-1.101,0.487-1.77,0.487c-1.009,0-1.824-0.361-2.445-1.083c-0.622-0.722-0.932-1.697-0.932-2.923v-0.891
		c0-0.788,0.139-1.485,0.418-2.092c0.279-0.608,0.674-1.075,1.184-1.401s1.098-0.49,1.763-0.49s1.251,0.16,1.76,0.481
		c0.508,0.32,0.901,0.773,1.178,1.359c0.277,0.586,0.422,1.264,0.434,2.036L70.082,30.389L70.082,30.389z M69.352,29.451
		c0-1.041-0.236-1.856-0.707-2.446c-0.471-0.589-1.116-0.884-1.935-0.884c-0.804,0-1.443,0.296-1.92,0.888
		c-0.477,0.591-0.715,1.418-0.715,2.478v0.903c0,1.025,0.238,1.837,0.712,2.437c0.475,0.6,1.12,0.899,1.935,0.899
		c0.828,0,1.472-0.296,1.936-0.887c0.463-0.592,0.694-1.416,0.694-2.473V29.451z"/>
	<path class="st1" d="M74.847,30.638h-2.511v3.603H71.6v-8.643h2.808c0.922,0,1.642,0.223,2.16,0.67
		c0.519,0.447,0.778,1.071,0.778,1.873c0,0.553-0.162,1.042-0.487,1.465c-0.324,0.423-0.76,0.716-1.306,0.878l2.16,3.68v0.077
		h-0.777L74.847,30.638z M72.335,30.021h2.238c0.613,0,1.107-0.174,1.478-0.523c0.372-0.349,0.558-0.801,0.558-1.356
		c0-0.61-0.194-1.084-0.581-1.421c-0.388-0.337-0.932-0.505-1.633-0.505h-2.06C72.335,26.216,72.335,30.021,72.335,30.021z"/>
	<path class="st1" d="M79.999,25.598l3.187,7.628l3.2-7.628h0.973v8.643h-0.73v-3.763l0.06-3.859l-3.218,7.622h-0.564l-3.206-7.592
		l0.06,3.805v3.787h-0.73v-8.643H79.999z"/>
</g>
</svg>
