<?xml version="1.0" encoding="utf-8"?>
<!-- Generator: Adobe Illustrator 25.1.0, SVG Export Plug-In . SVG Version: 6.00 Build 0)  -->
<svg version="1.1" id="Layer_1" xmlns="http://www.w3.org/2000/svg" xmlns:xlink="http://www.w3.org/1999/xlink" x="0px" y="0px"
	 viewBox="0 0 50 50" style="enable-background:new 0 0 50 50;" xml:space="preserve">
<style type="text/css">
	.st0{display:none;}
	.st1{display:inline;}
	.st2{fill:#FFFFFF;}
</style>
<g id="_x34_2FiKe_1_" class="st0">
	<g class="st1">
		<path d="M7.229,7.897c0.43,0,0.766,0,1.102,0c7.634,0,15.268,0.009,22.902-0.016c0.704-0.002,1.197,0.202,1.688,0.696
			c1.459,1.467,2.981,2.871,4.444,4.335c0.256,0.256,0.484,0.682,0.485,1.03c0.024,11.095,0.018,22.19,0.013,33.285
			c0,0.129-0.041,0.257-0.073,0.44c-10.188,0-20.345,0-30.56,0C7.229,34.415,7.229,21.229,7.229,7.897z M9.96,10.613
			c0,11.492,0,22.907,0,34.349c8.425,0,16.786,0,25.161,0c0-10.078,0-20.097,0-30.169c-1.161,0-2.247-0.043-3.328,0.014
			c-0.78,0.041-1.106-0.172-1.048-1.012c0.072-1.038,0.017-2.085,0.017-3.183C23.789,10.613,16.917,10.613,9.96,10.613z"/>
		<path d="M43.036,41.57c-1.245,0-2.451,0-3.726,0c0-0.854,0-1.682,0-2.568c0.322-0.054,0.641-0.108,1.002-0.169
			c0-10.032,0-20.025,0-30.124c-1.426,0-2.8,0-4.278,0c0-1.441,0-2.78,0-4.19c-7.036,0-13.967,0-20.962,0
			c-0.027,0.624-0.053,1.218-0.082,1.865c-0.864,0-1.663,0-2.537,0c0-1.497,0-2.97,0-4.592c0.345,0,0.703,0,1.06,0
			c7.635,0,15.27,0.009,22.905-0.015c0.703-0.002,1.204,0.2,1.694,0.695c1.456,1.471,2.977,2.878,4.425,4.355
			c0.293,0.299,0.538,0.8,0.539,1.209c0.029,10.927,0.023,21.853,0.021,32.78C43.095,41.047,43.06,41.277,43.036,41.57z"/>
		<path d="M22.158,40.501c-2.578,0-5.156-0.006-7.735,0.004c-0.754,0.003-1.401-0.151-1.422-1.054
			c-0.022-0.968,0.668-1.143,1.452-1.144c5.19-0.001,10.381,0.002,15.571-0.002c0.76-0.001,1.42,0.212,1.435,1.074
			c0.016,0.924-0.649,1.135-1.465,1.129C27.382,40.489,24.77,40.501,22.158,40.501z"/>
		<path d="M22.503,28.51c2.576,0,5.153,0.005,7.729-0.003c0.772-0.003,1.467,0.086,1.52,1.066c0.042,0.775-0.452,1.132-1.564,1.134
			c-5.119,0.005-10.237-0.001-15.356,0.006c-0.784,0.001-1.458-0.144-1.535-1.082c-0.061-0.75,0.479-1.117,1.578-1.119
			C17.418,28.507,19.96,28.51,22.503,28.51z"/>
		<path d="M22.506,20.949c-2.61,0-5.22-0.014-7.83,0.009c-0.802,0.007-1.374-0.248-1.371-1.106c0.003-0.81,0.599-1.081,1.322-1.082
			c5.288-0.005,10.576-0.008,15.864,0.005c0.719,0.002,1.279,0.289,1.258,1.13c-0.021,0.842-0.568,1.053-1.31,1.049
			C27.794,20.942,25.15,20.949,22.506,20.949z"/>
		<path d="M22.56,26.026c-2.542,0-5.085-0.007-7.627,0.004c-0.801,0.004-1.549-0.062-1.634-1.076
			c-0.063-0.748,0.484-1.124,1.579-1.125c5.119-0.004,10.237,0.001,15.356-0.004c0.772-0.001,1.497,0.102,1.511,1.075
			c0.015,1.043-0.75,1.131-1.557,1.129C27.644,26.022,25.102,26.026,22.56,26.026z"/>
		<path d="M22.508,33.59c2.609,0,5.218,0.01,7.827-0.006c0.756-0.004,1.391,0.115,1.412,1.04c0.02,0.915-0.623,1.129-1.362,1.13
			c-5.218,0.01-10.436,0.007-15.654,0.004c-0.744,0-1.417-0.205-1.423-1.084c-0.007-0.944,0.666-1.101,1.475-1.093
			C17.358,33.606,19.933,33.59,22.508,33.59z"/>
	</g>
</g>
<g>
	<path class="st2" d="M42.917,22.322c-0.586-0.005-0.588,0-0.588,0.572c0,5.842,0,11.685-0.002,17.527
		c0,0.202-0.018,0.403-0.028,0.621c-11.675,0-23.311,0-34.991,0c0-0.195,0-0.357,0-0.518c0-7.203-0.001-14.407,0.002-21.61
		c0-0.829-0.132-0.761,0.777-0.761c7.726-0.001,15.452,0,23.177,0c0.534,0,0.534-0.001,0.534-0.543c0-1.265,0.009-2.53-0.004-3.794
		c-0.005-0.476,0.007-0.931,0.491-1.307c-0.205,0-0.312,0-0.419,0c-8.248,0-16.496,0.001-24.744,0c-1.187,0-1.911,0.693-1.912,1.881
		c-0.005,8.977-0.005,17.954-0.001,26.93c0,1.101,0.741,1.823,1.848,1.823c11.836,0.001,23.672,0.001,35.508-0.001
		c0.163,0,0.332-0.006,0.489-0.045c0.863-0.215,1.369-0.902,1.37-1.863c0.002-6.31,0.001-12.62,0.002-18.93c0-0.144,0-0.288,0-0.549
		C44.003,22.367,43.457,22.327,42.917,22.322z M7.107,15.048c0.124-0.409,0.417-0.635,0.836-0.691
		c0.149-0.02,0.302-0.009,0.453-0.009c2.9,0,5.799,0,8.699,0c2.831,0,5.662,0,8.493,0c0.179,0,0.358-0.003,0.536,0.005
		c0.539,0.024,0.946,0.426,0.954,0.937c0.009,0.516-0.374,0.947-0.897,1.006c-0.095,0.011-0.192,0.009-0.288,0.009
		c-5.896,0-11.791,0.003-17.687-0.01c-0.256-0.001-0.547-0.09-0.761-0.23C7.091,15.835,6.982,15.461,7.107,15.048z"/>
	<path class="st2" d="M33.438,25.619c0.002,1.718-0.001,3.437,0.005,5.155c0.001,0.141,0.009,0.351,0.095,0.409
		c0.32,0.215,0.674,0.38,1.061,0.588c0.01-0.201,0.019-0.309,0.019-0.417c0.001-1.938,0.005-3.877-0.001-5.815
		c-0.006-1.876-1.406-3.288-3.282-3.29c-5.554-0.006-11.108-0.006-16.661,0.001c-1.962,0.003-3.347,1.397-3.352,3.353
		c-0.005,1.966-0.005,3.932,0,5.898c0.004,1.916,1.386,3.308,3.298,3.31c5.32,0.005,10.64,0.002,15.96,0.002c0.145,0,0.29,0,0.497,0
		c-0.066-0.256-0.136-0.435-0.156-0.62c-0.047-0.427-0.232-0.572-0.694-0.571c-5.183,0.021-10.365,0.014-15.548,0.012
		c-1.309-0.001-2.174-0.864-2.175-2.161c-0.001-1.952-0.002-3.904,0-5.856c0.001-1.313,0.88-2.187,2.201-2.187
		c5.513-0.001,11.025-0.001,16.538,0C32.573,23.431,33.436,24.294,33.438,25.619z"/>
	<path class="st2" d="M41.825,13.842c-1.923-0.004-3.845-0.005-5.768,0c-0.71,0.002-1.055,0.354-1.057,1.071
		c-0.004,1.181-0.004,2.362,0,3.543c0.002,0.712,0.318,1.031,1.027,1.034c0.975,0.005,1.95,0.001,2.925,0.001
		c0.975,0,1.95,0.004,2.925-0.002c0.716-0.004,1.047-0.335,1.053-1.064c0.008-1.167,0.01-2.335,0.001-3.502
		C42.925,14.202,42.553,13.843,41.825,13.842z M39.868,16.584c-0.38,0.343-0.328,0.771-0.332,1.204
		c-0.005,0.49-0.356,0.753-0.79,0.563c-0.166-0.073-0.363-0.303-0.371-0.469c-0.024-0.522-0.064-0.996-0.402-1.451
		c-0.252-0.339-0.088-0.843,0.231-1.16c0.316-0.315,0.771-0.403,1.172-0.226c0.406,0.179,0.658,0.565,0.654,1.122
		C40.004,16.241,39.991,16.473,39.868,16.584z"/>
	<path class="st2" d="M34.981,10.418c-0.011,1.161-0.002,1.152,1.143,1.139c0.284-0.003,0.389-0.086,0.383-0.377
		c-0.014-0.673-0.009-1.346,0.005-2.019c0.024-1.185,0.948-2.196,2.103-2.319c1.299-0.138,2.465,0.605,2.71,1.807
		c0.116,0.57,0.095,1.172,0.101,1.759c0.013,1.209,0.004,1.203,1.211,1.146c0.229-0.011,0.32-0.082,0.312-0.313
		c-0.012-0.384-0.003-0.769-0.003-1.153c-0.001,0-0.002,0-0.003,0c0-0.275,0.003-0.549,0-0.824c-0.021-2.007-1.528-3.743-3.41-3.93
		c-2.246-0.223-4.06,1.032-4.468,3.155C34.946,9.116,34.987,9.774,34.981,10.418z"/>
	<path class="st2" d="M34.165,36.108c0.982,1.27,1.926,2.49,2.896,3.746c0.426-0.332,0.818-0.637,1.209-0.941
		c-0.982-1.284-1.919-2.508-2.882-3.766c0.593-0.275,1.11-0.515,1.699-0.788c-1.92-1.032-3.778-2.03-5.722-3.073
		c0.56,2.152,1.091,4.191,1.639,6.3C33.408,37.072,33.767,36.615,34.165,36.108z"/>
	<path class="st2" d="M34.559,20.874c2.913,0.002,5.827,0.003,8.74,0.001c0.902-0.001,1.265-0.471,1.077-1.41
		c-0.346-0.071-0.639-0.09-0.834,0.33c-0.153,0.33-0.488,0.472-0.858,0.472c-2.487,0.001-4.975,0.004-7.462-0.003
		c-0.568-0.002-0.983-0.389-1.029-0.968c-0.033-0.409-0.007-0.822-0.007-1.234c0.001-1.332-0.01-2.665,0.009-3.997
		c0.008-0.535,0.426-0.951,0.946-0.953c2.529-0.01,5.057-0.019,7.586,0.016c0.278,0.004,0.666,0.219,0.804,0.453
		c0.23,0.388,0.49,0.403,0.866,0.33c0.121-1.051-0.195-1.412-1.201-1.412c-2.886,0-5.772-0.001-8.658,0
		c-0.713,0-1.04,0.319-1.041,1.02c-0.002,2.103-0.002,4.205,0.001,6.308C33.501,20.56,33.819,20.873,34.559,20.874z"/>
	<path class="st2" d="M20.805,31.698c1.016-0.015,0.825,0.128,1.12-0.802c0.097-0.305,0.259-0.461,0.591-0.447
		c0.384,0.016,0.769,0.007,1.154,0.004c0.251-0.002,0.396,0.104,0.484,0.352c0.32,0.896,0.327,0.894,1.267,0.893
		c0.069,0,0.137,0.001,0.206,0c0.428-0.009,0.462-0.057,0.313-0.455c-0.62-1.658-1.239-3.315-1.862-4.972
		c-0.343-0.911-0.347-0.895-1.314-0.907c-0.32-0.004-0.456,0.119-0.558,0.405c-0.388,1.085-0.802,2.16-1.203,3.24
		c-0.318,0.857-0.632,1.716-0.99,2.69C20.347,31.699,20.576,31.702,20.805,31.698z M22.574,28.801
		c0.035-0.281,0.122-0.559,0.223-0.825c0.033-0.089,0.176-0.178,0.275-0.186c0.077-0.007,0.207,0.095,0.239,0.178
		c0.103,0.265,0.171,0.544,0.226,0.727c0.026,0.428-0.174,0.53-0.456,0.53C22.799,29.225,22.529,29.163,22.574,28.801z"/>
	<path class="st2" d="M17.287,29.566c0.329,0.003,0.661,0.002,0.987-0.037c0.591-0.07,1.119-0.292,1.475-0.795
		c0.491-0.692,0.494-1.45,0.158-2.189c-0.36-0.791-1.069-1.122-1.897-1.161c-0.808-0.038-1.619,0-2.429-0.019
		c-0.321-0.008-0.393,0.126-0.388,0.417c0.014,0.919,0.005,1.839,0.005,2.759c0,0-0.001,0-0.001,0c0,0.686,0,1.373,0,2.059
		c0,1.138,0,1.126,1.145,1.105c0.317-0.006,0.403-0.127,0.39-0.419c-0.017-0.384,0.013-0.769-0.006-1.153
		C16.704,29.721,16.895,29.563,17.287,29.566z M16.742,27.457c0.029-0.311-0.149-0.731,0.39-0.794
		c0.799-0.094,1.29,0.132,1.415,0.658c0.101,0.427-0.119,0.837-0.543,0.907c-0.32,0.053-0.657,0.048-0.982,0.016
		c-0.102-0.01-0.232-0.177-0.269-0.298C16.707,27.797,16.742,27.622,16.742,27.457z"/>
	<path class="st2" d="M31.211,25.803c0.181-0.357,0.136-0.424-0.27-0.431c-0.275-0.005-0.551,0.017-0.824-0.006
		c-0.29-0.024-0.454,0.085-0.568,0.353c-0.22,0.517-0.461,1.026-0.714,1.528c-0.052,0.103-0.19,0.212-0.298,0.222
		c-0.079,0.007-0.202-0.126-0.254-0.224c-0.148-0.278-0.32-0.558-0.393-0.858c-0.214-0.884-0.761-1.149-1.621-1.027
		c-0.489,0.069-0.538,0.082-0.308,0.534c0.43,0.843,0.854,1.69,1.303,2.523c0.35,0.648,0.691,1.288,0.53,2.063
		c0,0.151-0.001,0.302,0,0.453c0.004,0.842-0.068,0.767,0.786,0.765c0.91-0.002,0.791,0.034,0.74-0.74
		c-0.068-1.022,0.14-1.938,0.674-2.818C30.452,27.391,30.815,26.586,31.211,25.803z"/>
	<path class="st2" d="M44.099,15.209c-0.341-0.002-0.39,0.166-0.354,0.437c-0.04,0.266,0.004,0.438,0.347,0.435
		c0.316-0.003,0.358-0.155,0.344-0.409C44.423,15.44,44.468,15.211,44.099,15.209z"/>
	<path class="st2" d="M44.408,17.335c-0.723-0.084-0.764-0.029-0.617,0.789c0.191,0,0.387,0,0.642,0
		c0-0.165,0.003-0.287-0.001-0.408C44.427,17.586,44.416,17.457,44.408,17.335z"/>
</g>
</svg>
