<?xml version="1.0" encoding="utf-8"?>
<!-- Generator: Adobe Illustrator 23.0.3, SVG Export Plug-In . SVG Version: 6.00 Build 0)  -->
<svg version="1.1" id="Layer_1" xmlns="http://www.w3.org/2000/svg" xmlns:xlink="http://www.w3.org/1999/xlink" x="0px" y="0px"
	 viewBox="0 0 275 125" style="enable-background:new 0 0 275 125;" xml:space="preserve">
<style type="text/css">
	.st0{fill:#FFFFFF;}
</style>
<g>
	<polygon class="st0" points="79.083,36.113 78.966,28.654 85.252,43.541 86.358,43.541 92.666,28.598 92.549,36.162 92.549,43.54 
		93.98,43.54 93.98,26.595 92.072,26.595 85.798,41.55 79.548,26.595 77.651,26.593 77.651,43.538 79.083,43.538 	"/>
	<path class="st0" d="M99.325,42.981c0.865,0.527,1.833,0.79,2.904,0.79c1.947,0,3.433-0.741,4.458-2.222l-0.874-0.663
		c-0.466,0.598-0.983,1.032-1.554,1.303c-0.569,0.271-1.228,0.407-1.972,0.407c-1.242,0-2.272-0.476-3.091-1.426
		c-0.819-0.95-1.228-2.139-1.228-3.567v-0.268h8.985v-0.78c0-1.807-0.447-3.233-1.343-4.276c-0.896-1.044-2.108-1.565-3.637-1.565
		c-0.977,0-1.885,0.276-2.723,0.831s-1.491,1.317-1.961,2.287c-0.47,0.97-0.704,2.059-0.704,3.27v0.501
		c0,1.171,0.24,2.229,0.721,3.171C97.786,41.719,98.459,42.453,99.325,42.981z M99.326,33.054c0.717-0.769,1.6-1.153,2.647-1.153
		c1.055,0,1.908,0.379,2.56,1.14c0.652,0.761,0.997,1.746,1.036,2.957v0.151h-7.553C98.171,34.854,98.608,33.822,99.326,33.054z"/>
	<path class="st0" d="M111.042,42.981c0.865,0.527,1.833,0.79,2.904,0.79c1.947,0,3.433-0.741,4.458-2.222l-0.874-0.663
		c-0.466,0.598-0.983,1.032-1.554,1.303c-0.569,0.271-1.228,0.407-1.972,0.407c-1.242,0-2.272-0.476-3.091-1.426
		c-0.819-0.95-1.228-2.139-1.228-3.567v-0.268h8.985v-0.78c0-1.807-0.447-3.233-1.343-4.276c-0.896-1.044-2.108-1.565-3.637-1.565
		c-0.977,0-1.885,0.276-2.723,0.831s-1.491,1.317-1.961,2.287c-0.47,0.97-0.704,2.059-0.704,3.27v0.501
		c0,1.171,0.24,2.229,0.721,3.171C109.503,41.719,110.176,42.453,111.042,42.981z M111.043,33.054
		c0.717-0.769,1.6-1.153,2.647-1.153c1.055,0,1.909,0.379,2.56,1.14c0.652,0.761,0.997,1.746,1.036,2.957v0.151h-7.553
		C109.888,34.854,110.325,33.822,111.043,33.054z"/>
	<path class="st0" d="M125.777,43.574l-0.058-1.131c-0.519,0.079-0.895,0.117-1.128,0.117c-0.589,0-1.01-0.169-1.262-0.512
		c-0.252-0.342-0.378-0.862-0.378-1.561v-8.4h2.607v-1.141h-2.607v-3.223h-0.002v-0.002h-1.397v3.223h-2.316v1.141h2.316v8.403
		c0,1.079,0.218,1.894,0.652,2.45c0.434,0.555,1.128,0.832,2.083,0.832C124.916,43.77,125.412,43.704,125.777,43.574z"/>
	<path class="st0" d="M133.847,42.008c1.044,1.175,2.4,1.763,4.068,1.763c1.094,0,2.067-0.263,2.921-0.79
		c0.854-0.528,1.515-1.278,1.985-2.252c0.468-0.974,0.704-2.07,0.704-3.288v-0.29c0-1.939-0.52-3.499-1.56-4.673
		c-1.04-1.175-2.397-1.763-4.073-1.763c-1.087,0-2.058,0.269-2.916,0.808c-0.858,0.539-1.521,1.293-1.991,2.263
		c-0.47,0.97-0.704,2.059-0.704,3.27l0.001,0.279C132.282,39.275,132.803,40.834,133.847,42.008z M133.678,37.184
		c0-1.575,0.391-2.85,1.175-3.823s1.796-1.46,3.038-1.46c0.83,0,1.567,0.218,2.212,0.657c0.643,0.438,1.144,1.058,1.501,1.856
		c0.357,0.8,0.535,1.68,0.535,2.642v0.268c0,1.583-0.39,2.857-1.17,3.823c-0.78,0.966-1.798,1.45-3.055,1.45
		c-1.264,0-2.286-0.484-3.066-1.45s-1.17-2.202-1.17-3.707L133.678,37.184L133.678,37.184z"/>
	<path class="st0" d="M149.887,43.771c1.839,0,3.177-0.609,4.015-1.827l0.023,1.596h1.35V30.948h-1.396v9.111
		c-0.535,1.668-1.812,2.502-3.829,2.502c-1.94,0-2.91-1.198-2.91-3.596v-8.018h-1.385v8.193c0.016,1.529,0.372,2.682,1.071,3.462
		C147.525,43.381,148.545,43.771,149.887,43.771z"/>
	<path class="st0" d="M159.684,34.893c0.256-0.924,0.685-1.628,1.286-2.113c0.602-0.484,1.337-0.728,2.206-0.728
		c0.333,0,0.647,0.027,0.942,0.081l0.035-1.268c-0.225-0.101-0.531-0.151-0.919-0.151c-1.629,0-2.812,0.744-3.549,2.234
		l-0.024-2.001h-1.362v12.592h1.385L159.684,34.893L159.684,34.893z"/>
	<polygon class="st0" points="176.474,43.538 176.474,27.804 182.281,27.804 182.281,26.593 169.247,26.593 169.247,27.804 
		175.043,27.804 175.043,43.538 	"/>
	<path class="st0" d="M191.403,40.886c-0.466,0.598-0.983,1.032-1.554,1.303c-0.569,0.271-1.228,0.407-1.972,0.407
		c-1.242,0-2.272-0.476-3.091-1.426c-0.819-0.95-1.228-2.139-1.228-3.567v-0.268h8.985v-0.78c0-1.807-0.447-3.233-1.343-4.276
		c-0.896-1.044-2.108-1.565-3.637-1.565c-0.977,0-1.885,0.276-2.723,0.831c-0.838,0.555-1.491,1.317-1.961,2.287
		c-0.47,0.97-0.704,2.059-0.704,3.27v0.501c0,1.171,0.24,2.229,0.721,3.171c0.48,0.945,1.153,1.679,2.019,2.207
		c0.865,0.527,1.833,0.79,2.904,0.79c1.947,0,3.432-0.741,4.458-2.222L191.403,40.886z M184.915,33.054
		c0.717-0.769,1.6-1.153,2.647-1.153c1.056,0,1.909,0.379,2.56,1.14c0.652,0.761,0.997,1.746,1.036,2.957v0.151h-7.553
		C183.76,34.854,184.197,33.822,184.915,33.054z"/>
	<path class="st0" d="M199.803,36.219c-1.823,0-3.245,0.356-4.265,1.071c-1.02,0.714-1.53,1.684-1.53,2.91
		c0,1.031,0.374,1.884,1.123,2.56c0.747,0.675,1.727,1.012,2.938,1.012c0.846,0,1.646-0.172,2.403-0.517
		c0.757-0.346,1.379-0.836,1.868-1.473c0.039,0.776,0.129,1.361,0.268,1.757l1.491-0.001v-0.139
		c-0.256-0.606-0.384-1.518-0.384-2.736v-5.958c-0.023-1.256-0.44-2.236-1.251-2.938c-0.811-0.701-1.919-1.052-3.323-1.052
		c-1.359,0-2.503,0.366-3.434,1.099c-0.931,0.732-1.396,1.6-1.396,2.6l1.396,0.013c0-0.699,0.318-1.296,0.955-1.793
		c0.636-0.495,1.438-0.744,2.409-0.744c1.063,0,1.871,0.258,2.426,0.774c0.554,0.516,0.832,1.224,0.832,2.124v1.431
		C202.329,36.219,199.803,36.219,199.803,36.219z M202.329,40.059c-0.334,0.753-0.867,1.354-1.601,1.804
		c-0.733,0.451-1.565,0.676-2.496,0.676c-0.838,0-1.519-0.235-2.042-0.7c-0.523-0.465-0.785-1.05-0.785-1.757
		c0-0.861,0.391-1.537,1.175-2.031c0.784-0.492,1.87-0.745,3.259-0.761h2.49V40.059z"/>
	<path class="st0" d="M223.03,43.54h1.396v-8.404c-0.054-2.947-1.432-4.421-4.131-4.421c-0.906,0-1.738,0.21-2.49,0.633
		c-0.752,0.422-1.355,1.026-1.804,1.809c-0.536-1.629-1.795-2.442-3.782-2.442c-0.854,0-1.631,0.189-2.328,0.569
		c-0.699,0.381-1.281,0.952-1.746,1.712l-0.047-2.049h-1.34V43.54h1.397v-8.636c0.302-0.984,0.767-1.728,1.396-2.228
		s1.381-0.75,2.258-0.75c1.041,0,1.809,0.265,2.31,0.797c0.501,0.532,0.755,1.337,0.764,2.414v8.404h1.396v-8.333
		c0.078-0.908,0.461-1.679,1.152-2.311c0.69-0.632,1.537-0.956,2.537-0.972c1.079,0,1.856,0.271,2.334,0.814
		s0.719,1.378,0.728,2.502L223.03,43.54L223.03,43.54z"/>
	<path class="st0" d="M237.423,43.771c1.094,0,2.068-0.263,2.921-0.79c0.853-0.528,1.515-1.278,1.984-2.252
		c0.47-0.974,0.704-2.07,0.704-3.288v-0.29c0-1.939-0.521-3.499-1.56-4.673c-1.04-1.175-2.397-1.763-4.073-1.763
		c-1.087,0-2.058,0.269-2.916,0.808c-0.857,0.539-1.52,1.293-1.989,2.263c-0.47,0.97-0.704,2.059-0.704,3.27v0.279
		c0,1.94,0.521,3.499,1.565,4.673C234.399,43.183,235.755,43.771,237.423,43.771z M233.189,37.184c0-1.575,0.391-2.849,1.175-3.823
		c0.782-0.973,1.795-1.46,3.037-1.46c0.83,0,1.567,0.218,2.211,0.657c0.642,0.438,1.143,1.058,1.5,1.856
		c0.358,0.8,0.536,1.68,0.536,2.642v0.268c0,1.583-0.39,2.857-1.17,3.823c-0.78,0.966-1.797,1.45-3.055,1.45
		c-1.266,0-2.287-0.484-3.068-1.45c-0.779-0.966-1.169-2.202-1.169-3.707L233.189,37.184z"/>
	<path class="st0" d="M246.312,43.539c0,0,1.396,0,1.396,0.001V32.088h3.002v-1.141h-3.002v-1.564c0-0.879,0.214-1.558,0.64-2.036
		c0.428-0.479,1.025-0.718,1.793-0.718c0.457,0,0.879,0.045,1.268,0.139l0.105-1.154c-0.457-0.131-0.951-0.196-1.478-0.196
		c-1.171,0-2.086,0.345-2.741,1.036c-0.655,0.69-0.983,1.681-0.983,2.968v1.524h-2.082v1.141h2.082V43.539z"/>
	<path class="st0" d="M72.322,101.684c-1.134,0.001-2.268,0.002-3.402-0.001c-0.103,0-0.12,0.042-0.118,0.13
		c0.005,0.26,0.011,0.521-0.002,0.78c-0.007,0.148,0.043,0.178,0.182,0.177c0.754-0.007,1.508-0.002,2.262-0.004
		c0.083,0,0.142,0.002,0.121,0.114c-0.09,0.485-0.256,0.93-0.626,1.278c-0.714,0.67-1.572,0.865-2.501,0.673
		c-1.823-0.377-2.782-2.327-2.011-4.026c0.494-1.087,1.626-1.744,2.801-1.643c0.618,0.053,1.16,0.268,1.622,0.678
		c0.076,0.068,0.123,0.064,0.192-0.007c0.188-0.195,0.378-0.388,0.574-0.573c0.082-0.077,0.077-0.12-0.004-0.193
		c-0.541-0.48-1.155-0.805-1.872-0.932c-0.181-0.032-0.369-0.018-0.544-0.086c-0.135,0-0.271,0-0.406,0
		c-0.152,0.071-0.32,0.054-0.48,0.084c-1.758,0.327-3.052,1.676-3.295,3.442c-0.005,0.034,0.009,0.075-0.034,0.096
		c0,0.021,0,0.042,0,0.063c0,0.187,0,0.374,0,0.562c0,0.031,0,0.063,0,0.094c0.049,0.024,0.031,0.073,0.037,0.111
		c0.154,1.063,0.646,1.935,1.489,2.598c0.936,0.736,2.003,0.996,3.179,0.825c1.011-0.147,1.825-0.63,2.403-1.466
		c0.556-0.803,0.676-1.715,0.57-2.669C72.45,101.696,72.4,101.684,72.322,101.684z"/>
	<path class="st0" d="M88.712,101.042c-0.281,0.005-0.562,0.005-0.843,0c-0.095-0.002-0.114,0.038-0.109,0.121
		c0.005,0.094,0.001,0.188,0.001,0.301c-0.043-0.026-0.057-0.033-0.068-0.043c-0.503-0.501-1.113-0.626-1.783-0.479
		c-1.075,0.236-1.902,1.213-1.959,2.29c-0.064,1.197,0.608,2.251,1.695,2.614c0.74,0.247,1.436,0.173,2.027-0.394
		c0.021-0.02,0.035-0.054,0.083-0.037c0,0.173,0.008,0.349-0.001,0.524c-0.044,0.821-0.566,1.33-1.359,1.313
		c-0.563-0.012-0.959-0.303-1.217-0.789c-0.052-0.097-0.092-0.106-0.186-0.064c-0.237,0.106-0.476,0.206-0.719,0.299
		c-0.104,0.04-0.121,0.085-0.071,0.182c0.286,0.551,0.703,0.957,1.28,1.2c0.201,0.085,0.419,0.1,0.621,0.179
		c0.208,0,0.416,0,0.624,0c0.021-0.042,0.063-0.028,0.097-0.033c0.424-0.063,0.816-0.203,1.151-0.478
		c0.589-0.487,0.823-1.149,0.835-1.877c0.025-1.569,0.01-3.14,0.014-4.711C88.825,101.075,88.804,101.041,88.712,101.042z
		 M87.594,104.333c-0.268,0.458-0.696,0.687-1.232,0.631c-0.628-0.066-1.024-0.439-1.222-1.028
		c-0.053-0.158-0.078-0.323-0.071-0.427c0.002-0.528,0.152-0.93,0.493-1.252c0.601-0.566,1.545-0.472,1.993,0.22
		C87.945,103.078,87.955,103.716,87.594,104.333z"/>
	<path class="st0" d="M91.854,101.497c-0.644,0.6-0.875,1.359-0.79,2.219c0.105,1.057,0.816,1.9,1.81,2.168
		c1.035,0.279,2.108-0.086,2.739-0.924c0.064-0.085,0.072-0.126-0.027-0.186c-0.204-0.124-0.407-0.252-0.596-0.398
		c-0.129-0.1-0.189-0.077-0.286,0.047c-0.627,0.789-1.797,0.732-2.301-0.099c-0.061-0.102-0.045-0.136,0.056-0.177
		c0.395-0.158,0.787-0.323,1.18-0.484c0.704-0.289,1.408-0.578,2.112-0.866c0-0.01,0-0.021,0-0.031
		c-0.126-0.184-0.174-0.404-0.279-0.598C94.592,100.539,92.791,100.623,91.854,101.497z M94.344,102.448
		c-0.694,0.284-1.389,0.568-2.081,0.859c-0.164,0.069-0.088-0.059-0.105-0.104c0.036-0.917,0.965-1.565,1.777-1.248
		c0.188,0.073,0.343,0.191,0.45,0.366C94.425,102.386,94.415,102.419,94.344,102.448z"/>
	<path class="st0" d="M75.475,100.89c-1.45,0.005-2.548,1.106-2.545,2.551c0.003,1.432,1.128,2.542,2.567,2.536
		c1.427-0.006,2.544-1.128,2.54-2.551C78.032,101.985,76.922,100.885,75.475,100.89z M76.637,104.359
		c-0.577,0.82-1.741,0.818-2.314-0.006c-0.578-0.831-0.231-2.038,0.683-2.377c0.158-0.059,0.32-0.087,0.489-0.086
		c0.457,0.018,0.835,0.198,1.111,0.567C77.012,102.998,77.023,103.81,76.637,104.359z"/>
	<path class="st0" d="M80.998,100.89c-1.447-0.004-2.562,1.1-2.563,2.537c-0.002,1.424,1.115,2.545,2.541,2.551
		c1.433,0.006,2.563-1.103,2.569-2.52C83.551,101.999,82.454,100.894,80.998,100.89z M81.625,104.814
		c-0.631,0.331-1.368,0.136-1.782-0.447c-0.408-0.574-0.387-1.425,0.067-1.962c0.376-0.444,0.864-0.611,1.428-0.466
		c0.584,0.15,0.919,0.557,1.052,1.137c0.027,0.117,0.038,0.236,0.036,0.357C82.408,104.037,82.176,104.526,81.625,104.814z"/>
	<path class="st0" d="M90.414,98.36c-0.254,0.011-0.51,0.012-0.765,0c-0.139-0.007-0.171,0.033-0.17,0.171
		c0.005,1.722,0.003,3.444,0.003,5.166c0,0.661,0.003,1.321-0.003,1.982c-0.001,0.119,0.033,0.149,0.149,0.146
		c0.265-0.009,0.531-0.01,0.796,0c0.128,0.005,0.153-0.038,0.152-0.156c-0.004-1.187-0.002-2.372-0.002-3.559
		c0-1.196-0.002-2.393,0.003-3.59C90.577,98.387,90.541,98.355,90.414,98.36z"/>
	<path class="st0" d="M142.011,99.092c-0.683-0.193-1.364-0.395-2.047-0.583c-0.096-0.026-0.216-0.019-0.309,0.016
		c-1.356,0.503-2.709,1.012-4.064,1.52c0,1.553,0,3.106,0,4.655c0.043-0.004,0.091,0.001,0.13-0.014
		c0.388-0.15,0.771-0.31,1.161-0.453c0.118-0.043,0.153-0.098,0.153-0.22c-0.004-1.164,0-2.328-0.006-3.492
		c-0.001-0.139,0.042-0.191,0.176-0.222c0.805-0.185,1.607-0.38,2.411-0.57c0.06-0.014,0.121-0.022,0.189-0.034
		c0,1.884,0,3.747,0,5.623c-1.364-0.187-2.712-0.371-4.092-0.56c0.044,0.026,0.059,0.037,0.076,0.043
		c1.304,0.481,2.608,0.963,3.914,1.44c0.069,0.025,0.159,0.027,0.23,0.008c0.694-0.187,1.385-0.382,2.079-0.569
		c0.102-0.027,0.128-0.074,0.128-0.173c-0.003-2.08-0.003-4.161,0-6.241C142.141,99.165,142.109,99.12,142.011,99.092z"/>
	<path class="st0" d="M152.856,100.147c0.106,0.005,0.21,0.033,0.328,0.053c0-0.124,0.007-0.25-0.004-0.374
		c-0.003-0.035-0.052-0.087-0.088-0.095c-0.656-0.14-1.166,0.18-1.301,0.734c-0.057,0.231-0.039,0.481-0.054,0.723
		c-0.003,0.059,0,0.117,0,0.173c-0.452,0-0.879,0-1.331,0c0.012-0.267,0.003-0.526,0.04-0.778c0.043-0.297,0.255-0.449,0.558-0.436
		c0.105,0.004,0.21,0.033,0.328,0.053c0-0.11-0.007-0.222,0.002-0.332c0.008-0.096-0.035-0.131-0.12-0.15
		c-0.664-0.149-1.259,0.279-1.314,0.954c-0.015,0.196-0.014,0.393-0.012,0.589c0.001,0.099-0.037,0.132-0.132,0.129
		c-0.143-0.005-0.286-0.001-0.428-0.001c0,0.158,0,0.291,0,0.444c0.188,0,0.367,0,0.558,0c0,0.075,0,0.131,0,0.186
		c0,0.781,0,1.562,0,2.343c0,0.362,0,0.356,0.369,0.364c0.131,0.003,0.165-0.038,0.164-0.165c-0.004-0.846-0.002-1.693-0.002-2.539
		c0-0.059,0-0.118,0-0.18c0.449,0,0.877,0,1.319,0c0,0.064,0,0.119,0,0.174c0,0.813,0,1.627,0,2.44c0,0.06-0.009,0.123,0.005,0.181
		c0.008,0.032,0.052,0.078,0.081,0.08c0.138,0.009,0.278,0.004,0.442,0.004c0-0.076,0-0.131,0.001-0.186c0-0.842,0-1.683,0-2.525
		c0-0.187,0-0.187,0.193-0.187c0.191,0,0.381,0,0.589,0c0-0.121-0.005-0.223,0.002-0.324c0.006-0.097-0.037-0.12-0.124-0.118
		c-0.183,0.004-0.365,0.006-0.547-0.003c-0.038-0.002-0.106-0.055-0.106-0.084c-0.003-0.229-0.009-0.46,0.018-0.686
		C152.327,100.301,152.544,100.132,152.856,100.147z"/>
	<path class="st0" d="M146.524,99.969c-0.916,0.105-1.554,0.578-1.854,1.462c-0.184,0.543-0.206,1.101-0.085,1.66
		c0.099,0.453,0.297,0.859,0.649,1.17c0.561,0.496,1.222,0.631,1.948,0.499c0.721-0.13,1.231-0.53,1.532-1.198
		c0.175-0.386,0.239-0.794,0.239-1.241c0.01-0.415-0.072-0.837-0.27-1.235C148.287,100.295,147.458,99.862,146.524,99.969z
		 M148.117,103.559c-0.283,0.487-0.716,0.72-1.265,0.755c-1.02,0.065-1.642-0.645-1.751-1.597c-0.054-0.472-0.01-0.934,0.208-1.365
		c0.345-0.683,0.972-0.998,1.756-0.886c0.642,0.091,1.132,0.593,1.264,1.308c0.038,0.201,0.051,0.407,0.064,0.518
		C148.383,102.796,148.328,103.194,148.117,103.559z"/>
	<path class="st0" d="M166.896,101.803c-0.49-0.036-0.879,0.13-1.135,0.565c-0.012,0.02-0.033,0.035-0.068,0.072
		c0.006-0.576,0.094-1.099,0.43-1.55c0.245-0.329,0.575-0.508,0.989-0.478c0.238,0.017,0.472,0.084,0.717,0.13
		c0-0.105-0.006-0.23,0.004-0.355c0.005-0.083-0.033-0.116-0.104-0.137c-0.305-0.092-0.617-0.116-0.929-0.069
		c-0.656,0.099-1.073,0.508-1.343,1.087c-0.28,0.6-0.342,1.239-0.304,1.889c0.025,0.422,0.111,0.831,0.336,1.201
		c0.554,0.908,1.681,0.733,2.154,0.274c0.464-0.45,0.618-1.204,0.362-1.842C167.804,102.091,167.423,101.842,166.896,101.803z
		 M167.433,103.907c-0.231,0.464-0.843,0.596-1.262,0.291c-0.472-0.343-0.597-1.114-0.249-1.584
		c0.231-0.312,0.551-0.419,0.927-0.355c0.354,0.06,0.573,0.279,0.67,0.617c0.039,0.137,0.053,0.282,0.088,0.473
		C167.559,103.512,167.525,103.724,167.433,103.907z"/>
	<path class="st0" d="M160.49,103.183c-0.016-0.255-0.011-0.491-0.051-0.72c-0.071-0.421-0.248-0.787-0.643-1.001
		c-0.624-0.338-1.436-0.156-1.864,0.411c-0.456,0.604-0.506,1.637-0.111,2.284c0.151,0.247,0.355,0.439,0.629,0.535
		c0.583,0.205,1.149,0.144,1.692-0.142c0.041-0.021,0.089-0.072,0.092-0.113c0.011-0.132,0.004-0.266,0.004-0.428
		c-0.081,0.049-0.135,0.082-0.19,0.115c-0.375,0.223-0.777,0.29-1.2,0.187c-0.473-0.116-0.833-0.689-0.709-1.128
		C158.911,103.183,159.685,103.183,160.49,103.183z M158.13,102.723c0.009-0.544,0.495-1.002,1.023-0.972
		c0.491,0.028,0.813,0.43,0.766,0.972C159.327,102.723,158.733,102.723,158.13,102.723z"/>
	<path class="st0" d="M170.491,102.022c-0.269-0.11-0.551-0.14-0.839-0.131c-0.12,0.004-0.24,0.001-0.38,0.001
		c0.032-0.461,0.062-0.911,0.094-1.381c0.578,0,1.132,0,1.697-0.002c0-0.16,0-0.307,0-0.454c-0.722,0-1.435,0-2.155,0
		c-0.053,0.776-0.105,1.542-0.157,2.32c0.113-0.008,0.197-0.018,0.28-0.018c0.289,0.002,0.581-0.014,0.867,0.017
		c0.488,0.053,0.804,0.384,0.851,0.845c0.05,0.49-0.204,0.907-0.663,1.065c-0.411,0.142-0.81,0.074-1.196-0.106
		c-0.071-0.033-0.14-0.069-0.232-0.116c0,0.136,0.012,0.253-0.003,0.366c-0.021,0.159,0.053,0.229,0.192,0.271
		c0.373,0.113,0.753,0.13,1.137,0.081c0.763-0.097,1.271-0.647,1.307-1.41C171.321,102.729,171.035,102.244,170.491,102.022z"/>
	<path class="st0" d="M163.743,102.341c-0.077-0.023-0.157-0.039-0.275-0.068c0.105-0.044,0.172-0.07,0.239-0.099
		c0.474-0.206,0.69-0.58,0.693-1.085c0.003-0.455-0.198-0.801-0.613-0.985c-0.561-0.248-1.121-0.176-1.665,0.078
		c-0.036,0.017-0.074,0.073-0.077,0.114c-0.009,0.129-0.003,0.261-0.003,0.422c0.078-0.045,0.13-0.074,0.179-0.106
		c0.269-0.159,0.56-0.227,0.872-0.205c0.434,0.031,0.703,0.25,0.753,0.617c0.066,0.489-0.111,0.831-0.544,0.96
		c-0.223,0.067-0.467,0.067-0.703,0.091c-0.086,0.009-0.173,0.002-0.26,0.002c0,0.16,0,0.293,0,0.444
		c0.115,0,0.222-0.01,0.327,0.002c0.254,0.028,0.516,0.038,0.759,0.107c0.433,0.123,0.627,0.439,0.598,0.893
		c-0.025,0.399-0.304,0.706-0.711,0.791c-0.481,0.1-0.928,0.025-1.34-0.245c-0.032-0.021-0.069-0.037-0.116-0.061
		c0,0.136,0.013,0.255-0.003,0.369c-0.021,0.151,0.049,0.22,0.177,0.27c0.486,0.19,0.982,0.205,1.485,0.083
		c0.324-0.078,0.589-0.254,0.795-0.516C164.845,103.534,164.558,102.584,163.743,102.341z"/>
	<path class="st0" d="M157.068,101.422c-0.2-0.042-0.399-0.105-0.601-0.118c-0.809-0.05-1.43,0.356-1.702,1.097
		c-0.099,0.271-0.144,0.553-0.116,0.84c0.044,0.458,0.173,0.882,0.541,1.192c0.509,0.428,1.311,0.501,1.897,0.177
		c0.031-0.017,0.067-0.059,0.069-0.091c0.007-0.138,0.003-0.276,0.003-0.425c-0.13,0.064-0.238,0.128-0.354,0.173
		c-0.698,0.275-1.396-0.061-1.562-0.764c-0.046-0.196-0.049-0.408-0.038-0.611c0.04-0.713,0.584-1.196,1.291-1.131
		c0.222,0.02,0.435,0.12,0.669,0.189c0-0.116-0.004-0.251,0.001-0.385C157.169,101.487,157.144,101.438,157.068,101.422z"/>
	<path class="st0" d="M153.574,101.398c0,1.116,0,2.215,0,3.328c0.141,0,0.261,0.001,0.382,0c0.037,0,0.072-0.003,0.115-0.005
		c0-1.113,0-2.217-0.001-3.323C153.897,101.398,153.736,101.398,153.574,101.398z"/>
	<path class="st0" d="M153.838,99.833c-0.2,0-0.348,0.144-0.348,0.343c-0.001,0.202,0.143,0.345,0.344,0.343
		c0.192-0.002,0.35-0.161,0.349-0.35C154.18,99.985,154.025,99.835,153.838,99.833z"/>
	<path class="st0" d="M120.222,103.456c-0.421-0.447-0.646-0.98-0.694-1.589c-0.018-0.229-0.011-0.458,0.024-0.686
		c0.04-0.253,0.114-0.496,0.229-0.725c0.19-0.379,0.467-0.684,0.805-0.935c0.095-0.07,0.194-0.135,0.294-0.204
		c-0.003-0.004-0.005-0.009-0.009-0.016c-0.349-0.489-0.812-0.825-1.38-1.018c-0.269-0.091-0.545-0.144-0.827-0.175
		c-0.22-0.024-0.439-0.018-0.657,0.017c-0.244,0.039-0.48,0.102-0.714,0.182c-0.304,0.103-0.608,0.208-0.913,0.31
		c-0.113,0.038-0.226,0.063-0.348,0.035c-0.223-0.051-0.438-0.128-0.655-0.203c-0.216-0.075-0.433-0.15-0.651-0.218
		c-0.175-0.055-0.355-0.088-0.539-0.102c-0.153-0.012-0.303,0.001-0.454,0.019c-0.223,0.026-0.44,0.077-0.651,0.155
		c-0.413,0.152-0.779,0.38-1.095,0.687c-0.355,0.344-0.612,0.752-0.791,1.21c-0.191,0.487-0.268,0.997-0.275,1.518
		c-0.005,0.388,0.029,0.774,0.097,1.156c0.07,0.395,0.174,0.782,0.306,1.16c0.236,0.674,0.547,1.31,0.967,1.889
		c0.203,0.279,0.408,0.556,0.646,0.807c0.198,0.208,0.411,0.399,0.668,0.533c0.257,0.134,0.528,0.182,0.815,0.136
		c0.163-0.026,0.323-0.067,0.479-0.122c0.155-0.055,0.309-0.117,0.464-0.173c0.292-0.106,0.593-0.173,0.905-0.18
		c0.328-0.007,0.645,0.06,0.952,0.17c0.193,0.068,0.383,0.143,0.577,0.207c0.182,0.06,0.37,0.095,0.562,0.1
		c0.27,0.006,0.521-0.067,0.755-0.199c0.22-0.123,0.405-0.288,0.575-0.471c0.262-0.283,0.49-0.595,0.707-0.913
		c0.323-0.473,0.575-0.984,0.766-1.524c0.017-0.046,0.033-0.093,0.049-0.138c-0.081-0.04-0.16-0.076-0.236-0.116
		C120.69,103.89,120.442,103.69,120.222,103.456z"/>
	<path class="st0" d="M118.179,95.276c-0.744,0.214-1.335,0.634-1.735,1.305c-0.249,0.418-0.393,0.866-0.377,1.358
		c0.002,0.05,0.007,0.099,0.011,0.149c0.009,0.002,0.014,0.003,0.019,0.005c0.167,0.009,0.332,0,0.496-0.035
		c0.299-0.064,0.567-0.195,0.813-0.374c0.329-0.239,0.601-0.533,0.821-0.875c0.293-0.456,0.435-0.953,0.408-1.496
		c-0.002-0.036-0.006-0.072-0.009-0.108c-0.018,0-0.031-0.001-0.045,0C118.445,95.217,118.31,95.238,118.179,95.276z"/>
	<path class="st0" d="M227.97,102.211c-0.383,0-0.694,0.311-0.694,0.694s0.311,0.694,0.694,0.694s0.694-0.311,0.694-0.694
		C228.664,102.522,228.353,102.211,227.97,102.211z"/>
	<path class="st0" d="M231.59,103.798c0,0.246,0.2,0.446,0.446,0.446s0.446-0.2,0.446-0.446s-0.2-0.446-0.446-0.446
		S231.59,103.552,231.59,103.798z"/>
	<circle class="st0" cx="230.697" cy="103.55" r="0.446"/>
	<circle class="st0" cx="231.59" cy="102.757" r="0.297"/>
	<path class="st0" d="M232.581,100.774v-1.735h0.099c0.199,0,0.297-0.149,0.297-0.297s-0.199-0.297-0.297-0.297h-0.446l0.297-1.041
		H230.3l0.199,1.041h-0.446c-0.199,0-0.297,0.149-0.297,0.297c0,0.199,0.149,0.297,0.297,0.297h0.149v0.793l-0.347,0.297
		c-0.347-0.297-0.843-0.446-1.289-0.496v-0.446c0-0.099-0.099-0.199-0.199-0.199h-0.793c-0.099,0-0.199,0.099-0.199,0.199v0.446
		c-0.446,0.099-0.892,0.297-1.289,0.545l-0.297-0.297c-0.099-0.099-0.199-0.099-0.248,0l-0.545,0.545
		c-0.05,0.05-0.05,0.099-0.05,0.149s0.05,0.099,0.05,0.149l0.297,0.297c-0.297,0.347-0.446,0.843-0.545,1.289h-0.446
		c-0.099,0-0.199,0.099-0.199,0.199v0.793c0,0.099,0.099,0.199,0.199,0.199h0.397c0.099,0.446,0.297,0.892,0.545,1.338l-0.297,0.297
		c-0.099,0.099-0.099,0.199,0,0.248l0.545,0.545c0.05,0.05,0.099,0.05,0.149,0.05s0.099-0.05,0.149-0.05l0.297-0.297
		c0.297,0.248,0.744,0.397,1.14,0.496c-0.149,0.694,0.248,1.338,0.991,1.338h6.346c0.893-0.049,1.19-0.842,0.942-1.635
		C235.506,105.831,234.415,103.749,232.581,100.774z M227.871,104.69c-0.942-0.05-1.686-0.843-1.686-1.785
		c0-0.991,0.793-1.785,1.785-1.785c0.644,0,1.19,0.297,1.487,0.843C228.813,103.005,228.268,103.996,227.871,104.69z
		 M228.565,104.69c0.05-0.05,0.05-0.05,0.05-0.099c0.199-0.297,1.537-2.727,2.082-3.47l0.099-0.149h1.239l0.099,0.149
		c0.446,0.744,1.983,3.321,2.082,3.57L228.565,104.69z"/>
	<path class="st0" d="M238.011,102.326c-0.259-0.113-0.441-0.216-0.546-0.307c-0.105-0.091-0.157-0.209-0.157-0.351
		c0-0.154,0.047-0.282,0.141-0.384c0.094-0.102,0.225-0.153,0.393-0.153c0.179,0,0.319,0.062,0.418,0.184s0.148,0.282,0.148,0.48
		h0.819l0.006-0.018c0.007-0.378-0.117-0.691-0.374-0.939s-0.591-0.372-1.002-0.372c-0.406,0-0.739,0.112-1,0.334
		c-0.262,0.223-0.392,0.511-0.392,0.865c0,0.358,0.111,0.637,0.336,0.835s0.561,0.376,1.01,0.532c0.22,0.095,0.373,0.191,0.46,0.289
		s0.13,0.231,0.13,0.399c0,0.162-0.043,0.289-0.127,0.384c-0.086,0.095-0.218,0.142-0.396,0.142c-0.227,0-0.397-0.058-0.51-0.175
		c-0.113-0.116-0.169-0.308-0.169-0.575h-0.821l-0.006,0.018c-0.01,0.45,0.135,0.794,0.437,1.034c0.301,0.24,0.658,0.36,1.069,0.36
		c0.413,0,0.744-0.105,0.993-0.317c0.249-0.211,0.374-0.504,0.374-0.878c0-0.362-0.104-0.648-0.31-0.861
		C238.728,102.64,238.42,102.465,238.011,102.326z"/>
	<polygon class="st0" points="239.53,101.202 240.497,101.202 240.497,104.847 241.339,104.847 241.339,101.202 242.312,101.202 
		242.312,100.529 239.53,100.529 	"/>
	<polygon class="st0" points="243.564,102.952 245.014,102.952 245.012,102.278 243.562,102.278 243.562,101.202 245.262,101.202 
		245.262,100.529 242.718,100.529 242.718,104.847 245.269,104.847 245.269,104.174 243.564,104.174 	"/>
	<polygon class="st0" points="247.607,103.699 247.589,103.699 246.815,100.529 245.72,100.53 245.72,104.848 246.559,104.848 
		246.559,103.593 246.485,101.938 246.503,101.935 247.319,104.847 247.879,104.847 248.704,101.911 248.722,101.914 
		248.651,103.592 248.651,104.847 249.49,104.847 249.49,100.529 248.39,100.529 	"/>
	<path class="st0" d="M49.96,105.454v-0.009c0.092-0.029,0.165-0.093,0.165-0.19c0-0.078-0.034-0.137-0.083-0.171
		c-0.053-0.039-0.121-0.063-0.272-0.063c-0.132,0-0.234,0.014-0.307,0.024v0.799h0.185v-0.317h0.088
		c0.101,0,0.151,0.039,0.165,0.122c0.024,0.098,0.039,0.166,0.063,0.195h0.196c-0.015-0.03-0.035-0.073-0.059-0.195
		C50.077,105.542,50.038,105.479,49.96,105.454z M49.741,105.395h-0.088l0.001-0.229c0.019-0.004,0.053-0.009,0.102-0.009
		c0.117,0,0.17,0.049,0.17,0.122C49.926,105.361,49.843,105.395,49.741,105.395z"/>
	<path class="st0" d="M49.78,104.631c-0.463,0-0.828,0.351-0.828,0.799c0,0.449,0.365,0.804,0.823,0.804
		c0.457,0,0.818-0.356,0.818-0.804S50.232,104.631,49.78,104.631z M49.78,106.068c-0.356,0-0.624-0.282-0.624-0.638
		c0-0.35,0.268-0.638,0.615-0.639c0.355,0,0.618,0.288,0.618,0.643C50.389,105.786,50.125,106.073,49.78,106.068z"/>
	<path class="st0" d="M40.033,98.829l0.751,4.916l-3.231-5.266l-3.21,6.373c-0.867-3.041-1.328-6.312-1.328-6.312l-2.753,4.591
		l-3.053-4.856l-0.514,4.953c-0.019-0.053-0.033-0.081-0.033-0.081l-0.001-0.015c-0.03-0.063-0.074-0.146-0.098-0.185
		c-0.442-0.799-1.929-1.272-2.979-1.631c-2.664-0.912-1.85-1.85-0.407-2.073c1.008-0.157,2.151,0.024,2.869,0.472l0.369-1.076
		c-2.014-1.06-6.488-0.764-5.763,2.02c0.419,1.61,3.812,1.839,4.614,2.78c0.066,0.079,0.159,0.191,0.203,0.293
		c0.06,0.139,0.08,0.298,0.017,0.498c-0.009,0.03-0.024,0.127-0.043,0.166c-0.028,0.057-0.061,0.114-0.084,0.144
		c-0.513,0.65-1.545,0.675-2.489,0.559c-1.083-0.132-2.051-0.666-2.107-0.791l-0.455,1.144c1.712,0.924,4.96,1.471,6.173-0.232
		c0.005-0.007,0.008-0.012,0.012-0.018l-0.113,1.094l1.286-0.022l0.397-4.485l2.261,3.572l2.111-3.572c0,0,0.224,0.926,0.632,2.625
		c0.345,1.435,0.561,1.98,0.561,1.98l1.107-0.087l1.095-2.204h3.91l1.462,2.203l1.21-0.002l-0.651-3.845
		c0.804,1.118,3.026,2.594,4.773,3.208l-0.117,0.666l1.265,0.029l1.111-6.564l2.675,0.03l0.416-1.075l-7.238,0.017
		C43.133,98.244,41.408,98.405,40.033,98.829z M36.36,103.031l1.288-2.591l1.377,2.591H36.36z M41.531,101.029l-0.227-1.454
		c0.768-0.46,3.246-0.183,2.969,0.585C43.995,100.927,41.582,101.255,41.531,101.029z M45.274,99.83l2.201,0.014l-0.746,4.789
		c-1.527-0.541-3.874-2.303-3.962-2.668C43.63,101.899,45.471,101.409,45.274,99.83z"/>
	<path class="st0" d="M210.032,101.118c-0.481-0.599-1.356-0.604-1.841-0.008c-0.059,0.072-0.111,0.149-0.187,0.251
		c0-0.192,0-0.351,0-0.509c0.001-0.784,0.003-1.569,0.005-2.354c-0.347,0-0.694,0-1.039,0c-0.002,2.521-0.004,5.043-0.006,7.565
		c0.269,0,0.558,0,0.851,0c0.02-0.221,0.039-0.435,0.059-0.648c0.057,0.036,0.08,0.071,0.099,0.109
		c0.413,0.818,1.27,0.745,1.739,0.378c0.356-0.279,0.562-0.655,0.692-1.076c0.256-0.833,0.263-1.681,0.116-2.533
		C210.446,101.866,210.308,101.462,210.032,101.118z M209.437,104.552c-0.044,0.172-0.125,0.344-0.227,0.489
		c-0.242,0.343-0.687,0.339-0.934,0c-0.167-0.228-0.26-0.489-0.269-0.773c-0.009-0.282-0.002-0.564-0.002-0.846
		c-0.005,0-0.01,0-0.015,0c0.014-0.355,0.017-0.711,0.046-1.063c0.019-0.219,0.123-0.414,0.27-0.58
		c0.268-0.303,0.651-0.288,0.902,0.033c0.179,0.229,0.253,0.5,0.297,0.78C209.608,103.249,209.605,103.906,209.437,104.552z"/>
	<path class="st0" d="M202.049,98.498c-0.338,0-0.676,0-1.015,0.001c-0.005,0.056-0.014,0.111-0.014,0.167
		c-0.001,0.811-0.001,1.622-0.001,2.433c0,0.044,0,0.089,0,0.134c-0.139-0.199-0.284-0.376-0.504-0.466
		c-0.461-0.188-0.884-0.104-1.263,0.206c-0.323,0.264-0.513,0.619-0.635,1.009c-0.253,0.811-0.26,1.638-0.117,2.468
		c0.072,0.417,0.206,0.815,0.461,1.16c0.575,0.779,1.608,0.73,2.109-0.099c0.014-0.024,0.031-0.048,0.066-0.1
		c0.027,0.239,0.05,0.446,0.073,0.652c0.301,0,0.59,0,0.884,0c0-0.042,0.001-0.076,0-0.11c-0.014-0.364-0.039-0.728-0.04-1.092
		C202.048,102.74,202.05,100.619,202.049,98.498z M201.017,103.431c-0.001,0-0.003,0-0.005,0c0,0.308,0.006,0.616-0.001,0.924
		c-0.007,0.254-0.101,0.483-0.252,0.684c-0.262,0.35-0.695,0.343-0.953-0.011c-0.181-0.249-0.256-0.538-0.298-0.835
		c-0.088-0.623-0.09-1.246,0.073-1.857c0.048-0.181,0.13-0.362,0.237-0.514c0.248-0.353,0.695-0.348,0.955-0.003
		c0.147,0.195,0.218,0.421,0.237,0.663c0.005,0.061,0.007,0.121,0.007,0.182C201.017,102.919,201.017,103.175,201.017,103.431z"/>
	<path class="st0" d="M195.459,98.709c-0.552,2.451-1.105,4.901-1.659,7.355c0.341,0,0.673,0,1.006,0
		c0.011-0.043,0.022-0.081,0.03-0.119c0.13-0.6,0.261-1.2,0.386-1.801c0.017-0.08,0.044-0.107,0.125-0.106
		c0.443,0.004,0.885,0.004,1.327,0c0.077,0,0.105,0.027,0.119,0.099c0.05,0.254,0.104,0.508,0.157,0.762
		c0.082,0.389,0.164,0.777,0.246,1.167c0.343,0,0.676,0,1.02,0c-0.521-2.458-1.041-4.908-1.56-7.357
		C196.249,98.709,195.86,98.709,195.459,98.709z M195.38,103.203c0.214-1.138,0.427-2.277,0.64-3.415
		c0.204,1.134,0.409,2.269,0.615,3.415C196.22,103.203,195.807,103.203,195.38,103.203z"/>
	<path class="st0" d="M205.83,101.343c-0.532-0.752-1.558-0.899-2.28-0.327c-0.35,0.277-0.56,0.646-0.69,1.062
		c-0.23,0.734-0.235,1.484-0.118,2.237c0.067,0.431,0.201,0.842,0.469,1.196c0.409,0.54,0.959,0.741,1.616,0.611
		c0.603-0.119,0.98-0.524,1.226-1.063c0.238-0.522,0.299-1.081,0.311-1.648c-0.016-0.229-0.023-0.459-0.05-0.686
		C206.254,102.23,206.123,101.757,205.83,101.343z M205.121,104.771c-0.038,0.109-0.087,0.218-0.151,0.314
		c-0.224,0.339-0.642,0.357-0.898,0.04c-0.172-0.212-0.246-0.466-0.288-0.728c-0.12-0.741-0.129-1.482,0.062-2.215
		c0.036-0.14,0.096-0.28,0.173-0.402c0.257-0.409,0.743-0.403,0.971,0.022c0.111,0.205,0.186,0.439,0.229,0.669
		c0.058,0.313,0.071,0.635,0.09,0.816C205.292,103.881,205.273,104.335,205.121,104.771z"/>
	<path class="st0" d="M191.052,105.986c0.006-0.004,0.011-0.007,0.017-0.01c0-2.412,0-4.824,0-7.24c-1.015,0-2.019,0-3.043,0
		C189.038,101.161,190.045,103.573,191.052,105.986z"/>
	<path class="st0" d="M182.796,98.739c0,2.419,0,4.829,0,7.239c0.007,0.003,0.014,0.005,0.02,0.007
		c1.008-2.412,2.015-4.825,3.027-7.246C184.816,98.739,183.809,98.739,182.796,98.739z"/>
	<path class="st0" d="M214.209,101.316c-0.339-0.518-0.912-0.748-1.512-0.615c-0.606,0.135-0.985,0.533-1.243,1.069
		c-0.242,0.505-0.325,1.048-0.337,1.602c-0.01,0.492,0.035,0.979,0.203,1.446c0.221,0.614,0.609,1.061,1.261,1.239
		c0.302,0.083,0.612,0.093,0.916,0.052c0.281-0.038,0.555-0.123,0.83-0.196c0.034-0.009,0.083-0.073,0.078-0.103
		c-0.039-0.224-0.09-0.445-0.134-0.655c-0.221,0.053-0.427,0.124-0.639,0.15c-0.674,0.083-1.172-0.095-1.399-0.846
		c-0.081-0.269-0.105-0.547-0.104-0.829c0.834,0,1.653,0,2.489,0c0-0.349,0.019-0.682-0.005-1.014
		C214.58,102.155,214.468,101.71,214.209,101.316z M212.139,102.881c0.032-0.44,0.093-0.862,0.374-1.212
		c0.241-0.301,0.617-0.29,0.854,0.013c0.165,0.211,0.229,0.463,0.264,0.722c0.021,0.153,0.025,0.309,0.037,0.477
		C213.146,102.881,212.65,102.881,212.139,102.881z"/>
	<path class="st0" d="M185.607,104.576c0.028,0.006,0.036,0.01,0.045,0.01c0.416,0,0.832,0.004,1.248-0.002
		c0.1-0.001,0.143,0.033,0.177,0.123c0.135,0.355,0.278,0.708,0.418,1.062c0.119,0.298,0.119,0.298,0.441,0.298
		c0.31,0,0.62,0,0.948,0c-0.651-1.546-1.294-3.074-1.948-4.626C186.488,102.499,186.049,103.532,185.607,104.576z"/>
	<path class="st0" d="M82.215,66.015h4.065c2.672,0,4.764-0.637,6.275-1.911s2.266-3.015,2.266-5.221
		c0-1.454-0.346-2.751-1.037-3.891c-0.689-1.139-1.677-2.018-2.961-2.638c-1.284-0.619-2.772-0.929-4.463-0.929h-8.787v22.527h4.642
		V66.015z M82.213,55.186h4.254c1.146,0.021,2.044,0.371,2.693,1.052c0.65,0.681,0.975,1.573,0.975,2.677
		c-0.001,1.071-0.323,1.896-0.967,2.474c-0.645,0.58-1.58,0.867-2.807,0.867h-4.145h-0.003V55.186z"/>
	<path class="st0" d="M113.145,68.797c0.861-1.629,1.291-3.491,1.291-5.583v-1.037c0-2.094-0.438-3.963-1.315-5.608
		c-0.876-1.644-2.095-2.913-3.658-3.806c-1.562-0.891-3.334-1.338-5.315-1.338h-6.931v22.526c0,0,6.977,0,6.979-0.002
		c1.968-0.01,3.738-0.464,5.306-1.362C111.069,71.691,112.283,70.426,113.145,68.797z M108.263,68.445
		c-0.959,1.186-2.346,1.777-4.161,1.777h-2.243V55.185h2.289c1.825,0,3.212,0.591,4.161,1.772c0.949,1.182,1.423,2.918,1.423,5.207
		v1.191h0.001C109.711,65.562,109.222,67.258,108.263,68.445z"/>
	<path class="st0" d="M140.449,68.013c0-1.753-0.604-3.217-1.81-4.394c-1.206-1.176-3.129-2.161-5.77-2.955
		c-1.433-0.434-2.519-0.898-3.257-1.393c-0.736-0.495-1.106-1.108-1.106-1.841c0.001-0.785,0.316-1.415,0.946-1.896
		c0.63-0.478,1.511-0.718,2.645-0.718c1.176,0,2.089,0.285,2.738,0.858c0.649,0.572,0.974,1.373,0.974,2.405h4.642
		c0-1.35-0.348-2.558-1.044-3.619c-0.695-1.062-1.674-1.885-2.932-2.468c-1.259-0.583-2.692-0.875-4.301-0.875
		c-1.597,0-3.04,0.267-4.323,0.803c-1.284,0.538-2.269,1.283-2.955,2.236c-0.686,0.956-1.028,2.041-1.028,3.257
		c0,2.342,1.277,4.205,3.835,5.586c0.939,0.505,2.212,1.019,3.822,1.54c1.61,0.52,2.723,1.014,3.342,1.485
		c0.62,0.469,0.929,1.141,0.929,2.018c0,0.806-0.312,1.436-0.932,1.884c-0.62,0.448-1.48,0.673-2.584,0.673
		c-2.97,0-4.455-1.242-4.455-3.728h-4.657c0,1.452,0.374,2.732,1.121,3.835c0.748,1.105,1.833,1.972,3.257,2.607
		c1.423,0.635,3.002,0.952,4.734,0.952c2.496,0,4.482-0.555,5.957-1.664C139.711,71.492,140.449,69.962,140.449,68.013z"/>
	<path class="st0" d="M146.978,72.499c1.042,1.176,2.407,1.764,4.1,1.764c1.99,0,3.572-0.777,4.742-2.33
		c1.169-1.553,1.756-3.618,1.756-6.197l-0.002-0.232c-0.001-2.68-0.573-4.786-1.718-6.312s-2.748-2.289-4.811-2.289
		c-1.743,0-3.156,0.649-4.239,1.949l-0.154-1.639h-4.145v23.176h4.471L146.978,72.499L146.978,72.499z M146.98,62.12
		c0.526-1.074,1.49-1.613,2.893-1.613c1.052,0,1.854,0.424,2.406,1.272c0.551,0.85,0.827,2.055,0.827,3.616
		c-0.001,3.508-1.069,5.262-3.203,5.261c-1.402,0-2.378-0.555-2.923-1.661V62.12z"/>
	<path class="st0" d="M166.763,56.903c-1.527,0-2.885,0.359-4.076,1.076c-1.192,0.718-2.113,1.737-2.762,3.063
		c-0.65,1.325-0.975,2.829-0.975,4.509v0.433c0,2.506,0.772,4.512,2.314,6.019s3.539,2.259,5.995,2.259
		c1.391,0,2.659-0.266,3.807-0.794c1.146-0.532,2.053-1.271,2.723-2.221l-2.197-2.46c-0.971,1.247-2.316,1.872-4.038,1.872
		c-1.115,0-2.035-0.33-2.762-0.99c-0.728-0.661-1.163-1.538-1.308-2.631h10.659v-1.826c0-2.652-0.658-4.698-1.973-6.142
		C170.854,57.626,169.053,56.903,166.763,56.903z M163.529,63.988c0.154-1.118,0.507-1.978,1.059-2.578
		c0.553-0.601,1.272-0.902,2.159-0.902c0.949,0,1.68,0.272,2.197,0.816c0.514,0.543,0.783,1.312,0.803,2.307l0.001,0.357
		C169.748,63.988,163.529,63.988,163.529,63.988z"/>
	<path class="st0" d="M186.431,73.48c1.057-0.52,1.89-1.253,2.499-2.197c0.609-0.943,0.918-1.981,0.929-3.116h-4.193
		c-0.021,0.753-0.289,1.356-0.804,1.81c-0.516,0.455-1.187,0.681-2.012,0.681c-1.074,0-1.872-0.378-2.395-1.132
		c-0.526-0.756-0.789-1.995-0.789-3.72v-0.464c-0.001-1.705,0.265-2.937,0.797-3.696c0.532-0.758,1.317-1.138,2.359-1.138
		c0.845,0,1.526,0.273,2.042,0.816c0.515,0.546,0.784,1.254,0.804,2.124h4.193c-0.023-1.982-0.663-3.568-1.927-4.759
		s-2.942-1.786-5.036-1.786c-2.393,0-4.276,0.769-5.647,2.305c-1.372,1.538-2.058,3.595-2.058,6.173v0.294
		c0,2.68,0.69,4.782,2.073,6.304c1.381,1.522,3.268,2.283,5.661,2.283C184.205,74.262,185.374,74.001,186.431,73.48z"/>
	<path class="st0" d="M194.093,55.2c0.753,0,1.359-0.215,1.818-0.648c0.459-0.434,0.689-0.991,0.689-1.671
		c0-0.671-0.227-1.222-0.681-1.655c-0.455-0.433-1.062-0.649-1.826-0.649c-0.774,0-1.385,0.215-1.833,0.649
		c-0.448,0.433-0.673,0.985-0.673,1.655c0,0.68,0.229,1.236,0.688,1.671C192.734,54.984,193.341,55.2,194.093,55.2z"/>
	<rect x="191.85" y="57.213" class="st0" width="4.486" height="16.739"/>
	<path class="st0" d="M210.964,58.46c-1.211-1.038-2.851-1.556-4.912-1.556c-1.363,0-2.589,0.235-3.682,0.704
		c-1.094,0.469-1.94,1.115-2.537,1.94c-0.598,0.826-0.897,1.723-0.897,2.693h4.471c0-0.63,0.214-1.123,0.642-1.485
		c0.429-0.361,1.019-0.541,1.772-0.541c0.855,0,1.481,0.232,1.879,0.696c0.396,0.462,0.595,1.082,0.595,1.855v0.959h-2.058
		c-2.487,0.011-4.386,0.489-5.701,1.438c-1.315,0.95-1.973,2.311-1.973,4.085c0,1.445,0.54,2.641,1.617,3.589
		c1.078,0.948,2.435,1.423,4.076,1.423c1.732,0,3.14-0.604,4.223-1.811c0.093,0.599,0.242,1.098,0.448,1.501c0,0,0,0.001,0,0.004
		h4.52v-0.263c-0.433-0.815-0.655-2.018-0.665-3.605v-7.255C212.782,60.954,212.175,59.496,210.964,58.46z M208.294,69.219
		L208.294,69.219c-0.269,0.495-0.681,0.89-1.238,1.183c-0.557,0.294-1.165,0.441-1.826,0.441c-0.681,0-1.217-0.182-1.611-0.54
		c-0.391-0.362-0.587-0.82-0.587-1.377l0.016-0.265c0.145-1.546,1.336-2.319,3.574-2.319h1.672V69.219z"/>
	<rect x="215.653" y="50.188" class="st0" width="4.486" height="23.763"/>
	<path class="st0" d="M225.505,55.2c0.753,0,1.359-0.215,1.817-0.648c0.459-0.434,0.689-0.991,0.689-1.671
		c0-0.671-0.227-1.222-0.68-1.655c-0.456-0.433-1.065-0.649-1.826-0.649c-0.774,0-1.385,0.215-1.833,0.649
		c-0.448,0.433-0.673,0.985-0.673,1.655c0,0.68,0.23,1.236,0.688,1.671C224.146,54.984,224.753,55.2,225.505,55.2z"/>
	<rect x="223.262" y="57.213" class="st0" width="4.486" height="16.739"/>
	<path class="st0" d="M239.049,70.6c-0.437,0.325-1.086,0.488-1.941,0.488c-0.917,0-1.651-0.212-2.196-0.635
		c-0.546-0.423-0.84-1.031-0.881-1.826h-4.239c0,1.01,0.309,1.952,0.929,2.824c0.619,0.871,1.472,1.557,2.559,2.057
		s2.333,0.75,3.736,0.75c2.072,0,3.764-0.471,5.074-1.414c1.31-0.944,1.965-2.18,1.965-3.706c-0.002-2.133-1.183-3.633-3.545-4.5
		c-0.763-0.278-1.701-0.527-2.815-0.749c-1.115-0.222-1.907-0.486-2.375-0.79c-0.47-0.303-0.704-0.705-0.704-1.199
		c0-0.527,0.206-0.961,0.62-1.3c0.412-0.339,0.996-0.511,1.748-0.511c0.876,0,1.519,0.211,1.933,0.627
		c0.412,0.419,0.619,0.946,0.619,1.585h4.47c0-1.598-0.637-2.897-1.91-3.898c-1.274-1.001-2.973-1.501-5.099-1.501
		c-1.99,0-3.602,0.497-4.834,1.492c-1.232,0.997-1.849,2.237-1.849,3.721c0,2.548,1.99,4.238,5.971,5.074
		c1.195,0.249,2.066,0.529,2.607,0.844c0.54,0.315,0.812,0.746,0.812,1.291C239.704,69.85,239.486,70.276,239.049,70.6z"/>
	<path class="st0" d="M251.844,70.178c-0.235-0.269-0.355-0.712-0.355-1.331v-8.354h2.861v-3.279h-2.861v-4.116h-4.47v4.116h-2.445
		v3.279h2.445v9.018c0.062,3.168,1.661,4.751,4.796,4.751c0.929,0,1.829-0.135,2.706-0.403v-3.387
		c-0.381,0.073-0.821,0.109-1.314,0.109C252.536,70.581,252.082,70.447,251.844,70.178z"/>
	<path class="st0" d="M265.922,64.638c-0.763-0.278-1.701-0.527-2.815-0.749c-1.115-0.222-1.907-0.486-2.375-0.79
		c-0.47-0.303-0.704-0.705-0.704-1.199c0-0.527,0.206-0.961,0.62-1.3c0.412-0.339,0.996-0.511,1.748-0.511
		c0.876,0,1.519,0.211,1.933,0.627c0.412,0.419,0.619,0.946,0.619,1.585h4.47c0-1.598-0.637-2.897-1.91-3.898
		c-1.274-1.001-2.973-1.501-5.099-1.501c-1.99,0-3.602,0.497-4.834,1.492c-1.232,0.997-1.849,2.237-1.849,3.721
		c0,2.548,1.99,4.238,5.971,5.074c1.195,0.249,2.066,0.529,2.607,0.844c0.54,0.315,0.812,0.746,0.812,1.291
		c0,0.526-0.218,0.952-0.654,1.276c-0.438,0.325-1.087,0.488-1.943,0.488c-0.917,0-1.651-0.212-2.196-0.635
		c-0.546-0.423-0.84-1.031-0.881-1.826h-4.239c0,1.01,0.309,1.952,0.929,2.824c0.619,0.871,1.472,1.557,2.559,2.057
		s2.333,0.75,3.736,0.75c2.072,0,3.764-0.471,5.074-1.414s1.965-2.18,1.965-3.706C269.465,67.005,268.284,65.505,265.922,64.638z"/>
	<polygon class="st0" points="21.163,42.545 2.5,41.7 3.225,45.473 9.044,44.848 8.51,75.322 10.849,75.855 14.065,44.605 
		20.395,44.316 	"/>
	<path class="st0" d="M30.695,73.321c1.978-0.285,3.959-0.872,4.988-1.57l-1.653-3.209c-0.831,0.57-2.047,1.145-3.758,1.393
		c-0.268,0.038-0.543,0.027-0.81,0.067c-3.312,0.178-7.317-0.792-8.416-8.378l13.649-0.922c-0.113-1.283-0.17-1.924-0.347-2.948
		c-0.881-5.07-3.209-9.33-9.007-8.942c-0.213,0.03-0.488,0.02-0.703,0.051c-5.72,0.827-7.838,6.928-6.628,13.898
		C18.976,68.318,22.409,74.518,30.695,73.321z M24.742,51.347c2.78-0.402,4.867,2.145,5.637,6.581l-9.183,1.077
		C20.824,55.609,21.587,51.802,24.742,51.347z"/>
	<path class="st0" d="M54.386,53.303l-0.106-0.016c-1.021-2.646-3.007-3.832-5.038-4.125c-4.222-0.61-9.194,2.77-10.523,10.423
		c-1.041,5.994-0.299,13.398,6.489,14.379c2.888,0.416,5.446-1.063,6.552-2.702l0.161,0.023L50.355,83.45l2.924-0.426l4.594-24.87
		l1.244-7.165l-4.672-2.124L54.386,53.303z M53.292,59.291l-0.686,5.847c-0.504,4.474-3.624,5.723-5.442,5.46
		c-4.705-0.68-5.028-7.023-4.333-11.019c0.795-4.582,3.08-7.95,6.554-7.448C52.218,52.54,53.749,55.71,53.292,59.291z"/>
	<path class="st0" d="M65.187,48.309c0-0.367-0.085-0.707-0.255-1.021s-0.405-0.562-0.705-0.742c-0.3-0.181-0.625-0.271-0.973-0.271
		s-0.673,0.09-0.973,0.271s-0.535,0.428-0.705,0.742c-0.17,0.314-0.255,0.654-0.255,1.021c0,0.361,0.083,0.698,0.248,1.01
		c0.165,0.312,0.398,0.562,0.698,0.75c0.3,0.188,0.629,0.282,0.987,0.282c0.357,0,0.686-0.094,0.987-0.282
		c0.3-0.188,0.533-0.438,0.698-0.75C65.104,49.007,65.187,48.67,65.187,48.309z M64.106,49.875
		c-0.265,0.161-0.549,0.241-0.852,0.241s-0.587-0.08-0.851-0.241s-0.472-0.381-0.623-0.661c-0.151-0.279-0.227-0.582-0.227-0.907
		c0-0.323,0.075-0.623,0.226-0.901c0.151-0.277,0.358-0.495,0.622-0.656s0.549-0.241,0.853-0.241c0.31,0,0.597,0.082,0.862,0.245
		c0.264,0.164,0.47,0.383,0.617,0.66c0.147,0.276,0.22,0.573,0.22,0.893c-0.001,0.323-0.075,0.625-0.225,0.906
		C64.578,49.493,64.371,49.714,64.106,49.875z"/>
	<path class="st0" d="M64.043,48.92c0-0.138-0.025-0.257-0.076-0.356s-0.142-0.172-0.272-0.22c0.256-0.116,0.384-0.294,0.384-0.536
		c0-0.226-0.072-0.396-0.215-0.507c-0.143-0.112-0.348-0.167-0.615-0.167h-0.702v2.284h0.267v-0.942h0.512
		c0.163,0,0.279,0.034,0.347,0.101s0.102,0.182,0.102,0.344c0,0.266,0.013,0.431,0.038,0.497h0.278v-0.044
		c-0.016-0.042-0.028-0.093-0.035-0.155C64.047,49.158,64.043,49.058,64.043,48.92z M63.669,48.118
		c-0.095,0.076-0.216,0.114-0.363,0.114h-0.493V47.38h0.474c0.192,0.004,0.328,0.039,0.407,0.105
		c0.079,0.066,0.118,0.176,0.118,0.331C63.812,47.941,63.764,48.042,63.669,48.118z"/>
</g>
</svg>
