<?xml version="1.0" encoding="utf-8"?>
<!-- Generator: Adobe Illustrator 22.1.0, SVG Export Plug-In . SVG Version: 6.00 Build 0)  -->
<svg version="1.1" id="Layer_1" xmlns="http://www.w3.org/2000/svg" xmlns:xlink="http://www.w3.org/1999/xlink" x="0px" y="0px"
	 viewBox="0 0 200 155" style="enable-background:new 0 0 200 155;" xml:space="preserve">
<style type="text/css">
	.st0{opacity:0.7;fill:#768693;enable-background:new    ;}
	.st1{fill:#FFFFFF;}
</style>
<circle class="st0" cx="99.667" cy="77.167" r="75.333"/>
<g id="C6T8fK_1_">
	<g>
		<path class="st1" d="M131.051,61.036c1.944,0,3.826-0.003,5.707,0.001c1.57,0.004,2.237,0.67,2.24,2.265
			c0.006,4.12-0.001,8.241-0.003,12.361c-0.002,4.303-2.692,8.209-6.796,9.6c-1.15,0.39-1.461,0.932-1.1,2.165
			c1.42,0,2.916,0.004,4.412-0.001c3.221-0.011,3.481,0.244,3.48,3.416c-0.001,3.708,0.005,7.417-0.002,11.125
			c-0.008,4.557-2.822,8.473-7.164,9.87c-0.705,0.227-0.875,0.544-0.865,1.227c0.037,2.54,0.017,5.082,0.013,7.623
			c-0.003,1.533-0.643,2.18-2.196,2.18c-20.739,0.002-41.478,0.002-62.218-0.004c-1.973-0.001-2.487-0.537-2.487-2.519
			c-0.001-27.606-0.001-55.213,0-82.819c0-1.983,0.526-2.525,2.483-2.525c23.315-0.002,46.629-0.002,69.944,0
			c1.948,0,2.499,0.568,2.498,2.517c-0.003,3.949,0.001,7.897-0.006,11.846c-0.008,4.424-2.748,8.282-6.913,9.752
			C130.904,59.531,130.904,59.531,131.051,61.036z M135.347,38.673c-22.624,0-45.086,0-67.565,0c0,26.883,0,53.676,0,80.541
			c19.854,0,39.641,0,59.503,0c0.017-0.396,0.045-0.73,0.045-1.064c-0.001-14.04-0.006-28.08-0.007-42.12
			c-0.001-5.939,0.001-11.877,0.012-17.816c0.003-1.436,0.546-2.042,1.889-2.19c0.341-0.038,0.682-0.077,1.022-0.124
			c2.529-0.347,4.463-2.059,4.893-4.592c0.238-1.406,0.186-2.867,0.2-4.303C135.366,44.262,135.347,41.52,135.347,38.673z
			 M131.046,108.361c0.412-0.146,0.775-0.229,1.093-0.395c2.118-1.106,3.15-2.931,3.191-5.255c0.066-3.668,0.019-7.338,0.012-11.007
			c0-0.191-0.072-0.383-0.109-0.569c-1.414,0-2.769,0-4.187,0C131.046,96.877,131.046,102.553,131.046,108.361z M131.021,81.816
			c0.212,0.014,0.317,0.041,0.411,0.022c0.133-0.027,0.262-0.079,0.386-0.136c2.341-1.071,3.471-2.963,3.513-5.47
			c0.059-3.57,0.02-7.142,0.016-10.713c0-0.26-0.054-0.521-0.079-0.748c-1.467,0-2.849,0-4.248,0
			C131.021,70.496,131.021,76.121,131.021,81.816z"/>
		<path class="st1" d="M105.273,73.587c0,1.544,0.004,3.089-0.001,4.633c-0.007,1.909-0.516,2.415-2.46,2.417
			c-6.035,0.007-12.07,0.007-18.105,0.009c-2.569,0.001-5.137-0.001-7.706,0c-1.96,0.001-2.471-0.524-2.468-2.518
			c0.004-2.917-0.018-5.835,0.008-8.752c0.04-4.485,3.309-8.123,7.764-8.696c0.872-0.112,1.595,0.103,2.265,0.7
			c3.145,2.803,7.59,2.748,10.789-0.003c0.507-0.436,1.369-0.732,2.029-0.673c4.451,0.396,7.856,4.194,7.882,8.66
			C105.28,70.772,105.273,72.179,105.273,73.587z M81.188,76.814c0-1.252-0.015-2.552,0.004-3.852
			c0.019-1.314,0.725-2.054,1.912-2.051c1.201,0.003,1.903,0.743,1.916,2.041c0.011,1.063,0.045,2.129-0.009,3.189
			c-0.038,0.746,0.262,0.932,0.955,0.924c2.504-0.031,5.008-0.009,7.512-0.016c0.468-0.001,0.936-0.044,1.489-0.072
			c0-1.364-0.003-2.629,0.001-3.894c0.005-1.492,0.581-2.194,1.801-2.205c1.232-0.011,1.842,0.704,1.844,2.169
			c0.002,1.293,0,2.585,0,3.992c0.904,0,1.689,0.047,2.461-0.03c0.219-0.022,0.573-0.407,0.573-0.625
			c0.002-2.776,0.064-5.56-0.129-8.325c-0.128-1.835-1.337-3.058-3.128-3.53c-0.45-0.118-1.047,0.059-1.499,0.267
			c-1.019,0.47-1.943,1.176-2.989,1.552c-3.815,1.368-7.431,0.831-10.746-1.474c-0.752-0.523-1.406-0.555-2.189-0.223
			c-1.675,0.711-2.65,1.976-2.745,3.769c-0.108,2.053-0.066,4.114-0.066,6.172c0.001,2.763,0.011,2.763,2.79,2.397
			C80.977,76.985,81.003,76.95,81.188,76.814z"/>
		<path class="st1" d="M97.621,96.452c-6.764,0.001-13.527,0.001-20.291,0c-1.799,0-2.582-0.527-2.603-1.748
			c-0.021-1.283,0.817-1.884,2.608-1.884c13.527,0.001,27.055,0,40.582,0.001c0.24,0,0.482-0.012,0.721,0.007
			c1.195,0.094,1.918,0.818,1.887,1.881c-0.031,1.069-0.767,1.735-1.995,1.738c-4.257,0.011-8.515,0.004-12.772,0.004
			C103.045,96.452,100.333,96.452,97.621,96.452z"/>
		<path class="st1" d="M97.63,104.463c-6.936-0.001-13.872,0.003-20.808-0.005c-1.326-0.001-2.068-0.644-2.089-1.747
			c-0.022-1.157,0.739-1.875,2.079-1.884c2.919-0.018,5.837-0.008,8.756-0.008c10.851,0,21.701,0,32.552,0.001
			c1.373,0,2.131,0.442,2.352,1.369c0.309,1.296-0.551,2.27-2.034,2.272c-4.189,0.006-8.378,0.001-12.567,0.001
			C103.123,104.464,100.376,104.464,97.63,104.463z"/>
		<path class="st1" d="M97.602,108.839c6.929-0.001,13.858-0.002,20.788,0.001c1.345,0.001,2.131,0.682,2.134,1.821
			c0.003,1.127-0.795,1.822-2.139,1.822c-13.824,0.003-27.648,0.003-41.472-0.002c-1.424-0.001-2.209-0.698-2.179-1.879
			c0.028-1.105,0.772-1.755,2.082-1.758c4.528-0.01,9.056-0.005,13.584-0.005C92.8,108.84,95.201,108.84,97.602,108.839z"/>
		<path class="st1" d="M97.578,88.637c-6.832,0-13.664,0.017-20.496-0.028c-0.657-0.004-1.482-0.234-1.914-0.671
			c-0.354-0.358-0.499-1.323-0.261-1.761c0.286-0.527,1.045-1.029,1.653-1.103c1.353-0.165,2.74-0.06,4.113-0.06
			c12.325-0.001,24.649-0.001,36.974,0.003c0.479,0,0.966,0.003,1.436,0.085c0.949,0.166,1.48,0.879,1.432,1.834
			c-0.047,0.942-0.655,1.635-1.618,1.668c-1.646,0.055-3.295,0.032-4.943,0.033C108.496,88.639,103.037,88.637,97.578,88.637z"/>
		<path class="st1" d="M90.138,45.589c4.424,0.014,8.485,4.112,8.478,8.555c-0.008,4.344-4.126,8.465-8.473,8.479
			c-4.482,0.014-8.586-4.098-8.562-8.577C81.604,49.596,85.673,45.576,90.138,45.589z M90.051,49.231
			c-2.963,0.007-4.846,1.93-4.83,4.931c0.016,2.91,1.942,4.819,4.856,4.812c2.978-0.007,4.881-1.91,4.888-4.89
			C94.973,51.126,93.048,49.225,90.051,49.231z"/>
	</g>
</g>
</svg>
