<?xml version="1.0" encoding="utf-8"?>
<!-- Generator: Adobe Illustrator 22.1.0, SVG Export Plug-In . SVG Version: 6.00 Build 0)  -->
<svg version="1.1" id="Layer_1" xmlns="http://www.w3.org/2000/svg" xmlns:xlink="http://www.w3.org/1999/xlink" x="0px" y="0px"
	 viewBox="0 0 200 155" style="enable-background:new 0 0 200 155;" xml:space="preserve">
<style type="text/css">
	.st0{opacity:0.7;fill:#768693;enable-background:new    ;}
	.st1{fill:#FFFFFF;}
</style>
<circle class="st0" cx="99.667" cy="77.167" r="75.333"/>
<g>
	<path class="st1" d="M139.414,48.875c-0.005-1.06-0.183-2.157-0.491-3.173c-1.287-4.249-5.213-7.114-9.653-7.117
		c-10.768-0.006-21.535-0.004-32.302,0.005c-0.63,0.001-1.265,0.059-1.888,0.151c-5.264,0.774-8.855,4.936-8.856,10.246
		c-0.001,4.32,0,8.639,0,12.959c0,1.357-0.002,1.361-1.364,1.362c-6.765,0.002-13.531-0.028-20.296,0.025
		c-1.377,0.011-2.815,0.124-4.115,0.539c-4.228,1.348-7.001,5.318-7.002,9.759c-0.003,7.972-0.019,15.945,0.021,23.917
		c0.005,1.029,0.207,2.086,0.497,3.078c1.116,3.817,5.026,7.091,9.9,7.057c9.624-0.068,19.248-0.013,28.872-0.032
		c0.786-0.002,1.375,0.223,1.953,0.763c2.735,2.561,5.517,5.072,8.259,7.626c0.776,0.722,1.625,1.021,2.6,0.6
		c0.948-0.409,1.119-1.264,1.117-2.221c-0.014-8.099-0.007-16.199-0.009-24.298c0-1.556-0.733-2.391-2.07-2.376
		c-1.279,0.014-1.97,0.84-1.971,2.366c-0.001,6.225-0.001,12.451-0.001,18.676c0,0.363,0,0.725,0,1.361
		c-0.507-0.411-0.803-0.627-1.072-0.873c-1.708-1.567-3.423-3.127-5.108-4.718c-0.737-0.696-1.56-0.989-2.577-0.987
		c-10.069,0.02-20.137,0.014-30.206,0.011c-3.375-0.001-6.123-2.605-6.142-5.977c-0.045-8.036-0.049-16.072,0.002-24.108
		c0.022-3.44,2.829-6.096,6.261-6.099c7.083-0.006,14.166,0.017,21.249-0.024c0.953-0.005,1.23,0.227,1.224,1.206
		c-0.044,6.987-0.012,13.975-0.035,20.963c-0.004,1.077,0.231,1.948,1.282,2.425c1.042,0.472,1.83-0.012,2.57-0.688
		c2.719-2.485,5.449-4.958,8.151-7.461c0.592-0.548,1.194-0.809,2.029-0.807c9.624,0.029,19.248,0.021,28.872,0.018
		c5.802-0.002,10.317-4.522,10.319-10.33C139.438,64.756,139.454,56.815,139.414,48.875z M135.368,72.845
		c-0.023,3.509-2.801,6.123-6.332,6.126c-9.752,0.007-19.503,0.025-29.255-0.02c-1.575-0.007-2.825,0.49-3.949,1.535
		c-1.488,1.384-3.014,2.727-4.53,4.08c-0.244,0.218-0.523,0.395-1.024,0.769c0-0.675,0-1.07,0-1.465
		c0-11.594-0.001-23.188,0.001-34.782c0.001-3.608,2.636-6.421,6.237-6.437c10.927-0.047,21.854-0.043,32.781-0.001
		c3.372,0.013,6.054,2.712,6.074,6.085C135.416,56.772,135.42,64.809,135.368,72.845z"/>
	<path class="st1" d="M112.034,50.782c-2.977,0.327-5.497,3.196-5.415,6.164c0.033,1.182,0.808,2.018,1.921,2.072
		c1.123,0.055,1.971-0.701,2.125-1.862c0.049-0.372,0.1-0.767,0.264-1.095c0.417-0.835,1.111-1.282,2.073-1.238
		c0.964,0.045,1.592,0.577,1.957,1.427c0.38,0.883-0.065,1.527-0.696,2.086c-0.547,0.484-1.121,0.938-1.656,1.434
		c-1.154,1.071-2.241,2.188-2.223,4.05c-0.016,1.093,0.547,1.888,1.541,2.049c1.104,0.179,1.991-0.384,2.373-1.303
		c0.277-0.668,0.702-1.304,1.178-1.853c0.495-0.57,1.154-0.993,1.701-1.523c1.551-1.504,2.302-3.263,1.878-5.483
		C118.462,52.599,115.404,50.412,112.034,50.782z"/>
	<path class="st1" d="M112.403,68.123c-1.099,0.01-1.962,0.887-1.971,2.002c-0.009,1.163,0.875,2.051,2.029,2.037
		c1.084-0.014,1.991-0.918,2.005-2C114.48,69.051,113.531,68.113,112.403,68.123z"/>
	<path class="st1" d="M83.163,92.703c0.384-0.327,0.687-0.745,0.908-1.254c0.221-0.509,0.356-1.042,0.404-1.6
		c0.048-0.557,0.004-1.105-0.13-1.643c-0.135-0.538-0.365-0.999-0.692-1.384c-0.596-0.692-1.264-1.22-2.004-1.586
		c-0.74-0.365-1.533-0.711-2.379-1.038c0.019-0.634,0.029-1.316,0.029-2.047c0-0.73,0-1.413,0-2.047
		c0.231,0.077,0.456,0.164,0.677,0.26c0.221,0.096,0.442,0.187,0.663,0.274c0.221,0.087,0.447,0.149,0.677,0.187
		c0.231,0.039,0.471,0.039,0.721,0c0.423-0.077,0.735-0.226,0.937-0.447c0.202-0.221,0.312-0.466,0.331-0.735
		c0.019-0.269-0.043-0.552-0.187-0.85c-0.144-0.298-0.351-0.562-0.62-0.793c-0.423-0.384-0.923-0.673-1.499-0.865
		c-0.576-0.192-1.134-0.355-1.672-0.49c0-0.442,0-0.884,0-1.326c0-0.442-0.087-0.874-0.259-1.297
		c-0.115-0.269-0.274-0.485-0.476-0.649c-0.202-0.163-0.418-0.274-0.649-0.332c-0.231-0.058-0.471-0.053-0.721,0.014
		c-0.25,0.068-0.471,0.216-0.663,0.447c-0.173,0.192-0.303,0.414-0.389,0.663c-0.087,0.25-0.144,0.509-0.173,0.778
		c-0.029,0.269-0.043,0.543-0.043,0.822c0,0.279,0,0.533,0,0.764c-0.711,0.115-1.422,0.389-2.133,0.822
		c-0.711,0.433-1.307,0.961-1.788,1.586c-0.481,0.625-0.783,1.307-0.908,2.047c-0.125,0.74,0.033,1.485,0.476,2.234
		c0.48,0.807,1.114,1.451,1.903,1.932c0.788,0.481,1.595,0.913,2.422,1.297c0,0.673-0.005,1.398-0.014,2.177
		c-0.01,0.778-0.014,1.504-0.014,2.177c-0.097-0.038-0.212-0.091-0.346-0.159c-0.135-0.067-0.25-0.13-0.346-0.187
		c-0.173-0.115-0.341-0.25-0.504-0.404c-0.164-0.154-0.331-0.307-0.504-0.461c-0.173-0.154-0.351-0.288-0.533-0.404
		c-0.183-0.115-0.389-0.182-0.62-0.202c-0.423-0.058-0.769-0.004-1.038,0.159c-0.269,0.164-0.471,0.385-0.605,0.663
		c-0.135,0.279-0.187,0.587-0.158,0.923c0.029,0.337,0.13,0.649,0.303,0.937c0.557,0.673,1.201,1.25,1.932,1.73
		c0.73,0.481,1.528,0.827,2.393,1.038c0,0.442-0.005,0.923-0.014,1.441c-0.01,0.519,0.13,0.97,0.418,1.355
		c0.211,0.288,0.471,0.471,0.778,0.548c0.307,0.077,0.61,0.072,0.908-0.014c0.298-0.087,0.562-0.241,0.793-0.461
		c0.231-0.221,0.375-0.486,0.432-0.793c0.058-0.288,0.082-0.615,0.072-0.98c-0.01-0.365-0.014-0.682-0.014-0.951
		c0.73-0.173,1.422-0.404,2.076-0.692C81.971,93.597,82.586,93.203,83.163,92.703z M75.927,82.872
		c-0.346-0.231-0.62-0.427-0.822-0.591c-0.202-0.163-0.36-0.312-0.476-0.447c-0.115-0.134-0.192-0.269-0.231-0.404
		c-0.039-0.134-0.068-0.288-0.086-0.461c0.096-0.211,0.264-0.423,0.504-0.634c0.24-0.211,0.61-0.317,1.11-0.317V82.872z
		 M80.886,90.252c-0.173,0.269-0.538,0.529-1.096,0.778c-0.096,0.039-0.187,0.072-0.274,0.101c-0.086,0.029-0.178,0.063-0.274,0.101
		c0-0.5,0.004-1.047,0.014-1.643c0.01-0.596,0.014-1.143,0.014-1.643c0.442,0.231,0.817,0.471,1.124,0.721
		c0.307,0.25,0.509,0.509,0.605,0.778C81.097,89.715,81.059,89.984,80.886,90.252z"/>
</g>
</svg>
