<?xml version="1.0" encoding="utf-8"?>
<!-- Generator: Adobe Illustrator 21.0.2, SVG Export Plug-In . SVG Version: 6.00 Build 0)  -->
<svg version="1.1" id="Layer_1" xmlns="http://www.w3.org/2000/svg" xmlns:xlink="http://www.w3.org/1999/xlink" x="0px" y="0px"
	 viewBox="0 0 200 155" style="enable-background:new 0 0 200 155;" xml:space="preserve">
<style type="text/css">
	.st0{opacity:0.7;fill:#768693;enable-background:new    ;}
	.st1{fill:#FFFFFF;}
</style>
<circle class="st0" cx="99.667" cy="77.167" r="75.333"/>
<g id="yYXLT1.tif">
	<g>
		<path class="st1" d="M130.333,61.313c-10.033,0.003-20.067,0.006-30.1,0.007c-0.145,0-0.29-0.022-0.474-0.037
			c0-4.731,0-9.434,0-14.217c0.265,0,0.496-0.023,0.721,0.004c1.533,0.178,2.922-0.263,4.318-0.858
			c3.899-1.662,7.828-3.254,11.744-4.875c2.342-0.97,4.683-1.941,7.022-2.916c0.588-0.245,1.16-0.325,1.675,0.144
			c0.42,0.382,0.598,0.914,0.338,1.39c-0.215,0.393-0.614,0.784-1.023,0.956c-4.674,1.962-9.366,3.881-14.052,5.814
			c-0.135,0.056-0.263,0.129-0.385,0.342c0.212,0,0.423,0,0.635,0c3.843,0,7.685-0.005,11.528,0.005
			c1.332,0.003,2.626,0.185,3.85,0.784c2.173,1.063,3.517,2.763,4.083,5.101c0.024,0.099,0.079,0.19,0.12,0.285
			C130.333,55.932,130.333,58.623,130.333,61.313z"/>
		<path class="st1" d="M130.333,85.402c-0.275-0.017-0.55-0.049-0.825-0.049c-9.623-0.003-19.246-0.002-28.869-0.002
			c-0.273,0-0.546,0-0.87,0c0-4.877,0-9.684,0-14.556c0.205-0.016,0.409-0.047,0.613-0.047c9.815-0.002,19.63-0.002,29.445,0.001
			c0.169,0,0.337,0.031,0.506,0.047C130.333,75.664,130.333,80.533,130.333,85.402z"/>
		<path class="st1" d="M130.333,108.593c-0.444,0.02-0.888,0.04-1.393,0.062c-0.035,0.452-0.048,0.892-0.107,1.326
			c-0.214,1.59-1.489,2.684-3.03,2.616s-2.689-1.265-2.767-2.885c-0.052-1.086-0.052-1.085-1.169-1.085c-3.223,0-6.445,0-9.668,0
			c-0.252,0-0.505,0-0.815,0c-0.034,0.467-0.043,0.886-0.098,1.299c-0.215,1.642-1.48,2.747-3.039,2.671
			c-1.56-0.076-2.698-1.295-2.762-2.959c-0.006-0.149-0.019-0.301,0-0.448c0.059-0.468-0.17-0.575-0.597-0.571
			c-1.684,0.018-3.368,0.007-5.13,0.007c-0.014-0.244-0.036-0.447-0.036-0.649c-0.003-1.302,0.03-2.605-0.015-3.905
			c-0.02-0.588,0.187-0.71,0.731-0.704c2.369,0.027,4.738,0.012,7.107,0.012c7.32,0,14.64,0,21.96-0.002
			c0.276,0,0.552-0.026,0.828-0.039C130.333,105.091,130.333,106.842,130.333,108.593z"/>
		<path class="st1" d="M130.333,92.961c-0.234,0.011-0.468,0.031-0.702,0.032c-9.673,0.001-19.345,0.001-29.018,0
			c-0.271,0-0.542,0-0.854,0c0-1.668,0-3.255,0-4.878c0.222-0.014,0.409-0.037,0.596-0.037c9.886-0.002,19.772-0.001,29.659,0
			c0.107,0,0.213,0.009,0.32,0.014C130.333,89.715,130.333,91.338,130.333,92.961z"/>
		<path class="st1" d="M130.333,100.649c-7.516,0.004-15.032,0.008-22.548,0.012c-2.434,0.001-4.868,0-7.302,0
			c-0.229,0-0.457,0-0.724,0c0-1.651,0-3.222,0-4.869c0.196-0.017,0.398-0.05,0.6-0.05c9.843-0.003,19.687-0.002,29.53-0.001
			c0.148,0,0.296,0.025,0.444,0.038C130.333,97.403,130.333,99.026,130.333,100.649z"/>
		<path class="st1" d="M66.284,58.729c0-3.994,0-7.851,0-11.746c10.204,0,20.356,0,30.555,0c0,20.523,0,41.029,0,61.626
			c-0.993,0-1.981,0-3.004,0c-0.039,0.507-0.052,0.929-0.106,1.346c-0.206,1.604-1.454,2.7-2.994,2.644
			c-1.509-0.055-2.659-1.209-2.79-2.801c-0.097-1.174-0.097-1.173-1.277-1.172c-3.694,0.001-7.388,0-11.081,0.001
			c-0.209,0-0.419,0-0.737,0c0,0.368,0.004,0.677-0.001,0.986c-0.023,1.692-1.243,2.967-2.859,2.99
			c-1.594,0.023-2.843-1.189-2.932-2.846c-0.061-1.13-0.061-1.13-1.198-1.13c-0.507,0-1.013,0-1.587,0c0-0.321,0-0.571,0-0.822
			c0-7.366-0.01-14.732,0.018-22.099c0.002-0.653-0.22-0.897-0.798-1.131c-4.362-1.77-8.705-3.589-13.058-5.379
			c-1.371-0.564-2.179-1.548-2.299-3.028c-0.18-2.23,2.256-4.343,4.835-3.227c3.499,1.513,7.039,2.931,10.563,4.386
			c0.213,0.088,0.435,0.153,0.7,0.245c0.016-0.209,0.038-0.371,0.038-0.533c0.002-3.48-0.006-6.961,0.011-10.441
			c0.002-0.425-0.116-0.645-0.523-0.81c-3.691-1.498-7.374-3.015-11.055-4.535c-0.925-0.382-1.853-0.763-2.752-1.202
			c-1.549-0.757-2.23-2.611-1.58-4.183c0.694-1.676,2.497-2.574,4.132-1.943c2.523,0.973,5.014,2.03,7.518,3.054
			C63.401,57.541,64.775,58.109,66.284,58.729z"/>
	</g>
</g>
</svg>
