<?xml version="1.0" encoding="utf-8"?>
<!-- Generator: Adobe Illustrator 25.1.0, SVG Export Plug-In . SVG Version: 6.00 Build 0)  -->
<svg version="1.1" id="Layer_1" xmlns="http://www.w3.org/2000/svg" xmlns:xlink="http://www.w3.org/1999/xlink" x="0px" y="0px"
	 viewBox="0 0 50 50" style="enable-background:new 0 0 50 50;" xml:space="preserve">
<style type="text/css">
	.st0{display:none;}
	.st1{display:inline;}
	.st2{fill:#FFFFFF;}
</style>
<g id="_x34_2FiKe_1_" class="st0">
	<g class="st1">
		<path d="M7.229,7.897c0.43,0,0.766,0,1.102,0c7.634,0,15.268,0.009,22.902-0.016c0.704-0.002,1.197,0.202,1.688,0.696
			c1.459,1.467,2.981,2.871,4.444,4.335c0.256,0.256,0.484,0.682,0.485,1.03c0.024,11.095,0.018,22.19,0.013,33.285
			c0,0.129-0.041,0.257-0.073,0.44c-10.188,0-20.345,0-30.56,0C7.229,34.415,7.229,21.229,7.229,7.897z M9.96,10.613
			c0,11.492,0,22.907,0,34.349c8.425,0,16.786,0,25.161,0c0-10.078,0-20.097,0-30.169c-1.161,0-2.247-0.043-3.328,0.014
			c-0.78,0.041-1.106-0.172-1.048-1.012c0.072-1.038,0.017-2.085,0.017-3.183C23.789,10.613,16.917,10.613,9.96,10.613z"/>
		<path d="M43.036,41.57c-1.245,0-2.451,0-3.726,0c0-0.854,0-1.682,0-2.568c0.322-0.054,0.641-0.108,1.002-0.169
			c0-10.032,0-20.025,0-30.124c-1.426,0-2.8,0-4.278,0c0-1.441,0-2.78,0-4.19c-7.036,0-13.967,0-20.962,0
			c-0.027,0.624-0.053,1.218-0.082,1.865c-0.864,0-1.663,0-2.537,0c0-1.497,0-2.97,0-4.592c0.345,0,0.703,0,1.06,0
			c7.635,0,15.27,0.009,22.905-0.015c0.703-0.002,1.204,0.2,1.694,0.695c1.456,1.471,2.977,2.878,4.425,4.355
			c0.293,0.299,0.538,0.8,0.539,1.209c0.029,10.927,0.023,21.853,0.021,32.78C43.095,41.047,43.06,41.277,43.036,41.57z"/>
		<path d="M22.158,40.501c-2.578,0-5.156-0.006-7.735,0.004c-0.754,0.003-1.401-0.151-1.422-1.054
			c-0.022-0.968,0.668-1.143,1.452-1.144c5.19-0.001,10.381,0.002,15.571-0.002c0.76-0.001,1.42,0.212,1.435,1.074
			c0.016,0.924-0.649,1.135-1.465,1.129C27.382,40.489,24.77,40.501,22.158,40.501z"/>
		<path d="M22.503,28.51c2.576,0,5.153,0.005,7.729-0.003c0.772-0.003,1.467,0.086,1.52,1.066c0.042,0.775-0.452,1.132-1.564,1.134
			c-5.119,0.005-10.237-0.001-15.356,0.006c-0.784,0.001-1.458-0.144-1.535-1.082c-0.061-0.75,0.479-1.117,1.578-1.119
			C17.418,28.507,19.96,28.51,22.503,28.51z"/>
		<path d="M22.506,20.949c-2.61,0-5.22-0.014-7.83,0.009c-0.802,0.007-1.374-0.248-1.371-1.106c0.003-0.81,0.599-1.081,1.322-1.082
			c5.288-0.005,10.576-0.008,15.864,0.005c0.719,0.002,1.279,0.289,1.258,1.13c-0.021,0.842-0.568,1.053-1.31,1.049
			C27.794,20.942,25.15,20.949,22.506,20.949z"/>
		<path d="M22.56,26.026c-2.542,0-5.085-0.007-7.627,0.004c-0.801,0.004-1.549-0.062-1.634-1.076
			c-0.063-0.748,0.484-1.124,1.579-1.125c5.119-0.004,10.237,0.001,15.356-0.004c0.772-0.001,1.497,0.102,1.511,1.075
			c0.015,1.043-0.75,1.131-1.557,1.129C27.644,26.022,25.102,26.026,22.56,26.026z"/>
		<path d="M22.508,33.59c2.609,0,5.218,0.01,7.827-0.006c0.756-0.004,1.391,0.115,1.412,1.04c0.02,0.915-0.623,1.129-1.362,1.13
			c-5.218,0.01-10.436,0.007-15.654,0.004c-0.744,0-1.417-0.205-1.423-1.084c-0.007-0.944,0.666-1.101,1.475-1.093
			C17.358,33.606,19.933,33.59,22.508,33.59z"/>
	</g>
</g>
<g>
	<path class="st2" d="M45.596,17.576c-5.773-2.622-11.545-5.244-17.324-7.852c-0.222-0.1-0.511-0.117-0.757-0.085
		c-0.97,0.127-1.936,0.29-2.904,0.44c-2.181,0.336-4.362,0.669-6.541,1.01c-0.556,0.087-0.866,0.505-0.78,1.025
		c0.066,0.401,0.345,0.58,0.705,0.726c1.237,0.501,2.467,1.019,3.686,1.563c0.329,0.147,0.606,0.41,0.907,0.619
		c-0.003,0.053-0.007,0.106-0.01,0.159c-0.555,0.178-1.099,0.433-1.668,0.521c-1.716,0.264-3.438,0.491-5.163,0.68
		c-3.593,0.394-7.189,0.764-10.786,1.119c-0.501,0.049-0.901,0.182-1.173,0.615c0,0.193,0,0.387,0,0.58
		c0.205,0.195,0.383,0.434,0.618,0.58c2.808,1.727,5.627,3.435,8.434,5.163c0.354,0.218,0.696,0.29,1.098,0.22
		c1.997-0.347,3.995-0.685,5.993-1.025c4.798-0.818,9.596-1.636,14.393-2.454c3.683-0.629,7.366-1.257,11.049-1.889
		c0.504-0.087,0.787-0.365,0.832-0.783C46.249,18.107,46.044,17.779,45.596,17.576z"/>
	<path class="st2" d="M45.716,21.014c-0.828,0.142-1.615,0.278-2.402,0.412c-4.541,0.773-9.081,1.549-13.623,2.311
		c-0.28,0.047-0.325,0.169-0.322,0.408c0.01,0.718,0.033,1.437-0.004,2.153c-0.03,0.586,0.203,0.936,0.707,1.228
		c4.714,2.732,9.417,5.483,14.121,8.232c0.351,0.205,0.696,0.342,1.086,0.112c0.387-0.228,0.441-0.591,0.441-1
		c-0.006-4.474-0.004-8.947-0.004-13.421C45.716,21.314,45.716,21.178,45.716,21.014z"/>
	<path class="st2" d="M11.34,25.566c-1.519-0.926-3.036-1.854-4.555-2.78c-0.702-0.428-1.405-0.855-2.161-1.314
		c-0.012,0.141-0.021,0.196-0.021,0.251c-0.001,3.657,0.003,7.314-0.006,10.972c-0.001,0.423,0.205,0.69,0.507,0.937
		c1.184,0.971,2.362,1.95,3.543,2.926c1.117,0.923,2.228,1.852,3.352,2.766c0.532,0.432,1.208,0.261,1.411-0.348
		c0.059-0.178,0.065-0.379,0.065-0.57c0.003-3.85,0.003-7.701,0.002-11.551c0-0.12-0.012-0.241-0.021-0.397
		C12.622,26.441,11.997,25.966,11.34,25.566z"/>
</g>
</svg>
