<?xml version="1.0" encoding="utf-8"?>
<!-- Generator: Adobe Illustrator 21.0.2, SVG Export Plug-In . SVG Version: 6.00 Build 0)  -->
<svg version="1.1" id="Layer_1" xmlns="http://www.w3.org/2000/svg" xmlns:xlink="http://www.w3.org/1999/xlink" x="0px" y="0px"
	 viewBox="0 0 200 155" style="enable-background:new 0 0 200 155;" xml:space="preserve">
<style type="text/css">
	.st0{opacity:0.7;fill:#768693;enable-background:new    ;}
	.st1{fill:#FFFFFF;}
</style>
<circle class="st0" cx="99.667" cy="77.167" r="75.333"/>
<g id="pDnjv0.tif">
	<g>
		<path class="st1" d="M108.277,31.126c1.338,0,2.677,0,4.015,0c0.856,0.187,1.726,0.324,2.564,0.568
			c6.341,1.847,10.675,5.83,12.121,12.338c1.456,6.553-0.856,11.935-6.033,16.128c-0.17,0.138-0.322,0.298-0.595,0.553
			c0.411,0,0.653-0.002,0.894,0c2.528,0.027,3.998,1.512,4.002,4.043c0.002,1.578,0,3.156,0,4.873
			c8.742-3.369,17.381-6.698,26.057-10.041c0,12.94,0,25.761,0,38.682c-8.706-3.354-17.34-6.681-26.057-10.04
			c0,0.786,0,1.423,0,2.061c0,0.912-0.063,1.83,0.012,2.736c0.203,2.451-1.661,4.15-4.121,4.141
			c-8.424-0.03-16.848-0.012-25.272-0.012c-0.35,0-0.699,0-1.259,0c5.897,8.715,11.673,17.252,17.482,25.837
			c-0.905,0.557-1.724,1.061-2.58,1.588c-5.271-7.782-10.501-15.505-15.732-23.228c-0.075,0.027-0.15,0.054-0.225,0.08
			c0,7.552,0,15.105,0,22.693c-1.061,0-2.014,0-3.068,0c0-7.615,0-15.169,0-22.722c-0.064-0.02-0.128-0.041-0.192-0.061
			c-5.247,7.746-10.494,15.492-15.748,23.249c-0.906-0.569-1.698-1.068-2.563-1.612c5.809-8.585,11.586-17.122,17.439-25.771
			c-0.437-0.024-0.701-0.051-0.964-0.052c-2.859-0.002-5.717,0-8.576,0c-4.531,0-9.063,0.008-13.594-0.006
			c-2.332-0.007-3.985-1.489-3.988-3.601c-0.012-9.762-0.009-19.524-0.001-29.286c0.001-1.496,0.811-2.498,2.081-3.177
			c0.217-0.116,0.455-0.193,0.696-0.294c-0.076-0.099-0.09-0.128-0.113-0.145c-0.24-0.186-0.484-0.367-0.723-0.554
			c-2.941-2.308-4.935-5.245-5.876-8.874c-0.174-0.67-0.305-1.351-0.456-2.027c0-1.217,0-2.433,0-3.65
			c0.051-0.107,0.131-0.209,0.15-0.321c1.153-6.746,5.155-11.036,11.495-13.273c1.071-0.378,2.212-0.554,3.321-0.824
			c1.338,0,2.677,0,4.015,0c0.557,0.122,1.117,0.234,1.67,0.369c6.742,1.639,11.365,5.63,12.938,12.475
			c1.503,6.543-0.79,11.929-5.939,16.146c-0.188,0.154-0.369,0.318-0.625,0.538c5.196,0,10.25,0,15.461,0
			c-0.424-0.34-0.731-0.572-1.022-0.822c-4.753-4.083-6.937-9.2-5.69-15.412c1.347-6.714,5.694-10.78,12.146-12.72
			C106.628,31.458,107.459,31.315,108.277,31.126z M76.608,70.45c0,0.993,0,1.885,0,2.773c11.442,0,22.821,0,34.174,0
			c0-0.967,0-1.859,0-2.773C99.373,70.45,88.043,70.45,76.608,70.45z"/>
	</g>
</g>
</svg>
