<?xml version="1.0" encoding="utf-8"?>
<!-- Generator: Adobe Illustrator 22.1.0, SVG Export Plug-In . SVG Version: 6.00 Build 0)  -->
<svg version="1.1" id="Layer_1" xmlns="http://www.w3.org/2000/svg" xmlns:xlink="http://www.w3.org/1999/xlink" x="0px" y="0px"
	 viewBox="0 0 200 155" style="enable-background:new 0 0 200 155;" xml:space="preserve">
<style type="text/css">
	.st0{opacity:0.7;fill:#768693;enable-background:new    ;}
	.st1{fill:#FFFFFF;}
</style>
<circle class="st0" cx="99.667" cy="77.167" r="75.333"/>
<g>
	<polygon class="st1" points="76.936,76.368 80.338,43.31 87.034,43.006 87.846,41.133 68.104,40.238 68.871,44.229 75.026,43.568 
		74.462,75.803 	"/>
	<path class="st1" d="M67.389,91.723c-1.176-0.569-2.001-1.086-2.476-1.549c-0.476-0.465-0.713-1.055-0.713-1.774
		c0-0.778,0.215-1.424,0.64-1.939c0.427-0.515,1.021-0.771,1.785-0.771c0.816,0,1.447,0.31,1.897,0.928
		c0.448,0.619,0.671,1.428,0.671,2.425h3.714l0.026-0.09c0.036-1.907-0.528-3.486-1.694-4.739c-1.168-1.253-2.683-1.88-4.549-1.88
		c-1.84,0-3.351,0.561-4.535,1.685c-1.184,1.122-1.777,2.577-1.777,4.364c0,1.807,0.509,3.211,1.527,4.215
		c1.02,1.003,2.547,1.899,4.583,2.688c0.996,0.479,1.691,0.965,2.086,1.46c0.396,0.494,0.593,1.167,0.593,2.014
		c0,0.819-0.195,1.468-0.585,1.947c-0.392,0.478-0.991,0.718-1.797,0.718c-1.031,0-1.805-0.294-2.315-0.884
		c-0.512-0.59-0.768-1.557-0.768-2.905h-3.727l-0.028,0.09c-0.045,2.267,0.617,4.006,1.986,5.218
		c1.369,1.213,2.985,1.819,4.851,1.819c1.874,0,3.378-0.534,4.507-1.602c1.131-1.069,1.696-2.546,1.695-4.43
		c0-1.827-0.468-3.277-1.405-4.349C70.643,93.308,69.247,92.422,67.389,91.723z"/>
	<path class="st1" d="M82.286,88.247v12.082c-0.225,0.34-0.496,0.597-0.814,0.772c-0.318,0.175-0.688,0.262-1.111,0.262
		c-0.493,0-0.866-0.259-1.117-0.779c-0.252-0.52-0.376-1.355-0.376-2.504v-9.834h-3.822v9.793c0,2.296,0.367,3.99,1.097,5.083
		c0.73,1.093,1.747,1.639,3.049,1.639c0.708,0,1.344-0.187,1.904-0.561c0.56-0.375,1.038-0.917,1.434-1.626l0.228,1.872h3.363v-16.2
		H82.286z"/>
	<path class="st1" d="M95.109,87.948c-0.628,0-1.182,0.165-1.662,0.494c-0.479,0.329-0.895,0.799-1.244,1.407l-0.135-1.603H88.53
		v22.43h3.821v-7.487c0.341,0.519,0.743,0.911,1.205,1.176c0.461,0.265,0.988,0.396,1.581,0.396c1.515,0,2.694-0.657,3.538-1.969
		c0.843-1.312,1.264-3.047,1.264-5.202V95.6c0-2.296-0.421-4.145-1.264-5.548C97.832,88.65,96.644,87.948,95.109,87.948z
		 M96.119,97.587c0,1.179-0.154,2.104-0.463,2.774c-0.31,0.669-0.819,1.004-1.528,1.004c-0.421,0-0.779-0.091-1.069-0.27
		c-0.292-0.179-0.528-0.45-0.708-0.81v-7.648c0.179-0.41,0.417-0.727,0.713-0.952c0.296-0.225,0.645-0.337,1.048-0.337
		c0.692,0,1.198,0.387,1.522,1.164c0.323,0.775,0.484,1.802,0.484,3.081V97.587z"/>
	<path class="st1" d="M108.498,87.948c-0.628,0-1.182,0.165-1.662,0.494c-0.479,0.329-0.895,0.799-1.244,1.407l-0.135-1.603h-3.538
		v22.43h3.821v-7.487c0.341,0.519,0.743,0.911,1.205,1.176c0.461,0.265,0.988,0.396,1.581,0.396c1.515,0,2.694-0.657,3.538-1.969
		c0.843-1.312,1.264-3.047,1.264-5.202V95.6c0-2.296-0.421-4.145-1.264-5.548C111.221,88.65,110.033,87.948,108.498,87.948z
		 M109.508,97.587c0,1.179-0.154,2.104-0.463,2.774c-0.31,0.669-0.819,1.004-1.528,1.004c-0.421,0-0.779-0.091-1.069-0.27
		c-0.292-0.179-0.528-0.45-0.708-0.81v-7.648c0.179-0.41,0.417-0.727,0.713-0.952c0.296-0.225,0.645-0.337,1.048-0.337
		c0.692,0,1.197,0.387,1.522,1.164c0.323,0.775,0.484,1.802,0.484,3.081V97.587z"/>
	<path class="st1" d="M120.757,87.948c-1.866,0-3.317,0.692-4.353,2.074c-1.037,1.382-1.555,3.161-1.555,5.338v2.006
		c0,2.196,0.519,3.978,1.555,5.346c1.036,1.368,2.491,2.051,4.365,2.051c1.857,0,3.307-0.684,4.347-2.051
		c1.041-1.368,1.561-3.15,1.561-5.346V95.36c0-2.175-0.52-3.955-1.561-5.338C124.075,88.64,122.622,87.948,120.757,87.948z
		 M122.856,97.36c0,1.24-0.16,2.216-0.478,2.932c-0.318,0.715-0.854,1.072-1.608,1.072c-0.78,0-1.327-0.356-1.641-1.065
		c-0.314-0.709-0.47-1.689-0.47-2.939v-2.009c0-1.21,0.159-2.179,0.478-2.909c0.318-0.73,0.858-1.095,1.621-1.095
		c0.762,0,1.304,0.362,1.621,1.086c0.318,0.726,0.478,1.697,0.478,2.917V97.36z"/>
	<path class="st1" d="M134.912,87.947c-0.555,0-1.043,0.223-1.46,0.667c-0.417,0.444-0.742,1.055-0.976,1.834l-0.067-0.031
		l-0.149-2.171h-3.566v16.199h3.821V93.337c0.145-0.399,0.348-0.708,0.613-0.928c0.264-0.22,0.599-0.329,1.002-0.329l1.439,0.045
		l0.182-1.856v-2.022v-0.182c-0.092-0.024-0.19-0.047-0.296-0.066C135.265,87.965,135.083,87.947,134.912,87.947z"/>
	<path class="st1" d="M144.575,101.141c-0.198,0.06-0.377,0.102-0.538,0.127c-0.161,0.025-0.359,0.037-0.593,0.037
		c-0.295,0-0.529-0.143-0.7-0.427c-0.17-0.284-0.254-0.757-0.254-1.415v-8.13h2.019v-3.085h-2.019V84.22h-3.822v4.028h-1.519
		l-0.203,2.081v1.004h1.722v8.144c0,1.837,0.326,3.177,0.976,4.02c0.651,0.844,1.59,1.265,2.819,1.265
		c0.467,0,0.884-0.03,1.252-0.09c0.368-0.061,0.754-0.16,1.158-0.299L144.575,101.141z"/>
	<path class="st1" d="M122.989,52.512l-0.112-0.017c-1.08-2.799-3.181-4.054-5.33-4.364c-0.341-0.049-0.686-0.074-1.034-0.074
		c-4.213,0-8.799,3.621-10.098,11.099c-1.102,6.341-0.316,14.172,6.863,15.21c0.354,0.051,0.703,0.075,1.046,0.075
		c2.615,0,4.85-1.401,5.885-2.933l0.17,0.024l-1.656,12.869l3.094-0.45l4.859-26.308l1.317-7.579l-4.941-2.247L122.989,52.512z
		 M121.831,58.845l-0.726,6.185c-0.49,4.34-3.305,5.811-5.252,5.811c-0.176,0-0.345-0.013-0.505-0.035
		c-4.976-0.719-5.318-7.429-4.583-11.656c0.785-4.525,2.944-7.93,6.218-7.931c0.233,0,0.471,0.017,0.716,0.052
		C120.695,51.705,122.315,55.057,121.831,58.845z"/>
	<path class="st1" d="M97.931,73.685c2.092-0.302,4.187-0.922,5.276-1.661l-1.749-3.394c-0.88,0.603-2.167,1.211-3.976,1.473
		c-0.283,0.041-0.575,0.03-0.856,0.07c-0.235,0.012-0.473,0.019-0.712,0.019c-3.345,0-7.105-1.395-8.189-8.883l14.437-0.975
		c-0.12-1.354-0.181-2.033-0.368-3.116c-0.892-5.134-3.189-9.485-8.765-9.485c-0.248,0-0.501,0.009-0.762,0.026
		c-0.225,0.032-0.517,0.02-0.744,0.053c-6.051,0.875-8.291,7.329-7.011,14.701c0.935,5.38,4.056,11.328,11.297,11.328
		C96.48,73.844,97.187,73.793,97.931,73.685z M91.632,50.442c0.203-0.03,0.402-0.044,0.599-0.044c2.641,0,4.606,2.637,5.364,7.005
		l-9.714,1.139C87.488,54.951,88.295,50.923,91.632,50.442z"/>
</g>
</svg>
