<?xml version="1.0" encoding="utf-8"?>
<!-- Generator: Adobe Illustrator 22.1.0, SVG Export Plug-In . SVG Version: 6.00 Build 0)  -->
<svg version="1.1" id="Layer_1" xmlns="http://www.w3.org/2000/svg" xmlns:xlink="http://www.w3.org/1999/xlink" x="0px" y="0px"
	 viewBox="0 0 200 155" style="enable-background:new 0 0 200 155;" xml:space="preserve">
<style type="text/css">
	.st0{opacity:0.7;fill:#768693;enable-background:new    ;}
	.st1{fill:#FFFFFF;}
</style>
<circle class="st0" cx="99.667" cy="77.167" r="75.333"/>
<g>
	<path class="st1" d="M117.427,59.661c-2.748,0-4.984,2.235-4.984,4.984s2.235,4.984,4.984,4.984s4.984-2.235,4.984-4.984
		S120.175,59.661,117.427,59.661z M117.427,67.629c-1.648,0-2.985-1.336-2.985-2.985s1.336-2.985,2.985-2.985
		c1.648,0,2.985,1.336,2.985,2.985S119.075,67.629,117.427,67.629z"/>
	<path class="st1" d="M86.024,59.661c-2.748,0-4.984,2.235-4.984,4.984s2.235,4.984,4.984,4.984s4.984-2.235,4.984-4.984
		S88.772,59.661,86.024,59.661z M86.024,67.629c-1.648,0-2.984-1.336-2.984-2.985s1.336-2.985,2.984-2.985
		c1.648,0,2.985,1.336,2.985,2.985S87.672,67.629,86.024,67.629z"/>
	<path class="st1" d="M138.319,43.104c-0.779-0.908-9.343-3.893-9.343-3.893s0,3.763-0.26,5.45c-0.26,1.687-2.076,6.099-6.488,9.083
		c-4.412,2.984-20.503,2.725-20.503,2.725s-16.091,0.259-20.503-2.725c-4.412-2.985-6.229-7.397-6.488-9.083
		c-0.26-1.687-0.26-5.45-0.26-5.45s-8.564,2.985-9.343,3.893c-0.779,0.908-1.427,7.916-1.427,21.151
		c0,13.236,1.817,18.427,3.244,18.946c1.427,0.519,9.36,2.593,14.793,3.114c9.473,0.908,13.625,3.893,13.625,3.893s3.504,0,6.359,0
		c2.855,0,6.358,0,6.358,0s4.152-2.985,13.625-3.893c5.433-0.521,13.366-2.595,14.793-3.114c1.427-0.519,3.244-5.71,3.244-18.946
		C139.746,51.02,139.097,44.012,138.319,43.104z M86.024,70.148c-3.034,0-5.503-2.469-5.503-5.503s2.469-5.503,5.503-5.503
		c3.034,0,5.503,2.469,5.503,5.503S89.058,70.148,86.024,70.148z M101.206,83.461c-1.648,0-2.985-1.336-2.985-2.985
		s1.336-2.985,2.985-2.985c1.648,0,2.985,1.336,2.985,2.985S102.855,83.461,101.206,83.461z M117.427,70.148
		c-3.034,0-5.503-2.469-5.503-5.503s2.469-5.503,5.503-5.503s5.503,2.469,5.503,5.503S120.461,70.148,117.427,70.148z"/>
	<path class="st1" d="M98.675,55.526c0.783,0,1.487-0.009,2.084-0.017l0.966-0.009l0.966,0.009c5.584,0.064,20.4,0.259,23.869-7.862
		c1.443-3.379,1.012-8.553,0.993-8.772c-0.016-0.182-0.094-0.354-0.221-0.485c-0.412-0.427-10.265-10.452-25.608-10.452
		S76.529,37.963,76.117,38.39c-0.127,0.131-0.205,0.303-0.221,0.485c-0.019,0.219-0.449,5.394,0.993,8.772
		C79.988,54.901,92.137,55.526,98.675,55.526z M101.725,29.536c3.879,0,7.398,0.703,10.498,1.723
		c-1.344,1.647-3.545,4.174-4.601,4.675c-1.295,0.614-4.7,0.78-5.892,0.793c-1.203-0.013-4.607-0.179-5.902-0.793
		c-1.056-0.501-3.259-3.031-4.603-4.678C94.324,30.238,97.843,29.536,101.725,29.536z M77.469,39.301
		c0.993-0.953,5.6-5.109,12.678-7.682c1.132,1.41,3.786,4.595,5.226,5.277c1.772,0.839,6.161,0.893,6.358,0.895
		c0.186-0.002,4.576-0.055,6.348-0.895c1.438-0.682,4.09-3.862,5.223-5.274c7.072,2.574,11.686,6.728,12.681,7.68
		c0.066,1.105,0.214,5.128-0.89,7.717c-3.049,7.139-17.599,6.951-22.379,6.893l-0.987-0.009l-0.987,0.009
		c-4.773,0.057-19.329,0.248-22.379-6.893C77.255,44.431,77.403,40.405,77.469,39.301z"/>
	<path class="st1" d="M92.443,94.8h-4.054c-0.233,0-0.42,0.188-0.42,0.419v11.626l-4.785-11.783c-0.066-0.159-0.22-0.262-0.39-0.262
		H78.95c-0.233,0-0.419,0.188-0.419,0.419v25.87c0,0.231,0.187,0.419,0.419,0.419h4.054c0.233,0,0.42-0.188,0.42-0.419v-11.626
		l4.785,11.783c0.066,0.159,0.22,0.262,0.39,0.262h3.845c0.233,0,0.42-0.188,0.42-0.419V95.22
		C92.863,94.989,92.676,94.8,92.443,94.8z"/>
	<path class="st1" d="M102.653,94.8h-4.336c-0.203,0-0.377,0.146-0.413,0.346l-4.615,25.87c-0.023,0.123,0.013,0.247,0.092,0.343
		s0.197,0.151,0.321,0.151h4.058c0.2,0,0.374-0.141,0.413-0.338l2.314-11.696l2.314,11.696c0.039,0.197,0.213,0.338,0.413,0.338
		h4.054c0.125,0,0.243-0.056,0.321-0.151c0.079-0.095,0.115-0.22,0.092-0.343l-4.615-25.87C103.03,94.946,102.856,94.8,102.653,94.8
		z"/>
	<path class="st1" d="M117.998,94.853h-2.799c-4.012,0-6.922,3.191-6.922,7.586v11.537c0,4.395,2.911,7.586,6.922,7.586h2.799
		c4.012,0,6.922-3.191,6.922-7.586v-11.537C124.921,98.043,122.01,94.853,117.998,94.853z M119.988,113.626
		c0,1.619-1.318,2.937-2.937,2.937h-0.901c-1.619,0-2.937-1.318-2.937-2.937v-10.839c0-1.619,1.318-2.937,2.937-2.937h0.901
		c1.619,0,2.937,1.318,2.937,2.937V113.626z"/>
</g>
</svg>
