<?xml version="1.0" encoding="utf-8"?>
<!-- Generator: Adobe Illustrator 22.1.0, SVG Export Plug-In . SVG Version: 6.00 Build 0)  -->
<svg version="1.1" id="Layer_1" xmlns="http://www.w3.org/2000/svg" xmlns:xlink="http://www.w3.org/1999/xlink" x="0px" y="0px"
	 viewBox="0 0 400 58.333" style="enable-background:new 0 0 400 58.333;" xml:space="preserve">
<style type="text/css">
	.st0{fill:#231F20;}
	.st1{fill:#867EBA;}
	.st2{fill:#FFFFFF;}
</style>
<g>
	
		<ellipse transform="matrix(0.99 -0.141 0.141 0.99 -2.3869 28.3715)" class="st0" cx="198.954" cy="31.024" rx="37.431" ry="24.365"/>
	<path class="st1" d="M231.843,27.55c0-10.875-16.323-18.668-34.375-16.625s-31.748,13.58-31.5,25.875L231.843,27.55z"/>
	<g>
		<g>
			<polygon class="st0" points="183.768,31.136 184.122,10.925 180.3,11.336 179.714,8.286 192.821,8.88 192.102,10.535 
				187.948,10.724 185.799,31.599 			"/>
			<path class="st1" d="M180.02,8.55l12.426,0.563l-0.511,1.179l-4.215,0.192l-2.142,20.808l-1.557-0.355l0.355-20.291l-3.874,0.417
				L180.02,8.55 M179.409,8.022l0.12,0.622l0.482,2.512l0.087,0.452l0.458-0.049l3.311-0.356l-0.345,19.724l-0.007,0.406l0.396,0.09
				l1.557,0.355l0.551,0.126l0.058-0.562l2.097-20.379l3.784-0.172l0.312-0.014l0.124-0.286l0.511-1.179l0.289-0.666l-0.725-0.033
				l-12.426-0.563L179.409,8.022L179.409,8.022z"/>
		</g>
		<g>
			<path class="st0" d="M197.458,29.954c-5.489,0-6.974-5.132-7.356-7.338c-0.523-3.015-0.102-5.738,1.156-7.473
				c0.845-1.164,2.011-1.861,3.467-2.072c0.08-0.012,0.172-0.016,0.265-0.02c0.071-0.003,0.143-0.005,0.204-0.014
				c0.188-0.013,0.354-0.019,0.516-0.019c3.112,0,5.052,2.079,5.763,6.178c0.121,0.698,0.159,1.127,0.234,1.983l0.022,0.254
				l-9.071,0.612c0.749,4.573,3.128,5.11,4.867,5.11c0.146,0,0.292-0.005,0.435-0.012c0.075-0.012,0.175-0.018,0.274-0.023
				c0.081-0.004,0.162-0.008,0.243-0.02c0.927-0.134,1.733-0.433,2.396-0.886l0.234-0.16l1.332,2.585l-0.184,0.125
				c-0.684,0.463-1.997,0.879-3.426,1.086C198.36,29.92,197.899,29.954,197.458,29.954z M195.205,15.196
				c-0.111,0-0.225,0.008-0.34,0.025c-1.867,0.27-2.348,2.493-2.173,4.573l5.596-0.656
				C197.801,16.664,196.659,15.196,195.205,15.196z"/>
			<path class="st1" d="M195.709,13.269c3.51,0,4.956,2.738,5.517,5.97c0.118,0.682,0.156,1.109,0.231,1.963l-9.088,0.614
				c0.682,4.713,3.049,5.591,5.155,5.591c0.151,0,0.301-0.005,0.449-0.012c0.178-0.026,0.361-0.019,0.539-0.044
				c1.139-0.165,1.948-0.548,2.503-0.927l1.101,2.136c-0.686,0.465-2.004,0.855-3.321,1.045c-0.468,0.068-0.913,0.1-1.335,0.1
				c-4.558,0-6.522-3.745-7.111-7.131c-0.806-4.641,0.605-8.703,4.413-9.254c0.143-0.021,0.326-0.014,0.468-0.034
				C195.393,13.275,195.553,13.269,195.709,13.269 M192.468,20.072l6.115-0.717c-0.477-2.75-1.714-4.409-3.376-4.409
				c-0.123,0-0.249,0.009-0.377,0.028C192.729,15.276,192.221,17.812,192.468,20.072 M195.709,12.769l0,0.5L195.709,12.769
				c-0.167,0-0.338,0.006-0.513,0.018c-0.092,0.012-0.155,0.013-0.218,0.016c-0.1,0.004-0.201,0.009-0.289,0.022
				c-1.503,0.217-2.76,0.968-3.633,2.172c-1.317,1.815-1.743,4.536-1.2,7.662c0.394,2.269,1.925,7.546,7.603,7.546
				c0.452,0,0.925-0.035,1.407-0.105c1.465-0.211,2.818-0.643,3.531-1.126l0.367-0.249l-0.203-0.394l-1.101-2.136L201.2,25.69
				l-0.467,0.32c-0.631,0.431-1.402,0.716-2.292,0.845c-0.072,0.01-0.147,0.013-0.221,0.017c-0.107,0.006-0.214,0.012-0.32,0.027
				c-0.093,0.003-0.234,0.007-0.376,0.007c-1.613,0-3.807-0.493-4.572-4.629l8.539-0.577L202,21.667l-0.045-0.508
				c-0.076-0.864-0.114-1.298-0.237-2.004C200.983,14.918,198.961,12.769,195.709,12.769L195.709,12.769z M192.924,19.515
				c-0.096-1.822,0.359-3.814,1.977-4.047c0.104-0.015,0.205-0.022,0.305-0.022c1.274,0,2.295,1.288,2.781,3.476L192.924,19.515
				L192.924,19.515z"/>
		</g>
		<g>
			<path class="st0" d="M212.59,28.9c-0.765,0.772-2.011,1.43-3.476,1.43c-0.228,0-0.459-0.016-0.693-0.05
				c-1.489-0.215-2.656-0.893-3.47-2.013c-1.703-2.348-1.396-5.927-1.062-7.852c0.862-4.969,3.938-7.193,6.602-7.193
				c0.23,0,0.46,0.016,0.687,0.049c1.361,0.197,2.455,0.925,3.152,2.082l0.032-2.417l3.635,1.652l-0.862,4.961l-3.092,16.738
				l-2.45,0.356L212.59,28.9z M210.786,15.713c-1.776,0-3.147,1.789-3.668,4.785c-0.327,1.885-0.296,4.425,0.773,5.898
				c0.47,0.647,1.109,1.033,1.902,1.147c0.089,0.013,0.184,0.02,0.282,0.02c0.991,0,2.751-0.723,3.058-3.435l0.457-3.895
				c0.301-2.36-0.704-4.247-2.391-4.49C211.059,15.723,210.921,15.713,210.786,15.713z"/>
			<path class="st1" d="M214.607,13.321l3.111,1.414l-0.829,4.771l-3.059,16.559l-1.947,0.283l1.043-8.1l-0.107-0.015
				c-0.651,0.965-2.058,1.846-3.704,1.846c-0.216,0-0.436-0.015-0.658-0.047c-4.519-0.653-5.014-5.582-4.32-9.574
				c0.817-4.707,3.704-6.987,6.356-6.986c0.219,0,0.436,0.016,0.65,0.046c1.353,0.195,2.675,0.985,3.355,2.747l0.07,0.01
				L214.607,13.321 M210.076,27.814c1.226,0,2.998-0.926,3.306-3.658l0.457-3.893c0.305-2.384-0.715-4.495-2.602-4.767
				c-0.154-0.022-0.304-0.033-0.45-0.033c-2.061,0-3.42,2.143-3.914,4.992c-0.462,2.661-0.247,6.884,2.885,7.337
				C209.859,27.806,209.965,27.814,210.076,27.814 M214.118,12.549l-0.01,0.765l-0.017,1.274c-0.722-0.854-1.705-1.395-2.877-1.564
				c-0.237-0.034-0.48-0.052-0.722-0.052c-2.769,0-5.961,2.288-6.849,7.401c-0.341,1.964-0.651,5.619,1.106,8.041
				c0.854,1.177,2.077,1.888,3.635,2.113c0.241,0.035,0.487,0.052,0.73,0.052c1.246,0,2.343-0.455,3.144-1.061l-0.871,6.766
				l-0.084,0.654l0.652-0.095l1.947-0.283l0.355-0.052l0.065-0.352l3.059-16.559l0.829-4.776l0.066-0.381l-0.352-0.16l-3.111-1.414
				L214.118,12.549L214.118,12.549z M210.076,27.314c-0.086,0-0.168-0.006-0.246-0.017c-0.733-0.106-1.301-0.448-1.735-1.047
				c-1.025-1.412-1.033-3.958-0.729-5.709c0.497-2.866,1.776-4.577,3.421-4.578c0.123,0,0.249,0.009,0.379,0.028
				c1.545,0.223,2.461,1.993,2.177,4.209l-0.458,3.898C212.599,26.637,210.985,27.314,210.076,27.314L210.076,27.314z"/>
		</g>
	</g>
	<g>
		<g>
			<path class="st2" d="M179.189,49.541c-1.264,0-2.375-0.417-3.303-1.239c-0.943-0.836-1.406-2.038-1.376-3.573l0.001-0.054
				l0.099-0.314l0.293-0.056h2.721v0.375c0,0.751,0.132,1.283,0.392,1.582c0.249,0.288,0.633,0.427,1.174,0.427
				c0.393,0,0.668-0.103,0.841-0.314c0.188-0.231,0.283-0.564,0.283-0.988c0-0.445-0.098-0.792-0.291-1.033
				c-0.212-0.266-0.609-0.54-1.183-0.815c-1.295-0.5-2.309-1.097-2.984-1.762c-0.712-0.702-1.073-1.685-1.073-2.92
				c0-1.226,0.416-2.242,1.235-3.019c0.813-0.772,1.86-1.164,3.112-1.164c1.277,0,2.333,0.438,3.138,1.303
				c0.799,0.858,1.191,1.95,1.167,3.245l-0.001,0.051l-0.094,0.317l-0.297,0.056h-2.713V39.27c0-0.545-0.118-0.984-0.352-1.307
				c-0.213-0.292-0.496-0.429-0.891-0.429c-0.366,0-0.64,0.114-0.834,0.35c-0.213,0.257-0.316,0.578-0.316,0.981
				c0,0.351,0.11,0.628,0.336,0.849c0.27,0.263,0.76,0.568,1.46,0.906c1.19,0.446,2.129,1.044,2.758,1.764
				c0.648,0.742,0.978,1.747,0.978,2.984c0,1.29-0.398,2.32-1.185,3.062C181.505,49.167,180.464,49.541,179.189,49.541z"/>
			<path class="st0" d="M179.13,35.047c1.175,0,2.129,0.395,2.863,1.183c0.733,0.789,1.089,1.783,1.066,2.983l-0.017,0.056h-2.338
				c0-0.628-0.141-1.137-0.423-1.527c-0.283-0.389-0.681-0.584-1.194-0.584c-0.48,0-0.854,0.162-1.123,0.485
				c-0.268,0.324-0.402,0.73-0.402,1.22c0,0.453,0.149,0.825,0.449,1.117c0.299,0.292,0.818,0.617,1.559,0.975
				c1.169,0.44,2.048,0.998,2.639,1.673c0.59,0.675,0.885,1.588,0.885,2.738c0,1.188-0.355,2.117-1.067,2.79
				c-0.711,0.672-1.657,1.008-2.837,1.008c-1.175,0-2.192-0.381-3.054-1.145c-0.861-0.763-1.278-1.858-1.25-3.285l0.018-0.056h2.346
				c0,0.848,0.161,1.458,0.483,1.828c0.321,0.371,0.808,0.556,1.457,0.556c0.508,0,0.885-0.151,1.131-0.452
				c0.245-0.302,0.368-0.71,0.368-1.226c0-0.534-0.124-0.957-0.373-1.268c-0.248-0.311-0.686-0.617-1.312-0.919
				c-1.282-0.496-2.243-1.06-2.885-1.691c-0.641-0.632-0.961-1.516-0.961-2.653c0-1.125,0.373-2.041,1.118-2.747
				C177.02,35.401,177.971,35.047,179.13,35.047 M179.13,34.297c-1.351,0-2.485,0.426-3.371,1.266
				c-0.897,0.851-1.352,1.958-1.352,3.291c0,1.34,0.398,2.412,1.184,3.187c0.718,0.707,1.736,1.311,3.112,1.846
				c0.632,0.307,0.906,0.549,1.026,0.698c0.139,0.174,0.209,0.443,0.209,0.8c0,0.336-0.067,0.589-0.2,0.753
				c-0.034,0.042-0.143,0.175-0.549,0.175c-0.633,0-0.826-0.224-0.89-0.297c-0.113-0.13-0.3-0.474-0.3-1.337v-0.75h-0.75h-2.346
				h-0.551l-0.165,0.526l-0.018,0.056l-0.032,0.102l-0.002,0.107c-0.033,1.65,0.473,2.949,1.502,3.861
				c0.998,0.885,2.193,1.334,3.551,1.334c1.373,0,2.501-0.408,3.352-1.213c0.864-0.816,1.302-1.938,1.302-3.334
				c0-1.331-0.36-2.418-1.07-3.231c-0.665-0.761-1.643-1.389-2.907-1.87c-0.805-0.392-1.169-0.663-1.331-0.822
				c-0.155-0.151-0.223-0.33-0.223-0.581c0-0.312,0.075-0.555,0.23-0.742c0.082-0.099,0.219-0.213,0.545-0.213
				c0.275,0,0.446,0.08,0.588,0.275c0.185,0.256,0.279,0.621,0.279,1.086v0.75h0.75h2.338h0.56l0.159-0.537l0.017-0.056l0.029-0.097
				l0.002-0.101c0.026-1.395-0.4-2.576-1.267-3.508C181.663,34.776,180.515,34.297,179.13,34.297L179.13,34.297z"/>
		</g>
		<g>
			<path class="st2" d="M186.999,49.541c-0.948,0-1.699-0.403-2.23-1.198c-0.508-0.759-0.754-1.874-0.754-3.408v-6.539h3.156v6.565
				c0,0.827,0.108,1.225,0.199,1.413c0.118,0.245,0.245,0.279,0.365,0.279c0.2,0,0.375-0.04,0.519-0.119
				c0.12-0.066,0.225-0.158,0.318-0.278v-7.86h3.164v10.948h-2.825l-0.07-0.579c-0.137,0.137-0.281,0.257-0.435,0.36
				C187.992,49.4,187.518,49.541,186.999,49.541z"/>
			<path class="st0" d="M191.361,38.77v10.198h-2.118l-0.144-1.178c-0.249,0.446-0.55,0.787-0.902,1.023
				c-0.353,0.235-0.753,0.353-1.198,0.353c-0.819,0-1.459-0.344-1.919-1.032c-0.46-0.688-0.69-1.754-0.69-3.2V38.77h2.406v6.19
				c0,0.723,0.078,1.249,0.236,1.576c0.158,0.327,0.393,0.491,0.703,0.491c0.266,0,0.499-0.055,0.699-0.165
				c0.2-0.11,0.371-0.272,0.513-0.486V38.77H191.361 M192.111,38.02h-0.75h-2.414h-0.75v0.75v7.342
				c-0.039,0.037-0.081,0.068-0.125,0.092c-0.086,0.047-0.194,0.071-0.328,0.072c-0.004-0.009-0.019-0.031-0.037-0.067
				c-0.049-0.1-0.162-0.423-0.162-1.249v-6.19v-0.75h-0.75h-2.406h-0.75v0.75v6.164c0,1.611,0.267,2.794,0.817,3.617
				c0.597,0.893,1.476,1.365,2.542,1.365c0.569,0,1.09-0.147,1.551-0.438l0.029,0.24h0.664h2.118h0.75v-0.75V38.77V38.02
				L192.111,38.02z"/>
		</g>
		<g>
			<path class="st2" d="M192.502,53.264V38.395h2.947l0.034,0.409c0.089-0.081,0.181-0.154,0.276-0.22
				c0.365-0.25,0.788-0.377,1.259-0.377c1.102,0,1.965,0.507,2.566,1.506c0.563,0.938,0.85,2.179,0.85,3.686v1.253
				c0,1.423-0.288,2.593-0.855,3.478c-0.603,0.937-1.458,1.412-2.543,1.412c-0.438,0-0.836-0.101-1.182-0.299
				c-0.067-0.039-0.133-0.081-0.197-0.126v4.149H192.502z M195.657,46.252c0.074,0.127,0.162,0.221,0.268,0.285
				c0.122,0.076,0.282,0.114,0.476,0.114c0.301,0,0.487-0.124,0.622-0.415c0.17-0.37,0.257-0.905,0.257-1.588v-1.256
				c0-0.751-0.093-1.355-0.275-1.795c-0.187-0.443-0.425-0.5-0.612-0.5c-0.171,0-0.312,0.044-0.434,0.136
				c-0.118,0.089-0.219,0.218-0.301,0.383V46.252z"/>
			<path class="st0" d="M197.018,38.582c0.966,0,1.714,0.442,2.245,1.324c0.53,0.883,0.796,2.047,0.796,3.492v1.253
				c0,1.357-0.266,2.449-0.796,3.275c-0.531,0.826-1.273,1.239-2.228,1.239c-0.373,0-0.705-0.083-0.995-0.25
				c-0.291-0.167-0.544-0.413-0.759-0.74v4.713h-2.405V38.77h2.228l0.085,1.009c0.22-0.383,0.481-0.679,0.783-0.886
				C196.274,38.686,196.623,38.582,197.018,38.582 M196.4,47.026c0.446,0,0.767-0.211,0.962-0.632
				c0.194-0.422,0.292-1.004,0.292-1.746v-1.256c0-0.805-0.102-1.452-0.305-1.939c-0.204-0.488-0.522-0.731-0.958-0.731
				c-0.254,0-0.474,0.071-0.66,0.212c-0.187,0.142-0.336,0.341-0.449,0.599v4.814c0.113,0.227,0.262,0.396,0.445,0.51
				C195.91,46.97,196.135,47.026,196.4,47.026 M197.018,37.832c-0.442,0-0.85,0.097-1.216,0.289l-0.008-0.101h-0.689h-2.228h-0.75
				v0.75v14.119v0.75h0.75h2.405h0.75v-0.75v-3.15c0.309,0.117,0.645,0.177,1.004,0.177c1.204,0,2.192-0.548,2.858-1.584
				c0.607-0.946,0.915-2.184,0.915-3.681v-1.253c0-1.576-0.304-2.881-0.903-3.878C199.241,38.415,198.243,37.832,197.018,37.832
				L197.018,37.832z M196.032,41.71c0.046-0.077,0.097-0.137,0.153-0.179c0.039-0.03,0.094-0.06,0.207-0.06
				c0.064,0,0.153,0,0.266,0.271c0.163,0.393,0.247,0.948,0.247,1.65v1.256c0,0.783-0.121,1.211-0.223,1.432
				c-0.082,0.177-0.152,0.196-0.281,0.196c-0.084,0-0.201-0.01-0.277-0.057c-0.032-0.02-0.062-0.047-0.091-0.082V41.71
				L196.032,41.71z"/>
		</g>
		<g>
			<path class="st2" d="M200.93,53.264V38.395h2.947l0.034,0.409c0.089-0.081,0.181-0.154,0.276-0.22
				c0.365-0.25,0.788-0.377,1.259-0.377c1.102,0,1.965,0.507,2.566,1.506c0.563,0.938,0.85,2.179,0.85,3.686v1.253
				c0,1.423-0.288,2.593-0.855,3.478c-0.603,0.937-1.458,1.412-2.543,1.412c-0.438,0-0.836-0.101-1.182-0.299
				c-0.067-0.039-0.133-0.081-0.197-0.126v4.149H200.93z M204.085,46.252c0.074,0.127,0.162,0.221,0.268,0.285
				c0.122,0.076,0.282,0.114,0.476,0.114c0.301,0,0.487-0.124,0.622-0.415c0.17-0.37,0.257-0.905,0.257-1.588v-1.256
				c0-0.751-0.093-1.355-0.275-1.795c-0.187-0.443-0.425-0.5-0.612-0.5c-0.171,0-0.312,0.044-0.434,0.136
				c-0.118,0.089-0.219,0.218-0.301,0.383V46.252z"/>
			<path class="st0" d="M205.446,38.582c0.966,0,1.714,0.442,2.245,1.324c0.53,0.883,0.796,2.047,0.796,3.492v1.253
				c0,1.357-0.266,2.449-0.796,3.275c-0.531,0.826-1.273,1.239-2.228,1.239c-0.373,0-0.705-0.083-0.995-0.25
				c-0.291-0.167-0.544-0.413-0.759-0.74v4.713h-2.405V38.77h2.228l0.085,1.009c0.22-0.383,0.481-0.679,0.783-0.886
				C204.702,38.686,205.051,38.582,205.446,38.582 M204.828,47.026c0.446,0,0.767-0.211,0.962-0.632
				c0.194-0.422,0.292-1.004,0.292-1.746v-1.256c0-0.805-0.102-1.452-0.305-1.939c-0.204-0.488-0.522-0.731-0.958-0.731
				c-0.254,0-0.474,0.071-0.66,0.212c-0.187,0.142-0.336,0.341-0.449,0.599v4.814c0.113,0.227,0.262,0.396,0.445,0.51
				C204.338,46.97,204.562,47.026,204.828,47.026 M205.446,37.832c-0.442,0-0.85,0.097-1.216,0.289l-0.008-0.101h-0.689h-2.228
				h-0.75v0.75v14.119v0.75h0.75h2.405h0.75v-0.75v-3.15c0.309,0.117,0.645,0.177,1.004,0.177c1.204,0,2.192-0.548,2.858-1.584
				c0.607-0.946,0.915-2.184,0.915-3.681v-1.253c0-1.576-0.304-2.881-0.903-3.878C207.669,38.415,206.671,37.832,205.446,37.832
				L205.446,37.832z M204.46,41.71c0.046-0.077,0.097-0.137,0.153-0.179c0.039-0.03,0.094-0.06,0.207-0.06
				c0.064,0,0.153,0,0.266,0.271c0.163,0.393,0.247,0.948,0.247,1.65v1.256c0,0.783-0.121,1.211-0.223,1.432
				c-0.082,0.177-0.152,0.196-0.281,0.196c-0.084,0-0.201-0.01-0.277-0.057c-0.032-0.02-0.062-0.047-0.091-0.082V41.71L204.46,41.71
				z"/>
		</g>
		<g>
			<path class="st2" d="M213.171,49.541c-1.298,0-2.323-0.484-3.047-1.439c-0.7-0.923-1.055-2.132-1.055-3.591v-1.263
				c0-1.446,0.354-2.652,1.054-3.585c0.724-0.966,1.747-1.456,3.04-1.456s2.316,0.49,3.044,1.455
				c0.702,0.932,1.058,2.138,1.058,3.585v1.263c0,1.46-0.356,2.669-1.059,3.592C215.478,49.057,214.458,49.541,213.171,49.541z
				 M213.163,41.096c-0.333,0-0.535,0.139-0.677,0.464c-0.179,0.409-0.27,0.974-0.27,1.681v1.265c0,0.73,0.089,1.302,0.264,1.699
				c0.14,0.313,0.346,0.447,0.69,0.447c0.324,0,0.531-0.14,0.67-0.452c0.179-0.4,0.269-0.97,0.269-1.693v-1.265
				c0-0.711-0.091-1.278-0.27-1.686C213.7,41.238,213.492,41.096,213.163,41.096z"/>
			<path class="st0" d="M213.163,38.582c1.174,0,2.089,0.436,2.744,1.306c0.655,0.87,0.982,1.99,0.982,3.36v1.263
				c0,1.382-0.327,2.504-0.982,3.365s-1.567,1.291-2.736,1.291c-1.18,0-2.096-0.43-2.748-1.291s-0.979-1.982-0.979-3.365v-1.263
				c0-1.37,0.326-2.49,0.979-3.36C211.075,39.017,211.988,38.582,213.163,38.582 M213.171,47.026c0.475,0,0.812-0.225,1.013-0.675
				c0.2-0.45,0.301-1.065,0.301-1.846v-1.265c0-0.768-0.101-1.379-0.301-1.836c-0.2-0.456-0.541-0.684-1.021-0.684
				c-0.48,0-0.82,0.229-1.021,0.689c-0.201,0.459-0.301,1.07-0.301,1.831v1.265c0,0.787,0.099,1.403,0.296,1.85
				C212.336,46.803,212.68,47.026,213.171,47.026 M213.163,37.832c-1.418,0-2.541,0.54-3.34,1.606
				c-0.749,0.999-1.128,2.281-1.128,3.81v1.263c0,1.543,0.38,2.828,1.131,3.818c0.799,1.054,1.924,1.588,3.346,1.588
				c1.41,0,2.532-0.534,3.333-1.587c0.754-0.99,1.136-2.275,1.136-3.819v-1.263c0-1.53-0.381-2.812-1.133-3.811
				C215.704,38.371,214.58,37.832,213.163,37.832L213.163,37.832z M213.171,46.276c-0.195,0-0.269-0.048-0.348-0.225
				c-0.105-0.238-0.231-0.701-0.231-1.546v-1.265c0-0.655,0.08-1.17,0.238-1.53c0.09-0.207,0.172-0.24,0.333-0.24
				c0.162,0,0.245,0.033,0.334,0.236c0.158,0.359,0.238,0.876,0.238,1.534v1.265c0,0.67-0.079,1.189-0.236,1.541
				C213.41,46.244,213.33,46.276,213.171,46.276L213.171,46.276z"/>
		</g>
		<g>
			<path class="st2" d="M217.785,49.343V38.395h2.97l0.031,0.457c0.03-0.037,0.062-0.073,0.095-0.108
				c0.336-0.357,0.737-0.538,1.192-0.538c0.128,0,0.265,0.013,0.41,0.039c0.143,0.026,0.267,0.058,0.373,0.095l0.28,0.096
				l-0.31,3.161l-1.257-0.039c-0.154,0-0.282,0.04-0.379,0.12c-0.102,0.084-0.186,0.207-0.251,0.366v7.299H217.785z"/>
			<path class="st0" d="M222.073,38.582c0.107,0,0.222,0.011,0.343,0.033c0.122,0.022,0.228,0.049,0.318,0.08l-0.246,2.517
				l-0.906-0.028c-0.254,0-0.465,0.069-0.631,0.207c-0.167,0.139-0.295,0.333-0.386,0.584v6.993h-2.405V38.77h2.244l0.094,1.367
				l0.042,0.019c0.147-0.49,0.352-0.875,0.614-1.155C221.417,38.722,221.723,38.582,222.073,38.582 M222.073,37.832
				c-0.344,0-0.67,0.087-0.964,0.256l-0.005-0.067h-0.7h-2.244h-0.75v0.75v10.198v0.75h0.75h2.405h0.75v-0.75v-6.844
				c0.034-0.069,0.073-0.122,0.115-0.157c0.034-0.028,0.101-0.034,0.152-0.034l0.883,0.028l0.702,0.022l0.068-0.699l0.246-2.517
				l0.058-0.589l-0.56-0.193c-0.13-0.045-0.271-0.08-0.43-0.109C222.384,37.847,222.224,37.832,222.073,37.832L222.073,37.832z"/>
		</g>
		<g>
			<path class="st2" d="M226.825,49.541c-0.893,0-1.59-0.317-2.071-0.942c-0.466-0.604-0.692-1.507-0.692-2.759v-4.752h-1.084
				v-2.692h1.084V35.86h3.156v2.535h1.271v2.692h-1.271v4.742c0,0.469,0.074,0.645,0.106,0.698c0.053,0.086,0.088,0.086,0.119,0.086
				c0.124,0,0.229-0.006,0.314-0.02c0.088-0.013,0.184-0.037,0.289-0.068l0.439-0.133l0.256,2.786l-0.277,0.096
				c-0.27,0.094-0.536,0.163-0.791,0.205C227.424,49.52,227.138,49.541,226.825,49.541z"/>
			<path class="st0" d="M226.843,36.235v2.535h1.271v1.942h-1.271v5.117c0,0.415,0.053,0.712,0.16,0.891
				c0.107,0.179,0.255,0.269,0.44,0.269c0.147,0,0.271-0.008,0.373-0.024c0.102-0.016,0.215-0.042,0.339-0.08l0.187,2.036
				c-0.254,0.088-0.497,0.151-0.729,0.189c-0.231,0.038-0.494,0.056-0.788,0.056c-0.773,0-1.365-0.265-1.774-0.796
				c-0.409-0.531-0.614-1.374-0.614-2.53v-5.127h-1.084V38.77h1.084v-2.535H226.843 M227.593,35.485h-0.75h-2.406h-0.75v0.75v1.785
				h-0.334h-0.75v0.75v1.942v0.75h0.75h0.334v4.377c0,1.338,0.252,2.316,0.77,2.988c0.548,0.712,1.367,1.088,2.368,1.088
				c0.334,0,0.639-0.022,0.908-0.066c0.277-0.046,0.565-0.12,0.855-0.221l0.554-0.193l-0.054-0.584l-0.187-2.036l-0.084-0.916
				l-0.881,0.267c-0.086,0.026-0.165,0.046-0.235,0.057c-0.026,0.004-0.053,0.007-0.082,0.009c-0.014-0.077-0.028-0.205-0.028-0.404
				v-4.367h0.521h0.75v-0.75V38.77v-0.75h-0.75h-0.521v-1.785V35.485L227.593,35.485z"/>
		</g>
	</g>
</g>
</svg>
