<?xml version="1.0" encoding="utf-8"?>
<!-- Generator: Adobe Illustrator 23.0.6, SVG Export Plug-In . SVG Version: 6.00 Build 0)  -->
<svg version="1.1" id="Layer_1" xmlns="http://www.w3.org/2000/svg" xmlns:xlink="http://www.w3.org/1999/xlink" x="0px" y="0px"
	 viewBox="0 0 400 75" style="enable-background:new 0 0 400 75;" xml:space="preserve">
<style type="text/css">
	.st0{fill:#FFFFFF;}
	.st1{opacity:0.4;}
	.st2{fill:#310940;}
	.st3{fill:#E2BEAE;}
	.st4{fill:#92ACB2;}
	.st5{fill:#8B3D6E;}
	.st6{fill:#FFF360;}
	.st7{fill:#EC509C;}
	.st8{fill:#A9E0F7;}
	.st9{fill:#301118;}
	.st10{fill:#D48BBC;}
	.st11{fill:#50B848;}
	.st12{fill:#CBAD95;}
	.st13{fill:#443E39;}
	.st14{fill:#E4A2AC;}
	.st15{fill:#E7BA2D;}
	.st16{opacity:0.25;}
	.st17{fill:#078366;}
	.st18{opacity:0.33;enable-background:new    ;}
	.st19{fill:#5C6A75;}
	.st20{fill:url(#SVGID_1_);}
	.st21{fill:url(#SVGID_2_);}
	.st22{fill:url(#SVGID_3_);}
	.st23{fill:url(#SVGID_4_);}
	.st24{fill:url(#SVGID_5_);}
	.st25{opacity:0.33;fill:#5C6A75;enable-background:new    ;}
	.st26{fill:url(#SVGID_6_);}
	.st27{opacity:0.44;fill:#FFFFFF;enable-background:new    ;}
	.st28{fill:#D9AF28;}
	.st29{fill:#BB6C28;}
	.st30{opacity:0.33;fill:#FFFFFF;enable-background:new    ;}
</style>
<g>
	<g>
		<polygon class="st0" points="76.466,38.354 63.984,37.789 64.465,40.316 68.359,39.896 68,60.279 69.565,60.63 71.718,39.736 
			75.947,39.537 		"/>
		<path class="st0" d="M82.558,56.675c-0.183,0.023-0.366,0.015-0.542,0.038c-2.214,0.122-4.893-0.527-5.626-5.596l9.123-0.618
			c-0.076-0.855-0.115-1.29-0.229-1.97c-0.588-3.397-2.145-6.245-6.023-5.985c-0.145,0.023-0.328,0.015-0.473,0.038
			c-3.825,0.55-5.237,4.634-4.428,9.291c0.649,3.718,2.939,7.863,8.481,7.061c1.321-0.191,2.649-0.58,3.336-1.046l-1.107-2.145
			C84.512,56.126,83.703,56.507,82.558,56.675z M78.855,44.24c1.863-0.267,3.252,1.435,3.771,4.397l-6.138,0.725
			C76.237,47.095,76.748,44.545,78.855,44.24z"/>
		<path class="st0" d="M98.681,45.553l-0.069-0.015c-0.687-1.763-2.015-2.557-3.374-2.756c-2.825-0.405-6.145,1.855-7.039,6.97
			c-0.695,4.008-0.198,8.962,4.344,9.619c1.931,0.275,3.641-0.71,4.382-1.809l0.107,0.015l-1.046,8.138l1.954-0.282l3.076-16.634
			l0.832-4.794l-3.13-1.42L98.681,45.553z M97.948,49.553l-0.458,3.909c-0.336,2.993-2.42,3.832-3.641,3.657
			c-3.145-0.458-3.359-4.695-2.901-7.367c0.534-3.061,2.061-5.313,4.382-4.977C97.23,45.041,98.253,47.163,97.948,49.553z"/>
		<polygon class="st0" points="103.986,42.621 104.544,42.621 104.544,44.118 104.765,44.118 104.765,42.621 105.33,42.621 
			105.33,42.423 103.986,42.423 		"/>
		<path class="st0" d="M106.872,42.423l-0.405,1.183c-0.046,0.115-0.076,0.206-0.092,0.267c-0.015-0.053-0.046-0.137-0.084-0.252
			l-0.397-1.199h-0.344v1.702h0.214v-1.45l0.489,1.443h0.206l0.496-1.42v1.42h0.214v-1.695H106.872z"/>
	</g>
	<g>
		<g>
			<path class="st0" d="M144.048,42.461L144.048,42.461c-0.489-0.435-1.031-0.763-1.626-0.992c-1.183-0.45-2.412-0.45-3.596,0
				c-0.588,0.229-1.13,0.557-1.596,0.985c-0.481,0.45-0.878,1.015-1.168,1.687c-0.29,0.672-0.435,1.45-0.435,2.321v11.054
				c0,0.908,0.145,1.702,0.435,2.351c0.29,0.649,0.687,1.199,1.168,1.626c0.466,0.443,1,0.786,1.595,1.008
				c0.588,0.221,1.199,0.336,1.802,0.336s1.206-0.115,1.802-0.336c0.588-0.221,1.137-0.565,1.618-1.008
				c0.466-0.428,0.855-0.977,1.145-1.626c0.29-0.657,0.435-1.45,0.435-2.351V46.461c0-0.87-0.145-1.649-0.435-2.321
				C144.903,43.476,144.514,42.904,144.048,42.461z M142.346,57.515c0,0.657-0.168,1.145-0.504,1.443
				c-0.344,0.313-0.74,0.458-1.214,0.458c-0.473,0-0.87-0.153-1.214-0.458c-0.336-0.305-0.504-0.786-0.504-1.443V46.461
				c0-0.657,0.168-1.145,0.504-1.443c0.344-0.313,0.74-0.458,1.214-0.458s0.87,0.153,1.214,0.458
				c0.336,0.298,0.504,0.786,0.504,1.443C142.346,46.461,142.346,57.515,142.346,57.515z"/>
			<polygon class="st0" points="145.529,44.56 148.835,44.56 148.835,62.668 152.117,62.668 152.117,44.56 155.423,44.56 
				155.423,41.308 145.529,41.308 			"/>
			<rect x="155.904" y="41.308" class="st0" width="3.283" height="21.352"/>
			<path class="st0" d="M170.775,47.759v-1.679c0-1.267-0.45-2.397-1.351-3.382c-0.443-0.466-0.985-0.847-1.588-1.13
				c-0.611-0.282-1.298-0.428-2.038-0.428c-0.87,0-1.634,0.16-2.267,0.481c-0.634,0.321-1.16,0.748-1.565,1.275
				c-0.427,0.527-0.748,1.168-0.962,1.893c-0.214,0.718-0.313,1.496-0.313,2.29c0,1.336,0.221,2.473,0.649,3.367
				c0.443,0.916,1.313,1.657,2.588,2.206l2.038,0.878c0.344,0.153,0.618,0.298,0.824,0.428c0.183,0.122,0.336,0.275,0.443,0.45
				c0.099,0.191,0.168,0.45,0.198,0.779c0.038,0.344,0.053,0.794,0.053,1.328c0,0.458-0.015,0.886-0.038,1.26
				c-0.023,0.351-0.107,0.649-0.244,0.901c-0.13,0.237-0.305,0.42-0.542,0.542c-0.237,0.13-0.588,0.191-1.031,0.191
				c-0.657,0-1.107-0.183-1.382-0.573c-0.282-0.405-0.42-0.855-0.42-1.359v-1.153h-3.283v1.328c0,0.733,0.13,1.42,0.397,2.038
				c0.26,0.618,0.618,1.168,1.061,1.634c0.45,0.473,0.992,0.847,1.611,1.107c0.618,0.267,1.298,0.397,2.015,0.397
				c0.939,0,1.756-0.168,2.42-0.489c0.664-0.328,1.206-0.786,1.618-1.359c0.389-0.55,0.672-1.221,0.847-2
				c0.168-0.771,0.26-1.611,0.26-2.504c0-0.763-0.038-1.458-0.115-2.069c-0.076-0.618-0.221-1.176-0.443-1.672
				c-0.237-0.473-0.565-0.893-0.977-1.26c-0.405-0.359-0.947-0.672-1.596-0.931l-2.183-0.908c-0.359-0.153-0.641-0.298-0.84-0.443
				c-0.183-0.137-0.328-0.298-0.428-0.481c-0.099-0.191-0.16-0.412-0.191-0.657c-0.031-0.267-0.038-0.603-0.038-1.008
				c0-0.336,0.031-0.672,0.084-0.977c0.053-0.298,0.145-0.565,0.275-0.786c0.137-0.214,0.305-0.382,0.527-0.527
				c0.206-0.13,0.489-0.198,0.832-0.198c0.657,0,1.107,0.214,1.374,0.649c0.282,0.466,0.428,1.023,0.428,1.664v0.893h3.29V47.759z"
				/>
		</g>
		<g>
			<g class="st1">
				<path class="st2" d="M193.73,64.157c0-0.603-6.916-1.084-15.451-1.084c-8.535,0-15.451,0.489-15.451,1.084
					c0,0.359,2.458,0.672,6.245,0.87c-0.061,0.031-0.099,0.069-0.099,0.099c0,0.275,1.985,0.489,4.428,0.489
					c2.099,0,3.855-0.16,4.313-0.382c0.191,0,0.382,0,0.573,0c0.565,0,1.13,0,1.679-0.008c0.435,0.221,2.206,0.389,4.321,0.389
					c2.443,0,4.428-0.221,4.428-0.489c0-0.053-0.084-0.107-0.237-0.16C191.699,64.775,193.73,64.477,193.73,64.157z"/>
			</g>
			<g>
				<path class="st3" d="M190.661,44.285c0.26,0.115,0.496,0.305,0.786,0.321c0.031,0,0.061,0,0.092,0
					c0.695-0.015,0.657-0.565,1.031-1c0.122-0.145,0.29-0.252,0.466-0.336c1.244-0.603,3.252,0.076,3.13,1.657
					c-0.038,0.527-0.267,1.015-0.542,1.466c-0.718,1.191-1.916,1.687-2.802,2.695c-0.206,0.237-0.443,0.45-0.687,0.664
					c-0.252,0.221-0.397,0.42-0.58,0.702c-0.435,0.679-0.954,1.328-1.405,2.008c-0.412,0.626-0.809,1.267-1.191,1.916
					c-0.153,0.26-0.511,1.137-0.939,1.015c-0.473-0.137-0.298-1.519-0.496-1.878c-0.366-0.664-0.679-1.023-0.595-1.84
					c0.046-0.45,0.252-0.817,0.519-1.16c0.168-0.214,0.313-0.473,0.458-0.702c0.084-0.13,0.412-0.481,0.412-0.634
					c0.214-0.328,0.412-0.687,0.672-0.977c0.313-0.351,0.58-0.748,0.847-1.145c0.13-0.191,0.26-0.397,0.29-0.626
					c0.053-0.328-0.107-0.573-0.183-0.878C189.829,45.034,189.791,43.911,190.661,44.285z"/>
			</g>
			<g>
				<path d="M188.195,55.645c0.183-0.298,0.359-0.595,0.527-0.893c0.176-0.298,0.344-0.595,0.519-0.893
					c0.344-0.595,0.679-1.206,1.038-1.794c0.359-0.588,0.74-1.168,1.168-1.725c0.428-0.55,0.901-1.069,1.412-1.542
					c0.26-0.237,0.527-0.466,0.802-0.679c0.267-0.214,0.534-0.428,0.779-0.657c0.252-0.229,0.481-0.473,0.695-0.725
					c0.107-0.13,0.198-0.26,0.29-0.397c0.084-0.137,0.168-0.282,0.229-0.428c0.122-0.29,0.191-0.603,0.176-0.916
					c-0.015-0.313-0.107-0.626-0.229-0.931c-0.061-0.153-0.13-0.305-0.206-0.458s-0.153-0.305-0.229-0.458s-0.153-0.298-0.244-0.435
					c-0.084-0.137-0.176-0.26-0.282-0.351c-0.099-0.084-0.206-0.13-0.336-0.13c-0.13-0.008-0.282,0.031-0.428,0.076
					c-0.038,0.015-0.076,0.023-0.115,0.038l-0.053,0.023c-0.015,0.008-0.031,0.015-0.053,0.023c-0.069,0.031-0.13,0.069-0.183,0.107
					c-0.107,0.084-0.198,0.191-0.275,0.321c-0.145,0.267-0.237,0.595-0.328,0.916c-0.023,0.084-0.038,0.153-0.053,0.237
					c-0.015,0.076-0.023,0.16-0.031,0.237c-0.015,0.168-0.015,0.336-0.053,0.542c-0.015,0.099-0.046,0.221-0.137,0.328
					c-0.046,0.053-0.107,0.099-0.168,0.13c-0.061,0.031-0.13,0.046-0.183,0.053c-0.115,0.015-0.221,0-0.313-0.015
					c-0.061-0.008-0.107-0.015-0.153-0.023l-0.069-0.015c-0.031-0.008-0.053-0.015-0.084-0.031c-0.099-0.046-0.183-0.099-0.26-0.153
					c-0.076-0.053-0.145-0.115-0.214-0.168c-0.137-0.115-0.267-0.229-0.397-0.321c-0.13-0.099-0.267-0.183-0.374-0.214
					c-0.061-0.008-0.099-0.008-0.137,0.008c-0.038,0.015-0.076,0.053-0.115,0.107c-0.038,0.053-0.069,0.122-0.099,0.183
					c-0.023,0.061-0.038,0.13-0.038,0.191c-0.008,0.13,0.031,0.275,0.092,0.428c0.061,0.153,0.13,0.313,0.191,0.489
					c0.031,0.092,0.053,0.183,0.069,0.282c0.015,0.099,0.015,0.198,0.008,0.298c-0.023,0.198-0.092,0.397-0.191,0.557
					c-0.023,0.038-0.053,0.084-0.076,0.122c-0.031,0.038-0.053,0.076-0.084,0.107c-0.053,0.069-0.107,0.137-0.153,0.206
					c-0.405,0.55-0.809,1.115-1.214,1.672l-1.206,1.679c-0.198,0.282-0.405,0.557-0.611,0.832c-0.206,0.275-0.412,0.55-0.641,0.817
					l-0.13-0.107c0.206-0.267,0.405-0.55,0.603-0.832l0.588-0.847l1.168-1.71c0.389-0.573,0.771-1.145,1.176-1.71
					c0.053-0.069,0.099-0.145,0.153-0.214c0.031-0.038,0.053-0.069,0.069-0.099c0.023-0.031,0.046-0.069,0.061-0.099
					c0.076-0.13,0.13-0.275,0.137-0.412c0.008-0.145-0.015-0.29-0.069-0.435c-0.053-0.153-0.122-0.305-0.191-0.473
					c-0.069-0.168-0.13-0.359-0.122-0.573c0-0.107,0.023-0.214,0.061-0.313c0.038-0.099,0.084-0.191,0.145-0.275
					s0.145-0.176,0.267-0.229c0.061-0.031,0.122-0.046,0.191-0.053c0.061-0.008,0.13,0,0.183,0.015
					c0.115,0.023,0.206,0.069,0.298,0.122c0.084,0.046,0.16,0.099,0.237,0.16c0.145,0.107,0.275,0.221,0.405,0.328
					s0.26,0.206,0.382,0.252c0.015,0.008,0.031,0.008,0.038,0.015l0.053,0.015c0.038,0.008,0.076,0.015,0.115,0.023
					c0.076,0.008,0.145,0.015,0.198,0.008c0.031,0,0.046-0.008,0.061-0.015s0.023-0.015,0.031-0.023
					c0.015-0.023,0.038-0.076,0.053-0.145c0.023-0.137,0.031-0.313,0.038-0.489c0.008-0.092,0.015-0.183,0.031-0.275
					c0.015-0.092,0.038-0.191,0.061-0.275c0.046-0.168,0.092-0.344,0.145-0.511c0.053-0.168,0.122-0.344,0.214-0.511
					c0.092-0.168,0.221-0.336,0.389-0.458c0.084-0.061,0.168-0.115,0.26-0.16c0.023-0.008,0.046-0.023,0.069-0.031l0.061-0.023
					c0.046-0.015,0.084-0.031,0.13-0.046c0.176-0.061,0.366-0.107,0.588-0.099c0.107,0,0.221,0.023,0.321,0.069
					c0.107,0.038,0.198,0.099,0.282,0.168c0.16,0.137,0.275,0.298,0.366,0.45c0.099,0.16,0.176,0.313,0.26,0.466
					c0.076,0.16,0.153,0.313,0.229,0.466c0.076,0.16,0.153,0.321,0.214,0.489c0.137,0.336,0.237,0.695,0.252,1.076
					c0.015,0.382-0.069,0.763-0.221,1.099c-0.076,0.168-0.168,0.328-0.267,0.481s-0.206,0.298-0.321,0.435
					c-0.229,0.275-0.481,0.519-0.748,0.756c-0.267,0.229-0.542,0.45-0.817,0.657c-0.275,0.206-0.534,0.42-0.794,0.641
					c-1.031,0.893-1.87,1.985-2.634,3.13c-0.382,0.573-0.748,1.16-1.115,1.741c-0.183,0.29-0.366,0.58-0.557,0.87
					C188.592,55.072,188.394,55.362,188.195,55.645z"/>
			</g>
			<g>
				<path class="st3" d="M168.851,62.851c-0.137,0.214-0.252,0.443-0.382,0.657c-0.099,0.16-0.115,0.336-0.282,0.45
					c-0.321,0.229-0.504,0.153-0.863,0.076c-0.344-0.076-0.679-0.176-1.008-0.29c-0.344-0.122-0.718,0-1.069,0.046
					c-0.328,0.046-0.641,0.229-0.962,0.313c-0.489,0.13-0.985,0.069-1.45-0.092c-0.313-0.107-1.237-0.878-0.595-1.183
					c0.29-0.137,0.611-0.244,0.908-0.366c0.267-0.107,0.557-0.244,0.824-0.382c0.26-0.13,0.542-0.176,0.763-0.366
					c0.214-0.191,0.45-0.305,0.695-0.443c0.328-0.191,0.641-0.397,0.947-0.618c0.16-0.115,0.344-0.214,0.496-0.336
					c0.122-0.099,0.206-0.221,0.305-0.344c0.305-0.351,0.618-0.695,0.916-1.046c0.321-0.374,0.534-0.962,0.718-1.412
					c0.214-0.55,0.443-1.115,0.511-1.702c0.061-0.489,0.069-1,0.229-1.473c0.122-0.351,0.634-0.71,1.015-0.618
					c0.313,0.069,0.603,0.351,0.924,0.45c0.794,0.244,1.092,0.886,1.176,1.657c0.099,0.87-0.351,1.512-0.74,2.252
					c-0.511,0.954-0.771,2.031-1.344,2.962c-0.229,0.366-0.511,0.702-0.855,0.962C169.385,62.271,169.088,62.47,168.851,62.851z"/>
			</g>
			<g>
				<path d="M169.439,53.179c0.053,0.336,0.092,0.679,0.099,1.031c0.008,0.344,0,0.687-0.031,1.038
					c-0.061,0.687-0.214,1.374-0.45,2.031c-0.122,0.328-0.26,0.649-0.42,0.954c-0.16,0.313-0.344,0.611-0.542,0.893
					c-0.397,0.573-0.863,1.099-1.389,1.565s-1.115,0.855-1.741,1.176c-0.626,0.321-1.283,0.557-1.931,0.786
					c-0.16,0.061-0.321,0.115-0.466,0.183c-0.076,0.031-0.145,0.069-0.198,0.107c-0.061,0.038-0.107,0.076-0.13,0.115
					c-0.023,0.031-0.023,0.046-0.015,0.084c0.008,0.038,0.031,0.092,0.069,0.153c0.038,0.061,0.092,0.115,0.137,0.176
					c0.053,0.053,0.107,0.107,0.16,0.145c0.115,0.084,0.244,0.153,0.389,0.191c0.145,0.038,0.298,0.061,0.45,0.069
					c0.313,0.008,0.649-0.038,0.977-0.092c0.336-0.061,0.672-0.13,1.015-0.183c0.084-0.015,0.176-0.023,0.26-0.038
					c0.046-0.008,0.084-0.008,0.145-0.015c0.053,0,0.107,0,0.16,0.008c0.198,0.023,0.366,0.061,0.542,0.107
					c0.336,0.092,0.664,0.191,0.985,0.252c0.16,0.031,0.321,0.046,0.435,0.031c0.061-0.008,0.099-0.031,0.115-0.046
					c0.008-0.008,0.015-0.015,0.023-0.038c0.015-0.038,0.038-0.084,0.053-0.122c0.153-0.328,0.328-0.634,0.542-0.924
					s0.458-0.557,0.763-0.779c0.153-0.107,0.321-0.206,0.504-0.267c0.183-0.061,0.382-0.099,0.588-0.084
					c0.107,0.008,0.206,0.031,0.305,0.069c0.092,0.031,0.183,0.076,0.252,0.107c0.031,0.015,0.061,0.023,0.053,0.023
					c0,0-0.023,0-0.031,0.008c-0.015,0.008-0.015,0.008-0.015,0.008c0.008,0,0.023-0.031,0.031-0.061
					c0.015-0.031,0.023-0.069,0.031-0.107c0.023-0.076,0.038-0.16,0.053-0.229c0.008-0.031,0.008-0.053,0.008-0.069
					c0-0.015,0,0,0.008,0.008c0.008,0-0.008-0.008-0.031-0.008c-0.023-0.008-0.061-0.008-0.107-0.008c-0.038,0-0.084,0-0.137-0.008
					s-0.107-0.008-0.183-0.046c-0.038-0.015-0.076-0.046-0.107-0.084s-0.053-0.084-0.069-0.122c-0.023-0.084-0.015-0.145,0-0.198
					c0.008-0.053,0.023-0.107,0.038-0.145l0.038-0.122c0.023-0.084,0.061-0.168,0.092-0.244c0.031-0.084,0.061-0.16,0.092-0.244
					c0.252-0.641,0.519-1.275,0.794-1.908s0.55-1.26,0.84-1.886c0.145-0.313,0.29-0.626,0.435-0.939
					c0.153-0.313,0.298-0.618,0.458-0.924l0.145,0.076c-0.298,0.611-0.565,1.252-0.832,1.878c-0.267,0.634-0.534,1.267-0.794,1.901
					s-0.511,1.275-0.748,1.916c-0.031,0.076-0.061,0.16-0.084,0.237c-0.031,0.076-0.061,0.16-0.084,0.237l-0.038,0.122
					c-0.015,0.038-0.023,0.076-0.023,0.107c-0.008,0.031,0,0.053,0,0.053s0-0.008-0.008-0.015c0-0.031-0.008-0.031,0-0.031
					c0.008,0,0.031,0.008,0.069,0.008c0.031,0,0.076,0,0.122,0c0.046,0,0.092,0,0.153,0.008c0.053,0.008,0.13,0.023,0.206,0.084
					c0.038,0.031,0.069,0.069,0.092,0.107s0.031,0.084,0.038,0.115c0.008,0.076,0.008,0.13,0,0.183
					c-0.015,0.092-0.031,0.176-0.061,0.267c-0.015,0.046-0.023,0.092-0.046,0.145c-0.023,0.053-0.038,0.099-0.092,0.168
					c-0.031,0.031-0.061,0.069-0.115,0.092c-0.053,0.023-0.115,0.038-0.16,0.031c-0.092-0.008-0.145-0.031-0.191-0.053
					c-0.092-0.038-0.153-0.076-0.221-0.092c-0.069-0.023-0.13-0.038-0.198-0.038c-0.137-0.008-0.282,0.015-0.428,0.069
					c-0.137,0.053-0.275,0.13-0.397,0.221c-0.252,0.191-0.473,0.435-0.664,0.695c-0.191,0.267-0.359,0.557-0.496,0.855
					c-0.015,0.038-0.031,0.076-0.046,0.115c-0.023,0.061-0.069,0.13-0.122,0.176c-0.107,0.099-0.237,0.145-0.344,0.16
					c-0.221,0.031-0.405,0.008-0.588-0.023c-0.359-0.061-0.687-0.168-1.015-0.244c-0.16-0.038-0.328-0.076-0.473-0.092
					c-0.038,0-0.069-0.008-0.099-0.008c-0.023,0-0.069,0.008-0.107,0.008c-0.084,0.008-0.168,0.023-0.244,0.031
					c-0.328,0.053-0.664,0.122-1.008,0.183s-0.695,0.115-1.069,0.099c-0.183-0.008-0.374-0.031-0.565-0.084s-0.374-0.137-0.534-0.26
					c-0.076-0.061-0.153-0.13-0.221-0.198c-0.031-0.038-0.061-0.076-0.092-0.115s-0.061-0.076-0.084-0.122
					c-0.053-0.084-0.107-0.183-0.13-0.321c-0.008-0.069-0.008-0.137,0.008-0.214c0.015-0.076,0.053-0.137,0.092-0.191
					c0.076-0.107,0.168-0.168,0.252-0.229c0.084-0.053,0.168-0.092,0.252-0.13c0.168-0.076,0.336-0.137,0.496-0.191
					c0.328-0.115,0.649-0.221,0.962-0.344c0.313-0.122,0.626-0.252,0.931-0.405c0.603-0.298,1.176-0.657,1.679-1.092
					c0.511-0.435,0.977-0.931,1.382-1.473c0.405-0.542,0.74-1.13,1-1.756c0.26-0.626,0.443-1.283,0.542-1.962
					C169.477,54.546,169.492,53.858,169.439,53.179z"/>
			</g>
			<g>
				<g>
					<path class="st4" d="M170.775,58.34c0.115,0.58,2.718,4.947,5.657,5.496c-0.176-0.473-0.214-0.679-0.214-0.679
						s2.199,1.252,7.092,0.137c-0.344-0.122-0.664-0.336-0.664-0.336s3.328-0.916,4.458-3.191c1.313-2.634-3.336-1.512-3.336-1.512
						l-10.71-0.786L170.775,58.34z"/>
				</g>
				<g>
					<path d="M170.821,58.363c0.008,0,0.015-0.008,0.015-0.008l0.008,0.031c0.008,0.015,0.015,0.038,0.023,0.053
						c0.015,0.038,0.031,0.076,0.046,0.115c0.038,0.076,0.076,0.153,0.115,0.221c0.076,0.145,0.16,0.298,0.252,0.435
						c0.176,0.29,0.359,0.573,0.557,0.847c0.389,0.55,0.817,1.076,1.283,1.557c0.466,0.489,0.97,0.939,1.519,1.313
						s1.16,0.672,1.809,0.794l0,0l-0.13,0.153c-0.031-0.115-0.061-0.237-0.092-0.351c-0.015-0.061-0.023-0.115-0.038-0.176
						c-0.008-0.061-0.023-0.115-0.031-0.183l0,0l-0.023-0.107l0.099,0.046c0.26,0.13,0.55,0.221,0.832,0.298
						c0.29,0.076,0.58,0.13,0.878,0.168c0.588,0.084,1.191,0.107,1.786,0.092c0.595-0.015,1.191-0.069,1.786-0.153
						c0.588-0.084,1.176-0.198,1.756-0.336l0,0v0.229c-0.122-0.053-0.229-0.115-0.336-0.183s-0.214-0.137-0.313-0.221l0,0
						l-0.092-0.053l0.107-0.031c0.412-0.13,0.824-0.298,1.214-0.481c0.397-0.183,0.779-0.389,1.145-0.626
						c0.366-0.237,0.718-0.496,1.031-0.794c0.313-0.298,0.603-0.626,0.824-0.992c0.107-0.183,0.214-0.374,0.282-0.573
						c0.076-0.198,0.122-0.405,0.099-0.595c-0.008-0.099-0.038-0.191-0.092-0.267s-0.122-0.145-0.198-0.206
						c-0.16-0.115-0.366-0.176-0.573-0.214c-0.42-0.076-0.855-0.061-1.29-0.031c-0.435,0.038-0.863,0.107-1.29,0.206h-0.015h-0.015
						l-5.351-0.405l-5.351-0.42l0,0h0.023C172.324,57.798,171.576,58.08,170.821,58.363z M170.729,58.317
						c0.763-0.305,1.534-0.603,2.313-0.901l0.008-0.008h0.015l0,0l5.359,0.366l5.359,0.382h-0.031
						c0.435-0.099,0.87-0.176,1.313-0.214c0.443-0.038,0.893-0.053,1.344,0.023c0.221,0.038,0.45,0.107,0.649,0.244
						c0.099,0.069,0.191,0.153,0.26,0.26s0.107,0.229,0.122,0.351c0.031,0.244-0.031,0.481-0.107,0.695
						c-0.084,0.214-0.191,0.412-0.305,0.603c-0.237,0.382-0.534,0.725-0.863,1.023c-0.328,0.305-0.687,0.565-1.069,0.802
						c-0.382,0.229-0.771,0.435-1.176,0.611c-0.42,0.183-0.832,0.336-1.26,0.458l0.015-0.092l0,0
						c0.107,0.053,0.221,0.107,0.328,0.153c0.115,0.046,0.229,0.084,0.344,0.115l0.412,0.107l-0.427,0.122l0,0
						c-0.588,0.13-1.183,0.237-1.786,0.313s-1.206,0.122-1.809,0.122s-1.214-0.031-1.809-0.122
						c-0.298-0.046-0.595-0.107-0.886-0.191c-0.29-0.084-0.58-0.176-0.855-0.321l0.076-0.053l0,0
						c0.015,0.053,0.038,0.107,0.053,0.16c0.023,0.053,0.046,0.107,0.069,0.16c0.046,0.107,0.092,0.214,0.145,0.321l0.084,0.176
						l-0.214-0.031l0,0c-0.687-0.137-1.313-0.458-1.878-0.855c-0.565-0.397-1.069-0.863-1.534-1.359
						c-0.466-0.504-0.886-1.038-1.275-1.596c-0.191-0.282-0.382-0.565-0.55-0.863c-0.084-0.145-0.168-0.298-0.244-0.45
						c-0.038-0.076-0.076-0.153-0.115-0.229c-0.015-0.038-0.038-0.076-0.053-0.122c-0.008-0.023-0.015-0.038-0.023-0.061
						l-0.008-0.031C170.729,58.363,170.729,58.332,170.729,58.317z"/>
				</g>
			</g>
			<g>
				<path class="st5" d="M173.073,56.82c-0.878,1.45,0.695,4.26,2.512,4.932c-0.13-0.435,0.107-0.992,0.107-0.992
					s0.229,2.313,4.786,1.962c-0.282-0.176-0.527-0.664-0.412-0.618c1.779,0.58,3.756-0.565,3.55-0.702
					c-0.527-0.351,0.649-0.183,1.84-1.596c-1.565-0.618-1.183-3.023-1.183-3.023l-2.29-0.237l-6.993-0.038L173.073,56.82z"/>
			</g>
			<g>
				<g>
					<path class="st4" d="M170.805,58.027c-2.138-3.473-1.817-6.39-1.366-8.581c0,0,0.382,0.428,0.84,0.511
						c-0.26-0.794-0.511-1.71-0.084-2.84l0.573,0.481c0,0-0.137-2.794,3.603-4.512l-0.252,1.275c0,0,1.947-3.412,9.252-1.748
						c-0.771,0.473-1.099,1.153-1.099,1.153s3.924-1.244,6.435,4.008c-0.687-0.405-1.275-0.29-1.275-0.29s2.649,2.71,1.855,6.046
						l-0.489-0.542c0,0,0.481,3.138-1.244,5.535c0,0-1.672-1.649-4.229-1.634c-2.557,0.015-9.008-0.397-9.405-0.328
						C173.531,56.637,170.805,58.027,170.805,58.027z"/>
				</g>
				<g>
					<path d="M170.79,58.08c-0.115-0.16-0.237-0.351-0.321-0.504c-0.092-0.16-0.183-0.328-0.267-0.489
						c-0.168-0.336-0.328-0.672-0.466-1.023c-0.275-0.695-0.481-1.42-0.603-2.16s-0.16-1.496-0.122-2.244
						c0.038-0.748,0.145-1.496,0.29-2.229l0.053-0.26l0.183,0.191l0,0c0.046,0.053,0.099,0.115,0.153,0.176
						c0.053,0.053,0.115,0.107,0.176,0.16c0.122,0.099,0.267,0.176,0.42,0.221l-0.061,0.069l0,0
						c-0.16-0.458-0.305-0.931-0.344-1.428c-0.023-0.244-0.015-0.496,0.015-0.748c0.031-0.244,0.092-0.489,0.176-0.725l0.053-0.168
						l0.145,0.115l0,0l0.519,0.534l-0.092,0.046l0,0c-0.008-0.137,0.008-0.26,0.023-0.389c0.015-0.13,0.038-0.252,0.061-0.382
						c0.053-0.252,0.137-0.496,0.237-0.733c0.099-0.237,0.214-0.466,0.351-0.687s0.29-0.428,0.458-0.626
						c0.16-0.198,0.351-0.382,0.534-0.557c0.099-0.084,0.191-0.176,0.29-0.252l0.153-0.122l0.153-0.115
						c0.42-0.305,0.863-0.565,1.328-0.786l0.267-0.13l-0.053,0.298l0,0l-0.351,1.252l-0.099-0.038l0,0
						c0.115-0.183,0.252-0.344,0.397-0.496s0.305-0.29,0.473-0.42c0.336-0.252,0.695-0.473,1.076-0.649s0.779-0.313,1.183-0.42
						s0.817-0.176,1.237-0.229c0.832-0.092,1.672-0.099,2.504-0.031s1.657,0.198,2.473,0.374l0.336,0.069l-0.29,0.191l0,0
						c-0.115,0.061-0.221,0.13-0.328,0.206c-0.107,0.076-0.206,0.16-0.298,0.244c-0.099,0.092-0.183,0.183-0.267,0.282
						c-0.084,0.099-0.168,0.206-0.229,0.313l-0.061-0.076l0,0c0.344-0.099,0.687-0.137,1.038-0.145
						c0.351-0.008,0.695,0.031,1.038,0.092c0.687,0.137,1.336,0.428,1.916,0.824c0.58,0.397,1.076,0.893,1.504,1.443
						c0.428,0.55,0.786,1.153,1.099,1.779l0.214,0.428l-0.428-0.229l0,0c-0.084-0.061-0.176-0.115-0.267-0.16
						c-0.092-0.046-0.191-0.084-0.29-0.122c-0.099-0.031-0.206-0.053-0.305-0.076c-0.107-0.015-0.214-0.023-0.313-0.015l0.031-0.092
						l0,0c0.382,0.405,0.71,0.847,1,1.321c0.29,0.473,0.534,0.97,0.718,1.496s0.313,1.069,0.351,1.634
						c0.046,0.557,0.008,1.122-0.115,1.672l0,0l-0.099,0.275l-0.153-0.214l-0.42-0.603l0,0l0.092-0.046
						c0.069,0.489,0.084,0.97,0.076,1.458c-0.015,0.489-0.061,0.97-0.153,1.45s-0.221,0.954-0.405,1.412
						c-0.176,0.458-0.42,0.893-0.695,1.298l0,0l-0.092,0.13l-0.115-0.115c-0.122-0.115-0.26-0.229-0.405-0.336
						c-0.145-0.107-0.29-0.206-0.443-0.305c-0.305-0.191-0.618-0.359-0.947-0.496c-0.328-0.137-0.672-0.252-1.015-0.328
						c-0.351-0.076-0.702-0.13-1.061-0.145c-0.092,0-0.176-0.008-0.267-0.008h-0.275l-0.55-0.008
						c-0.366-0.008-0.733-0.023-1.092-0.031c-0.733-0.023-1.458-0.061-2.183-0.099c-1.458-0.069-2.909-0.153-4.367-0.221
						c-0.183-0.008-0.366-0.015-0.542-0.015c-0.092,0-0.183,0-0.267,0c-0.046,0-0.084,0-0.122,0.008s-0.084,0.023-0.122,0.038
						c-0.336,0.13-0.664,0.282-0.992,0.435s-0.657,0.313-0.985,0.473l-0.527,0.267l-0.244,0.122l-0.122,0.061l-0.061,0.031
						l-0.038,0.015l-0.015,0.008l-0.008,0.008C170.828,58.08,170.805,58.08,170.79,58.08z M170.821,57.973
						c-0.008-0.008-0.023-0.008-0.031,0h0.008l0.015-0.008l0.031-0.015l0.061-0.031l0.122-0.061l0.244-0.122l0.489-0.244
						c0.328-0.16,0.657-0.321,0.985-0.481s0.657-0.313,1-0.45c0.046-0.015,0.084-0.031,0.137-0.046
						c0.053-0.015,0.107-0.015,0.153-0.015c0.092,0,0.183,0,0.275,0c0.183,0,0.366,0.008,0.55,0.015
						c1.458,0.053,2.916,0.122,4.367,0.176c0.725,0.031,1.458,0.053,2.183,0.076c0.366,0.008,0.725,0.015,1.092,0.023h0.542h0.275
						c0.092,0,0.183,0,0.275,0c0.374,0.015,0.74,0.061,1.107,0.137c0.359,0.084,0.718,0.191,1.061,0.336
						c0.344,0.137,0.672,0.313,0.992,0.504c0.16,0.099,0.313,0.198,0.458,0.313c0.153,0.115,0.29,0.229,0.435,0.359l-0.206,0.015
						l0,0c0.275-0.382,0.519-0.794,0.702-1.229c0.191-0.435,0.328-0.893,0.435-1.359c0.107-0.466,0.168-0.947,0.191-1.42
						c0.023-0.481,0.023-0.962-0.031-1.435l-0.023-0.176l0.115,0.13l0,0l0.557,0.481L189.15,53.5l0,0
						c0.13-0.519,0.183-1.053,0.153-1.588s-0.13-1.069-0.298-1.58s-0.389-1.008-0.664-1.481c-0.275-0.466-0.588-0.916-0.947-1.321
						l0,0l-0.076-0.069l0.107-0.023c0.115-0.031,0.229-0.038,0.344-0.038c0.115,0,0.229,0.008,0.344,0.031
						c0.115,0.023,0.229,0.046,0.344,0.084c0.115,0.038,0.221,0.084,0.328,0.13l0,0l-0.221,0.198
						c-0.282-0.618-0.618-1.206-1.023-1.748c-0.405-0.542-0.878-1.038-1.42-1.435c-0.542-0.397-1.168-0.687-1.825-0.84
						c-0.328-0.076-0.664-0.115-1.008-0.115c-0.336,0-0.679,0.031-1,0.115l0,0l-0.122,0.046l0.053-0.122
						c0.061-0.13,0.13-0.244,0.206-0.359s0.16-0.221,0.252-0.328c0.092-0.107,0.183-0.206,0.29-0.298
						c0.099-0.092,0.214-0.176,0.328-0.26l0,0l0.046,0.267c-0.802-0.191-1.611-0.336-2.428-0.42s-1.641-0.092-2.458-0.015
						c-0.405,0.046-0.817,0.107-1.214,0.206c-0.397,0.099-0.786,0.229-1.16,0.389c-0.374,0.16-0.733,0.366-1.061,0.611
						c-0.16,0.122-0.321,0.252-0.466,0.397c-0.145,0.145-0.282,0.298-0.389,0.466l0,0l-0.137,0.282l0.038-0.321l0.153-1.29l0,0
						l0.214,0.168c-0.458,0.198-0.901,0.435-1.305,0.718l-0.153,0.107l-0.153,0.115c-0.099,0.076-0.191,0.153-0.29,0.237
						c-0.183,0.168-0.366,0.336-0.534,0.519c-0.168,0.183-0.321,0.382-0.458,0.588c-0.137,0.206-0.26,0.428-0.359,0.649
						c-0.107,0.229-0.191,0.466-0.252,0.702c-0.061,0.237-0.107,0.489-0.107,0.733l0,0l0.015,0.115l-0.107-0.069l-0.618-0.42l0,0
						l0.198-0.053c-0.084,0.214-0.153,0.443-0.198,0.672s-0.061,0.466-0.053,0.702c0.015,0.473,0.13,0.939,0.267,1.405l0,0
						l0.031,0.084l-0.092-0.015c-0.176-0.023-0.344-0.084-0.496-0.168c-0.076-0.038-0.153-0.092-0.221-0.137
						c-0.076-0.053-0.137-0.107-0.206-0.168l0,0l0.237-0.061c-0.16,0.725-0.275,1.45-0.328,2.183
						c-0.053,0.733-0.023,1.473,0.076,2.206c0.107,0.733,0.29,1.45,0.557,2.138c0.13,0.344,0.275,0.687,0.443,1.015
						c0.084,0.168,0.168,0.328,0.26,0.489c0.046,0.084,0.092,0.168,0.13,0.237C170.744,57.821,170.782,57.897,170.821,57.973z"/>
				</g>
			</g>
			<g>
				
					<ellipse transform="matrix(0.0207 -0.9998 0.9998 0.0207 122.66 230.8653)" class="st6" cx="179.177" cy="52.82" rx="4.451" ry="2.29"/>
			</g>
			<g>
				<path class="st7" d="M176.271,47.835c-4.306-1.008-5.1,2.435-5.1,2.435s-0.672-0.565-0.611-2.298
					c0.473,1.267,0.878,1.397,1.168,1.481c0.115,0.031,0,0-0.046-0.107c-0.802-1.847,0.58-4.405,1.939-5.267
					c-0.405,1.344-0.214,2.153,0.145,3.107c0.069-0.282-0.221-4.428,8.107-4.252c0,0-1.092,1.099-1.16,2.054
					c1.389-0.779,4.657-0.282,7.023,1.863c0,0-1.145-0.321-1.534,0.267c1.97,1.206,2.977,3.573,2.702,5.222
					c-0.702-0.87-3.054-4.504-4.031-3.573c-1.374-1.55-4.42,0.137-5.588,2.237C179.279,50.996,177.141,48.041,176.271,47.835z"/>
			</g>
			<g>
				<g>
					<path class="st0" d="M177.897,52.271c0.061,2.26-0.221,4.183-2.031,4.428c-1.405,0.191-2.786-1.534-3.153-3.542
						c-0.405-2.244-0.55-4.176,2-4.848C177.256,47.644,177.806,49.255,177.897,52.271z"/>
				</g>
				<g>
					<path d="M177.981,52.271c0.015,0.473,0.023,0.954-0.008,1.435c-0.031,0.481-0.092,0.962-0.237,1.428
						c-0.076,0.229-0.168,0.458-0.29,0.672c-0.13,0.214-0.29,0.412-0.481,0.573c-0.198,0.16-0.42,0.282-0.664,0.359
						c-0.122,0.038-0.244,0.069-0.366,0.084c-0.122,0.023-0.252,0.031-0.382,0.023c-0.26-0.015-0.504-0.084-0.733-0.191
						s-0.435-0.252-0.618-0.412c-0.366-0.328-0.664-0.725-0.893-1.145c-0.229-0.428-0.405-0.878-0.527-1.336
						c-0.061-0.229-0.107-0.466-0.145-0.702c-0.038-0.237-0.076-0.473-0.107-0.71c-0.061-0.473-0.107-0.947-0.084-1.428
						c0.023-0.473,0.115-0.962,0.359-1.389c0.122-0.206,0.282-0.397,0.466-0.557c0.183-0.16,0.389-0.29,0.603-0.397
						c0.214-0.107,0.443-0.191,0.672-0.252c0.229-0.061,0.466-0.115,0.702-0.145c0.237-0.031,0.481-0.046,0.718-0.023
						c0.237,0.023,0.481,0.084,0.695,0.198c0.214,0.115,0.405,0.282,0.55,0.473c0.145,0.191,0.26,0.412,0.344,0.634
						c0.176,0.45,0.26,0.924,0.321,1.397C177.928,51.316,177.958,51.797,177.981,52.271z M177.813,52.271
						c-0.008-0.473-0.023-0.947-0.076-1.412c-0.046-0.466-0.122-0.939-0.282-1.382c-0.076-0.221-0.176-0.435-0.313-0.618
						c-0.137-0.191-0.313-0.351-0.511-0.458c-0.206-0.115-0.435-0.176-0.664-0.191c-0.229-0.023-0.466-0.008-0.702,0.031
						c-0.466,0.076-0.924,0.214-1.336,0.42c-0.206,0.107-0.405,0.237-0.58,0.389c-0.176,0.153-0.328,0.328-0.443,0.534
						c-0.237,0.397-0.344,0.87-0.366,1.336c-0.015,0.237-0.008,0.473,0.008,0.71c0.015,0.237,0.046,0.473,0.084,0.702
						c0.038,0.237,0.076,0.466,0.122,0.702s0.092,0.458,0.168,0.687c0.137,0.45,0.328,0.878,0.565,1.283
						c0.244,0.397,0.534,0.771,0.886,1.061c0.176,0.145,0.366,0.275,0.565,0.366c0.206,0.092,0.42,0.153,0.634,0.168
						c0.107,0.008,0.214,0,0.328-0.015c0.115-0.015,0.221-0.038,0.328-0.076c0.214-0.069,0.412-0.168,0.588-0.305
						c0.351-0.275,0.58-0.687,0.725-1.13c0.145-0.443,0.214-0.908,0.252-1.374C177.813,53.217,177.821,52.744,177.813,52.271z"/>
				</g>
			</g>
			<g>
				<path d="M178.554,52.171c0.115,2.275-0.252,3.993-2.061,4.214c-1.336,0.168-2.756-1.321-3.122-3.328
					c-0.405-2.244-0.55-4.176,2-4.848C177.92,47.545,178.386,48.881,178.554,52.171z"/>
				<path d="M176.286,56.446c-1.313,0-2.611-1.458-2.962-3.382c-0.412-2.275-0.55-4.222,2.031-4.893c1-0.26,1.687-0.221,2.168,0.13
					c0.756,0.557,0.97,1.893,1.069,3.863l0,0c0.069,1.298-0.031,2.214-0.313,2.893c-0.336,0.809-0.916,1.26-1.786,1.366
					C176.424,56.439,176.355,56.446,176.286,56.446z M176.477,48.087c-0.313,0-0.679,0.053-1.099,0.168
					c-2.504,0.657-2.374,2.557-1.97,4.794c0.359,1.977,1.741,3.458,3.076,3.29c1.534-0.191,2.16-1.473,2.023-4.168l0,0
					c-0.099-1.947-0.305-3.267-1.038-3.794C177.218,48.186,176.89,48.087,176.477,48.087z"/>
			</g>
			<g>
				<g>
					<path class="st0" d="M180.577,52.721c0.267,2.26,1.305,4.29,3.122,4.115c1.412-0.137,2.305-2.084,2.26-4.168
						c-0.046-2.176-0.42-4.191-3.054-4.26C180.264,48.347,180.165,49.263,180.577,52.721z"/>
				</g>
				<g>
					<path d="M180.653,52.713c0.061,0.473,0.153,0.939,0.29,1.389s0.313,0.893,0.55,1.298c0.237,0.397,0.542,0.763,0.924,1.015
						c0.382,0.252,0.84,0.351,1.29,0.305c0.221-0.023,0.435-0.099,0.626-0.214c0.191-0.115,0.359-0.267,0.511-0.435
						c0.298-0.344,0.511-0.771,0.672-1.206c0.153-0.443,0.252-0.908,0.298-1.374c0.023-0.237,0.038-0.473,0.038-0.702
						c0-0.237-0.008-0.473-0.015-0.71c-0.023-0.473-0.069-0.947-0.183-1.405c-0.107-0.458-0.282-0.901-0.58-1.267
						c-0.145-0.183-0.321-0.344-0.511-0.466c-0.191-0.13-0.412-0.229-0.634-0.298c-0.221-0.069-0.458-0.115-0.695-0.137
						c-0.237-0.023-0.473-0.031-0.71-0.031s-0.473,0.015-0.71,0.046c-0.229,0.038-0.466,0.092-0.672,0.206
						c-0.206,0.107-0.374,0.275-0.481,0.481c-0.107,0.206-0.16,0.435-0.191,0.672c-0.053,0.466-0.031,0.947,0.008,1.42
						C180.531,51.767,180.592,52.24,180.653,52.713z M180.493,52.729c-0.053-0.473-0.099-0.954-0.13-1.435
						c-0.031-0.481-0.046-0.962,0.015-1.443c0.031-0.237,0.092-0.481,0.214-0.702c0.115-0.221,0.298-0.405,0.519-0.519
						c0.221-0.115,0.458-0.176,0.695-0.214s0.481-0.053,0.725-0.061c0.237-0.008,0.481,0,0.725,0.023s0.481,0.061,0.718,0.137
						c0.237,0.069,0.458,0.168,0.664,0.305c0.206,0.13,0.397,0.298,0.55,0.489c0.313,0.382,0.511,0.847,0.634,1.313
						c0.122,0.473,0.183,0.954,0.214,1.435c0.015,0.244,0.031,0.481,0.031,0.725c0.008,0.244-0.008,0.489-0.023,0.725
						c-0.046,0.481-0.137,0.97-0.298,1.428c-0.16,0.466-0.382,0.908-0.702,1.298c-0.16,0.191-0.351,0.359-0.573,0.489
						c-0.221,0.13-0.466,0.221-0.725,0.244c-0.252,0.023-0.511,0.015-0.756-0.046c-0.244-0.061-0.481-0.168-0.695-0.305
						c-0.42-0.282-0.74-0.679-0.977-1.107c-0.244-0.428-0.412-0.886-0.55-1.351C180.638,53.691,180.546,53.21,180.493,52.729z"/>
				</g>
			</g>
			<g>
				<g>
					<path d="M181.249,52.446c0.313,2.252,1.42,4.695,3.107,3.993c1-0.412,2.214-1.916,2.283-3.954
						c0.092-2.878-0.42-4.191-3.054-4.26C180.951,48.156,180.783,49.095,181.249,52.446z"/>
				</g>
				<g>
					<path d="M181.333,52.431c0.069,0.466,0.168,0.924,0.298,1.374c0.137,0.45,0.298,0.893,0.519,1.298
						c0.107,0.206,0.229,0.405,0.374,0.588c0.137,0.183,0.298,0.344,0.481,0.481c0.183,0.13,0.382,0.221,0.595,0.252
						c0.214,0.031,0.435,0,0.641-0.076s0.405-0.198,0.58-0.336c0.183-0.137,0.351-0.298,0.504-0.466
						c0.153-0.168,0.298-0.351,0.427-0.542c0.13-0.191,0.237-0.397,0.344-0.603c0.198-0.42,0.344-0.87,0.42-1.328
						c0.038-0.229,0.061-0.466,0.069-0.702c0.008-0.237,0.015-0.473,0.015-0.71c0-0.237-0.008-0.473-0.031-0.71
						c-0.023-0.237-0.053-0.466-0.107-0.695c-0.053-0.229-0.122-0.45-0.221-0.664c-0.099-0.206-0.229-0.405-0.389-0.573
						c-0.16-0.168-0.351-0.298-0.557-0.405c-0.206-0.099-0.435-0.176-0.657-0.229c-0.458-0.099-0.931-0.13-1.405-0.13
						c-0.237,0-0.473,0.008-0.702,0.046c-0.229,0.038-0.466,0.092-0.672,0.198c-0.206,0.107-0.382,0.26-0.504,0.458
						c-0.115,0.198-0.176,0.428-0.214,0.657c-0.031,0.229-0.038,0.466-0.031,0.702c0.008,0.237,0.023,0.473,0.046,0.702
						C181.195,51.492,181.264,51.965,181.333,52.431z M181.165,52.454c-0.061-0.473-0.115-0.947-0.145-1.42
						c-0.015-0.237-0.031-0.473-0.031-0.718c0-0.237,0.015-0.481,0.053-0.718c0.038-0.237,0.107-0.473,0.237-0.687
						c0.13-0.206,0.321-0.374,0.542-0.481s0.458-0.168,0.695-0.198c0.237-0.038,0.473-0.053,0.71-0.053
						c0.473-0.008,0.954,0.008,1.428,0.107c0.237,0.053,0.466,0.122,0.687,0.237c0.214,0.107,0.42,0.252,0.588,0.428
						c0.168,0.176,0.298,0.382,0.405,0.603c0.099,0.221,0.168,0.45,0.221,0.687c0.099,0.466,0.13,0.947,0.145,1.42
						c0.008,0.237,0.008,0.473,0.008,0.71s-0.015,0.481-0.046,0.718c-0.061,0.481-0.183,0.947-0.374,1.397
						c-0.191,0.443-0.45,0.863-0.763,1.237c-0.321,0.366-0.71,0.687-1.191,0.87c-0.237,0.084-0.504,0.122-0.763,0.076
						c-0.26-0.038-0.496-0.16-0.695-0.305c-0.198-0.153-0.374-0.336-0.519-0.527c-0.145-0.198-0.275-0.405-0.382-0.618
						c-0.229-0.443-0.389-0.893-0.519-1.359C181.325,53.4,181.226,52.927,181.165,52.454z"/>
				</g>
			</g>
			<g>
				<g>
					<path class="st8" d="M170.286,52.675c0.878-1.573,3.825-5.687,7.886-3.214c0.237-3.237-4.489-3.993-6.871-0.985
						c0.908,0.084,1.008,0.198,1.008,0.198S170.637,49.049,170.286,52.675z"/>
				</g>
				<g>
					<g>
						<path d="M170.309,52.629c0-0.015-0.008-0.023-0.008-0.031c-0.008-0.008-0.008-0.008-0.008-0.015c0,0,0.008-0.015,0.015-0.031
							l0.015-0.031l0.076-0.13c0.046-0.092,0.099-0.176,0.153-0.26c0.099-0.183,0.206-0.351,0.321-0.519
							c0.229-0.336,0.481-0.657,0.756-0.954c0.542-0.603,1.168-1.145,1.901-1.534c0.366-0.191,0.748-0.344,1.153-0.435
							c0.405-0.092,0.824-0.13,1.237-0.099c0.412,0.031,0.817,0.122,1.206,0.267c0.382,0.145,0.748,0.336,1.084,0.565l0,0
							l-0.076,0.038c0.008-0.374-0.038-0.756-0.176-1.099c-0.069-0.168-0.153-0.336-0.26-0.481
							c-0.107-0.153-0.229-0.282-0.366-0.405c-0.275-0.244-0.603-0.428-0.947-0.55c-0.351-0.122-0.718-0.191-1.084-0.206
							c-0.74-0.031-1.489,0.13-2.168,0.443c-0.679,0.313-1.29,0.779-1.786,1.351l-0.038-0.084c0.176,0.008,0.344,0.015,0.519,0.031
							c0.084,0.008,0.176,0.015,0.26,0.031c0.046,0.008,0.092,0.015,0.137,0.031c0.023,0.008,0.046,0.015,0.069,0.023
							c0.015,0.008,0.023,0.008,0.038,0.015c0.008,0,0.015,0.008,0.023,0.008c0.008,0.008,0.008,0,0.038,0.031l0,0l0.13,0.145
							l-0.191,0.046c-0.031,0.008-0.076,0.023-0.115,0.038c-0.038,0.015-0.084,0.038-0.122,0.061
							c-0.084,0.046-0.16,0.092-0.229,0.153c-0.153,0.115-0.282,0.244-0.405,0.389c-0.244,0.29-0.435,0.634-0.58,0.985
							c-0.153,0.359-0.267,0.725-0.351,1.107c-0.046,0.191-0.076,0.382-0.115,0.573l-0.046,0.282
							c-0.008,0.038-0.015,0.076-0.031,0.115C170.332,52.538,170.317,52.584,170.309,52.629z M170.279,52.729
							c0-0.053-0.008-0.107-0.008-0.16c0-0.061,0-0.122,0-0.176l0.008-0.046l0.008-0.038l0.008-0.076l0.015-0.145
							c0.023-0.198,0.061-0.389,0.099-0.588c0.076-0.389,0.183-0.771,0.328-1.145c0.145-0.374,0.336-0.725,0.58-1.046
							c0.122-0.16,0.267-0.305,0.428-0.435c0.076-0.061,0.168-0.122,0.252-0.176c0.046-0.023,0.092-0.053,0.137-0.076
							c0.053-0.023,0.092-0.038,0.16-0.061l-0.061,0.191l0,0c0.023,0.023,0.008,0.008,0.015,0.008c0,0-0.008,0-0.008-0.008
							c-0.008,0-0.015-0.008-0.023-0.008c-0.015-0.008-0.031-0.015-0.053-0.023c-0.038-0.015-0.076-0.031-0.115-0.038
							c-0.076-0.023-0.16-0.046-0.244-0.061c-0.168-0.038-0.336-0.069-0.504-0.092l-0.084-0.015l0.053-0.069
							c0.45-0.626,1.061-1.153,1.763-1.496c0.702-0.351,1.489-0.534,2.283-0.496c0.397,0.015,0.786,0.092,1.16,0.229
							c0.374,0.137,0.725,0.344,1.015,0.618c0.29,0.275,0.511,0.618,0.641,1c0.122,0.374,0.16,0.779,0.115,1.16l-0.008,0.084
							l-0.092-0.038l0,0c-0.702-0.382-1.466-0.649-2.244-0.695c-0.786-0.046-1.565,0.145-2.267,0.519
							c-0.351,0.183-0.679,0.405-0.992,0.649c-0.313,0.244-0.603,0.519-0.878,0.809c-0.275,0.29-0.527,0.595-0.771,0.916
							c-0.122,0.16-0.237,0.321-0.351,0.489c-0.053,0.084-0.107,0.168-0.168,0.252l-0.076,0.13l-0.031,0.069
							c-0.015,0.015-0.031,0.038-0.046,0.053C170.301,52.713,170.286,52.721,170.279,52.729z"/>
					</g>
				</g>
			</g>
			<g>
				<g>
					<path class="st8" d="M188.264,52.912c-0.809-1.611-3.58-5.84-7.749-3.535c-0.099-3.244,4.649-3.809,6.909-0.695
						c-0.916,0.046-1.015,0.153-1.015,0.153S188.073,49.27,188.264,52.912z"/>
				</g>
				<g>
					<g>
						<path d="M188.279,52.965c-0.015-0.008-0.031-0.015-0.046-0.031c-0.015-0.015-0.031-0.031-0.046-0.053l-0.038-0.069
							l-0.076-0.13c-0.053-0.084-0.099-0.176-0.153-0.26c-0.107-0.168-0.214-0.336-0.328-0.504
							c-0.229-0.328-0.466-0.649-0.733-0.947c-0.26-0.298-0.542-0.588-0.84-0.84c-0.298-0.26-0.618-0.496-0.962-0.687
							c-0.679-0.397-1.458-0.618-2.237-0.611c-0.786,0.008-1.557,0.244-2.275,0.595l0,0l-0.069,0.038l-0.008-0.084
							c-0.031-0.389,0.023-0.786,0.16-1.16c0.137-0.374,0.374-0.71,0.679-0.97c0.298-0.267,0.657-0.45,1.038-0.573
							c0.374-0.122,0.771-0.176,1.168-0.183c0.786-0.008,1.573,0.214,2.26,0.588s1.275,0.924,1.702,1.573l0.046,0.069l-0.084,0.008
							c-0.168,0.023-0.344,0.046-0.504,0.069c-0.084,0.015-0.168,0.031-0.244,0.053c-0.038,0.008-0.076,0.023-0.115,0.031
							c-0.015,0.008-0.038,0.015-0.053,0.023c-0.008,0-0.015,0.008-0.023,0.008c0,0-0.008,0-0.008,0.008
							c0,0-0.008,0.008,0.015-0.008l0,0l-0.053-0.191c0.061,0.023,0.107,0.038,0.153,0.069c0.046,0.023,0.092,0.053,0.137,0.076
							c0.092,0.053,0.168,0.122,0.244,0.191c0.153,0.137,0.29,0.29,0.405,0.45c0.237,0.328,0.412,0.695,0.534,1.069
							c0.13,0.374,0.221,0.763,0.282,1.153c0.031,0.198,0.053,0.389,0.076,0.588l0.015,0.145l0.008,0.076v0.038v0.046
							c0,0.061,0,0.122-0.008,0.176C188.295,52.858,188.287,52.912,188.279,52.965z M188.257,52.866
							c-0.008-0.046-0.023-0.092-0.038-0.13c-0.015-0.038-0.023-0.076-0.023-0.115l-0.031-0.29
							c-0.031-0.191-0.053-0.382-0.092-0.573c-0.069-0.382-0.168-0.756-0.305-1.122c-0.137-0.359-0.313-0.71-0.542-1.008
							c-0.115-0.153-0.244-0.29-0.389-0.412c-0.069-0.061-0.145-0.115-0.229-0.16c-0.038-0.023-0.076-0.046-0.122-0.061
							c-0.038-0.015-0.084-0.038-0.115-0.046l-0.176-0.053l0.137-0.137l0,0c0.031-0.023,0.031-0.023,0.038-0.031
							c0.008-0.008,0.015-0.008,0.023-0.008c0.015-0.008,0.031-0.008,0.038-0.015c0.023-0.008,0.046-0.015,0.069-0.015
							c0.046-0.008,0.092-0.015,0.137-0.023c0.092-0.008,0.176-0.015,0.267-0.023c0.176-0.008,0.351-0.008,0.519-0.008l-0.038,0.084
							c-0.473-0.595-1.061-1.084-1.725-1.428s-1.405-0.534-2.145-0.534c-0.374,0-0.74,0.053-1.092,0.16
							c-0.351,0.107-0.687,0.275-0.97,0.511c-0.137,0.115-0.267,0.244-0.382,0.389s-0.206,0.305-0.275,0.473
							c-0.153,0.336-0.214,0.71-0.221,1.084l-0.076-0.046l0,0c0.344-0.214,0.718-0.389,1.107-0.519
							c0.389-0.13,0.802-0.206,1.214-0.221c0.412-0.015,0.832,0.038,1.229,0.145c0.397,0.115,0.779,0.282,1.137,0.489
							c0.71,0.42,1.313,0.985,1.832,1.611c0.26,0.313,0.496,0.641,0.718,0.985c0.107,0.168,0.214,0.344,0.313,0.519
							c0.046,0.092,0.099,0.176,0.145,0.267l0.069,0.137l0.015,0.031c0.008,0.008,0.015,0.031,0.015,0.031
							c0,0.008-0.008,0.008-0.008,0.015C188.264,52.836,188.257,52.851,188.257,52.866z"/>
					</g>
				</g>
			</g>
			<g>
				
					<ellipse transform="matrix(0.0207 -0.9998 0.9998 0.0207 122.5573 226.3351)" class="st0" cx="176.814" cy="50.607" rx="1.115" ry="0.786"/>
				<path d="M176.798,51.79c-0.008,0-0.008,0-0.015,0c-0.466-0.008-0.832-0.55-0.817-1.199c0.015-0.649,0.405-1.168,0.87-1.16
					c0.466,0.008,0.832,0.55,0.817,1.199C177.645,51.271,177.256,51.79,176.798,51.79z M176.821,49.561
					c-0.397,0-0.718,0.466-0.733,1.038c-0.015,0.58,0.305,1.061,0.702,1.069h0.008c0.397,0,0.718-0.466,0.733-1.038
					c0.015-0.58-0.305-1.061-0.702-1.069C176.828,49.561,176.828,49.561,176.821,49.561z"/>
			</g>
			<g>
				
					<ellipse transform="matrix(0.0207 -0.9998 0.9998 0.0207 119.7343 227.377)" class="st0" cx="175.934" cy="52.569" rx="0.557" ry="0.389"/>
				<path d="M175.928,53.164C175.92,53.164,175.92,53.164,175.928,53.164c-0.237-0.008-0.42-0.275-0.42-0.595
					c0-0.153,0.046-0.298,0.13-0.412s0.191-0.176,0.305-0.168c0.237,0.008,0.42,0.275,0.412,0.595
					C176.348,52.904,176.157,53.164,175.928,53.164z M175.935,52.049c-0.092,0-0.183,0.053-0.252,0.145
					c-0.076,0.099-0.115,0.229-0.115,0.374c-0.008,0.29,0.153,0.534,0.351,0.534c0,0,0,0,0.008,0c0.198,0,0.359-0.229,0.366-0.519
					l0,0C176.302,52.294,176.141,52.049,175.935,52.049C175.943,52.049,175.935,52.049,175.935,52.049z"/>
			</g>
			<g>
				
					<ellipse transform="matrix(0.0207 -0.9998 0.9998 0.0207 130.095 234.0351)" class="st0" cx="184.513" cy="50.609" rx="1.115" ry="0.786"/>
				<path d="M184.493,51.79c-0.008,0-0.008,0-0.015,0c-0.466-0.008-0.832-0.55-0.817-1.199c0.008-0.313,0.099-0.603,0.26-0.817
					c0.168-0.221,0.382-0.344,0.611-0.344c0.466,0.008,0.832,0.55,0.817,1.199l0,0C185.34,51.271,184.959,51.79,184.493,51.79z
					 M184.516,49.561c-0.183,0-0.359,0.099-0.496,0.29c-0.145,0.198-0.229,0.466-0.237,0.748c-0.015,0.58,0.305,1.061,0.702,1.069
					h0.008c0.397,0,0.718-0.466,0.733-1.038c0.015-0.58-0.305-1.061-0.702-1.069C184.524,49.561,184.524,49.561,184.516,49.561z"/>
			</g>
			<g>
				
					<ellipse transform="matrix(0.0207 -0.9998 0.9998 0.0207 127.2713 235.0746)" class="st0" cx="183.632" cy="52.571" rx="0.557" ry="0.389"/>
				<path d="M183.623,53.164L183.623,53.164c-0.237-0.008-0.42-0.275-0.42-0.595c0-0.153,0.046-0.298,0.13-0.412
					s0.191-0.176,0.305-0.168c0.229,0.008,0.42,0.275,0.412,0.595c0,0.153-0.046,0.298-0.13,0.412
					C183.844,53.103,183.737,53.164,183.623,53.164z M183.638,52.049c-0.092,0-0.183,0.053-0.252,0.145
					c-0.076,0.099-0.115,0.229-0.115,0.374c-0.008,0.29,0.153,0.534,0.351,0.534c0.092,0,0.183-0.053,0.252-0.145
					c0.076-0.099,0.115-0.229,0.115-0.374l0,0C183.997,52.294,183.836,52.049,183.638,52.049L183.638,52.049z"/>
			</g>
			<g>
				<path class="st9" d="M179.287,59.882c-0.145,0.008-0.282,0.015-0.42,0.015c-0.359,0.015-0.473,0.122-0.916,0.305
					c-0.221,0.092-0.458,0.183-0.573,0.389c-0.366-0.145-0.565-0.511-0.855-0.763c-0.435-0.397-0.443-0.878-0.542-1.115
					c-0.137-0.328,0.092-0.061,0.137-0.382c0.008-0.038,0.015-0.084,0.046-0.099c0.023-0.015,0.053-0.015,0.076-0.008
					c0.397,0.046,0.672,0.397,1.008,0.611c0.107,0.069,0.275-0.069,0.397-0.015c0.13,0.053,0.252-0.076,0.359-0.008
					c0.244,0.153,0.603,0.153,0.878,0.16c0.344,0.008,0.679,0.008,1.023-0.023c0.282-0.023,0.389,0.053,0.634-0.084l1.336-0.603
					c0.145-0.084,0.336-0.092,0.466,0.023l0,0c0.023,0.023,0.031,0.069,0.031,0.099c0.023,0.412-0.122,0.824-0.397,1.137
					c-0.176,0.198-0.29,0.42-0.412,0.657c-0.076,0.145-0.336,0.374-0.496,0.244c-0.282-0.229-0.611-0.366-0.97-0.473
					C179.836,59.882,179.561,59.882,179.287,59.882z"/>
			</g>
			<g>
				<path class="st10" d="M179.302,61.118c-0.267-0.008-0.534-0.046-0.802-0.099c-0.252-0.053-0.489-0.145-0.74-0.214
					c-0.16-0.046-0.519-0.115-0.275-0.328c0.183-0.16,0.412-0.275,0.641-0.366c0.237-0.092,0.45-0.107,0.695-0.16
					c0.321-0.069,0.58-0.099,0.908-0.046c0.305,0.053,0.565,0.168,0.863,0.267c0.176,0.061,0.359,0.122,0.466,0.282
					c0.084,0.122-0.886,0.611-0.977,0.634c-0.084,0.023-0.168,0.031-0.26,0.031C179.653,61.126,179.477,61.134,179.302,61.118z"/>
			</g>
			<g>
				<path d="M175.996,58.401c0.099,0.351,0.244,0.687,0.458,0.977c0.206,0.298,0.458,0.55,0.748,0.756s0.611,0.366,0.954,0.481
					c0.336,0.115,0.695,0.183,1.046,0.191c0.359,0.015,0.718-0.023,1.053-0.115c0.344-0.092,0.664-0.244,0.954-0.458
					c0.29-0.206,0.534-0.473,0.725-0.786c0.191-0.305,0.328-0.657,0.42-1.015l0.061,0.008c-0.038,0.374-0.137,0.748-0.313,1.099
					c-0.176,0.344-0.42,0.664-0.725,0.908c-0.305,0.252-0.657,0.435-1.038,0.557c-0.374,0.115-0.771,0.168-1.16,0.153
					c-0.786-0.031-1.565-0.29-2.183-0.771c-0.313-0.237-0.58-0.534-0.779-0.87c-0.198-0.336-0.328-0.71-0.382-1.092L175.996,58.401z
					"/>
			</g>
			<g>
				<path d="M177.37,60.592c0.214-0.275,0.511-0.481,0.84-0.611c0.084-0.031,0.168-0.061,0.252-0.092l0.26-0.061l0.26-0.038
					c0.084-0.008,0.176-0.015,0.26-0.015c0.351-0.008,0.702,0.046,1.038,0.16c0.328,0.115,0.649,0.29,0.886,0.542l-0.031,0.038
					c-0.282-0.183-0.595-0.305-0.916-0.389c-0.321-0.076-0.649-0.115-0.977-0.107c-0.084,0.008-0.16,0.008-0.244,0.015l-0.244,0.031
					l-0.237,0.046c-0.076,0.023-0.16,0.046-0.237,0.061c-0.313,0.099-0.611,0.244-0.878,0.45L177.37,60.592z"/>
			</g>
			<g>
				<g>
					<path class="st11" d="M183.928,54.927c-2.588,0.023-3.977,0.878-4.817,0.886s-2.244-0.824-4.832-0.794
						c-2.588,0.023-2.909,1.893-6.13,2.496c3.863,2.473,6.038-0.107,7.779,0.901c1.733,1.008,4.71,0.977,6.428-0.061
						c1.718-1.038,4.954,2.68,8.016-0.71C186.966,57.294,186.516,54.897,183.928,54.927z"/>
				</g>
				<g>
					<path d="M183.928,55.026c-0.687,0.015-1.366,0.099-2.031,0.244c-0.336,0.076-0.664,0.16-0.985,0.26
						c-0.328,0.099-0.649,0.206-0.985,0.313c-0.168,0.053-0.344,0.092-0.519,0.13c-0.092,0.015-0.183,0.023-0.282,0.031
						c-0.099,0-0.191-0.008-0.29-0.023c-0.366-0.061-0.695-0.168-1.023-0.26c-0.657-0.191-1.321-0.351-1.992-0.443
						c-0.336-0.046-0.672-0.076-1.015-0.092c-0.168-0.008-0.344-0.008-0.511-0.008l-0.252,0.008
						c-0.084,0.008-0.168,0.008-0.252,0.023c-0.328,0.038-0.657,0.107-0.962,0.229c-0.313,0.115-0.603,0.275-0.893,0.458
						c-0.29,0.176-0.573,0.374-0.87,0.557c-0.29,0.191-0.595,0.359-0.916,0.511c-0.634,0.298-1.305,0.496-1.992,0.611l0,0
						l0.023-0.099c0.412,0.252,0.847,0.466,1.298,0.641s0.916,0.29,1.389,0.351c0.473,0.061,0.954,0.053,1.428,0
						c0.473-0.053,0.947-0.16,1.42-0.267c0.473-0.099,0.97-0.214,1.496-0.168c0.26,0.023,0.519,0.099,0.756,0.221l0.16,0.084
						c0.053,0.031,0.107,0.053,0.16,0.076c0.053,0.023,0.107,0.046,0.16,0.069c0.053,0.023,0.107,0.046,0.16,0.069
						c0.435,0.168,0.901,0.282,1.374,0.351s0.947,0.084,1.428,0.069c0.473-0.023,0.954-0.084,1.412-0.191
						c0.458-0.115,0.908-0.267,1.321-0.489l0.16-0.092c0.061-0.031,0.122-0.061,0.183-0.092c0.13-0.053,0.26-0.076,0.397-0.092
						c0.267-0.031,0.527,0,0.771,0.053c0.496,0.099,0.954,0.275,1.412,0.428s0.916,0.305,1.389,0.397
						c0.466,0.092,0.947,0.13,1.412,0.069c0.466-0.053,0.924-0.214,1.336-0.45c0.412-0.237,0.786-0.55,1.115-0.901l0,0l0.038,0.092
						c-0.298-0.031-0.595-0.076-0.886-0.145c-0.29-0.069-0.58-0.16-0.855-0.275c-0.557-0.221-1.069-0.534-1.557-0.886
						c-0.481-0.344-0.947-0.718-1.466-0.977c-0.26-0.13-0.527-0.237-0.809-0.298C184.508,55.049,184.218,55.026,183.928,55.026z
						 M183.928,54.82c0.305,0,0.611,0.031,0.908,0.107c0.298,0.076,0.58,0.191,0.847,0.336c0.534,0.282,0.992,0.672,1.466,1.015
						c0.473,0.351,0.97,0.664,1.519,0.886c0.275,0.115,0.55,0.198,0.832,0.275c0.282,0.069,0.573,0.115,0.87,0.145l0.115,0.015
						l-0.076,0.084l0,0c-0.321,0.374-0.687,0.71-1.115,0.97c-0.42,0.267-0.901,0.443-1.397,0.519c-0.496,0.076-1,0.046-1.489-0.038
						s-0.962-0.229-1.428-0.374c-0.466-0.145-0.924-0.305-1.389-0.389c-0.229-0.038-0.458-0.061-0.679-0.038
						c-0.107,0.015-0.214,0.038-0.313,0.076c-0.046,0.023-0.099,0.046-0.145,0.069l-0.16,0.092c-0.443,0.244-0.916,0.42-1.397,0.542
						c-0.489,0.115-0.985,0.183-1.481,0.206c-0.496,0.023-0.992,0-1.489-0.076c-0.496-0.069-0.985-0.191-1.45-0.374
						c-0.061-0.023-0.115-0.046-0.176-0.076c-0.061-0.023-0.115-0.053-0.168-0.076c-0.053-0.031-0.115-0.053-0.168-0.084
						l-0.16-0.092c-0.191-0.107-0.405-0.168-0.634-0.191c-0.221-0.023-0.458-0.008-0.695,0.023c-0.237,0.031-0.473,0.076-0.71,0.122
						c-0.473,0.092-0.962,0.191-1.45,0.237c-0.496,0.046-0.992,0.038-1.489-0.031c-0.489-0.076-0.97-0.221-1.42-0.412
						c-0.458-0.191-0.886-0.435-1.29-0.71l-0.115-0.076l0.137-0.023l0,0c0.672-0.145,1.321-0.366,1.924-0.679
						c0.298-0.16,0.588-0.336,0.87-0.527c0.282-0.191,0.565-0.397,0.855-0.588c0.29-0.191,0.595-0.374,0.931-0.504
						c0.328-0.137,0.679-0.229,1.038-0.267c0.092-0.015,0.176-0.015,0.267-0.023l0.267-0.008c0.176,0,0.351,0,0.527,0.008
						c0.351,0.008,0.702,0.038,1.046,0.084c0.687,0.053,1.374,0.214,2.038,0.405c0.336,0.092,0.664,0.191,0.977,0.237
						c0.16,0.023,0.298,0.023,0.458-0.008c0.16-0.023,0.321-0.069,0.481-0.115c0.657-0.191,1.328-0.382,2.023-0.496
						C182.539,54.874,183.233,54.82,183.928,54.82z"/>
				</g>
			</g>
			<g class="st1">
				<path class="st2" d="M180.462,49.461c0.573-0.16,4.764-1.366,7.497,4.077c0.008-1.229-0.084-1.382-0.641-2.061
					s-1.191-1.733-2.351-2.229c-1.16-0.489-2.061-0.634-2.901-0.458C180.92,49.026,180.462,49.461,180.462,49.461z"/>
			</g>
			<g class="st1">
				<path class="st2" d="M178.18,49.469c-0.824-0.489-4.687-1.244-7.672,4.374c-0.031-1.115,0.015-1.641,0.466-2.221
					c0.45-0.58,1.313-1.687,2.664-2.42c0.886-0.481,1.512-0.634,2.527-0.473S178.18,49.469,178.18,49.469z"/>
			</g>
			<g class="st1">
				<path class="st2" d="M171.05,58.966c0.038,0.412,1.206,0.122,1.504,0.107c0.504-0.023,1.008-0.061,1.496-0.16
					c1.107-0.229,1.458-0.153,2.069,0.13c-0.137-0.321,0-0.71,0-0.71s-0.649-0.26-1.382-0.153s-1.496,0.489-2.275,0.443
					c-0.275-0.015-1.206-0.008-1.534-0.031C170.927,58.607,171.05,58.95,171.05,58.966z"/>
			</g>
			<g class="st1">
				<path class="st2" d="M182.31,58.912c0.672-0.183,1-0.412,1.512-0.122c0.977,0.55,3.038,0.97,3.29,0.977s0.214-0.588,0.214-0.588
					s-0.878-0.092-1.924-0.428c-1.053-0.336-2.069-0.657-2.451-0.58c-0.382,0.084-0.595,0.183-0.595,0.183
					S182.409,58.706,182.31,58.912z"/>
			</g>
			<g class="st1">
				<path class="st2" d="M177.913,60.63c0.221-0.237,2.428-0.298,2.886-0.038c0.298-0.099,0.298-0.099,0.298-0.099
					s-0.282-0.397-1.176-0.481c-0.893-0.084-1.641-0.046-2.435,0.466C177.638,60.607,177.913,60.63,177.913,60.63z"/>
			</g>
			<g>
				<g>
					<path class="st3" d="M177.584,62.92c0.626,0.809-2.229,2.786-3.535,2.244c-1.099-0.458-4-2.237-5.122-3.756
						c-1.374-1.863,4.237-7.13,5.222-4.84C175.401,59.469,176.073,60.973,177.584,62.92z"/>
				</g>
				<g>
					<path d="M177.752,62.79c0.061,0.084,0.115,0.183,0.13,0.29c0.015,0.107,0.008,0.206-0.008,0.29
						c-0.046,0.183-0.122,0.321-0.214,0.458c-0.183,0.26-0.397,0.473-0.626,0.664c-0.237,0.191-0.481,0.359-0.74,0.504
						c-0.26,0.145-0.534,0.275-0.817,0.366c-0.29,0.092-0.595,0.16-0.916,0.16c-0.16,0-0.328-0.023-0.496-0.076
						c-0.038-0.015-0.084-0.031-0.122-0.046l-0.099-0.046c-0.069-0.031-0.137-0.061-0.198-0.092c-0.519-0.26-1.015-0.55-1.496-0.863
						c-0.481-0.313-0.947-0.641-1.405-0.992c-0.45-0.351-0.893-0.725-1.298-1.137c-0.206-0.206-0.397-0.42-0.573-0.657l-0.069-0.092
						c-0.023-0.031-0.046-0.069-0.069-0.099c-0.038-0.069-0.076-0.145-0.099-0.221c-0.053-0.153-0.076-0.313-0.076-0.473
						c0-0.313,0.084-0.611,0.183-0.886c0.107-0.275,0.244-0.534,0.397-0.779c0.305-0.496,0.672-0.939,1.069-1.351
						c0.397-0.412,0.832-0.794,1.313-1.115c0.237-0.16,0.489-0.313,0.748-0.435c0.267-0.122,0.542-0.221,0.847-0.26
						c0.153-0.015,0.305-0.015,0.458,0.023s0.305,0.115,0.42,0.221c0.122,0.107,0.206,0.252,0.267,0.389l0.176,0.389
						c0.229,0.519,0.458,1.038,0.702,1.55c0.237,0.511,0.489,1.015,0.756,1.512c0.267,0.496,0.55,0.977,0.863,1.443
						C177.065,61.905,177.401,62.355,177.752,62.79z M177.424,63.05c-0.344-0.458-0.672-0.924-0.977-1.412s-0.588-0.985-0.84-1.496
						c-0.26-0.511-0.489-1.031-0.718-1.55s-0.45-1.046-0.672-1.565l-0.168-0.389c-0.046-0.122-0.115-0.229-0.206-0.313
						c-0.176-0.168-0.443-0.221-0.702-0.198c-0.267,0.031-0.527,0.122-0.771,0.237c-0.252,0.115-0.489,0.26-0.718,0.42
						c-0.458,0.321-0.878,0.687-1.267,1.092c-0.382,0.405-0.733,0.847-1.015,1.328c-0.137,0.237-0.26,0.489-0.351,0.74
						c-0.092,0.252-0.153,0.519-0.145,0.779c0,0.13,0.023,0.252,0.069,0.366c0.023,0.053,0.046,0.107,0.076,0.16
						c0.015,0.023,0.031,0.046,0.053,0.076l0.061,0.076c0.168,0.214,0.359,0.412,0.565,0.603c0.405,0.382,0.84,0.733,1.298,1.061
						c0.45,0.328,0.924,0.641,1.397,0.931c0.237,0.145,0.481,0.29,0.725,0.42c0.244,0.137,0.489,0.267,0.74,0.382
						c0.061,0.031,0.122,0.061,0.183,0.084l0.092,0.038c0.031,0.015,0.053,0.023,0.076,0.031c0.107,0.031,0.221,0.046,0.344,0.046
						c0.244,0,0.504-0.053,0.748-0.13c0.504-0.16,0.992-0.42,1.42-0.74c0.214-0.16,0.412-0.344,0.565-0.542
						c0.076-0.099,0.13-0.206,0.16-0.305c0.015-0.046,0.015-0.092,0.015-0.13C177.454,63.111,177.447,63.08,177.424,63.05z"/>
				</g>
			</g>
			<g>
				<g>
					<path class="st3" d="M180.859,62.92c-0.626,0.809,2.229,2.786,3.535,2.244c1.099-0.458,4-2.237,5.122-3.756
						c1.374-1.863-4.237-7.13-5.222-4.84C183.043,59.469,182.378,60.973,180.859,62.92z"/>
				</g>
				<g>
					<path d="M181.027,63.05c-0.023,0.031-0.031,0.061-0.038,0.099c-0.008,0.038,0,0.076,0.015,0.13
						c0.023,0.099,0.084,0.206,0.16,0.305c0.145,0.198,0.351,0.382,0.565,0.542c0.427,0.321,0.916,0.58,1.42,0.74
						c0.252,0.076,0.511,0.137,0.748,0.13c0.122,0,0.237-0.015,0.344-0.046c0.031-0.008,0.046-0.015,0.076-0.031l0.092-0.038
						c0.061-0.031,0.122-0.053,0.183-0.084c0.252-0.115,0.496-0.252,0.741-0.382c0.244-0.137,0.489-0.275,0.725-0.42
						c0.481-0.29,0.947-0.603,1.397-0.931c0.45-0.328,0.893-0.679,1.298-1.061c0.198-0.191,0.389-0.389,0.565-0.603l0.061-0.076
						c0.023-0.023,0.038-0.046,0.053-0.076c0.031-0.053,0.061-0.107,0.076-0.16c0.046-0.115,0.061-0.237,0.069-0.366
						c0.008-0.252-0.053-0.519-0.145-0.779c-0.092-0.26-0.214-0.504-0.351-0.74c-0.282-0.473-0.626-0.916-1.015-1.328
						c-0.382-0.405-0.809-0.779-1.267-1.092c-0.229-0.16-0.466-0.298-0.718-0.42c-0.252-0.115-0.511-0.206-0.771-0.237
						s-0.527,0.023-0.702,0.198c-0.092,0.084-0.16,0.191-0.206,0.313l-0.168,0.389c-0.221,0.519-0.443,1.046-0.672,1.565
						s-0.466,1.038-0.718,1.55s-0.534,1.015-0.84,1.496S181.371,62.592,181.027,63.05z M180.699,62.79
						c0.351-0.435,0.687-0.893,0.992-1.359c0.313-0.466,0.595-0.954,0.863-1.443c0.267-0.496,0.519-1,0.756-1.512
						c0.237-0.511,0.473-1.031,0.702-1.55l0.176-0.389c0.061-0.137,0.145-0.275,0.267-0.389c0.115-0.107,0.267-0.183,0.42-0.221
						c0.153-0.038,0.313-0.038,0.458-0.023c0.298,0.031,0.58,0.137,0.847,0.26c0.267,0.122,0.511,0.275,0.748,0.435
						c0.481,0.321,0.908,0.702,1.313,1.115c0.397,0.412,0.763,0.863,1.069,1.351c0.153,0.244,0.29,0.504,0.397,0.779
						s0.183,0.573,0.183,0.886c0,0.153-0.023,0.313-0.076,0.473c-0.023,0.076-0.061,0.153-0.099,0.221
						c-0.023,0.038-0.046,0.069-0.069,0.099l-0.069,0.092c-0.176,0.237-0.374,0.45-0.573,0.657
						c-0.405,0.412-0.847,0.786-1.298,1.137c-0.45,0.351-0.924,0.679-1.405,0.992c-0.481,0.313-0.97,0.603-1.496,0.863
						c-0.069,0.031-0.13,0.061-0.198,0.092l-0.099,0.046c-0.038,0.015-0.084,0.031-0.122,0.046
						c-0.168,0.053-0.336,0.076-0.496,0.076c-0.321,0-0.626-0.061-0.916-0.16c-0.29-0.092-0.557-0.221-0.817-0.366
						c-0.26-0.145-0.504-0.313-0.741-0.504s-0.443-0.405-0.626-0.664c-0.092-0.13-0.168-0.275-0.214-0.458
						c-0.023-0.092-0.031-0.191-0.008-0.29C180.584,62.973,180.63,62.874,180.699,62.79z"/>
				</g>
			</g>
			<g class="st1">
				<path class="st2" d="M190.699,44.362c0.061,0.061,1.802,2.351,1.695,3.084c-0.153,1.031-2.893,4.298-2.893,4.298l-0.214,1.786
					l-0.466-0.496l0.015,1.588c0,0,1.573-2.741,1.847-3.13c0.275-0.382,3.68-3.71,3.68-3.71L190.699,44.362z"/>
			</g>
			<g class="st1">
				<path class="st2" d="M168.874,61.042c-0.405,0.611-0.817,2.199-1.267,2.298c-0.725,0.168-1.244-0.702-2.221-0.282
					s-2.496,0.794-2.771,0.771c0.42,0.191,0.718,0.198,0.824,0.214c0.107,0.023,1.702-0.298,2.534-0.366
					c0.428-0.031,2.115,0.45,2.115,0.45s0.305-0.664,0.534-0.931c0.221-0.267,0.962-1.099,0.962-1.099L168.874,61.042z"/>
			</g>
			<g class="st1">
				<path class="st2" d="M171.103,63.172c0.45,0.26,2.359,1.008,3.176,1.061c0.97,0.061,2.588-0.573,3.115-1.481
					c0,0,0.351,0.366,0.244,0.634c-0.107,0.26-0.664,1.046-1.183,1.313c-0.519,0.267-1.924,0.817-2.435,0.573
					C173.508,65.019,171.103,63.172,171.103,63.172z"/>
			</g>
			<g class="st1">
				<path class="st2" d="M187.417,63.111c-0.45,0.26-2.359,1.008-3.176,1.061c-0.97,0.061-2.588-0.573-3.115-1.481
					c0,0-0.351,0.366-0.244,0.634c0.107,0.26,0.664,1.046,1.183,1.313c0.527,0.26,1.924,0.817,2.435,0.573
					C185.02,64.958,187.417,63.111,187.417,63.111z"/>
			</g>
			<g>
				<g>
					<path class="st12" d="M187.737,41.659c0,0-0.076-2.107-0.13-3.115c-0.038-0.824-0.053-0.809,0.786-0.847s3.115-0.13,3.115-0.13
						l2.603,2.451l-3.718,4.069L187.737,41.659z"/>
				</g>
				<g>
					<path d="M187.699,41.675c-0.053-0.634-0.092-1.283-0.122-1.931c-0.015-0.321-0.031-0.649-0.038-0.977l-0.023-0.481
						c0-0.084-0.008-0.16,0-0.252c0-0.023,0-0.046,0.008-0.069l0.023-0.061c0.008-0.023,0.015-0.046,0.031-0.069
						c0.015-0.023,0.031-0.046,0.046-0.061c0.038-0.038,0.084-0.061,0.13-0.076c0.023-0.008,0.046-0.015,0.069-0.023l0.061-0.015
						c0.084-0.015,0.168-0.023,0.244-0.023c0.16-0.008,0.321-0.015,0.481-0.023l0.962-0.031c0.641-0.023,1.29-0.038,1.931-0.053l0,0
						h0.015l0.008,0.008l2.596,2.451l0.031,0.023l-0.015,0.031l-3.718,4.069l-0.023,0.031l-0.031-0.023L187.699,41.675z
						 M187.768,41.644l2.649,2.405h-0.053l3.718-4.069v0.053l-2.603-2.451l0.031,0.008l0,0c-0.641,0.038-1.283,0.076-1.931,0.107
						l-0.962,0.053l-0.481,0.023c-0.076,0.008-0.16,0.015-0.229,0.023c-0.076,0.008-0.145,0.031-0.176,0.069
						c-0.038,0.031-0.053,0.107-0.053,0.176c-0.008,0.076,0,0.153,0,0.229l0.023,0.481c0.015,0.321,0.031,0.634,0.038,0.954
						C187.753,40.354,187.768,40.995,187.768,41.644z"/>
				</g>
			</g>
			<g>
				<g>
					<g>
						<path class="st13" d="M188.035,38.972c0.115-0.122-0.023-0.55,0.137-0.725c0.168-0.191,0.603-0.061,0.718-0.183
							c0.053-0.053,0.015-0.229-0.023-0.397c-0.183,0.008-0.351,0.015-0.481,0.023c-0.84,0.038-0.824,0.023-0.786,0.847
							c0.008,0.137,0.015,0.298,0.023,0.473C187.799,39.026,187.982,39.033,188.035,38.972z"/>
					</g>
					<g>
						<path d="M188.005,38.949c0.038-0.046,0.038-0.13,0.038-0.206s0-0.16,0.008-0.244c0.008-0.084,0.015-0.168,0.069-0.244
							s0.137-0.122,0.221-0.137c0.084-0.015,0.168-0.023,0.244-0.023s0.16-0.008,0.229-0.023c0.015-0.008,0.031-0.015,0.038-0.023
							c0.008-0.008,0.008-0.008,0.008-0.015s0.008-0.008,0.008-0.015c0.008-0.031,0.008-0.069,0-0.107
							c-0.008-0.076-0.023-0.153-0.038-0.229l0,0l0.038,0.031c-0.198,0.015-0.405,0.031-0.603,0.038
							c-0.099,0.008-0.198,0.015-0.298,0.023c-0.099,0.015-0.198,0.031-0.252,0.084c-0.053,0.053-0.061,0.153-0.069,0.252
							c-0.008,0.099,0,0.198,0.008,0.298c0.008,0.206,0.015,0.405,0.015,0.611l-0.038-0.038l0,0
							c0.069,0.008,0.137,0.008,0.206,0.008c0.031,0,0.069,0,0.099-0.008C187.966,38.972,187.997,38.965,188.005,38.949z
							 M188.066,39.003c-0.038,0.038-0.076,0.046-0.115,0.053c-0.038,0.008-0.076,0.008-0.107,0.008c-0.069,0-0.145,0-0.214-0.008
							l0,0H187.6v-0.038c-0.015-0.198-0.031-0.405-0.038-0.603c-0.008-0.099-0.008-0.206-0.008-0.305c0-0.023,0-0.053,0.008-0.076
							c0-0.023,0.008-0.053,0.015-0.084c0.008-0.053,0.038-0.115,0.076-0.16c0.023-0.023,0.046-0.038,0.076-0.053
							c0.023-0.015,0.053-0.023,0.084-0.031c0.053-0.015,0.107-0.023,0.16-0.031c0.107-0.015,0.206-0.015,0.305-0.023
							c0.206-0.008,0.405-0.015,0.611-0.015h0.031l0.008,0.031l0,0c0.015,0.076,0.038,0.16,0.046,0.237
							c0,0.038,0.008,0.084-0.008,0.13c0,0.015-0.008,0.023-0.015,0.038c-0.008,0.015-0.015,0.023-0.031,0.031
							c-0.023,0.015-0.038,0.031-0.061,0.038c-0.084,0.031-0.168,0.023-0.244,0.031c-0.076,0-0.16,0.008-0.229,0.023
							c-0.076,0.015-0.137,0.046-0.176,0.107c-0.038,0.053-0.053,0.137-0.053,0.206c-0.008,0.076,0,0.153-0.008,0.237
							c0,0.038,0,0.084-0.008,0.122C188.104,38.911,188.096,38.957,188.066,39.003z"/>
					</g>
				</g>
			</g>
			<g>
				<g>
					<path class="st14" d="M196.517,49.713l-1.901-1.748c-0.305-0.282-0.328-0.763-0.046-1.069l2.741-2.977
						c0.282-0.305,0.763-0.328,1.069-0.046l1.901,1.748c0.305,0.282,0.328,0.763,0.046,1.069l-2.741,2.977
						C197.31,49.973,196.83,49.996,196.517,49.713z"/>
				</g>
				<g>
					<path d="M196.478,49.759l-1.649-1.534l-0.206-0.191c-0.069-0.061-0.137-0.137-0.191-0.229c-0.099-0.176-0.13-0.382-0.084-0.573
						c0.023-0.099,0.061-0.191,0.115-0.275c0.061-0.084,0.122-0.145,0.191-0.221l0.382-0.412l1.527-1.657
						c0.26-0.275,0.504-0.55,0.771-0.824c0.145-0.13,0.336-0.206,0.534-0.206s0.389,0.076,0.534,0.206l1.657,1.527l0.206,0.191
						c0.069,0.061,0.145,0.137,0.191,0.221c0.099,0.168,0.13,0.382,0.092,0.573c-0.023,0.099-0.061,0.191-0.115,0.275
						c-0.015,0.023-0.031,0.038-0.046,0.061s-0.031,0.038-0.046,0.053l-0.092,0.107l-0.374,0.42
						c-0.252,0.282-0.504,0.557-0.756,0.832c-0.252,0.275-0.511,0.55-0.763,0.824l-0.382,0.412l-0.191,0.206L197.7,49.66
						l-0.046,0.053l-0.053,0.053c-0.153,0.137-0.359,0.214-0.557,0.214C196.83,49.98,196.623,49.896,196.478,49.759z
						 M196.562,49.667c0.13,0.115,0.298,0.183,0.473,0.176c0.168,0,0.344-0.069,0.466-0.183l0.046-0.046l0.046-0.053l0.092-0.107
						l0.191-0.206l0.382-0.42c0.252-0.275,0.504-0.557,0.763-0.832c0.252-0.275,0.511-0.55,0.771-0.824l0.389-0.405
						c0.061-0.069,0.137-0.13,0.183-0.206c0.053-0.069,0.092-0.153,0.107-0.237c0.046-0.168,0.015-0.359-0.069-0.519
						c-0.046-0.076-0.099-0.145-0.168-0.206l-0.206-0.191l-1.657-1.527c-0.137-0.107-0.321-0.176-0.496-0.176
						c-0.183,0-0.359,0.069-0.489,0.191c-0.252,0.267-0.511,0.55-0.763,0.824l-1.527,1.657l-0.382,0.412
						c-0.061,0.069-0.13,0.137-0.176,0.206c-0.046,0.076-0.084,0.153-0.107,0.244c-0.038,0.176-0.008,0.359,0.076,0.511
						c0.046,0.076,0.099,0.137,0.176,0.206l0.206,0.191L196.562,49.667z"/>
				</g>
			</g>
			<g>
				<path class="st15" d="M191.547,37.636c-0.428-0.397,0.748,1.771,0.473,2.076c-0.275,0.305-1.725-0.389-2.138,0.069
					c-0.389,0.428,0.351,1.832,0.076,2.13c-0.275,0.298-2.435-0.504-2.13-0.229c0.336,0.305,5.382,4.954,5.382,4.954l0.847-0.916
					l0.046-0.046l2-2.168l0.038-0.046l0.802-0.87C196.929,42.591,192.02,38.071,191.547,37.636z"/>
			</g>
			<g class="st16">
				<polygon class="st0" points="196.875,42.621 196.058,43.499 192.074,39.751 191.478,37.56 				"/>
			</g>
			<g>
				
					<rect x="194.029" y="38.827" transform="matrix(0.6774 -0.7356 0.7356 0.6774 31.9875 156.1837)" width="0.076" height="5.588"/>
			</g>
			<g>
				
					<rect x="191.979" y="41.034" transform="matrix(0.6775 -0.7355 0.7355 0.6775 29.6846 155.3662)" width="0.076" height="5.596"/>
			</g>
			<g>
				<g>
					
						<rect x="193.486" y="44.224" transform="matrix(0.6774 -0.7356 0.7356 0.6774 29.6857 159.1247)" class="st17" width="5.565" height="2.985"/>
				</g>
				<g>
					<path d="M195.486,48.805l-2.244-2.008l-0.053-0.046l0.046-0.053l3.779-4.092l0.046-0.046l0.046,0.046l2.176,2.038l0.031,0.023
						l-0.031,0.031L195.486,48.805z M195.478,48.736l3.748-4.084v0.053l-2.214-2h0.092l-3.764,4.099l-0.008-0.099L195.478,48.736z"
						/>
				</g>
			</g>
			<g>
				<g>
					<g>
						<polygon class="st17" points="193.348,43.881 193.944,44.423 194.623,44.285 194.715,43.591 194.119,43.049 193.44,43.186 
													"/>
					</g>
					<g>
						<path d="M193.379,43.866l0.588,0.534l-0.031-0.008l0.672-0.176l-0.053,0.061l0.122-0.687l0.008,0.031l-0.595-0.55l0.031,0.008
							l-0.672,0.183l0.053-0.061L193.379,43.866z M193.318,43.889l0.046-0.71v-0.053l0.053-0.008l0.687-0.107h0.015l0.008,0.008
							l0.595,0.55l0.008,0.008v0.015l-0.053,0.695v0.053l-0.053,0.008l-0.687,0.107h-0.015l-0.008-0.008L193.318,43.889z"/>
					</g>
				</g>
				<g>
					<g>
						<path class="st0" d="M193.555,43.652l0.344-0.374l0.099,0.092l0.069,0.382c0.023,0.099,0.046,0.16,0.084,0.198
							c0.031,0.023,0.053,0.038,0.076,0.046c0.023,0,0.046-0.008,0.061-0.023c0.015-0.015,0.023-0.046,0.015-0.076
							c-0.008-0.031-0.031-0.061-0.061-0.084l0.115-0.122c0.038,0.038,0.069,0.084,0.092,0.13c0.023,0.046,0.023,0.099,0.015,0.145
							c-0.008,0.046-0.031,0.092-0.061,0.122c-0.053,0.061-0.115,0.084-0.176,0.092c-0.061,0-0.122-0.031-0.183-0.084
							c-0.023-0.023-0.046-0.053-0.069-0.084c-0.015-0.031-0.031-0.069-0.046-0.107c-0.015-0.038-0.023-0.099-0.038-0.183
							l-0.023-0.168l-0.198,0.214L193.555,43.652z"/>
					</g>
				</g>
			</g>
			<g class="st16">
				
					<rect x="197.077" y="42.708" transform="matrix(0.6834 -0.7301 0.7301 0.6834 30.1876 158.1818)" class="st0" width="0.763" height="3.161"/>
			</g>
			<g>
				
					<rect x="192.745" y="44.932" transform="matrix(0.6774 -0.7356 0.7356 0.6774 29.9312 158.3831)" class="st15" width="5.603" height="0.267"/>
				<path d="M193.753,47.24l-0.221-0.206l0.015-0.015l3.809-4.138l0.221,0.206l-0.015,0.015L193.753,47.24z M193.585,47.034
					l0.168,0.153l3.771-4.099l-0.168-0.153L193.585,47.034z"/>
			</g>
			<g>
				
					<rect x="194.18" y="46.247" transform="matrix(0.6774 -0.7356 0.7356 0.6774 29.4267 159.8632)" class="st15" width="5.603" height="0.267"/>
				<path d="M195.188,48.561l-0.221-0.206l0.015-0.015l3.809-4.138l0.221,0.206l-0.015,0.008L195.188,48.561z M195.013,48.347
					l0.168,0.153l3.771-4.099l-0.168-0.153L195.013,48.347z"/>
			</g>
			<g>
				<path d="M197.448,43.537c0.092,0.053,0.176,0.115,0.26,0.176c0.084,0.061,0.16,0.13,0.237,0.206
					c0.076,0.069,0.153,0.145,0.221,0.221c0.069,0.076,0.137,0.16,0.198,0.244c-0.092-0.053-0.176-0.115-0.26-0.183
					c-0.084-0.061-0.16-0.13-0.237-0.206c-0.076-0.069-0.153-0.145-0.221-0.221C197.578,43.705,197.509,43.629,197.448,43.537z"/>
			</g>
			<g>
				<path d="M194.181,47.087c0.092,0.053,0.176,0.115,0.26,0.176c0.084,0.061,0.16,0.13,0.237,0.206
					c0.076,0.069,0.153,0.145,0.221,0.221c0.069,0.076,0.137,0.16,0.198,0.244c-0.092-0.053-0.176-0.115-0.26-0.183
					c-0.084-0.061-0.16-0.13-0.237-0.206c-0.076-0.069-0.153-0.145-0.221-0.221C194.31,47.255,194.242,47.179,194.181,47.087z"/>
			</g>
			<g>
				<path d="M197.043,43.98c0.092,0.053,0.176,0.115,0.26,0.176c0.084,0.061,0.16,0.13,0.237,0.206
					c0.076,0.069,0.153,0.145,0.221,0.221c0.069,0.076,0.137,0.16,0.198,0.244c-0.092-0.053-0.176-0.115-0.26-0.183
					c-0.084-0.061-0.16-0.13-0.237-0.206c-0.076-0.069-0.153-0.145-0.221-0.221C197.173,44.148,197.104,44.072,197.043,43.98z"/>
			</g>
			<g>
				<path d="M196.631,44.423c0.092,0.053,0.176,0.115,0.26,0.176c0.084,0.061,0.16,0.13,0.237,0.206
					c0.076,0.069,0.153,0.145,0.221,0.221c0.069,0.076,0.137,0.16,0.198,0.244c-0.092-0.053-0.176-0.115-0.26-0.183
					c-0.084-0.061-0.16-0.13-0.237-0.206c-0.076-0.069-0.153-0.145-0.221-0.221C196.761,44.598,196.692,44.514,196.631,44.423z"/>
			</g>
			<g>
				<path d="M196.226,44.873c0.092,0.053,0.176,0.115,0.26,0.176c0.084,0.061,0.16,0.13,0.237,0.206
					c0.076,0.069,0.153,0.145,0.221,0.221s0.137,0.16,0.198,0.244c-0.092-0.053-0.176-0.115-0.26-0.183
					c-0.084-0.061-0.16-0.13-0.237-0.206c-0.076-0.069-0.153-0.145-0.221-0.221C196.356,45.041,196.288,44.957,196.226,44.873z"/>
			</g>
			<g>
				<path d="M195.814,45.316c0.092,0.053,0.176,0.115,0.26,0.176c0.084,0.061,0.16,0.13,0.237,0.206
					c0.076,0.069,0.153,0.145,0.221,0.221s0.137,0.16,0.198,0.244c-0.092-0.053-0.176-0.115-0.26-0.183
					c-0.084-0.061-0.16-0.13-0.237-0.206c-0.076-0.069-0.153-0.145-0.221-0.221C195.944,45.484,195.875,45.4,195.814,45.316z"/>
			</g>
			<g>
				<path d="M195.41,45.759c0.092,0.053,0.176,0.115,0.26,0.176c0.084,0.061,0.16,0.13,0.237,0.206
					c0.076,0.069,0.153,0.145,0.221,0.221c0.069,0.076,0.137,0.16,0.198,0.244c-0.092-0.053-0.176-0.115-0.26-0.183
					c-0.084-0.061-0.16-0.13-0.237-0.206c-0.076-0.069-0.153-0.145-0.221-0.221C195.539,45.927,195.471,45.85,195.41,45.759z"/>
			</g>
			<g>
				<path d="M194.997,46.202c0.092,0.053,0.176,0.115,0.26,0.176c0.084,0.061,0.16,0.13,0.237,0.206
					c0.076,0.069,0.153,0.145,0.221,0.221s0.137,0.16,0.198,0.244c-0.092-0.053-0.176-0.115-0.26-0.183
					c-0.084-0.061-0.16-0.13-0.237-0.206c-0.076-0.069-0.153-0.145-0.221-0.221C195.127,46.37,195.058,46.293,194.997,46.202z"/>
			</g>
			<g>
				<path d="M194.593,46.644c0.092,0.053,0.176,0.115,0.26,0.176c0.084,0.061,0.16,0.13,0.237,0.206
					c0.076,0.069,0.153,0.145,0.221,0.221c0.069,0.076,0.137,0.16,0.198,0.244c-0.092-0.053-0.176-0.115-0.26-0.183
					c-0.084-0.061-0.16-0.13-0.237-0.206c-0.076-0.069-0.153-0.145-0.221-0.221C194.715,46.812,194.654,46.736,194.593,46.644z"/>
			</g>
			<g>
				<path d="M195.486,48.805l-2.244-2.008l-0.053-0.046l0.046-0.053l3.779-4.092l0.046-0.046l0.046,0.046l2.176,2.038l0.023,0.023
					l-0.023,0.031c-0.305,0.351-0.618,0.702-0.931,1.053c-0.313,0.351-0.634,0.695-0.954,1.038
					c-0.321,0.344-0.641,0.687-0.962,1.023l-0.481,0.504L195.486,48.805z M195.478,48.736l0.466-0.534l0.466-0.519
					c0.313-0.344,0.618-0.687,0.924-1.023c0.313-0.336,0.618-0.679,0.939-1.008c0.313-0.336,0.634-0.664,0.954-1v0.053l-2.214-2
					h0.092l-3.764,4.099l-0.008-0.099L195.478,48.736z"/>
			</g>
			<g>
				<path d="M191.509,37.667c-0.015-0.015-0.031-0.023-0.038-0.031c0-0.008-0.015,0,0.008,0c0.015,0,0.023-0.015,0.023-0.023l0,0
					c0,0.023,0.008,0.069,0.023,0.107c0.023,0.076,0.053,0.16,0.092,0.237c0.061,0.153,0.137,0.313,0.206,0.466
					s0.137,0.313,0.198,0.473c0.061,0.16,0.122,0.328,0.153,0.511c0.008,0.046,0.015,0.092,0.015,0.145c0,0.053,0,0.107-0.031,0.183
					c-0.038,0.084-0.107,0.122-0.16,0.145c-0.061,0.023-0.115,0.031-0.16,0.038c-0.099,0.008-0.191,0-0.282-0.015
					c-0.092-0.008-0.176-0.031-0.26-0.046c-0.168-0.038-0.336-0.076-0.496-0.107c-0.16-0.031-0.328-0.061-0.489-0.053
					c-0.16,0-0.321,0.046-0.405,0.16c-0.038,0.061-0.061,0.13-0.069,0.206s0,0.16,0.008,0.237c0.046,0.328,0.153,0.649,0.237,0.985
					c0.023,0.084,0.038,0.168,0.046,0.26c0.008,0.092,0.015,0.183-0.008,0.298c-0.015,0.053-0.038,0.122-0.107,0.176
					c-0.069,0.046-0.122,0.061-0.176,0.069c-0.107,0.015-0.198,0.008-0.282,0c-0.176-0.015-0.344-0.061-0.511-0.099
					c-0.168-0.046-0.328-0.092-0.496-0.137c-0.16-0.046-0.328-0.092-0.489-0.13c-0.038-0.008-0.084-0.015-0.122-0.023
					c-0.038-0.008-0.084-0.015-0.107-0.008l0,0c0,0,0.008-0.008,0.015-0.008c0.008-0.008,0.015-0.023,0.015-0.031
					c0-0.023-0.008-0.023-0.008-0.023l0,0c0.008,0.008,0.031,0.023,0.038,0.038l0.092,0.084l0.748,0.695l1.504,1.382l1.512,1.374
					c0.504,0.458,1.008,0.916,1.519,1.366l0,0l-0.137,0.008l3.725-4.054l0,0l0.008,0.145c-0.435-0.428-0.886-0.84-1.328-1.26
					l-1.336-1.252c-0.443-0.42-0.893-0.832-1.344-1.244L191.509,37.667z M191.577,37.598l1.344,1.237
					c0.45,0.412,0.893,0.824,1.351,1.237l1.359,1.229c0.458,0.405,0.908,0.817,1.366,1.214l0.076,0.069l-0.069,0.084l0,0
					l-3.733,4.046l-0.069,0.069l-0.069-0.069l0,0c-0.496-0.466-0.992-0.931-1.489-1.397l-1.496-1.389l-1.504-1.382l-0.748-0.687
					l-0.092-0.084c-0.015-0.015-0.031-0.023-0.053-0.046c-0.008-0.008-0.008-0.015-0.015-0.023s-0.015-0.023-0.015-0.053
					c0-0.015,0.008-0.031,0.015-0.046c0.008-0.008,0.023-0.015,0.031-0.023c0.015-0.008,0.023-0.008,0.031-0.008
					c0.061-0.008,0.099,0.008,0.145,0.008c0.046,0.008,0.084,0.015,0.13,0.023l0.504,0.107c0.336,0.061,0.672,0.13,0.992,0.145
					c0.076,0,0.16,0,0.221-0.008c0.031-0.008,0.061-0.015,0.061-0.023l0.008-0.008c0.008-0.008,0.008-0.015,0.015-0.031
					c0.015-0.053,0.015-0.13,0.008-0.206s-0.015-0.16-0.031-0.244c-0.053-0.328-0.137-0.664-0.16-1.015
					c-0.008-0.092-0.008-0.176,0.008-0.267c0.008-0.092,0.038-0.183,0.092-0.267c0.061-0.084,0.145-0.145,0.237-0.176
					c0.092-0.031,0.183-0.046,0.267-0.053c0.359-0.023,0.702,0.038,1.038,0.084c0.168,0.015,0.336,0.046,0.473,0.031
					c0.031,0,0.069-0.008,0.084-0.015c0.023-0.008,0.031-0.023,0.031-0.015c0.008-0.008,0.008-0.038,0.008-0.069
					s0-0.069-0.008-0.107c-0.015-0.183-0.061-0.344-0.099-0.504c-0.046-0.16-0.099-0.321-0.153-0.481
					c-0.053-0.16-0.107-0.321-0.16-0.481c-0.031-0.084-0.053-0.16-0.076-0.244c-0.008-0.046-0.023-0.084-0.023-0.145
					c0-0.008,0-0.015,0.008-0.031c0.008-0.015,0.023-0.038,0.046-0.038c0.023-0.008,0.038,0,0.046,0
					c0.008,0,0.015,0.008,0.023,0.008C191.547,37.568,191.562,37.583,191.577,37.598z"/>
			</g>
			<g class="st1">
				<path class="st2" d="M199.402,44.812l-0.153-0.137l-2.886,3.145c-1.886-1.748-4.405-4.015-6.39-5.893
					c-0.023-0.023-0.534,0.046-0.534,0.046l-1.023-0.237l-0.687-0.115l8.932,8.222l0.603,0.061l0.695-0.618
					c0,0-0.573-0.534-1.435-1.328L199.402,44.812z"/>
			</g>
			<g class="st16">
				<path class="st0" d="M188.631,38.132l-1.046-0.26c0,0-0.023-0.092,0.153-0.099c0.176-0.008,1.183,0.115,1.183,0.115
					l-0.023,0.206L188.631,38.132z"/>
			</g>
			<g>
				<g>
					<path d="M188.005,38.949c0.038-0.046,0.038-0.13,0.038-0.206s0-0.16,0.008-0.244c0.008-0.084,0.015-0.168,0.069-0.244
						s0.137-0.122,0.221-0.137c0.084-0.015,0.168-0.023,0.244-0.023s0.16-0.008,0.229-0.023c0.015-0.008,0.031-0.015,0.038-0.023
						c0.008-0.008,0.008-0.008,0.008-0.015s0.008-0.008,0.008-0.015c0.008-0.031,0.008-0.069,0-0.107
						c-0.008-0.076-0.023-0.153-0.038-0.229l0,0l0.038,0.031c-0.198,0.015-0.405,0.031-0.603,0.038
						c-0.099,0.008-0.198,0.015-0.298,0.023c-0.099,0.015-0.198,0.031-0.252,0.084c-0.053,0.053-0.061,0.153-0.069,0.252
						c-0.008,0.099,0,0.198,0.008,0.298c0.008,0.206,0.015,0.405,0.015,0.611l-0.038-0.038l0,0c0.069,0.008,0.137,0.008,0.206,0.008
						c0.031,0,0.069,0,0.099-0.008C187.966,38.972,187.997,38.965,188.005,38.949z M188.066,39.003
						c-0.038,0.038-0.076,0.046-0.115,0.053c-0.038,0.008-0.076,0.008-0.107,0.008c-0.069,0-0.145,0-0.214-0.008l0,0H187.6v-0.038
						c-0.015-0.198-0.031-0.405-0.038-0.603c-0.008-0.099-0.008-0.206-0.008-0.305c0-0.023,0-0.053,0.008-0.076
						c0-0.023,0.008-0.053,0.015-0.084c0.008-0.053,0.038-0.115,0.076-0.16c0.023-0.023,0.046-0.038,0.076-0.053
						c0.023-0.015,0.053-0.023,0.084-0.031c0.053-0.015,0.107-0.023,0.16-0.031c0.107-0.015,0.206-0.015,0.305-0.023
						c0.206-0.008,0.405-0.015,0.611-0.015h0.031l0.008,0.031l0,0c0.015,0.076,0.038,0.16,0.046,0.237
						c0,0.038,0.008,0.084-0.008,0.13c0,0.015-0.008,0.023-0.015,0.038c-0.008,0.015-0.015,0.023-0.031,0.031
						c-0.023,0.015-0.038,0.031-0.061,0.038c-0.084,0.031-0.168,0.023-0.244,0.031c-0.076,0-0.16,0.008-0.229,0.023
						c-0.076,0.015-0.137,0.046-0.176,0.107c-0.038,0.053-0.053,0.137-0.053,0.206c-0.008,0.076,0,0.153-0.008,0.237
						c0,0.038,0,0.084-0.008,0.122C188.104,38.911,188.096,38.957,188.066,39.003z"/>
				</g>
			</g>
			<g>
				<path class="st17" d="M192.409,42.377c0.015-0.008,0.046,0,0.076,0c0.015,0,0.038,0,0.053,0c-0.008-0.015,0-0.038-0.015-0.053
					c-0.023-0.023-0.046-0.053-0.069-0.076c-0.053-0.046-0.107-0.092-0.176-0.153c-0.008,0.031-0.008,0.046-0.008,0.053
					c0.031,0.038,0.008,0.053-0.023,0.076c-0.069,0.053-0.191,0.053-0.26-0.008c-0.053-0.038-0.053-0.092,0-0.13
					c0.038-0.031,0.076-0.061,0.122-0.084c0.107-0.061,0.214-0.099,0.344-0.061c0.137,0.038,0.191,0.176,0.099,0.298
					c0.031,0.015,0.061,0.038,0.092,0.038c0.061-0.008,0.115-0.038,0.176-0.053c0.031-0.008,0.023-0.031,0.008-0.046
					c-0.015-0.008-0.031-0.008-0.046-0.008c-0.046,0.008-0.069-0.015-0.069-0.061c0-0.015,0-0.023-0.008-0.038
					c-0.061-0.176-0.313-0.328-0.496-0.313c-0.122,0.015-0.229,0.061-0.321,0.153c-0.076,0.076-0.099,0.221-0.038,0.313
					c0.069,0.092,0.16,0.153,0.267,0.183C192.211,42.438,192.31,42.43,192.409,42.377z"/>
				<path class="st17" d="M190.257,40.308c0.122-0.038,0.183-0.145,0.168-0.267c0-0.031-0.015-0.069-0.038-0.092
					c-0.084-0.084-0.176-0.16-0.26-0.244c-0.092,0.023-0.176,0.061-0.221,0.137c-0.038,0.061-0.053,0.122-0.069,0.198
					c0.084-0.038,0.168-0.076,0.244-0.115c0.038-0.015,0.069-0.038,0.107-0.046c0.023-0.008,0.053,0.008,0.076,0.023
					c0.015,0.008,0.031,0.031,0.046,0.046c0.031,0.023,0.031,0.053,0,0.084c-0.092,0.115-0.214,0.168-0.351,0.191
					c-0.038-0.008-0.084,0-0.13-0.008c0,0.031,0,0.061,0,0.092c0,0.008,0.008,0.023,0.008,0.031
					c0.038,0.031,0.099,0.053,0.145,0.046C190.081,40.369,190.173,40.339,190.257,40.308z"/>
				<path class="st17" d="M192.028,41.423c-0.084-0.115-0.198-0.176-0.351-0.176c-0.115,0-0.267,0.038-0.344,0.099
					c-0.137,0.107-0.168,0.267-0.053,0.397c0.183,0.198,0.557,0.145,0.71-0.008C192.089,41.644,192.104,41.522,192.028,41.423z
					 M191.951,41.514c-0.061,0.092-0.153,0.137-0.244,0.176c-0.061,0.023-0.13,0.038-0.183,0.046
					c-0.046-0.008-0.076-0.015-0.107-0.023c-0.061-0.023-0.084-0.084-0.038-0.137c0.069-0.076,0.153-0.122,0.244-0.16
					c0.046-0.015,0.099-0.023,0.145-0.038c0.061-0.015,0.115,0.008,0.16,0.038C191.982,41.438,191.982,41.469,191.951,41.514z"/>
				<path class="st17" d="M191.501,41.163c0.053-0.023,0.069-0.13,0.031-0.168c-0.099-0.099-0.206-0.191-0.305-0.282
					c-0.015-0.015-0.038-0.023-0.061-0.038l-0.008,0.008c0.008,0.015,0.008,0.031,0.023,0.053c-0.046,0.023-0.092,0.038-0.13,0.061
					c-0.107,0.046-0.206,0.099-0.313,0.137c-0.053,0.023-0.115,0.069-0.176,0.008c0.061,0.099,0.145,0.16,0.221,0.237
					c0.008,0,0.015-0.008,0.015-0.008c0-0.031,0-0.053-0.008-0.084c0-0.008-0.008-0.008-0.008-0.015
					c0.076-0.031,0.145-0.061,0.221-0.084c0.038-0.015,0.053,0.008,0.038,0.038c-0.015,0.046-0.038,0.084-0.053,0.13
					c-0.031,0.076-0.061,0.153-0.092,0.229c0.069,0.031,0.137,0.053,0.198,0.076c0.023,0.008,0.046-0.008,0.069-0.008
					c-0.008-0.015-0.008-0.038-0.023-0.053c-0.031-0.031-0.031-0.069-0.015-0.107c0.015-0.038,0.031-0.069,0.038-0.107
					c0.008-0.023,0.015-0.038,0.023-0.053c0.038,0.015,0.069,0.031,0.107,0.038C191.371,41.209,191.44,41.201,191.501,41.163z
					 M191.135,40.988c-0.031-0.015-0.023-0.046,0.008-0.061c0.046-0.023,0.092-0.038,0.137-0.061
					c0.061-0.023,0.092,0.023,0.122,0.061c0.008,0.015,0.023,0.053,0.015,0.053c-0.031,0.031-0.076,0.053-0.107,0.076
					C191.241,41.033,191.188,41.018,191.135,40.988z"/>
				<path class="st17" d="M190.631,40.804c-0.061-0.015-0.137,0.038-0.198-0.008c-0.053-0.046-0.107-0.084-0.168-0.137
					c0.023-0.023,0.046-0.046,0.069-0.061c0.038-0.023,0.084-0.038,0.122-0.061c0.038-0.023,0.069-0.015,0.099,0.008
					c0.023,0.023,0.053,0.053,0.076,0.092c-0.015,0.015-0.031,0.023-0.038,0.038c-0.008,0.008-0.015,0.023-0.015,0.038
					c0.015,0.008,0.031,0.015,0.038,0.015c0.069-0.031,0.13-0.069,0.198-0.099c0-0.008,0-0.015-0.008-0.023
					c-0.015,0-0.038-0.008-0.053,0c-0.053,0.015-0.137-0.031-0.145-0.084c0-0.008,0.008-0.023,0.015-0.031
					c0.053-0.031,0.107-0.053,0.16-0.076c0.015-0.008,0.038,0.008,0.053,0.015c0.023,0.015,0.038,0.031,0.053,0.046
					c0.084,0.084,0.084,0.084,0,0.176c0,0.008-0.008,0.008-0.015,0.023c0.015,0.008,0.038,0.031,0.053,0.023
					c0.061-0.031,0.122-0.069,0.191-0.115c-0.038-0.015-0.069-0.015-0.084-0.031c-0.084-0.076-0.176-0.153-0.26-0.229
					c-0.053-0.046-0.099-0.099-0.153-0.145c-0.008,0-0.015,0-0.015,0.008c0.031,0.053,0.008,0.084-0.038,0.107
					c-0.115,0.053-0.229,0.115-0.336,0.176c-0.061,0.038-0.115,0.046-0.176-0.008c-0.008-0.008-0.031,0-0.069,0
					c0.031,0.038,0.046,0.061,0.061,0.076c0.069,0.061,0.13,0.122,0.198,0.183c0.061,0.053,0.122,0.115,0.183,0.168
					c0.015,0.008,0.038,0.023,0.046,0.015c0.053-0.023,0.099-0.046,0.153-0.069C190.638,40.812,190.638,40.804,190.631,40.804z"/>
				<path class="st17" d="M193.02,42.385c-0.015,0.015-0.038,0.038-0.053,0.038c-0.076,0.015-0.153,0.031-0.229,0.046
					c-0.099,0.015-0.206,0.038-0.305,0.046c-0.053,0.008-0.107,0.038-0.168,0c-0.008-0.008-0.023-0.008-0.038-0.008
					c0,0.015,0,0.031,0.008,0.038c0.061,0.061,0.122,0.115,0.183,0.176c0.008,0.008,0.031,0.008,0.046,0.015
					c0-0.015,0-0.031,0-0.046c0-0.023-0.015-0.061-0.008-0.069c0.031-0.023,0.076-0.046,0.107-0.038
					c0.046,0.015,0.092,0.053,0.137,0.084c0.046,0.038,0.046,0.053,0.008,0.092c-0.023,0.023-0.061,0.031-0.092,0.038
					c-0.015,0.008-0.038,0-0.061,0c0.008,0.015,0.008,0.023,0.008,0.031c0.061,0.061,0.13,0.13,0.198,0.191
					c0.008,0.008,0.038,0.008,0.053,0.008c0-0.015,0-0.038-0.008-0.046c-0.038-0.046-0.023-0.076,0.015-0.107
					c0.061-0.061,0.122-0.115,0.183-0.183s0.122-0.145,0.183-0.206C193.142,42.461,193.081,42.423,193.02,42.385z M192.89,42.591
					c-0.031,0.031-0.061,0.053-0.099,0.076c-0.008,0.008-0.023,0-0.031-0.008c-0.015-0.008-0.031-0.023-0.046-0.038
					c-0.008-0.015-0.023-0.031-0.023-0.046c0.008-0.015,0.023-0.031,0.046-0.038c0.038-0.008,0.076-0.015,0.13-0.015
					c0.008,0.008,0.031,0.015,0.038,0.031C192.906,42.56,192.898,42.583,192.89,42.591z"/>
			</g>
		</g>
	</g>
	<rect x="118.208" y="36.682" class="st0" width="0.527" height="30.536"/>
	<rect x="213.731" y="36.682" class="st0" width="0.527" height="30.536"/>
	<g>
		<g>
			<g class="st18">
				<path class="st19" d="M252.578,47.494l0.13,1.507c0.885-1.164,2.108-1.744,3.669-1.744c1.338,0,2.336,0.399,2.998,1.2
					c0.66,0.801,1.003,2.003,1.027,3.608v8.273h-4.012v-8.107c0-0.649-0.13-1.125-0.391-1.43c-0.261-0.305-0.736-0.457-1.425-0.457
					c-0.783,0-1.364,0.308-1.744,0.926v9.069h-4V47.494C248.829,47.494,252.578,47.494,252.578,47.494z"/>
				<path class="st19" d="M268.465,56.728c0-0.339-0.177-0.613-0.535-0.818c-0.356-0.205-1.034-0.419-2.029-0.641
					c-0.997-0.222-1.82-0.512-2.469-0.873c-0.649-0.36-1.143-0.797-1.483-1.311s-0.511-1.103-0.511-1.768
					c0-1.179,0.488-2.151,1.461-2.915s2.249-1.146,3.822-1.146c1.692,0,3.054,0.384,4.084,1.151
					c1.029,0.768,1.544,1.777,1.544,3.028h-4.012c0-1.029-0.542-1.544-1.625-1.544c-0.419,0-0.771,0.117-1.056,0.351
					c-0.285,0.233-0.428,0.524-0.428,0.873c0,0.356,0.175,0.645,0.522,0.866c0.347,0.222,0.903,0.404,1.668,0.546
					c0.764,0.142,1.434,0.313,2.012,0.511c1.931,0.665,2.896,1.856,2.896,3.572c0,1.172-0.521,2.124-1.561,2.862
					c-1.04,0.736-2.388,1.103-4.042,1.103c-1.101,0-2.081-0.198-2.944-0.594s-1.535-0.934-2.018-1.614s-0.725-1.396-0.725-2.148
					h3.74c0.015,0.594,0.214,1.027,0.594,1.3c0.38,0.272,0.866,0.409,1.459,0.409c0.546,0,0.955-0.11,1.227-0.332
					C268.328,57.372,268.465,57.085,268.465,56.728z"/>
				<path class="st19" d="M273.286,44.169c0-0.573,0.205-1.043,0.618-1.41c0.412-0.366,0.946-0.55,1.602-0.55
					s1.191,0.184,1.602,0.55s0.617,0.836,0.617,1.41s-0.206,1.043-0.617,1.41c-0.412,0.366-0.946,0.55-1.602,0.55
					s-1.192-0.184-1.602-0.55C273.493,45.213,273.286,44.743,273.286,44.169z M277.536,60.337h-4.012V47.494h4.012V60.337z"/>
				<path class="st19" d="M283.783,44.299v3.194h2.113v2.777h-2.113v5.877c0,0.483,0.086,0.818,0.261,1.01
					c0.175,0.19,0.518,0.285,1.034,0.285c0.396,0,0.727-0.024,0.997-0.071v2.86c-0.721,0.229-1.472,0.345-2.255,0.345
					c-1.377,0-2.394-0.324-3.05-0.973s-0.986-1.634-0.986-2.955v-6.374h-1.638v-2.777h1.638v-3.194h3.999L283.783,44.299
					L283.783,44.299z"/>
				<path class="st19" d="M292.807,60.574c-1.971,0-3.566-0.588-4.783-1.762c-1.219-1.176-1.828-2.705-1.828-4.588v-0.332
					c0-1.314,0.243-2.473,0.73-3.477c0.486-1.005,1.197-1.782,2.131-2.333c0.934-0.55,2.042-0.825,3.324-0.825
					c1.804,0,3.229,0.56,4.273,1.68c1.045,1.119,1.567,2.68,1.567,4.683v1.556h-7.953c0.142,0.721,0.455,1.286,0.937,1.697
					c0.483,0.412,1.107,0.618,1.875,0.618c1.265,0,2.255-0.443,2.968-1.329l1.828,2.16c-0.499,0.689-1.205,1.236-2.119,1.644
					C294.844,60.371,293.86,60.574,292.807,60.574z M292.356,50.342c-1.172,0-1.868,0.775-2.089,2.327h4.036v-0.308
					c0.015-0.641-0.147-1.138-0.488-1.49C293.476,50.518,292.99,50.342,292.356,50.342z"/>
			</g>
			<g>
				
					<linearGradient id="SVGID_1_" gradientUnits="userSpaceOnUse" x1="254.4725" y1="-174.0361" x2="254.4725" y2="-187.1171" gradientTransform="matrix(1 0 0 -1 0 -127)">
					<stop  offset="0" style="stop-color:#FFFFFF"/>
					<stop  offset="0.5072" style="stop-color:#D3D4D4"/>
					<stop  offset="0.7205" style="stop-color:#D1D2D2"/>
					<stop  offset="0.8722" style="stop-color:#C7C8C7"/>
					<stop  offset="1" style="stop-color:#B8BABA"/>
				</linearGradient>
				<path class="st20" d="M252.435,47.273l0.13,1.507c0.885-1.164,2.108-1.744,3.669-1.744c1.338,0,2.336,0.399,2.998,1.2
					c0.66,0.801,1.003,2.003,1.027,3.608v8.273h-4.012v-8.109c0-0.649-0.13-1.125-0.391-1.43c-0.261-0.305-0.736-0.457-1.425-0.457
					c-0.783,0-1.364,0.308-1.744,0.926v9.069h-4V47.273H252.435z"/>
				
					<linearGradient id="SVGID_2_" gradientUnits="userSpaceOnUse" x1="266.549" y1="-174.0351" x2="266.549" y2="-187.3541" gradientTransform="matrix(1 0 0 -1 0 -127)">
					<stop  offset="0" style="stop-color:#FFFFFF"/>
					<stop  offset="0.5072" style="stop-color:#D3D4D4"/>
					<stop  offset="0.7205" style="stop-color:#D1D2D2"/>
					<stop  offset="0.8722" style="stop-color:#C7C8C7"/>
					<stop  offset="1" style="stop-color:#B8BABA"/>
				</linearGradient>
				<path class="st21" d="M268.322,56.507c0-0.339-0.177-0.613-0.535-0.818c-0.356-0.205-1.034-0.419-2.029-0.641
					c-0.997-0.222-1.82-0.512-2.469-0.873c-0.649-0.36-1.143-0.797-1.483-1.311c-0.341-0.514-0.511-1.103-0.511-1.768
					c0-1.179,0.488-2.151,1.461-2.915s2.249-1.146,3.822-1.146c1.692,0,3.054,0.384,4.084,1.151
					c1.029,0.768,1.544,1.777,1.544,3.028h-4.012c0-1.029-0.542-1.544-1.625-1.544c-0.419,0-0.771,0.117-1.056,0.351
					c-0.285,0.233-0.428,0.524-0.428,0.873c0,0.356,0.175,0.645,0.522,0.866c0.347,0.222,0.903,0.404,1.668,0.546
					c0.764,0.142,1.434,0.313,2.012,0.511c1.931,0.665,2.896,1.856,2.896,3.572c0,1.172-0.521,2.124-1.561,2.862
					c-1.04,0.736-2.388,1.103-4.042,1.103c-1.101,0-2.081-0.198-2.944-0.594s-1.535-0.934-2.018-1.614s-0.725-1.396-0.725-2.148
					h3.74c0.015,0.594,0.214,1.027,0.594,1.3c0.38,0.272,0.866,0.409,1.459,0.409c0.546,0,0.955-0.11,1.227-0.332
					C268.185,57.152,268.322,56.863,268.322,56.507z"/>
				
					<linearGradient id="SVGID_3_" gradientUnits="userSpaceOnUse" x1="275.3631" y1="-168.9871" x2="275.3631" y2="-187.1151" gradientTransform="matrix(1 0 0 -1 0 -127)">
					<stop  offset="0" style="stop-color:#FFFFFF"/>
					<stop  offset="0.5072" style="stop-color:#D3D4D4"/>
					<stop  offset="0.7205" style="stop-color:#D1D2D2"/>
					<stop  offset="0.8722" style="stop-color:#C7C8C7"/>
					<stop  offset="1" style="stop-color:#B8BABA"/>
				</linearGradient>
				<path class="st22" d="M273.144,43.947c0-0.573,0.205-1.043,0.618-1.41c0.412-0.366,0.946-0.55,1.602-0.55
					s1.191,0.184,1.602,0.55c0.412,0.366,0.617,0.836,0.617,1.41s-0.206,1.043-0.617,1.41c-0.412,0.366-0.946,0.55-1.602,0.55
					s-1.192-0.184-1.602-0.55C273.35,44.991,273.144,44.521,273.144,43.947z M277.393,60.115h-4.012V47.273h4.012V60.115z"/>
				
					<linearGradient id="SVGID_4_" gradientUnits="userSpaceOnUse" x1="281.968" y1="-171.0781" x2="281.968" y2="-187.3571" gradientTransform="matrix(1 0 0 -1 0 -127)">
					<stop  offset="0" style="stop-color:#FFFFFF"/>
					<stop  offset="0.5072" style="stop-color:#D3D4D4"/>
					<stop  offset="0.7205" style="stop-color:#D1D2D2"/>
					<stop  offset="0.8722" style="stop-color:#C7C8C7"/>
					<stop  offset="1" style="stop-color:#B8BABA"/>
				</linearGradient>
				<path class="st23" d="M283.641,44.078v3.194h2.113v2.777h-2.113v5.877c0,0.483,0.086,0.818,0.261,1.01
					c0.175,0.19,0.518,0.285,1.034,0.285c0.396,0,0.727-0.024,0.997-0.071v2.862c-0.721,0.229-1.472,0.345-2.255,0.345
					c-1.377,0-2.394-0.324-3.05-0.973c-0.657-0.649-0.986-1.634-0.986-2.955v-6.377h-1.638v-2.777h1.638v-3.194h3.999
					L283.641,44.078L283.641,44.078z"/>
				
					<linearGradient id="SVGID_5_" gradientUnits="userSpaceOnUse" x1="292.066" y1="-174.0361" x2="292.066" y2="-187.3531" gradientTransform="matrix(1 0 0 -1 0 -127)">
					<stop  offset="0" style="stop-color:#FFFFFF"/>
					<stop  offset="0.5072" style="stop-color:#D3D4D4"/>
					<stop  offset="0.7205" style="stop-color:#D1D2D2"/>
					<stop  offset="0.8722" style="stop-color:#C7C8C7"/>
					<stop  offset="1" style="stop-color:#B8BABA"/>
				</linearGradient>
				<path class="st24" d="M292.665,60.353c-1.971,0-3.566-0.588-4.783-1.762c-1.219-1.176-1.828-2.705-1.828-4.588v-0.332
					c0-1.314,0.243-2.473,0.73-3.477c0.486-1.005,1.197-1.782,2.131-2.333c0.934-0.55,2.042-0.825,3.324-0.825
					c1.804,0,3.229,0.56,4.273,1.68c1.045,1.119,1.567,2.68,1.567,4.683v1.553h-7.953c0.142,0.721,0.455,1.286,0.937,1.697
					c0.483,0.412,1.107,0.618,1.875,0.618c1.265,0,2.255-0.443,2.968-1.329l1.828,2.16c-0.499,0.689-1.205,1.236-2.119,1.644
					C294.701,60.149,293.718,60.353,292.665,60.353z M292.214,50.12c-1.172,0-1.868,0.775-2.089,2.327h4.036v-0.308
					c0.015-0.641-0.147-1.138-0.488-1.49C293.333,50.296,292.848,50.12,292.214,50.12z"/>
			</g>
			<path class="st25" d="M246.982,49.306c-0.003-0.008-0.008-0.016-0.01-0.024c-0.034-0.084-0.075-0.163-0.11-0.244
				c-0.081-0.184-0.166-0.366-0.258-0.545c-0.052-0.099-0.105-0.198-0.16-0.296c-0.092-0.163-0.189-0.326-0.288-0.483
				c-0.054-0.086-0.106-0.171-0.163-0.257c-0.155-0.227-0.314-0.448-0.488-0.663c-0.047-0.058-0.096-0.111-0.144-0.166
				c-0.137-0.163-0.277-0.322-0.424-0.475c-0.072-0.076-0.146-0.148-0.22-0.22c-0.138-0.136-0.281-0.267-0.427-0.393
				c-0.072-0.062-0.142-0.125-0.214-0.186c-0.214-0.176-0.436-0.347-0.664-0.505c-0.041-0.029-0.085-0.052-0.124-0.08
				c-0.196-0.13-0.398-0.257-0.604-0.372c-0.081-0.047-0.166-0.09-0.25-0.136c-0.181-0.096-0.364-0.185-0.552-0.27
				c-0.081-0.038-0.16-0.076-0.243-0.108c-0.263-0.111-0.533-0.214-0.807-0.299c-0.024-0.008-0.047-0.011-0.071-0.02
				c-0.255-0.079-0.517-0.146-0.779-0.205c-0.087-0.02-0.176-0.035-0.263-0.052c-0.212-0.041-0.428-0.075-0.645-0.099
				c-0.089-0.01-0.176-0.023-0.267-0.032c-0.299-0.029-0.599-0.047-0.906-0.047c-0.308,0-0.614,0.02-0.916,0.047
				c-0.095,0.009-0.186,0.024-0.277,0.034c-0.212,0.025-0.421,0.056-0.627,0.095c-0.099,0.02-0.199,0.038-0.296,0.061
				c-0.212,0.049-0.421,0.104-0.627,0.165c-0.079,0.024-0.158,0.043-0.238,0.07c-0.277,0.089-0.551,0.19-0.816,0.303
				c-0.052,0.023-0.103,0.049-0.153,0.071c-0.214,0.096-0.424,0.199-0.631,0.31c-0.089,0.047-0.175,0.099-0.261,0.148
				c-0.167,0.096-0.332,0.198-0.494,0.304c-0.087,0.058-0.174,0.115-0.26,0.175c-0.171,0.122-0.336,0.247-0.497,0.379
				c-0.062,0.052-0.129,0.099-0.191,0.153c-0.212,0.18-0.418,0.37-0.613,0.566c-0.07,0.068-0.132,0.141-0.199,0.212
				c-0.13,0.138-0.258,0.281-0.38,0.424c-0.076,0.092-0.148,0.184-0.223,0.279c-0.106,0.137-0.209,0.279-0.308,0.421
				c-0.068,0.096-0.137,0.193-0.201,0.294c-0.11,0.168-0.212,0.346-0.312,0.522c-0.054,0.095-0.11,0.19-0.162,0.288
				c-0.115,0.223-0.223,0.454-0.323,0.685c-0.047,0.11-0.089,0.223-0.132,0.337c-0.041,0.104-0.085,0.205-0.122,0.31
				c0.003,0.001,0.005,0.003,0.008,0.005c-0.364,1.043-0.571,2.161-0.571,3.332c0,5.519,4.398,9.994,9.824,9.994
				c5.424,0,9.824-4.473,9.824-9.994C247.724,51.768,247.458,50.481,246.982,49.306C246.981,49.306,246.982,49.306,246.982,49.306z"
				/>
			
				<linearGradient id="SVGID_6_" gradientUnits="userSpaceOnUse" x1="237.7426" y1="-427.6121" x2="237.7426" y2="-447.6001" gradientTransform="matrix(1 0 0 -1 0 -384.8)">
				<stop  offset="0" style="stop-color:#FFFFFF"/>
				<stop  offset="0.3126" style="stop-color:#E1E0DF"/>
				<stop  offset="0.4767" style="stop-color:#DFDFDE"/>
				<stop  offset="0.7198" style="stop-color:#C7C7C7"/>
			</linearGradient>
			<path class="st26" d="M235.605,47.411c0.718,0,7.844,4.116,7.844,5.421c0,1.301-6.932,5.421-7.844,5.421
				C234.695,58.25,234.889,47.411,235.605,47.411z M237.743,42.812c5.426,0,9.824,4.475,9.824,9.994s-4.398,9.994-9.824,9.994
				c-5.424,0-9.824-4.475-9.824-9.995S232.318,42.812,237.743,42.812z"/>
			<path class="st27" d="M237.743,42.812c-4.275,0-7.911,2.779-9.26,6.657c1.696,1.226,3.966,2.095,6.529,2.431
				c0.063-2.366,0.277-4.489,0.594-4.489c0.531,0,4.567,2.255,6.633,3.952c1.809-0.535,3.382-1.353,4.586-2.371
				C245.351,45.363,241.841,42.812,237.743,42.812z"/>
			<path class="st28" d="M235.605,47.411c0.718,0,7.844,4.116,7.844,5.421c0,1.301-6.932,5.421-7.844,5.421
				C234.695,58.25,234.889,47.411,235.605,47.411z"/>
			<g>
				<path class="st29" d="M235.605,47.411c-0.09,0-0.174,0.175-0.246,0.483c0.912,0.133,7.797,4.131,7.797,5.414
					c0,0.049-0.014,0.103-0.032,0.16c0.206-0.25,0.326-0.467,0.326-0.636C243.447,51.528,236.322,47.411,235.605,47.411z"/>
			</g>
			<path class="st30" d="M235.011,51.899c0.756,0.099,1.538,0.151,2.337,0.151c1.742,0,3.396-0.246,4.888-0.688
				c-2.066-1.699-6.101-3.95-6.633-3.95C235.29,47.411,235.075,49.534,235.011,51.899z"/>
			<g>
				<g>
					<path class="st0" d="M298.328,44.263h-0.418v1.165h-0.171v-1.165h-0.418v-0.141h1.01L298.328,44.263L298.328,44.263z"/>
					<path class="st0" d="M298.745,44.121l0.427,1.064l0.427-1.064h0.223v1.305h-0.174v-0.507l0.016-0.55l-0.429,1.058h-0.132
						l-0.427-1.055l0.016,0.547v0.508h-0.171v-1.305C298.522,44.121,298.745,44.121,298.745,44.121z"/>
				</g>
			</g>
		</g>
		<g>
			<path class="st0" d="M305.183,50.228v1.737h-0.36V47.7h1.453c0.443,0,0.793,0.113,1.051,0.34
				c0.256,0.227,0.385,0.538,0.385,0.935c0,0.4-0.124,0.709-0.371,0.927s-0.604,0.327-1.073,0.327H305.183z M305.183,49.923h1.093
				c0.35,0,0.616-0.083,0.8-0.25c0.184-0.166,0.275-0.398,0.275-0.695c0-0.295-0.092-0.531-0.274-0.706
				c-0.183-0.175-0.441-0.265-0.777-0.269h-1.116V49.923z"/>
			<path class="st0" d="M309.96,50.187h-1.239v1.778h-0.363V47.7h1.386c0.455,0,0.811,0.11,1.066,0.331
				c0.256,0.221,0.384,0.529,0.384,0.925c0,0.273-0.08,0.514-0.24,0.723c-0.16,0.209-0.375,0.353-0.645,0.433l1.066,1.816v0.038
				h-0.384L309.96,50.187z M308.721,49.882h1.104c0.303,0,0.546-0.086,0.729-0.258c0.184-0.172,0.275-0.395,0.275-0.669
				c0-0.301-0.096-0.535-0.287-0.701c-0.191-0.167-0.46-0.25-0.806-0.25h-1.017V49.882z"/>
			<path class="st0" d="M315.178,50.064c0,0.393-0.068,0.737-0.203,1.034c-0.137,0.297-0.33,0.525-0.582,0.686
				s-0.543,0.24-0.873,0.24c-0.498,0-0.9-0.178-1.207-0.535s-0.46-0.837-0.46-1.443v-0.439c0-0.389,0.069-0.733,0.206-1.033
				c0.139-0.3,0.333-0.53,0.585-0.691s0.542-0.242,0.87-0.242s0.617,0.079,0.869,0.237c0.25,0.158,0.444,0.382,0.581,0.671
				s0.208,0.624,0.214,1.005V50.064z M314.817,49.601c0-0.514-0.116-0.916-0.349-1.207s-0.551-0.437-0.955-0.437
				c-0.396,0-0.713,0.146-0.947,0.438c-0.236,0.292-0.354,0.7-0.354,1.223v0.445c0,0.506,0.117,0.907,0.352,1.203
				s0.553,0.444,0.955,0.444c0.408,0,0.727-0.146,0.955-0.438s0.343-0.699,0.343-1.22V49.601z"/>
			<path class="st0" d="M318.285,49.97h-1.989v1.995h-0.36V47.7h2.643v0.305h-2.282v1.661h1.989V49.97z"/>
			<path class="st0" d="M321.517,49.921h-1.995v1.74h2.294v0.305h-2.654V47.7h2.64v0.305h-2.279v1.611h1.995V49.921z"/>
			<path class="st0" d="M324.838,50.917c0-0.236-0.083-0.423-0.249-0.561s-0.47-0.269-0.911-0.393s-0.764-0.259-0.967-0.406
				c-0.289-0.207-0.434-0.479-0.434-0.814c0-0.326,0.134-0.591,0.402-0.795s0.612-0.306,1.03-0.306c0.283,0,0.536,0.055,0.761,0.164
				c0.223,0.109,0.396,0.262,0.52,0.457s0.185,0.413,0.185,0.653h-0.363c0-0.292-0.1-0.526-0.299-0.704s-0.467-0.266-0.803-0.266
				c-0.326,0-0.586,0.073-0.779,0.219c-0.193,0.146-0.29,0.336-0.29,0.571c0,0.217,0.087,0.394,0.261,0.531
				c0.174,0.137,0.452,0.258,0.835,0.363c0.383,0.104,0.673,0.213,0.87,0.325s0.346,0.247,0.445,0.403s0.149,0.341,0.149,0.554
				c0,0.336-0.135,0.605-0.402,0.809c-0.27,0.203-0.623,0.305-1.062,0.305c-0.301,0-0.577-0.054-0.828-0.161
				s-0.441-0.258-0.57-0.451c-0.131-0.193-0.195-0.415-0.195-0.665h0.36c0,0.301,0.112,0.538,0.337,0.712s0.523,0.261,0.896,0.261
				c0.332,0,0.599-0.073,0.8-0.22S324.838,51.159,324.838,50.917z"/>
			<path class="st0" d="M328.241,50.917c0-0.236-0.083-0.423-0.249-0.561s-0.47-0.269-0.911-0.393s-0.764-0.259-0.967-0.406
				c-0.289-0.207-0.434-0.479-0.434-0.814c0-0.326,0.134-0.591,0.402-0.795s0.612-0.306,1.03-0.306c0.283,0,0.536,0.055,0.761,0.164
				c0.223,0.109,0.396,0.262,0.52,0.457s0.185,0.413,0.185,0.653h-0.363c0-0.292-0.1-0.526-0.299-0.704s-0.467-0.266-0.803-0.266
				c-0.326,0-0.586,0.073-0.779,0.219c-0.193,0.146-0.29,0.336-0.29,0.571c0,0.217,0.087,0.394,0.261,0.531
				c0.174,0.137,0.452,0.258,0.835,0.363c0.383,0.104,0.673,0.213,0.87,0.325s0.346,0.247,0.445,0.403s0.149,0.341,0.149,0.554
				c0,0.336-0.135,0.605-0.402,0.809c-0.27,0.203-0.623,0.305-1.062,0.305c-0.301,0-0.577-0.054-0.828-0.161
				s-0.441-0.258-0.57-0.451c-0.131-0.193-0.195-0.415-0.195-0.665h0.36c0,0.301,0.112,0.538,0.337,0.712s0.523,0.261,0.896,0.261
				c0.332,0,0.599-0.073,0.8-0.22S328.241,51.159,328.241,50.917z"/>
			<path class="st0" d="M329.671,51.965h-0.36V47.7h0.36V51.965z"/>
			<path class="st0" d="M333.83,50.064c0,0.393-0.068,0.737-0.203,1.034c-0.137,0.297-0.33,0.525-0.582,0.686
				s-0.543,0.24-0.873,0.24c-0.498,0-0.9-0.178-1.207-0.535s-0.46-0.837-0.46-1.443v-0.439c0-0.389,0.069-0.733,0.206-1.033
				c0.139-0.3,0.333-0.53,0.585-0.691s0.542-0.242,0.87-0.242s0.617,0.079,0.869,0.237c0.25,0.158,0.444,0.382,0.581,0.671
				s0.208,0.624,0.214,1.005V50.064z M333.47,49.601c0-0.514-0.116-0.916-0.349-1.207s-0.551-0.437-0.955-0.437
				c-0.396,0-0.713,0.146-0.947,0.438c-0.236,0.292-0.354,0.7-0.354,1.223v0.445c0,0.506,0.117,0.907,0.352,1.203
				s0.553,0.444,0.955,0.444c0.408,0,0.727-0.146,0.955-0.438s0.343-0.699,0.343-1.22V49.601z"/>
			<path class="st0" d="M337.765,51.965h-0.36l-2.452-3.65v3.65h-0.363V47.7h0.363l2.455,3.653V47.7h0.357V51.965z"/>
			<path class="st0" d="M341.054,50.767h-1.937l-0.439,1.198H338.3l1.614-4.266h0.343l1.614,4.266h-0.375L341.054,50.767z
				 M339.228,50.463h1.711l-0.855-2.323L339.228,50.463z"/>
			<path class="st0" d="M342.711,51.661h2.106v0.305h-2.47V47.7h0.363V51.661z"/>
			<path class="st0" d="M304.822,58.965V54.7h1.192c0.35,0,0.663,0.08,0.94,0.239s0.494,0.387,0.648,0.684
				c0.156,0.297,0.233,0.635,0.233,1.014v0.393c0,0.381-0.077,0.719-0.231,1.014s-0.372,0.522-0.652,0.683s-0.602,0.24-0.965,0.24
				H304.822z M305.183,55.005v3.656h0.809c0.449,0,0.81-0.149,1.081-0.447c0.271-0.298,0.407-0.701,0.407-1.209v-0.375
				c0-0.491-0.134-0.884-0.401-1.179c-0.268-0.295-0.62-0.444-1.058-0.446H305.183z"/>
			<path class="st0" d="M310.956,56.921h-1.995v1.74h2.294v0.305h-2.654V54.7h2.64v0.305h-2.279v1.611h1.995V56.921z"/>
			<path class="st0" d="M313.15,58.438l0.023,0.091l0.026-0.091l1.342-3.738h0.396l-1.588,4.266h-0.346l-1.588-4.266h0.393
				L313.15,58.438z"/>
			<path class="st0" d="M317.769,56.921h-1.995v1.74h2.294v0.305h-2.654V54.7h2.64v0.305h-2.279v1.611h1.995V56.921z"/>
			<path class="st0" d="M319.041,58.661h2.106v0.305h-2.47V54.7h0.363V58.661z"/>
			<path class="st0" d="M324.65,57.064c0,0.393-0.068,0.737-0.203,1.034c-0.137,0.297-0.33,0.525-0.582,0.686
				s-0.543,0.24-0.873,0.24c-0.498,0-0.9-0.178-1.207-0.535s-0.46-0.837-0.46-1.443v-0.439c0-0.389,0.069-0.733,0.206-1.033
				c0.139-0.3,0.333-0.53,0.585-0.691s0.542-0.242,0.87-0.242s0.617,0.079,0.869,0.237c0.25,0.158,0.444,0.382,0.581,0.671
				s0.208,0.624,0.214,1.005V57.064z M324.29,56.601c0-0.514-0.116-0.916-0.349-1.207s-0.551-0.437-0.955-0.437
				c-0.396,0-0.713,0.146-0.947,0.438c-0.236,0.292-0.354,0.7-0.354,1.223v0.445c0,0.506,0.117,0.907,0.352,1.203
				s0.553,0.444,0.955,0.444c0.408,0,0.727-0.146,0.955-0.438s0.343-0.699,0.343-1.22V56.601z"/>
			<path class="st0" d="M325.768,57.228v1.737h-0.36V54.7h1.453c0.443,0,0.793,0.113,1.051,0.34
				c0.256,0.227,0.385,0.538,0.385,0.935c0,0.4-0.124,0.709-0.371,0.927s-0.604,0.327-1.073,0.327H325.768z M325.768,56.923h1.093
				c0.35,0,0.616-0.083,0.8-0.25c0.184-0.166,0.275-0.398,0.275-0.695c0-0.295-0.092-0.531-0.274-0.706
				c-0.183-0.175-0.441-0.265-0.777-0.269h-1.116V56.923z"/>
			<path class="st0" d="M329.431,54.7l1.573,3.765l1.579-3.765h0.48v4.266h-0.36v-1.857l0.029-1.904l-1.588,3.762h-0.278
				l-1.582-3.747l0.029,1.878v1.869h-0.36V54.7H329.431z"/>
			<path class="st0" d="M336.35,56.921h-1.995v1.74h2.294v0.305h-2.654V54.7h2.64v0.305h-2.279v1.611h1.995V56.921z"/>
			<path class="st0" d="M340.434,58.965h-0.36l-2.452-3.65v3.65h-0.363V54.7h0.363l2.455,3.653V54.7h0.357V58.965z"/>
			<path class="st0" d="M344.177,55.005h-1.462v3.961h-0.36v-3.961h-1.459V54.7h3.281V55.005z"/>
		</g>
	</g>
</g>
</svg>
