<?xml version="1.0" encoding="utf-8"?>
<!-- Generator: Adobe Illustrator 22.1.0, SVG Export Plug-In . SVG Version: 6.00 Build 0)  -->
<svg version="1.1" id="Layer_1" xmlns="http://www.w3.org/2000/svg" xmlns:xlink="http://www.w3.org/1999/xlink" x="0px" y="0px"
	 viewBox="0 0 100 36.875" style="enable-background:new 0 0 100 36.875;" xml:space="preserve">
<style type="text/css">
	.st0{fill:#231F20;}
	.st1{fill:#867EBA;}
	.st2{fill:#FFFFFF;}
</style>
<g>
	
		<ellipse transform="matrix(0.99 -0.141 0.141 0.99 -1.8287 10.4397)" class="st0" cx="72.756" cy="18.124" rx="26.341" ry="17.146"/>
	<path class="st1" d="M95.901,15.676c0-7.653-11.487-13.137-24.19-11.699S49.37,13.534,49.544,22.186L95.901,15.676z"/>
	<g>
		<g>
			<polygon class="st0" points="62.07,18.2 62.32,3.977 59.63,4.266 59.217,2.12 68.441,2.538 67.935,3.702 65.011,3.835 
				63.5,18.525 			"/>
			<path class="st1" d="M59.433,2.306l8.745,0.396l-0.36,0.83l-2.966,0.135L63.345,18.31l-1.096-0.25l0.25-14.279l-2.727,0.293
				L59.433,2.306 M59.003,1.934l0.084,0.438l0.34,1.768l0.061,0.318l0.322-0.035l2.33-0.251l-0.243,13.88l-0.005,0.286l0.279,0.064
				l1.096,0.25l0.388,0.088l0.041-0.395l1.476-14.341l2.663-0.121l0.219-0.01l0.087-0.202l0.36-0.83l0.203-0.468l-0.51-0.023
				l-8.745-0.396L59.003,1.934L59.003,1.934z"/>
		</g>
		<g>
			<path class="st0" d="M71.704,17.368c-3.863,0-4.908-3.611-5.177-5.164c-0.368-2.121-0.071-4.038,0.814-5.259
				c0.594-0.819,1.415-1.31,2.44-1.458c0.056-0.008,0.121-0.011,0.186-0.014c0.05-0.002,0.1-0.004,0.144-0.01
				c0.133-0.009,0.249-0.013,0.363-0.013c2.19,0,3.555,1.463,4.055,4.347c0.085,0.491,0.112,0.793,0.165,1.396l0.016,0.179
				l-6.384,0.431c0.527,3.218,2.201,3.596,3.425,3.596c0.103,0,0.205-0.003,0.306-0.009c0.053-0.009,0.123-0.013,0.193-0.016
				c0.057-0.003,0.114-0.005,0.171-0.014c0.652-0.094,1.22-0.304,1.686-0.624l0.165-0.112l0.937,1.819l-0.129,0.088
				c-0.481,0.326-1.405,0.619-2.411,0.764C72.339,17.344,72.014,17.368,71.704,17.368z M70.119,6.982
				c-0.078,0-0.158,0.006-0.239,0.018c-1.314,0.19-1.652,1.754-1.529,3.218l3.938-0.462C71.946,8.015,71.142,6.982,70.119,6.982z"/>
			<path class="st1" d="M70.473,5.626c2.47,0,3.488,1.927,3.883,4.201c0.083,0.48,0.11,0.78,0.163,1.381l-6.395,0.432
				c0.48,3.316,2.146,3.935,3.627,3.935c0.106,0,0.212-0.003,0.316-0.009c0.125-0.018,0.254-0.013,0.38-0.031
				c0.801-0.116,1.371-0.385,1.761-0.652l0.775,1.503c-0.482,0.327-1.411,0.602-2.337,0.736c-0.329,0.048-0.642,0.07-0.94,0.07
				c-3.207,0-4.59-2.635-5.004-5.018c-0.567-3.266,0.425-6.125,3.106-6.512c0.101-0.015,0.23-0.01,0.329-0.024
				C70.251,5.63,70.364,5.626,70.473,5.626 M68.192,10.414l4.303-0.505c-0.336-1.935-1.206-3.103-2.376-3.103
				c-0.087,0-0.175,0.006-0.265,0.019C68.376,7.039,68.019,8.823,68.192,10.414 M70.473,5.275v0.352V5.275
				c-0.117,0-0.238,0.004-0.361,0.012c-0.065,0.008-0.109,0.009-0.154,0.011c-0.071,0.003-0.141,0.007-0.203,0.016
				c-1.058,0.153-1.942,0.681-2.557,1.529c-0.927,1.277-1.227,3.192-0.845,5.392c0.278,1.597,1.354,5.31,5.351,5.31
				c0.318,0,0.651-0.025,0.99-0.074c1.031-0.149,1.983-0.452,2.484-0.793l0.258-0.175l-0.143-0.277l-0.775-1.503l-0.183-0.354
				l-0.329,0.225c-0.444,0.304-0.986,0.504-1.613,0.595c-0.051,0.007-0.103,0.009-0.155,0.012c-0.075,0.004-0.151,0.008-0.225,0.019
				c-0.065,0.002-0.164,0.005-0.264,0.005c-1.135,0-2.679-0.347-3.218-3.258l6.009-0.406l0.358-0.024l-0.031-0.358
				c-0.053-0.608-0.08-0.914-0.166-1.41C74.185,6.786,72.762,5.275,70.473,5.275L70.473,5.275z M68.514,10.022
				c-0.068-1.282,0.253-2.684,1.391-2.848c0.073-0.011,0.145-0.016,0.215-0.016c0.896,0,1.615,0.906,1.957,2.446L68.514,10.022
				L68.514,10.022z"/>
		</g>
		<g>
			<path class="st0" d="M82.353,16.626c-0.538,0.544-1.415,1.006-2.446,1.006c-0.16,0-0.323-0.011-0.488-0.035
				c-1.048-0.152-1.869-0.628-2.442-1.416c-1.199-1.652-0.983-4.171-0.747-5.525c0.607-3.497,2.771-5.062,4.646-5.062
				c0.162,0,0.324,0.011,0.483,0.034c0.958,0.138,1.728,0.651,2.218,1.465L83.6,5.392l2.558,1.163l-0.607,3.491l-2.176,11.779
				l-1.724,0.251L82.353,16.626z M81.084,7.346c-1.25,0-2.215,1.259-2.581,3.367c-0.23,1.327-0.208,3.114,0.544,4.151
				c0.331,0.455,0.781,0.727,1.339,0.807c0.063,0.009,0.129,0.014,0.199,0.014c0.698,0,1.936-0.509,2.152-2.417l0.322-2.741
				c0.212-1.661-0.495-2.989-1.682-3.16C81.275,7.353,81.179,7.346,81.084,7.346z"/>
			<path class="st1" d="M83.772,5.663l2.189,0.995l-0.583,3.357l-2.153,11.653l-1.37,0.199l0.734-5.7l-0.075-0.011
				c-0.458,0.679-1.448,1.299-2.607,1.299c-0.152,0-0.307-0.011-0.463-0.033c-3.18-0.459-3.528-3.928-3.04-6.737
				c0.575-3.313,2.607-4.917,4.473-4.916c0.154,0,0.307,0.011,0.458,0.033c0.952,0.137,1.882,0.693,2.361,1.933l0.05,0.007
				L83.772,5.663 M80.584,15.862c0.862,0,2.11-0.652,2.326-2.574l0.322-2.74c0.215-1.678-0.503-3.163-1.831-3.355
				c-0.108-0.016-0.214-0.023-0.317-0.023c-1.45,0-2.406,1.508-2.754,3.513c-0.325,1.872-0.174,4.845,2.03,5.163
				C80.431,15.857,80.506,15.862,80.584,15.862 M83.428,5.12l-0.007,0.538l-0.012,0.897c-0.508-0.601-1.2-0.982-2.024-1.101
				c-0.167-0.024-0.338-0.036-0.508-0.036c-1.949,0-4.195,1.61-4.82,5.208c-0.24,1.382-0.458,3.954,0.778,5.659
				c0.601,0.828,1.462,1.328,2.558,1.487c0.17,0.024,0.343,0.037,0.514,0.037c0.877,0,1.649-0.32,2.212-0.746l-0.613,4.761
				l-0.059,0.46l0.459-0.067l1.37-0.199l0.25-0.036l0.046-0.248l2.153-11.653l0.584-3.361l0.047-0.268l-0.248-0.113l-2.189-0.995
				L83.428,5.12L83.428,5.12z M80.584,15.51c-0.06,0-0.119-0.004-0.173-0.012c-0.516-0.075-0.915-0.316-1.221-0.737
				c-0.721-0.994-0.727-2.786-0.513-4.018c0.35-2.017,1.25-3.221,2.408-3.221c0.087,0,0.176,0.006,0.266,0.02
				c1.087,0.157,1.732,1.402,1.532,2.962l-0.322,2.743C82.359,15.034,81.223,15.51,80.584,15.51L80.584,15.51z"/>
		</g>
	</g>
	<g>
		<g>
			<path class="st2" d="M58.848,31.151c-0.889,0-1.671-0.293-2.324-0.872c-0.664-0.589-0.99-1.434-0.968-2.514l0.001-0.038
				l0.069-0.221l0.206-0.04h1.915v0.264c0,0.528,0.093,0.903,0.276,1.113c0.175,0.202,0.445,0.301,0.826,0.301
				c0.276,0,0.47-0.073,0.592-0.221c0.132-0.163,0.199-0.397,0.199-0.695c0-0.313-0.069-0.557-0.205-0.727
				c-0.149-0.187-0.429-0.38-0.832-0.574c-0.911-0.352-1.625-0.772-2.1-1.24c-0.501-0.494-0.755-1.185-0.755-2.055
				c0-0.863,0.293-1.578,0.869-2.125c0.572-0.543,1.309-0.819,2.19-0.819c0.899,0,1.642,0.309,2.208,0.917
				c0.562,0.604,0.838,1.372,0.821,2.284l-0.001,0.036l-0.066,0.223l-0.209,0.04h-1.909v-0.264c0-0.383-0.083-0.693-0.247-0.92
				c-0.15-0.205-0.349-0.302-0.627-0.302c-0.258,0-0.45,0.08-0.587,0.246c-0.15,0.181-0.223,0.407-0.223,0.69
				c0,0.247,0.078,0.442,0.236,0.597c0.19,0.185,0.535,0.4,1.027,0.638c0.838,0.314,1.498,0.735,1.941,1.241
				c0.456,0.522,0.688,1.229,0.688,2.1c0,0.907-0.28,1.633-0.834,2.155C60.477,30.889,59.745,31.151,58.848,31.151z"/>
			<path class="st0" d="M58.806,20.952c0.827,0,1.498,0.278,2.015,0.833c0.516,0.555,0.766,1.255,0.75,2.099l-0.012,0.04h-1.645
				c0-0.442-0.099-0.8-0.298-1.074s-0.479-0.411-0.84-0.411c-0.338,0-0.601,0.114-0.79,0.342c-0.188,0.228-0.283,0.514-0.283,0.859
				c0,0.319,0.105,0.58,0.316,0.786c0.21,0.205,0.576,0.434,1.097,0.686c0.823,0.31,1.441,0.702,1.857,1.178
				c0.415,0.475,0.623,1.117,0.623,1.927c0,0.836-0.25,1.49-0.751,1.963c-0.5,0.473-1.166,0.71-1.996,0.71
				c-0.827,0-1.543-0.268-2.149-0.806c-0.606-0.537-0.9-1.307-0.88-2.311l0.012-0.04h1.651c0,0.597,0.113,1.026,0.34,1.286
				c0.226,0.261,0.568,0.391,1.025,0.391c0.357,0,0.623-0.106,0.796-0.318c0.172-0.212,0.259-0.5,0.259-0.862
				c0-0.376-0.087-0.673-0.263-0.892c-0.175-0.219-0.482-0.434-0.924-0.647c-0.902-0.349-1.579-0.746-2.03-1.19
				c-0.451-0.445-0.676-1.067-0.676-1.867c0-0.791,0.263-1.436,0.787-1.933C57.322,21.201,57.991,20.952,58.806,20.952
				 M58.806,20.424c-0.951,0-1.749,0.3-2.372,0.891c-0.631,0.599-0.951,1.378-0.951,2.316c0,0.943,0.28,1.698,0.833,2.243
				c0.506,0.497,1.222,0.922,2.19,1.299c0.444,0.216,0.638,0.386,0.722,0.491c0.098,0.122,0.147,0.312,0.147,0.563
				c0,0.236-0.047,0.415-0.141,0.53c-0.024,0.03-0.101,0.123-0.386,0.123c-0.445,0-0.582-0.157-0.626-0.209
				c-0.079-0.091-0.211-0.334-0.211-0.941v-0.528h-0.528h-1.651h-0.388l-0.116,0.37l-0.012,0.04l-0.022,0.072l-0.001,0.075
				c-0.023,1.161,0.333,2.075,1.057,2.717c0.702,0.623,1.543,0.939,2.499,0.939c0.966,0,1.76-0.287,2.359-0.854
				c0.608-0.574,0.916-1.364,0.916-2.347c0-0.937-0.253-1.702-0.753-2.274c-0.468-0.535-1.156-0.978-2.045-1.316
				c-0.567-0.276-0.822-0.466-0.937-0.578c-0.109-0.106-0.157-0.232-0.157-0.409c0-0.22,0.053-0.39,0.162-0.522
				c0.058-0.069,0.154-0.15,0.383-0.15c0.194,0,0.314,0.056,0.414,0.194c0.13,0.18,0.197,0.437,0.197,0.764v0.528h0.528h1.645h0.394
				l0.112-0.378l0.012-0.04l0.02-0.068l0.001-0.071c0.018-0.982-0.282-1.813-0.892-2.468C60.589,20.761,59.781,20.424,58.806,20.424
				L58.806,20.424z"/>
		</g>
		<g>
			<path class="st2" d="M64.344,31.151c-0.667,0-1.196-0.284-1.57-0.843c-0.357-0.534-0.531-1.318-0.531-2.398v-4.602h2.221v4.62
				c0,0.582,0.076,0.862,0.14,0.994c0.083,0.172,0.172,0.196,0.257,0.196c0.141,0,0.264-0.028,0.365-0.083
				c0.085-0.046,0.158-0.111,0.224-0.196v-5.531h2.227v7.704h-1.988l-0.049-0.407c-0.096,0.097-0.198,0.181-0.306,0.253
				C65.043,31.053,64.709,31.151,64.344,31.151z"/>
			<path class="st0" d="M67.414,23.572v7.176h-1.491l-0.101-0.829c-0.175,0.314-0.387,0.554-0.635,0.72
				c-0.248,0.166-0.53,0.248-0.843,0.248c-0.577,0-1.027-0.242-1.35-0.726c-0.324-0.484-0.486-1.235-0.486-2.252v-4.338h1.693v4.356
				c0,0.509,0.055,0.879,0.166,1.109s0.276,0.345,0.495,0.345c0.187,0,0.351-0.039,0.492-0.116c0.141-0.078,0.261-0.192,0.361-0.342
				v-5.352h1.699 M67.941,23.044h-0.528h-1.699h-0.528v0.528v5.167c-0.028,0.026-0.057,0.048-0.088,0.065
				c-0.06,0.033-0.136,0.05-0.231,0.051c-0.003-0.006-0.013-0.022-0.026-0.047c-0.034-0.071-0.114-0.298-0.114-0.879v-4.356v-0.528
				h-0.528h-1.693H61.98v0.528v4.338c0,1.134,0.188,1.966,0.575,2.545c0.42,0.628,1.039,0.961,1.789,0.961
				c0.4,0,0.767-0.104,1.091-0.308l0.021,0.169h0.467h1.491h0.528V30.75v-7.176v-0.53H67.941z"/>
		</g>
		<g>
			<path class="st2" d="M68.216,33.772V23.308h2.074l0.024,0.288c0.063-0.057,0.127-0.109,0.194-0.155
				c0.257-0.176,0.555-0.265,0.886-0.265c0.775,0,1.383,0.357,1.806,1.06c0.397,0.66,0.598,1.533,0.598,2.594v0.882
				c0,1.002-0.203,1.825-0.602,2.447c-0.424,0.659-1.026,0.993-1.79,0.993c-0.309,0-0.588-0.071-0.832-0.211
				c-0.047-0.027-0.093-0.057-0.139-0.089v2.92H68.216z M70.437,28.837c0.052,0.089,0.114,0.155,0.188,0.201
				c0.086,0.054,0.199,0.08,0.335,0.08c0.212,0,0.343-0.087,0.438-0.292c0.12-0.26,0.181-0.637,0.181-1.118v-0.884
				c0-0.529-0.065-0.954-0.194-1.263c-0.131-0.312-0.299-0.352-0.431-0.352c-0.12,0-0.22,0.031-0.305,0.096
				c-0.083,0.063-0.154,0.154-0.212,0.27C70.437,25.575,70.437,28.837,70.437,28.837z"/>
			<path class="st0" d="M71.395,23.439c0.68,0,1.206,0.311,1.58,0.932c0.373,0.621,0.56,1.44,0.56,2.458v0.882
				c0,0.955-0.187,1.723-0.56,2.305c-0.374,0.581-0.896,0.872-1.568,0.872c-0.263,0-0.496-0.058-0.7-0.176
				c-0.205-0.117-0.383-0.291-0.534-0.521v3.317H68.48v-9.936h1.568l0.06,0.71c0.155-0.27,0.339-0.478,0.551-0.624
				C70.871,23.513,71.116,23.439,71.395,23.439 M70.96,29.382c0.314,0,0.539-0.148,0.677-0.445c0.137-0.297,0.205-0.706,0.205-1.229
				v-0.884c0-0.567-0.071-1.022-0.214-1.365c-0.144-0.343-0.368-0.515-0.674-0.515c-0.179,0-0.333,0.05-0.465,0.149
				c-0.131,0.1-0.236,0.24-0.316,0.422v3.388c0.08,0.159,0.184,0.279,0.313,0.359C70.615,29.342,70.773,29.382,70.96,29.382
				 M71.395,22.912c-0.311,0-0.598,0.068-0.856,0.204l-0.006-0.071h-0.485H68.48h-0.528v0.528v9.936v0.528h0.528h1.693h0.528v-0.528
				v-2.217c0.217,0.083,0.454,0.124,0.706,0.124c0.847,0,1.543-0.385,2.011-1.114c0.427-0.666,0.644-1.537,0.644-2.59V26.83
				c0-1.109-0.214-2.027-0.635-2.729C72.959,23.322,72.256,22.912,71.395,22.912L71.395,22.912z M70.701,25.641
				c0.032-0.054,0.068-0.097,0.107-0.126c0.027-0.021,0.066-0.042,0.145-0.042c0.045,0,0.108,0,0.187,0.191
				c0.115,0.276,0.174,0.667,0.174,1.161v0.884c0,0.551-0.085,0.852-0.157,1.008c-0.058,0.124-0.107,0.138-0.198,0.138
				c-0.059,0-0.142-0.007-0.195-0.04c-0.023-0.014-0.044-0.033-0.064-0.057L70.701,25.641L70.701,25.641z"/>
		</g>
		<g>
			<path class="st2" d="M74.147,33.772V23.308h2.074l0.024,0.288c0.063-0.057,0.127-0.109,0.194-0.155
				c0.257-0.176,0.555-0.265,0.886-0.265c0.775,0,1.383,0.357,1.806,1.06c0.397,0.66,0.598,1.533,0.598,2.594v0.882
				c0,1.002-0.203,1.825-0.602,2.447c-0.424,0.659-1.026,0.993-1.79,0.993c-0.309,0-0.588-0.071-0.832-0.211
				c-0.047-0.027-0.093-0.057-0.139-0.089v2.92H74.147z M76.368,28.837c0.052,0.089,0.114,0.155,0.188,0.201
				c0.086,0.054,0.199,0.08,0.335,0.08c0.212,0,0.343-0.087,0.438-0.292c0.12-0.26,0.181-0.637,0.181-1.118v-0.884
				c0-0.529-0.065-0.954-0.194-1.263c-0.131-0.312-0.299-0.352-0.431-0.352c-0.12,0-0.22,0.031-0.305,0.096
				c-0.083,0.063-0.154,0.154-0.212,0.27C76.368,25.575,76.368,28.837,76.368,28.837z"/>
			<path class="st0" d="M77.326,23.439c0.68,0,1.206,0.311,1.58,0.932c0.373,0.621,0.56,1.44,0.56,2.458v0.882
				c0,0.955-0.187,1.723-0.56,2.305c-0.374,0.581-0.896,0.872-1.568,0.872c-0.263,0-0.496-0.058-0.7-0.176
				c-0.205-0.117-0.383-0.291-0.534-0.521v3.317h-1.693v-9.936h1.568l0.06,0.71c0.155-0.27,0.339-0.478,0.551-0.624
				C76.802,23.513,77.047,23.439,77.326,23.439 M76.891,29.382c0.314,0,0.539-0.148,0.677-0.445
				c0.137-0.297,0.205-0.706,0.205-1.229v-0.884c0-0.567-0.071-1.022-0.214-1.365c-0.144-0.343-0.368-0.515-0.674-0.515
				c-0.179,0-0.333,0.05-0.465,0.149c-0.131,0.1-0.236,0.24-0.316,0.422v3.388c0.08,0.159,0.184,0.279,0.313,0.359
				C76.546,29.342,76.704,29.382,76.891,29.382 M77.326,22.912c-0.311,0-0.598,0.068-0.856,0.204l-0.006-0.071h-0.485h-1.568h-0.528
				v0.528v9.936v0.528h0.528h1.693h0.528v-0.528v-2.217c0.217,0.083,0.454,0.124,0.706,0.124c0.847,0,1.543-0.385,2.011-1.114
				c0.427-0.666,0.644-1.537,0.644-2.59V26.83c0-1.109-0.214-2.027-0.635-2.729C78.89,23.322,78.187,22.912,77.326,22.912
				L77.326,22.912z M76.631,25.641c0.032-0.054,0.068-0.097,0.107-0.126c0.027-0.021,0.066-0.042,0.145-0.042
				c0.045,0,0.108,0,0.187,0.191c0.115,0.276,0.174,0.667,0.174,1.161v0.884c0,0.551-0.085,0.852-0.157,1.008
				c-0.058,0.124-0.107,0.138-0.198,0.138c-0.059,0-0.142-0.007-0.195-0.04c-0.023-0.014-0.044-0.033-0.064-0.057L76.631,25.641
				L76.631,25.641z"/>
		</g>
		<g>
			<path class="st2" d="M82.762,31.151c-0.913,0-1.635-0.341-2.144-1.013c-0.493-0.65-0.742-1.5-0.742-2.527v-0.889
				c0-1.018,0.249-1.867,0.742-2.523c0.509-0.68,1.229-1.024,2.139-1.024s1.63,0.345,2.142,1.024
				c0.494,0.656,0.744,1.505,0.744,2.523v0.889c0,1.028-0.251,1.878-0.745,2.528C84.385,30.811,83.667,31.151,82.762,31.151z
				 M82.756,25.209c-0.234,0-0.377,0.098-0.476,0.326c-0.126,0.288-0.19,0.686-0.19,1.183v0.89c0,0.514,0.063,0.916,0.186,1.195
				c0.098,0.22,0.243,0.314,0.486,0.314c0.228,0,0.374-0.098,0.471-0.318c0.126-0.282,0.189-0.683,0.189-1.192v-0.89
				c0-0.5-0.064-0.899-0.19-1.186C83.134,25.309,82.988,25.209,82.756,25.209z"/>
			<path class="st0" d="M82.756,23.439c0.826,0,1.47,0.306,1.931,0.919c0.461,0.612,0.691,1.401,0.691,2.364v0.889
				c0,0.973-0.23,1.762-0.691,2.368s-1.103,0.909-1.926,0.909c-0.83,0-1.475-0.303-1.934-0.909s-0.689-1.395-0.689-2.368v-0.889
				c0-0.964,0.23-1.752,0.689-2.364C81.287,23.746,81.929,23.439,82.756,23.439 M82.762,29.382c0.334,0,0.572-0.158,0.713-0.475
				s0.212-0.749,0.212-1.299v-0.89c0-0.54-0.071-0.971-0.212-1.292s-0.381-0.481-0.718-0.481c-0.338,0-0.577,0.161-0.718,0.485
				c-0.142,0.323-0.212,0.753-0.212,1.289v0.89c0,0.554,0.069,0.988,0.208,1.302C82.174,29.225,82.416,29.382,82.762,29.382
				 M82.756,22.912c-0.998,0-1.789,0.38-2.351,1.13c-0.527,0.703-0.794,1.605-0.794,2.681v0.889c0,1.086,0.268,1.99,0.796,2.687
				c0.562,0.742,1.354,1.118,2.355,1.118c0.992,0,1.782-0.376,2.346-1.117c0.53-0.697,0.799-1.601,0.799-2.688v-0.889
				c0-1.077-0.268-1.979-0.798-2.682C84.545,23.291,83.753,22.912,82.756,22.912L82.756,22.912z M82.762,28.854
				c-0.137,0-0.19-0.034-0.245-0.158c-0.074-0.168-0.163-0.494-0.163-1.088v-0.89c0-0.461,0.056-0.823,0.167-1.077
				c0.063-0.145,0.121-0.169,0.235-0.169s0.172,0.023,0.235,0.166c0.111,0.253,0.167,0.616,0.167,1.08v0.89
				c0,0.472-0.056,0.837-0.166,1.084C82.93,28.832,82.873,28.854,82.762,28.854L82.762,28.854z"/>
		</g>
		<g>
			<path class="st2" d="M86.009,31.012v-7.704h2.09l0.022,0.322c0.021-0.026,0.044-0.052,0.067-0.076
				c0.236-0.251,0.519-0.378,0.839-0.378c0.09,0,0.186,0.009,0.289,0.027c0.1,0.018,0.188,0.041,0.263,0.067l0.197,0.068
				l-0.218,2.224l-0.884-0.027c-0.109,0-0.199,0.028-0.267,0.085c-0.071,0.059-0.131,0.146-0.177,0.257v5.136L86.009,31.012
				L86.009,31.012z"/>
			<path class="st0" d="M89.026,23.439c0.076,0,0.156,0.008,0.241,0.023c0.086,0.015,0.16,0.034,0.224,0.056l-0.173,1.771
				l-0.638-0.02c-0.179,0-0.327,0.048-0.444,0.146c-0.118,0.098-0.208,0.235-0.271,0.411v4.921h-1.693v-7.176h1.579l0.066,0.962
				l0.03,0.013c0.104-0.345,0.247-0.616,0.432-0.813C88.564,23.538,88.78,23.439,89.026,23.439 M89.026,22.912
				c-0.242,0-0.472,0.061-0.678,0.18l-0.003-0.047h-0.493h-1.579h-0.528v0.528v7.176v0.528h0.528h1.693h0.528v-0.528v-4.816
				c0.024-0.049,0.051-0.086,0.081-0.11c0.024-0.02,0.071-0.024,0.107-0.024l0.621,0.02l0.494,0.015l0.048-0.492l0.173-1.771
				l0.041-0.415l-0.394-0.136c-0.092-0.031-0.19-0.057-0.302-0.077C89.245,22.922,89.132,22.912,89.026,22.912L89.026,22.912z"/>
		</g>
		<g>
			<path class="st2" d="M92.37,31.151c-0.628,0-1.119-0.223-1.458-0.663c-0.328-0.425-0.487-1.06-0.487-1.942v-3.344h-0.763v-1.894
				h0.763v-1.784h2.221v1.784h0.894v1.894h-0.894v3.337c0,0.33,0.052,0.454,0.075,0.491c0.037,0.061,0.062,0.061,0.084,0.061
				c0.087,0,0.161-0.004,0.221-0.014c0.062-0.009,0.129-0.026,0.203-0.048l0.309-0.094l0.18,1.96l-0.195,0.068
				c-0.19,0.066-0.377,0.115-0.557,0.144C92.792,31.137,92.591,31.151,92.37,31.151z"/>
			<path class="st0" d="M92.383,21.788v1.784h0.894v1.367h-0.894v3.601c0,0.292,0.037,0.501,0.113,0.627
				c0.076,0.126,0.179,0.189,0.31,0.189c0.104,0,0.191-0.005,0.263-0.017c0.071-0.011,0.151-0.03,0.238-0.056l0.131,1.433
				c-0.179,0.062-0.35,0.106-0.513,0.133c-0.163,0.026-0.348,0.04-0.555,0.04c-0.544,0-0.961-0.187-1.249-0.56
				c-0.288-0.374-0.432-0.967-0.432-1.781V24.94h-0.763v-1.367h0.763v-1.784h1.694 M92.911,21.26h-0.528H90.69h-0.528v0.528v1.256
				h-0.235h-0.528v0.528v1.367v0.528h0.528h0.235v3.08c0,0.942,0.177,1.63,0.542,2.103c0.386,0.501,0.962,0.766,1.667,0.766
				c0.235,0,0.45-0.016,0.639-0.046c0.195-0.032,0.397-0.084,0.602-0.155l0.39-0.136l-0.038-0.411l-0.131-1.433l-0.059-0.645
				l-0.62,0.188c-0.061,0.018-0.116,0.032-0.166,0.04c-0.018,0.003-0.037,0.005-0.057,0.007c-0.01-0.055-0.02-0.145-0.02-0.284
				v-3.073h0.366h0.528V24.94v-1.367v-0.528h-0.528h-0.366v-1.256V21.26L92.911,21.26z"/>
		</g>
	</g>
</g>
<g>
	<path class="st2" d="M3.47,23.041c0.488,0,0.897-0.138,1.228-0.413s0.509-0.632,0.536-1.069h0.674
		c-0.02,0.387-0.141,0.739-0.363,1.058s-0.519,0.567-0.888,0.747s-0.765,0.27-1.187,0.27c-0.832,0-1.491-0.289-1.978-0.867
		s-0.729-1.355-0.729-2.332v-0.211c0-0.625,0.109-1.178,0.328-1.658s0.532-0.852,0.94-1.113s0.886-0.393,1.433-0.393
		c0.695,0,1.269,0.207,1.72,0.621s0.692,0.959,0.724,1.635H5.233c-0.031-0.496-0.21-0.896-0.536-1.201s-0.737-0.457-1.233-0.457
		c-0.633,0-1.124,0.229-1.474,0.686s-0.524,1.098-0.524,1.922v0.205c0,0.809,0.175,1.439,0.524,1.893S2.833,23.041,3.47,23.041z"/>
	<path class="st2" d="M6.621,20.252c0-0.609,0.118-1.158,0.354-1.646s0.57-0.868,1.002-1.14s0.921-0.407,1.468-0.407
		c0.844,0,1.527,0.296,2.051,0.888s0.785,1.376,0.785,2.353v0.146c0,0.613-0.118,1.165-0.354,1.655s-0.569,0.868-0.999,1.134
		s-0.92,0.398-1.471,0.398c-0.84,0-1.522-0.296-2.048-0.888s-0.788-1.376-0.788-2.353C6.621,20.392,6.621,20.252,6.621,20.252z
		 M7.324,20.445c0,0.758,0.196,1.38,0.589,1.866c0.393,0.486,0.907,0.729,1.544,0.729c0.633,0,1.146-0.243,1.538-0.729
		s0.589-1.128,0.589-1.925v-0.135c0-0.484-0.09-0.928-0.27-1.33s-0.432-0.714-0.756-0.935s-0.695-0.331-1.113-0.331
		c-0.625,0-1.135,0.245-1.529,0.735s-0.592,1.132-0.592,1.925C7.324,20.315,7.324,20.445,7.324,20.445z"/>
	<path class="st2" d="M14.096,17.176l0.023,1.084c0.238-0.391,0.535-0.688,0.891-0.894s0.748-0.308,1.178-0.308
		c0.68,0,1.186,0.191,1.518,0.574s0.5,0.957,0.504,1.723v4.16h-0.697V19.35c-0.004-0.566-0.124-0.988-0.36-1.266
		s-0.614-0.416-1.134-0.416c-0.434,0-0.817,0.136-1.151,0.407s-0.581,0.638-0.741,1.099v4.342H13.43v-6.34
		C13.43,17.176,14.096,17.176,14.096,17.176z"/>
	<path class="st2" d="M20.81,15.553v1.623h1.312v0.574H20.81v4.229c0,0.352,0.063,0.614,0.19,0.786s0.339,0.258,0.636,0.258
		c0.117,0,0.307-0.02,0.568-0.059l0.029,0.569c-0.184,0.065-0.434,0.099-0.75,0.099c-0.48,0-0.83-0.14-1.049-0.419
		s-0.328-0.69-0.328-1.233v-4.23H18.94v-0.574h1.166v-1.623H20.81z"/>
	<path class="st2" d="M27.277,23.516c-0.07-0.199-0.115-0.494-0.135-0.885c-0.246,0.32-0.56,0.567-0.94,0.741
		s-0.784,0.261-1.21,0.261c-0.609,0-1.103-0.17-1.479-0.51s-0.565-0.77-0.565-1.289c0-0.617,0.257-1.105,0.771-1.465
		s1.229-0.539,2.147-0.539h1.271v-0.721c0-0.453-0.14-0.81-0.419-1.069s-0.687-0.39-1.222-0.39c-0.488,0-0.893,0.125-1.213,0.375
		s-0.48,0.551-0.48,0.902L23.1,18.922c0-0.504,0.234-0.94,0.703-1.31s1.045-0.554,1.729-0.554c0.707,0,1.265,0.177,1.673,0.53
		s0.618,0.847,0.63,1.479v3c0,0.613,0.064,1.072,0.193,1.377v0.07h-0.751V23.516z M25.074,23.012c0.469,0,0.888-0.113,1.257-0.34
		s0.638-0.529,0.806-0.908v-1.395h-1.254c-0.699,0.008-1.246,0.136-1.641,0.384s-0.592,0.589-0.592,1.022
		c0,0.355,0.132,0.65,0.396,0.885S24.652,23.012,25.074,23.012z"/>
	<path class="st2" d="M31.747,23.041c0.488,0,0.897-0.138,1.228-0.413s0.509-0.632,0.536-1.069h0.674
		c-0.02,0.387-0.141,0.739-0.363,1.058s-0.519,0.567-0.888,0.747s-0.765,0.27-1.187,0.27c-0.832,0-1.491-0.289-1.978-0.867
		s-0.729-1.355-0.729-2.332v-0.211c0-0.625,0.109-1.178,0.328-1.658s0.532-0.852,0.94-1.113s0.886-0.393,1.433-0.393
		c0.695,0,1.269,0.207,1.72,0.621s0.692,0.959,0.724,1.635h-0.674c-0.031-0.496-0.21-0.896-0.536-1.201s-0.737-0.457-1.233-0.457
		c-0.633,0-1.124,0.229-1.474,0.686s-0.524,1.098-0.524,1.922v0.205c0,0.809,0.175,1.439,0.524,1.893S31.11,23.041,31.747,23.041z"
		/>
	<path class="st2" d="M36.375,15.553v1.623h1.312v0.574h-1.312v4.229c0,0.352,0.063,0.614,0.19,0.786s0.339,0.258,0.636,0.258
		c0.117,0,0.307-0.02,0.568-0.059l0.029,0.569c-0.184,0.065-0.434,0.099-0.75,0.099c-0.48,0-0.83-0.14-1.049-0.419
		s-0.328-0.69-0.328-1.233v-4.23h-1.166v-0.574h1.166v-1.623H36.375z"/>
</g>
</svg>
