<?xml version="1.0" encoding="utf-8"?>
<!-- Generator: Adobe Illustrator 21.0.2, SVG Export Plug-In . SVG Version: 6.00 Build 0)  -->
<svg version="1.1" id="Layer_1" xmlns="http://www.w3.org/2000/svg" xmlns:xlink="http://www.w3.org/1999/xlink" x="0px" y="0px"
	 viewBox="0 0 9.634 7.7" style="enable-background:new 0 0 9.634 7.7;" xml:space="preserve">
<style type="text/css">
	.st0{fill:#00B3E3;}
	.st1{fill:#0075C9;}
	.st2{fill:#FFFFFF;}
</style>
<g>
	<rect x="0.081" y="0.05" class="st0" width="6.966" height="5.466"/>
	<polygon class="st1" points="7.047,0.05 7.047,5.516 0.081,5.516 1.315,6.398 8.369,6.398 8.369,1.285 	"/>
	<polygon class="st2" points="1.226,4.371 1.315,1.108 0.697,1.196 0.61,0.843 2.55,0.932 2.461,1.108 1.844,1.108 1.492,4.371 	"/>
	<g>
		<path class="st2" d="M4.136,4.018c-0.176,0-0.353,0.088-0.529,0.088c-0.881,0.176-1.233-0.528-1.41-1.057
			c-0.089-0.794,0.088-1.411,0.706-1.5H2.99c0.617,0,0.882,0.44,0.969,0.969c0,0.088,0,0.176,0,0.353H2.55
			c0.088,0.793,0.529,0.882,0.882,0.882h0.088c0.176,0,0.353-0.088,0.44-0.176L4.136,4.018z M3.519,2.519
			C3.432,2.078,3.255,1.814,2.903,1.814C2.637,1.901,2.55,2.254,2.55,2.607L3.519,2.519z"/>
		<path class="st2" d="M5.636,5.252L5.812,3.93l0,0C5.723,4.105,5.371,4.282,5.107,4.194C4.401,4.105,4.312,3.312,4.401,2.696
			c0.176-0.794,0.706-1.147,1.146-1.147c0.176,0,0.44,0.176,0.529,0.44l0,0v-0.44l0.529,0.265L6.429,2.519L5.9,5.164L5.636,5.252z
			 M5.989,2.696c0.088-0.353-0.088-0.706-0.44-0.793C5.194,1.814,4.93,2.167,4.841,2.696c-0.088,0.44,0,1.058,0.44,1.146
			c0.264,0,0.529-0.088,0.617-0.529L5.989,2.696z"/>
	</g>
</g>
</svg>
