<?xml version="1.0" encoding="utf-8"?>
<!-- Generator: Adobe Illustrator 21.1.0, SVG Export Plug-In . SVG Version: 6.00 Build 0)  -->
<svg version="1.1" id="Layer_1" xmlns="http://www.w3.org/2000/svg" xmlns:xlink="http://www.w3.org/1999/xlink" x="0px" y="0px"
	 viewBox="0 0 36 10" style="enable-background:new 0 0 36 10;" xml:space="preserve">
<style type="text/css">
	.st0{fill:#00B3E3;}
	.st1{fill:#FFFFFF;}
	.st2{fill:#11B4E5;}
</style>
<g>
	<path class="st0" d="M12.35,2.808h0.379c0.019,0,0.035-0.016,0.035-0.035V2.128c0-0.019-0.016-0.035-0.035-0.035h-0.108
		c0.056-0.029,0.095-0.089,0.095-0.155c0-0.097-0.079-0.176-0.176-0.176c-0.097,0-0.176,0.079-0.176,0.176
		c0,0.068,0.039,0.127,0.095,0.155h-0.11c-0.019,0-0.035,0.016-0.035,0.035v0.644C12.314,2.791,12.331,2.808,12.35,2.808z"/>
	<path class="st0" d="M12.934,2.525l0.278,0.123c0.015,0.005,0.031,0,0.038-0.015l0.208-0.472c0.005-0.015,0-0.031-0.015-0.038
		l-0.078-0.034c0.05-0.004,0.098-0.034,0.12-0.084c0.031-0.071-0.001-0.154-0.071-0.185c-0.074-0.031-0.157,0.001-0.188,0.072
		c-0.022,0.05-0.014,0.106,0.018,0.144L13.167,2c-0.015-0.005-0.031,0-0.038,0.015l-0.21,0.471
		C12.912,2.501,12.919,2.519,12.934,2.525z"/>
	<path class="st0" d="M11.589,2.146L11.515,2.19c-0.014,0.008-0.018,0.026-0.01,0.039l0.263,0.443
		c0.008,0.014,0.026,0.018,0.039,0.01l0.261-0.155c0.014-0.008,0.018-0.026,0.01-0.039l-0.264-0.443
		c-0.008-0.014-0.026-0.018-0.039-0.01l-0.074,0.045c0.027-0.044,0.029-0.099,0.001-0.146c-0.039-0.068-0.127-0.09-0.193-0.049
		c-0.067,0.039-0.089,0.127-0.048,0.193C11.488,2.124,11.538,2.149,11.589,2.146z"/>
	<path class="st0" d="M11.887,1.573l-0.042,0.042c-0.007,0.007-0.007,0.02,0,0.029l0.256,0.255c0.007,0.007,0.02,0.007,0.029,0
		l0.15-0.151c0.007-0.007,0.007-0.02,0-0.029l-0.257-0.255c-0.007-0.007-0.02-0.007-0.029,0l-0.042,0.044
		c0.011-0.034,0.003-0.074-0.025-0.099c-0.039-0.039-0.101-0.039-0.14,0c-0.039,0.039-0.039,0.101,0,0.14
		C11.813,1.576,11.853,1.584,11.887,1.573z"/>
	<path class="st0" d="M12.825,1.719l0.142,0.005c0.007,0,0.014-0.005,0.014-0.014l0.008-0.242c0-0.007-0.005-0.014-0.014-0.014
		h-0.039c0.022-0.011,0.037-0.031,0.038-0.057c0.001-0.037-0.029-0.067-0.064-0.068c-0.037-0.001-0.067,0.029-0.068,0.064
		c-0.001,0.026,0.014,0.048,0.034,0.06l-0.041-0.001c-0.007,0-0.014,0.005-0.014,0.014l-0.008,0.242
		C12.811,1.713,12.817,1.719,12.825,1.719z"/>
	<path class="st0" d="M13.383,2.484L13.338,2.61c0.233,0.041,0.379,0.099,0.379,0.163c0,0.127-0.565,0.229-1.262,0.229
		c-0.697,0-1.262-0.101-1.262-0.227c0-0.064,0.146-0.121,0.379-0.163l-0.044-0.128c-0.362,0.061-0.596,0.161-0.596,0.27
		c0,0.279,0.632,0.669,1.182,1.328l0.023,0.41c0.095-0.029,0.203-0.044,0.319-0.044c0.117,0,0.225,0.016,0.321,0.044l0.023-0.411
		c0.549-0.659,1.182-1.048,1.182-1.328C13.98,2.644,13.745,2.545,13.383,2.484z"/>
	<path class="st0" d="M12.453,4.545c-0.374,0-0.677,0.287-0.677,0.643c0,0.355,0.304,0.643,0.677,0.643
		c0.374,0,0.677-0.287,0.677-0.643C13.131,4.834,12.828,4.545,12.453,4.545z M12.406,5.065c0.016,0.014,0.045,0.027,0.083,0.039
		c0.038,0.012,0.074,0.025,0.108,0.038s0.063,0.029,0.087,0.045c0.025,0.016,0.044,0.035,0.059,0.057
		c0.014,0.022,0.02,0.049,0.02,0.08c0,0.052-0.022,0.095-0.067,0.129c-0.045,0.034-0.103,0.052-0.182,0.057v0.093h-0.097V5.51
		c-0.09-0.007-0.158-0.03-0.206-0.068c-0.048-0.039-0.071-0.09-0.071-0.155h0.207c0,0.035,0.011,0.063,0.031,0.08
		s0.05,0.029,0.089,0.029c0.029,0,0.05-0.005,0.065-0.018c0.015-0.014,0.025-0.03,0.025-0.052c0-0.025-0.008-0.044-0.025-0.057
		c-0.016-0.014-0.044-0.027-0.084-0.039c-0.041-0.012-0.078-0.025-0.112-0.037c-0.034-0.012-0.063-0.027-0.087-0.044
		c-0.025-0.016-0.044-0.037-0.057-0.059c-0.014-0.022-0.019-0.049-0.019-0.079c0-0.052,0.023-0.095,0.071-0.129
		c0.046-0.034,0.109-0.053,0.187-0.059V4.728h0.097v0.097c0.076,0.01,0.133,0.031,0.177,0.069c0.042,0.038,0.064,0.087,0.064,0.144
		H12.56c0-0.031-0.008-0.057-0.025-0.074c-0.016-0.018-0.039-0.026-0.069-0.026c-0.027,0-0.049,0.005-0.063,0.019
		c-0.015,0.014-0.022,0.03-0.022,0.053C12.38,5.034,12.388,5.052,12.406,5.065z"/>
</g>
<g>
	<path class="st1" d="M2.518,7.427l0.035,0.108l0.035-0.108L3.183,5.83h0.072L2.593,7.599H2.514L1.852,5.832h0.072L2.518,7.427z"/>
	<path class="st1" d="M3.836,7.624c-0.106,0-0.204-0.029-0.291-0.084C3.456,7.482,3.387,7.404,3.336,7.305
		C3.286,7.204,3.26,7.094,3.26,6.973V6.918c0-0.121,0.025-0.233,0.074-0.334c0.049-0.102,0.116-0.181,0.2-0.238
		s0.177-0.084,0.278-0.084c0.147,0,0.266,0.052,0.359,0.157c0.094,0.105,0.14,0.242,0.14,0.413v0.069H3.327v0.071
		c0,0.108,0.022,0.206,0.068,0.297C3.44,7.359,3.503,7.432,3.582,7.482C3.66,7.534,3.746,7.56,3.839,7.56
		c0.089,0,0.163-0.015,0.226-0.044C4.127,7.487,4.182,7.442,4.228,7.38l0.046,0.033C4.174,7.553,4.029,7.624,3.836,7.624z
		 M3.812,6.327c-0.128,0-0.237,0.048-0.325,0.142C3.398,6.564,3.346,6.685,3.33,6.832h0.916V6.819c0-0.089-0.018-0.172-0.057-0.248
		c-0.038-0.076-0.09-0.136-0.155-0.178C3.968,6.348,3.893,6.327,3.812,6.327z"/>
	<path class="st1" d="M4.596,6.593C4.638,6.491,4.702,6.41,4.785,6.35c0.084-0.06,0.177-0.089,0.278-0.089
		c0.142,0,0.245,0.039,0.315,0.118c0.068,0.08,0.103,0.2,0.103,0.361v0.858H5.414V6.74c0-0.14-0.029-0.245-0.086-0.312
		C5.271,6.36,5.181,6.327,5.059,6.327c-0.113,0-0.211,0.039-0.294,0.12s-0.14,0.185-0.169,0.312v0.84H4.531V6.287h0.065
		C4.596,6.287,4.596,6.593,4.596,6.593z"/>
	<path class="st1" d="M5.745,6.931c0-0.21,0.044-0.373,0.132-0.492c0.09-0.117,0.21-0.176,0.364-0.176
		c0.098,0,0.187,0.022,0.261,0.067C6.577,6.375,6.64,6.44,6.687,6.529V5.735h0.065v1.867H6.687V7.389
		C6.642,7.463,6.581,7.521,6.503,7.562C6.426,7.603,6.337,7.624,6.238,7.624c-0.152,0-0.272-0.061-0.361-0.181
		C5.789,7.321,5.745,7.155,5.745,6.944V6.931z M5.813,6.955c0,0.187,0.037,0.334,0.11,0.441c0.074,0.108,0.178,0.162,0.313,0.162
		c0.108,0,0.202-0.025,0.278-0.072c0.078-0.048,0.135-0.118,0.173-0.211V6.66C6.611,6.438,6.463,6.327,6.239,6.327
		C6.104,6.327,6,6.38,5.926,6.487C5.85,6.593,5.813,6.749,5.813,6.955z"/>
	<path class="st1" d="M6.981,6.918c0-0.125,0.025-0.238,0.072-0.338c0.049-0.099,0.117-0.177,0.204-0.233
		c0.087-0.057,0.187-0.084,0.298-0.084c0.11,0,0.208,0.027,0.297,0.082C7.94,6.4,8.008,6.476,8.057,6.577
		C8.106,6.676,8.13,6.788,8.132,6.913v0.059c0,0.127-0.025,0.24-0.072,0.339S7.944,7.487,7.857,7.543
		C7.77,7.598,7.67,7.626,7.559,7.626c-0.11,0-0.21-0.029-0.3-0.083C7.172,7.489,7.104,7.411,7.055,7.312
		c-0.049-0.097-0.072-0.21-0.074-0.334V6.918z M7.047,6.969c0,0.109,0.022,0.208,0.064,0.3C7.154,7.359,7.214,7.43,7.292,7.481
		c0.078,0.05,0.165,0.076,0.266,0.076c0.15,0,0.272-0.056,0.366-0.169c0.095-0.11,0.142-0.255,0.142-0.433V6.918
		c0-0.108-0.022-0.208-0.065-0.3C7.956,6.528,7.895,6.455,7.817,6.405C7.74,6.355,7.651,6.329,7.554,6.329
		c-0.15,0-0.272,0.057-0.366,0.172C7.093,6.615,7.047,6.758,7.047,6.932V6.969L7.047,6.969z"/>
	<path class="st1" d="M8.942,6.334L8.856,6.327c-0.112,0-0.206,0.037-0.28,0.108C8.501,6.508,8.45,6.609,8.427,6.74V7.6H8.362V6.287
		h0.065V6.56c0.035-0.091,0.089-0.163,0.161-0.218c0.072-0.053,0.161-0.08,0.268-0.08c0.038,0,0.069,0.005,0.093,0.014L8.942,6.334z
		"/>
	<path class="st2" d="M9.715,7.534h0.908v0.065H9.649V5.832h0.067V7.534z"/>
	<path class="st2" d="M11.284,7.624c-0.106,0-0.204-0.029-0.291-0.084c-0.089-0.057-0.158-0.135-0.208-0.234
		c-0.05-0.101-0.076-0.211-0.076-0.332V6.918c0-0.121,0.025-0.233,0.074-0.334c0.049-0.102,0.116-0.181,0.2-0.238
		s0.177-0.084,0.278-0.084c0.147,0,0.266,0.052,0.359,0.157c0.094,0.105,0.14,0.242,0.14,0.413v0.069h-0.984v0.071
		c0,0.108,0.022,0.206,0.068,0.297c0.045,0.091,0.108,0.163,0.187,0.214c0.079,0.052,0.165,0.078,0.257,0.078
		c0.089,0,0.163-0.015,0.226-0.044c0.063-0.029,0.117-0.074,0.163-0.136l0.046,0.033C11.621,7.553,11.477,7.624,11.284,7.624z
		 M11.261,6.327c-0.128,0-0.237,0.048-0.325,0.142c-0.09,0.095-0.142,0.216-0.158,0.364h0.916V6.819
		c0-0.089-0.018-0.172-0.057-0.248c-0.038-0.076-0.09-0.136-0.155-0.178C11.416,6.348,11.341,6.327,11.261,6.327z"/>
	<path class="st2" d="M12.828,7.599c-0.016-0.056-0.025-0.136-0.025-0.24c-0.052,0.084-0.123,0.15-0.212,0.196
		c-0.09,0.045-0.192,0.068-0.305,0.068c-0.121,0-0.219-0.033-0.294-0.098C11.917,7.46,11.88,7.373,11.88,7.268
		c0-0.12,0.054-0.218,0.163-0.289c0.109-0.074,0.253-0.109,0.434-0.11h0.325V6.675c0-0.11-0.034-0.196-0.105-0.256
		c-0.069-0.061-0.167-0.091-0.297-0.091c-0.12,0-0.221,0.03-0.3,0.093c-0.08,0.061-0.12,0.138-0.12,0.229l-0.067-0.003
		c0-0.108,0.048-0.197,0.142-0.272c0.094-0.075,0.208-0.112,0.344-0.112c0.142,0,0.253,0.035,0.338,0.106
		c0.084,0.071,0.127,0.17,0.129,0.3v0.628c0,0.144,0.011,0.242,0.034,0.294V7.6C12.903,7.599,12.828,7.599,12.828,7.599z
		 M12.286,7.558c0.123,0,0.229-0.029,0.319-0.083c0.089-0.054,0.155-0.132,0.199-0.231V6.932H12.5c-0.188,0-0.332,0.038-0.432,0.112
		c-0.082,0.061-0.121,0.136-0.121,0.227c0,0.08,0.031,0.148,0.095,0.204C12.106,7.531,12.188,7.558,12.286,7.558z"/>
	<path class="st2" d="M13.144,6.931c0-0.21,0.044-0.373,0.132-0.492c0.089-0.117,0.208-0.176,0.364-0.176
		c0.098,0,0.185,0.022,0.261,0.067c0.075,0.045,0.136,0.11,0.184,0.199V5.735h0.065v1.867h-0.065V7.389
		c-0.045,0.074-0.105,0.132-0.184,0.173c-0.078,0.041-0.166,0.061-0.266,0.061c-0.152,0-0.272-0.061-0.361-0.181
		c-0.087-0.121-0.131-0.287-0.131-0.498V6.931z M13.212,6.955c0,0.187,0.037,0.334,0.11,0.441c0.074,0.108,0.178,0.162,0.313,0.162
		c0.108,0,0.202-0.025,0.278-0.072c0.076-0.049,0.133-0.118,0.172-0.211V6.66c-0.075-0.222-0.225-0.332-0.447-0.332
		c-0.135,0-0.24,0.053-0.313,0.159C13.248,6.593,13.212,6.749,13.212,6.955z"/>
	<path class="st2" d="M15.288,7.279c0-0.159-0.136-0.268-0.408-0.325c-0.163-0.035-0.276-0.079-0.342-0.133
		c-0.064-0.054-0.095-0.129-0.095-0.225c0-0.095,0.041-0.176,0.121-0.238c0.082-0.063,0.188-0.094,0.319-0.094
		c0.142,0,0.255,0.034,0.342,0.101c0.086,0.067,0.129,0.159,0.129,0.274h-0.067c0-0.089-0.038-0.162-0.112-0.221
		c-0.075-0.06-0.172-0.09-0.293-0.09c-0.116,0-0.207,0.026-0.274,0.075c-0.065,0.05-0.099,0.113-0.099,0.189
		c0,0.06,0.012,0.106,0.038,0.139c0.025,0.033,0.064,0.064,0.121,0.09c0.057,0.026,0.14,0.053,0.248,0.078
		c0.108,0.026,0.195,0.054,0.257,0.089c0.063,0.034,0.109,0.074,0.138,0.12c0.029,0.046,0.042,0.103,0.042,0.17
		c0,0.103-0.042,0.187-0.128,0.251c-0.084,0.063-0.197,0.095-0.334,0.095c-0.147,0-0.266-0.034-0.357-0.099
		C14.445,7.456,14.4,7.37,14.4,7.265h0.065c0.005,0.093,0.048,0.163,0.123,0.215c0.076,0.05,0.177,0.076,0.305,0.076
		c0.118,0,0.212-0.027,0.287-0.082C15.253,7.422,15.288,7.355,15.288,7.279z"/>
</g>
</svg>
