<?xml version="1.0" encoding="utf-8"?>
<!-- Generator: Adobe Illustrator 21.1.0, SVG Export Plug-In . SVG Version: 6.00 Build 0)  -->
<svg version="1.1" id="Layer_1" xmlns="http://www.w3.org/2000/svg" xmlns:xlink="http://www.w3.org/1999/xlink" x="0px" y="0px"
	 viewBox="0 0 200 155" style="enable-background:new 0 0 200 155;" xml:space="preserve">
<style type="text/css">
	.st0{opacity:0.7;fill:#768693;enable-background:new    ;}
	.st1{fill:#FFFFFF;}
</style>
<circle class="st0" cx="100" cy="77.167" r="75.333"/>
<g>
	<path class="st1" d="M97.564,60.503h8.748c0.453,0,0.823-0.371,0.823-0.823V44.808c0-0.453-0.371-0.823-0.823-0.823h-2.493
		c1.298-0.679,2.185-2.036,2.185-3.602c0-2.245-1.82-4.065-4.065-4.065s-4.065,1.82-4.065,4.065c0,1.566,0.887,2.923,2.185,3.602
		h-2.493c-0.453,0-0.823,0.371-0.823,0.823V59.68C96.741,60.133,97.111,60.503,97.564,60.503z"/>
	<path class="st1" d="M111.062,53.956l6.417,2.842c0.332,0.147,0.724-0.004,0.872-0.336l4.832-10.91
		c0.147-0.332-0.004-0.724-0.336-0.872l-1.829-0.81c1.173-0.076,2.264-0.784,2.773-1.933c0.729-1.647-0.014-3.574-1.661-4.303
		c-1.647-0.729-3.574,0.014-4.303,1.661c-0.509,1.149-0.299,2.433,0.432,3.352l-1.829-0.81c-0.332-0.147-0.724,0.004-0.871,0.336
		l-4.832,10.91C110.578,53.417,110.729,53.809,111.062,53.956z"/>
	<path class="st1" d="M79.993,45.203l-1.72,1.022c-0.312,0.186-0.416,0.593-0.23,0.905l6.097,10.256
		c0.186,0.312,0.593,0.416,0.905,0.23l6.033-3.587c0.312-0.186,0.416-0.593,0.23-0.905l-6.097-10.256
		c-0.186-0.312-0.593-0.416-0.905-0.23l-1.72,1.022c0.617-1,0.672-2.3,0.03-3.38c-0.921-1.548-2.922-2.057-4.47-1.137
		c-1.548,0.92-2.057,2.922-1.137,4.47C77.651,44.695,78.82,45.267,79.993,45.203z"/>
	<path class="st1" d="M86.862,31.952l-0.988,0.994c-0.179,0.18-0.179,0.475,0.002,0.654l5.928,5.893
		c0.18,0.179,0.475,0.179,0.654-0.002l3.467-3.487c0.179-0.18,0.179-0.475-0.002-0.654l-5.928-5.893
		c-0.18-0.179-0.475-0.179-0.654,0.002l-0.988,0.994c0.244-0.786,0.054-1.678-0.57-2.298c-0.895-0.89-2.342-0.885-3.231,0.009
		c-0.89,0.895-0.885,2.342,0.009,3.231C85.185,32.016,86.077,32.2,86.862,31.952z"/>
	<path class="st1" d="M108.541,35.337l3.286,0.107c0.17,0.006,0.314-0.129,0.319-0.299l0.183-5.586
		c0.006-0.17-0.129-0.314-0.299-0.319l-0.936-0.031c0.496-0.239,0.846-0.738,0.865-1.326c0.028-0.843-0.634-1.549-1.477-1.577
		c-0.843-0.028-1.549,0.634-1.577,1.477c-0.019,0.588,0.297,1.109,0.776,1.38l-0.936-0.031c-0.17-0.006-0.314,0.129-0.319,0.299
		l-0.183,5.586C108.236,35.187,108.371,35.331,108.541,35.337z"/>
	<path class="st1" d="M121.451,52.991l-1.036,2.957c5.409,0.96,8.769,2.298,8.769,3.778c0,2.921-13.066,5.289-29.184,5.289
		s-29.184-2.368-29.184-5.289c0-1.48,3.36-2.818,8.769-3.778l-1.036-2.957c-8.373,1.44-13.774,3.7-13.774,6.244
		c0,6.466,14.614,15.454,27.308,30.686l0.537,9.468c2.191-0.638,4.691-1.001,7.347-1.001c2.683,0,5.207,0.37,7.414,1.02l0.538-9.487
		c12.693-15.232,27.308-24.22,27.308-30.686C135.226,56.691,129.824,54.43,121.451,52.991z"/>
	<path class="st1" d="M99.966,100.652c-8.644,0-15.651,6.644-15.651,14.841c0,8.196,7.007,14.841,15.651,14.841
		c8.644,0,15.651-6.644,15.651-14.841C115.616,107.296,108.609,100.652,99.966,100.652z M98.853,112.665
		c0.398,0.31,1.037,0.605,1.918,0.886c0.881,0.281,1.712,0.573,2.493,0.875c0.781,0.302,1.456,0.646,2.024,1.03
		c0.568,0.384,1.014,0.833,1.336,1.345c0.322,0.512,0.483,1.128,0.483,1.846c0,1.216-0.514,2.209-1.541,2.977
		c-1.028,0.768-2.427,1.216-4.198,1.345v2.145h-2.259v-2.155c-2.065-0.164-3.649-0.695-4.752-1.595
		c-1.104-0.9-1.655-2.086-1.655-3.559h4.787c0,0.811,0.239,1.428,0.718,1.851c0.478,0.424,1.158,0.635,2.039,0.635
		c0.644,0,1.151-0.144,1.52-0.432c0.369-0.288,0.554-0.685,0.554-1.19c0-0.562-0.185-1.003-0.554-1.323
		c-0.369-0.32-1.018-0.623-1.946-0.907c-0.929-0.285-1.785-0.573-2.571-0.865c-0.786-0.292-1.463-0.629-2.032-1.014
		c-0.568-0.384-1.004-0.829-1.307-1.334c-0.304-0.505-0.455-1.117-0.455-1.836c0-1.202,0.54-2.193,1.619-2.972
		c1.08-0.779,2.519-1.233,4.319-1.361v-2.252h2.259v2.294c1.733,0.192,3.094,0.727,4.084,1.606s1.485,1.994,1.485,3.346h-4.802
		c0-0.74-0.189-1.309-0.568-1.708c-0.379-0.398-0.919-0.598-1.62-0.598c-0.625,0-1.11,0.148-1.456,0.443
		c-0.346,0.295-0.519,0.703-0.519,1.222C98.256,111.938,98.455,112.356,98.853,112.665z"/>
</g>
</svg>
