<?xml version="1.0" encoding="utf-8"?>
<!-- Generator: Adobe Illustrator 23.0.3, SVG Export Plug-In . SVG Version: 6.00 Build 0)  -->
<svg version="1.1" id="Layer_1" xmlns="http://www.w3.org/2000/svg" xmlns:xlink="http://www.w3.org/1999/xlink" x="0px" y="0px"
	 viewBox="0 0 400 66" style="enable-background:new 0 0 400 66;" xml:space="preserve">
<style type="text/css">
	.st0{fill:#FFFFFF;}
</style>
<path class="st0" d="M151.569,33.797c0,5.316-1.085,9.652-2.772,14.667c-0.322,0.98-0.683,1.961-1.085,2.904
	c-0.844,1.998-2.852,4.939-4.581,6.371c-0.804,0.679-1.848,1.169-2.973,1.169c-1.446,0-2.651-0.679-3.535-1.697
	c-0.763-0.867-0.964-2.149-0.964-3.242c-1.125,1.357-4.46,5.09-6.348,5.09c-0.12,0.226-0.322,0.414-0.603,0.414
	c-1.687,0-2.973-1.885-2.973-3.318c0-1.358,0.402-3.807,0.844-5.128c1.326-4.072,3.455-7.729,5.705-11.387l0.04-0.226
	c-1.004,0.414-2.451,0.943-3.535,0.943c-0.763,0-2.25-0.755-2.25-1.583c0-0.076,0-0.151,0.04-0.226
	c2.33-0.151,4.5-1.056,6.469-2.187c0.643-0.377,1.286-0.792,2.009-1.056c0.763,0.302,2.09,1.093,2.09,1.961
	c0,0.414-1.045,2.299-1.286,2.828c-2.973,5.957-5.625,11.16-6.991,17.721l0.12,0.076c0.12-0.113,0.281-0.189,0.441-0.264
	c2.009-1.169,5.585-5.354,6.75-7.352c0.281-0.49,0.441-0.98,0.642-1.508c0.723-1.961,1.366-4.035,2.893-5.617
	c0.281-0.265,0.722-0.641,1.125-0.641c0.241,0,0.522,0.188,0.763,0.264l0.081,0.226h0.161l0.2-0.076v0.189
	c0,0.226-0.964,1.772-1.165,2.149c-1.246,2.414-2.129,6.183-2.572,8.861v0.113c0,0.038,0.04,0.188,0.081,0.226
	c0.683-3.318,1.647-7.164,3.294-10.18l0.603-1.093l0.482,0.226c-0.12,0.98-0.722,1.961-1.045,2.904
	c-1.045,3.017-2.41,7.315-2.41,10.444c0,0.076,0.04,0.113,0.04,0.189c0.763-0.264,1.567-0.943,2.129-1.508
	c1.888-1.885,3.335-4.299,4.339-6.711c1.808-4.412,3.455-10.708,3.455-15.421c0-3.129-0.281-4.977-2.41-7.503
	c-0.161-0.188-0.642-0.755-0.642-0.943c0.924,0.226,1.527,0.678,2.209,1.282c0.804,0.716,1.567,1.508,2.049,2.451
	C151.288,30.216,151.569,32.025,151.569,33.797z M129.632,50.726h0.04v-0.038L129.632,50.726z M129.994,49.632l0.161-0.188
	l-0.081-0.037C130.034,49.482,129.994,49.557,129.994,49.632z M130.154,49.142l0.04,0.076c0-0.038,0-0.076,0.04-0.113
	L130.154,49.142z M131.24,46.88l1.206-2.414V44.39C131.882,45.145,131.601,46.051,131.24,46.88z M132.445,44.354
	c0.603-0.678,1.085-1.923,1.527-2.752c0.683-1.282,1.728-2.564,2.17-3.959l-0.081-0.038c-0.804,1.056-1.245,2.262-1.888,3.393
	c-0.562,1.018-1.245,2.036-1.687,3.092C132.445,44.166,132.445,44.279,132.445,44.354z M138.03,51.441h-0.04
	c0,0.038,0,0.038,0.04,0.038V51.441z M138.23,50.801l-0.04-0.038v0.038H138.23z M138.23,50.462l0.04,0.038v-0.038H138.23z
	 M138.311,54.76h-0.04v0.151l0.04-0.038V54.76z M138.752,46.051l0.081,0.038c0.362-0.604,0.683-1.244,1.004-1.848
	C139.355,44.768,139.034,45.409,138.752,46.051z M140.199,45.145c-0.161,0.302-0.322,0.566-0.441,0.868
	c-0.081,0.076-0.04,0.151-0.04,0.226C139.797,45.9,139.998,45.523,140.199,45.145z M141.404,45.673l0.04-0.038v-0.037
	C141.444,45.636,141.404,45.636,141.404,45.673z M141.765,44.957c0.04,0,0.04,0,0.04-0.038h-0.04V44.957z M141.846,44.768
	c0,0.038,0,0.038,0.04,0.038v-0.038l-0.04-0.038V44.768z M141.886,44.617h0.04V44.58L141.886,44.617z M142.288,43.864
	c0,0.038,0,0.038,0.04,0.038v-0.038H142.288z M149.921,41.715c-0.081,0.076-0.081,0.188-0.12,0.302
	c-1.045,3.997-2.25,8.068-4.46,11.65c-0.241,0.377-0.522,0.754-0.722,1.169c2.572-2.187,4.54-9.652,5.303-12.895L149.921,41.715
	L149.921,41.715z M144.699,52.423c0.522-0.716,1.728-3.167,1.888-3.883l-0.04,0.038C146.506,48.878,144.98,51.97,144.699,52.423z
	 M146.667,50.009c0,0.076-0.04,0.113-0.081,0.151c-0.04,0.076-0.12,0.302-0.161,0.34c0,0.076-0.04,0.151-0.081,0.227l0.161-0.189
	c0-0.151,0.12-0.226,0.12-0.34c0.04-0.038,0.04-0.189,0.081-0.302L146.667,50.009z M146.948,49.368l0.04-0.038v-0.037l-0.04,0.037
	V49.368z M146.989,51.97h-0.04l0.04,0.038V51.97L146.989,51.97z M147.029,47.144l0.081,0.113c0-0.038,0-0.076-0.04-0.113H147.029z
	 M147.07,51.819c0-0.038,0-0.038-0.04-0.038v0.038H147.07z M147.15,51.631l-0.04,0.038h0.04V51.631z M147.431,48.2
	c0.04-0.076,0.04-0.151,0.12-0.226l-0.081-0.038C147.431,48.012,147.431,48.124,147.431,48.2z M147.832,50.085h-0.04l0.04,0.038
	V50.085z M147.832,46.992l0.04-0.038h-0.04V46.992z M147.873,44.693h0.04l-0.04-0.037V44.693z M148.034,49.632l-0.04-0.038v0.038
	H148.034z M148.074,49.444h-0.04v0.038L148.074,49.444z M148.074,46.126h0.04l-0.04-0.037V46.126z M148.154,45.938h0.04V45.9h-0.04
	V45.938z M148.355,45.259h0.04v-0.038L148.355,45.259z M150.083,41.149l-0.081-0.038c-0.04,0.113-0.081,0.226-0.081,0.34
	l0.081,0.038L150.083,41.149z M150.163,40.923l-0.081-0.076v0.076H150.163z M150.202,40.546l-0.04-0.038
	c-0.04,0.038-0.04,0.076-0.04,0.113L150.202,40.546z M150.243,40.169c-0.04,0.038-0.04,0.038-0.04,0.076l0.04,0.038V40.169z
	 M150.324,39.905h-0.04v0.076C150.284,39.943,150.284,39.943,150.324,39.905z M150.443,38.85h-0.04c0,0.038,0,0.038,0.04,0.076
	V38.85z"/>
<path class="st0" d="M151.448,53.406c-0.161,0.322-0.12,1.004-0.12,1.325c0,0.402,0.12,1.928,0.683,1.928
	c0.844,0,1.487-0.562,1.768-1.285l0.04-0.04v0.12c0,0.362-0.322,0.642-0.441,0.964c0.441-0.201,0.522-0.603,0.763-0.964
	c0.04,0.08,0.081,0.161,0.081,0.2c0,0.282-0.241,0.441-0.281,0.683l0.281,0.04l-0.04,0.12l0.081,0.04v-0.038h0.12l-0.04-0.081h0.04
	l0.04-0.161h0.04l0.081-0.161v0.161c0.12-0.12,0.161-0.241,0.161-0.402l0.161-0.201c-0.081,1.165-1.165,1.928-2.29,1.928
	c-2.45,0-3.897-1.687-3.897-4.057c0-1.928,0.804-3.857,1.928-5.424c0.884-1.245,2.129-1.928,3.656-1.928
	c0.362,0,0.722,0.08,1.084,0.161l-0.804-1.487l0.322-0.081c1.607,0.522,2.692,1.848,2.692,3.616
	C157.555,51.317,154.1,53.406,151.448,53.406z M150.163,50.273c-0.04,0-0.04,0-0.04,0.04h0.04V50.273z M150.364,49.67l-0.12,0.2
	l0.081,0.04L150.364,49.67z M150.404,49.589l-0.04,0.04h0.04V49.589z M151.047,48.505l0.12-0.04
	C151.127,48.464,151.087,48.464,151.047,48.505l-0.2,0.322l-0.081,0.12v0.04c-0.081,0.12-0.2,0.242-0.281,0.402
	c0.201-0.08,0.241-0.241,0.281-0.402l0.081-0.161l0.161-0.12C151.006,48.625,151.047,48.585,151.047,48.505z M150.926,51.518
	c-0.04,0.04-0.04,0.12-0.04,0.201h0.04V51.518z M152.412,48.746c-0.562,0.562-1.326,1.687-1.326,2.532
	C151.368,50.392,152.051,49.63,152.412,48.746z M151.087,49.79v0.04c0-0.04,0-0.04,0-0.081V49.79z M151.247,49.428
	c0.04-0.04,0.04-0.081,0.04-0.161C151.247,49.348,151.247,49.388,151.247,49.428z M151.408,49.188h0.04
	c0.04-0.04,0.081-0.12,0.081-0.161C151.488,49.067,151.448,49.188,151.408,49.188z M151.851,51.799
	c1.446-0.161,3.576-2.532,3.576-3.978V47.66C153.618,48.063,152.172,50.031,151.851,51.799z M152.453,48.705l0.161-0.081v-0.04
	l-0.04,0.04C152.493,48.625,152.493,48.665,152.453,48.705z M155.185,49.87c-0.04,0.04-0.04,0.12-0.04,0.161l-0.12,0.081l0.12-0.04
	v-0.04L155.185,49.87z M155.466,49.428l-0.081,0.161v0.04C155.426,49.55,155.466,49.509,155.466,49.428z M155.587,49.188
	c0.04,0,0.081-0.04,0.081-0.081h-0.081V49.188z M155.747,50.795c0.04-0.04,0.081-0.04,0.081-0.081L155.747,50.795z M155.828,49.87
	h0.04l0.04-0.12L155.828,49.87z M155.988,50.674c-0.04,0-0.081,0-0.12,0.04C155.908,50.715,155.948,50.715,155.988,50.674z
	 M155.988,50.634c0.402-0.402,0.642-0.924,0.804-1.446C156.631,49.469,155.988,50.392,155.988,50.634z"/>
<path class="st0" d="M165.108,30.304c-0.924,3.375-2.651,7.673-3.776,9.522l-2.25,0.281c0.884-2.371,1.928-6.548,2.371-9.441
	L165.108,30.304z"/>
<path class="st0" d="M167.679,54.857c-0.482,0.611-1.004,1.22-1.728,1.602l-1.406-0.457l0.081-0.114
	c0.683-0.648,1.206-1.335,1.728-2.098c2.009-3.051,3.335-6.295,4.018-9.843c-1.527-0.992-3.656-2.098-3.656-4.119
	c0-1.03,0.964-2.289,2.129-2.289c0.362,0,0.683,0.077,1.004,0.229c1.326,0.534,2.129,1.717,2.29,3.051
	c0.081,0.839,0.2,1.679,0.241,2.517c1.366,0.763,2.852,1.525,4.018,2.556c0.642,0.572,0.964,1.222,0.964,2.06
	c0,1.145-0.763,3.051-1.165,4.196c-0.722,2.022-2.009,5.188-2.009,7.286c0,0.496,0.081,1.03,0.281,1.488l1.125,0.267l-0.04,0.305
	l0.04,0.038l0.2-0.229h0.322c0.081,0.153,0.12,0.305,0.12,0.457c0,0.724-1.206,0.954-1.808,0.954c-2.612,0-3.656-2.671-3.656-4.769
	c0-2.556,1.687-6.714,2.651-9.156c0.241-0.572,0.683-1.793,0.683-2.365c0-0.915-1.125-1.297-1.848-1.602
	C171.777,48.562,169.969,51.842,167.679,54.857z M167.479,39.024l0.081,0.077c0.04-0.153,0.081-0.305,0.161-0.419L167.479,39.024z
	 M167.719,53.902l-0.04,0.038h0.04V53.902z M168.001,51.919c0.201-0.114,0.281-0.381,0.322-0.611L168.001,51.919z M168.763,39.062
	c-0.12,0.114-0.241,0.267-0.241,0.457c0,0.077,0,0.114,0.04,0.19C168.644,39.52,168.684,39.291,168.763,39.062z M170.411,41.923
	c0-0.724-0.2-2.365-0.643-2.899c-0.402,0.344-0.642,0.801-0.642,1.297c0,0.801,0.522,1.717,1.245,2.098
	C170.371,42.267,170.411,42.076,170.411,41.923z M171.335,46.158c-0.603,1.87-1.286,3.662-2.129,5.455
	c0.844-0.878,2.09-4.425,2.25-5.646C171.375,46.005,171.375,46.081,171.335,46.158z M169.447,48.943
	c0.2-0.381,0.362-0.724,0.441-1.106l-0.081,0.038L169.447,48.943z M170.01,47.265c-0.12,0.153-0.161,0.344-0.12,0.496L170.01,47.265
	z M170.09,47.073c0.04-0.038,0.04-0.077,0.04-0.114L170.09,47.073z M170.17,46.769c0,0.038,0,0.114-0.04,0.153
	c0.04-0.038,0.081-0.114,0.081-0.153H170.17z M170.291,46.311l0.12-0.153h-0.04L170.291,46.311z M170.492,45.853l-0.04-0.076v0.114
	L170.492,45.853z M171.536,45.547h-0.04V45.7h0.04V45.547z M171.617,45.128h-0.04v0.114h0.04V45.128z M173.947,49.744l-1.928,5.57
	l-0.442,1.526c0.362-0.687,0.603-1.488,0.844-2.251c0.683-2.022,1.446-4.006,2.049-6.065
	C174.188,48.828,174.067,49.363,173.947,49.744z M172.501,57.564c0-0.076-0.04-0.114-0.04-0.19c-0.04,0.077-0.04,0.114-0.04,0.19
	H172.501z M175.072,49.172l-1.968,5.493c-0.281,0.839-0.402,1.755-0.603,2.594l0.081-0.077c0.362-1.144,0.642-2.326,1.044-3.471
	c0.522-1.526,1.286-3.051,1.567-4.654L175.072,49.172z M173.425,57.488c0.402-1.908,1.125-3.777,1.808-5.646
	c0.402-1.145,0.924-2.326,1.045-3.548h-0.081c-0.964,2.556-1.848,5.188-2.692,7.782c-0.241,0.763-0.402,1.526-0.402,2.327
	c0,0.229,0,0.457,0.04,0.686C173.264,58.556,173.304,58.022,173.425,57.488z M173.344,55.695v-0.038l-0.04,0.038H173.344z
	 M173.746,54.322l0.04-0.038h-0.04V54.322z M173.826,54.017l0.04,0.038v-0.038H173.826z M173.866,57.679h-0.04
	c0,0.038,0,0.038,0.04,0.077V57.679z M173.907,53.788l0.04,0.038v-0.038H173.907z M173.947,57.297h-0.04v0.077h0.04V57.297z
	 M174.188,56.459h0.04v-0.114h-0.04V56.459z M174.308,56.001h-0.04v0.114h0.04V56.001z M174.469,52.263l-0.04,0.038h0.04V52.263z
	 M174.469,55.504c-0.04,0-0.04,0.038-0.04,0.076h0.04V55.504z M174.51,48.294v0.153c0.04-0.038,0.04-0.114,0.04-0.153H174.51z
	 M174.549,55.237l-0.04,0.038h0.04V55.237z M174.59,54.97l0.081,0.038c0-0.038,0-0.077-0.04-0.114L174.59,54.97z M174.75,54.627
	h-0.04v0.114h0.04V54.627z M174.991,53.902h-0.04c0,0.038,0,0.038,0.04,0.038V53.902z M175.072,50.621l-0.04,0.038h0.04V50.621z
	 M175.072,53.673c-0.04,0-0.04,0-0.04,0.038L175.072,53.673z M175.272,48.867h-0.081v0.114L175.272,48.867z M175.233,53.215
	l0.04-0.038h-0.04V53.215z M175.313,52.987c0.04,0,0.04-0.038,0.04-0.077h-0.04V52.987z M175.393,52.72h0.04v-0.076h-0.04V52.72z
	 M175.875,51.499h-0.04v0.077h0.04V51.499z M175.916,51.308h0.04V51.27h-0.04V51.308z M175.996,51.003l0.04,0.038v-0.038H175.996z
	 M176.558,49.515v-0.038l-0.04,0.038H176.558z"/>
<path class="st0" d="M180.777,53.406c-0.161,0.322-0.12,1.004-0.12,1.325c0,0.402,0.12,1.928,0.683,1.928
	c0.844,0,1.487-0.562,1.768-1.285l0.04-0.04v0.12c0,0.362-0.322,0.642-0.441,0.964c0.441-0.201,0.522-0.603,0.763-0.964
	c0.04,0.08,0.081,0.161,0.081,0.2c0,0.282-0.241,0.441-0.281,0.683l0.281,0.04l-0.04,0.12l0.081,0.04v-0.038h0.12l-0.04-0.081h0.04
	l0.04-0.161h0.04l0.081-0.161v0.161c0.12-0.12,0.161-0.241,0.161-0.402l0.161-0.201c-0.081,1.165-1.165,1.928-2.29,1.928
	c-2.45,0-3.897-1.687-3.897-4.057c0-1.928,0.804-3.857,1.928-5.424c0.884-1.245,2.129-1.928,3.656-1.928
	c0.362,0,0.722,0.08,1.084,0.161l-0.804-1.487l0.322-0.081c1.607,0.522,2.692,1.848,2.692,3.616
	C186.883,51.317,183.428,53.406,180.777,53.406z M179.491,50.273c-0.04,0-0.04,0-0.04,0.04h0.04V50.273z M179.692,49.67l-0.12,0.2
	l0.081,0.04L179.692,49.67z M179.732,49.589l-0.04,0.04h0.04V49.589z M180.375,48.505l0.12-0.04
	C180.455,48.464,180.415,48.464,180.375,48.505l-0.2,0.322l-0.081,0.12v0.04c-0.081,0.12-0.2,0.242-0.281,0.402
	c0.201-0.08,0.241-0.241,0.281-0.402l0.081-0.161l0.161-0.12C180.334,48.625,180.375,48.585,180.375,48.505z M180.255,51.518
	c-0.04,0.04-0.04,0.12-0.04,0.201h0.04V51.518z M181.741,48.746c-0.562,0.562-1.326,1.687-1.326,2.532
	C180.696,50.392,181.379,49.63,181.741,48.746z M180.415,49.79v0.04c0-0.04,0-0.04,0-0.081V49.79z M180.576,49.428
	c0.04-0.04,0.04-0.081,0.04-0.161C180.576,49.348,180.576,49.388,180.576,49.428z M180.736,49.188h0.04
	c0.04-0.04,0.081-0.12,0.081-0.161C180.816,49.067,180.777,49.188,180.736,49.188z M181.179,51.799
	c1.446-0.161,3.576-2.532,3.576-3.978V47.66C182.946,48.063,181.5,50.031,181.179,51.799z M181.781,48.705l0.161-0.081v-0.04
	l-0.04,0.04C181.821,48.625,181.821,48.665,181.781,48.705z M184.513,49.87c-0.04,0.04-0.04,0.12-0.04,0.161l-0.12,0.081l0.12-0.04
	v-0.04L184.513,49.87z M184.795,49.428l-0.081,0.161v0.04C184.754,49.55,184.795,49.509,184.795,49.428z M184.914,49.188
	c0.04,0,0.081-0.04,0.081-0.081h-0.081V49.188z M185.076,50.795c0.04-0.04,0.081-0.04,0.081-0.081L185.076,50.795z M185.156,49.87
	h0.04l0.04-0.12L185.156,49.87z M185.317,50.674c-0.04,0-0.081,0-0.12,0.04C185.237,50.715,185.277,50.715,185.317,50.674z
	 M185.317,50.634c0.402-0.402,0.642-0.924,0.804-1.446C185.96,49.469,185.317,50.392,185.317,50.634z"/>
<path class="st0" d="M212.917,44.166c-0.964-0.402-1.205-0.723-1.687-1.647c-0.603-1.206-0.643-2.572-0.643-3.897
	c0-1.567-0.081-3.737,0.723-5.103c-0.322-0.201-0.723-0.322-1.125-0.322c-1.527,0-3.054,1.085-4.098,2.09
	c-3.938,3.816-6.388,9.481-6.388,14.986c0,2.049,0.282,6.83,3.174,6.83c2.009,0,6.228-3.294,6.228-5.424
	c0-0.764-0.441-1.446-0.764-2.09l0.081-0.12c0.161,0,0.322,0.04,0.482,0.081c1.527,0.482,3.174,1.808,3.174,3.535
	c0,1.728-1.406,3.375-2.612,4.46c-1.567,1.406-3.616,2.33-5.745,2.33c-4.66,0-7.433-4.018-8.156-8.236
	c-0.161-1.004-0.241-2.049-0.241-3.054c0-6.268,3.294-13.339,8.679-16.714c0.964-0.603,2.09-1.125,3.253-1.125
	c1.929,0,3.656,0.482,5.182,1.687c0.562,0.441,1.206,0.924,1.607,1.487c0.161,0.241,0.441,0.722,0.441,1.004
	c0,0.081,0,0.12-0.04,0.2c-0.642,1.928-0.924,3.897-0.924,5.947c0,0.763,0.12,1.487,0.12,2.25c0,0.402-0.081,0.764-0.322,1.085
	C213.199,44.286,213.079,44.246,212.917,44.166z M198.132,40.71c-0.12,0.2-0.161,0.402-0.2,0.603
	C198.132,41.151,198.132,40.951,198.132,40.71z M200.584,36.371c-1.045,1.246-1.888,2.651-2.41,4.219
	c0.362-0.362,2.291-3.736,2.49-4.258L200.584,36.371z M198.655,42.478l0.081-0.12c-0.04-0.04-0.04-0.04-0.081-0.04
	c-0.04,0.04-0.04,0.12-0.04,0.161L198.655,42.478L198.655,42.478z M198.776,41.875l0.12,0.04l0.12-0.402L198.776,41.875z
	 M199.218,44.447c1.125-3.254,2.129-5.062,4.057-7.875c0.081-0.12,0.12-0.281,0.161-0.402c-2.45,2.491-3.857,5.584-4.5,9
	C199.057,44.928,199.137,44.688,199.218,44.447z M201.146,37.536c-0.441,0.2-1.727,2.612-1.888,3.134
	c-0.04,0.161,0,0.281-0.04,0.441L201.146,37.536z M200.102,40.429c-0.04,0-0.04,0.04-0.08,0.081
	C200.061,40.469,200.061,40.429,200.102,40.429z M200.864,41.674v0.04l0.04-0.04H200.864z M201.026,41.473c0-0.04,0-0.04-0.04-0.04
	h-0.04c0,0.04,0,0.04,0.04,0.04H201.026z M201.066,41.232l0.04,0.04v-0.04H201.066z M209.061,53.928v0.08
	c0.081-0.2,0.402-0.281,0.402-0.722C209.302,53.486,209.182,53.727,209.061,53.928z M209.503,53.085v0.081
	c0.04-0.04,0.04-0.04,0.04-0.081H209.503z M209.744,55.616c0.642-0.04,1.165-1.527,1.205-2.049l-1.085,1.968L209.744,55.616z
	 M210.105,53.889c-0.242,0.04-0.282,0.241-0.322,0.441L210.105,53.889z M210.105,53.687c0,0.04,0,0.12,0.04,0.161
	c0-0.04,0-0.12,0.04-0.161H210.105z"/>
<path class="st0" d="M216.268,55.482c-0.509,0.621-1.061,1.24-1.824,1.629l-1.485-0.465l0.085-0.116
	c0.721-0.659,1.272-1.358,1.824-2.134c2.121-3.103,3.522-6.401,4.244-10.008c-1.613-1.009-3.861-2.133-3.861-4.189
	c0-1.048,1.018-2.327,2.249-2.327c0.382,0,0.721,0.078,1.061,0.232c1.399,0.543,2.249,1.746,2.418,3.103
	c0.085,0.854,0.212,1.707,0.255,2.56c1.443,0.775,3.012,1.551,4.243,2.599c0.679,0.582,1.018,1.242,1.018,2.095
	c0,1.164-0.806,3.103-1.231,4.267c-0.763,2.056-2.121,5.275-2.121,7.409c0,0.504,0.085,1.047,0.298,1.513l1.188,0.272l-0.043,0.311
	l0.043,0.039l0.212-0.232h0.34c0.085,0.155,0.127,0.311,0.127,0.465c0,0.736-1.272,0.97-1.91,0.97c-2.758,0-3.861-2.716-3.861-4.849
	c0-2.599,1.782-6.827,2.8-9.31c0.254-0.582,0.721-1.823,0.721-2.405c0-0.931-1.188-1.319-1.952-1.629
	C220.595,49.081,218.686,52.416,216.268,55.482z M216.056,39.382l0.085,0.078c0.043-0.155,0.085-0.311,0.17-0.426L216.056,39.382z
	 M216.311,54.511l-0.043,0.039h0.043V54.511z M216.608,52.494c0.213-0.116,0.298-0.388,0.34-0.621L216.608,52.494z M217.414,39.421
	c-0.127,0.116-0.255,0.272-0.255,0.465c0,0.078,0,0.116,0.043,0.193C217.286,39.886,217.329,39.654,217.414,39.421z M219.153,42.33
	c0-0.736-0.212-2.405-0.678-2.948c-0.424,0.35-0.679,0.815-0.679,1.319c0,0.815,0.551,1.746,1.315,2.133
	C219.111,42.68,219.153,42.486,219.153,42.33z M220.129,46.637c-0.637,1.901-1.358,3.724-2.249,5.547
	c0.891-0.893,2.207-4.499,2.376-5.741C220.172,46.481,220.172,46.559,220.129,46.637z M218.135,49.469
	c0.212-0.388,0.382-0.736,0.467-1.125l-0.085,0.039L218.135,49.469z M218.729,47.762c-0.127,0.155-0.17,0.35-0.127,0.504
	L218.729,47.762z M218.814,47.567c0.043-0.039,0.043-0.078,0.043-0.116L218.814,47.567z M218.899,47.258
	c0,0.038,0,0.116-0.043,0.155c0.043-0.039,0.085-0.116,0.085-0.155H218.899z M219.026,46.792l0.127-0.155h-0.042L219.026,46.792z
	 M219.238,46.326l-0.043-0.077v0.116L219.238,46.326z M220.341,46.016h-0.043v0.155h0.043V46.016z M220.426,45.59h-0.043v0.116
	h0.043V45.59z M222.888,50.282l-2.037,5.663l-0.466,1.552c0.382-0.698,0.637-1.513,0.891-2.289c0.721-2.056,1.528-4.073,2.164-6.167
	C223.142,49.352,223.014,49.895,222.888,50.282z M221.359,58.235c0-0.077-0.043-0.116-0.043-0.193
	c-0.042,0.078-0.042,0.116-0.042,0.193H221.359z M224.075,49.701l-2.079,5.585c-0.297,0.854-0.424,1.784-0.637,2.638l0.085-0.078
	c0.382-1.163,0.679-2.365,1.103-3.53c0.551-1.552,1.358-3.103,1.655-4.733L224.075,49.701z M222.335,58.158
	c0.424-1.94,1.188-3.841,1.91-5.741c0.424-1.164,0.975-2.365,1.103-3.608h-0.085c-1.018,2.599-1.952,5.276-2.843,7.913
	c-0.254,0.776-0.424,1.552-0.424,2.366c0,0.232,0,0.465,0.043,0.697C222.166,59.244,222.208,58.701,222.335,58.158z M222.251,56.334
	v-0.039l-0.043,0.039H222.251z M222.674,54.938l0.043-0.039h-0.043V54.938z M222.76,54.627l0.043,0.039v-0.039H222.76z
	 M222.803,58.351h-0.043c0,0.039,0,0.039,0.043,0.078V58.351z M222.845,54.395l0.043,0.039v-0.039H222.845z M222.888,57.963h-0.043
	v0.078h0.043V57.963z M223.142,57.111h0.043v-0.116h-0.043V57.111z M223.269,56.645h-0.043v0.116h0.043V56.645z M223.439,52.844
	l-0.043,0.039h0.043V52.844z M223.439,56.14c-0.043,0-0.043,0.039-0.043,0.077h0.043V56.14z M223.481,48.809v0.155
	c0.042-0.039,0.042-0.116,0.042-0.155H223.481z M223.522,55.868l-0.042,0.039h0.042V55.868z M223.566,55.597l0.085,0.039
	c0-0.039,0-0.078-0.043-0.116L223.566,55.597z M223.736,55.248h-0.043v0.116h0.043V55.248z M223.991,54.511h-0.043
	c0,0.039,0,0.039,0.043,0.039V54.511z M224.075,51.175l-0.042,0.039h0.042V51.175z M224.075,54.278c-0.042,0-0.042,0-0.042,0.039
	L224.075,54.278z M224.287,49.391h-0.085v0.116L224.287,49.391z M224.244,53.813l0.043-0.039h-0.043V53.813z M224.33,53.58
	c0.043,0,0.043-0.039,0.043-0.078h-0.043V53.58z M224.415,53.309h0.043v-0.077h-0.043V53.309z M224.924,52.067h-0.043v0.078h0.043
	V52.067z M224.966,51.873h0.043v-0.039h-0.043V51.873z M225.051,51.563l0.043,0.039v-0.039H225.051z M225.646,50.05v-0.039
	l-0.043,0.039H225.646z"/>
<path class="st0" d="M228.145,53.406c-0.161,0.322-0.12,1.004-0.12,1.325c0,0.402,0.12,1.928,0.683,1.928
	c0.844,0,1.487-0.562,1.768-1.285l0.04-0.04v0.12c0,0.362-0.322,0.642-0.441,0.964c0.441-0.201,0.522-0.603,0.764-0.964
	c0.04,0.08,0.08,0.161,0.08,0.2c0,0.282-0.241,0.441-0.281,0.683l0.281,0.04l-0.04,0.12l0.081,0.04v-0.038h0.12l-0.04-0.081h0.04
	l0.04-0.161h0.04l0.081-0.161v0.161c0.12-0.12,0.161-0.241,0.161-0.402l0.161-0.201c-0.081,1.165-1.165,1.928-2.29,1.928
	c-2.451,0-3.897-1.687-3.897-4.057c0-1.928,0.804-3.857,1.928-5.424c0.884-1.245,2.129-1.928,3.656-1.928
	c0.362,0,0.723,0.08,1.085,0.161l-0.803-1.487l0.322-0.081c1.607,0.522,2.692,1.848,2.692,3.616
	C234.252,51.317,230.797,53.406,228.145,53.406z M226.86,50.273c-0.04,0-0.04,0-0.04,0.04h0.04V50.273z M227.061,49.67l-0.12,0.2
	l0.081,0.04L227.061,49.67z M227.1,49.589l-0.04,0.04h0.04V49.589z M227.743,48.505l0.12-0.04
	C227.824,48.464,227.783,48.464,227.743,48.505l-0.201,0.322l-0.081,0.12v0.04c-0.081,0.12-0.201,0.242-0.281,0.402
	c0.2-0.08,0.241-0.241,0.281-0.402l0.081-0.161l0.161-0.12C227.702,48.625,227.743,48.585,227.743,48.505z M227.622,51.518
	c-0.04,0.04-0.04,0.12-0.04,0.201h0.04V51.518z M229.109,48.746c-0.562,0.562-1.326,1.687-1.326,2.532
	C228.064,50.392,228.748,49.63,229.109,48.746z M227.783,49.79v0.04c0-0.04,0-0.04,0-0.081V49.79z M227.944,49.428
	c0.04-0.04,0.04-0.081,0.04-0.161C227.944,49.348,227.944,49.388,227.944,49.428z M228.105,49.188h0.04
	c0.04-0.04,0.081-0.12,0.081-0.161C228.186,49.067,228.145,49.188,228.105,49.188z M228.547,51.799
	c1.446-0.161,3.576-2.532,3.576-3.978V47.66C230.315,48.063,228.868,50.031,228.547,51.799z M229.149,48.705l0.161-0.081v-0.04
	l-0.04,0.041C229.189,48.625,229.189,48.665,229.149,48.705z M231.881,49.87c-0.04,0.04-0.04,0.12-0.04,0.161l-0.12,0.081l0.12-0.04
	v-0.04L231.881,49.87z M232.162,49.428l-0.081,0.161v0.04C232.123,49.55,232.162,49.509,232.162,49.428z M232.283,49.188
	c0.04,0,0.081-0.04,0.081-0.081h-0.081V49.188z M232.443,50.795c0.04-0.04,0.081-0.04,0.081-0.081L232.443,50.795z M232.524,49.87
	h0.04l0.04-0.12L232.524,49.87z M232.685,50.674c-0.04,0-0.081,0-0.12,0.04C232.605,50.715,232.645,50.715,232.685,50.674z
	 M232.685,50.634c0.402-0.402,0.643-0.924,0.803-1.446C233.328,49.469,232.685,50.392,232.685,50.634z"/>
<path class="st0" d="M246.345,53.045c-0.884,2.09-2.852,5.665-4.62,7.071c-0.884-0.322-1.527-0.402-1.527-1.527
	c0-2.17,0.482-4.3,0.924-6.429l-1.366,1.406c-0.844,0.884-2.01,2.572-3.416,2.572c-1.004,0-2.49-0.924-2.49-2.049
	c0-2.371,2.532-6.669,4.459-8.035c0.804-0.562,1.808-1.125,2.813-1.125c1.004,0,1.848,0.562,2.572,1.246
	c0.081,0.08,0.161,0.2,0.161,0.322c0,0.081-0.04,0.161-0.081,0.242l-1.165-0.322c-2.893,1.004-4.339,4.259-5.504,6.87l0.081,0.081
	l0.642-0.482l3.857-3.455c0.722-0.642,0.844-1.487,1.768-1.848l0.04,0.402l-0.12,0.04c-0.08,0.161,0,0.12-0.161,0.282l0.12-0.04
	l0.04-0.201l0.12-0.081c0.04-0.081,0.12-0.161,0.242-0.161c0.081,0,0.161,0.081,0.2,0.12l-0.04,0.282l0.161-0.081v-0.04l0.201,0.081
	c-0.322,1.004-0.683,1.968-1.045,2.932l-0.04,0.04c0.04,0,0.04,0,0.04-0.04c0.04-0.04,0.12-0.081,0.12-0.161
	c0.402-0.884,0.722-1.808,1.165-2.651c0.201,0.04,0.362,0.161,0.362,0.362c0,0.281-0.12,0.562-0.201,0.803
	c-0.522,1.446-2.291,6.429-2.291,7.714c0.522-0.322,0.924-0.884,1.326-1.325h0.081c-0.522,0.763-1.246,1.406-1.607,2.25h-0.04v0.04
	c0.04,0,0.04,0,0.04-0.04c0.722-0.722,1.366-1.606,2.009-2.41c0.161-0.2,0.322-0.522,0.522-0.722l0.201-0.201
	c-0.844,1.446-2.17,2.772-2.893,4.259l1.286-1.487l-0.362,0.683l0.282-0.2l0.04,0.161c0.04-0.2,0.241-0.441,0.362-0.642h0.04v-0.042
	l-0.04,0.04h-0.081c0.12-0.322,0.161-0.522,0.441-0.723v0.161l0.081-0.161l0.12-0.081l0.081-0.161
	c0.081-0.322,0.402-0.562,0.522-0.884c0.081-0.2,0.241-0.402,0.362-0.603h-0.04l0.081-0.161h-0.04l0.242-0.442l0.04,0.161
	c0.04-0.2,0.161-0.362,0.241-0.522h-0.04l0.12-0.081c0.081-0.12,0.12-0.241,0.161-0.362v0.04
	C246.024,53.486,246.184,53.286,246.345,53.045z M235.176,51.759c0,0.04-0.04,0.081-0.04,0.12h0.04V51.759z M235.417,51.277
	c0.522-0.884,1.004-1.848,1.567-2.692c0.12-0.161,0.482-0.603,0.482-0.803l-0.081,0.161c-0.562,0.562-1.808,2.732-2.09,3.495
	c-0.04,0.04-0.081,0.12-0.081,0.201l0.081-0.201C235.337,51.397,235.417,51.357,235.417,51.277z M235.819,52.08l0.12-0.281
	c-0.081,0.04-0.081,0.2-0.161,0.281H235.819z M235.899,53.969c-0.04,0.04-0.04,0.12-0.04,0.161h0.04V53.969z M239.234,47.862
	c-1.045,0.643-2.572,3.496-2.974,4.66c-0.161,0.441-0.241,0.924-0.362,1.366c0.081-0.081,0.12-0.161,0.161-0.282
	C236.824,51.598,237.868,49.509,239.234,47.862z M236.06,51.437c0.402-0.763,0.884-1.446,1.325-2.17v-0.081
	C236.863,49.911,236.421,50.594,236.06,51.437z M237.587,47.661l0.12-0.081h-0.04L237.587,47.661z M237.787,48.625h0.081v-0.04
	C237.827,48.625,237.827,48.625,237.787,48.625z M237.988,48.344h0.04v-0.04C237.988,48.304,237.988,48.304,237.988,48.344z
	 M242.006,55.496h0.04v-0.081h-0.04V55.496z M242.167,59.272c-0.04,0-0.081,0.04-0.081,0.081L242.167,59.272z M242.167,54.692
	l0.04,0.081v-0.12L242.167,54.692z M242.487,58.871l-0.281,0.362C242.328,59.111,242.487,59.071,242.487,58.871z M242.368,54.008
	h0.04v-0.2C242.368,53.889,242.368,53.928,242.368,54.008z M242.408,53.647l0.081-0.161h-0.04L242.408,53.647z M242.487,53.447
	c0.201-0.242,0.242-0.522,0.282-0.804C242.649,52.924,242.569,53.165,242.487,53.447z M242.569,58.991c-0.04,0-0.04,0.04-0.081,0.04
	C242.529,59.031,242.569,59.031,242.569,58.991z M242.729,58.709c0-0.081,0.04-0.161,0.04-0.241l-0.242,0.362L242.729,58.709z
	 M242.729,49.148l0.322-0.603C242.93,48.665,242.77,48.946,242.729,49.148z M242.81,58.629l-0.04,0.04
	C242.81,58.669,242.81,58.669,242.81,58.629z M242.85,52.321c-0.04,0.04-0.04,0.081-0.04,0.12L242.85,52.321z M242.971,58.589
	c-0.04,0-0.04,0.04-0.081,0.04h0.081V58.589z M242.971,51.92c-0.04,0.04-0.04,0.12-0.04,0.201l0.04-0.081V51.92z M243.252,58.227
	h-0.04l-0.12,0.081h0.04L243.252,58.227z M243.372,49.067c0,0,0.04,0.081,0.04,0.12l0.161-0.322
	C243.452,48.906,243.372,48.946,243.372,49.067z M243.573,48.826c0.04-0.081,0.04-0.12,0.04-0.201
	C243.573,48.705,243.573,48.746,243.573,48.826z M243.974,57.023c-0.04,0.04-0.04,0.12-0.04,0.161
	C243.974,57.142,243.974,57.062,243.974,57.023z"/>
<path class="st0" d="M256.966,38.533c-0.753,0.917-3.67,1.18-4.849,1.376c-1.18,3.834-1.868,7.799-2.523,11.764
	c-0.328,2.098-0.59,4.259-0.59,6.389c0,0.852,0.131,1.737,0.328,2.556c0.033,0.098,0.033,0.164,0.033,0.262
	c0,0.295-0.426,0.393-0.655,0.393c-0.098,0-0.131-0.098-0.164-0.164l-0.196,0.295c-0.393-0.196-0.819-0.295-1.213-0.492
	c-1.213-0.623-1.213-2.851-1.213-3.998c0-3.441,0.459-6.946,0.983-10.354c0.131-0.786,0.197-1.605,0.36-2.392
	c0.164-0.917,0.393-1.835,0.525-2.753c0.033-0.229,0.131-0.426,0.131-0.655c0-0.164-0.295-0.164-0.393-0.164
	c-0.328,0-0.688,0.033-1.016,0.033l0.033-0.033c-0.328-0.098-0.753-0.426-0.983-0.721l0.033-0.196l-0.295-0.163
	c0.066-0.328,0.131-0.426,0.459-0.524c0.721-0.196,1.475-0.262,2.195-0.426c0.721-0.95,1.376-1.934,1.835-3.048
	c0.36-0.852,0.885-1.671,1.343-2.458c0.13-0.229,0.262-0.426,0.557-0.426l0.393,0.196l-0.23,0.525
	c0.197-0.197,0.328-0.393,0.492-0.59l0.131,0.196l0.262-0.033l-0.163,0.459l0.262-0.229l0.36,0.131v0.328l0.262-0.066
	c0.197,0.163,0.525,0.328,0.525,0.622c0,0.131-1.18,3.507-1.18,3.507c0.23-0.033,0.492,0,0.721-0.066
	c0.558-0.131,1.114-0.131,1.704-0.131c0.688,0,0.852,0.131,1.278,0.688C256.507,38.435,256.769,38.5,256.966,38.533z M246.84,53.507
	h-0.033v0.426h0.033V53.507z M246.971,52.131h-0.033v0.393h0.033V52.131z M247.43,48.887l-0.098-0.033l-0.328,2.72h0.066
	C247.169,50.689,247.299,49.772,247.43,48.887z M249.003,40.433c-0.459,0.721-1.54,6.947-1.54,7.995v0.164
	C247.922,45.872,248.315,43.12,249.003,40.433z M247.529,54.883v-0.328h-0.033v0.328H247.529z M247.529,54.065h0.033v-0.066h-0.033
	V54.065z M247.66,52.754h-0.033l-0.033,0.623h0.033L247.66,52.754z M247.758,51.967h-0.033c0,0.163-0.033,0.295-0.033,0.459h0.066
	L247.758,51.967L247.758,51.967z M247.824,51.41v0.164c0.295-1.901,0.557-3.801,0.917-5.669c0.36-1.901,0.786-3.768,1.18-5.668
	C249.33,40.99,247.824,50.066,247.824,51.41z M250.969,40.105l-0.295,0.033c-0.819,2.687-1.311,5.506-1.769,8.258
	c-0.426,2.818-0.885,5.702-0.885,8.552c0,0.492,0,1.016,0.066,1.507C248.348,52.262,249.397,46.102,250.969,40.105z M248.512,38.402
	v0.066l0.131-0.196C248.578,38.271,248.512,38.336,248.512,38.402z M248.708,55.146h-0.033v0.098h0.033V55.146z M248.807,54.26
	v-0.163c-0.033,0.033-0.033,0.098-0.033,0.163H248.807z M248.937,53.18v-0.099h-0.033v0.098L248.937,53.18L248.937,53.18z
	 M249.036,52.295h-0.033v0.131h0.033V52.295z M249.134,51.607h-0.033v0.131L249.134,51.607z M249.233,51.116
	c-0.033-0.033-0.033-0.098-0.033-0.131h-0.033c0,0.033,0,0.098,0.033,0.131H249.233z M249.298,50.329h-0.033v0.229h0.033V50.329z
	 M249.397,49.772h-0.033v0.131h0.033V49.772z M249.429,43.972v0.098h0.033v-0.098H249.429z M249.495,49.378v-0.262h-0.033v0.262
	H249.495z M249.528,43.546c0,0.066,0,0.098-0.033,0.164h0.033l0.033-0.164H249.528z M249.593,48.822v-0.196h-0.066v0.196H249.593
	L249.593,48.822z M249.593,43.284h0.033v-0.066L249.593,43.284z M249.691,48.298c0-0.066,0-0.098-0.032-0.164h-0.033v0.164H249.691z
	 M249.691,42.793v0.098h0.033v-0.098H249.691z M249.757,47.74v-0.131h-0.033v0.131H249.757z M249.855,47.347v-0.23h-0.033
	l-0.033,0.23H249.855z M249.888,42.071l-0.066,0.098h0.066V42.071z M249.855,37.746l0.033-0.033
	C249.855,37.714,249.855,37.714,249.855,37.746z M249.954,46.856c0-0.066,0-0.131-0.033-0.196h-0.033v0.196H249.954z
	 M249.921,41.777l0.033,0.033l0.066-0.131L249.921,41.777z M250.019,46.168h-0.033v0.262h0.033V46.168z M250.117,45.971v-0.229
	h-0.032l-0.033,0.196C250.085,45.971,250.085,45.971,250.117,45.971z M250.085,41.285l0.065-0.163l-0.065-0.033V41.285z
	 M250.183,45.316h-0.033v0.229h0.033V45.316z M250.183,40.793v0.065c0.033-0.033,0.033-0.033,0.033-0.065H250.183z M250.28,45.085
	v-0.196h-0.033v0.196H250.28z M250.38,44.497l-0.066,0.163l0.066,0.033V44.497z M250.51,44.103c-0.066,0-0.13,0.065-0.13,0.131
	s0.033,0.098,0.033,0.164L250.51,44.103z M250.478,43.906c0,0.066,0.033,0.098,0.033,0.164l0.098-0.328
	C250.543,43.775,250.478,43.808,250.478,43.906z M250.576,38.074c0.262-0.262,0.295-0.622,0.361-0.95
	C250.674,37.385,250.642,37.746,250.576,38.074z M250.609,43.71c0-0.098,0.033-0.197,0.033-0.295h-0.066
	C250.576,43.513,250.576,43.612,250.609,43.71z M250.707,43.218v-0.164c-0.033,0.066-0.066,0.098-0.066,0.164H250.707z
	 M250.74,42.858c-0.033,0.033-0.033,0.065-0.033,0.098l0.033-0.033V42.858z M250.806,42.629l0.033-0.098
	C250.806,42.563,250.806,42.596,250.806,42.629z M250.903,42.235l-0.033,0.033c0,0.098-0.033,0.164-0.033,0.262l0.066-0.262
	L250.903,42.235L250.903,42.235z M251.067,41.711c-0.163,0.131-0.163,0.328-0.163,0.525
	C250.969,42.071,251.035,41.875,251.067,41.711z M250.969,37.059c-0.032,0.033-0.032,0.033-0.032,0.066
	C250.936,37.091,250.969,37.091,250.969,37.059z M251.231,41.121c-0.098,0.098-0.164,0.229-0.164,0.36c0,0.066,0,0.131,0.033,0.196
	C251.133,41.482,251.166,41.318,251.231,41.121z M251.067,41.711h0.033v-0.033L251.067,41.711z M251.133,34.699
	c0.033-0.033,0.033-0.033,0.033-0.066C251.166,34.666,251.133,34.666,251.133,34.699z M251.231,34.404l-0.066,0.163
	C251.198,34.535,251.231,34.469,251.231,34.404z M251.297,34.273l-0.066,0.131C251.264,34.371,251.297,34.306,251.297,34.273z
	 M251.231,40.99l0.098-0.229V40.63C251.264,40.761,251.264,40.859,251.231,40.99z M251.493,40.171V40.04l-0.131,0.36
	C251.461,40.368,251.493,40.269,251.493,40.171z M252.673,35.092c-0.098,0.163-0.229,0.295-0.328,0.426
	c-0.163,0.295-0.917,2.162-0.917,2.425h0.066c0.164,0,0.23-0.131,0.262-0.262C252.083,36.829,252.345,35.976,252.673,35.092z
	 M251.625,33.814c-0.033,0.033-0.066,0.098-0.066,0.131C251.591,33.912,251.625,33.847,251.625,33.814z M251.591,35.387l0.098-0.066
	h-0.098V35.387z M251.788,33.454c-0.065,0.131-0.131,0.229-0.163,0.36l0.163-0.295V33.454z"/>
<path class="st0" d="M262.898,49.509l0.322-0.322l-0.04,0.241l0.12-0.241h-0.08l0.08-0.12v0.12l0.081-0.161h0.04l0.161-0.281
	l0.081,0.04c-0.723,1.848-1.968,3.576-3.013,5.263c-0.603,0.964-1.165,1.969-1.808,2.893c-0.803,1.165-2.09,2.932-3.013,3.937
	c-0.242,0.242-0.482,0.282-0.804,0.282c-1.165,0-2.009-0.643-2.009-1.848c0-2.17,0.522-4.459,1.085-6.509
	c0.441-1.607,0.844-3.214,0.964-4.861v-0.161c0-0.201-0.12-0.402-0.12-0.603c0-0.161,0.241-0.242,0.362-0.282
	c1.768,0.242,3.214,1.165,3.214,3.094c0,1.527-0.522,2.893-0.964,4.339l-0.884,2.973c0,0.04-0.04,0.04-0.04,0.081
	c0,0,0.04,0.081,0.04,0.12c1.125-1.407,2.09-2.974,3.094-4.46c0.603-0.884,1.326-1.687,1.968-2.532
	c0.362-0.441,0.603-1.045,1.045-1.446l-0.2,0.362l0.281-0.322c-0.643,1.085-1.446,2.09-1.968,3.254
	c0.282-0.322,0.562-0.643,0.764-1.004c0.402-0.683,0.683-1.527,1.285-2.09L262.898,49.509z M255.023,59.473
	c0.603-2.33,1.286-4.66,1.929-6.991c-0.482,0.844-0.603,1.808-0.884,2.732c-0.402,1.406-0.924,2.813-1.125,4.259H255.023z
	 M257.715,40.911l0.201,0.04v0.281c0.12-0.04,0.2-0.12,0.281-0.201l0.402,0.201l-0.081,0.281L259,41.594v0.402l0.2-0.04
	c0.242,0.161,0.402,0.402,0.402,0.683c0,0.964-0.442,1.808-0.442,2.772c0,0.522,0.161,1.085,0.161,1.607
	c-0.12,0.081-0.241,0.12-0.362,0.12c-0.282,0-0.482-0.242-0.764-0.201c-0.964-0.563-1.808-2.371-1.808-3.495
	c0-0.603,0.441-2.692,1.205-2.692L257.715,40.911z M256.872,57.906c1.607-2.371,3.214-4.741,4.861-7.111
	c-0.642,0.683-1.325,1.366-1.768,2.129c-0.683,1.125-1.446,2.209-2.129,3.335c-0.441,0.683-1.004,1.286-1.366,2.009
	C256.591,58.147,256.791,58.027,256.872,57.906z M256.992,52.04v0.242c0.04-0.04,0.04-0.161,0.08-0.242H256.992z M258.358,56.581
	c-0.201,0.04-0.281,0.242-0.362,0.402L258.358,56.581z M258.84,55.897c-0.201,0.04-0.362,0.12-0.362,0.362v0.081L258.84,55.897z
	 M260.165,54.21c0.12-0.201,0.242-0.402,0.322-0.643c-0.12,0.282-0.322,0.522-0.482,0.764L260.165,54.21z M261.05,53.045l0.12-0.12
	c-0.04,0-0.081,0-0.12-0.04c0.12-0.201,0.2-0.402,0.281-0.603l-0.482,0.683l0.201-0.08V53.045L261.05,53.045z M261.813,51.638
	l0.12-0.201v-0.161c-0.161,0.2-0.281,0.402-0.362,0.603l0.161-0.081L261.813,51.638c0.04,0.04,0.04,0.12,0.04,0.161
	c0.04-0.04,0.04-0.12,0.04-0.161H261.813z M261.853,51.799h-0.081c-0.04,0.04-0.04,0.081-0.04,0.12L261.853,51.799z M261.933,51.478
	v0.081c0.04-0.04,0.04-0.04,0.04-0.081H261.933z M262.254,50.955c0-0.161,0.081-0.281,0.081-0.441l-0.362,0.683l0.161-0.081v0.12
	l0.08-0.12h-0.08L262.254,50.955z M262.254,50.955v0.12l0.081-0.12c0-0.04,0-0.12,0.04-0.161h-0.04c0,0.04-0.04,0.12,0,0.161
	H262.254z M262.938,49.63l-0.04,0.161l-0.161,0.04c0.081-0.081,0.161-0.201,0.161-0.322L262.938,49.63z M263.019,49.75l-0.081,0.04
	l-0.04,0.12L263.019,49.75z M263.139,48.705l0.081,0.04c-0.04,0.2-0.161,0.362-0.282,0.522
	C263.019,49.067,263.099,48.906,263.139,48.705z M263.3,49.067v-0.081h0.04v0.04L263.3,49.067z M263.38,48.866v0.12h-0.04
	L263.38,48.866z M263.38,49.027v-0.04h0.04L263.38,49.027z"/>
<path class="st0" d="M271.898,37.134l0.362,0.322c1.728,0.322,2.33,3.335,2.33,4.781c0,4.581-3.816,11.773-6.991,14.986
	c-0.562,0.562-1.206,0.723-1.968,0.723c-1.004,0-2.09-0.683-2.651-1.487c-0.362-0.522-0.402-1.004-0.402-1.607
	c0-2.732,0.441-5.464,0.441-8.196c0-0.683-0.081-1.286-0.281-1.929c0.12-0.08,0.241-0.12,0.362-0.12
	c0.683,0,1.727,0.844,2.049,1.446c0.362,0.722,0.362,1.969,0.362,2.773c0,1.687-0.201,3.415-0.201,5.103c0,0.2,0,0.362,0.081,0.562
	c3.174-3.615,6.469-9.241,6.469-14.182c0-1.045-0.04-2.09-0.04-3.134L271.898,37.134z M267.598,55.696l0.12-0.081v-0.04
	L267.598,55.696z M269.246,53.286c-0.441,0.683-1.085,1.366-1.366,2.17c2.049-2.651,3.736-5.464,4.902-8.598
	c0.201-0.523,0.281-0.683,0.281-1.246C272.058,48.304,270.812,50.875,269.246,53.286z M268.04,52.442
	c1.286-1.527,2.21-3.375,2.893-5.222C270.33,48.505,268.844,51.397,268.04,52.442z M269.205,52c0.322-0.081,0.322-0.402,0.482-0.642
	c0.16-0.242,0.362-0.442,0.482-0.723c0.402-0.803,0.803-1.607,1.165-2.41C270.652,49.469,270.088,50.835,269.205,52z
	 M270.611,52.362l-0.04-0.04v0.04H270.611z M271.133,46.818l-0.04,0.04h0.04V46.818z M271.214,46.616v-0.04h-0.04v0.04H271.214z
	 M271.214,51.277c-0.04,0-0.04,0-0.04,0.04h0.04V51.277z M271.254,51.116l0.04,0.04v-0.04H271.254z M271.817,50.152h-0.04
	c0,0.04,0,0.04,0.04,0.04V50.152z M273.263,45.21h-0.081c0,0.08,0,0.12-0.04,0.2L273.263,45.21z"/>
<path class="st0" d="M276.558,53.406c-0.16,0.322-0.12,1.004-0.12,1.325c0,0.402,0.12,1.928,0.683,1.928
	c0.844,0,1.487-0.562,1.768-1.285l0.04-0.04v0.12c0,0.362-0.322,0.642-0.441,0.964c0.441-0.201,0.522-0.603,0.764-0.964
	c0.04,0.08,0.08,0.161,0.08,0.2c0,0.282-0.241,0.441-0.281,0.683l0.281,0.04l-0.04,0.12l0.081,0.04v-0.038h0.12l-0.04-0.081h0.04
	l0.04-0.161h0.04l0.081-0.161v0.161c0.12-0.12,0.161-0.241,0.161-0.402l0.161-0.201c-0.081,1.165-1.165,1.928-2.29,1.928
	c-2.451,0-3.897-1.687-3.897-4.057c0-1.928,0.804-3.857,1.928-5.424c0.884-1.245,2.129-1.928,3.656-1.928
	c0.362,0,0.723,0.08,1.085,0.161l-0.803-1.487l0.322-0.081c1.607,0.522,2.692,1.848,2.692,3.616
	C282.665,51.317,279.21,53.406,276.558,53.406z M275.272,50.273c-0.04,0-0.04,0-0.04,0.04h0.04V50.273z M275.473,49.67l-0.12,0.2
	l0.081,0.04L275.473,49.67z M275.513,49.589l-0.04,0.04h0.04V49.589z M276.156,48.505l0.12-0.04
	C276.236,48.464,276.196,48.464,276.156,48.505l-0.201,0.322l-0.081,0.12v0.04c-0.081,0.12-0.201,0.242-0.281,0.402
	c0.2-0.08,0.241-0.241,0.281-0.402l0.081-0.161l0.161-0.12C276.116,48.625,276.156,48.585,276.156,48.505z M276.036,51.518
	c-0.04,0.04-0.04,0.12-0.04,0.201h0.04V51.518z M277.522,48.746c-0.562,0.562-1.326,1.687-1.326,2.532
	C276.477,50.392,277.16,49.63,277.522,48.746z M276.196,49.79v0.04c0-0.04,0-0.04,0-0.081V49.79z M276.357,49.428
	c0.04-0.04,0.04-0.081,0.04-0.161C276.357,49.348,276.357,49.388,276.357,49.428z M276.517,49.188h0.04
	c0.04-0.04,0.081-0.12,0.081-0.161C276.598,49.067,276.558,49.188,276.517,49.188z M276.959,51.799
	c1.446-0.161,3.576-2.532,3.576-3.978V47.66C278.727,48.063,277.28,50.031,276.959,51.799z M277.562,48.705l0.161-0.081v-0.04
	l-0.04,0.04C277.602,48.625,277.602,48.665,277.562,48.705z M280.294,49.87c-0.04,0.04-0.04,0.12-0.04,0.161l-0.12,0.081l0.12-0.04
	v-0.04L280.294,49.87z M280.575,49.428l-0.081,0.161v0.04C280.535,49.55,280.575,49.509,280.575,49.428z M280.696,49.188
	c0.04,0,0.081-0.04,0.081-0.081h-0.081V49.188z M280.857,50.795c0.04-0.04,0.081-0.04,0.081-0.081L280.857,50.795z M280.937,49.87
	h0.04l0.04-0.12L280.937,49.87z M281.098,50.674c-0.04,0-0.081,0-0.12,0.04C281.017,50.715,281.058,50.715,281.098,50.674z
	 M281.098,50.634c0.402-0.402,0.643-0.924,0.803-1.446C281.741,49.469,281.098,50.392,281.098,50.634z"/>
</svg>
