<?xml version="1.0" encoding="utf-8"?>
<!-- Generator: Adobe Illustrator 21.1.0, SVG Export Plug-In . SVG Version: 6.00 Build 0)  -->
<svg version="1.1" id="Layer_1" xmlns="http://www.w3.org/2000/svg" xmlns:xlink="http://www.w3.org/1999/xlink" x="0px" y="0px"
	 viewBox="0 0 25 35" style="enable-background:new 0 0 25 35;" xml:space="preserve">
<style type="text/css">
	.st0{fill:#FDCD7F;}
	.st1{fill:#C29A5D;}
	.st2{fill:#1F201E;}
</style>
<g id="MmCMtJ_1_">
	<g>
		<path class="st0" d="M15.273,14.126c-0.113,0.055-0.295,0.007-0.416,0.024c-0.546,0.074-1.021-0.104-1.572-0.111
			c-0.393-0.007-0.781-0.049-1.17-0.104c-0.243-0.035-0.488-0.028-0.73-0.028c-0.025-0.183-0.065-0.365-0.074-0.548
			c-0.023-0.485-0.005-0.971,0-1.456c0.046-0.016,0.03-0.058,0.03-0.088c0.002-0.312,0.002-0.624,0.002-0.938
			c0-0.042,0.002-0.072,0.051-0.104c0.298-0.208,0.638-0.321,0.985-0.411c0.22-0.058,0.444-0.092,0.668-0.129
			c0.053-0.009,0.102-0.018,0.141-0.06c0.051-0.018,0.102-0.037,0.153-0.055c0.113-0.044,0.201-0.127,0.206-0.27
			c0.007-0.176-0.166-0.34-0.321-0.393c-0.236-0.083-0.483-0.127-0.719-0.21c-0.18-0.065-0.368-0.097-0.552-0.139
			c-0.255-0.058-0.51-0.095-0.768-0.037c-0.047,0.009-0.065,0.005-0.072-0.048c-0.032-0.278-0.069-0.557-0.102-0.835
			c-0.005-0.035,0-0.065,0.021-0.095c0.049-0.064,0.097-0.131,0.141-0.201c0.079-0.125,0.146-0.254,0.178-0.4
			c0.032-0.153-0.044-0.24-0.199-0.227c-0.039,0.005-0.079,0.018-0.12,0.002c0.046-0.207,0.085-0.413,0.157-0.614
			c0.16-0.439,0.419-0.804,0.779-1.1c0.127-0.104,0.259-0.201,0.398-0.289c0.055-0.034,0.092-0.088,0.051-0.145
			c-0.155-0.21-0.307-0.421-0.594-0.462c-0.068-0.01-0.125-0.042-0.204-0.089c0.275-0.065,0.485,0.012,0.668,0.18
			c0.102,0.092,0.187,0.199,0.266,0.312c0.03,0.042,0.069,0.051,0.113,0.039c0.046-0.01,0.037-0.05,0.039-0.082
			c0.005-0.12-0.039-0.231-0.09-0.335c-0.127-0.264-0.337-0.467-0.506-0.701c-0.009-0.03-0.014-0.062-0.051-0.071
			c0.002-0.012,0.007-0.023,0.009-0.035c0.007-0.007,0.016-0.014,0.023-0.018c0.005,0.002,0.012,0.004,0.019,0.002
			c0.025,0.018,0.051,0.037,0.086,0.035c0.002,0.025,0.02,0.034,0.037,0.046c0.208,0.15,0.37,0.342,0.483,0.573
			c0.074,0.148,0.136,0.3,0.183,0.46c0.022,0.083,0.08,0.113,0.131,0.076c0.035-0.025,0.051-0.065,0.055-0.104
			c0.025-0.146,0.051-0.291,0.065-0.439c0.016-0.157,0.058-0.31,0.155-0.451c0.009,0.047,0.016,0.084,0.026,0.118
			c0.064,0.296,0.053,0.59-0.035,0.879c-0.021,0.072,0.005,0.111,0.072,0.12c0.233,0.035,0.462,0.081,0.68,0.178
			c-0.007,0.016-0.005,0.03,0.009,0.042c0.224,0.171,0.386,0.393,0.525,0.631c0.078,0.136,0.145,0.277,0.186,0.427
			c0.016,0.058,0.19,0.821,0.201,0.876c0.025,0.148,0.053,0.298,0.067,0.446c0.021,0.197,0.047,0.393,0.07,0.587
			c0.055,0.439,0.074,0.878,0.097,1.318c0.021,0.393,0.009,0.786,0.002,1.179c-0.002,0.086,0.007,0.176-0.035,0.259
			c-0.037,0.025-0.039,0.067-0.046,0.106c-0.044,0.231-0.016,0.462,0.007,0.693c0.014,0.125,0.051,0.245,0.12,0.356
			c0.058,0.092,0.118,0.187,0.146,0.296c0.007,0.028,0.028,0.062-0.03,0.06c-0.076,0-0.083,0.035-0.058,0.102
			c0.03,0.076,0.065,0.153,0.069,0.238c0.002,0.067-0.03,0.095-0.092,0.099c-0.055,0.005-0.118-0.044-0.166,0.009
			c-0.046,0.053,0.007,0.111,0.007,0.169c0,0.074-0.025,0.118-0.102,0.099c-0.076-0.018-0.155-0.037-0.227-0.072
			c-0.222-0.113-0.377-0.294-0.511-0.499c-0.185-0.282-0.314-0.592-0.411-0.913c-0.079-0.259-0.134-0.525-0.136-0.8
			c0-0.03-0.009-0.053-0.046-0.055s-0.058,0.016-0.065,0.051c-0.002,0.018-0.002,0.037-0.002,0.055
			c0.021,0.409,0.127,0.8,0.282,1.177c0.062,0.153,0.134,0.3,0.201,0.448c0.079,0.275,0.208,0.527,0.421,0.721
			c0.146,0.132,0.319,0.206,0.525,0.153c0.159-0.042,0.183-0.023,0.19,0.148c0.002,0.037,0.002,0.074,0,0.111
			C15.248,13.9,15.243,14.115,15.273,14.126z M11.311,8.246c0,0.035-0.002,0.067,0,0.102c0.005,0.055,0.035,0.095,0.092,0.092
			c0.059-0.002,0.077-0.041,0.072-0.094c-0.002-0.035-0.002-0.067-0.002-0.102c0.002-0.072,0-0.162-0.09-0.159
			C11.291,8.084,11.307,8.177,11.311,8.246z M12.321,8.209c0.002,0.035,0.007,0.076,0.012,0.12c0.005,0.054,0.037,0.077,0.088,0.074
			c0.051,0,0.069-0.037,0.069-0.081c0-0.065-0.005-0.129-0.005-0.194c0-0.042-0.016-0.065-0.055-0.072
			c-0.039-0.007-0.072,0.005-0.092,0.045C12.317,8.133,12.324,8.168,12.321,8.209z M11.857,11.623
			c-0.025,0.009-0.046,0.016-0.046,0.049c-0.002,0.081,0.002,0.159,0.028,0.236c0.012,0.032,0.03,0.055,0.067,0.046
			c0.042-0.009,0.055-0.044,0.042-0.076c-0.025-0.062-0.023-0.125-0.028-0.19C11.917,11.646,11.892,11.63,11.857,11.623z
			 M12.176,11.778c0-0.018,0-0.037,0-0.055c0.002-0.042-0.009-0.079-0.055-0.081s-0.06,0.035-0.06,0.074
			c0,0.046-0.002,0.092,0.002,0.139c0.002,0.03,0.025,0.046,0.058,0.046c0.035,0,0.051-0.018,0.053-0.049
			C12.178,11.829,12.176,11.804,12.176,11.778z M12.365,11.843c0.005,0.021-0.007,0.053,0.028,0.058
			c0.028,0.005,0.058,0.009,0.072-0.025c0.021-0.058,0.044-0.113,0.058-0.173c0.007-0.025-0.014-0.046-0.039-0.055
			c-0.023-0.007-0.046-0.007-0.06,0.023C12.395,11.723,12.372,11.78,12.365,11.843z"/>
		<path class="st1" d="M15.233,14.134c-0.032-0.012,0.014-0.234,0.014-0.264c0.002-0.037,0-0.074,0-0.111
			c-0.007-0.171-0.028-0.19-0.19-0.148c-0.206,0.053-0.379-0.021-0.525-0.153c-0.213-0.194-0.342-0.444-0.421-0.721
			c0.069,0.053,0.099,0.134,0.148,0.201c0.173,0.236,0.379,0.425,0.67,0.506c0.171,0.049,0.333,0.002,0.31-0.215
			c-0.003-0.05,0.018-0.052,0.06-0.052c0.113,0,0.183-0.069,0.19-0.183c0.005-0.06,0-0.12-0.025-0.173
			c-0.023-0.051-0.03-0.083,0.023-0.12c0.046-0.032,0.049-0.088,0.03-0.134c-0.021-0.058-0.037-0.116-0.065-0.171
			c-0.069-0.136-0.162-0.261-0.187-0.416c-0.042-0.259-0.083-0.52-0.021-0.781c0.014-0.06-0.012-0.088-0.072-0.083
			c0.042-0.081,0.032-0.173,0.035-0.259c0.007-0.393,0.021-0.788-0.002-1.179c-0.024-0.44-0.043-0.882-0.098-1.318
			c-0.026-0.195-0.051-0.391-0.07-0.588c-0.013-0.15-0.041-0.298-0.067-0.448c-0.009-0.055-0.185-0.818-0.201-0.876
			c-0.044-0.153-0.108-0.294-0.187-0.428c-0.139-0.24-0.3-0.462-0.525-0.631c-0.014-0.011-0.016-0.025-0.009-0.041
			c0.06,0.028,0.123,0.053,0.185,0.081c0.432,0.208,0.7,0.557,0.871,0.996c0.111,0.282,0.183,0.573,0.238,0.871
			c0.054,0.285,0.105,0.571,0.146,0.858c0.049,0.335,0.088,0.673,0.129,1.01c0.032,0.245,0.065,0.49,0.095,0.735
			c0.044,0.347,0.083,0.693,0.127,1.04c0.03,0.233,0.072,0.465,0.095,0.698c0.039,0.372,0.092,0.742,0.127,1.114
			c0.035,0.368,0.055,0.733,0.042,1.103C15.83,13.879,15.506,14.106,15.233,14.134z"/>
		<path class="st2" d="M13.893,1.763c0.194-0.007,0.31,0.088,0.358,0.231c0.042,0.127-0.021,0.289-0.146,0.388
			c-0.09,0.072-0.199,0.127-0.233,0.257c-0.011,0.046-0.062,0.023-0.097,0.02c-0.034-0.002-0.044-0.03-0.034-0.062
			c0.018-0.067,0.035-0.132,0.09-0.185c0.06-0.058,0.127-0.109,0.162-0.192c0.03-0.072,0.035-0.136-0.012-0.199
			c-0.042-0.06-0.109-0.062-0.173-0.053c-0.028,0.005-0.056,0.023-0.081,0.017c-0.037-0.01-0.076,0.074-0.097,0.004
			c-0.016-0.058-0.021-0.129,0.046-0.171C13.75,1.772,13.829,1.758,13.893,1.763z"/>
		<path class="st2" d="M10.193,3.894c-0.005-0.079,0.009-0.155-0.037-0.231c-0.06-0.102-0.22-0.111-0.294-0.005
			C9.846,3.681,9.839,3.711,9.82,3.73C9.797,3.753,9.816,3.831,9.765,3.801C9.719,3.776,9.661,3.725,9.67,3.658
			c0.018-0.134,0.201-0.305,0.34-0.324c0.148-0.021,0.333,0.12,0.351,0.27c0.012,0.083,0.009,0.169-0.009,0.25
			c-0.016,0.079-0.023,0.153,0.012,0.227c0.028,0.053-0.007,0.074-0.051,0.097c-0.049,0.028-0.051-0.016-0.07-0.037
			C10.176,4.069,10.193,3.979,10.193,3.894z"/>
		<path class="st2" d="M15.463,3.734c0.002,0.109-0.104,0.25-0.247,0.259c-0.088,0.005-0.178,0-0.252,0.062
			c-0.028,0.023-0.06,0.005-0.079-0.016c-0.021-0.023-0.005-0.046,0.016-0.071c0.049-0.053,0.113-0.069,0.18-0.083
			c0.037-0.007,0.076-0.012,0.106-0.03c0.06-0.035,0.099-0.086,0.081-0.159c-0.016-0.07-0.073-0.089-0.134-0.107
			c-0.027-0.007-0.083,0.014-0.073-0.037c0.007-0.042,0.042-0.095,0.09-0.092C15.312,3.471,15.456,3.573,15.463,3.734z"/>
		<path class="st2" d="M11.596,2.516c-0.035-0.136,0.025-0.219,0.173-0.245c0.12-0.021,0.25,0.062,0.264,0.171
			c0.016,0.095,0.005,0.183-0.06,0.259c-0.045,0.051-0.077,0.102-0.077,0.171c0,0.032-0.021,0.049-0.053,0.051
			c-0.044,0.002-0.042-0.032-0.049-0.055c-0.011-0.051,0.012-0.098,0.028-0.144c0.002-0.009,0.012-0.014,0.016-0.023
			c0.06-0.106,0.067-0.201,0.007-0.245c-0.079-0.06-0.148-0.012-0.213,0.039C11.623,2.502,11.612,2.507,11.596,2.516z"/>
		<path class="st2" d="M9.273,8.047c0.009-0.159,0.083-0.294,0.178-0.414C9.469,7.61,9.495,7.594,9.523,7.617
			c0.03,0.023,0.035,0.051,0.014,0.081c-0.088,0.116-0.153,0.24-0.159,0.391c0,0.03-0.032,0.044-0.062,0.037
			C9.282,8.121,9.27,8.098,9.273,8.047z"/>
		<path class="st2" d="M9.467,8.145C9.481,8.05,9.504,7.96,9.553,7.877C9.576,7.835,9.608,7.815,9.65,7.835
			c0.053,0.025,0.018,0.06,0.002,0.092c-0.035,0.07-0.074,0.139-0.074,0.224c0,0.042-0.009,0.088-0.062,0.083
			C9.46,8.232,9.465,8.186,9.467,8.145z"/>
		
			<ellipse transform="matrix(0.0672 -0.9977 0.9977 0.0672 10.0081 16.4438)" class="st2" cx="13.798" cy="2.869" rx="0.12" ry="0.113"/>
		<path class="st2" d="M10.359,4.298c-0.005-0.069,0.042-0.097,0.109-0.097c0.074,0,0.111,0.042,0.116,0.113
			c0.002,0.051-0.07,0.123-0.119,0.114C10.396,4.416,10.357,4.377,10.359,4.298z"/>
		
			<ellipse transform="matrix(0.036 -0.9994 0.9994 0.036 10.1069 18.8344)" class="st2" cx="14.816" cy="4.178" rx="0.088" ry="0.088"/>
		
			<ellipse transform="matrix(0.0442 -0.999 0.999 0.0442 8.3148 14.798)" class="st2" cx="11.891" cy="3.054" rx="0.083" ry="0.081"/>
		<path class="st2" d="M15.174,11.115c0.062-0.005,0.086,0.023,0.072,0.083c-0.062,0.264-0.021,0.522,0.021,0.781
			c0.025,0.155,0.118,0.28,0.187,0.416c0.028,0.055,0.044,0.113,0.065,0.171c0.016,0.049,0.014,0.104-0.03,0.134
			c-0.051,0.037-0.046,0.072-0.023,0.12c0.025,0.053,0.03,0.113,0.025,0.173c-0.008,0.114-0.077,0.184-0.19,0.184
			c-0.042,0-0.062,0.002-0.058,0.053c0.023,0.215-0.139,0.264-0.31,0.215c-0.289-0.081-0.497-0.27-0.67-0.506
			c-0.049-0.067-0.081-0.148-0.148-0.201c-0.067-0.15-0.139-0.298-0.201-0.448c-0.155-0.377-0.264-0.767-0.282-1.177
			c0-0.018-0.002-0.037,0.002-0.055c0.007-0.035,0.028-0.053,0.065-0.051c0.037,0.002,0.046,0.025,0.046,0.055
			c0.002,0.273,0.058,0.539,0.136,0.8c0.097,0.321,0.224,0.631,0.411,0.913c0.134,0.203,0.287,0.386,0.511,0.499
			c0.072,0.037,0.15,0.055,0.227,0.072c0.079,0.018,0.102-0.025,0.102-0.099c0-0.055-0.053-0.116-0.007-0.169
			c0.049-0.055,0.111-0.005,0.166-0.009c0.062-0.007,0.095-0.035,0.092-0.099c-0.002-0.086-0.039-0.162-0.069-0.238
			c-0.025-0.067-0.018-0.104,0.058-0.102c0.06,0,0.037-0.035,0.03-0.06c-0.028-0.109-0.088-0.203-0.146-0.296
			c-0.069-0.111-0.109-0.231-0.12-0.356c-0.023-0.231-0.051-0.462-0.007-0.693C15.134,11.182,15.137,11.14,15.174,11.115z"/>
		<path class="st1" d="M11.314,11.901c-0.009-0.18,0.007-0.358,0.007-0.539c0-0.296-0.005-0.594-0.012-0.89
			c0-0.051,0-0.079,0.067-0.088c0.296-0.046,0.594-0.074,0.892-0.106c0.254-0.028,0.509-0.065,0.763-0.097
			c0.053-0.007,0.104-0.016,0.157-0.012c-0.042,0.042-0.088,0.051-0.141,0.06c-0.224,0.037-0.448,0.072-0.668,0.129
			c-0.347,0.09-0.684,0.203-0.985,0.411c-0.046,0.032-0.049,0.062-0.051,0.104c0,0.312,0,0.624-0.002,0.938
			C11.341,11.845,11.36,11.884,11.314,11.901z"/>
		<path class="st2" d="M11.311,8.246c-0.004-0.069-0.02-0.162,0.074-0.162c0.09-0.002,0.092,0.088,0.09,0.159
			c0,0.035,0,0.067,0.002,0.102c0.003,0.054-0.015,0.093-0.071,0.095c-0.058,0.003-0.088-0.037-0.092-0.092
			C11.309,8.313,11.311,8.281,11.311,8.246z"/>
		<path class="st2" d="M12.321,8.209c0.002-0.044-0.005-0.076,0.014-0.109c0.021-0.039,0.053-0.05,0.093-0.043
			c0.039,0.007,0.055,0.03,0.055,0.072c0,0.065,0.005,0.129,0.005,0.194c0,0.044-0.016,0.081-0.069,0.081
			c-0.049,0-0.083-0.021-0.088-0.074C12.331,8.288,12.326,8.244,12.321,8.209z"/>
		<path class="st2" d="M11.857,11.623c0.035,0.007,0.062,0.023,0.062,0.065c0.002,0.065,0,0.127,0.028,0.19
			c0.014,0.035-0.002,0.067-0.042,0.076c-0.037,0.009-0.058-0.014-0.067-0.046c-0.025-0.076-0.032-0.155-0.028-0.236
			C11.811,11.639,11.831,11.633,11.857,11.623z"/>
		<path class="st2" d="M12.176,11.778c0,0.025,0.002,0.049,0,0.074c-0.002,0.03-0.018,0.049-0.053,0.049s-0.055-0.016-0.058-0.046
			c-0.005-0.046-0.002-0.092-0.002-0.139c0-0.042,0.014-0.076,0.06-0.074c0.044,0.002,0.055,0.039,0.055,0.081
			C12.176,11.741,12.176,11.76,12.176,11.778z"/>
		<path class="st2" d="M12.365,11.843c0.007-0.062,0.032-0.118,0.06-0.173c0.014-0.03,0.039-0.03,0.06-0.023
			c0.023,0.007,0.046,0.03,0.039,0.055c-0.016,0.058-0.037,0.116-0.058,0.173c-0.014,0.035-0.044,0.03-0.072,0.025
			C12.356,11.894,12.368,11.864,12.365,11.843z"/>
		<path class="st2" d="M16.225,12.777c-0.028-0.268-0.055-0.534-0.088-0.802c-0.025-0.201-0.053-0.405-0.081-0.606
			c-0.049-0.34-0.081-0.68-0.123-1.022c-0.044-0.356-0.09-0.712-0.136-1.066c-0.035-0.27-0.067-0.539-0.104-0.809
			c-0.027-0.198-0.055-0.397-0.085-0.596c-0.037-0.249-0.081-0.499-0.134-0.746c-0.039-0.19-0.088-0.377-0.148-0.562
			c-0.101-0.307-0.229-0.603-0.446-0.85c-0.351-0.396-0.806-0.592-1.315-0.678c-0.109-0.018-0.088-0.071-0.074-0.129
			c0.06-0.24,0.044-0.478,0.012-0.719c-0.012-0.081-0.018-0.164-0.06-0.24c-0.06-0.106-0.15-0.12-0.238-0.037
			c-0.098,0.094-0.132,0.217-0.165,0.342c-0.037,0.131-0.062,0.263-0.057,0.425c-0.028-0.039-0.042-0.053-0.049-0.069
			c-0.06-0.155-0.129-0.307-0.229-0.439c-0.127-0.172-0.275-0.322-0.469-0.424c-0.067-0.05-0.146-0.076-0.231-0.083
			c-0.113-0.011-0.141,0.021-0.132,0.139c-0.016,0.06,0.035,0.099,0.053,0.148c0.002,0.037,0.012,0.067,0.053,0.079
			c0.007,0.069,0.06,0.111,0.095,0.162c0.072,0.097,0.15,0.19,0.227,0.284c0.014,0.018,0.025,0.037,0.007,0.055
			c-0.012,0.012-0.03,0.007-0.044-0.005c-0.187-0.15-0.405-0.173-0.631-0.139c-0.07,0.01-0.141,0.028-0.178,0.098
			c-0.03,0.058-0.005,0.12,0.032,0.162c0.06,0.067,0.139,0.106,0.224,0.132c0.171,0.05,0.335,0.106,0.449,0.261
			c0.079,0.109,0.086,0.106-0.025,0.178c-0.248,0.159-0.468,0.351-0.653,0.577c-0.358,0.44-0.545,0.953-0.619,1.512
			c-0.005,0.03-0.002,0.055-0.039,0.074c-0.074,0.035-0.141,0.081-0.213,0.125c-0.166,0.104-0.342,0.201-0.472,0.354
			c-0.18,0.21-0.231,0.467-0.25,0.733c-0.021,0.289,0.028,0.573,0.09,0.853c0.009,0.037,0.005,0.046-0.03,0.055
			C9.75,9.559,9.554,9.613,9.357,9.67C9.204,9.714,9.05,9.76,8.913,9.846C8.825,9.901,8.747,9.975,8.76,10.091
			c0.014,0.109,0.097,0.148,0.196,0.164c0.028,0.005,0.053,0.018,0.081,0.023c0.023,0.002,0.037,0.009,0.035,0.039
			c-0.007,0.076,0.039,0.12,0.102,0.157c0.099,0.06,0.21,0.076,0.317,0.076c0.268-0.002,0.536-0.021,0.804-0.046
			c0.083-0.007,0.183-0.039,0.254,0.035c0.162,0.171,0.333,0.331,0.539,0.444c0.072,0.039,0.076,0.088,0.076,0.155
			c-0.002,0.682-0.039,1.361-0.025,2.043c0.005,0.227,0.042,0.448,0.079,0.67c0.007,0.044,0.016,0.088,0.06,0.104
			c0.051,0.021,0.076-0.028,0.106-0.053c-0.025-0.183-0.065-0.365-0.074-0.548c-0.023-0.485-0.005-0.971,0-1.456
			c-0.009-0.18,0.007-0.358,0.007-0.539c0-0.296-0.005-0.594-0.012-0.89c0-0.051,0-0.079,0.067-0.088
			c0.296-0.046,0.594-0.074,0.892-0.106c0.254-0.028,0.509-0.065,0.763-0.097c0.053-0.007,0.104-0.016,0.157-0.012
			c0.051-0.018,0.102-0.037,0.153-0.055c0.113-0.044,0.201-0.127,0.206-0.27c0.007-0.176-0.166-0.34-0.321-0.393
			c-0.235-0.083-0.482-0.127-0.718-0.21c-0.18-0.065-0.368-0.097-0.552-0.139c-0.255-0.055-0.509-0.092-0.768-0.035
			c-0.046,0.01-0.065,0.005-0.071-0.048c-0.033-0.277-0.07-0.557-0.102-0.834c-0.005-0.035,0-0.065,0.021-0.095
			c0.048-0.065,0.097-0.132,0.141-0.201c0.079-0.125,0.146-0.254,0.178-0.4c0.032-0.153-0.044-0.24-0.199-0.227
			c-0.039,0.005-0.079,0.018-0.12,0.002c0.046-0.207,0.085-0.413,0.157-0.614c0.159-0.439,0.418-0.804,0.779-1.1
			c0.127-0.104,0.259-0.201,0.398-0.289c0.055-0.035,0.092-0.088,0.051-0.146c-0.155-0.21-0.307-0.421-0.594-0.462
			c-0.068-0.01-0.126-0.042-0.204-0.088c0.275-0.065,0.485,0.012,0.668,0.18c0.102,0.092,0.187,0.199,0.266,0.312
			c0.03,0.042,0.069,0.051,0.113,0.039c0.046-0.012,0.037-0.051,0.039-0.083c0.005-0.12-0.039-0.231-0.09-0.335
			c-0.127-0.264-0.337-0.467-0.506-0.7l0,0c-0.009-0.03-0.014-0.063-0.051-0.072c0.002-0.012,0.007-0.023,0.009-0.035
			c0.007-0.007,0.016-0.013,0.023-0.018c0.005,0.002,0.012,0.005,0.018,0.002c0.026,0.019,0.052,0.037,0.086,0.035
			c0.002,0.025,0.021,0.035,0.037,0.046c0.208,0.15,0.37,0.342,0.483,0.573c0.074,0.148,0.136,0.3,0.183,0.46
			c0.023,0.084,0.081,0.114,0.132,0.077c0.034-0.026,0.051-0.065,0.055-0.104c0.026-0.146,0.051-0.292,0.065-0.44
			c0.016-0.157,0.058-0.31,0.155-0.451c0.009,0.047,0.016,0.084,0.025,0.119c0.065,0.296,0.053,0.589-0.035,0.878
			c-0.02,0.072,0.005,0.111,0.072,0.12c0.234,0.035,0.463,0.081,0.68,0.178c0.06,0.028,0.123,0.053,0.185,0.081
			c0.432,0.208,0.7,0.557,0.871,0.996c0.111,0.282,0.183,0.573,0.238,0.872c0.053,0.284,0.104,0.571,0.146,0.858
			c0.049,0.335,0.088,0.673,0.129,1.01c0.032,0.245,0.065,0.49,0.095,0.735c0.044,0.347,0.083,0.693,0.127,1.04
			c0.03,0.233,0.072,0.465,0.095,0.698c0.039,0.372,0.092,0.742,0.127,1.114c0.035,0.368,0.055,0.733,0.042,1.103
			c-0.002,0.058,0.014,0.113,0.081,0.109c0.062-0.005,0.092-0.053,0.088-0.118c-0.002-0.018,0-0.037,0-0.055
			C16.276,13.447,16.258,13.112,16.225,12.777z M10.738,7.624c0.076-0.044,0.15-0.095,0.254-0.123
			c-0.064,0.133-0.145,0.225-0.233,0.327c-0.016-0.06,0.007-0.118-0.032-0.164C10.715,7.65,10.722,7.634,10.738,7.624z
			 M10.706,10.474c0.141-0.021,0.268-0.039,0.393-0.06c0.042-0.007,0.046,0.021,0.046,0.051c0.005,0.12,0.012,0.24,0.018,0.377
			C10.988,10.74,10.849,10.62,10.706,10.474z M11.804,9.231c0.324,0.062,0.638,0.148,0.948,0.261
			c0.088,0.032,0.185,0.046,0.28,0.065c0.132,0.023,0.24,0.083,0.324,0.19c0.055,0.072,0.035,0.166-0.044,0.201
			c-0.053,0.023-0.109,0.044-0.166,0.053c-0.391,0.062-0.781,0.106-1.177,0.141c-0.3,0.025-0.599,0.074-0.899,0.113
			c-0.314,0.042-0.629,0.088-0.945,0.106C9.947,10.37,9.769,10.4,9.589,10.393c-0.099-0.002-0.196-0.007-0.291-0.039
			c-0.023-0.007-0.062-0.005-0.058-0.044c0.002-0.035,0.025-0.055,0.06-0.06c0.055-0.005,0.111-0.012,0.166-0.016
			c0.206-0.018,0.411-0.049,0.617-0.069c0.268-0.028,0.541-0.046,0.809-0.092c0.55-0.095,1.1-0.192,1.664-0.166
			c0.06,0.002,0.109-0.016,0.109-0.083c-0.002-0.062-0.046-0.086-0.111-0.083c-0.081,0.005-0.162,0-0.243,0
			c-0.275,0.012-0.55,0.025-0.818,0.088c-0.072,0.016-0.148,0.005-0.222,0.016c-0.319,0.055-0.638,0.109-0.962,0.132
			C9.99,10,9.671,10.044,9.352,10.088c-0.095,0.012-0.187,0.03-0.282,0.028c-0.021,0-0.046,0.002-0.065-0.007
			c-0.03-0.012-0.074-0.016-0.079-0.049c-0.007-0.032,0.032-0.049,0.058-0.065C9.09,9.923,9.208,9.882,9.328,9.842
			c0.289-0.097,0.587-0.153,0.878-0.233c0.203-0.055,0.395-0.148,0.585-0.236C11.115,9.219,11.45,9.162,11.804,9.231z M11.092,7.652
			c0.041-0.055,0.053-0.115,0.048-0.182c-0.002-0.026-0.011-0.065,0.028-0.065c0.046,0.002,0.032,0.051,0.025,0.072
			c-0.03,0.092-0.067,0.18-0.129,0.254C11.052,7.701,11.078,7.673,11.092,7.652z M11.066,7.735c-0.069,0.158-0.192,0.282-0.275,0.43
			c-0.034,0.063-0.037,0.107,0.033,0.134c0.06,0.023,0.051,0.074,0.055,0.116c0.023,0.19,0.042,0.379,0.06,0.571
			c0.016,0.148,0.014,0.148-0.129,0.201c-0.139,0.051-0.268,0.127-0.414,0.164c-0.06,0.055-0.146,0.055-0.215,0.092
			c-0.018,0.009-0.037,0-0.042-0.03c-0.065-0.305-0.116-0.608-0.081-0.92c0.021-0.187,0.067-0.368,0.19-0.518
			c0.072-0.087,0.167-0.147,0.268-0.196c0.018-0.009,0.044-0.018,0.06-0.005c0.021,0.018,0.009,0.046,0,0.069
			c-0.037,0.082-0.099,0.147-0.166,0.202c-0.051,0.039-0.063,0.079-0.049,0.134c0.047,0.049,0.093,0.051,0.139-0.002
			c0.028-0.032,0.06-0.06,0.09-0.09c0.023-0.023,0.044-0.046,0.086-0.023c0.049,0.028,0.09,0.007,0.127-0.037
			c0.076-0.09,0.159-0.178,0.224-0.277C11.041,7.733,11.05,7.733,11.066,7.735z"/>
		<path class="st1" d="M12.31,9.744c-0.275,0.012-0.55,0.025-0.818,0.088c-0.072,0.016-0.148,0.005-0.222,0.016
			c-0.319,0.051-0.638,0.104-0.962,0.127c-0.319,0.023-0.638,0.067-0.957,0.111c-0.095,0.012-0.187,0.03-0.282,0.028
			c-0.021,0-0.046,0.002-0.065-0.007c-0.03-0.012-0.074-0.016-0.079-0.049c-0.007-0.032,0.032-0.049,0.058-0.065
			C9.089,9.921,9.207,9.88,9.327,9.84c0.289-0.097,0.587-0.153,0.878-0.233c0.203-0.055,0.395-0.148,0.585-0.236
			c0.324-0.153,0.659-0.21,1.012-0.141c0.324,0.062,0.638,0.148,0.948,0.261c0.088,0.032,0.185,0.046,0.28,0.065
			c0.132,0.023,0.24,0.083,0.324,0.19c0.055,0.072,0.035,0.166-0.044,0.201C13.257,9.97,13.201,9.991,13.144,10
			c-0.391,0.062-0.781,0.106-1.177,0.141c-0.3,0.025-0.599,0.074-0.899,0.113c-0.314,0.042-0.629,0.088-0.945,0.106
			c-0.178,0.009-0.356,0.039-0.536,0.032c-0.099-0.002-0.196-0.007-0.291-0.039c-0.023-0.007-0.062-0.005-0.058-0.044
			c0.002-0.035,0.025-0.055,0.06-0.06c0.055-0.005,0.111-0.012,0.166-0.016c0.206-0.018,0.411-0.049,0.617-0.069
			c0.268-0.028,0.541-0.046,0.809-0.092c0.55-0.095,1.1-0.192,1.664-0.166c0.06,0.002,0.109-0.016,0.109-0.083
			c-0.002-0.062-0.046-0.086-0.111-0.083C12.472,9.746,12.391,9.744,12.31,9.744z M11.697,9.303
			c-0.007-0.042-0.032-0.061-0.074-0.063c-0.034-0.002-0.064,0.009-0.064,0.046c-0.002,0.046,0.037,0.06,0.074,0.065
			C11.665,9.356,11.69,9.342,11.697,9.303z M11.309,9.344c0.005-0.067-0.021-0.071-0.051-0.069c-0.03,0.002-0.065,0.004-0.06,0.051
			c0.002,0.032,0.025,0.055,0.051,0.058C11.284,9.383,11.307,9.356,11.309,9.344z"/>
		<path class="st1" d="M11.066,7.735c-0.069,0.158-0.192,0.282-0.275,0.43c-0.034,0.063-0.037,0.107,0.033,0.134
			c0.06,0.023,0.051,0.074,0.055,0.116c0.023,0.19,0.042,0.379,0.06,0.571c0.016,0.148,0.014,0.148-0.129,0.201
			c-0.139,0.051-0.268,0.127-0.414,0.164c-0.016-0.018-0.035-0.032-0.035-0.062c0-0.148-0.065-0.287-0.072-0.435
			c-0.007-0.141-0.032-0.282,0.005-0.43c0.021-0.083,0.074-0.157,0.07-0.245c0.046,0.049,0.092,0.051,0.138-0.002
			c0.028-0.032,0.06-0.06,0.09-0.09c0.023-0.023,0.044-0.046,0.086-0.023c0.049,0.028,0.09,0.007,0.127-0.037
			c0.076-0.09,0.159-0.178,0.224-0.277C11.041,7.733,11.052,7.733,11.066,7.735L11.066,7.735z"/>
		<path class="st0" d="M10.361,8.179c0.005,0.088-0.048,0.164-0.069,0.245c-0.035,0.148-0.009,0.289-0.002,0.432
			c0.007,0.148,0.072,0.287,0.072,0.435c0,0.03,0.021,0.044,0.035,0.062c-0.06,0.055-0.146,0.055-0.215,0.092
			c-0.018,0.009-0.037,0-0.042-0.03c-0.065-0.307-0.116-0.61-0.081-0.922c0.021-0.187,0.067-0.368,0.19-0.518
			c0.071-0.087,0.166-0.147,0.267-0.196c0.018-0.009,0.044-0.018,0.06-0.005c0.021,0.018,0.009,0.046,0,0.069
			c-0.037,0.082-0.099,0.147-0.166,0.202C10.359,8.084,10.347,8.124,10.361,8.179z"/>
		<path class="st1" d="M11.166,10.842c-0.176-0.102-0.315-0.222-0.458-0.365c0.141-0.021,0.268-0.039,0.393-0.06
			c0.042-0.007,0.046,0.021,0.046,0.051C11.152,10.585,11.159,10.706,11.166,10.842z"/>
		<path class="st0" d="M10.995,7.502c-0.065,0.132-0.146,0.224-0.234,0.326c-0.018-0.06,0.005-0.118-0.035-0.164
			c-0.012-0.014-0.005-0.03,0.012-0.039C10.814,7.581,10.888,7.53,10.995,7.502z"/>
		<path class="st1" d="M11.069,7.735c-0.017-0.034,0.009-0.062,0.025-0.083c0.042-0.055,0.053-0.115,0.049-0.182
			c-0.003-0.026-0.012-0.065,0.027-0.065c0.047,0.002,0.033,0.051,0.026,0.072C11.168,7.571,11.129,7.659,11.069,7.735
			C11.066,7.735,11.069,7.735,11.069,7.735z"/>
		<path class="st2" d="M11.697,9.303c-0.007,0.039-0.032,0.05-0.067,0.048c-0.037-0.005-0.076-0.018-0.074-0.065
			c0-0.037,0.03-0.049,0.065-0.046C11.665,9.242,11.69,9.261,11.697,9.303z"/>
		<path class="st2" d="M11.309,9.344c-0.002,0.014-0.025,0.039-0.062,0.037c-0.025-0.002-0.049-0.025-0.051-0.058
			c-0.005-0.046,0.03-0.048,0.06-0.05C11.288,9.27,11.316,9.277,11.309,9.344z"/>
	</g>
</g>
<g>
	<path class="st2" d="M17.313,13.918c-0.358-0.11-0.712-0.165-1.087-0.135c-0.321,0.026-0.609,0.165-0.921,0.218
		c-0.464,0.079-0.984-0.103-1.455-0.118c-0.37-0.012-0.729,0.072-1.094,0.078c-0.307,0.005-0.562-0.178-0.88-0.178
		c-0.415,0-0.833,0.062-1.249,0.073c-0.892,0.024-1.783-0.024-2.669-0.128c-0.132-0.016-0.131,0.192,0,0.208
		c0.821,0.097,1.645,0.145,2.471,0.132c0.428-0.007,0.86-0.068,1.286-0.066c0.054-0.004,0.107-0.008,0.161-0.011
		c0.207-0.01,0.384,0.049,0.531,0.178c0.053,0.009,0.109,0.024,0.165,0.03c0.338,0.04,0.731-0.11,1.083-0.111
		c0.437-0.001,0.855,0.107,1.287,0.142c0.283,0.023,0.514-0.073,0.784-0.143c0.53-0.137,1.008-0.129,1.532,0.031
		C17.386,14.157,17.44,13.957,17.313,13.918z"/>
	<path class="st2" d="M14.117,14.572c-1.361,0.032-2.716-0.074-4.07-0.211c-0.129-0.013-0.175,0.186-0.044,0.2
		c0.1,0.01,0.2,0.018,0.3,0.027c-0.027,0.016-0.028,0.063,0.014,0.068c0.319,0.038,0.639,0.057,0.961,0.052
		c0.085-0.001,0.17-0.007,0.255-0.013c0.145,0.011,0.29,0.017,0.435,0.026c0.025,0.011,0.057,0.007,0.078,0.026
		c0.021,0.004,0.042,0.009,0.064,0.012c0.068,0.008,0.142-0.003,0.217-0.017c0.123,0.006,0.246,0.017,0.369,0.022
		c-0.036,0.006-0.072,0.01-0.108,0.016c-0.054,0.008-0.089,0.06-0.094,0.11c-0.052,0.011-0.103,0.022-0.155,0.033
		c-0.105,0.022-0.079,0.174,0.01,0.197c0.081,0.021,0.158,0.037,0.235,0.051c0.006,0.037,0.031,0.073,0.075,0.089
		c0.056,0.022,0.113,0.038,0.169,0.057c-0.008,0.049,0.012,0.099,0.074,0.107c0.081,0.01,0.162,0.021,0.243,0.031
		c0.13,0.017,0.175-0.183,0.044-0.2c-0.023-0.003-0.047-0.006-0.07-0.009c-0.009-0.03-0.029-0.057-0.068-0.07
		c-0.045-0.013-0.089-0.03-0.133-0.044c0.016-0.044,0.01-0.095-0.029-0.118c0.04-0.011,0.059-0.044,0.062-0.08
		c0.391-0.058,0.782-0.111,1.175-0.155C14.257,14.761,14.25,14.569,14.117,14.572z"/>
</g>
</svg>
