<?xml version="1.0" encoding="utf-8"?>
<!-- Generator: Adobe Illustrator 22.1.0, SVG Export Plug-In . SVG Version: 6.00 Build 0)  -->
<svg version="1.1" id="Layer_1" xmlns="http://www.w3.org/2000/svg" xmlns:xlink="http://www.w3.org/1999/xlink" x="0px" y="0px"
	 viewBox="0 0 150 25" style="enable-background:new 0 0 150 25;" xml:space="preserve">
<style type="text/css">
	.st0{fill:#4EA8B5;}
</style>
<g>
	<polygon class="st0" points="96.444,14.243 96.203,15.766 95.892,14.398 93.709,6.503 92.45,6.503 90.212,14.398 89.893,15.743 
		89.675,14.251 87.888,6.503 86.396,6.503 89.131,17.818 90.491,17.818 92.908,9.572 93.087,8.71 93.266,9.572 95.597,17.818 
		96.957,17.818 99.7,6.503 98.2,6.503 	"/>
	<path class="st0" d="M103.802,9.254c-0.668,0-1.289,0.185-1.861,0.556c-0.573,0.371-1.018,0.883-1.337,1.539
		c-0.319,0.655-0.478,1.4-0.478,2.234v0.264c0,1.254,0.357,2.255,1.072,3.004c0.715,0.749,1.642,1.123,2.782,1.123
		c1.409,0,2.466-0.541,3.171-1.624l-0.878-0.684c-0.264,0.342-0.573,0.616-0.925,0.824c-0.352,0.207-0.782,0.311-1.29,0.311
		c-0.715,0-1.304-0.255-1.768-0.765c-0.464-0.51-0.706-1.18-0.727-2.009h5.696v-0.599c0-1.342-0.303-2.373-0.909-3.093
		C105.745,9.614,104.895,9.254,103.802,9.254z M105.823,12.844h-4.212c0.093-0.762,0.337-1.353,0.73-1.776
		c0.394-0.422,0.881-0.633,1.461-0.633c0.601,0,1.078,0.201,1.43,0.602c0.352,0.402,0.549,0.968,0.59,1.698V12.844z"/>
	<path class="st0" d="M112.365,9.254c-1.021,0-1.821,0.36-2.401,1.08V5.881h-1.438v11.937h1.321l0.07-0.971
		c0.58,0.751,1.401,1.127,2.464,1.127c0.995,0,1.787-0.39,2.378-1.17c0.591-0.78,0.886-1.812,0.886-3.097v-0.124
		c0-1.342-0.291-2.399-0.874-3.171S113.385,9.254,112.365,9.254z M113.631,15.953c-0.384,0.534-0.92,0.801-1.609,0.801
		c-0.932,0-1.619-0.44-2.059-1.321v-3.637c0.414-0.881,1.096-1.321,2.044-1.321c0.71,0,1.254,0.267,1.632,0.8
		c0.378,0.534,0.567,1.29,0.567,2.269C114.206,14.616,114.015,15.419,113.631,15.953z"/>
	<polygon class="st0" points="122.324,6.503 120.824,6.503 120.824,17.818 127.687,17.818 127.687,16.598 122.324,16.598 	"/>
	<path class="st0" d="M129.62,6.347c-0.28,0-0.491,0.08-0.634,0.241c-0.143,0.161-0.213,0.357-0.213,0.59s0.071,0.427,0.213,0.583
		c0.143,0.155,0.354,0.233,0.634,0.233c0.28,0,0.492-0.078,0.637-0.233c0.145-0.156,0.218-0.35,0.218-0.583s-0.073-0.43-0.218-0.59
		C130.112,6.428,129.9,6.347,129.62,6.347z"/>
	<rect x="128.89" y="9.409" class="st0" width="1.438" height="8.409"/>
	<path class="st0" d="M136.154,9.254c-1.036,0-1.876,0.404-2.518,1.212l-0.046-1.057h-1.36v8.409h1.438v-5.992
		c0.197-0.404,0.471-0.731,0.824-0.979c0.352-0.249,0.762-0.373,1.228-0.373c0.575,0,0.999,0.145,1.271,0.435
		c0.272,0.29,0.41,0.738,0.415,1.344v5.564h1.438v-5.557C138.828,10.256,137.931,9.254,136.154,9.254z"/>
	<polygon class="st0" points="143.924,12.922 147.196,9.409 145.447,9.409 142.828,12.176 142.059,13.101 142.059,5.881 
		140.621,5.881 140.621,17.818 142.059,17.818 142.059,14.865 142.961,13.924 145.89,17.818 147.577,17.818 	"/>
	<path class="st0" d="M68.168,20.254c-2.984,0-5.969,0.001-8.953-0.002c-0.969-0.001-1.398-0.431-1.399-1.381
		c-0.001-3.749-0.003-7.498-0.002-11.247c0-0.124,0.019-0.248,0.029-0.364c6.591,0,13.146,0,19.743,0c0,1.029,0,2.023,0,3.018
		c0.549-0.143,1.058-0.275,1.611-0.419c0-1.732,0.039-3.455-0.012-5.176c-0.042-1.419-1.278-2.598-2.66-2.6
		c-5.889-0.009-11.779-0.009-17.668,0c-1.427,0.002-2.663,1.251-2.666,2.682c-0.008,4.798-0.007,9.595,0,14.393
		c0.002,1.346,1.061,2.537,2.401,2.647c0.867,0.071,1.743,0.029,2.615,0.037c0.985,0.009,1.969,0.021,2.954,0.025
		c1.128,0.005,2.257,0.002,3.385,0.002c0.405,0,0.81,0,1.198,0c-0.053-0.582-0.097-1.074-0.146-1.615
		C68.478,20.254,68.323,20.254,68.168,20.254z M75.666,3.879c0.418,0,0.775,0.35,0.772,0.757c-0.003,0.406-0.367,0.754-0.783,0.749
		c-0.441-0.006-0.763-0.328-0.759-0.759C74.9,4.198,75.228,3.879,75.666,3.879z M72.848,3.881c0.422,0.005,0.763,0.352,0.754,0.766
		C73.594,5.062,73.236,5.4,72.817,5.39c-0.414-0.01-0.77-0.375-0.758-0.776C72.071,4.198,72.419,3.875,72.848,3.881z M70.044,3.878
		c0.435,0.013,0.734,0.342,0.717,0.786c-0.016,0.432-0.353,0.74-0.789,0.721c-0.413-0.018-0.758-0.39-0.735-0.793
		C69.263,4.175,69.612,3.865,70.044,3.878z"/>
	<path class="st0" d="M77.508,15.665c-0.562-0.436-0.604-0.432-1.064,0.099c-0.459,0.529-0.442,1.015,0.053,1.492
		c0.723,0.696,0.766,1.782,0.069,2.505c-0.757,0.785-1.535,1.549-2.313,2.314c-0.46,0.452-1.329,0.591-1.883,0.323
		c-1.167-0.565-1.424-1.975-0.525-2.907c0.409-0.424,0.837-0.828,1.241-1.257c0.079-0.084,0.128-0.242,0.116-0.358
		c-0.071-0.703-0.163-1.404-0.25-2.121c-0.841,0.843-1.753,1.713-2.613,2.632c-0.836,0.893-1.058,2.001-0.813,3.165
		c0.282,1.337,1.135,2.244,2.426,2.667c1.351,0.443,2.589,0.143,3.624-0.824c0.827-0.773,1.626-1.579,2.395-2.41
		C79.423,19.416,79.196,16.974,77.508,15.665z"/>
	<path class="st0" d="M77.406,11.411c-1.159,0.921-2.247,1.993-3.14,3.17c-1.32,1.739-0.578,4.286,1.427,5.255
		c0.143-0.165,0.304-0.347,0.461-0.534c0.411-0.489,0.382-0.99-0.079-1.427c-0.759-0.72-0.786-1.81-0.047-2.566
		c0.712-0.729,1.435-1.448,2.162-2.163c0.751-0.739,1.837-0.751,2.537-0.041c0.717,0.727,0.703,1.782-0.038,2.538
		c-0.402,0.41-0.816,0.809-1.213,1.223c-0.078,0.081-0.16,0.217-0.149,0.317c0.081,0.725,0.185,1.448,0.279,2.151
		c-0.022,0.014,0.057-0.022,0.115-0.079c0.832-0.832,1.704-1.63,2.483-2.51c1.244-1.406,1.205-3.467-0.02-4.827
		C80.948,10.546,78.883,10.238,77.406,11.411z"/>
</g>
</svg>
