<?xml version="1.0" encoding="utf-8"?>
<!-- Generator: Adobe Illustrator 22.1.0, SVG Export Plug-In . SVG Version: 6.00 Build 0)  -->
<svg version="1.1" id="Layer_1" xmlns="http://www.w3.org/2000/svg" xmlns:xlink="http://www.w3.org/1999/xlink" x="0px" y="0px"
	 viewBox="0 0 150 25" style="enable-background:new 0 0 150 25;" xml:space="preserve">
<style type="text/css">
	.st0{fill:#80A7D8;}
</style>
<g>
	<path class="st0" d="M103.208,3.327c-8.225,0-16.45,0-24.676,0c-0.682,0-0.843,0.164-0.843,0.855c0,6.044,0,12.089,0,18.133
		c0,0.689,0.162,0.853,0.845,0.853c4.098,0,8.196,0,12.294,0c4.127,0,8.254,0,12.382,0c0.652,0,0.821-0.172,0.821-0.834
		c0-6.059,0-12.118,0-18.177C104.03,3.498,103.861,3.327,103.208,3.327z M101.5,4.317c0.321,0,0.642-0.011,0.962,0.007
		c0.338,0.019,0.54,0.195,0.538,0.556c-0.001,0.146,0.003,0.292,0,0.437c-0.01,0.488-0.17,0.649-0.657,0.659
		c-0.175,0.003-0.35,0.001-0.525,0.001c-0.131,0-0.262,0.001-0.394,0c-0.654-0.003-0.785-0.135-0.787-0.797
		C100.635,4.445,100.762,4.318,101.5,4.317z M97.012,4.317c0.35-0.002,0.7-0.009,1.05,0.004c0.341,0.013,0.543,0.185,0.546,0.546
		c0.001,0.102,0.001,0.204,0.001,0.306c-0.001,0.702-0.102,0.802-0.811,0.804c-0.131,0-0.262,0-0.394,0c-0.102,0-0.204,0-0.306,0
		c-0.731-0.001-0.856-0.129-0.853-0.871C96.249,4.481,96.403,4.321,97.012,4.317z M92.623,4.317c0.336-0.002,0.672,0.002,1.007,0
		c0.37-0.002,0.569,0.192,0.611,0.548c0.019,0.158,0.022,0.321,0.011,0.481c-0.032,0.46-0.201,0.619-0.659,0.631
		c-0.19,0.005-0.38,0.001-0.569,0.001c-0.102,0-0.204,0-0.307,0c-0.737-0.001-0.881-0.153-0.864-0.909
		C91.867,4.486,92.035,4.321,92.623,4.317z M88.233,4.317c0.336-0.002,0.672,0,1.007,0c0.392,0.001,0.59,0.211,0.619,0.589
		c0.013,0.16,0.012,0.322,0.001,0.481c-0.026,0.375-0.208,0.597-0.61,0.59c-0.204-0.004-0.409-0.001-0.613-0.001
		c-0.102,0.001-0.204,0.001-0.307,0.001c-0.735-0.001-0.891-0.164-0.869-0.908C87.48,4.489,87.651,4.321,88.233,4.317z
		 M83.114,4.841c0.002-0.339,0.207-0.507,0.525-0.519c0.422-0.016,0.845-0.013,1.268-0.001c0.345,0.01,0.531,0.209,0.56,0.549
		c0.011,0.13,0.008,0.262,0.006,0.393c-0.011,0.543-0.172,0.706-0.704,0.713c-0.16,0.002-0.321,0-0.481,0
		c-0.044,0-0.088-0.002-0.131,0.001C82.99,6.036,83.108,5.742,83.114,4.841z M78.757,4.71c0.013-0.143,0.285-0.352,0.456-0.372
		c0.446-0.053,0.906-0.052,1.352,0c0.173,0.02,0.42,0.21,0.462,0.368c0.075,0.283,0.074,0.616-0.002,0.899
		c-0.041,0.153-0.287,0.303-0.468,0.355c-0.216,0.061-0.462,0.014-0.696,0.014c0,0.001,0,0.002,0,0.003
		c-0.058,0-0.117-0.004-0.175,0.001C78.583,6.068,78.676,5.576,78.757,4.71z M81.08,21.328c-0.019,0.454-0.189,0.621-0.649,0.634
		c-0.175,0.005-0.35,0.001-0.525,0.001c-0.073,0-0.146,0-0.219,0c-0.913,0-0.989-0.08-0.968-1.008
		c0.011-0.474,0.183-0.657,0.661-0.672c0.35-0.011,0.7-0.013,1.05,0.001c0.444,0.018,0.633,0.216,0.65,0.65
		C81.085,21.065,81.086,21.197,81.08,21.328z M84.805,21.962c-0.175,0.004-0.35,0.001-0.525,0.001c-0.044,0-0.088,0-0.131,0
		c-1.003,0-1.064-0.074-1.043-1.067c0.009-0.409,0.223-0.588,0.588-0.61c0.378-0.022,0.759-0.02,1.137-0.002
		c0.512,0.024,0.66,0.261,0.642,0.97C85.46,21.777,85.298,21.95,84.805,21.962z M89.001,21.963c-0.307,0.001-0.614-0.004-0.921,0
		c-0.378,0.005-0.556-0.201-0.609-0.552c-0.137-0.909,0.105-1.131,1.234-1.131c0.117,0,0.234-0.001,0.351,0
		c0.627,0.006,0.802,0.182,0.809,0.812C89.873,21.814,89.727,21.962,89.001,21.963z M79.291,19.46c0-4.131,0-8.263,0-12.439
		c7.724,0,15.416,0,23.138,0c0,4.146,0,8.278,0,12.439C94.726,19.46,87.023,19.46,79.291,19.46z M93.546,21.963
		c-0.161,0.003-0.322,0-0.482,0c-0.132,0-0.263,0.001-0.395,0c-0.665-0.003-0.817-0.159-0.815-0.832
		c0.002-0.681,0.171-0.848,0.859-0.851c0.278-0.001,0.556-0.007,0.833,0.002c0.539,0.016,0.715,0.236,0.711,0.872
		C94.253,21.772,94.095,21.952,93.546,21.963z M98.013,21.962c-0.19,0.003-0.379,0.001-0.569,0.001
		c-0.117,0.001-0.233,0.001-0.35,0.001c-0.709-0.002-0.848-0.139-0.848-0.835c0-0.678,0.168-0.845,0.855-0.848
		c0.292-0.001,0.584-0.01,0.875,0.003c0.451,0.021,0.623,0.205,0.632,0.653c0.003,0.146-0.001,0.292,0.001,0.437
		C98.613,21.776,98.397,21.956,98.013,21.962z M102.31,21.963c-0.16,0.003-0.321,0-0.481,0c-0.073,0-0.146-0.005-0.219,0.001
		c-1.049,0.082-1.024-0.363-0.947-1.232c0.028-0.322,0.308-0.442,0.611-0.449c0.364-0.009,0.73-0.014,1.094,0.001
		c0.45,0.018,0.621,0.205,0.632,0.656c0.003,0.117,0.002,0.233,0,0.35C102.991,21.799,102.832,21.954,102.31,21.963z"/>
	<path class="st0" d="M88.416,17.597c2.194-1.47,4.318-2.893,6.495-4.351c-2.201-1.472-4.325-2.892-6.495-4.344
		C88.416,11.833,88.416,14.668,88.416,17.597z"/>
	<polygon class="st0" points="114.469,17.944 111.252,8.611 109.628,8.611 113.816,19.926 115.137,19.926 119.334,8.611 
		117.702,8.611 	"/>
	<path class="st0" d="M121.081,8.455c-0.28,0-0.491,0.08-0.633,0.241c-0.143,0.161-0.214,0.357-0.214,0.59s0.071,0.427,0.214,0.583
		c0.142,0.155,0.354,0.233,0.633,0.233c0.28,0,0.492-0.078,0.637-0.233c0.145-0.156,0.218-0.35,0.218-0.583s-0.073-0.43-0.218-0.59
		C121.573,8.536,121.361,8.455,121.081,8.455z"/>
	<rect x="120.351" y="11.517" class="st0" width="1.438" height="8.409"/>
	<path class="st0" d="M128.998,12.372c-0.575-0.673-1.355-1.01-2.339-1.01c-0.99,0-1.79,0.392-2.401,1.177
		c-0.611,0.785-0.917,1.822-0.917,3.112v0.109c0,1.285,0.307,2.326,0.921,3.124c0.614,0.798,1.408,1.197,2.382,1.197
		c1.026,0,1.826-0.352,2.402-1.057l0.07,0.902h1.321V7.989h-1.438V12.372z M128.998,17.633c-0.42,0.819-1.085,1.228-1.997,1.228
		c-0.694,0-1.238-0.269-1.632-0.808c-0.394-0.539-0.59-1.285-0.59-2.238c0-1.067,0.197-1.873,0.59-2.417
		c0.394-0.544,0.943-0.816,1.648-0.816c0.891,0,1.552,0.396,1.982,1.189V17.633z"/>
	<path class="st0" d="M135.579,11.362c-0.668,0-1.289,0.185-1.861,0.556c-0.573,0.371-1.018,0.883-1.337,1.539
		c-0.319,0.655-0.478,1.4-0.478,2.234v0.264c0,1.254,0.357,2.255,1.072,3.004c0.715,0.749,1.642,1.123,2.782,1.123
		c1.409,0,2.466-0.541,3.171-1.624l-0.878-0.684c-0.264,0.342-0.573,0.616-0.925,0.824c-0.352,0.207-0.782,0.311-1.29,0.311
		c-0.715,0-1.304-0.255-1.768-0.765c-0.464-0.51-0.706-1.18-0.727-2.009h5.696v-0.599c0-1.342-0.303-2.373-0.909-3.093
		C137.522,11.722,136.673,11.362,135.579,11.362z M137.6,14.952h-4.212c0.093-0.762,0.337-1.353,0.73-1.776
		c0.394-0.422,0.881-0.633,1.461-0.633c0.601,0,1.078,0.201,1.43,0.602c0.352,0.402,0.549,0.968,0.59,1.698V14.952z"/>
	<path class="st0" d="M146.516,12.551c-0.707-0.793-1.633-1.189-2.778-1.189c-0.741,0-1.4,0.179-1.978,0.536
		c-0.578,0.358-1.028,0.865-1.352,1.523c-0.324,0.658-0.486,1.399-0.486,2.223v0.101c0,1.306,0.354,2.355,1.061,3.147
		c0.707,0.793,1.631,1.189,2.771,1.189c0.756,0,1.426-0.181,2.009-0.544c0.583-0.362,1.031-0.869,1.344-1.519
		c0.313-0.65,0.47-1.385,0.47-2.203v-0.101C147.577,14.398,147.223,13.344,146.516,12.551z M145.494,18.049
		c-0.43,0.573-1.01,0.859-1.741,0.859c-0.726,0-1.304-0.282-1.737-0.847c-0.433-0.565-0.649-1.313-0.649-2.246
		c0-1.052,0.218-1.86,0.653-2.425c0.435-0.565,1.007-0.847,1.717-0.847c0.725,0,1.307,0.286,1.745,0.859
		c0.438,0.573,0.657,1.32,0.657,2.242C146.139,16.675,145.924,17.477,145.494,18.049z"/>
</g>
</svg>
