<?xml version="1.0" encoding="utf-8"?>
<!-- Generator: Adobe Illustrator 22.1.0, SVG Export Plug-In . SVG Version: 6.00 Build 0)  -->
<svg version="1.1" id="Layer_1" xmlns="http://www.w3.org/2000/svg" xmlns:xlink="http://www.w3.org/1999/xlink" x="0px" y="0px"
	 viewBox="0 0 150 25" style="enable-background:new 0 0 150 25;" xml:space="preserve">
<style type="text/css">
	.st0{fill:#0073BB;}
</style>
<g>
	<path class="st0" d="M50.627,1.562c-4.058,0.73-8.117,1.455-12.176,2.176c-0.193,0.034-0.273,0.096-0.273,0.312
		c0.007,5.608,0.006,11.216,0.002,16.824c0,0.187,0.041,0.262,0.244,0.298c4.07,0.719,8.139,1.443,12.205,2.183
		c0.321,0.058,0.351-0.028,0.351-0.305c-0.008-3.527-0.005-7.054-0.005-10.582c0-3.538-0.004-7.075,0.007-10.613
		C50.982,1.555,50.892,1.515,50.627,1.562z M46.055,15.771c-0.465,1.034-1.354,1.302-2.293,1.286
		c-0.598-0.01-1.175-0.128-1.696-0.451c-0.147-0.091-0.219-0.189-0.214-0.373c0.013-0.525,0.005-1.052,0.005-1.637
		c0.158,0.145,0.267,0.251,0.383,0.349c0.437,0.369,0.937,0.578,1.516,0.549c0.661-0.033,1.016-0.571,0.812-1.204
		c-0.09-0.279-0.265-0.496-0.496-0.663c-0.328-0.238-0.672-0.453-1-0.69c-1.043-0.756-1.425-1.781-1.182-3.032
		c0.237-1.214,1.188-1.991,2.455-2.039c0.48-0.018,0.954,0.015,1.418,0.159c0.164,0.051,0.234,0.12,0.23,0.302
		c-0.013,0.53-0.004,1.06-0.004,1.654c-0.434-0.321-0.867-0.496-1.355-0.543c-0.541-0.052-0.982,0.138-1.165,0.534
		c-0.198,0.43-0.078,0.938,0.326,1.291c0.171,0.15,0.368,0.27,0.556,0.4c0.29,0.201,0.59,0.389,0.872,0.601
		C46.534,13.245,46.483,14.821,46.055,15.771z"/>
	<path class="st0" d="M59.153,10.311c-0.2,0.016-0.273-0.045-0.345-0.21c-0.578-1.306-1.506-2.279-2.804-2.884
		c-0.172-0.08-0.22-0.169-0.199-0.354c0.094-0.829-0.362-1.666-1.111-2.074c-0.742-0.404-1.642-0.311-2.309,0.23
		c-0.132,0.107-0.199,0.219-0.194,0.395c0.012,0.426,0.004,0.853,0.004,1.28c0,0.437,0.006,0.874-0.003,1.311
		c-0.003,0.162,0.052,0.27,0.174,0.374c0.804,0.687,1.949,0.678,2.726-0.045c0.14-0.13,0.242-0.139,0.404-0.062
		c1.072,0.508,1.825,1.316,2.3,2.397c0.07,0.161,0.029,0.259-0.073,0.385c-0.707,0.876-0.713,1.962-0.006,2.831
		c0.127,0.156,0.13,0.275,0.055,0.442c-0.466,1.035-1.198,1.81-2.218,2.315c-0.19,0.094-0.32,0.091-0.493-0.06
		c-0.79-0.688-1.848-0.695-2.655-0.048c-0.152,0.121-0.217,0.252-0.214,0.45c0.01,0.822,0.013,1.644-0.001,2.465
		c-0.004,0.236,0.075,0.395,0.258,0.525c0.72,0.511,1.478,0.581,2.261,0.173c0.727-0.379,1.189-1.256,1.103-2.052
		c-0.016-0.146-0.046-0.267,0.143-0.352c1.336-0.608,2.282-1.606,2.868-2.945c0.07-0.159,0.155-0.178,0.31-0.165
		c1.228,0.105,2.273-0.887,2.277-2.15C61.414,11.218,60.38,10.214,59.153,10.311z"/>
	<path class="st0" d="M116.797,6.874c-0.88-0.723-1.927-0.941-3.03-0.953c-1.144-0.012-2.288,0.006-3.432-0.009
		c-0.267-0.004-0.348,0.053-0.346,0.337c0.014,2.08,0.008,4.16,0.008,6.239c0,2.08,0.003,4.16-0.005,6.24
		c-0.001,0.233,0.041,0.338,0.303,0.318c0.321-0.024,0.645-0.021,0.966-0.001c0.234,0.015,0.295-0.056,0.294-0.291
		c-0.011-1.456,0.001-2.912-0.012-4.368c-0.002-0.253,0.076-0.304,0.313-0.304c0.748-0.001,1.495,0.03,2.244-0.043
		c2.484-0.241,4.082-2.082,3.931-4.57C117.967,8.446,117.612,7.544,116.797,6.874z M116.38,10.341
		c-0.179,1.419-1.146,2.235-2.677,2.317c-0.632,0.034-1.267,0.013-1.9,0.034c-0.21,0.007-0.261-0.065-0.258-0.264
		c0.01-0.81,0.004-1.621,0.004-2.431c0-0.79,0.007-1.58-0.005-2.369c-0.003-0.218,0.033-0.315,0.283-0.303
		c0.818,0.037,1.641-0.05,2.457,0.079C115.924,7.663,116.574,8.802,116.38,10.341z"/>
	<path class="st0" d="M83.637,14.666c-0.004-0.79,0.045-1.582-0.062-2.369c-0.111-0.82-0.332-1.604-0.992-2.159
		c-0.988-0.831-2.133-0.844-3.303-0.514c-0.806,0.228-1.375,0.793-1.852,1.504c-0.089-0.148-0.057-0.263-0.057-0.372
		c-0.002-1.727,0-3.455-0.003-5.182c-0.001-0.477,0.055-0.399-0.42-0.406c-0.239-0.003-0.481,0.019-0.717-0.006
		c-0.303-0.032-0.399,0.05-0.398,0.38c0.013,4.37,0.009,8.741,0.009,13.112c0,0.052,0.006,0.105-0.001,0.156
		c-0.022,0.175,0.047,0.239,0.226,0.233c0.333-0.012,0.667-0.021,0.998,0.002c0.255,0.018,0.31-0.075,0.308-0.315
		c-0.01-1.696-0.008-3.392-0.004-5.089c0.002-0.942,0.317-1.758,1.053-2.369c1.382-1.147,3.248-0.482,3.592,1.27
		c0.089,0.451,0.108,0.909,0.11,1.365c0.008,1.613,0.008,3.226-0.002,4.839c-0.001,0.227,0.048,0.315,0.29,0.298
		c0.311-0.022,0.625-0.021,0.936,0c0.233,0.015,0.297-0.054,0.295-0.291C83.633,17.392,83.644,16.029,83.637,14.666z"/>
	<path class="st0" d="M72.511,13.022c-0.769-0.613-1.64-1.058-2.475-1.562c-0.49-0.295-0.979-0.595-1.35-1.044
		c-0.711-0.859-0.517-2.24,0.403-2.865c0.698-0.474,1.48-0.499,2.279-0.42C72.09,7.203,72.756,7.44,73.399,7.9
		c0-0.534-0.013-1.008,0.006-1.481c0.008-0.217-0.074-0.31-0.266-0.386c-0.611-0.24-1.251-0.303-1.895-0.33
		c-1.054-0.046-2.072,0.083-2.998,0.65c-1.874,1.148-2.179,3.678-0.622,5.228c0.535,0.533,1.169,0.931,1.816,1.31
		c0.807,0.473,1.637,0.916,2.3,1.591c0.577,0.587,0.689,1.308,0.482,2.081c-0.192,0.719-0.74,1.046-1.415,1.207
		c-0.386,0.092-0.782,0.118-1.178,0.092c-1.098-0.072-2.08-0.458-3.011-1.167c0,0.535,0.022,1.012-0.008,1.486
		c-0.018,0.292,0.097,0.434,0.349,0.535c1.398,0.563,2.83,0.757,4.302,0.365c1.114-0.297,2.018-0.889,2.455-2.016
		C74.304,15.55,73.858,14.096,72.511,13.022z"/>
	<path class="st0" d="M108.05,12.824c-0.208-1.269-0.722-2.357-1.92-2.967c-1.688-0.86-4.389-0.559-5.632,2.009
		c-0.619,1.278-0.675,2.623-0.425,3.991c0.381,2.086,1.851,3.365,3.918,3.422c1.149,0.031,2.26-0.129,3.26-0.754
		c0.123-0.077,0.24-0.144,0.233-0.331c-0.014-0.393-0.004-0.787-0.004-1.249c-0.729,0.548-1.475,0.897-2.319,0.998
		c-0.878,0.105-1.732,0.04-2.473-0.505c-0.768-0.565-1.066-1.379-1.141-2.296c-0.034-0.408-0.034-0.408,0.363-0.408
		c1.966,0,3.932-0.005,5.898,0.006c0.264,0.002,0.333-0.071,0.323-0.329C108.11,13.881,108.136,13.35,108.05,12.824z
		 M106.304,13.464c-0.749-0.001-1.497-0.001-2.246-0.001c-0.749,0-1.497-0.007-2.246,0.004c-0.23,0.004-0.288-0.058-0.23-0.285
		c0.28-1.111,0.817-2.024,1.989-2.345c1.506-0.413,2.925,0.376,2.993,2.431C106.572,13.486,106.443,13.465,106.304,13.464z"/>
	<path class="st0" d="M127.463,12.816c-0.396-1.674-1.349-2.84-3.073-3.243c-1.02-0.238-2.044-0.19-3.044,0.14
		c-1.079,0.356-1.868,1.056-2.391,2.061c-0.362,0.694-0.521,1.442-0.565,2.216c-0.065,1.14,0.065,2.248,0.68,3.24
		c1.035,1.671,2.613,2.195,4.477,2.018c1.732-0.164,2.961-1.064,3.657-2.662c0.316-0.725,0.424-1.496,0.401-2.298
		C127.62,13.801,127.578,13.303,127.463,12.816z M125.648,16.476c-0.458,0.935-1.229,1.418-2.249,1.489
		c-1.963,0.136-3.25-0.989-3.436-2.953c-0.077-0.819-0.025-1.62,0.265-2.392c0.478-1.273,1.636-1.98,3.057-1.882
		c1.364,0.095,2.289,0.882,2.618,2.226c0.115,0.467,0.147,0.943,0.153,1.341C126.053,15.108,125.971,15.816,125.648,16.476z"/>
	<path class="st0" d="M92.578,12.818c0-0.313-0.022-0.624-0.08-0.931c-0.208-1.105-0.766-1.944-1.887-2.264
		c-1.523-0.434-2.96-0.074-4.345,0.586c-0.091,0.043-0.185,0.093-0.184,0.225c0.004,0.462,0.001,0.924,0.001,1.382
		c0.109,0.012,0.148-0.045,0.195-0.081c0.744-0.573,1.581-0.897,2.517-0.991c1.085-0.108,1.827,0.306,2.119,1.221
		c0.092,0.288,0.124,0.588,0.154,0.888c0.019,0.183-0.037,0.254-0.225,0.277c-0.68,0.085-1.358,0.188-2.038,0.281
		c-0.701,0.096-1.393,0.209-2.051,0.498c-1.978,0.866-1.994,3.669-0.73,4.67c0.984,0.779,2.089,0.859,3.246,0.526
		c0.787-0.226,1.327-0.781,1.797-1.538c0,0.49,0.005,0.885-0.003,1.28c-0.003,0.15,0.048,0.199,0.196,0.196
		c0.333-0.009,0.667-0.021,0.998,0.003c0.266,0.02,0.324-0.073,0.323-0.328C92.572,16.751,92.576,14.785,92.578,12.818z
		 M91.071,14.594c-0.018,0.143-0.003,0.29-0.003,0.46c0.035,0.929-0.238,1.756-0.989,2.387c-0.798,0.67-2.073,0.705-2.837,0.139
		c-0.742-0.55-0.717-2.257,0.345-2.639c0.584-0.21,1.185-0.293,1.787-0.39c0.471-0.076,0.946-0.128,1.417-0.203
		C91.001,14.314,91.101,14.358,91.071,14.594z"/>
	<path class="st0" d="M141.242,13.446c-0.001-0.437-0.02-0.873-0.101-1.303c-0.209-1.106-0.667-2.051-1.792-2.477
		c-0.953-0.361-1.915-0.318-2.849,0.106c-0.645,0.292-1.104,0.792-1.537,1.351c0-0.217,0.006-0.434-0.001-0.651
		c-0.009-0.258,0.109-0.589-0.045-0.753c-0.157-0.168-0.492-0.048-0.748-0.051c-0.715-0.008-0.715-0.003-0.715,0.698
		c0,2.767,0.007,5.534-0.009,8.3c-0.002,0.331,0.097,0.41,0.398,0.38c0.247-0.025,0.501-0.025,0.748,0
		c0.291,0.03,0.384-0.051,0.38-0.364c-0.018-1.685-0.014-3.37-0.006-5.055c0.004-0.855,0.266-1.618,0.902-2.216
		c0.677-0.637,1.479-0.82,2.367-0.575c0.836,0.23,1.189,0.879,1.365,1.663c0.092,0.408,0.118,0.822,0.118,1.238
		c-0.001,1.675,0.003,3.349-0.005,5.024c-0.001,0.211,0.046,0.298,0.273,0.284c0.311-0.019,0.625-0.021,0.935,0
		c0.259,0.018,0.33-0.065,0.329-0.326C141.238,16.962,141.245,15.204,141.242,13.446z"/>
	<path class="st0" d="M145.812,10.963c0.613,0.011,1.227-0.003,1.841,0.008c0.19,0.003,0.258-0.052,0.248-0.245
		c-0.014-0.28-0.014-0.562,0-0.842c0.009-0.185-0.063-0.225-0.233-0.223c-0.613,0.009-1.227-0.006-1.841,0.008
		c-0.216,0.005-0.284-0.054-0.28-0.276c0.013-0.749,0.001-1.498,0.008-2.246c0.002-0.194-0.03-0.265-0.244-0.185
		c-0.349,0.131-0.708,0.238-1.067,0.341c-0.166,0.048-0.227,0.126-0.223,0.306c0.013,0.593-0.004,1.186,0.01,1.778
		c0.005,0.211-0.044,0.293-0.271,0.282c-0.373-0.019-0.749,0.002-1.123-0.008c-0.166-0.004-0.247,0.031-0.238,0.22
		c0.014,0.29,0.011,0.582,0.001,0.873c-0.006,0.163,0.05,0.22,0.214,0.215c0.364-0.009,0.729,0.014,1.092-0.009
		c0.261-0.017,0.328,0.064,0.326,0.325c-0.012,1.799-0.016,3.599-0.001,5.398c0.006,0.752,0.167,1.461,0.74,2.019
		c0.735,0.715,2.288,0.662,3.012,0.319c0.086-0.041,0.117-0.104,0.116-0.198c-0.003-0.363-0.001-0.726-0.001-1.14
		c-0.109,0.051-0.164,0.077-0.219,0.102c-1.171,0.538-2.072-0.008-2.126-1.288c-0.001-0.021,0-0.042,0-0.062
		c0-1.737,0.003-3.474-0.004-5.21C145.547,11.018,145.611,10.959,145.812,10.963z"/>
	<path class="st0" d="M99.443,9.538c-1.306-0.179-2.28,0.364-2.839,1.584c-0.043,0.093-0.045,0.219-0.191,0.284
		c0-0.524-0.004-1.023,0.002-1.521c0.002-0.149-0.024-0.231-0.202-0.225c-0.374,0.012-0.749,0.011-1.123,0
		c-0.172-0.005-0.207,0.064-0.207,0.219c0.004,2.975,0.004,5.95-0.002,8.925c0,0.201,0.073,0.245,0.254,0.239
		c0.322-0.012,0.646-0.018,0.967,0.002c0.242,0.015,0.318-0.056,0.316-0.307c-0.012-1.519-0.005-3.037-0.006-4.556
		c0-0.652,0.09-1.289,0.363-1.883c0.316-0.688,0.77-1.245,1.573-1.373c0.49-0.078,0.968,0.004,1.451,0.268
		c0-0.449-0.025-0.852,0.008-1.251C99.834,9.64,99.688,9.572,99.443,9.538z"/>
	<path class="st0" d="M130.942,16.81c0-2.279-0.003-4.557,0.005-6.836c0.001-0.236-0.047-0.335-0.305-0.315
		c-0.31,0.024-0.625,0.021-0.936,0.001c-0.23-0.015-0.3,0.05-0.298,0.29c0.012,1.467,0.006,2.934,0.006,4.401
		c0,1.478,0.003,2.955-0.004,4.433c-0.001,0.197,0.043,0.278,0.255,0.268c0.332-0.016,0.666-0.016,0.998,0
		c0.214,0.011,0.288-0.051,0.283-0.275C130.932,18.121,130.942,17.465,130.942,16.81z"/>
	<path class="st0" d="M130.186,5.347c-0.57,0.002-0.978,0.411-0.978,0.979c0,0.58,0.395,0.975,0.974,0.976
		c0.565,0.001,0.997-0.411,1.008-0.962C131.201,5.776,130.765,5.344,130.186,5.347z"/>
</g>
</svg>
