<?xml version="1.0" encoding="utf-8"?>
<!-- Generator: Adobe Illustrator 22.1.0, SVG Export Plug-In . SVG Version: 6.00 Build 0)  -->
<svg version="1.1" id="Layer_1" xmlns="http://www.w3.org/2000/svg" xmlns:xlink="http://www.w3.org/1999/xlink" x="0px" y="0px"
	 viewBox="0 0 15 18" style="enable-background:new 0 0 15 18;" xml:space="preserve">
<style type="text/css">
	.st0{fill:#FFFFFF;}
	.st1{fill:#323E48;}
</style>
<circle class="st0" cx="7.44" cy="10.406" r="7.285"/>
<g>
	<path class="st1" d="M5.184,9.877c0.317-0.001,0.634-0.001,0.952,0c0.101,0,0.176-0.034,0.211-0.147
		c0.034,0.123,0.121,0.147,0.225,0.147c0.408-0.001,0.817-0.001,1.224,0.001c0.105,0.001,0.202-0.009,0.257-0.131
		c0.045,0.107,0.123,0.131,0.218,0.13c0.195-0.002,0.389-0.003,0.584,0c0.109,0.002,0.179-0.04,0.225-0.14
		c0.153-0.319,0.312-0.634,0.466-0.953c0.021-0.045,0.05-0.069,0.097-0.079c0.166-0.038,0.295-0.132,0.394-0.268
		c0.188-0.265,0.23-0.56,0.189-0.875C10.158,7.036,9.767,6.605,9.25,6.492C9.225,6.485,9.197,6.483,9.173,6.488
		c-0.129,0.026-0.18,0.149-0.104,0.274c0.12,0.196,0.095,0.373-0.042,0.546C8.967,7.385,8.909,7.465,8.851,7.545
		C8.726,7.723,8.659,7.918,8.709,8.132C8.736,8.254,8.804,8.366,8.86,8.501C8.603,8.864,8.332,9.248,8.052,9.643
		C8.048,9.6,8.047,9.569,8.045,9.534c-0.094,0-0.184,0.001-0.275-0.001c-0.066-0.001-0.132,0-0.197-0.015
		C7.494,9.501,7.45,9.428,7.456,9.35C7.46,9.274,7.518,9.21,7.597,9.198c0.036-0.006,0.074-0.003,0.112-0.003
		c0.111,0,0.222,0,0.335,0c0-0.12,0-0.231,0-0.347c-0.034,0-0.063,0-0.092,0c-0.248,0-0.495,0.001-0.744-0.001
		C7.07,8.845,6.989,8.722,7.046,8.606C7.085,8.53,7.156,8.51,7.235,8.51c0.243,0,0.485,0,0.728,0c0.028,0,0.057,0,0.081,0
		c0-0.121,0-0.23,0-0.342c-0.055,0-0.106,0.001-0.157,0C7.794,8.166,7.701,8.169,7.608,8.16C7.513,8.153,7.457,8.086,7.457,7.996
		c0.001-0.088,0.059-0.154,0.154-0.162c0.09-0.007,0.181-0.005,0.271-0.006c0.054-0.001,0.109,0,0.162,0c0-0.121,0-0.231,0-0.342
		c-0.093,0-0.181,0-0.268,0c-0.187,0-0.372,0.002-0.559-0.001C7.103,7.483,7.024,7.405,7.027,7.31
		c0.005-0.096,0.08-0.161,0.192-0.162c0.106-0.001,0.214,0,0.32,0c0.167,0,0.335,0,0.51,0c0-0.159-0.005-0.31,0.001-0.461
		c0.005-0.105-0.032-0.181-0.13-0.224c-0.485,0-0.97,0-1.457,0C6.367,6.51,6.339,6.593,6.339,6.698
		c0.002,0.943,0.001,1.887,0.001,2.831c0,0.029,0,0.06,0,0.089C6.335,9.619,6.329,9.619,6.324,9.62
		C6.064,9.255,5.801,8.89,5.537,8.521C5.228,8.779,4.926,9.03,4.619,9.285c0.126,0.167,0.249,0.328,0.368,0.492
		C5.037,9.845,5.099,9.877,5.184,9.877z M9.084,7.822c0.045-0.08,0.105-0.154,0.161-0.228C9.401,7.381,9.483,7.26,9.501,6.973
		c0.192,0.138,0.308,0.314,0.362,0.53c0.052,0.209,0.053,0.42-0.04,0.617C9.788,8.199,9.728,8.269,9.664,8.325
		c-0.069,0.06-0.156,0.077-0.249,0.041C9.371,8.349,9.327,8.331,9.28,8.321C9.064,8.276,8.973,8.023,9.084,7.822z"/>
	<path class="st1" d="M5.213,8.245c-0.202-0.121-0.405-0.243-0.61-0.364C4.449,7.789,4.374,7.808,4.29,7.966c0,0.027,0,0.053,0,0.08
		C4.322,8.22,4.356,8.394,4.386,8.568C4.41,8.701,4.433,8.835,4.456,8.98c0.283-0.235,0.551-0.46,0.827-0.69
		C5.256,8.274,5.236,8.259,5.213,8.245z"/>
	<path class="st1" d="M9.417,10.553c0-0.033,0-0.063,0-0.095c-0.001-0.189-0.054-0.244-0.241-0.244c-1.432,0-2.863,0-4.295,0
		c-0.192,0-0.244,0.053-0.244,0.248c0,0.328,0,0.656,0,0.984c0,0.768,0.007,1.536-0.003,2.304c-0.007,0.532,0.418,0.915,0.905,0.909
		c1.01-0.014,2.02-0.003,3.031-0.005c0.395-0.001,0.742-0.277,0.822-0.663c0.024-0.116,0.023-0.239,0.025-0.358
		c0.003-0.224,0.001-0.448,0.001-0.683c0.24,0.003,0.464-0.011,0.673-0.113c0.211-0.103,0.382-0.25,0.508-0.449
		c0.124-0.197,0.183-0.413,0.185-0.645C10.788,11.163,10.265,10.467,9.417,10.553z M10.32,12.176
		c-0.198,0.336-0.509,0.457-0.897,0.425c0-0.563,0-1.125,0-1.695c0.366-0.035,0.666,0.072,0.871,0.379
		C10.485,11.573,10.494,11.881,10.32,12.176z"/>
</g>
</svg>
