<?xml version="1.0" encoding="utf-8"?>
<!-- Generator: Adobe Illustrator 22.1.0, SVG Export Plug-In . SVG Version: 6.00 Build 0)  -->
<svg version="1.1" id="Layer_1" xmlns="http://www.w3.org/2000/svg" xmlns:xlink="http://www.w3.org/1999/xlink" x="0px" y="0px"
	 viewBox="0 0 25 12.963" style="enable-background:new 0 0 25 12.963;" xml:space="preserve">
<style type="text/css">
	.st0{opacity:0.58;fill:url(#SVGID_1_);}
	.st1{opacity:0.14;}
	.st2{fill:#FDFDFD;}
</style>
<radialGradient id="SVGID_1_" cx="12.4795" cy="7.117" r="10.9281" gradientTransform="matrix(1 0 0 -0.759 0 11.8997)" gradientUnits="userSpaceOnUse">
	<stop  offset="0" style="stop-color:#DEF6FB"/>
	<stop  offset="0.013" style="stop-color:#DAF5FB"/>
	<stop  offset="0.2202" style="stop-color:#98E1F4"/>
	<stop  offset="0.4174" style="stop-color:#62D1EE"/>
	<stop  offset="0.5993" style="stop-color:#38C5EA"/>
	<stop  offset="0.7627" style="stop-color:#19BBE7"/>
	<stop  offset="0.9018" style="stop-color:#07B6E5"/>
	<stop  offset="1" style="stop-color:#00B4E4"/>
</radialGradient>
<rect x="-0.182" y="-0.227" class="st0" width="25.324" height="13.451"/>
<g>
	<g class="st1">
		<path d="M15.595,5.553c0-0.243,0-0.243-0.251-0.243c-0.264,0-0.529-0.008-0.792,0.003c-0.157,0.006-0.229-0.06-0.281-0.203
			c-0.194-0.532-0.4-1.059-0.601-1.588c-0.011,0-0.022-0.001-0.033-0.001c-0.41,0.164-0.818,0.333-1.23,0.492
			c-0.684,0.264-1.371,0.522-2.057,0.782C10.072,4.9,9.794,5.003,9.515,5.107C9.149,5.249,8.784,5.395,8.418,5.535
			c-0.082,0.031-0.12,0.058-0.081,0.157c0.28,0.711,0.555,1.423,0.829,2.137C9.377,8.38,9.585,8.932,9.791,9.485
			c0.037,0.098,0.105,0.118,0.198,0.118c1.818-0.001,3.636-0.001,5.453,0.001c0.117,0,0.158-0.038,0.157-0.156
			c-0.005-0.343,0-0.687,0-1.03C15.597,7.464,15.596,6.508,15.595,5.553z M9.853,8.128c0,0.015-0.007,0.029-0.013,0.054
			C9.735,8.081,9.725,7.947,9.68,7.831c-0.237-0.606-0.467-1.214-0.703-1.82C8.932,5.898,8.95,5.84,9.072,5.798
			C9.29,5.725,9.501,5.632,9.715,5.549c0.096-0.037,0.141-0.016,0.14,0.101C9.851,6.476,9.853,7.302,9.853,8.128z M11.097,5.017
			c0.684-0.269,1.371-0.531,2.057-0.796c0.214-0.083,0.264-0.053,0.339,0.165c0.087,0.255,0.187,0.505,0.285,0.755
			c0.042,0.11,0.029,0.169-0.108,0.169c-1.035-0.002-2.069-0.001-3.104-0.002c-0.026,0-0.057,0.005-0.079-0.038
			C10.676,5.154,10.892,5.098,11.097,5.017z M14.928,9.132c-0.737-0.008-1.475-0.003-2.212-0.003c-0.732,0-1.464-0.005-2.195,0.003
			c-0.159,0.002-0.198-0.05-0.198-0.202c0.006-0.985,0.006-1.97,0.001-2.955c-0.001-0.145,0.036-0.194,0.188-0.194
			c1.475,0.005,2.95,0.005,4.424,0c0.152-0.001,0.189,0.049,0.188,0.194c-0.006,0.985-0.006,1.97,0,2.955
			C15.126,9.082,15.087,9.134,14.928,9.132z"/>
		<path d="M14.241,7.307c-0.068-0.231-0.065-0.241-0.296-0.154c-0.122,0.046-0.184,0.019-0.235-0.094
			c-0.059-0.127-0.129-0.249-0.195-0.372c-0.037-0.069-0.063-0.124-0.131-0.012c-0.104,0.172-0.227,0.334-0.344,0.498
			c-0.198,0.277-0.403,0.55-0.595,0.831c-0.071,0.103-0.138,0.076-0.212,0.027c-0.098-0.065-0.192-0.135-0.285-0.207
			c-0.086-0.066-0.153-0.066-0.23,0.023c-0.212,0.245-0.434,0.482-0.65,0.724c-0.032,0.035-0.097,0.064-0.073,0.12
			s0.09,0.03,0.138,0.03c0.557,0.002,1.114,0.001,1.671,0.001c0.563,0,1.125-0.003,1.688,0.002c0.142,0.001,0.177-0.04,0.132-0.18
			C14.489,8.135,14.363,7.721,14.241,7.307z"/>
		<path d="M11.367,7.227c0.254-0.004,0.482-0.223,0.478-0.451c-0.004-0.243-0.21-0.451-0.448-0.452
			c-0.284-0.002-0.462,0.166-0.463,0.437C10.889,7.003,11.18,7.23,11.367,7.227z"/>
	</g>
	<g>
		<path class="st2" d="M15.501,5.412c0-0.243,0-0.243-0.251-0.243c-0.264,0-0.529-0.008-0.792,0.003
			c-0.157,0.006-0.229-0.06-0.281-0.203c-0.194-0.532-0.4-1.059-0.601-1.588c-0.011,0-0.022-0.001-0.033-0.001
			c-0.41,0.164-0.818,0.333-1.23,0.492c-0.684,0.264-1.371,0.522-2.057,0.782C9.978,4.759,9.7,4.862,9.421,4.966
			C9.055,5.108,8.69,5.254,8.324,5.394c-0.082,0.031-0.12,0.058-0.081,0.157c0.28,0.711,0.555,1.423,0.829,2.137
			c0.211,0.551,0.419,1.103,0.625,1.656c0.037,0.098,0.105,0.118,0.198,0.118c1.818-0.001,3.636-0.001,5.453,0.001
			c0.117,0,0.158-0.038,0.157-0.156c-0.005-0.343,0-0.687,0-1.03C15.503,7.323,15.502,6.367,15.501,5.412z M9.759,7.987
			c0,0.015-0.007,0.029-0.013,0.054C9.641,7.94,9.631,7.806,9.586,7.69C9.349,7.084,9.119,6.476,8.883,5.87
			C8.838,5.757,8.856,5.699,8.978,5.657c0.218-0.073,0.429-0.166,0.643-0.249c0.096-0.037,0.141-0.016,0.14,0.101
			C9.757,6.335,9.759,7.161,9.759,7.987z M11.003,4.876c0.684-0.269,1.371-0.531,2.057-0.796c0.214-0.083,0.264-0.053,0.339,0.165
			C13.486,4.5,13.586,4.75,13.684,5c0.042,0.11,0.029,0.169-0.108,0.169c-1.035-0.002-2.069-0.001-3.104-0.002
			c-0.026,0-0.057,0.005-0.079-0.038C10.582,5.013,10.798,4.957,11.003,4.876z M14.834,8.991c-0.737-0.008-1.475-0.003-2.212-0.003
			c-0.732,0-1.464-0.005-2.195,0.003c-0.159,0.002-0.198-0.05-0.198-0.202c0.006-0.985,0.006-1.97,0.001-2.955
			c-0.001-0.145,0.036-0.194,0.188-0.194c1.475,0.005,2.95,0.005,4.424,0c0.152-0.001,0.189,0.049,0.188,0.194
			c-0.006,0.985-0.006,1.97,0,2.955C15.032,8.941,14.993,8.993,14.834,8.991z"/>
		<path class="st2" d="M14.147,7.166c-0.068-0.231-0.065-0.241-0.296-0.154c-0.122,0.046-0.184,0.019-0.235-0.094
			c-0.059-0.127-0.129-0.249-0.195-0.372c-0.037-0.069-0.063-0.124-0.131-0.012c-0.104,0.172-0.227,0.334-0.344,0.498
			c-0.198,0.277-0.403,0.55-0.595,0.831c-0.071,0.103-0.138,0.076-0.212,0.027c-0.098-0.065-0.192-0.135-0.285-0.207
			c-0.086-0.066-0.153-0.066-0.23,0.023c-0.212,0.245-0.434,0.482-0.65,0.724c-0.032,0.035-0.097,0.064-0.073,0.12
			s0.09,0.03,0.138,0.03c0.557,0.002,1.114,0.001,1.671,0.001c0.563,0,1.125-0.003,1.688,0.002c0.142,0.001,0.177-0.04,0.132-0.18
			C14.395,7.994,14.269,7.58,14.147,7.166z"/>
		<path class="st2" d="M11.273,7.086c0.254-0.004,0.482-0.223,0.478-0.451c-0.004-0.243-0.21-0.451-0.448-0.452
			c-0.284-0.002-0.462,0.166-0.463,0.437C10.795,6.862,11.086,7.089,11.273,7.086z"/>
	</g>
</g>
</svg>
