<?xml version="1.0" encoding="utf-8"?>
<!-- Generator: Adobe Illustrator 21.1.0, SVG Export Plug-In . SVG Version: 6.00 Build 0)  -->
<svg version="1.1" id="Layer_1" xmlns="http://www.w3.org/2000/svg" xmlns:xlink="http://www.w3.org/1999/xlink" x="0px" y="0px"
	 viewBox="0 0 200 155" style="enable-background:new 0 0 200 155;" xml:space="preserve">
<style type="text/css">
	.st0{opacity:0.7;fill:#768693;enable-background:new    ;}
	.st1{fill:#FFFFFF;}
</style>
<circle class="st0" cx="100" cy="77.5" r="75.333"/>
<path id="valqkY_1_" class="st1" d="M60,116.871c0.523,0,0.925,0,1.327,0c25.761,0,51.523,0,77.284,0
	c1.383,0,1.388-0.003,1.388-1.391C140,92.179,140,68.877,139.998,45.576c0-0.305-0.027-0.611-0.043-0.954c-5.01,0-9.917,0-14.905,0
	c0,1.178-0.005,2.298,0.006,3.418c0.001,0.127,0.065,0.344,0.143,0.366c0.851,0.244,0.772,1.165,1.194,1.718
	c0.829,1.087,0.614,2.521,0.604,3.846c-0.01,1.227-0.259,2.349-1.205,3.224c-0.243,0.225-0.446,0.492-0.685,0.721
	c-0.674,0.643-1.174,1.576-2.248,1.611c-1.502,0.049-3.006,0.026-4.51,0.016c-0.222-0.001-0.502-0.031-0.655-0.163
	c-0.726-0.631-1.381-1.348-2.13-1.948c-1.346-1.077-1.598-2.503-1.483-4.094c0.052-0.721,0.035-1.446,0.065-2.169
	c0.008-0.195,0.025-0.522,0.125-0.56c0.842-0.324,0.561-1.417,1.293-1.824c0.223-0.124,0.451-0.46,0.462-0.708
	c0.049-1.145,0.022-2.294,0.022-3.453c-10.601,0-21.093,0-31.67,0c0,1.176-0.008,2.296,0.01,3.416
	c0.002,0.142,0.124,0.291,0.215,0.42c0.157,0.223,0.338,0.428,0.5,0.647c0.17,0.231,0.348,0.459,0.49,0.707
	c0.308,0.536,0.811,1.068,0.853,1.631c0.155,2.047,0.365,4.156-1.328,5.8c-0.236,0.229-0.445,0.485-0.683,0.711
	c-0.656,0.624-1.178,1.511-2.182,1.563c-1.499,0.078-3.006,0.04-4.509,0.023c-0.272-0.003-0.556-0.113-0.81-0.228
	c-0.275-0.124-0.537-0.292-0.778-0.477c-0.267-0.205-0.522-0.434-0.747-0.684c-0.176-0.197-0.252-0.502-0.452-0.657
	c-1.434-1.113-1.664-2.635-1.536-4.302c0.053-0.692,0.044-1.388,0.071-2.082c0.007-0.171-0.008-0.451,0.079-0.494
	c0.838-0.412,0.725-1.459,1.364-1.996c0.177-0.149,0.43-0.35,0.437-0.535c0.04-1.146,0.02-2.294,0.02-3.422
	c-5.209,0-10.308,0-15.396,0C60,68.746,60,92.732,60,116.871z M83.233,47.734c0.002,0,0.003,0,0.005,0
	c0-1.62,0.034-3.242-0.011-4.861c-0.032-1.142,0.377-2.409-0.656-3.337c-0.552-0.496-1.134-1.095-1.805-1.286
	c-0.821-0.234-1.678-0.156-2.52,0.485c-0.668,0.508-1.512,0.703-1.509,1.752c0,0.111-0.142,0.218-0.205,0.334
	c-0.136,0.25-0.376,0.505-0.377,0.758c-0.024,4.196-0.023,8.392-0.007,12.587c0.001,0.257,0.125,0.549,0.278,0.762
	c0.326,0.453,0.754,0.835,1.06,1.298c0.63,0.952,1.792,1.127,2.585,1.041c0.663-0.072,1.77,0.016,2.261-0.981
	c0.356-0.723,0.997-1.225,0.939-2.218C83.147,51.963,83.233,49.846,83.233,47.734z M123.88,47.661c-0.005,0-0.009,0-0.014,0
	c0-2.373,0.009-4.746-0.008-7.119c-0.003-0.458,0.092-0.977-0.602-1.159c-0.425-0.111-1.016-0.341-1.146-0.67
	c-0.284-0.718-0.817-0.486-1.277-0.551c-0.78-0.111-1.38,0.287-2.066,0.606c-0.837,0.39-1.344,0.801-1.367,1.732
	c-0.006,0.229,0.022,0.567-0.109,0.667c-0.78,0.593-0.462,1.415-0.487,2.148c-0.04,1.156-0.098,2.323,0.007,3.471
	c0.25,2.726-0.682,5.535,0.573,8.187c0.203,0.43,0.356,0.906,0.65,1.264c0.255,0.31,0.658,0.525,1.033,0.705
	c0.386,0.185,0.811,0.302,1.23,0.402c0.214,0.051,0.507,0.082,0.67-0.024c0.635-0.415,1.542-0.363,1.988-1.052
	c0.355-0.55,0.993-0.88,0.958-1.749C123.82,52.236,123.88,49.948,123.88,47.661z M132.169,64.65c0,14.81,0,29.54,0,44.342
	c-21.454,0-42.883,0-64.366,0c0-14.766,0-29.517,0-44.342C89.23,64.65,110.658,64.65,132.169,64.65z M111.589,81.47
	c0,0.002,0,0.004,0,0.005c1.156,0,2.312-0.007,3.468,0.003c0.586,0.005,0.929-0.199,0.926-0.85c-0.01-2.139,0.022-4.278-0.014-6.416
	c-0.011-0.636-0.309-1.12-1.094-1.113c-2.168,0.02-4.336,0.004-6.503,0.013c-0.788,0.003-1.299,0.522-1.301,1.309
	c-0.006,1.994,0.034,3.99-0.021,5.983c-0.023,0.831,0.344,1.074,1.071,1.069C109.277,81.465,110.433,81.47,111.589,81.47z
	 M115.446,103.311c0.188-0.435,0.504-0.836,0.514-1.245c0.051-2.112,0.018-4.226,0.027-6.339c0.002-0.514-0.251-0.757-0.733-0.758
	c-2.46-0.005-4.921-0.006-7.381,0.009c-0.534,0.003-0.822,0.246-0.813,0.863c0.031,2.055,0.004,4.11,0.013,6.165
	c0.003,0.607,0.712,1.3,1.322,1.302C110.71,103.315,113.025,103.311,115.446,103.311z M111.612,84.033c0,0.003,0,0.006,0,0.009
	c-1.216,0-2.432-0.012-3.647,0.006c-0.484,0.007-0.909,0.089-0.901,0.766c0.024,2.084-0.003,4.169,0.015,6.253
	c0.006,0.719,0.677,1.32,1.412,1.321c2.026,0.004,4.053,0.002,6.079,0.002c1.047,0,1.405-0.343,1.412-1.428
	c0.013-1.997-0.018-3.995,0.015-5.992c0.012-0.746-0.322-0.959-0.998-0.944C113.87,84.051,112.741,84.033,111.612,84.033z
	 M92.865,92.331c0-2.786,0-5.511,0-8.228c-2.847,0-5.611,0-8.385,0c0,2.775,0,5.481,0,8.228
	C87.307,92.331,90.069,92.331,92.865,92.331z M104.495,84.1c-2.866,0-5.628,0-8.411,0c0,2.774,0,5.48,0,8.21
	c2.829,0,5.589,0,8.411,0C104.495,89.554,104.495,86.878,104.495,84.1z M96.088,81.386c2.845,0,5.602,0,8.456,0
	c0-2.625,0.015-5.161-0.03-7.696c-0.003-0.192-0.426-0.524-0.67-0.539c-1.066-0.065-2.137-0.039-3.206-0.041
	c-1.494-0.003-2.988-0.001-4.55-0.001C96.088,75.925,96.088,78.627,96.088,81.386z M84.485,103.247c2.861,0,5.593,0,8.393,0
	c0-2.765,0-5.462,0-8.219c-2.812,0-5.592,0-8.393,0C84.485,97.792,84.485,100.491,84.485,103.247z M96.078,103.296
	c2.666,0,5.208-0.004,7.749,0.003c0.589,0.002,0.726-0.35,0.726-0.842c0-1.187,0.004-2.374,0.005-3.561c0.001-1.264,0-2.528,0-3.857
	c-2.907,0-5.691,0-8.481,0C96.078,97.802,96.078,100.486,96.078,103.296z M84.496,73.167c0,2.786,0,5.509,0,8.235
	c2.841,0,5.601,0,8.383,0c0-2.774,0-5.476,0-8.235C90.076,73.167,87.339,73.167,84.496,73.167z M118.672,81.409
	c2.868,0,5.57,0,8.286,0c0-2.79,0-5.513,0-8.3c-2.232,0-4.368,0.002-6.505-0.001c-2.172-0.003-1.755,0.05-1.775,1.778
	C118.653,77.02,118.672,79.153,118.672,81.409z M81.277,84.113c-2.812,0-5.517,0-8.228,0c0,2.779,0,5.479,0,8.214
	c2.785,0,5.486,0,8.228,0C81.277,89.555,81.277,86.848,81.277,84.113z M118.749,84.09c-0.035,0.335-0.079,0.561-0.079,0.786
	c-0.003,2.166,0.036,4.333-0.015,6.498c-0.019,0.83,0.331,1.031,1.06,1.022c1.877-0.022,3.754-0.007,5.632-0.006
	c0.537,0,1.074,0,1.618,0c0-2.856,0-5.578,0-8.3C124.196,84.09,121.517,84.09,118.749,84.09z M72.989,95.016
	c0,2.624,0.012,5.134-0.008,7.643c-0.005,0.659,0.401,0.655,0.855,0.655c2.312-0.002,4.624,0.001,6.935-0.006
	c0.161,0,0.321-0.064,0.494-0.102c0-2.749,0-5.453,0-8.191C78.508,95.016,75.805,95.016,72.989,95.016z"/>
</svg>
