<?xml version="1.0" encoding="utf-8"?>
<!-- Generator: Adobe Illustrator 21.1.0, SVG Export Plug-In . SVG Version: 6.00 Build 0)  -->
<svg version="1.1" id="Layer_1" xmlns="http://www.w3.org/2000/svg" xmlns:xlink="http://www.w3.org/1999/xlink" x="0px" y="0px"
	 viewBox="0 0 36 10" style="enable-background:new 0 0 36 10;" xml:space="preserve">
<style type="text/css">
	.st0{fill:#00B3E3;}
	.st1{fill:#FFFFFF;}
</style>
<g>
	<path class="st0" d="M4.285,3.401c0.069,0,0.125-0.056,0.125-0.125V2.937c0-0.069-0.056-0.125-0.125-0.125S4.16,2.869,4.16,2.937
		v0.339C4.16,3.345,4.216,3.401,4.285,3.401z"/>
	<path class="st0" d="M6.022,3.401c0.069,0,0.125-0.056,0.125-0.125V2.937c0-0.069-0.056-0.125-0.125-0.125
		c-0.069,0-0.125,0.056-0.125,0.125v0.339C5.897,3.345,5.953,3.401,6.022,3.401z"/>
	<path class="st0" d="M5.885,4.792c0.074-0.001,0.147,0,0.22,0c0.021,0,0.042,0,0.063,0c0-0.112,0-0.218,0-0.324
		c-0.108,0-0.213,0-0.321,0C5.846,4.48,5.844,4.489,5.844,4.498c0,0.085,0.001,0.169,0,0.254C5.842,4.784,5.856,4.792,5.885,4.792z"
		/>
	<path class="st0" d="M5.701,4.465c-0.044,0.001-0.088,0-0.132,0c0,0,0,0,0,0c-0.047,0-0.095,0-0.142,0
		c-0.019,0-0.036,0.003-0.036,0.03c0.001,0.081,0,0.163,0,0.244c0,0.028,0.026,0.052,0.055,0.052c0.079,0,0.158,0,0.237,0
		c0.041,0,0.055-0.014,0.055-0.056c0-0.078,0-0.156,0-0.234C5.74,4.472,5.727,4.464,5.701,4.465z"/>
	<path class="st0" d="M5.291,4.061c0-0.007-0.017-0.02-0.026-0.021C5.223,4.038,5.181,4.038,5.14,4.038c-0.058,0-0.117,0-0.178,0
		c0,0.11,0,0.216,0,0.323c0.111,0,0.219,0,0.33,0C5.292,4.259,5.292,4.16,5.291,4.061z"/>
	<path class="st0" d="M5.432,4.365c0.045,0,0.09,0,0.135,0l0,0c0.045,0,0.09,0,0.135,0c0.023,0,0.037-0.008,0.036-0.033
		c0-0.084,0.001-0.167,0-0.251c0-0.025-0.012-0.044-0.043-0.043c-0.085,0.001-0.17,0-0.254,0c-0.031,0-0.051,0.02-0.051,0.051
		c0,0.078,0.001,0.156-0.001,0.234C5.389,4.356,5.404,4.365,5.432,4.365z"/>
	<path class="st0" d="M4.509,5.216c0.112,0,0.219,0,0.328,0c0-0.108,0-0.213,0-0.321c-0.11,0-0.218,0-0.328,0
		C4.509,5.002,4.509,5.108,4.509,5.216z"/>
	<path class="st0" d="M5.422,4.893c-0.021,0-0.032,0.01-0.032,0.034c0.001,0.08,0,0.161,0,0.241c0,0.024,0.028,0.051,0.052,0.051
		c0.091,0,0.181,0,0.275,0c0.007-0.017,0.019-0.033,0.02-0.049c0.002-0.082,0-0.165,0.001-0.247c0-0.02-0.01-0.03-0.029-0.03
		C5.614,4.892,5.518,4.892,5.422,4.893z"/>
	<path class="st0" d="M5.844,4.362c0.112,0,0.218,0,0.323,0c0-0.109,0-0.215,0-0.324c-0.087,0-0.17,0-0.254,0
		c-0.085,0-0.069,0.002-0.069,0.07C5.843,4.191,5.844,4.274,5.844,4.362z"/>
	<path class="st0" d="M4.836,4.468c-0.111,0-0.219,0-0.327,0c0,0.109,0,0.214,0,0.321c0.111,0,0.218,0,0.327,0
		C4.836,4.68,4.836,4.574,4.836,4.468z"/>
	<path class="st0" d="M4.093,5.218c0.09,0,0.181,0,0.271,0c0.006,0,0.013-0.002,0.019-0.004c0-0.107,0-0.213,0-0.32
		c-0.108,0-0.213,0-0.323,0c0,0.102,0,0.201,0,0.299C4.059,5.218,4.075,5.218,4.093,5.218z"/>
	<path class="st0" d="M5.29,4.468c-0.112,0-0.22,0-0.328,0c0,0.108,0,0.214,0,0.321c0.111,0,0.218,0,0.328,0
		C5.29,4.681,5.29,4.576,5.29,4.468z"/>
	<path class="st0" d="M6.677,3.122c0-0.012-0.001-0.024-0.001-0.038l-0.5,0v0.143C6.18,3.243,6.194,3.254,6.194,3.272
		c0,0.093-0.075,0.168-0.168,0.168c-0.093,0-0.168-0.075-0.168-0.168c0-0.018,0.014-0.029,0.019-0.044V3.085l-1.442,0v0.142
		c0.005,0.016,0.019,0.027,0.019,0.044c0,0.093-0.075,0.168-0.168,0.168c-0.093,0-0.168-0.075-0.168-0.168
		c0-0.018,0.014-0.029,0.019-0.044V3.085l-0.583,0c0,0.941,0,1.719,0,2.662c0.02,0,0.036,0,0.052,0c1.006,0,2.013,0,3.019,0
		c0.054,0,0.054,0,0.054-0.055C6.677,4.783,6.677,4.032,6.677,3.122z M6.371,5.44c-0.838,0-1.675,0-2.514,0c0-0.577,0-1.153,0-1.732
		c0.837,0,1.674,0,2.514,0C6.371,4.286,6.371,4.862,6.371,5.44z"/>
	<path class="st0" d="M4.383,4.468c-0.11,0-0.215,0-0.321,0c0,0.109,0,0.214,0,0.321c0.109,0,0.214,0,0.321,0
		C4.383,4.681,4.383,4.575,4.383,4.468z"/>
	<path class="st0" d="M4.837,4.04c-0.11,0-0.216,0-0.327,0c0,0.109,0,0.215,0,0.321c0.111,0,0.219,0,0.327,0
		C4.837,4.254,4.837,4.149,4.837,4.04z"/>
	<path class="st0" d="M5.264,5.218c0.023,0,0.028-0.014,0.028-0.033c0-0.046,0-0.093,0-0.139c0-0.049,0-0.099,0-0.151
		c-0.113,0-0.222,0-0.331,0c0,0.108,0,0.213,0,0.322C5.065,5.218,5.165,5.217,5.264,5.218z"/>
</g>
<g>
	<path class="st0" d="M2.9,6.68H1.965v0.854H3.03v0.069H1.896V5.74H3.03v0.069H1.965v0.802H2.9V6.68z"/>
	<path class="st0" d="M3.661,7.494L4.16,6.218h0.074L3.695,7.604H3.627L3.089,6.218h0.074L3.661,7.494z"/>
	<path class="st0" d="M4.922,7.63c-0.112,0-0.214-0.03-0.308-0.09C4.521,7.479,4.448,7.397,4.395,7.292
		c-0.053-0.104-0.08-0.222-0.08-0.35V6.884c0-0.128,0.026-0.245,0.077-0.352c0.051-0.107,0.122-0.189,0.211-0.25
		c0.09-0.06,0.188-0.09,0.293-0.09c0.155,0,0.281,0.055,0.379,0.166c0.098,0.109,0.147,0.254,0.147,0.434v0.073H4.385v0.075
		c0,0.112,0.023,0.217,0.071,0.312s0.113,0.171,0.196,0.226C4.735,7.534,4.825,7.56,4.922,7.56c0.093,0,0.172-0.015,0.237-0.046
		c0.065-0.031,0.123-0.079,0.174-0.144l0.048,0.035C5.279,7.555,5.125,7.63,4.922,7.63z M4.896,6.262
		c-0.135,0-0.249,0.05-0.343,0.15C4.459,6.513,4.405,6.641,4.389,6.797h0.965V6.78c0-0.094-0.02-0.181-0.059-0.263
		C5.254,6.437,5.2,6.375,5.13,6.33C5.06,6.285,4.983,6.262,4.896,6.262z"/>
	<path class="st0" d="M5.749,6.542c0.045-0.107,0.112-0.192,0.2-0.255S6.134,6.193,6.24,6.193c0.148,0,0.259,0.043,0.331,0.127
		S6.68,6.531,6.681,6.7v0.904H6.612V6.699C6.611,6.55,6.58,6.441,6.521,6.369c-0.06-0.07-0.155-0.106-0.285-0.106
		c-0.119,0-0.223,0.042-0.31,0.128C5.838,6.474,5.779,6.584,5.749,6.717v0.887H5.68V6.218h0.069V6.542z"/>
	<path class="st0" d="M7.204,5.845v0.373h0.315v0.07H7.204v0.983c0,0.099,0.016,0.171,0.048,0.218
		c0.032,0.047,0.085,0.07,0.161,0.07c0.037,0,0.083-0.004,0.137-0.011l0.012,0.064C7.533,7.625,7.485,7.63,7.416,7.63
		c-0.101,0-0.173-0.027-0.216-0.084C7.157,7.49,7.135,7.402,7.134,7.281V6.289H6.878v-0.07h0.256V5.845H7.204z"/>
	<path class="st1" d="M9.682,6.806H9.035v0.798H8.966V5.74H9.56c0.187,0,0.335,0.049,0.446,0.145
		c0.11,0.097,0.166,0.229,0.166,0.394c0,0.127-0.04,0.238-0.118,0.333c-0.079,0.096-0.18,0.154-0.302,0.178l0.498,0.798v0.018
		h-0.073L9.682,6.806z M9.035,6.737h0.587c0.144,0,0.259-0.043,0.348-0.13c0.088-0.088,0.133-0.197,0.133-0.329
		c0-0.146-0.049-0.26-0.147-0.343C9.859,5.851,9.725,5.809,9.555,5.809h-0.52V6.737z"/>
	<path class="st1" d="M11.085,7.63c-0.112,0-0.214-0.03-0.308-0.09c-0.093-0.061-0.167-0.143-0.219-0.248
		c-0.053-0.104-0.08-0.222-0.08-0.35V6.884c0-0.128,0.026-0.245,0.077-0.352c0.051-0.107,0.122-0.189,0.211-0.25
		c0.09-0.06,0.188-0.09,0.293-0.09c0.155,0,0.281,0.055,0.379,0.166c0.098,0.109,0.147,0.254,0.147,0.434v0.073h-1.038v0.075
		c0,0.112,0.023,0.217,0.071,0.312s0.113,0.171,0.196,0.226c0.083,0.055,0.174,0.081,0.271,0.081c0.093,0,0.172-0.015,0.237-0.046
		c0.065-0.031,0.123-0.079,0.174-0.144l0.048,0.035C11.441,7.555,11.288,7.63,11.085,7.63z M11.059,6.262
		c-0.135,0-0.249,0.05-0.343,0.15c-0.094,0.101-0.149,0.229-0.165,0.384h0.965V6.78c0-0.094-0.02-0.181-0.059-0.263
		c-0.04-0.08-0.095-0.143-0.164-0.188C11.223,6.285,11.145,6.262,11.059,6.262z"/>
	<path class="st1" d="M11.778,6.897c0-0.221,0.046-0.394,0.14-0.518c0.093-0.124,0.22-0.187,0.383-0.187
		c0.103,0,0.195,0.023,0.276,0.07s0.146,0.115,0.193,0.203V6.218h0.069v1.918H12.77V7.389c-0.05,0.077-0.115,0.137-0.197,0.179
		C12.492,7.609,12.4,7.63,12.298,7.63c-0.16,0-0.287-0.063-0.38-0.19c-0.093-0.127-0.14-0.302-0.14-0.523V6.897z M11.85,6.924
		c0,0.196,0.039,0.352,0.116,0.465c0.078,0.114,0.188,0.171,0.331,0.171c0.114,0,0.212-0.025,0.293-0.076s0.141-0.125,0.181-0.223
		V6.612c-0.04-0.115-0.101-0.202-0.182-0.261c-0.082-0.059-0.178-0.089-0.29-0.089c-0.142,0-0.252,0.056-0.331,0.168
		C11.889,6.543,11.85,6.707,11.85,6.924z"/>
	<path class="st1" d="M14.14,7.604V7.381c-0.041,0.076-0.101,0.138-0.179,0.182c-0.079,0.045-0.178,0.067-0.298,0.067
		c-0.151,0-0.265-0.044-0.34-0.132c-0.076-0.089-0.114-0.218-0.116-0.387V6.218h0.069v0.896c0.002,0.146,0.035,0.258,0.1,0.333
		C13.44,7.523,13.535,7.56,13.66,7.56c0.132,0,0.24-0.03,0.322-0.093c0.083-0.062,0.135-0.154,0.158-0.274V6.218h0.07v1.386H14.14z"
		/>
	<path class="st1" d="M15.079,7.63c-0.112,0-0.214-0.03-0.308-0.09c-0.093-0.061-0.167-0.143-0.219-0.248
		c-0.053-0.104-0.08-0.222-0.08-0.35V6.884c0-0.128,0.026-0.245,0.077-0.352c0.051-0.107,0.122-0.189,0.211-0.25
		c0.09-0.06,0.188-0.09,0.293-0.09c0.155,0,0.281,0.055,0.379,0.166c0.098,0.109,0.147,0.254,0.147,0.434v0.073h-1.038v0.075
		c0,0.112,0.023,0.217,0.071,0.312s0.113,0.171,0.196,0.226c0.083,0.055,0.174,0.081,0.271,0.081c0.093,0,0.172-0.015,0.237-0.046
		c0.065-0.031,0.123-0.079,0.174-0.144l0.048,0.035C15.436,7.555,15.283,7.63,15.079,7.63z M15.054,6.262
		c-0.135,0-0.249,0.05-0.343,0.15c-0.094,0.101-0.149,0.229-0.165,0.384h0.965V6.78c0-0.094-0.02-0.181-0.059-0.263
		c-0.04-0.08-0.095-0.143-0.164-0.188C15.218,6.285,15.14,6.262,15.054,6.262z"/>
	<path class="st1" d="M16.691,7.265c0-0.169-0.144-0.283-0.43-0.344c-0.172-0.036-0.292-0.084-0.36-0.142S15.8,6.643,15.8,6.543
		c0-0.102,0.043-0.186,0.128-0.25c0.086-0.066,0.198-0.1,0.335-0.1c0.149,0,0.27,0.036,0.36,0.107s0.136,0.168,0.136,0.289h-0.07
		c0-0.094-0.04-0.172-0.118-0.233c-0.079-0.062-0.181-0.094-0.307-0.094c-0.121,0-0.217,0.026-0.288,0.079
		c-0.071,0.053-0.106,0.119-0.106,0.199c0,0.062,0.013,0.11,0.04,0.146c0.026,0.035,0.069,0.067,0.129,0.096
		c0.06,0.028,0.146,0.057,0.261,0.083c0.115,0.026,0.205,0.058,0.271,0.093c0.067,0.036,0.115,0.078,0.145,0.128
		c0.03,0.049,0.044,0.108,0.044,0.18c0,0.109-0.044,0.197-0.134,0.264c-0.089,0.066-0.207,0.1-0.352,0.1
		c-0.155,0-0.281-0.035-0.375-0.105c-0.095-0.07-0.143-0.161-0.143-0.272h0.069c0.007,0.098,0.05,0.174,0.128,0.228
		c0.079,0.055,0.186,0.081,0.321,0.081c0.124,0,0.224-0.028,0.301-0.086C16.653,7.417,16.691,7.347,16.691,7.265z"/>
	<path class="st1" d="M17.231,5.845v0.373h0.315v0.07h-0.315v0.983c0,0.099,0.016,0.171,0.048,0.218
		c0.032,0.047,0.085,0.07,0.161,0.07c0.037,0,0.083-0.004,0.137-0.011l0.012,0.064C17.56,7.625,17.512,7.63,17.443,7.63
		c-0.101,0-0.173-0.027-0.216-0.084c-0.043-0.056-0.065-0.144-0.066-0.265V6.289h-0.256v-0.07h0.256V5.845H17.231z"/>
</g>
</svg>
