<?xml version="1.0" encoding="utf-8"?>
<!-- Generator: Adobe Illustrator 22.1.0, SVG Export Plug-In . SVG Version: 6.00 Build 0)  -->
<svg version="1.1" id="Layer_1" xmlns="http://www.w3.org/2000/svg" xmlns:xlink="http://www.w3.org/1999/xlink" x="0px" y="0px"
	 viewBox="0 0 15 18" style="enable-background:new 0 0 15 18;" xml:space="preserve">
<style type="text/css">
	.st0{fill:#FFFFFF;}
	.st1{fill:#323E48;}
</style>
<circle class="st0" cx="7.44" cy="10.406" r="7.285"/>
<g id="USGNOq_1_">
	<g>
		<path class="st1" d="M6.07,10.26c0.272,0.754,0.531,1.484,0.925,2.156c0.009,0.015,0.022,0.027,0.046,0.055
			c0.03-0.406,0.062-0.793,0.245-1.158c-0.023-0.02-0.048-0.042-0.073-0.064c-0.207-0.185-0.23-0.525-0.049-0.736
			c0.116-0.135,0.263-0.181,0.433-0.137c0.164,0.042,0.298,0.214,0.319,0.397c0.025,0.219-0.044,0.399-0.237,0.532
			c0.177,0.363,0.221,0.755,0.256,1.156c0.423-0.683,0.689-1.434,0.97-2.211c0.237,0.083,0.476,0.15,0.701,0.247
			c0.821,0.356,1.25,0.999,1.363,1.876c0.083,0.647-0.024,1.269-0.202,1.886c-0.025,0.087-0.08,0.076-0.14,0.076
			c-0.875,0-1.75,0.001-2.624,0.001c-1.211,0-2.422-0.002-3.633,0.003c-0.114,0-0.163-0.028-0.196-0.144
			c-0.16-0.574-0.258-1.154-0.194-1.753c0.11-1.026,0.647-1.713,1.626-2.048C5.757,10.344,5.912,10.306,6.07,10.26z"/>
		<path class="st1" d="M5.81,8.123c0.014-0.498,0.182-0.981,0.569-1.374c0.624-0.633,1.569-0.64,2.206-0.021
			C9.33,7.453,9.373,8.755,8.677,9.53c-0.738,0.822-1.951,0.711-2.545-0.233C5.915,8.952,5.812,8.575,5.81,8.123z"/>
	</g>
</g>
</svg>
