<?xml version="1.0" encoding="utf-8"?>
<!-- Generator: Adobe Illustrator 24.0.3, SVG Export Plug-In . SVG Version: 6.00 Build 0)  -->
<svg version="1.1" id="Layer_1" xmlns="http://www.w3.org/2000/svg" xmlns:xlink="http://www.w3.org/1999/xlink" x="0px" y="0px"
	 viewBox="0 0 50 50" style="enable-background:new 0 0 50 50;" xml:space="preserve">
<style type="text/css">
	.st0{fill:#FFFFFF;}
</style>
<g>
	<path class="st0" d="M27.211,22.741c0.903,0.562,1.918,0.348,2.528-0.513c0.514-0.725,0.307-1.76-0.485-2.386
		c-1.08-0.853-2.169-1.696-3.247-2.551c-1.181-0.936-2.362-1.872-3.526-2.828c-0.464-0.381-0.411-0.953,0.099-1.144
		c1.201-0.45,2.017-1.311,2.697-2.355c0.117-0.18,0.422-0.35,0.624-0.333c0.204,0.016,0.41,0.25,0.578,0.425
		c0.255,0.266,0.423,0.664,0.726,0.828c0.758,0.409,1.558,0.752,2.365,1.058c0.698,0.265,0.803,0.38,0.749,1.137
		c-0.069,0.976-0.116,1.953-0.175,2.984c0.841,0,1.628,0,2.435,0c0.043-0.188,0.086-0.385,0.132-0.58
		c0.27-1.138,0.49-2.292,0.83-3.409c0.251-0.826,0.2-1.463-0.436-2.054c-0.274-0.254-0.593-0.461-0.898-0.68
		c-1.823-1.31-3.677-2.582-5.46-3.944c-0.778-0.595-1.595-0.869-2.533-0.823c-0.634,0.031-1.275,0.093-1.894,0.229
		c-3.38,0.743-6.752,1.521-10.131,2.266c-0.342,0.075-0.434,0.204-0.432,0.54c0.013,2.534,0.006,5.067,0.007,7.601
		c0,0.142,0.013,0.284,0.022,0.477c1.246,0.119,2.468,0.241,3.692,0.35c2.009,0.179,3.88,0.739,5.59,1.848
		C23.095,20.198,25.158,21.462,27.211,22.741z"/>
	<path class="st0" d="M45.269,33.094c-0.673-0.604-1.626-0.7-2.374-0.226c-1.909,1.21-3.818,2.422-5.718,3.646
		c-0.152,0.098-0.29,0.282-0.345,0.454c-0.392,1.242-1.224,2.001-2.477,2.317c-0.407,0.103-0.816,0.198-1.225,0.297
		c-1.549,0.373-3.097,0.749-4.647,1.118c-0.45,0.107-0.825-0.083-0.905-0.438c-0.09-0.397,0.141-0.721,0.604-0.845
		c0.042-0.011,0.084-0.024,0.126-0.035c1.929-0.466,3.858-0.93,5.787-1.397c1.043-0.252,1.674-1.225,1.447-2.224
		c-0.222-0.977-1.185-1.57-2.241-1.356c-0.724,0.147-1.45,0.296-2.159,0.498c-1.903,0.542-3.773,0.546-5.621-0.222
		c-0.237-0.099-0.501-0.146-0.757-0.185c-1.59-0.242-3.156-0.045-4.702,0.316c-1.107,0.259-2.198,0.588-3.276,0.881
		c0,2.841,0,5.59,0,8.408c0.171,0,0.3,0,0.429,0c5.136,0.02,10.272,0.032,15.409,0.069c0.711,0.005,1.28-0.207,1.82-0.663
		c2.183-1.841,4.387-3.657,6.584-5.482c1.405-1.167,2.811-2.333,4.214-3.502C45.785,34.073,45.791,33.562,45.269,33.094z"/>
	<path class="st0" d="M29.933,18.596c0.723,0.542,1.217,1.21,1.39,2.09c0.173,0.883-0.028,1.685-0.548,2.454
		c0.302,0.093,0.562,0.171,0.82,0.252c0.276,0.087,0.556,0.165,0.825,0.27c0.763,0.295,1.086,0.75,1.085,1.499
		c-0.001,0.832-0.458,1.433-1.296,1.689c-0.23,0.07-0.47,0.108-0.697,0.159c-0.018,0.199-0.034,0.367-0.049,0.534
		c-0.205,0-0.383,0-0.567,0c-0.012-0.22-0.021-0.405-0.033-0.619c-0.801-0.121-1.532-0.382-2.132-0.973
		c0.234-0.253,0.437-0.473,0.607-0.658c0.532,0.256,1.018,0.49,1.616,0.778c0-0.659,0.002-1.15-0.002-1.64
		c-0.001-0.068-0.015-0.15-0.055-0.201c-0.132-0.167-1.049-0.328-1.264-0.228c-1.083,0.501-2.133,0.437-3.155-0.174
		c-0.29-0.174-0.585-0.34-0.887-0.516c-0.53,1.805,0.729,4.329,2.695,5.481c2.179,1.276,5.026,0.887,6.801-0.929
		c1.802-1.845,2.104-4.636,0.777-6.846C34.685,19.056,32.018,17.845,29.933,18.596z"/>
	<path class="st0" d="M12.028,33.388c-0.724,0.019-1.264,0.609-1.265,1.343c-0.006,3.356-0.005,6.713,0.002,10.069
		c0.002,0.682,0.472,1.265,1.158,1.298c1.167,0.056,2.338,0.015,3.523,0.015c0-4.255,0-8.482,0-12.733
		C14.285,33.381,13.156,33.359,12.028,33.388z M13.78,36.702c-0.026,0.385-0.282,0.589-0.676,0.584
		c-0.398-0.005-0.617-0.227-0.658-0.607c-0.026-0.243-0.005-0.49-0.005-0.736c0-0.245-0.021-0.493,0.004-0.736
		c0.04-0.383,0.271-0.603,0.661-0.608c0.389-0.005,0.648,0.202,0.673,0.589C13.813,35.691,13.814,36.199,13.78,36.702z"/>
	<path class="st0" d="M7.352,6.007C6.362,6.01,5.822,6.551,5.82,7.541c-0.003,1.36-0.002,2.721-0.002,4.081
		c0,1.968-0.004,3.936,0.004,5.904c0.003,0.783,0.517,1.395,1.239,1.415c1.099,0.03,2.2,0.008,3.325,0.008c0-4.344,0-8.632,0-12.942
		C9.35,6.006,8.351,6.004,7.352,6.007z M8.782,16.504c-0.025,0.408-0.274,0.631-0.675,0.625c-0.375-0.006-0.632-0.228-0.646-0.61
		c-0.018-0.489-0.017-0.981,0.001-1.47c0.014-0.372,0.286-0.608,0.651-0.61c0.37-0.002,0.639,0.227,0.666,0.596
		c0.019,0.258,0.004,0.519,0.004,0.778c0.001,0,0.001,0,0.002,0C8.785,16.042,8.796,16.274,8.782,16.504z"/>
	<path class="st0" d="M32.436,25.36c0.015-0.416-0.272-0.688-0.915-0.842c0,0.529,0,1.036,0,1.546
		C32.123,25.987,32.422,25.751,32.436,25.36z"/>
</g>
</svg>
