<?xml version="1.0" encoding="utf-8"?>
<!-- Generator: Adobe Illustrator 21.1.0, SVG Export Plug-In . SVG Version: 6.00 Build 0)  -->
<svg version="1.1" id="Layer_1" xmlns="http://www.w3.org/2000/svg" xmlns:xlink="http://www.w3.org/1999/xlink" x="0px" y="0px"
	 viewBox="0 0 400 58.333" style="enable-background:new 0 0 400 58.333;" xml:space="preserve">
<style type="text/css">
	.st0{fill:#FFFFFF;}
</style>
<g>
	<path class="st0" d="M107.754,18.769c0,0.81-0.27,1.419-0.473,2.196l-0.845,3.142c-1.756,6.554-3.851,13.648-3.851,20.439
		c0,1.317,0,2.702,0.304,3.987c0.101,0.439,0.304,0.845,0.405,1.283c-0.203,0.035-0.405,0.035-0.608,0.035
		c-0.98,0-1.722-0.574-2.06-1.487c-0.642-1.79-0.946-5.033-0.946-6.959c0-1.047,0.135-2.095,0.236-3.142
		c0.101-0.912,0.168-1.857,0.304-2.77c0.439-3.007,1.351-5.912,2.128-8.817c0.169-0.642,0.878-2.804,0.878-3.278l-0.371,0.507
		c-1.756,2.466-3.446,5.067-4.965,7.669c-1.047,1.79-1.959,3.75-2.702,5.709c-0.033,0.101-0.067,0.203-0.067,0.304
		c0,0.27,0.168,0.541,0.168,0.81c0,0.236-0.27,0.338-0.473,0.338c-0.135,0-0.236-0.033-0.338-0.101l-0.136,0.169
		c-0.27-0.101-0.541-0.169-0.777-0.271c-1.486-0.676-1.284-3.243-1.284-4.628c0-3.547,0.236-7.06,0.574-10.574
		c-1.993,3.75-3.716,7.669-5.101,11.689c-0.406,1.216-0.709,2.433-0.946,3.716l-0.068,0.304l-0.371,0.033
		c-0.033-0.101-0.033-0.236-0.033-0.338c0-0.371,0.101-0.744,0.168-1.115c0.541-2.804,1.824-5.473,2.905-8.108
		c0.236-0.574,0.541-1.081,0.744-1.689l0.067-0.236c0.371-0.946,0.946-1.824,1.284-2.804c-0.506,0.878-0.878,1.857-1.318,2.77
		c-1.216,2.567-2.23,5.236-3.21,7.905c-0.405,1.081-0.642,2.128-0.744,3.276c0,0.135-0.033,0.236-0.068,0.371l-0.168-0.135
		l-0.338,0.371c-0.405-0.203-0.845-0.371-1.216-0.676c-0.912-0.777-1.621-2.601-1.621-3.784c0-3.75,1.317-8.074,2.634-11.553
		c0.541-1.419,1.216-2.77,1.79-4.155c-0.574-0.033-5.168,2.702-7.027,2.702c-0.912,0-1.521-0.81-1.689-1.622
		c0.033-0.101,0.135-0.203,0.236-0.203c0.168,0,0.338,0.168,0.608,0.168c1.621,0,6.554-2.499,8.243-3.344
		c0.878-0.439,1.724-0.946,2.601-1.351l0.27,0.439h0.169l0.439,0.744l-0.033,0.135c0.135,0.135,0.27,0.338,0.27,0.541
		c0,0.338-1.892,4.256-2.196,5.033c-1.351,3.547-2.635,7.162-3.175,10.945c-0.068,0.507-0.169,1.048-0.169,1.554
		c1.757-4.526,3.649-8.952,6.013-13.175c0.541-0.98,1.115-1.993,1.925-2.77c0.406-0.371,0.845-0.676,1.284-1.013l0.304,0.169
		l-0.035,0.236l0.236-0.203l0.371,0.101l-0.574,1.351h0.033l0.642-1.25l0.101,0.27l0.236-0.203l-0.777,2.601l0.101,0.033
		c0.271-0.777,0.439-1.621,0.845-2.365l0.439,0.304v0.439c0,0.304-0.27,1.351-0.338,1.722c-0.27,1.284-0.473,2.601-0.642,3.919
		l-0.744,6.385c-0.068,0.473-0.068,0.912-0.068,1.385c0.236-0.236,0.81-1.419,1.048-1.824c0.676-1.183,1.453-2.331,2.23-3.446
		c1.487-2.128,2.94-4.256,4.494-6.317c0.541-0.744,1.148-1.386,1.689-2.128c0.27-0.371,0.473-0.81,0.777-1.183
		c0.169-0.203,0.304-0.338,0.574-0.338c0.304,0,0.574,0.203,0.878,0.236l-0.035,0.068l0.406,0.338l0.033,0.236l0.135-0.101
		L107.754,18.769z M83.396,20.289c-0.033,0-0.033,0.033-0.067,0.033C83.363,20.323,83.363,20.323,83.396,20.289z M85.66,18.329
		l-0.033-0.033v0.033H85.66z M85.863,36.166c-0.068,0.135-0.068,0.27-0.135,0.405c0.033,0,0.067,0,0.101,0.033
		C85.829,36.471,85.829,36.301,85.863,36.166z M85.965,37.889c-0.035,0.068-0.068,0.135-0.068,0.203h0.033
		C85.93,38.025,85.965,37.957,85.965,37.889z M87.078,18.6c-0.371,0.101-0.676,0.304-1.013,0.473l0.945-0.405L87.078,18.6z
		 M86.301,35.052L86.2,35.086l-0.135,0.405C86.133,35.323,86.201,35.187,86.301,35.052z M86.166,37.957l-0.033,0.033h0.033V37.957z
		 M86.234,36.674l-0.033-0.033v0.135L86.234,36.674z M86.639,34.005c-0.168,0.101-0.168,0.304-0.203,0.473L86.639,34.005z
		 M86.674,38.058l-0.035,0.033h0.035C86.674,38.092,86.674,38.058,86.674,38.058z M87.011,33.058
		c-0.101,0.033-0.168,0.135-0.168,0.236v0.101L87.011,33.058z M86.978,34.376l-0.033-0.033v0.033H86.978z M86.978,36.775h-0.035
		v0.033L86.978,36.775z M87.18,33.768h-0.033l0.033,0.033V33.768z M87.654,18.397c-0.035-0.033-0.035-0.101-0.035-0.135
		c-0.135,0.135-0.27,0.203-0.405,0.304C87.349,18.532,87.519,18.464,87.654,18.397z M87.552,32.822h-0.033l0.033,0.033V32.822z
		 M88.565,30.457l-0.033-0.033v0.033H88.565z M89.95,26.201c-0.033,0.033-0.033,0.033-0.033,0.067
		C89.917,26.235,89.95,26.235,89.95,26.201z M90.288,25.525c-0.203,0.068-0.203,0.27-0.236,0.439
		C90.12,25.795,90.221,25.66,90.288,25.525z M91.065,23.837c-0.101,0.236-0.236,0.473-0.371,0.709
		C90.963,24.377,91.031,24.106,91.065,23.837z M91.335,23.532L91.2,23.599C91.268,23.599,91.301,23.566,91.335,23.532z
		 M93.16,21.707h-0.035c-0.033,0.035-0.033,0.101-0.033,0.136L93.16,21.707z M93.16,20.356l-0.035-0.033v0.033H93.16z
		 M94.207,33.734h-0.033v0.101h0.033V33.734z M94.207,34.072h-0.033v0.236h0.033V34.072z M94.207,34.646h-0.033v0.338h0.033V34.646z
		 M95.12,23.937l-0.101,0.135c-0.236,1.486-0.371,2.973-0.506,4.459c-0.101,1.013-0.27,2.365-0.27,3.378v1.048
		C94.511,29.95,94.815,26.944,95.12,23.937z M94.275,33.228h-0.033v0.101h0.033V33.228z M95.12,23.903l0.304-1.554l-0.101-0.035
		c-0.068,0.406-0.236,0.946-0.236,1.351C95.085,23.735,95.12,23.802,95.12,23.903z M95.423,22.08h0.035v-0.203h-0.035V22.08z
		 M95.491,21.572l0.068,0.035c0-0.101,0.033-0.203,0.033-0.304h-0.033L95.491,21.572z M96.943,32.248H96.91l-0.033,0.101
		L96.943,32.248z M101.098,25.627h-0.035c0,0.033,0,0.033,0.035,0.033V25.627z M102.247,37.349h-0.033v0.135h0.033V37.349z
		 M102.348,36.842h-0.067v0.136h0.033C102.315,36.944,102.315,36.877,102.348,36.842z M102.551,35.66
		c-0.033-0.035-0.033-0.035-0.068-0.035v0.135l-0.067,0.271h0.067V35.76L102.551,35.66z M102.72,34.747h-0.067l-0.101,0.473
		l0.101,0.033C102.652,35.085,102.686,34.917,102.72,34.747z M102.855,34.005l-0.168,0.473h0.101
		C102.787,34.308,102.822,34.173,102.855,34.005z M102.957,33.532l-0.033-0.033v0.135C102.957,33.599,102.957,33.566,102.957,33.532
		z M103.058,33.126l-0.068,0.136l0.068,0.033V33.126z M103.193,32.654h-0.033v0.067C103.16,32.687,103.16,32.687,103.193,32.654z
		 M103.396,31.91l-0.203,0.338c0.033,0.033,0.033,0.033,0.068,0.033L103.396,31.91z M103.767,30.187l-0.033,0.033h0.033V30.187z
		 M104.004,29.444l-0.033-0.033v0.101C104.004,29.478,104.004,29.478,104.004,29.444z M104.308,28.396h-0.033l-0.067,0.101
		L104.308,28.396z M107.18,18.667c0,0-0.033-0.067-0.033-0.101l-0.135,0.439C107.078,18.903,107.18,18.802,107.18,18.667z"/>
	<path class="st0" d="M115.627,35.897c-0.744,1.756-2.399,4.763-3.885,5.945c-0.744-0.27-1.284-0.338-1.284-1.284
		c0-1.824,0.406-3.614,0.777-5.405l-1.148,1.183c-0.709,0.744-1.689,2.162-2.872,2.162c-0.845,0-2.095-0.777-2.095-1.722
		c0-1.993,2.128-5.608,3.75-6.756c0.676-0.473,1.521-0.946,2.365-0.946c0.845,0,1.554,0.473,2.162,1.047
		c0.067,0.068,0.135,0.169,0.135,0.271c0,0.067-0.033,0.135-0.068,0.203l-0.98-0.27c-2.433,0.845-3.649,3.581-4.628,5.777
		l0.067,0.068l0.541-0.406l3.243-2.905c0.608-0.541,0.709-1.25,1.486-1.554l0.033,0.338l-0.101,0.033
		c-0.068,0.136,0,0.101-0.135,0.236l0.101-0.033l0.035-0.168l0.101-0.068c0.035-0.067,0.101-0.135,0.203-0.135
		c0.068,0,0.135,0.068,0.169,0.101l-0.035,0.236l0.135-0.068v-0.033l0.169,0.068c-0.27,0.845-0.574,1.656-0.878,2.466l-0.035,0.033
		c0.035,0,0.035,0,0.035-0.033c0.033-0.033,0.101-0.068,0.101-0.135c0.338-0.744,0.608-1.521,0.98-2.23
		c0.168,0.035,0.304,0.135,0.304,0.304c0,0.236-0.101,0.473-0.168,0.676c-0.439,1.216-1.925,5.406-1.925,6.486
		c0.439-0.27,0.777-0.744,1.115-1.115h0.067c-0.439,0.642-1.047,1.183-1.351,1.892h-0.033v0.033c0.033,0,0.033,0,0.033-0.033
		c0.608-0.608,1.148-1.351,1.689-2.027c0.135-0.168,0.271-0.439,0.439-0.608l0.168-0.168c-0.709,1.216-1.824,2.331-2.433,3.581
		l1.081-1.25l-0.304,0.574l0.236-0.169l0.033,0.136c0.033-0.169,0.203-0.372,0.304-0.541h0.035v-0.038l-0.035,0.033h-0.067
		c0.101-0.27,0.135-0.439,0.371-0.608v0.135l0.067-0.135l0.101-0.068l0.068-0.135c0.067-0.27,0.338-0.473,0.439-0.744
		c0.067-0.168,0.203-0.338,0.304-0.506h-0.033l0.067-0.135h-0.033l0.203-0.371l0.033,0.135c0.033-0.169,0.135-0.304,0.203-0.439
		h-0.035l0.101-0.067c0.068-0.101,0.101-0.203,0.135-0.304v0.033C115.356,36.268,115.492,36.098,115.627,35.897z M106.235,34.815
		c0,0.033-0.033,0.067-0.033,0.101h0.033V34.815z M106.438,34.41c0.439-0.744,0.845-1.554,1.318-2.263
		c0.101-0.135,0.405-0.506,0.405-0.676l-0.067,0.135c-0.473,0.473-1.521,2.298-1.757,2.939c-0.033,0.035-0.067,0.101-0.067,0.169
		l0.067-0.169C106.37,34.511,106.438,34.478,106.438,34.41z M106.776,35.085l0.101-0.236c-0.068,0.033-0.068,0.168-0.136,0.236
		H106.776z M106.843,36.674c-0.033,0.033-0.033,0.101-0.033,0.135h0.033V36.674z M109.647,31.539
		c-0.878,0.541-2.162,2.94-2.499,3.919c-0.135,0.371-0.203,0.777-0.304,1.148c0.068-0.067,0.101-0.135,0.135-0.236
		C107.62,34.68,108.499,32.923,109.647,31.539z M106.978,34.544c0.338-0.642,0.744-1.216,1.115-1.824v-0.067
		C107.653,33.261,107.282,33.835,106.978,34.544z M108.262,31.369l0.101-0.068h-0.033L108.262,31.369z M108.432,32.181h0.067v-0.035
		C108.465,32.181,108.465,32.181,108.432,32.181z M108.6,31.944h0.033v-0.035C108.6,31.91,108.6,31.91,108.6,31.944z
		 M111.978,37.957h0.033v-0.068h-0.033V37.957z M112.113,41.133c-0.033,0-0.067,0.033-0.067,0.068L112.113,41.133z M112.113,37.281
		l0.035,0.068v-0.101L112.113,37.281z M112.384,40.794l-0.236,0.304C112.248,40.997,112.384,40.964,112.384,40.794z M112.282,36.707
		h0.033v-0.169C112.282,36.606,112.282,36.639,112.282,36.707z M112.316,36.403l0.067-0.135h-0.033L112.316,36.403z M112.384,36.234
		c0.169-0.203,0.203-0.439,0.236-0.676C112.519,35.795,112.451,35.997,112.384,36.234z M112.451,40.896
		c-0.033,0-0.033,0.033-0.068,0.033C112.417,40.93,112.451,40.93,112.451,40.896z M112.587,40.659c0-0.067,0.033-0.135,0.033-0.203
		l-0.203,0.304L112.587,40.659z M112.587,32.619l0.27-0.506C112.755,32.214,112.62,32.451,112.587,32.619z M112.653,40.592
		l-0.035,0.033C112.653,40.626,112.653,40.626,112.653,40.592z M112.688,35.288c-0.033,0.035-0.033,0.068-0.033,0.101
		L112.688,35.288z M112.788,40.558c-0.033,0-0.033,0.035-0.068,0.035h0.068V40.558z M112.788,34.95
		c-0.033,0.033-0.033,0.101-0.033,0.168l0.033-0.068V34.95z M113.026,40.255h-0.033l-0.101,0.067h0.033L113.026,40.255z
		 M113.127,32.552c0,0,0.033,0.067,0.033,0.101l0.135-0.271C113.194,32.417,113.127,32.451,113.127,32.552z M113.296,32.349
		c0.033-0.068,0.033-0.101,0.033-0.168C113.296,32.248,113.296,32.281,113.296,32.349z M113.633,39.24
		c-0.033,0.035-0.033,0.101-0.033,0.135C113.633,39.342,113.633,39.275,113.633,39.24z"/>
	<path class="st0" d="M114.884,38.193c-0.406,0.541-0.845,1.081-1.453,1.418l-1.182-0.405l0.067-0.101
		c0.574-0.574,1.013-1.183,1.453-1.857c1.689-2.702,2.804-5.574,3.378-8.716c-1.283-0.878-3.074-1.857-3.074-3.649
		c0-0.912,0.81-2.027,1.79-2.027c0.304,0,0.574,0.068,0.845,0.203c1.115,0.473,1.79,1.52,1.925,2.702
		c0.067,0.744,0.168,1.487,0.203,2.23c1.148,0.676,2.399,1.351,3.379,2.263c0.541,0.506,0.81,1.081,0.81,1.824
		c0,1.013-0.642,2.702-0.98,3.716c-0.608,1.79-1.689,4.594-1.689,6.453c0,0.439,0.068,0.912,0.236,1.318l0.946,0.236l-0.033,0.271
		l0.033,0.033l0.168-0.203h0.271c0.067,0.135,0.101,0.27,0.101,0.406c0,0.642-1.013,0.845-1.52,0.845
		c-2.196,0-3.075-2.365-3.075-4.223c0-2.263,1.419-5.945,2.23-8.107c0.203-0.506,0.574-1.588,0.574-2.095
		c0-0.81-0.946-1.148-1.554-1.418C118.33,32.619,116.81,35.524,114.884,38.193z M114.715,24.174l0.068,0.067
		c0.033-0.135,0.067-0.27,0.135-0.371L114.715,24.174z M114.918,37.349l-0.033,0.033h0.033V37.349z M115.154,35.592
		c0.168-0.101,0.236-0.338,0.27-0.541L115.154,35.592z M115.796,24.208c-0.101,0.101-0.203,0.236-0.203,0.406
		c0,0.067,0,0.101,0.035,0.168C115.695,24.614,115.728,24.411,115.796,24.208z M117.181,26.741c0-0.642-0.169-2.095-0.541-2.567
		c-0.338,0.304-0.541,0.709-0.541,1.148c0,0.709,0.439,1.52,1.047,1.857C117.147,27.045,117.181,26.877,117.181,26.741z
		 M117.958,30.491c-0.506,1.656-1.081,3.243-1.79,4.831c0.709-0.777,1.757-3.919,1.892-5
		C117.991,30.356,117.991,30.424,117.958,30.491z M116.37,32.957c0.168-0.338,0.304-0.642,0.371-0.98l-0.068,0.033L116.37,32.957z
		 M116.843,31.471c-0.101,0.135-0.135,0.304-0.101,0.439L116.843,31.471z M116.911,31.301c0.035-0.033,0.035-0.067,0.035-0.101
		L116.911,31.301z M116.979,31.032c0,0.033,0,0.101-0.033,0.135c0.033-0.033,0.067-0.101,0.067-0.135H116.979z M117.079,30.627
		l0.101-0.135h-0.035L117.079,30.627z M117.249,30.221l-0.033-0.067v0.101L117.249,30.221z M118.127,29.95h-0.035v0.135h0.035V29.95
		z M118.194,29.579h-0.033v0.101h0.033V29.579z M120.154,33.667l-1.621,4.932l-0.371,1.351c0.304-0.608,0.506-1.318,0.709-1.993
		c0.574-1.79,1.216-3.547,1.722-5.371C120.357,32.855,120.255,33.329,120.154,33.667z M118.938,40.592
		c0-0.068-0.033-0.101-0.033-0.169c-0.033,0.068-0.033,0.101-0.033,0.169H118.938z M121.099,33.16l-1.656,4.864
		c-0.236,0.744-0.338,1.554-0.507,2.298l0.068-0.067c0.304-1.013,0.541-2.06,0.878-3.075c0.439-1.351,1.081-2.702,1.318-4.122
		L121.099,33.16z M119.715,40.524c0.338-1.689,0.946-3.344,1.52-5c0.338-1.013,0.777-2.06,0.878-3.142h-0.068
		c-0.81,2.263-1.554,4.594-2.263,6.892c-0.203,0.676-0.338,1.351-0.338,2.06c0,0.203,0,0.405,0.033,0.608
		C119.58,41.471,119.613,40.997,119.715,40.524z M119.647,38.937v-0.033l-0.033,0.033H119.647z M119.985,37.721l0.033-0.035h-0.033
		V37.721z M120.053,37.45l0.033,0.035V37.45H120.053z M120.086,40.693h-0.033c0,0.035,0,0.035,0.033,0.068V40.693z M120.121,37.248
		l0.033,0.033v-0.033H120.121z M120.154,40.356h-0.033v0.067h0.033V40.356z M120.357,39.612h0.033v-0.101h-0.033V39.612z
		 M120.458,39.207h-0.033v0.101h0.033V39.207z M120.593,35.897l-0.033,0.033h0.033V35.897z M120.593,38.767
		c-0.033,0-0.033,0.035-0.033,0.068h0.033V38.767z M120.627,32.383v0.135c0.035-0.033,0.035-0.101,0.035-0.135H120.627z
		 M120.661,38.531l-0.035,0.035h0.035V38.531z M120.695,38.295l0.067,0.033c0-0.033,0-0.068-0.033-0.101L120.695,38.295z
		 M120.83,37.99h-0.033v0.101h0.033V37.99z M121.032,37.349h-0.035c0,0.033,0,0.033,0.035,0.033V37.349z M121.099,34.443
		l-0.033,0.035h0.033V34.443z M121.099,37.146c-0.033,0-0.033,0-0.033,0.033L121.099,37.146z M121.269,32.89h-0.068v0.101
		L121.269,32.89z M121.234,36.741l0.035-0.035h-0.035V36.741z M121.302,36.538c0.033,0,0.033-0.033,0.033-0.068h-0.033V36.538z
		 M121.37,36.301h0.033v-0.068h-0.033V36.301z M121.776,35.221h-0.033v0.067h0.033V35.221z M121.809,35.052h0.033v-0.033h-0.033
		V35.052z M121.876,34.782l0.033,0.035v-0.035H121.876z M122.35,33.464v-0.033l-0.035,0.033H122.35z"/>
	<path class="st0" d="M135.086,43.228c0.574,0,1.148-0.169,1.724-0.169c0.506,0,1.013,0.135,1.52,0.203
		c-0.608,0.98-2.331,1.351-3.411,1.351c-3.243,0-6.588-2.196-8.31-4.864c-0.101-0.136-0.135-0.203-0.304-0.236v0.642
		c0,0.744,0.135,1.453,0.135,2.196c0,0.236-0.033,0.473-0.033,0.709c-0.304-0.033-0.608,0-0.912-0.067
		c-0.168-0.035-0.338-0.101-0.506-0.203c-1.148-0.777-1.351-1.925-1.351-3.21c0-2.702,0.709-5.371,1.318-7.972
		c0.642-2.669,1.318-5.338,2.027-8.007c0.371-1.351,1.318-4.256,1.318-5.541c0-0.473-0.101-0.912-0.101-1.385
		c0.135,0,0.236-0.035,0.371-0.035c0.068,0,0.338,0.135,0.371,0.169c0.912,0.506,1.351,1.756,1.351,2.77
		c0,2.027-0.642,3.952-1.115,5.912c-0.676,2.838-1.486,5.676-1.959,8.547c1.385-2.162,2.837-3.581,5.101-4.831
		c0.169-0.101,0.304-0.169,0.507-0.169c0.608,0,1.52,0.777,1.52,1.419c0,0.946-0.946,2.027-1.52,2.702
		c-1.284,1.52-2.567,3.04-3.817,4.561C129.918,39.68,132.721,43.228,135.086,43.228z M126.741,36.809h0.033v-0.033L126.741,36.809z
		 M127.924,34.68c0.371-0.676,0.777-1.216,1.216-1.824l0.033-0.067c-0.946,0.845-1.857,2.837-2.399,3.851
		C127.317,36.098,127.587,35.356,127.924,34.68z M127.079,34.917c0.371-0.608,0.709-1.25,1.148-1.824
		c0.169-0.236,0.371-0.439,0.506-0.676c0.101-0.068,0.169-0.136,0.236-0.236c0.744-0.912,1.723-1.589,2.635-2.331
		c-1.588,0.777-2.635,2.23-3.682,3.581c-0.371,0.473-0.709,0.946-0.912,1.521L127.079,34.917z M127.046,36.572l0.035,0.033v-0.033
		H127.046z M127.181,35.424l0.033,0.067l0.067-0.067H127.181z M127.384,36.91l0.203-0.203l2.702-3.175
		c0.946-1.115,1.925-2.263,2.77-3.479l-0.101-0.068c-2.737,1.521-4.493,3.919-5.744,6.722L127.384,36.91z M127.452,35.052h-0.068
		v0.101L127.452,35.052z M127.485,35.761h-0.033l0.033,0.035V35.761z M127.485,34.917v0.101l0.068-0.101H127.485z M127.653,34.68
		c-0.033,0-0.135,0.035-0.135,0.101c0,0,0.035,0.068,0.035,0.101L127.653,34.68z M127.688,34.511
		c-0.035,0.068-0.035,0.101-0.035,0.168c0.035-0.033,0.068-0.101,0.068-0.135L127.688,34.511z M127.755,34.511l0.101-0.101
		c-0.033,0-0.067,0-0.101-0.033V34.511z M127.856,34.241v0.168c0.033-0.033,0.068-0.101,0.068-0.135L127.856,34.241z
		 M127.958,34.106v0.1l0.068-0.101L127.958,34.106L127.958,34.106z M128.093,33.971h-0.033c-0.033,0.033-0.033,0.101-0.033,0.135
		C128.059,34.072,128.093,34.005,128.093,33.971z M128.126,33.802v0.101l0.068-0.101H128.126z M128.296,33.431l-0.068,0.135
		c0,0.033,0,0.068-0.033,0.101v0.135c0.033-0.033,0.068-0.101,0.068-0.168c0.101-0.035,0.101-0.101,0.168-0.169l-0.033-0.033
		C128.397,33.431,128.296,33.431,128.296,33.431z M128.465,33.228v0.203c0.035-0.033,0.068-0.101,0.068-0.135
		c0.033-0.033,0.101-0.033,0.135-0.033c-0.033-0.035-0.068-0.035-0.101-0.035C128.567,33.228,128.465,33.228,128.465,33.228z
		 M128.566,36.877l-0.033-0.035v0.035H128.566z M128.668,37.281c0.27-0.236,0.541-0.506,0.777-0.777l3.851-4.662
		c0.136-0.169,0.236-0.473,0.338-0.709c-0.168,0.304-0.405,0.608-0.608,0.878l-4.223,5.067L128.668,37.281z M128.668,32.99v0.236
		c0.033-0.067,0.033-0.101,0.033-0.168c0.033,0,0.101,0,0.135-0.033c-0.033,0-0.067,0-0.101-0.035H128.668z M128.87,32.754
		l-0.035,0.035v0.236l0.068-0.169c0.033-0.033,0.067-0.033,0.101-0.033c-0.035-0.033-0.068-0.033-0.101-0.033L128.87,32.754z
		 M129.006,32.552v0.27l0.067-0.203c0.035,0,0.068,0,0.101-0.033c-0.033,0-0.067,0-0.101-0.033
		C129.073,32.552,129.006,32.552,129.006,32.552z M129.343,32.281c-0.035-0.033-0.068-0.033-0.101-0.033v0.169l0.067-0.101
		c0.035,0,0.101,0,0.135-0.035H129.343z M129.985,34.544c-0.033,0-0.033,0-0.033,0.035L129.985,34.544z M130.255,34.207
		c0.135-0.101,0.236-0.27,0.338-0.405C130.458,33.903,130.322,34.038,130.255,34.207z M130.796,33.599v-0.033h-0.035l-0.101,0.169
		L130.796,33.599z M130.964,30.998l-0.033-0.035l-0.135,0.101L130.964,30.998z M130.964,33.363c0.068-0.067,0.135-0.135,0.168-0.236
		L130.964,33.363z M131.404,32.855h-0.035l-0.135,0.169L131.404,32.855z M132.687,31.234c-0.405,0.405-0.744,0.845-1.047,1.318
		c0.236-0.236,0.371-0.473,0.608-0.709C132.316,31.606,132.587,31.471,132.687,31.234z M132.924,30.93
		c-0.067,0.068-0.135,0.135-0.168,0.236L132.924,30.93z M133.836,30.762v0.101c0.033-0.035,0.033-0.068,0.033-0.101H133.836z"/>
	<path class="st0" d="M136.202,36.2c-0.135,0.27-0.101,0.845-0.101,1.115c0,0.338,0.101,1.622,0.574,1.622
		c0.709,0,1.25-0.473,1.486-1.081l0.033-0.033v0.101c0,0.304-0.27,0.541-0.371,0.81c0.371-0.168,0.439-0.506,0.642-0.81
		c0.033,0.068,0.067,0.136,0.067,0.169c0,0.236-0.203,0.371-0.236,0.574l0.236,0.033l-0.033,0.101l0.068,0.033v-0.033h0.101
		l-0.033-0.068h0.033l0.035-0.135h0.033l0.067-0.135v0.135c0.101-0.101,0.136-0.203,0.136-0.338l0.135-0.168
		c-0.068,0.98-0.98,1.621-1.925,1.621c-2.06,0-3.278-1.418-3.278-3.411c0-1.622,0.676-3.243,1.622-4.561
		c0.744-1.047,1.79-1.622,3.075-1.622c0.304,0,0.608,0.068,0.912,0.136l-0.676-1.25l0.271-0.067c1.351,0.439,2.263,1.554,2.263,3.04
		C141.337,34.443,138.43,36.2,136.202,36.2z M135.12,33.566c-0.033,0-0.033,0-0.033,0.033h0.033V33.566z M135.289,33.058
		l-0.101,0.168l0.068,0.035L135.289,33.058z M135.323,32.99l-0.035,0.035h0.035V32.99z M135.863,32.08l0.101-0.035
		C135.931,32.045,135.898,32.045,135.863,32.08l-0.168,0.27l-0.068,0.101v0.033c-0.067,0.101-0.168,0.203-0.236,0.338
		c0.169-0.068,0.203-0.203,0.236-0.338l0.068-0.135l0.135-0.101C135.83,32.181,135.863,32.146,135.863,32.08z M135.763,34.612
		c-0.033,0.033-0.033,0.101-0.033,0.168h0.033V34.612z M137.012,32.281c-0.473,0.473-1.115,1.419-1.115,2.128
		C136.134,33.667,136.708,33.025,137.012,32.281z M135.898,33.16v0.033c0-0.033,0-0.033,0-0.068V33.16z M136.032,32.855
		c0.035-0.033,0.035-0.067,0.035-0.135C136.032,32.789,136.032,32.822,136.032,32.855z M136.167,32.654h0.033
		c0.033-0.035,0.067-0.101,0.067-0.136C136.235,32.552,136.202,32.654,136.167,32.654z M136.54,34.849
		c1.216-0.135,3.007-2.128,3.007-3.344V31.37C138.026,31.707,136.809,33.363,136.54,34.849z M137.046,32.248l0.135-0.067v-0.035
		l-0.033,0.035C137.079,32.181,137.079,32.214,137.046,32.248z M139.343,33.228c-0.033,0.035-0.033,0.101-0.033,0.135l-0.101,0.068
		l0.101-0.033v-0.035L139.343,33.228z M139.58,32.855l-0.068,0.135v0.035C139.546,32.957,139.58,32.923,139.58,32.855z
		 M139.681,32.654c0.033,0,0.067-0.035,0.067-0.068h-0.067V32.654z M139.816,34.005c0.033-0.033,0.068-0.033,0.068-0.068
		L139.816,34.005z M139.884,33.228h0.033l0.033-0.101L139.884,33.228z M140.019,33.903c-0.035,0-0.068,0-0.101,0.033
		C139.951,33.937,139.984,33.937,140.019,33.903z M140.019,33.87c0.338-0.338,0.541-0.777,0.676-1.216
		C140.56,32.89,140.019,33.667,140.019,33.87z"/>
	<path class="st0" d="M152.653,24.815c-0.777,0.946-3.784,1.216-5,1.419c-1.216,3.952-1.925,8.04-2.601,12.128
		c-0.338,2.162-0.608,4.392-0.608,6.588c0,0.878,0.135,1.79,0.338,2.635c0.033,0.101,0.033,0.168,0.033,0.27
		c0,0.304-0.439,0.405-0.676,0.405c-0.101,0-0.135-0.101-0.168-0.168l-0.203,0.304c-0.405-0.203-0.845-0.304-1.25-0.507
		c-1.25-0.642-1.25-2.939-1.25-4.122c0-3.547,0.473-7.162,1.013-10.676c0.135-0.81,0.203-1.656,0.371-2.466
		c0.168-0.946,0.405-1.892,0.541-2.838c0.035-0.236,0.135-0.439,0.135-0.676c0-0.168-0.304-0.168-0.405-0.168
		c-0.338,0-0.709,0.033-1.047,0.033l0.035-0.033c-0.338-0.101-0.777-0.439-1.013-0.744l0.033-0.203l-0.304-0.168
		c0.068-0.338,0.135-0.439,0.473-0.541c0.744-0.203,1.521-0.27,2.263-0.439c0.744-0.98,1.419-1.993,1.892-3.142
		c0.372-0.878,0.912-1.722,1.386-2.534c0.135-0.236,0.27-0.439,0.574-0.439l0.405,0.203l-0.236,0.541
		c0.203-0.203,0.338-0.406,0.506-0.608l0.136,0.203l0.27-0.033l-0.169,0.473l0.271-0.236l0.371,0.135v0.338l0.27-0.067
		c0.203,0.168,0.541,0.338,0.541,0.642c0,0.135-1.216,3.614-1.216,3.614c0.236-0.033,0.507,0,0.744-0.068
		c0.574-0.135,1.148-0.135,1.757-0.135c0.709,0,0.878,0.135,1.318,0.709C152.181,24.714,152.45,24.782,152.653,24.815z
		 M142.214,40.255h-0.033v0.439h0.033V40.255z M142.35,38.835h-0.033v0.405h0.033V38.835z M142.823,35.491l-0.101-0.033
		l-0.338,2.804h0.067C142.553,37.349,142.688,36.403,142.823,35.491z M144.445,26.775c-0.473,0.744-1.588,7.162-1.588,8.243v0.169
		C143.329,32.383,143.735,29.546,144.445,26.775z M142.924,41.674v-0.338h-0.033v0.338H142.924z M142.924,40.829h0.033v-0.068
		h-0.033V40.829z M143.059,39.478h-0.033l-0.033,0.642h0.033L143.059,39.478z M143.161,38.667h-0.033
		c0,0.168-0.035,0.304-0.035,0.473h0.068L143.161,38.667L143.161,38.667z M143.229,38.092v0.168
		c0.304-1.959,0.574-3.919,0.946-5.844c0.371-1.96,0.811-3.885,1.216-5.845C144.783,27.349,143.229,36.707,143.229,38.092z
		 M146.472,26.437l-0.304,0.033c-0.845,2.77-1.351,5.676-1.824,8.513c-0.439,2.905-0.912,5.878-0.912,8.817
		c0,0.507,0,1.048,0.068,1.554C143.768,38.97,144.85,32.619,146.472,26.437z M143.938,24.68v0.068l0.135-0.203
		C144.006,24.546,143.938,24.614,143.938,24.68z M144.141,41.944h-0.033v0.101h0.033V41.944z M144.242,41.032v-0.168
		c-0.033,0.033-0.033,0.101-0.033,0.168H144.242z M144.377,39.917v-0.101h-0.033v0.101H144.377z M144.478,39.004h-0.033v0.136h0.033
		V39.004z M144.58,38.295h-0.033v0.135L144.58,38.295z M144.681,37.789c-0.035-0.033-0.035-0.101-0.035-0.135h-0.033
		c0,0.033,0,0.101,0.033,0.135H144.681z M144.748,36.978h-0.033v0.236h0.033V36.978z M144.85,36.403h-0.033v0.135h0.033V36.403z
		 M144.883,30.424v0.101h0.035v-0.101H144.883z M144.951,35.997v-0.27h-0.033v0.27H144.951z M144.984,29.985
		c0,0.068,0,0.101-0.033,0.169h0.033l0.035-0.169H144.984z M145.052,35.424v-0.203h-0.068v0.203H145.052z M145.052,29.714h0.033
		v-0.067L145.052,29.714z M145.154,34.883c0-0.067,0-0.101-0.035-0.168h-0.033v0.168H145.154z M145.154,29.208v0.101h0.033v-0.101
		H145.154z M145.221,34.308v-0.135h-0.033v0.135H145.221z M145.322,33.903v-0.236h-0.033l-0.035,0.236H145.322z M145.357,28.464
		l-0.067,0.101h0.067V28.464z M145.322,24.005l0.033-0.035C145.322,23.971,145.322,23.971,145.322,24.005z M145.424,33.396
		c0-0.068,0-0.135-0.033-0.203h-0.035v0.203H145.424z M145.39,28.16l0.033,0.033l0.067-0.135L145.39,28.16z M145.492,32.687h-0.033
		v0.27h0.033V32.687z M145.593,32.484v-0.236h-0.033l-0.033,0.203C145.559,32.484,145.559,32.484,145.593,32.484z M145.559,27.654
		l0.068-0.168l-0.068-0.035V27.654z M145.66,31.809h-0.033v0.236h0.033V31.809z M145.66,27.146v0.067
		c0.033-0.033,0.033-0.033,0.033-0.067H145.66z M145.761,31.572v-0.203h-0.035v0.203H145.761z M145.863,30.964l-0.068,0.169
		l0.068,0.033V30.964z M145.999,30.559c-0.068,0-0.135,0.068-0.135,0.135c0,0.068,0.033,0.101,0.033,0.169L145.999,30.559z
		 M145.964,30.356c0,0.068,0.035,0.101,0.035,0.169l0.101-0.338C146.032,30.221,145.964,30.255,145.964,30.356z M146.066,24.343
		c0.271-0.27,0.304-0.642,0.371-0.98C146.167,23.634,146.134,24.005,146.066,24.343z M146.1,30.153c0-0.101,0.033-0.203,0.033-0.304
		h-0.068C146.066,29.95,146.066,30.052,146.1,30.153z M146.201,29.647v-0.169c-0.033,0.068-0.067,0.101-0.067,0.169H146.201z
		 M146.235,29.275c-0.035,0.035-0.035,0.068-0.035,0.101l0.035-0.033V29.275z M146.302,29.038l0.035-0.101
		C146.302,28.971,146.302,29.005,146.302,29.038z M146.404,28.634l-0.033,0.033c0,0.101-0.033,0.169-0.033,0.271l0.067-0.271
		L146.404,28.634L146.404,28.634z M146.572,28.093c-0.168,0.135-0.168,0.338-0.168,0.541
		C146.472,28.464,146.539,28.261,146.572,28.093z M146.472,23.296c-0.035,0.033-0.035,0.033-0.035,0.067
		C146.437,23.329,146.472,23.329,146.472,23.296z M146.741,27.484c-0.101,0.101-0.169,0.236-0.169,0.371
		c0,0.067,0,0.135,0.035,0.203C146.64,27.857,146.673,27.687,146.741,27.484z M146.572,28.093h0.035v-0.035L146.572,28.093z
		 M146.64,20.863c0.033-0.033,0.033-0.033,0.033-0.067C146.673,20.83,146.64,20.83,146.64,20.863z M146.741,20.559l-0.068,0.168
		C146.708,20.694,146.741,20.627,146.741,20.559z M146.809,20.424l-0.067,0.135C146.775,20.525,146.809,20.457,146.809,20.424z
		 M146.741,27.349l0.101-0.236v-0.135C146.775,27.113,146.775,27.214,146.741,27.349z M147.011,26.504v-0.135l-0.135,0.371
		C146.978,26.707,147.011,26.606,147.011,26.504z M148.227,21.269c-0.101,0.168-0.236,0.304-0.338,0.439
		c-0.168,0.304-0.945,2.23-0.945,2.499h0.067c0.169,0,0.236-0.135,0.27-0.27C147.62,23.059,147.89,22.181,148.227,21.269z
		 M147.147,19.951c-0.033,0.033-0.067,0.101-0.067,0.135C147.113,20.053,147.147,19.985,147.147,19.951z M147.113,21.572
		l0.101-0.067h-0.101V21.572z M147.316,19.58c-0.068,0.135-0.135,0.236-0.169,0.371l0.169-0.304V19.58z"/>
	<path class="st0" d="M155.424,32.923l0.27-0.27l-0.033,0.203l0.101-0.203h-0.068l0.068-0.101v0.101l0.067-0.136h0.033l0.136-0.236
		l0.067,0.035c-0.608,1.554-1.656,3.007-2.534,4.426c-0.506,0.81-0.98,1.656-1.521,2.433c-0.676,0.98-1.756,2.466-2.534,3.31
		c-0.203,0.203-0.405,0.236-0.676,0.236c-0.98,0-1.689-0.541-1.689-1.554c0-1.824,0.439-3.75,0.912-5.473
		c0.371-1.351,0.709-2.702,0.81-4.088v-0.135c0-0.169-0.101-0.338-0.101-0.507c0-0.135,0.203-0.203,0.304-0.236
		c1.486,0.203,2.702,0.98,2.702,2.601c0,1.284-0.439,2.433-0.811,3.649l-0.744,2.499c0,0.035-0.033,0.035-0.033,0.068
		c0,0,0.033,0.067,0.033,0.101c0.946-1.183,1.757-2.499,2.601-3.75c0.506-0.744,1.115-1.419,1.656-2.128
		c0.304-0.371,0.506-0.878,0.878-1.216l-0.168,0.304l0.236-0.27c-0.541,0.912-1.216,1.757-1.656,2.737
		c0.236-0.271,0.473-0.541,0.642-0.845c0.338-0.574,0.574-1.284,1.081-1.757L155.424,32.923z M148.803,41.301
		c0.506-1.96,1.081-3.919,1.621-5.878c-0.405,0.709-0.506,1.52-0.744,2.298c-0.338,1.183-0.777,2.365-0.946,3.581
		C148.734,41.301,148.803,41.301,148.803,41.301z M151.066,25.694l0.168,0.033v0.236c0.101-0.033,0.168-0.101,0.236-0.169
		l0.338,0.169l-0.068,0.236l0.405,0.067v0.338l0.169-0.033c0.203,0.135,0.338,0.338,0.338,0.574c0,0.81-0.371,1.52-0.371,2.331
		c0,0.439,0.135,0.912,0.135,1.351c-0.101,0.068-0.203,0.101-0.304,0.101c-0.236,0-0.405-0.203-0.642-0.168
		c-0.81-0.473-1.521-1.993-1.521-2.94c0-0.506,0.371-2.263,1.013-2.263L151.066,25.694z M150.357,39.984
		c1.351-1.993,2.702-3.987,4.088-5.98c-0.541,0.574-1.115,1.148-1.487,1.79c-0.574,0.946-1.216,1.857-1.79,2.804
		c-0.371,0.574-0.845,1.081-1.148,1.689C150.12,40.187,150.289,40.085,150.357,39.984z M150.457,35.052v0.203
		c0.035-0.033,0.035-0.135,0.068-0.203H150.457z M151.606,38.869c-0.168,0.035-0.236,0.203-0.304,0.338L151.606,38.869z
		 M152.011,38.295c-0.168,0.033-0.304,0.101-0.304,0.304v0.068L152.011,38.295z M153.127,36.877c0.101-0.169,0.203-0.338,0.27-0.541
		c-0.101,0.236-0.27,0.439-0.405,0.642L153.127,36.877z M153.87,35.897l0.101-0.101c-0.035,0-0.068,0-0.101-0.035
		c0.101-0.168,0.168-0.338,0.236-0.506l-0.406,0.574l0.169-0.068L153.87,35.897L153.87,35.897z M154.512,34.714l0.101-0.169V34.41
		c-0.135,0.169-0.236,0.338-0.304,0.506l0.136-0.067L154.512,34.714c0.033,0.033,0.033,0.101,0.033,0.135
		c0.035-0.033,0.035-0.101,0.035-0.135H154.512z M154.545,34.849h-0.067c-0.033,0.033-0.033,0.067-0.033,0.101L154.545,34.849z
		 M154.613,34.579v0.067c0.033-0.033,0.033-0.033,0.033-0.067H154.613z M154.883,34.14c0-0.135,0.068-0.236,0.068-0.371
		l-0.304,0.574l0.135-0.068v0.101l0.068-0.101h-0.068L154.883,34.14z M154.883,34.14v0.101l0.068-0.101c0-0.033,0-0.101,0.033-0.135
		h-0.033c0,0.033-0.033,0.101,0,0.135H154.883z M155.457,33.025l-0.033,0.135l-0.135,0.033c0.067-0.068,0.135-0.168,0.135-0.27
		L155.457,33.025z M155.525,33.126l-0.068,0.035l-0.033,0.101L155.525,33.126z M155.627,32.248l0.068,0.033
		c-0.033,0.169-0.135,0.304-0.236,0.439C155.525,32.552,155.593,32.417,155.627,32.248z M155.761,32.552v-0.068h0.033v0.033
		L155.761,32.552z M155.829,32.383v0.101h-0.033L155.829,32.383z M155.829,32.518v-0.033h0.033L155.829,32.518z"/>
	<path class="st0" d="M153.43,38.937c0-1.824,1.183-5.845,1.722-7.702c0.271-0.845,0.574-1.858,0.574-2.77
		c0-0.169-0.067-0.338-0.101-0.507c0.068-0.168,0.203-0.168,0.338-0.168c0.068,0,0.405,0.168,0.473,0.203
		c0.81,0.405,1.386,1.283,1.386,2.23c0,1.96-1.318,6.115-1.993,8.075l0.068,0.033c1.892-2.601,3.682-5.236,5.777-7.669
		c0.81-0.946,1.621-1.892,2.466-2.804c0.27-0.271,0.506-0.541,0.878-0.642c0.642,0.101,1.892,0.777,1.892,1.554
		c0,0.439-0.541,1.824-0.709,2.298c-0.912,2.365-3.344,9.223-3.344,11.486c0,0.338,0.101,0.642,0.406,0.81
		c0,0.203-0.135,0.338-0.338,0.338c-1.925,0-2.298-1.621-2.298-3.208c0-2.128,1.048-5.033,1.689-7.095
		c0.304-1.013,0.744-1.96,1.115-2.94c-0.101,0.068-0.203,0.101-0.304,0.203c-1.487,1.521-2.737,3.378-3.851,5.168
		c-0.709,1.148-2.433,4.054-3.311,4.831c-0.203,0.169-0.304,0.203-0.541,0.203C154.444,40.862,153.43,39.95,153.43,38.937z
		 M156.538,39.173c-0.033,0.033-0.068,0.067-0.068,0.135L156.538,39.173z M157.079,37.248c0.203-0.236,0.338-0.473,0.507-0.709
		C157.384,36.741,157.214,37.012,157.079,37.248z M157.45,37.957c0.035-0.101,0.101-0.169,0.136-0.236
		c-0.101,0.101-0.236,0.27-0.271,0.405L157.45,37.957z M157.485,37.518c0.033,0,0.033,0,0.033-0.033L157.485,37.518z M157.89,36.133
		c0.068-0.203,0.203-0.271,0.338-0.439c0.27-0.304,0.439-0.676,0.676-1.013c1.52-2.263,3.479-4.188,5.203-6.317l0.101-0.135
		l-0.068-0.068c-1.722,1.824-3.378,3.716-4.831,5.777c-0.541,0.777-1.148,1.521-1.554,2.365L157.89,36.133z M157.823,37.078v-0.033
		l-0.035,0.033H157.823z M158.464,36.403c-0.236,0.27-0.439,0.541-0.574,0.845C158.093,36.978,158.295,36.707,158.464,36.403z
		 M158.397,36.032h-0.101c0,0.033-0.035,0.101-0.068,0.135h0.168l0.035-0.101L158.397,36.032z M158.464,36.369
		c0.168-0.203,0.338-0.439,0.439-0.709C158.768,35.897,158.565,36.098,158.464,36.369z M158.532,35.727v0.101
		c0,0.033,0,0.068,0.035,0.101c0.033-0.033,0.033-0.101,0.033-0.135h0.135c-0.033-0.035-0.101-0.035-0.135-0.035L158.532,35.727z
		 M158.532,36.606v0.068l0.035-0.033L158.532,36.606z M158.667,35.524v0.068c0,0,0.067,0.168,0.067,0.203v-0.203
		c0.033,0,0.068,0,0.101-0.033c-0.033,0-0.101-0.035-0.101-0.035H158.667z M158.836,35.288v0.101c0,0.035,0,0.101,0.033,0.135
		c0-0.101,0.035-0.168,0.135-0.168c-0.033-0.033-0.067-0.033-0.101-0.033L158.836,35.288z M158.971,35.085v0.067
		c0.033,0.068,0.033,0.135,0.033,0.203c0.035-0.068,0.035-0.135,0.035-0.203l0.067-0.033c-0.033,0-0.101-0.033-0.101-0.033
		L158.971,35.085z M159.14,35.389l0.033-0.135l-0.101,0.203L159.14,35.389z M160.728,33.261l0.135-0.203h0.067l0.169-0.169
		c0.033-0.101,0.338-0.506,0.439-0.574c0.068-0.203,0.878-1.183,1.081-1.284l-0.068-0.033v-0.135
		c-0.371,0.405-0.676,0.845-1.115,1.148c0.168-0.405,1.824-2.196,2.196-2.669c-1.689,1.689-3.175,3.547-4.527,5.506v0.101
		l0.035,0.135c0.304-0.473,0.541-0.777,0.912-1.216c-0.033,0.135-0.067,0.236-0.135,0.338l0.236-0.135h0.068
		c0.135-0.168,0.27-0.338,0.338-0.541l0.101-0.068c0.033-0.067,0.068-0.135,0.135-0.168L160.728,33.261z M159.41,34.95
		c0.067-0.068,0.135-0.101,0.203-0.135V34.78c0.035-0.033,0.068-0.168,0.068-0.236L159.41,34.95z M159.647,34.815v0.067
		c0.033-0.033,0.033-0.067,0.033-0.101L159.647,34.815z M162.349,40.356h0.035v-0.101h-0.035V40.356z M162.383,40.018l0.101,0.033
		c0.068-0.304,0.101-0.574,0.136-0.878L162.383,40.018z M166.166,28.802c-1.419,2.838-2.77,7.196-3.547,10.303
		c0.067-0.067,0.101-0.135,0.135-0.203c0.574-1.521,0.912-3.142,1.453-4.662c0.642-1.824,1.419-3.581,2.06-5.405L166.166,28.802z
		 M163.295,30.255c0.068-0.169,0.27-0.236,0.27-0.439l0.371-0.506l-1.317,1.453c0.101-0.068,0.168-0.135,0.304-0.135
		C163.058,30.491,163.126,30.356,163.295,30.255z M163.464,32.181l0.033-0.035h-0.033V32.181z M163.7,31.539
		c0,0.035-0.033,0.035-0.033,0.068h0.033V31.539z M163.836,31.1l-0.101,0.236l0.101,0.033V31.1z M163.936,31.032
		c0.304-0.676,0.676-1.351,1.013-2.027v-0.168c-0.439,0.709-0.777,1.486-1.115,2.263L163.936,31.032z M164.85,30.559
		c0.168-0.371,0.371-0.744,0.506-1.115C165.119,29.782,164.984,30.153,164.85,30.559z M165.592,28.903l-0.033-0.033v0.135
		L165.592,28.903z"/>
	<path class="st0" d="M169.681,39.443c-1.656,0-3.074-1.419-3.074-3.075c0-2.972,2.534-7.027,5.777-7.027
		c1.418,0,2.77,0.777,3.581,1.959c0.068,0.101,0.136,0.203,0.136,0.304c0,0.135-0.068,0.27-0.101,0.405
		c-0.406-0.27-1.351-0.946-1.824-0.946c-3.007,0-5.304,4.054-5.304,6.757c0,0.101,0.035,0.168,0.035,0.27h0.168
		c0.27,0,0.473-0.135,0.709-0.27c0.98-0.609,1.757-1.419,2.365-2.399c0.405-0.608,0.777-1.453,1.351-1.925l1.318,0.777
		c0.304,0.168,0.473,0.473,0.473,0.81c0,2.669-0.236,5.371-1.013,7.905c-1.013,3.31-2.331,6.453-4.763,8.986
		c-0.946,0.98-2.433,2.128-3.885,2.128c-1.115,0-2.601-0.81-2.601-2.06c0-2.77,3.31-7.804,5.236-9.763
		c0.98-1.013,1.993-1.858,3.278-2.499l0.135,0.27c0.304,0.068,0.608,0.27,0.709,0.574c0.541-0.845,0.744-2.567,0.811-3.581
		C172.113,37.923,171.235,39.443,169.681,39.443z M164.309,49.308l1.148-2.298c-0.168,0.135-1.25,2.399-1.351,2.737
		C164.208,49.612,164.309,49.477,164.309,49.308z M164.512,51.774h0.068v-0.169L164.512,51.774z M167.282,45.93
		c-0.676,1.216-1.419,2.433-2.027,3.682c-0.304,0.608-0.439,1.283-0.676,1.925c0.405-0.506,0.506-1.148,0.744-1.723
		c0.439-1.047,1.013-2.027,1.588-3.007c0.203-0.338,0.405-0.676,0.574-1.047L167.282,45.93z M165.12,52.383h0.101l0.236-0.101
		c3.547-1.959,5.744-7.162,6.925-10.878C170.052,43.025,165.154,49.511,165.12,52.383z M165.357,48.463
		c-0.033,0-0.067,0.033-0.067,0.068L165.357,48.463z M167.721,43.632c0.033,0,0.033,0,0.033-0.033L167.721,43.632z M168.938,31.91
		c-0.27,0.304-0.574,0.676-0.777,1.048C168.33,32.855,168.836,32.113,168.938,31.91z M168.532,35.255l0.067,0.033
		c0-0.033,0-0.101,0.033-0.135L168.532,35.255z M169.241,33.87c0.372-0.709,0.912-1.386,1.453-1.925
		c-0.101,0-0.169,0.033-0.236,0.101c-0.845,0.709-1.521,1.723-1.757,2.804C168.938,34.511,169.072,34.207,169.241,33.87z
		 M168.836,43.902c0.033,0,0.033,0,0.033-0.033L168.836,43.902z M169.681,31.234h-0.033l-0.068,0.101L169.681,31.234z
		 M169.647,32.113l-0.033-0.033v0.101L169.647,32.113z M173.397,43.295c-0.676,1.993-1.554,3.919-2.635,5.744
		c-0.304,0.506-0.676,1.013-0.912,1.554c1.385-1.588,2.499-3.851,3.175-5.845c0.203-0.574,0.304-1.148,0.506-1.722
		C173.465,43.092,173.43,43.193,173.397,43.295z M169.849,48.531c0.541-0.676,0.945-1.622,1.283-2.399
		C170.695,46.909,170.255,47.721,169.849,48.531z M170.019,49.376v-0.068c-0.033,0-0.033,0.033-0.033,0.068H170.019z M170.39,48.767
		c0.033,0,0.101-0.035,0.135-0.068L170.39,48.767z M171.235,45.964c0-0.033,0-0.101,0.033-0.135
		c-0.067,0.068-0.101,0.169-0.135,0.27L171.235,45.964z M171.674,36.707c0.338-0.439,0.709-0.878,1.047-1.351L171.674,36.707z
		 M171.708,37.855v0.033c0.033,0,0.101,0,0.135-0.033H171.708z M171.843,37.855l0.406-0.574c-0.169,0.135-0.406,0.27-0.406,0.506
		V37.855z M172.249,43.564c-0.035,0.068-0.068,0.135-0.068,0.203L172.249,43.564z M172.383,43.092l0.033-0.033h-0.033V43.092z
		 M172.45,46.842h0.033v-0.035L172.45,46.842z M172.991,36.369c-0.135,0.136-0.271,0.304-0.371,0.473
		C172.788,36.741,172.924,36.538,172.991,36.369z M172.688,42.213h-0.033v0.033L172.688,42.213z M172.721,37.078l0.068-0.067
		l-0.101,0.067H172.721z M172.856,36.268h-0.035c0,0.033-0.033,0.033-0.033,0.067L172.856,36.268z M173.295,34.376l-0.405,0.709
		c0.135-0.203,0.439-0.541,0.473-0.676L173.295,34.376z M173.194,35.795l-0.033,0.033c0.033,0,0.033,0,0.068-0.033H173.194z
		 M173.633,42.484l-0.068,0.439c0.068-0.135,0.136-0.27,0.169-0.439H173.633z M173.735,42.213h0.101v-0.168L173.735,42.213z
		 M173.836,42.01c0.033-0.033,0.033-0.135,0.067-0.168l-0.067-0.033V42.01z"/>
	<path class="st0" d="M201.133,35.897c-0.744,1.756-2.399,4.763-3.885,5.945c-0.744-0.27-1.284-0.338-1.284-1.284
		c0-1.824,0.406-3.614,0.777-5.405l-1.148,1.183c-0.709,0.744-1.689,2.162-2.872,2.162c-0.845,0-2.095-0.777-2.095-1.722
		c0-1.993,2.128-5.608,3.75-6.756c0.674-0.473,1.52-0.946,2.365-0.946s1.554,0.473,2.162,1.047c0.068,0.068,0.136,0.169,0.136,0.271
		c0,0.067-0.033,0.135-0.067,0.203l-0.98-0.27c-2.433,0.845-3.649,3.581-4.629,5.777l0.068,0.068l0.541-0.406l3.243-2.905
		c0.609-0.541,0.709-1.25,1.487-1.554l0.033,0.338l-0.101,0.033c-0.067,0.136,0,0.101-0.135,0.236l0.101-0.033l0.033-0.168
		l0.101-0.068c0.033-0.067,0.101-0.135,0.203-0.135c0.067,0,0.135,0.068,0.168,0.101l-0.033,0.236l0.136-0.068v-0.033l0.168,0.068
		c-0.27,0.845-0.574,1.656-0.877,2.466l-0.033,0.033c0.033,0,0.033,0,0.033-0.033c0.033-0.033,0.101-0.068,0.101-0.135
		c0.338-0.744,0.609-1.521,0.98-2.23c0.169,0.035,0.304,0.135,0.304,0.304c0,0.236-0.101,0.473-0.169,0.676
		c-0.439,1.216-1.925,5.406-1.925,6.486c0.439-0.27,0.777-0.744,1.114-1.115h0.068c-0.439,0.642-1.048,1.183-1.351,1.892h-0.033
		v0.033c0.033,0,0.033,0,0.033-0.033c0.609-0.608,1.148-1.351,1.689-2.027c0.136-0.168,0.27-0.439,0.439-0.608l0.169-0.168
		c-0.709,1.216-1.825,2.331-2.433,3.581l1.08-1.25l-0.304,0.574l0.236-0.169l0.033,0.136c0.033-0.169,0.203-0.372,0.304-0.541h0.033
		v-0.038l-0.033,0.033h-0.067c0.101-0.27,0.135-0.439,0.371-0.608v0.135l0.068-0.135l0.101-0.068l0.067-0.135
		c0.068-0.27,0.339-0.473,0.439-0.744c0.068-0.168,0.203-0.338,0.304-0.506h-0.035l0.068-0.135h-0.033l0.202-0.371l0.033,0.135
		c0.035-0.169,0.136-0.304,0.203-0.439h-0.033l0.101-0.067c0.067-0.101,0.101-0.203,0.135-0.304v0.033
		C200.863,36.268,200.998,36.098,201.133,35.897z M191.741,34.815c0,0.033-0.035,0.067-0.035,0.101h0.035V34.815z M191.943,34.41
		c0.439-0.744,0.845-1.554,1.318-2.263c0.101-0.135,0.406-0.506,0.406-0.676l-0.068,0.135c-0.473,0.473-1.52,2.298-1.757,2.939
		c-0.033,0.035-0.067,0.101-0.067,0.169l0.067-0.169C191.876,34.511,191.943,34.478,191.943,34.41z M192.282,35.085l0.101-0.236
		c-0.067,0.033-0.067,0.168-0.135,0.236H192.282z M192.349,36.674c-0.033,0.033-0.033,0.101-0.033,0.135h0.033V36.674z
		 M195.154,31.539c-0.878,0.541-2.162,2.94-2.501,3.919c-0.135,0.371-0.202,0.777-0.304,1.148c0.067-0.067,0.101-0.135,0.136-0.236
		C193.126,34.68,194.004,32.923,195.154,31.539z M192.485,34.544c0.338-0.642,0.744-1.216,1.114-1.824v-0.067
		C193.16,33.261,192.788,33.835,192.485,34.544z M193.768,31.369l0.101-0.068h-0.035L193.768,31.369z M193.937,32.181h0.067v-0.035
		C193.971,32.181,193.971,32.181,193.937,32.181z M194.106,31.944h0.035v-0.035C194.106,31.91,194.106,31.91,194.106,31.944z
		 M197.485,37.957h0.033v-0.068h-0.033V37.957z M197.62,41.133c-0.033,0-0.067,0.033-0.067,0.068L197.62,41.133z M197.62,37.281
		l0.033,0.068v-0.101L197.62,37.281z M197.89,40.794l-0.236,0.304C197.755,40.997,197.89,40.964,197.89,40.794z M197.788,36.707
		h0.033v-0.169C197.788,36.606,197.788,36.639,197.788,36.707z M197.822,36.403l0.067-0.135h-0.033L197.822,36.403z M197.89,36.234
		c0.169-0.203,0.203-0.439,0.236-0.676C198.024,35.795,197.958,35.997,197.89,36.234z M197.958,40.896
		c-0.035,0-0.035,0.033-0.068,0.033C197.923,40.93,197.958,40.93,197.958,40.896z M198.092,40.659c0-0.067,0.033-0.135,0.033-0.203
		l-0.203,0.304L198.092,40.659z M198.092,32.619l0.27-0.506C198.262,32.214,198.126,32.451,198.092,32.619z M198.159,40.592
		l-0.033,0.033C198.159,40.626,198.159,40.626,198.159,40.592z M198.194,35.288c-0.035,0.035-0.035,0.068-0.035,0.101
		L198.194,35.288z M198.295,40.558c-0.033,0-0.033,0.035-0.067,0.035h0.067V40.558z M198.295,34.95
		c-0.033,0.033-0.033,0.101-0.033,0.168l0.033-0.068V34.95z M198.532,40.255h-0.033l-0.101,0.067h0.033L198.532,40.255z
		 M198.632,32.552c0,0,0.033,0.067,0.033,0.101l0.136-0.271C198.701,32.417,198.632,32.451,198.632,32.552z M198.801,32.349
		c0.033-0.068,0.033-0.101,0.033-0.168C198.801,32.248,198.801,32.281,198.801,32.349z M199.139,39.24
		c-0.033,0.035-0.033,0.101-0.033,0.135C199.139,39.342,199.139,39.275,199.139,39.24z"/>
	<path class="st0" d="M201.099,38.937c0-1.824,1.183-5.845,1.722-7.702c0.27-0.845,0.575-1.858,0.575-2.77
		c0-0.169-0.068-0.338-0.101-0.507c0.067-0.168,0.203-0.168,0.339-0.168c0.067,0,0.405,0.168,0.473,0.203
		c0.81,0.405,1.385,1.283,1.385,2.23c0,1.96-1.317,6.115-1.993,8.075l0.067,0.033c1.892-2.601,3.683-5.236,5.777-7.669
		c0.812-0.946,1.622-1.892,2.467-2.804c0.27-0.271,0.506-0.541,0.877-0.642c0.642,0.101,1.892,0.777,1.892,1.554
		c0,0.439-0.541,1.824-0.709,2.298c-0.912,2.365-3.344,9.223-3.344,11.486c0,0.338,0.101,0.642,0.406,0.81
		c0,0.203-0.136,0.338-0.338,0.338c-1.925,0-2.298-1.621-2.298-3.208c0-2.128,1.047-5.033,1.689-7.095
		c0.304-1.013,0.744-1.96,1.115-2.94c-0.101,0.068-0.203,0.101-0.304,0.203c-1.486,1.521-2.736,3.378-3.851,5.168
		c-0.709,1.148-2.433,4.054-3.31,4.831c-0.203,0.169-0.304,0.203-0.541,0.203C202.112,40.862,201.099,39.95,201.099,38.937z
		 M204.207,39.173c-0.033,0.033-0.067,0.067-0.067,0.135L204.207,39.173z M204.748,37.248c0.203-0.236,0.339-0.473,0.506-0.709
		C205.051,36.741,204.883,37.012,204.748,37.248z M205.119,37.957c0.033-0.101,0.101-0.169,0.135-0.236
		c-0.101,0.101-0.236,0.27-0.27,0.405L205.119,37.957z M205.154,37.518c0.033,0,0.033,0,0.033-0.033L205.154,37.518z
		 M205.558,36.133c0.067-0.203,0.202-0.271,0.338-0.439c0.27-0.304,0.439-0.676,0.676-1.013c1.52-2.263,3.479-4.188,5.202-6.317
		l0.101-0.135l-0.067-0.068c-1.724,1.824-3.378,3.716-4.832,5.777c-0.541,0.777-1.148,1.521-1.554,2.365L205.558,36.133z
		 M205.49,37.078v-0.033l-0.033,0.033H205.49z M206.133,36.403c-0.236,0.27-0.439,0.541-0.574,0.845
		C205.761,36.978,205.964,36.707,206.133,36.403z M206.066,36.032h-0.101c0,0.033-0.033,0.101-0.067,0.135h0.169l0.033-0.101
		L206.066,36.032z M206.133,36.369c0.169-0.203,0.338-0.439,0.439-0.709C206.437,35.897,206.234,36.098,206.133,36.369z
		 M206.201,35.727v0.101c0,0.033,0,0.068,0.033,0.101c0.035-0.033,0.035-0.101,0.035-0.135h0.135
		c-0.033-0.035-0.101-0.035-0.135-0.035L206.201,35.727z M206.201,36.606v0.068l0.033-0.033L206.201,36.606z M206.335,35.524v0.068
		c0,0,0.067,0.168,0.067,0.203v-0.203c0.033,0,0.067,0,0.101-0.033c-0.033,0-0.101-0.035-0.101-0.035H206.335z M206.504,35.288
		v0.101c0,0.035,0,0.101,0.035,0.135c0-0.101,0.033-0.168,0.135-0.168c-0.033-0.033-0.067-0.033-0.101-0.033L206.504,35.288z
		 M206.64,35.085v0.067c0.033,0.068,0.033,0.135,0.033,0.203c0.033-0.068,0.033-0.135,0.033-0.203l0.068-0.033
		c-0.035,0-0.101-0.033-0.101-0.033L206.64,35.085z M206.809,35.389l0.033-0.135l-0.101,0.203L206.809,35.389z M208.396,33.261
		l0.136-0.203h0.067l0.169-0.169c0.033-0.101,0.338-0.506,0.439-0.574c0.067-0.203,0.877-1.183,1.08-1.284l-0.067-0.033v-0.135
		c-0.372,0.405-0.676,0.845-1.115,1.148c0.169-0.405,1.825-2.196,2.196-2.669c-1.689,1.689-3.175,3.547-4.526,5.506v0.101
		l0.033,0.135c0.304-0.473,0.541-0.777,0.912-1.216c-0.035,0.135-0.068,0.236-0.136,0.338l0.236-0.135h0.067
		c0.136-0.168,0.27-0.338,0.338-0.541l0.101-0.068c0.033-0.067,0.067-0.135,0.136-0.168L208.396,33.261z M207.079,34.95
		c0.067-0.068,0.135-0.101,0.203-0.135V34.78c0.033-0.033,0.067-0.168,0.067-0.236L207.079,34.95z M207.315,34.815v0.067
		c0.033-0.033,0.033-0.067,0.033-0.101L207.315,34.815z M210.018,40.356h0.033v-0.101h-0.033V40.356z M210.051,40.018l0.101,0.033
		c0.067-0.304,0.101-0.574,0.135-0.878L210.051,40.018z M213.835,28.802c-1.419,2.838-2.77,7.196-3.547,10.303
		c0.068-0.067,0.101-0.135,0.136-0.203c0.574-1.521,0.912-3.142,1.453-4.662c0.642-1.824,1.419-3.581,2.06-5.405L213.835,28.802z
		 M210.964,30.255c0.067-0.169,0.27-0.236,0.27-0.439l0.372-0.506l-1.318,1.453c0.101-0.068,0.169-0.135,0.304-0.135
		C210.727,30.491,210.795,30.356,210.964,30.255z M211.133,32.181l0.033-0.035h-0.033V32.181z M211.369,31.539
		c0,0.035-0.033,0.035-0.033,0.068h0.033V31.539z M211.504,31.1l-0.101,0.236l0.101,0.033V31.1z M211.606,31.032
		c0.304-0.676,0.676-1.351,1.013-2.027v-0.168c-0.439,0.709-0.777,1.486-1.115,2.263L211.606,31.032z M212.518,30.559
		c0.168-0.371,0.371-0.744,0.506-1.115C212.788,29.782,212.653,30.153,212.518,30.559z M213.261,28.903l-0.035-0.033v0.135
		L213.261,28.903z"/>
	<path class="st0" d="M224.984,43.801c0,0.338-0.676,0.371-0.878,0.371c-0.641,0-1.216-0.27-1.622-0.777
		c-1.114-1.419-1.418-4.764-1.654-6.554h-0.068c-0.946,1.419-1.892,3.514-3.817,3.514c-2.297,0-2.972-2.263-2.972-4.189
		c0-2.162,1.351-5.303,3.885-5.303c1.115,0,2.028,0.541,2.973,1.047c0.541-3.378,1.182-7.601,3.952-9.932
		c0.406-0.338,0.98-0.709,1.52-0.709c1.351,0,2.231,1.486,2.231,2.702c0,2.365-2.061,5.878-3.614,7.601l-1.453,1.588
		c-0.169,0.168-0.203,0.371-0.203,0.608c0,0.912-0.033,1.857-0.033,2.77c0,1.521,0,5.135,0.608,6.453
		c0.203,0.439,0.642,0.642,1.115,0.709C224.951,43.734,224.984,43.801,224.984,43.801z M214.58,36.065
		c0.101-0.642,0.202-1.25,0.338-1.858C214.648,34.815,214.58,35.424,214.58,36.065z M215.458,34.646
		c-0.135,0.371-0.27,0.744-0.27,1.148c0,0.101,0.033,0.168,0.033,0.27l0.304-1.453L215.458,34.646z M215.593,34.376
		c-0.033,0-0.101,0.033-0.101,0.101c0,0,0.033,0.067,0.033,0.101C215.559,34.511,215.593,34.443,215.593,34.376z M216.539,33.431
		c-0.506,1.013-0.845,1.892-0.845,3.04c0,0.338,0.033,0.676,0.101,1.013c0.135-1.419,0.168-2.838,0.912-4.122L216.539,33.431z
		 M216.336,35.389h0.033v-0.067h-0.033V35.389z M220.728,33.092h-0.067c-0.541-0.405-0.98-1.216-1.722-1.216
		c-0.169,0-0.236,0.033-0.372,0.135c-1.386,1.148-1.993,3.142-1.993,4.899c0,0.676,0.067,2.027,0.541,2.534
		c0.236-0.203,0.439-0.371,0.642-0.608c0.405-0.506,2.972-4.122,2.972-4.459L220.728,33.092L220.728,33.092z M216.708,33.261h-0.033
		c0,0.033,0,0.033,0.033,0.067V33.261z M222.653,32.045h-0.033v0.203h0.033V32.045z M222.688,31.504l0.033-0.033h-0.033V31.504z
		 M222.756,31.133h0.033V31.1L222.756,31.133z M223.33,24.748V24.68c0,0.033-0.033,0.033-0.033,0.068H223.33z M224.579,29.985
		c1.148-1.486,3.108-4.358,3.108-6.25c0-0.541,0-1.081-0.371-1.52c-0.507,0.067-0.812,0.371-1.115,0.777
		c-1.756,2.365-2.162,5.405-2.669,8.243C223.7,31.234,224.445,30.153,224.579,29.985z M227.889,24.208h-0.067l0.067,0.236
		c-0.203,0-0.169,0.135-0.203,0.27c-0.169,0.777-0.541,1.521-0.912,2.23c-0.844,1.689-1.892,3.276-3.208,4.662v0.135
		c1.283-1.419,4.324-5.608,4.324-7.433v-0.1H227.889z M223.666,26.809l-0.033,0.033c0,0.033,0,0.033,0.033,0.033V26.809z
		 M224.208,25.356c-0.101,0.135-0.169,0.27-0.236,0.439C224.174,25.694,224.14,25.525,224.208,25.356z M224.208,23.296
		c-0.035,0.033-0.101,0.101-0.101,0.168L224.208,23.296z M224.545,31.032l-0.439,0.676c0.136-0.135,0.575-0.574,0.609-0.709
		C224.646,31.032,224.613,31.032,224.545,31.032z M224.174,32.113v0.068c0-0.035,0-0.035,0.035-0.068H224.174z M224.208,25.356
		c0.033-0.101,0.101-0.169,0.135-0.236c0.506-0.946,0.946-1.858,1.722-2.669c-0.709,0.27-1.588,2.095-1.857,2.804V25.356z
		 M224.208,23.296c0.236-0.236,0.473-0.541,0.641-0.81C224.613,22.722,224.377,22.991,224.208,23.296z M224.917,30.795l-0.101-0.033
		l-0.101,0.067v0.169c0.033-0.068,0.067-0.135,0.135-0.169C224.883,30.829,224.883,30.795,224.917,30.795z M224.849,22.485
		l0.27-0.236h-0.067L224.849,22.485z M224.883,31.065l0.271-0.168c-0.035-0.068,0-0.101,0-0.169L224.883,31.065z M225.289,30.187
		l-0.067-0.033c-0.067,0.101-0.101,0.203-0.203,0.304v0.169c0.067-0.135,0.236-0.406,0.406-0.406
		C225.39,30.187,225.322,30.187,225.289,30.187z M225.154,30.998l0.033-0.101h-0.033V30.998z M225.425,30.018l0.101-0.068
		c0.339-0.608,0.744-1.148,1.183-1.689c-0.304,0.81-0.946,1.554-1.419,2.298c0.339-0.236,0.439-0.744,0.811-0.98l0.035,0.135
		l0.033-0.135c0.101-0.068,0.135-0.203,0.236-0.304l0.067-0.135c0.033-0.067,0.067-0.135,0.136-0.203l0.067-0.169l0.067-0.135
		h-0.067l0.236-0.371l0.033,0.168c0-0.168,0.101-0.304,0.169-0.473l0.067-0.135l0.169-0.203c0-0.203,0.27-0.473,0.27-0.676
		l0.101-0.135l0.101-0.338c0.236-0.236,0.574-1.588,0.574-1.959c0-0.135-0.101-0.271-0.169-0.371l-0.101,0.033
		c-0.27,0.845-0.473,1.722-0.845,2.534c-0.27,0.574-0.877,1.824-1.25,2.298l-0.168,0.203c-0.068,0.168-0.406,0.574-0.406,0.676
		l-0.101,0.068v0.068c0,0.033,0.035,0.168,0.068,0.203v-0.205H225.425z"/>
	<path class="st0" d="M259.602,20.725c0.273,0.136,0.452,0.33,0.541,0.583c0.087,0.253,0.117,0.54,0.087,0.86
		c-0.029,0.322-0.107,0.646-0.233,0.977c-0.127,0.331-0.273,0.646-0.437,0.949c-0.166,0.302-0.336,0.569-0.51,0.802
		c-0.175,0.233-0.321,0.398-0.437,0.495c-0.04-0.039-0.089-0.058-0.146-0.058l-0.058-0.029c-0.039,0-0.058-0.01-0.058-0.029
		c-0.33-0.078-0.623-0.073-0.874,0.015c-0.253,0.087-0.472,0.229-0.657,0.423c-0.185,0.194-0.321,0.423-0.408,0.685
		c-0.087,0.262-0.112,0.53-0.072,0.802c-0.136-0.214-0.175-0.515-0.117-0.904c-0.097,0.253-0.132,0.52-0.103,0.802
		s0.14,0.559,0.336,0.831c-0.351-0.058-0.627-0.194-0.831-0.408c-0.205-0.214-0.345-0.462-0.423-0.744s-0.112-0.569-0.101-0.86
		c0.01-0.291,0.053-0.544,0.132-0.759c-0.214,0.39-0.331,0.778-0.351,1.167c-0.019,0.39,0.039,0.734,0.175,1.035
		c0.136,0.302,0.355,0.559,0.656,0.773c0.301,0.214,0.666,0.341,1.093,0.379c-0.33,0.194-0.728,0.229-1.196,0.101
		c-0.467-0.126-0.881-0.398-1.239-0.817c-0.359-0.418-0.609-0.967-0.744-1.648c-0.136-0.68-0.039-1.487,0.291-2.421
		c-0.7-0.544-1.355-0.904-1.968-1.079s-1.147-0.223-1.604-0.146c-0.458,0.078-0.821,0.263-1.094,0.554
		c-0.272,0.291-0.433,0.632-0.48,1.021c-0.05,0.39,0.039,0.798,0.262,1.225c0.223,0.428,0.598,0.817,1.122,1.167
		c1.322,0.895,2.362,1.857,3.121,2.888c0.758,1.031,1.287,2.075,1.589,3.135c0.301,1.06,0.39,2.1,0.262,3.121
		c-0.126,1.021-0.418,1.968-0.874,2.844c-0.458,0.875-1.06,1.638-1.808,2.289c-0.749,0.651-1.6,1.137-2.552,1.458
		c-0.953,0.322-1.984,0.442-3.092,0.365s-2.246-0.418-3.412-1.021c-1.069-0.545-1.906-1.221-2.508-2.027
		c-0.603-0.807-1.011-1.663-1.225-2.566c-0.214-0.904-0.258-1.813-0.132-2.727c0.126-0.914,0.379-1.759,0.758-2.537
		c0.38-0.777,0.856-1.439,1.429-1.983s1.21-0.895,1.91-1.05c-0.233,0.175-0.578,0.452-1.035,0.831
		c-0.458,0.379-0.871,0.889-1.239,1.531c0.272-0.466,0.685-0.909,1.239-1.327c0.554-0.419,1.21-0.646,1.968-0.685
		c0.427,0,0.841,0.112,1.239,0.336c0.398,0.223,0.744,0.495,1.036,0.817c0.291,0.322,0.515,0.666,0.67,1.035
		c0.155,0.37,0.204,0.7,0.146,0.992c-0.642-0.175-1.265-0.14-1.867,0.103c-0.602,0.244-1.137,0.608-1.604,1.093
		c-0.467,0.487-0.846,1.06-1.137,1.721c-0.291,0.662-0.458,1.327-0.496,1.998c-0.039,0.671,0.063,1.312,0.306,1.925
		c0.243,0.612,0.666,1.113,1.269,1.502c0.835,0.544,1.697,0.778,2.581,0.7c0.884-0.078,1.681-0.374,2.39-0.889
		c0.71-0.515,1.293-1.205,1.75-2.071c0.457-0.866,0.685-1.809,0.685-2.83c0-1.021-0.283-2.085-0.846-3.193
		c-0.564-1.108-1.498-2.158-2.799-3.15c-1.225-0.934-2.1-1.885-2.625-2.858c-0.524-0.972-0.764-1.885-0.714-2.741
		c0.049-0.856,0.359-1.604,0.934-2.246c0.574-0.642,1.343-1.089,2.304-1.341c0.963-0.253,2.089-0.272,3.383-0.058
		c1.293,0.215,2.697,0.739,4.214,1.576c0.35-0.311,0.719-0.549,1.108-0.714c0.389-0.165,0.773-0.268,1.153-0.306
		c0.379-0.039,0.738-0.029,1.079,0.029C259.053,20.492,259.35,20.589,259.602,20.725z M244.991,31.896
		c-0.681,0.156-1.244,0.516-1.692,1.079c-0.448,0.564-0.788,1.201-1.021,1.91c-0.233,0.71-0.355,1.409-0.364,2.1
		c-0.011,0.691,0.092,1.239,0.305,1.648c-0.233-0.719-0.287-1.448-0.16-2.188c0.126-0.739,0.339-1.425,0.641-2.056
		c0.301-0.631,0.662-1.171,1.079-1.619C244.197,32.323,244.601,32.032,244.991,31.896z M246.829,32.45
		c0.077-0.019,0.117-0.004,0.117,0.044c0,0.049-0.029,0.093-0.089,0.132c-0.058,0.019-0.093,0.005-0.101-0.043
		C246.744,32.533,246.769,32.489,246.829,32.45z M247.12,32.8c-0.097,0.019-0.141-0.015-0.132-0.103
		c0.011-0.087,0.035-0.171,0.073-0.248c0.058,0.039,0.106,0.103,0.146,0.19C247.246,32.727,247.217,32.781,247.12,32.8z
		 M247.44,32.479c0.175-0.019,0.325,0.005,0.452,0.073c0.126,0.068,0.218,0.146,0.277,0.233c0.058,0.087,0.083,0.175,0.072,0.262
		c-0.01,0.087-0.072,0.141-0.189,0.161c-0.214,0.039-0.351-0.039-0.408-0.233C247.586,32.781,247.518,32.616,247.44,32.479z
		 M248.228,23.292c0-0.194,0.053-0.408,0.16-0.642c0.107-0.233,0.277-0.441,0.51-0.627c0.233-0.185,0.54-0.321,0.918-0.408
		c0.38-0.087,0.852-0.082,1.415,0.015c-0.214-0.078-0.501-0.121-0.86-0.132c-0.359-0.01-0.705,0.043-1.035,0.16
		c-0.331,0.117-0.609,0.306-0.831,0.569C248.281,22.49,248.188,22.845,248.228,23.292z M251.874,34.288
		c0.038-0.466-0.035-0.963-0.219-1.487c-0.185-0.526-0.423-1.031-0.714-1.517s-0.623-0.914-0.992-1.283
		c-0.369-0.369-0.719-0.622-1.05-0.759c0.175,0.136,0.412,0.345,0.714,0.627c0.301,0.283,0.608,0.632,0.918,1.05
		c0.311,0.419,0.588,0.91,0.831,1.473C251.606,32.956,251.777,33.587,251.874,34.288z M249.161,22.592
		c0.039-0.039,0.121-0.092,0.248-0.161c0.126-0.068,0.272-0.126,0.437-0.175s0.34-0.087,0.524-0.117
		c0.185-0.029,0.365-0.024,0.54,0.014c-0.097-0.058-0.229-0.087-0.394-0.087s-0.34,0.025-0.524,0.073
		c-0.185,0.049-0.355,0.112-0.51,0.19C249.326,22.408,249.22,22.495,249.161,22.592z M252.923,32.625
		c0-0.272-0.054-0.559-0.161-0.86c-0.107-0.301-0.244-0.588-0.408-0.86c-0.165-0.272-0.345-0.51-0.54-0.714
		c-0.194-0.204-0.379-0.355-0.554-0.452c0.33,0.273,0.662,0.671,0.992,1.196C252.583,31.459,252.807,32.022,252.923,32.625z
		 M253.507,33.471c0.117-0.35,0.132-0.739,0.044-1.167c-0.088-0.427-0.234-0.85-0.437-1.269c-0.205-0.418-0.452-0.798-0.744-1.137
		c-0.291-0.34-0.592-0.588-0.903-0.744c0.311,0.214,0.597,0.486,0.86,0.817s0.491,0.695,0.685,1.093s0.336,0.807,0.423,1.225
		C253.522,32.708,253.546,33.102,253.507,33.471z M253.945,32.508c0-0.311-0.044-0.627-0.132-0.949
		c-0.089-0.321-0.209-0.612-0.365-0.875c-0.155-0.263-0.326-0.495-0.51-0.7c-0.185-0.204-0.364-0.355-0.54-0.452
		c0.311,0.273,0.623,0.681,0.934,1.225C253.643,31.304,253.847,31.886,253.945,32.508z M255.636,24.429
		c0.097-0.097,0.237-0.214,0.423-0.35c0.185-0.136,0.394-0.258,0.627-0.365c0.234-0.107,0.491-0.185,0.774-0.233
		c0.282-0.049,0.588-0.043,0.918,0.015c-0.33-0.117-0.652-0.155-0.963-0.117c-0.312,0.039-0.588,0.117-0.831,0.233
		c-0.244,0.117-0.447,0.253-0.613,0.408C255.806,24.176,255.694,24.312,255.636,24.429z"/>
	<path class="st0" d="M269.589,24.815c-0.778,0.946-3.784,1.216-5,1.419c-1.216,3.952-1.925,8.04-2.601,12.128
		c-0.339,2.162-0.609,4.392-0.609,6.588c0,0.878,0.136,1.79,0.339,2.635c0.033,0.101,0.033,0.168,0.033,0.27
		c0,0.304-0.439,0.405-0.676,0.405c-0.101,0-0.135-0.101-0.169-0.168l-0.202,0.304c-0.406-0.203-0.845-0.304-1.251-0.507
		c-1.25-0.642-1.25-2.939-1.25-4.122c0-3.547,0.473-7.162,1.013-10.676c0.136-0.81,0.203-1.656,0.372-2.466
		c0.169-0.946,0.406-1.892,0.541-2.838c0.033-0.236,0.136-0.439,0.136-0.676c0-0.168-0.304-0.168-0.406-0.168
		c-0.338,0-0.709,0.033-1.047,0.033l0.033-0.033c-0.339-0.101-0.777-0.439-1.013-0.744l0.033-0.203l-0.304-0.168
		c0.068-0.338,0.136-0.439,0.473-0.541c0.744-0.203,1.521-0.27,2.264-0.439c0.744-0.98,1.419-1.993,1.892-3.142
		c0.371-0.878,0.912-1.722,1.386-2.534c0.135-0.236,0.27-0.439,0.574-0.439l0.406,0.203l-0.236,0.541
		c0.202-0.203,0.338-0.406,0.506-0.608l0.135,0.203l0.27-0.033l-0.168,0.473l0.27-0.236l0.371,0.135v0.338l0.27-0.067
		c0.203,0.168,0.541,0.338,0.541,0.642c0,0.135-1.216,3.614-1.216,3.614c0.236-0.033,0.506,0,0.744-0.068
		c0.574-0.135,1.148-0.135,1.756-0.135c0.709,0,0.878,0.135,1.318,0.709C269.116,24.714,269.386,24.782,269.589,24.815z
		 M259.15,40.255h-0.033v0.439h0.033V40.255z M259.285,38.835h-0.033v0.405h0.033V38.835z M259.759,35.491l-0.101-0.033
		l-0.338,2.804h0.067C259.488,37.349,259.623,36.403,259.759,35.491z M261.379,26.775c-0.473,0.744-1.587,7.162-1.587,8.243v0.169
		C260.265,32.383,260.669,29.546,261.379,26.775z M259.859,41.674v-0.338h-0.033v0.338H259.859z M259.859,40.829h0.033v-0.068
		h-0.033V40.829z M259.995,39.478h-0.035l-0.033,0.642h0.033L259.995,39.478z M260.095,38.667h-0.033
		c0,0.168-0.033,0.304-0.033,0.473h0.067L260.095,38.667L260.095,38.667z M260.163,38.092v0.168
		c0.304-1.959,0.575-3.919,0.946-5.844c0.372-1.96,0.812-3.885,1.216-5.845C261.717,27.349,260.163,36.707,260.163,38.092z
		 M263.406,26.437l-0.304,0.033c-0.845,2.77-1.351,5.676-1.825,8.513c-0.439,2.905-0.912,5.878-0.912,8.817
		c0,0.507,0,1.048,0.067,1.554C260.704,38.97,261.785,32.619,263.406,26.437z M260.872,24.68v0.068l0.136-0.203
		C260.94,24.546,260.872,24.614,260.872,24.68z M261.075,41.944h-0.033v0.101h0.033V41.944z M261.177,41.032v-0.168
		c-0.035,0.033-0.035,0.101-0.035,0.168H261.177z M261.312,39.917v-0.101h-0.033v0.101H261.312z M261.414,39.004h-0.035v0.136h0.035
		V39.004z M261.514,38.295h-0.033v0.135L261.514,38.295z M261.616,37.789c-0.033-0.033-0.033-0.101-0.033-0.135h-0.033
		c0,0.033,0,0.101,0.033,0.135H261.616z M261.684,36.978h-0.035v0.236h0.035V36.978z M261.785,36.403h-0.033v0.135h0.033V36.403z
		 M261.819,30.424v0.101h0.033v-0.101H261.819z M261.886,35.997v-0.27h-0.033v0.27H261.886z M261.92,29.985
		c0,0.068,0,0.101-0.035,0.169h0.035l0.033-0.169H261.92z M261.987,35.424v-0.203h-0.067v0.203H261.987z M261.987,29.714h0.033
		v-0.067L261.987,29.714z M262.089,34.883c0-0.067,0-0.101-0.033-0.168h-0.033v0.168H262.089z M262.089,29.208v0.101h0.033v-0.101
		H262.089z M262.157,34.308v-0.135h-0.035v0.135H262.157z M262.258,33.903v-0.236h-0.033l-0.033,0.236H262.258z M262.291,28.464
		l-0.067,0.101h0.067V28.464z M262.258,24.005l0.033-0.035C262.258,23.971,262.258,23.971,262.258,24.005z M262.358,33.396
		c0-0.068,0-0.135-0.033-0.203h-0.033v0.203H262.358z M262.325,28.16l0.033,0.033l0.068-0.135L262.325,28.16z M262.427,32.687
		h-0.033v0.27h0.033V32.687z M262.528,32.484v-0.236h-0.033l-0.033,0.203C262.494,32.484,262.494,32.484,262.528,32.484z
		 M262.494,27.654l0.067-0.168l-0.067-0.035V27.654z M262.595,31.809h-0.033v0.236h0.033V31.809z M262.595,27.146v0.067
		c0.035-0.033,0.035-0.033,0.035-0.067H262.595z M262.697,31.572v-0.203h-0.033v0.203H262.697z M262.798,30.964l-0.067,0.169
		l0.067,0.033V30.964z M262.934,30.559c-0.067,0-0.136,0.068-0.136,0.135c0,0.068,0.033,0.101,0.033,0.169L262.934,30.559z
		 M262.9,30.356c0,0.068,0.033,0.101,0.033,0.169l0.101-0.338C262.967,30.221,262.9,30.255,262.9,30.356z M263,24.343
		c0.27-0.27,0.304-0.642,0.372-0.98C263.103,23.634,263.068,24.005,263,24.343z M263.035,30.153c0-0.101,0.033-0.203,0.033-0.304
		h-0.067C263,29.95,263,30.052,263.035,30.153z M263.136,29.647v-0.169c-0.033,0.068-0.068,0.101-0.068,0.169H263.136z
		 M263.17,29.275c-0.033,0.035-0.033,0.068-0.033,0.101l0.033-0.033V29.275z M263.237,29.038l0.033-0.101
		C263.237,28.971,263.237,29.005,263.237,29.038z M263.339,28.634l-0.035,0.033c0,0.101-0.033,0.169-0.033,0.271l0.068-0.271V28.634
		L263.339,28.634z M263.508,28.093c-0.168,0.135-0.168,0.338-0.168,0.541C263.406,28.464,263.474,28.261,263.508,28.093z
		 M263.406,23.296c-0.033,0.033-0.033,0.033-0.033,0.067C263.373,23.329,263.406,23.329,263.406,23.296z M263.677,27.484
		c-0.101,0.101-0.169,0.236-0.169,0.371c0,0.067,0,0.135,0.033,0.203C263.576,27.857,263.609,27.687,263.677,27.484z
		 M263.508,28.093h0.033v-0.035L263.508,28.093z M263.576,20.863c0.033-0.033,0.033-0.033,0.033-0.067
		C263.609,20.83,263.576,20.83,263.576,20.863z M263.677,20.559l-0.067,0.168C263.643,20.694,263.677,20.627,263.677,20.559z
		 M263.744,20.424l-0.067,0.135C263.711,20.525,263.744,20.457,263.744,20.424z M263.677,27.349l0.101-0.236v-0.135
		C263.711,27.113,263.711,27.214,263.677,27.349z M263.947,26.504v-0.135l-0.135,0.371
		C263.913,26.707,263.947,26.606,263.947,26.504z M265.163,21.269c-0.101,0.168-0.236,0.304-0.338,0.439
		c-0.169,0.304-0.946,2.23-0.946,2.499h0.067c0.169,0,0.236-0.135,0.27-0.27C264.556,23.059,264.825,22.181,265.163,21.269z
		 M264.082,19.951c-0.035,0.033-0.068,0.101-0.068,0.135C264.047,20.053,264.082,19.985,264.082,19.951z M264.047,21.572
		l0.101-0.067h-0.101V21.572z M264.25,19.58c-0.067,0.135-0.135,0.236-0.168,0.371l0.168-0.304V19.58z"/>
	<path class="st0" d="M265.602,42.613c-0.406,0.541-0.845,1.081-1.453,1.418l-1.183-0.405l0.067-0.101
		c0.574-0.574,1.013-1.183,1.453-1.857c1.689-2.702,2.804-5.574,3.378-8.716c-1.283-0.878-3.075-1.857-3.075-3.649
		c0-0.912,0.812-2.027,1.79-2.027c0.303,0,0.574,0.068,0.844,0.203c1.115,0.473,1.79,1.52,1.925,2.702
		c0.068,0.744,0.169,1.487,0.203,2.23c1.148,0.676,2.399,1.351,3.378,2.263c0.541,0.506,0.812,1.081,0.812,1.824
		c0,1.013-0.642,2.702-0.98,3.716c-0.609,1.79-1.689,4.594-1.689,6.453c0,0.439,0.067,0.912,0.236,1.318l0.945,0.236l-0.033,0.271
		l0.033,0.033l0.169-0.203h0.27c0.068,0.135,0.101,0.27,0.101,0.406c0,0.642-1.014,0.845-1.521,0.845
		c-2.196,0-3.074-2.365-3.074-4.223c0-2.263,1.419-5.945,2.23-8.107c0.203-0.506,0.574-1.588,0.574-2.095
		c0-0.81-0.947-1.148-1.554-1.418C269.047,37.038,267.528,39.944,265.602,42.613z M265.433,28.593l0.067,0.067
		c0.033-0.135,0.068-0.27,0.136-0.371L265.433,28.593z M265.636,41.769l-0.033,0.033h0.033V41.769z M265.872,40.012
		c0.169-0.101,0.236-0.338,0.27-0.541L265.872,40.012z M266.514,28.627c-0.101,0.101-0.203,0.236-0.203,0.406
		c0,0.067,0,0.101,0.033,0.168C266.413,29.032,266.446,28.829,266.514,28.627z M267.899,31.16c0-0.642-0.168-2.095-0.541-2.567
		c-0.338,0.304-0.541,0.709-0.541,1.148c0,0.709,0.439,1.52,1.047,1.857C267.866,31.464,267.899,31.295,267.899,31.16z
		 M268.677,34.91c-0.507,1.656-1.081,3.243-1.79,4.831c0.709-0.777,1.757-3.919,1.892-5
		C268.711,34.775,268.711,34.842,268.677,34.91z M267.089,37.376c0.169-0.338,0.303-0.642,0.371-0.98l-0.067,0.033L267.089,37.376z
		 M267.561,35.89c-0.101,0.135-0.136,0.304-0.101,0.439L267.561,35.89z M267.629,35.721c0.033-0.033,0.033-0.067,0.033-0.101
		L267.629,35.721z M267.696,35.451c0,0.033,0,0.101-0.033,0.135c0.033-0.033,0.068-0.101,0.068-0.135H267.696z M267.798,35.045
		l0.101-0.135h-0.033L267.798,35.045z M267.967,34.639l-0.035-0.067v0.101L267.967,34.639z M268.845,34.37h-0.033v0.135h0.033V34.37
		z M268.913,33.998h-0.035v0.101h0.035V33.998z M270.872,38.085l-1.622,4.932l-0.372,1.351c0.304-0.608,0.507-1.318,0.709-1.993
		c0.575-1.79,1.216-3.547,1.723-5.371C271.075,37.275,270.974,37.748,270.872,38.085z M269.656,45.012
		c0-0.068-0.033-0.101-0.033-0.169c-0.035,0.068-0.035,0.101-0.035,0.169H269.656z M271.819,37.579l-1.655,4.864
		c-0.236,0.744-0.339,1.554-0.506,2.298l0.067-0.067c0.303-1.013,0.541-2.06,0.878-3.075c0.438-1.351,1.08-2.702,1.317-4.122
		L271.819,37.579z M270.433,44.944c0.338-1.689,0.946-3.344,1.52-5c0.339-1.013,0.777-2.06,0.878-3.142h-0.067
		c-0.812,2.263-1.554,4.594-2.264,6.892c-0.203,0.676-0.338,1.351-0.338,2.06c0,0.203,0,0.405,0.033,0.608
		C270.297,45.889,270.332,45.416,270.433,44.944z M270.366,43.356v-0.033l-0.035,0.033H270.366z M270.703,42.14l0.033-0.035h-0.033
		V42.14z M270.771,41.869l0.033,0.035v-0.035H270.771z M270.804,45.112h-0.033c0,0.035,0,0.035,0.033,0.068V45.112z M270.839,41.667
		l0.033,0.033v-0.033H270.839z M270.872,44.775h-0.033v0.067h0.033V44.775z M271.075,44.032h0.033V43.93h-0.033V44.032z
		 M271.177,43.626h-0.033v0.101h0.033V43.626z M271.311,40.316l-0.035,0.033h0.035V40.316z M271.311,43.187
		c-0.035,0-0.035,0.035-0.035,0.068h0.035V43.187z M271.345,36.802v0.135c0.033-0.033,0.033-0.101,0.033-0.135H271.345z
		 M271.379,42.95l-0.033,0.035h0.033V42.95z M271.413,42.714l0.067,0.033c0-0.033,0-0.068-0.033-0.101L271.413,42.714z
		 M271.548,42.41h-0.035v0.101h0.035V42.41z M271.75,41.769h-0.033c0,0.033,0,0.033,0.033,0.033V41.769z M271.819,38.862
		l-0.035,0.035h0.035V38.862z M271.819,41.566c-0.035,0-0.035,0-0.035,0.033L271.819,41.566z M271.987,37.308h-0.067v0.101
		L271.987,37.308z M271.953,41.16l0.033-0.035h-0.033V41.16z M272.021,40.957c0.035,0,0.035-0.033,0.035-0.068h-0.035V40.957z
		 M272.089,40.721h0.033v-0.068h-0.033V40.721z M272.493,39.639h-0.033v0.067h0.033V39.639z M272.528,39.471h0.033v-0.033h-0.033
		V39.471z M272.595,39.2l0.033,0.035V39.2H272.595z M273.068,37.882v-0.033l-0.033,0.033H273.068z"/>
	<path class="st0" d="M284.859,39.432c-0.744,1.756-2.399,4.763-3.885,5.945c-0.744-0.27-1.284-0.338-1.284-1.284
		c0-1.824,0.406-3.614,0.777-5.405l-1.148,1.183c-0.709,0.744-1.689,2.162-2.872,2.162c-0.845,0-2.095-0.777-2.095-1.722
		c0-1.993,2.128-5.608,3.75-6.756c0.674-0.473,1.52-0.946,2.365-0.946s1.554,0.473,2.162,1.047c0.068,0.068,0.136,0.169,0.136,0.271
		c0,0.067-0.033,0.135-0.067,0.203l-0.98-0.27c-2.433,0.845-3.649,3.581-4.629,5.777l0.068,0.068l0.541-0.406l3.243-2.905
		c0.609-0.541,0.709-1.25,1.487-1.554l0.033,0.338l-0.101,0.033c-0.067,0.136,0,0.101-0.135,0.236l0.101-0.033l0.033-0.168
		l0.101-0.068c0.033-0.067,0.101-0.135,0.203-0.135c0.067,0,0.135,0.068,0.168,0.101l-0.033,0.236l0.136-0.068v-0.033l0.168,0.068
		c-0.27,0.845-0.574,1.656-0.877,2.466l-0.033,0.033c0.033,0,0.033,0,0.033-0.033c0.033-0.033,0.101-0.068,0.101-0.135
		c0.339-0.744,0.609-1.521,0.98-2.23c0.169,0.035,0.304,0.135,0.304,0.304c0,0.236-0.101,0.473-0.169,0.676
		c-0.439,1.216-1.925,5.406-1.925,6.486c0.439-0.27,0.777-0.744,1.114-1.115h0.068c-0.439,0.642-1.048,1.183-1.351,1.892h-0.033
		v0.033c0.033,0,0.033,0,0.033-0.033c0.609-0.608,1.148-1.351,1.689-2.027c0.136-0.168,0.27-0.439,0.439-0.608l0.169-0.168
		c-0.709,1.216-1.825,2.331-2.433,3.581l1.08-1.25l-0.303,0.574l0.236-0.169l0.033,0.136c0.033-0.169,0.203-0.372,0.304-0.541h0.033
		v-0.033l-0.033,0.033h-0.067c0.101-0.27,0.135-0.439,0.371-0.608v0.135l0.068-0.135l0.101-0.068l0.067-0.135
		c0.068-0.27,0.339-0.473,0.439-0.744c0.068-0.168,0.203-0.338,0.304-0.506h-0.035l0.068-0.135h-0.033l0.202-0.371l0.033,0.135
		c0.035-0.169,0.136-0.304,0.203-0.439h-0.033l0.101-0.067c0.067-0.101,0.101-0.203,0.135-0.304v0.033
		C284.589,39.803,284.724,39.634,284.859,39.432z M275.467,38.351c0,0.033-0.035,0.067-0.035,0.101h0.035V38.351z M275.669,37.945
		c0.439-0.744,0.845-1.554,1.318-2.263c0.101-0.135,0.406-0.506,0.406-0.676l-0.068,0.135c-0.473,0.473-1.52,2.298-1.756,2.939
		c-0.033,0.035-0.067,0.101-0.067,0.169l0.067-0.169C275.602,38.046,275.669,38.013,275.669,37.945z M276.008,38.621l0.101-0.236
		c-0.067,0.033-0.067,0.168-0.135,0.236H276.008z M276.075,40.208c-0.033,0.033-0.033,0.101-0.033,0.135h0.033V40.208z
		 M278.879,35.073c-0.878,0.541-2.162,2.94-2.501,3.919c-0.135,0.371-0.202,0.777-0.303,1.148c0.067-0.067,0.101-0.135,0.136-0.236
		C276.852,38.215,277.731,36.459,278.879,35.073z M276.211,38.08c0.338-0.642,0.744-1.216,1.114-1.824v-0.067
		C276.887,36.797,276.514,37.371,276.211,38.08z M277.494,34.905l0.101-0.068h-0.035L277.494,34.905z M277.664,35.715h0.067V35.68
		C277.697,35.715,277.697,35.715,277.664,35.715z M277.832,35.479h0.035v-0.035C277.832,35.446,277.832,35.446,277.832,35.479z
		 M281.211,41.492h0.033v-0.068h-0.033V41.492z M281.345,44.667c-0.033,0-0.067,0.033-0.067,0.068L281.345,44.667z M281.345,40.817
		l0.033,0.068v-0.101L281.345,40.817z M281.616,44.33l-0.236,0.304C281.481,44.533,281.616,44.499,281.616,44.33z M281.514,40.243
		h0.033v-0.168C281.514,40.141,281.514,40.175,281.514,40.243z M281.548,39.938l0.067-0.135h-0.033L281.548,39.938z M281.616,39.769
		c0.169-0.203,0.203-0.439,0.236-0.676C281.751,39.331,281.684,39.533,281.616,39.769z M281.684,44.431
		c-0.035,0-0.035,0.033-0.068,0.033C281.649,44.465,281.684,44.465,281.684,44.431z M281.819,44.195
		c0-0.067,0.033-0.135,0.033-0.203l-0.203,0.304L281.819,44.195z M281.819,36.155l0.27-0.506
		C281.987,35.749,281.852,35.986,281.819,36.155z M281.886,44.128l-0.033,0.033C281.886,44.161,281.886,44.161,281.886,44.128z
		 M281.92,38.824c-0.035,0.035-0.035,0.068-0.035,0.101L281.92,38.824z M282.022,44.093c-0.033,0-0.033,0.035-0.067,0.035h0.067
		V44.093z M282.022,38.486c-0.033,0.033-0.033,0.101-0.033,0.168l0.033-0.068V38.486z M282.258,43.79h-0.033l-0.101,0.067h0.033
		L282.258,43.79z M282.358,36.088c0,0,0.033,0.067,0.033,0.101l0.136-0.271C282.426,35.952,282.358,35.986,282.358,36.088z
		 M282.528,35.885c0.033-0.068,0.033-0.101,0.033-0.168C282.528,35.783,282.528,35.817,282.528,35.885z M282.866,42.776
		c-0.033,0.035-0.033,0.101-0.033,0.135C282.866,42.877,282.866,42.81,282.866,42.776z"/>
	<path class="st0" d="M296.007,24.815c-0.778,0.946-3.784,1.216-5,1.419c-1.216,3.952-1.925,8.04-2.601,12.128
		c-0.338,2.162-0.609,4.392-0.609,6.588c0,0.878,0.136,1.79,0.339,2.635c0.033,0.101,0.033,0.168,0.033,0.27
		c0,0.304-0.439,0.405-0.676,0.405c-0.101,0-0.135-0.101-0.169-0.168l-0.202,0.304c-0.406-0.203-0.845-0.304-1.251-0.507
		c-1.25-0.642-1.25-2.939-1.25-4.122c0-3.547,0.473-7.162,1.013-10.676c0.136-0.81,0.203-1.656,0.372-2.466
		c0.169-0.946,0.406-1.892,0.541-2.838c0.033-0.236,0.136-0.439,0.136-0.676c0-0.168-0.304-0.168-0.406-0.168
		c-0.338,0-0.709,0.033-1.047,0.033l0.033-0.033c-0.339-0.101-0.777-0.439-1.013-0.744l0.033-0.203l-0.304-0.168
		c0.068-0.338,0.136-0.439,0.473-0.541c0.744-0.203,1.521-0.27,2.264-0.439c0.744-0.98,1.419-1.993,1.892-3.142
		c0.371-0.878,0.912-1.722,1.386-2.534c0.135-0.236,0.27-0.439,0.574-0.439l0.406,0.203l-0.236,0.541
		c0.202-0.203,0.338-0.406,0.506-0.608l0.135,0.203l0.27-0.033l-0.168,0.473l0.27-0.236l0.371,0.135v0.338l0.271-0.067
		c0.202,0.168,0.541,0.338,0.541,0.642c0,0.135-1.216,3.614-1.216,3.614c0.236-0.033,0.506,0,0.744-0.068
		c0.574-0.135,1.148-0.135,1.756-0.135c0.709,0,0.878,0.135,1.318,0.709C295.534,24.714,295.805,24.782,296.007,24.815z
		 M285.569,40.255h-0.033v0.439h0.033V40.255z M285.704,38.835h-0.033v0.405h0.033V38.835z M286.177,35.491l-0.101-0.033
		l-0.338,2.804h0.067C285.906,37.349,286.042,36.403,286.177,35.491z M287.798,26.775c-0.473,0.744-1.588,7.162-1.588,8.243v0.169
		C286.684,32.383,287.088,29.546,287.798,26.775z M286.278,41.674v-0.338h-0.033v0.338H286.278z M286.278,40.829h0.033v-0.068
		h-0.033V40.829z M286.413,39.478h-0.035l-0.033,0.642h0.033L286.413,39.478z M286.514,38.667h-0.033
		c0,0.168-0.033,0.304-0.033,0.473h0.067v-0.473H286.514z M286.581,38.092v0.168c0.304-1.959,0.575-3.919,0.947-5.844
		c0.372-1.96,0.812-3.885,1.216-5.845C288.136,27.349,286.581,36.707,286.581,38.092z M289.825,26.437l-0.304,0.033
		c-0.845,2.77-1.351,5.676-1.825,8.513c-0.439,2.905-0.912,5.878-0.912,8.817c0,0.507,0,1.048,0.067,1.554
		C287.123,38.97,288.203,32.619,289.825,26.437z M287.291,24.68v0.068l0.136-0.203C287.359,24.546,287.291,24.614,287.291,24.68z
		 M287.494,41.944h-0.033v0.101h0.033V41.944z M287.596,41.032v-0.168c-0.035,0.033-0.035,0.101-0.035,0.168H287.596z
		 M287.731,39.917v-0.101h-0.033v0.101H287.731z M287.832,39.004h-0.035v0.136h0.035V39.004z M287.934,38.295H287.9v0.135
		L287.934,38.295z M288.034,37.789C288,37.755,288,37.687,288,37.654h-0.033c0,0.033,0,0.101,0.033,0.135
		C288,37.789,288.034,37.789,288.034,37.789z M288.103,36.978h-0.033v0.236h0.033V36.978z M288.203,36.403h-0.033v0.135h0.033
		V36.403z M288.237,30.424v0.101h0.033v-0.101H288.237z M288.305,35.997v-0.27h-0.033v0.27H288.305z M288.339,29.985
		c0,0.068,0,0.101-0.035,0.169h0.035l0.033-0.169H288.339z M288.406,35.424v-0.203h-0.067v0.203H288.406z M288.406,29.714h0.033
		v-0.067L288.406,29.714z M288.508,34.883c0-0.067,0-0.101-0.033-0.168h-0.033v0.168H288.508z M288.508,29.208v0.101h0.033v-0.101
		H288.508z M288.576,34.308v-0.135h-0.035v0.135H288.576z M288.676,33.903v-0.236h-0.033l-0.033,0.236H288.676z M288.711,28.464
		l-0.067,0.101h0.067V28.464z M288.676,24.005l0.033-0.035C288.676,23.971,288.676,23.971,288.676,24.005z M288.777,33.396
		c0-0.068,0-0.135-0.033-0.203h-0.033v0.203H288.777z M288.744,28.16l0.033,0.033l0.068-0.135L288.744,28.16z M288.845,32.687
		h-0.033v0.27h0.033V32.687z M288.947,32.484v-0.236h-0.033l-0.033,0.203C288.913,32.484,288.913,32.484,288.947,32.484z
		 M288.913,27.654l0.067-0.168l-0.067-0.035V27.654z M289.014,31.809h-0.033v0.236h0.033V31.809z M289.014,27.146v0.067
		c0.035-0.033,0.035-0.033,0.035-0.067H289.014z M289.115,31.572v-0.203h-0.033v0.203H289.115z M289.217,30.964l-0.067,0.169
		l0.067,0.033V30.964z M289.353,30.559c-0.067,0-0.136,0.068-0.136,0.135c0,0.068,0.033,0.101,0.033,0.169L289.353,30.559z
		 M289.318,30.356c0,0.068,0.033,0.101,0.033,0.169l0.101-0.338C289.386,30.221,289.318,30.255,289.318,30.356z M289.42,24.343
		c0.27-0.27,0.304-0.642,0.372-0.98C289.521,23.634,289.486,24.005,289.42,24.343z M289.453,30.153c0-0.101,0.033-0.203,0.033-0.304
		h-0.067C289.42,29.95,289.42,30.052,289.453,30.153z M289.556,29.647v-0.169c-0.033,0.068-0.068,0.101-0.068,0.169H289.556z
		 M289.589,29.275c-0.033,0.035-0.033,0.068-0.033,0.101l0.033-0.033V29.275z M289.656,29.038l0.033-0.101
		C289.656,28.971,289.656,29.005,289.656,29.038z M289.758,28.634l-0.035,0.033c0,0.101-0.033,0.169-0.033,0.271l0.068-0.271V28.634
		L289.758,28.634z M289.926,28.093c-0.168,0.135-0.168,0.338-0.168,0.541C289.825,28.464,289.892,28.261,289.926,28.093z
		 M289.825,23.296c-0.033,0.033-0.033,0.033-0.033,0.067C289.792,23.329,289.825,23.329,289.825,23.296z M290.095,27.484
		c-0.101,0.101-0.169,0.236-0.169,0.371c0,0.067,0,0.135,0.033,0.203C289.995,27.857,290.028,27.687,290.095,27.484z
		 M289.926,28.093h0.033v-0.035L289.926,28.093z M289.995,20.863c0.033-0.033,0.033-0.033,0.033-0.067
		C290.028,20.83,289.995,20.83,289.995,20.863z M290.095,20.559l-0.067,0.168C290.062,20.694,290.095,20.627,290.095,20.559z
		 M290.163,20.424l-0.067,0.135C290.129,20.525,290.163,20.457,290.163,20.424z M290.095,27.349l0.101-0.236v-0.135
		C290.129,27.113,290.129,27.214,290.095,27.349z M290.366,26.504v-0.135l-0.136,0.371
		C290.331,26.707,290.366,26.606,290.366,26.504z M291.581,21.269c-0.101,0.168-0.236,0.304-0.338,0.439
		c-0.169,0.304-0.946,2.23-0.946,2.499h0.067c0.169,0,0.236-0.135,0.27-0.27C290.974,23.059,291.245,22.181,291.581,21.269z
		 M290.501,19.951c-0.035,0.033-0.068,0.101-0.068,0.135C290.466,20.053,290.501,19.985,290.501,19.951z M290.466,21.572
		l0.101-0.067h-0.101V21.572z M290.669,19.58c-0.067,0.135-0.135,0.236-0.168,0.371l0.168-0.304V19.58z"/>
	<path class="st0" d="M292.9,38.852c-0.135,0.27-0.101,0.845-0.101,1.115c0,0.338,0.101,1.622,0.574,1.622
		c0.709,0,1.251-0.473,1.487-1.081l0.033-0.033v0.101c0,0.304-0.27,0.541-0.372,0.81c0.372-0.168,0.439-0.506,0.642-0.81
		c0.033,0.068,0.067,0.136,0.067,0.169c0,0.236-0.203,0.371-0.236,0.574l0.236,0.033l-0.033,0.101l0.067,0.033v-0.033h0.101
		l-0.033-0.068h0.033l0.033-0.135h0.033l0.067-0.135v0.135c0.101-0.101,0.136-0.203,0.136-0.338l0.135-0.168
		c-0.067,0.98-0.98,1.621-1.925,1.621c-2.06,0-3.276-1.418-3.276-3.411c0-1.622,0.676-3.243,1.621-4.561
		c0.744-1.048,1.79-1.622,3.075-1.622c0.304,0,0.609,0.068,0.912,0.136l-0.676-1.25l0.27-0.067c1.351,0.439,2.264,1.554,2.264,3.04
		C298.035,37.095,295.13,38.852,292.9,38.852z M291.819,36.217c-0.033,0-0.033,0-0.033,0.033h0.033V36.217z M291.988,35.71
		l-0.101,0.168l0.067,0.035L291.988,35.71z M292.022,35.642l-0.033,0.035h0.033V35.642z M292.562,34.73l0.101-0.035
		C292.629,34.697,292.596,34.697,292.562,34.73L292.393,35l-0.067,0.101v0.033c-0.067,0.101-0.169,0.203-0.236,0.338
		c0.169-0.068,0.203-0.203,0.236-0.338l0.067-0.135l0.136-0.101C292.529,34.832,292.562,34.798,292.562,34.73z M292.461,37.264
		c-0.035,0.033-0.035,0.101-0.035,0.168h0.035V37.264z M293.711,34.933c-0.473,0.473-1.115,1.419-1.115,2.128
		C292.832,36.319,293.407,35.677,293.711,34.933z M292.596,35.811v0.033c0-0.033,0-0.033,0-0.068V35.811z M292.732,35.507
		c0.033-0.033,0.033-0.067,0.033-0.135C292.732,35.44,292.732,35.474,292.732,35.507z M292.865,35.305h0.035
		c0.035-0.035,0.068-0.101,0.068-0.136C292.935,35.204,292.9,35.305,292.865,35.305z M293.238,37.5
		c1.216-0.135,3.007-2.128,3.007-3.344v-0.135C294.724,34.359,293.508,36.014,293.238,37.5z M293.745,34.899l0.135-0.067v-0.035
		l-0.033,0.035C293.778,34.832,293.778,34.866,293.745,34.899z M296.042,35.878c-0.035,0.035-0.035,0.101-0.035,0.135l-0.101,0.068
		l0.101-0.033v-0.035L296.042,35.878z M296.278,35.507l-0.067,0.135v0.035C296.244,35.609,296.278,35.575,296.278,35.507z
		 M296.379,35.305c0.033,0,0.067-0.035,0.067-0.068h-0.067V35.305z M296.514,36.656c0.035-0.033,0.068-0.033,0.068-0.068
		L296.514,36.656z M296.582,35.878h0.033l0.033-0.101L296.582,35.878z M296.717,36.555c-0.033,0-0.067,0-0.101,0.033
		C296.65,36.588,296.684,36.588,296.717,36.555z M296.717,36.52c0.339-0.338,0.541-0.777,0.676-1.216
		C297.258,35.541,296.717,36.319,296.717,36.52z"/>
	<path class="st0" d="M301.548,42.095c-1.656,0-3.075-1.419-3.075-3.075c0-2.972,2.534-7.027,5.777-7.027
		c1.419,0,2.77,0.777,3.581,1.959c0.068,0.101,0.136,0.203,0.136,0.304c0,0.135-0.067,0.27-0.101,0.405
		c-0.405-0.27-1.351-0.946-1.824-0.946c-3.007,0-5.303,4.054-5.303,6.757c0,0.101,0.033,0.168,0.033,0.27h0.169
		c0.27,0,0.472-0.135,0.709-0.27c0.981-0.609,1.757-1.419,2.365-2.399c0.406-0.608,0.778-1.453,1.351-1.925l1.317,0.777
		c0.304,0.168,0.473,0.473,0.473,0.81c0,2.669-0.236,5.371-1.013,7.905c-1.013,3.31-2.331,6.453-4.764,8.986
		c-0.946,0.98-2.433,2.128-3.885,2.128c-1.115,0-2.601-0.81-2.601-2.06c0-2.77,3.311-7.804,5.236-9.763
		c0.98-1.013,1.993-1.858,3.278-2.499l0.135,0.27c0.304,0.068,0.609,0.27,0.709,0.574c0.541-0.845,0.744-2.567,0.812-3.581
		C303.98,40.575,303.102,42.095,301.548,42.095z M296.177,51.96l1.148-2.298c-0.168,0.135-1.25,2.399-1.351,2.737
		C296.075,52.264,296.177,52.128,296.177,51.96z M296.379,54.426h0.067v-0.169L296.379,54.426z M299.15,48.581
		c-0.676,1.216-1.419,2.433-2.027,3.682c-0.304,0.608-0.439,1.283-0.676,1.925c0.406-0.506,0.506-1.148,0.744-1.723
		c0.439-1.047,1.013-2.027,1.589-3.007c0.202-0.338,0.405-0.676,0.574-1.047L299.15,48.581z M296.987,55.033h0.101l0.236-0.101
		c3.547-1.959,5.744-7.162,6.925-10.878C301.92,45.675,297.02,52.163,296.987,55.033z M297.223,51.115
		c-0.033,0-0.067,0.033-0.067,0.068L297.223,51.115z M299.589,46.284c0.033,0,0.033,0,0.033-0.033L299.589,46.284z M300.805,34.562
		c-0.27,0.304-0.574,0.676-0.777,1.048C300.197,35.507,300.704,34.765,300.805,34.562z M300.399,37.906l0.068,0.033
		c0-0.033,0-0.101,0.033-0.135L300.399,37.906z M301.108,36.52c0.372-0.709,0.912-1.386,1.453-1.925
		c-0.101,0-0.168,0.033-0.236,0.101c-0.844,0.709-1.52,1.723-1.757,2.804C300.805,37.163,300.94,36.858,301.108,36.52z
		 M300.704,46.554c0.033,0,0.033,0,0.033-0.033L300.704,46.554z M301.548,33.886h-0.033l-0.067,0.101L301.548,33.886z
		 M301.514,34.765l-0.033-0.033v0.101L301.514,34.765z M305.265,45.946c-0.676,1.993-1.554,3.919-2.635,5.744
		c-0.304,0.506-0.676,1.013-0.912,1.554c1.386-1.588,2.499-3.851,3.175-5.845c0.203-0.574,0.304-1.148,0.506-1.722
		C305.331,45.743,305.298,45.845,305.265,45.946z M301.717,51.183c0.541-0.676,0.947-1.622,1.283-2.399
		C302.561,49.561,302.122,50.371,301.717,51.183z M301.885,52.027V51.96c-0.033,0-0.033,0.033-0.033,0.068L301.885,52.027
		L301.885,52.027z M302.258,51.419c0.033,0,0.101-0.035,0.136-0.068L302.258,51.419z M303.102,48.615c0-0.033,0-0.101,0.033-0.135
		c-0.068,0.068-0.101,0.169-0.136,0.27L303.102,48.615z M303.541,39.359c0.339-0.439,0.709-0.878,1.048-1.351L303.541,39.359z
		 M303.576,40.507v0.033c0.033,0,0.101,0,0.135-0.033H303.576z M303.709,40.507l0.406-0.574c-0.169,0.135-0.406,0.27-0.406,0.506
		V40.507z M304.115,46.216c-0.033,0.068-0.068,0.135-0.068,0.203L304.115,46.216z M304.25,45.743l0.033-0.033h-0.033V45.743z
		 M304.318,49.494h0.033v-0.035L304.318,49.494z M304.859,39.021c-0.136,0.136-0.27,0.304-0.372,0.473
		C304.656,39.392,304.792,39.189,304.859,39.021z M304.554,44.865h-0.035v0.033L304.554,44.865z M304.589,39.73l0.067-0.067
		l-0.101,0.067H304.589z M304.723,38.92h-0.033c0,0.033-0.033,0.033-0.033,0.067L304.723,38.92z M305.162,37.028l-0.406,0.709
		c0.136-0.203,0.439-0.541,0.473-0.676L305.162,37.028z M305.062,38.447l-0.033,0.033c0.033,0,0.033,0,0.067-0.033H305.062z
		 M305.501,45.135l-0.068,0.439c0.068-0.135,0.136-0.27,0.169-0.439H305.501z M305.602,44.865h0.101v-0.168L305.602,44.865z
		 M305.703,44.662c0.033-0.033,0.033-0.135,0.068-0.168l-0.068-0.033V44.662z"/>
	<path class="st0" d="M319.25,32.197l-0.27,1.418c-0.101,0.439-0.203,0.878-0.27,1.318c-0.236,1.216-0.339,2.466-0.439,3.682
		c-0.136,1.486-0.236,2.94-0.406,4.426c-0.135,1.419-0.303,2.872-0.574,4.256c-0.609,3.142-2.028,7.196-4.494,9.392
		c-0.642,0.574-1.419,1.047-2.297,1.047c-0.709,0-1.453-0.304-2.028-0.676c-0.878-0.574-1.08-1.521-1.08-2.499
		c0-0.744,0.067-1.588,0.27-2.298c0.338-1.216,2.466-6.722,3.852-6.722c0.303,0,1.013,0.371,1.25,0.574
		c-0.98,0.608-1.419,1.588-1.858,2.601c-0.676,1.521-1.216,2.77-1.554,4.392c0,0.033-0.033,0.067-0.033,0.101
		c-0.101,0.439-0.169,0.845-0.169,1.283c0,0.744,0.304,1.25,0.473,1.925l0.744-0.608c0.947-0.81,1.79-2.499,2.263-3.614
		c1.554-3.649,1.993-7.499,2.67-11.351c0.135-0.709,0.202-1.419,0.202-2.128c-0.641,1.047-2.804,4.324-4.088,4.324
		c-0.236,0-0.303-0.068-0.506-0.168l-0.338-0.169c-1.081-0.541-1.858-0.946-1.858-2.433c0-1.386,0.642-3.108,1.047-4.459
		c0.338-1.115,0.845-2.365,0.845-3.547c0-0.405-0.101-0.845-0.101-1.25c1.554,0.304,2.196,2.06,2.196,3.479
		c0,1.959-0.642,3.784-1.081,5.676v0.371c2.128-2.263,3.614-4.797,4.899-7.567c0.27-0.608,0.674-1.284,1.114-1.79l0.406-0.371
		l0.067,0.541c-0.101,0.033-0.101,0.067-0.101,0.135c0.033-0.101,0.067-0.101,0.101-0.135c0.101-0.035,0.236-0.068,0.303-0.169
		C318.676,31.522,318.98,31.825,319.25,32.197z M308,52.837c0-0.033,0-0.101-0.033-0.135v0.236C308,52.905,308,52.872,308,52.837z
		 M308.067,52.331c0-0.033-0.033-0.033-0.033-0.101v0.203C308.034,52.399,308.067,52.365,308.067,52.331z M308.44,51.351
		c0,0.033-0.067,0.101-0.101,0.203c-0.068,0-0.068,0.067-0.068,0.135c0.068-0.033,0.068-0.068,0.068-0.135h0.033
		C308.406,51.486,308.44,51.419,308.44,51.351z M308.473,51.216c0-0.135,0-0.168-0.033-0.203
		C308.44,51.081,308.44,51.148,308.473,51.216z M308.642,50.675l-0.033,0.169C308.642,50.811,308.642,50.743,308.642,50.675z
		 M308.709,50.371l-0.033,0.27C308.709,50.54,308.709,50.439,308.709,50.371z M308.98,49.932c0.033-0.067,0.033-0.101,0.033-0.168
		c-0.033,0.067-0.101,0.203-0.168,0.304L308.98,49.932z M308.912,52.567c0-0.033-0.033-0.067-0.033-0.101v0.136
		C308.912,52.567,308.912,52.567,308.912,52.567z M309.014,49.695c0.101-0.203,0.271-0.371,0.406-0.574
		C309.048,49.189,309.014,49.359,309.014,49.695z M309.115,51.79c0-0.033-0.033-0.101-0.033-0.169
		c-0.033,0.068-0.068,0.169-0.068,0.271C309.082,51.892,309.115,51.858,309.115,51.79z M309.419,48.92
		c0-0.068,0.033-0.135,0.033-0.169c0.033-0.067,0.067-0.168,0.067-0.236c-0.033,0.068-0.067,0.136-0.067,0.236
		C309.419,48.784,309.419,48.852,309.419,48.92z M309.453,50.811c-0.033,0.033-0.033,0.101-0.033,0.135
		C309.453,50.912,309.453,50.845,309.453,50.811z M309.689,50.068l-0.067,0.169c0,0.101-0.033,0.236-0.136,0.439l0.101-0.101
		L309.689,50.068z M309.554,48.479c0.033,0,0.101,0,0.135-0.033C309.656,48.446,309.589,48.446,309.554,48.479z M309.656,48.277
		c0,0.033,0,0.101,0.033,0.135l0.203-0.371C309.757,48.041,309.656,48.108,309.656,48.277z M309.859,49.83c0,0-0.033,0-0.067,0.035
		L309.859,49.83z M310.062,47.568c0.067,0,0.101-0.035,0.168-0.035l0.068-0.236C310.197,47.399,310.197,47.467,310.062,47.568z
		 M310.129,49.324c0-0.033-0.033-0.067-0.033-0.101v0.136C310.129,49.324,310.129,49.324,310.129,49.324z M310.466,46.96
		l0.035-0.101C310.466,46.892,310.466,46.925,310.466,46.96z M310.501,46.757c0,0,0.033,0,0.067-0.033
		c0-0.035,0.033-0.068,0.067-0.068c-0.033,0-0.101,0.033-0.135,0.068C310.501,46.757,310.501,46.757,310.501,46.757z
		 M310.872,47.669c0.101,0,0.101-0.067,0.169-0.067c0-0.101,0.067-0.168,0.067-0.27l-0.101,0.236
		C310.974,47.602,310.906,47.602,310.872,47.669z M311.446,46.723c0.033,0,0.067,0.033,0.067,0.067c0-0.101,0.033-0.135,0.033-0.135
		C311.514,46.655,311.481,46.655,311.446,46.723z M312.764,40.034c-0.033,0.033-0.067,0.067-0.067,0.101L312.764,40.034z
		 M313.203,41.048c-0.033,0.035-0.101,0.035-0.169,0.068C313.102,41.116,313.136,41.116,313.203,41.048z M313.203,52.602
		c-0.033,0.033-0.067,0.033-0.067,0.135l0.033-0.035C313.17,52.669,313.17,52.635,313.203,52.602z M313.811,40.101
		c-0.033,0.101-0.067,0.169-0.338,0.406c0,0-0.067,0.033-0.101,0.135c0-0.033,0.101-0.101,0.135-0.135c0.033,0,0.101,0,0.136-0.033
		l0.101-0.101C313.777,40.304,313.811,40.169,313.811,40.101z M313.642,38.818l0.033-0.135
		C313.642,38.717,313.642,38.785,313.642,38.818z M313.879,51.013c-0.068,0.101-0.203,0.304-0.236,0.507
		C313.744,51.351,313.811,51.183,313.879,51.013z M314.217,37.973l0.136-0.068c-0.035,0-0.101,0-0.136,0.033l-0.067,0.236
		l-0.136,0.068c-0.101,0.101-0.135,0.236-0.169,0.371c0.035-0.135,0.203-0.405,0.339-0.405
		C314.183,38.143,314.217,38.041,314.217,37.973z M314.283,49.494l-0.338,1.115c-0.033,0.033-0.067,0.101-0.067,0.168
		c0-0.067,0.033-0.101,0.067-0.135l0.101-0.033C314.149,50.236,314.217,49.865,314.283,49.494z M314.047,53.581
		c-0.033,0.067-0.033,0.135-0.033,0.203C314.047,53.717,314.047,53.649,314.047,53.581z M314.115,39.663
		c-0.035,0.067-0.035,0.135-0.035,0.168C314.081,39.798,314.115,39.73,314.115,39.663z M314.386,39.494
		c-0.068,0-0.101,0.068-0.136,0.101C314.317,39.562,314.352,39.562,314.386,39.494z M316.243,47.737
		c-0.202,0.304-1.25,3.75-1.52,4.459c-0.135,0.304-0.236,0.642-0.406,0.946C315.128,52.702,316.075,48.479,316.243,47.737z
		 M314.689,37.331l0.101-0.067c-0.033,0.033-0.101,0.033-0.168,0.067c0,0.068-0.033,0.169-0.033,0.236
		c-0.068,0-0.136,0.035-0.203,0.035c-0.033,0.067-0.033,0.135-0.033,0.203c0-0.033,0.033-0.101,0.033-0.168
		c0.067-0.033,0.168-0.033,0.203-0.068C314.622,37.5,314.622,37.399,314.689,37.331z M314.622,39.156l-0.169,0.067
		c-0.033,0.068-0.067,0.169-0.067,0.236c0-0.033,0.067-0.101,0.067-0.203C314.486,39.223,314.589,39.223,314.622,39.156z
		 M314.486,48.92c0,0.033,0,0.067,0.033,0.101c0.033-0.068,0.033-0.135,0.033-0.203C314.486,48.885,314.486,48.885,314.486,48.92z
		 M314.622,48.547c0,0.033,0,0.033,0.033,0.033v-0.135C314.656,48.479,314.622,48.547,314.622,48.547z M314.926,38.615
		c0,0.033-0.033,0.068-0.033,0.135c-0.136,0-0.136,0.035-0.136,0.068v0.033c0.033-0.067,0.101-0.067,0.136-0.101L314.926,38.615z
		 M315.263,36.622c-0.135,0-0.168,0.067-0.202,0.101c-0.035,0.068-0.035,0.101-0.136,0.203c0.033,0,0.067,0,0.101,0
		c0-0.068,0.035-0.135,0.035-0.203C315.128,36.69,315.23,36.69,315.263,36.622z M314.926,49.898l0.101-0.135v-0.168
		C314.994,49.629,314.994,49.695,314.926,49.898z M315.23,38.176c-0.101,0.068-0.101,0.136-0.135,0.203
		C315.23,38.312,315.23,38.244,315.23,38.176z M315.399,36.183c0.033-0.068,0.033-0.101,0.136-0.203l-0.203,0.169
		c0,0.067-0.033,0.168-0.033,0.236L315.399,36.183z M315.601,37.602l0.033-0.035l0.067-0.236c-0.033,0.068-0.067,0.136-0.067,0.236
		l-0.169,0.035v0.101C315.5,37.67,315.534,37.635,315.601,37.602z M315.601,35.878c0.033-0.101,0.033-0.168,0.101-0.27v-0.135
		l-0.067,0.135C315.636,35.71,315.601,35.777,315.601,35.878z M315.839,35.271l0.203-0.135
		C315.939,35.169,315.872,35.237,315.839,35.271z M316.042,35.102c0.033-0.135,0.101-0.304,0.202-0.371
		c0-0.101,0.035-0.203,0.035-0.304C316.278,34.663,316.042,34.832,316.042,35.102z M316.378,47.331
		c-0.101,0-0.169,0.033-0.169,0.135c0,0.067,0.033,0.135,0.033,0.203C316.278,47.534,316.311,47.432,316.378,47.331z
		 M316.378,47.297l-0.067-0.338C316.311,47.061,316.311,47.196,316.378,47.297z"/>
</g>
</svg>
