<?xml version="1.0" encoding="utf-8"?>
<!-- Generator: Adobe Illustrator 22.1.0, SVG Export Plug-In . SVG Version: 6.00 Build 0)  -->
<svg version="1.1" id="Layer_1" xmlns="http://www.w3.org/2000/svg" xmlns:xlink="http://www.w3.org/1999/xlink" x="0px" y="0px"
	 viewBox="0 0 15 18" style="enable-background:new 0 0 15 18;" xml:space="preserve">
<style type="text/css">
	.st0{fill:#FFFFFF;}
	.st1{fill:#323E48;}
</style>
<circle class="st0" cx="7.44" cy="10.406" r="7.285"/>
<g>
	<path class="st1" d="M9.047,10.88c0.253,0,0.491,0,0.73,0c0-0.245,0-0.485,0-0.731c-0.197,0-0.384,0-0.573,0
		c-0.192,0-0.155,0.003-0.156,0.156C9.046,10.493,9.047,10.681,9.047,10.88z"/>
	<path class="st1" d="M9.139,11.848c0.165-0.002,0.331-0.001,0.496-0.001c0.048,0,0.094,0,0.143,0c0-0.251,0-0.492,0-0.731
		c-0.244,0-0.479,0-0.724,0c-0.003,0.029-0.007,0.049-0.007,0.069c0,0.191,0.003,0.381-0.002,0.573
		C9.043,11.831,9.075,11.848,9.139,11.848z"/>
	<path class="st1" d="M8.934,8.551c0.017,0.038,0.031,0.08,0.057,0.111c0.022,0.028,0.058,0.046,0.09,0.062
		C9.116,8.74,9.153,8.751,9.19,8.759c0.019,0.006,0.045,0.008,0.059-0.001c0.056-0.037,0.136-0.032,0.174-0.093
		c0.032-0.049,0.088-0.077,0.085-0.154C9.5,8.31,9.505,8.108,9.505,7.906c-0.001,0-0.001,0-0.002,0c0-0.209,0.001-0.418-0.001-0.627
		c0-0.041,0.009-0.086-0.054-0.102c-0.036-0.01-0.088-0.029-0.1-0.059C9.324,7.055,9.277,7.076,9.237,7.07
		C9.169,7.059,9.115,7.095,9.055,7.123c-0.074,0.034-0.118,0.07-0.12,0.152c-0.001,0.02,0.001,0.05-0.01,0.059
		c-0.068,0.052-0.04,0.124-0.043,0.189c-0.003,0.102-0.01,0.205,0.001,0.305C8.905,8.07,8.823,8.317,8.934,8.551z"/>
	<path class="st1" d="M8.724,11.111c-0.099,0.002-0.199,0.001-0.298,0.001v0.001c-0.107,0-0.214-0.002-0.321,0.001
		c-0.043,0-0.081,0.007-0.08,0.067c0.003,0.184,0,0.367,0.002,0.551c-0.001,0.062,0.058,0.115,0.122,0.115
		c0.179,0.001,0.357,0,0.536,0c0.092,0,0.124-0.03,0.124-0.126c0.002-0.176-0.002-0.353,0.002-0.528
		C8.813,11.128,8.783,11.11,8.724,11.111z"/>
	<path class="st1" d="M5.419,8.662c0.055,0.084,0.158,0.099,0.227,0.092c0.059-0.008,0.157,0.001,0.2-0.086
		c0.031-0.065,0.088-0.109,0.082-0.196c-0.01-0.186-0.003-0.371-0.003-0.557c0,0,0,0,0.001,0c0-0.143,0.003-0.285-0.002-0.428
		C5.922,7.384,5.958,7.274,5.868,7.192c-0.049-0.043-0.1-0.097-0.159-0.114c-0.074-0.02-0.148-0.013-0.223,0.043
		C5.427,7.166,5.353,7.182,5.353,7.275c0,0.01-0.012,0.02-0.018,0.029C5.323,7.326,5.302,7.349,5.302,7.371
		C5.3,7.741,5.3,8.111,5.301,8.48c0,0.023,0.011,0.049,0.024,0.067C5.354,8.588,5.392,8.622,5.419,8.662z"/>
	<path class="st1" d="M8.746,12.075c-0.217-0.001-0.434-0.001-0.65,0.001c-0.048,0-0.073,0.023-0.072,0.076
		c0.003,0.18,0.002,0.362,0.003,0.542c0,0.054,0.062,0.114,0.117,0.114c0.204,0.001,0.407,0,0.621,0
		c0.016-0.038,0.043-0.073,0.045-0.11c0.003-0.185,0-0.371,0.001-0.557C8.81,12.096,8.789,12.075,8.746,12.075z"/>
	<path class="st1" d="M8.118,10.885c0.101-0.001,0.204,0,0.305,0v0.001c0.101,0,0.204-0.001,0.305,0
		c0.052,0.001,0.082-0.017,0.082-0.074c0-0.188,0.003-0.378-0.001-0.565c-0.001-0.057-0.027-0.099-0.095-0.099
		c-0.192,0.002-0.383,0-0.573,0.001c-0.069,0-0.114,0.046-0.114,0.115c-0.002,0.176,0.001,0.352-0.003,0.528
		C8.021,10.864,8.053,10.886,8.118,10.885z"/>
	<path class="st1" d="M6.036,12.804c0.251,0,0.492,0,0.74,0c0-0.244,0-0.481,0-0.724c-0.248,0-0.492,0-0.74,0
		C6.036,12.324,6.036,12.56,6.036,12.804z"/>
	<path class="st1" d="M7.798,11.117c-0.252,0-0.496,0-0.74,0c0,0.244,0,0.483,0,0.723c0.25,0,0.492,0,0.74,0
		C7.798,11.598,7.798,11.362,7.798,11.117z"/>
	<path class="st1" d="M5.098,12.809c0.204,0,0.407,0,0.611-0.001c0.015,0,0.029-0.006,0.043-0.01c0-0.243,0-0.48,0-0.721
		c-0.243,0-0.481,0-0.729,0c0,0.231,0.002,0.453-0.001,0.673C5.021,12.81,5.058,12.809,5.098,12.809z"/>
	<path class="st1" d="M10.926,7.723c0-0.027-0.003-0.054-0.003-0.084c-0.441,0-0.873,0-1.313,0c0,0.104-0.001,0.203,0.001,0.302
		c0,0.011,0.006,0.03,0.012,0.033c0.075,0.022,0.068,0.103,0.105,0.151C9.801,8.22,9.782,8.347,9.782,8.464
		C9.781,8.572,9.759,8.67,9.676,8.748c-0.022,0.02-0.039,0.043-0.061,0.063C9.556,8.868,9.511,8.95,9.417,8.954
		c-0.133,0.003-0.265,0.002-0.398,0c-0.02,0-0.044-0.003-0.058-0.015C8.898,8.884,8.839,8.821,8.774,8.768
		C8.655,8.673,8.632,8.547,8.643,8.407C8.647,8.344,8.646,8.28,8.649,8.216C8.65,8.199,8.651,8.17,8.66,8.167
		c0.074-0.029,0.049-0.125,0.114-0.161c0.02-0.01,0.04-0.04,0.041-0.062C8.818,7.843,8.816,7.742,8.816,7.64
		c-0.934,0-1.857,0-2.79,0c0,0.104-0.001,0.202,0.001,0.301c0,0.012,0.01,0.025,0.019,0.037C6.06,7.998,6.075,8.016,6.09,8.034
		c0.014,0.021,0.03,0.041,0.042,0.062C6.161,8.144,6.205,8.19,6.207,8.24c0.014,0.179,0.032,0.366-0.116,0.511
		C6.07,8.772,6.052,8.794,6.031,8.813C5.973,8.868,5.927,8.947,5.838,8.95C5.707,8.958,5.575,8.955,5.442,8.954
		c-0.024,0-0.049-0.01-0.072-0.02c-0.024-0.01-0.048-0.026-0.068-0.042C5.279,8.874,5.255,8.854,5.236,8.831
		C5.221,8.813,5.215,8.787,5.197,8.773C5.07,8.675,5.05,8.541,5.061,8.395c0.004-0.061,0.003-0.122,0.007-0.183
		c0-0.016-0.002-0.041,0.007-0.043c0.073-0.036,0.063-0.128,0.12-0.176C5.21,7.979,5.233,7.961,5.233,7.945
		c0.003-0.101,0.002-0.202,0.002-0.302c-0.459,0-0.909,0-1.356,0c0.001,2.121,0.001,4.234,0.001,6.36c0.046,0,0.081,0,0.117,0
		c2.27,0,4.539,0,6.807,0c0.122,0,0.122,0,0.122-0.122C10.926,11.829,10.926,9.776,10.926,7.723z M10.236,13.31
		c-1.889,0-3.777,0-5.67,0c0-1.3,0-2.6,0-3.906c1.887,0,3.775,0,5.67,0C10.236,10.708,10.236,12.006,10.236,13.31z"/>
	<path class="st1" d="M5.753,11.118c-0.248,0-0.485,0-0.725,0c0,0.244,0,0.483,0,0.723c0.244,0,0.484,0,0.725,0
		C5.753,11.598,5.753,11.359,5.753,11.118z"/>
	<path class="st1" d="M6.774,11.117c-0.251,0-0.494,0-0.739,0c0,0.244,0,0.483,0,0.725c0.249,0,0.492,0,0.739,0
		C6.774,11.597,6.774,11.357,6.774,11.117z"/>
	<path class="st1" d="M7.8,10.2c0-0.016-0.037-0.046-0.059-0.048c-0.094-0.005-0.188-0.003-0.282-0.003c-0.132,0-0.264,0-0.401,0
		c0,0.248,0,0.486,0,0.729c0.251,0,0.493,0,0.746,0C7.803,10.647,7.804,10.423,7.8,10.2z"/>
	<path class="st1" d="M7.739,12.808c0.052,0,0.064-0.03,0.064-0.075c0-0.105,0.001-0.209,0.001-0.314c0-0.111,0-0.223,0-0.34
		c-0.256,0-0.501,0-0.746,0c0,0.244,0,0.479,0,0.727C7.292,12.807,7.516,12.807,7.739,12.808z"/>
	<path class="st1" d="M6.775,10.154c-0.247,0-0.488,0-0.739,0c0,0.244,0,0.485,0,0.726c0.251,0,0.493,0,0.739,0
		C6.775,10.635,6.775,10.397,6.775,10.154z"/>
</g>
</svg>
