<?xml version="1.0" encoding="utf-8"?>
<!-- Generator: Adobe Illustrator 22.1.0, SVG Export Plug-In . SVG Version: 6.00 Build 0)  -->
<svg version="1.1" id="Layer_1" xmlns="http://www.w3.org/2000/svg" xmlns:xlink="http://www.w3.org/1999/xlink" x="0px" y="0px"
	 viewBox="0 0 50 50" style="enable-background:new 0 0 50 50;" xml:space="preserve">
<style type="text/css">
	.st0{fill:#FFFFFF;}
	.st1{fill:#F2757D;}
</style>
<rect x="-0.589" y="-0.964" class="st0" width="52.402" height="51.954"/>
<g id="SjJ3HW_1_">
	<g>
		<path class="st1" d="M2.356,48.243c0.878-2.255,1.747-4.284,2.45-6.368c0.477-1.415,0.855-2.895,1.014-4.375
			c0.078-0.729-0.274-1.637-0.715-2.265c-2.121-3.015-3.215-6.39-3.126-10.005c0.135-5.492,2.551-9.984,6.849-13.395
			C14.163,7.6,20.288,6.008,27.032,6.579c5.377,0.455,10.171,2.327,14.198,5.943c8.237,7.395,8.001,19.221-0.501,26.339
			c-4.224,3.536-9.115,5.419-14.625,5.398c-2.744-0.01-5.486-0.411-8.231-0.605c-0.47-0.033-1.016-0.043-1.417,0.157
			C12.042,46.014,7.311,47.169,2.356,48.243z M8.953,42.423c0.491-0.085,0.789-0.081,1.04-0.188c2.109-0.904,4.206-1.835,6.314-2.74
			c0.366-0.157,0.79-0.362,1.154-0.311c1.441,0.201,2.862,0.553,4.304,0.744c5.453,0.725,10.625-0.095,15.144-3.372
			c6.732-4.882,8.76-13.379,2.304-20.182c-3.005-3.166-6.829-4.829-11.148-5.474c-5.71-0.853-10.986,0.182-15.723,3.498
			c-6.745,4.721-8.651,13.588-2.406,20.084c0.417,0.434,0.559,1.39,0.441,2.031C10.024,38.43,9.477,40.311,8.953,42.423z"/>
		<path class="st1" d="M27.877,34.886c-1.634,0-3.127,0.037-4.615-0.036c-0.252-0.012-0.684-0.496-0.688-0.767
			c-0.048-3.259-0.048-6.518,0.003-9.777c0.004-0.263,0.464-0.525,0.726-0.772c0.045-0.042,0.162-0.013,0.245-0.01
			c1.369,0.048,2.738,0.096,4.108,0.145c0.074,1.313,0.192,2.626,0.212,3.94C27.902,29.978,27.877,32.348,27.877,34.886z"/>
		<path class="st1" d="M27.939,17.943c-0.014,1.539-1.291,2.866-2.753,2.863c-1.453-0.003-2.873-1.501-2.828-2.985
			c0.047-1.568,1.278-2.719,2.876-2.69C26.854,15.16,27.955,16.305,27.939,17.943z"/>
	</g>
</g>
</svg>
