<?xml version="1.0" encoding="utf-8"?>
<!-- Generator: Adobe Illustrator 22.1.0, SVG Export Plug-In . SVG Version: 6.00 Build 0)  -->
<svg version="1.1" id="Layer_1" xmlns="http://www.w3.org/2000/svg" xmlns:xlink="http://www.w3.org/1999/xlink" x="0px" y="0px"
	 viewBox="0 0 50 50" style="enable-background:new 0 0 50 50;" xml:space="preserve">
<style type="text/css">
	.st0{display:none;}
	.st1{display:inline;}
	.st2{fill:#FF767D;}
	.st3{fill:#FFFFFF;}
</style>
<g id="_x34_2FiKe_1_" class="st0">
	<g class="st1">
		<path d="M7.229,7.897c0.43,0,0.766,0,1.102,0c7.634,0,15.268,0.009,22.902-0.016c0.704-0.002,1.197,0.202,1.688,0.696
			c1.459,1.467,2.981,2.871,4.444,4.335c0.256,0.256,0.484,0.682,0.485,1.03c0.024,11.095,0.018,22.19,0.013,33.285
			c0,0.129-0.041,0.257-0.073,0.44c-10.188,0-20.345,0-30.56,0C7.229,34.415,7.229,21.229,7.229,7.897z M9.96,10.613
			c0,11.492,0,22.907,0,34.349c8.425,0,16.786,0,25.161,0c0-10.078,0-20.097,0-30.169c-1.161,0-2.247-0.043-3.328,0.014
			c-0.78,0.041-1.106-0.172-1.048-1.012c0.072-1.038,0.017-2.085,0.017-3.183C23.789,10.613,16.917,10.613,9.96,10.613z"/>
		<path d="M43.036,41.57c-1.245,0-2.451,0-3.726,0c0-0.854,0-1.682,0-2.568c0.322-0.054,0.641-0.108,1.002-0.169
			c0-10.032,0-20.025,0-30.124c-1.426,0-2.8,0-4.278,0c0-1.441,0-2.78,0-4.19c-7.036,0-13.967,0-20.962,0
			c-0.027,0.624-0.053,1.218-0.082,1.865c-0.864,0-1.663,0-2.537,0c0-1.497,0-2.97,0-4.592c0.345,0,0.703,0,1.06,0
			c7.635,0,15.27,0.009,22.905-0.015c0.703-0.002,1.204,0.2,1.694,0.695c1.456,1.471,2.977,2.878,4.425,4.355
			c0.293,0.299,0.538,0.8,0.539,1.209c0.029,10.927,0.023,21.853,0.021,32.78C43.095,41.047,43.06,41.277,43.036,41.57z"/>
		<path d="M22.158,40.501c-2.578,0-5.156-0.006-7.735,0.004c-0.754,0.003-1.401-0.151-1.422-1.054
			c-0.022-0.968,0.668-1.143,1.452-1.144c5.19-0.001,10.381,0.002,15.571-0.002c0.76-0.001,1.42,0.212,1.435,1.074
			c0.016,0.924-0.649,1.135-1.465,1.129C27.382,40.489,24.77,40.501,22.158,40.501z"/>
		<path d="M22.503,28.51c2.576,0,5.153,0.005,7.729-0.003c0.772-0.003,1.467,0.086,1.52,1.066c0.042,0.775-0.452,1.132-1.564,1.134
			c-5.119,0.005-10.237-0.001-15.356,0.006c-0.784,0.001-1.458-0.144-1.535-1.082c-0.061-0.75,0.479-1.117,1.578-1.119
			C17.418,28.507,19.96,28.51,22.503,28.51z"/>
		<path d="M22.506,20.949c-2.61,0-5.22-0.014-7.83,0.009c-0.802,0.007-1.374-0.248-1.371-1.106c0.003-0.81,0.599-1.081,1.322-1.082
			c5.288-0.005,10.576-0.008,15.864,0.005c0.719,0.002,1.279,0.289,1.258,1.13c-0.021,0.842-0.568,1.053-1.31,1.049
			C27.794,20.942,25.15,20.949,22.506,20.949z"/>
		<path d="M22.56,26.026c-2.542,0-5.085-0.007-7.627,0.004c-0.801,0.004-1.549-0.062-1.634-1.076
			c-0.063-0.748,0.484-1.124,1.579-1.125c5.119-0.004,10.237,0.001,15.356-0.004c0.772-0.001,1.497,0.102,1.511,1.075
			c0.015,1.043-0.75,1.131-1.557,1.129C27.644,26.022,25.102,26.026,22.56,26.026z"/>
		<path d="M22.508,33.59c2.609,0,5.218,0.01,7.827-0.006c0.756-0.004,1.391,0.115,1.412,1.04c0.02,0.915-0.623,1.129-1.362,1.13
			c-5.218,0.01-10.436,0.007-15.654,0.004c-0.744,0-1.417-0.205-1.423-1.084c-0.007-0.944,0.666-1.101,1.475-1.093
			C17.358,33.606,19.933,33.59,22.508,33.59z"/>
	</g>
</g>
<g id="h1iQNx_1_">
	
		<image style="overflow:visible;" width="400" height="400" id="h1iQNx_2_" xlink:href="63B9F06420207BE0.png"  transform="matrix(1 0 0 1 -513 -190)">
	</image>
</g>
<g>
	<g>
		<path class="st2" d="M32.823,49.331c-0.322,0-0.644-0.081-0.933-0.241l-6.853-3.801l-6.853,3.801
			c-0.488,0.27-1.068,0.315-1.59,0.125c-0.523-0.191-0.938-0.598-1.137-1.118L12.65,40.78l-7.693-1.493
			c-0.546-0.106-1.02-0.444-1.298-0.926c-0.278-0.482-0.334-1.061-0.153-1.587l2.553-7.41l-4.933-6.089
			c-0.35-0.432-0.496-0.995-0.399-1.544s0.426-1.028,0.903-1.315l6.719-4.034l0.135-7.836c0.009-0.557,0.26-1.081,0.686-1.439
			c0.427-0.358,0.986-0.514,1.537-0.426l7.74,1.228l5.14-5.916c0.365-0.42,0.895-0.662,1.451-0.662s1.086,0.241,1.451,0.662
			l5.14,5.916l7.74-1.228c0.551-0.089,1.11,0.068,1.537,0.426c0.426,0.358,0.677,0.883,0.686,1.439l0.135,7.836l6.719,4.034
			c0.477,0.287,0.807,0.766,0.903,1.315s-0.049,1.111-0.399,1.544l-4.933,6.089l2.553,7.41c0.181,0.526,0.125,1.105-0.153,1.587
			c-0.278,0.482-0.752,0.82-1.298,0.926l-7.693,1.493l-2.807,7.317c-0.199,0.52-0.614,0.927-1.137,1.118
			C33.268,49.292,33.045,49.331,32.823,49.331z"/>
	</g>
	<g>
		<path class="st3" d="M20.525,23.737h-1.748l-2.748-5.75l-0.037,0.012v5.737h-1.76v-8.992h1.76l2.748,5.743l0.037-0.012v-5.731
			h1.748V23.737z"/>
		<path class="st3" d="M26.676,19.79h-3.02v2.545h3.551v1.402h-5.311v-8.992h5.299v1.402h-3.539v2.241h3.02V19.79z"/>
		<path class="st3" d="M34.155,20.482h0.037l0.97-5.737h1.704l-1.735,8.992h-1.637l-1.266-5.509h-0.037l-1.254,5.509h-1.63
			l-1.736-8.992h1.705l0.97,5.737h0.037l1.297-5.737h1.26L34.155,20.482z"/>
		<path class="st3" d="M12.059,35.826h-1.748v-8.992h1.748V35.826z"/>
		<path class="st3" d="M18.63,28.236h-2.026v7.59H14.85v-7.59h-2.013v-1.402h5.793V28.236z"/>
		<path class="st3" d="M24.256,31.879h-3.02v2.545h3.551v1.402h-5.311v-8.992h5.299v1.402h-3.539v2.241h3.02V31.879z"/>
		<path class="st3" d="M27.949,26.834l1.612,6.602h0.037l1.63-6.602h2.291v8.992h-1.748v-2.612l0.148-3.495l-0.037-0.006
			l-1.717,6.114h-1.167L27.3,29.761l-0.037,0.006l0.154,3.446v2.612H25.67v-8.992H27.949z"/>
		<path class="st3" d="M38.842,33.479c0-0.35-0.091-0.627-0.272-0.831c-0.181-0.204-0.5-0.405-0.957-0.602
			c-0.935-0.325-1.636-0.695-2.103-1.109c-0.467-0.414-0.701-0.994-0.701-1.738c0-0.737,0.272-1.337,0.815-1.8
			c0.543-0.463,1.238-0.695,2.081-0.695c0.857,0,1.552,0.259,2.088,0.775c0.535,0.517,0.795,1.168,0.778,1.955l-0.013,0.037h-1.704
			c0-0.412-0.103-0.745-0.309-1.001c-0.206-0.255-0.497-0.383-0.871-0.383c-0.35,0-0.623,0.106-0.818,0.318
			c-0.196,0.212-0.293,0.478-0.293,0.8c0,0.296,0.109,0.54,0.327,0.732c0.218,0.191,0.597,0.405,1.136,0.639
			c0.852,0.288,1.493,0.654,1.924,1.096c0.43,0.443,0.645,1.04,0.645,1.794c0,0.778-0.259,1.388-0.778,1.828
			c-0.519,0.441-1.208,0.661-2.069,0.661c-0.857,0-1.598-0.25-2.226-0.75c-0.628-0.5-0.932-1.218-0.911-2.152l0.013-0.037h1.711
			c0,0.556,0.117,0.955,0.352,1.198c0.235,0.243,0.589,0.364,1.062,0.364c0.371,0,0.645-0.099,0.825-0.297
			C38.753,34.084,38.842,33.817,38.842,33.479z"/>
	</g>
</g>
</svg>
