<?xml version="1.0" encoding="utf-8"?>
<!-- Generator: Adobe Illustrator 22.1.0, SVG Export Plug-In . SVG Version: 6.00 Build 0)  -->
<svg version="1.1" id="Layer_1" xmlns="http://www.w3.org/2000/svg" xmlns:xlink="http://www.w3.org/1999/xlink" x="0px" y="0px"
	 viewBox="0 0 15 18" style="enable-background:new 0 0 15 18;" xml:space="preserve">
<style type="text/css">
	.st0{fill:#FFFFFF;}
	.st1{opacity:0.6;}
	.st2{fill:#758492;enable-background:new    ;}
	.st3{fill:url(#SVGID_1_);}
	.st4{fill:url(#SVGID_2_);}
	.st5{fill:url(#SVGID_3_);}
	.st6{fill:#E1E2E3;}
	.st7{fill:#00B1E1;}
	.st8{opacity:0.51;}
	.st9{fill:#217CC0;}
	.st10{opacity:0.33;fill:#FFFFFF;enable-background:new    ;}
	.st11{fill:#636871;}
</style>
<circle class="st0" cx="7.44" cy="10.406" r="7.285"/>
<g>
	<g>
		<g>
			<g class="st1">
				<path class="st2" d="M11.777,7.996v1.27c-0.23-0.123-0.491-0.193-0.77-0.193c-0.908,0-1.643,0.742-1.643,1.658
					c0,0.916,0.736,1.658,1.643,1.658c0.278,0,0.54-0.07,0.77-0.193v0.193h0.874V7.996H11.777z M11.025,11.511
					c-0.415,0-0.752-0.34-0.752-0.759c0-0.419,0.337-0.759,0.752-0.759c0.415,0,0.752,0.34,0.752,0.759
					C11.777,11.171,11.44,11.511,11.025,11.511z"/>
				<path class="st2" d="M7.603,9.116c-0.286,0-0.554,0.072-0.79,0.198V9.116H5.917v4.507h0.896V12.32
					c0.236,0.126,0.504,0.198,0.79,0.198c0.931,0,1.686-0.762,1.686-1.701C9.289,9.878,8.534,9.116,7.603,9.116z M7.584,11.574
					c-0.426,0-0.771-0.348-0.771-0.778c0-0.429,0.346-0.778,0.771-0.778c0.426,0,0.771,0.348,0.771,0.778
					C8.355,11.226,8.01,11.574,7.584,11.574z"/>
				<path class="st2" d="M5.626,9.879C5.618,9.859,5.609,9.841,5.601,9.821C5.582,9.778,5.562,9.736,5.54,9.694
					C5.528,9.671,5.516,9.648,5.503,9.625C5.481,9.587,5.459,9.549,5.436,9.512c-0.013-0.02-0.025-0.04-0.038-0.06
					C5.362,9.399,5.324,9.348,5.284,9.298C5.273,9.284,5.261,9.272,5.25,9.259C5.218,9.221,5.186,9.184,5.151,9.148
					C5.134,9.13,5.117,9.113,5.1,9.096C5.068,9.065,5.034,9.034,5,9.005C4.983,8.99,4.967,8.975,4.95,8.961
					C4.9,8.92,4.849,8.88,4.795,8.843c-0.009-0.007-0.02-0.012-0.029-0.019c-0.046-0.03-0.093-0.06-0.141-0.087
					C4.606,8.727,4.586,8.716,4.567,8.706C4.525,8.683,4.482,8.662,4.438,8.643C4.419,8.634,4.4,8.625,4.381,8.617
					c-0.062-0.026-0.124-0.05-0.189-0.07C4.187,8.546,4.181,8.545,4.176,8.543c-0.06-0.018-0.121-0.034-0.182-0.048
					C3.973,8.49,3.953,8.487,3.932,8.483c-0.05-0.009-0.1-0.017-0.151-0.023C3.761,8.457,3.74,8.454,3.719,8.452
					c-0.07-0.007-0.14-0.011-0.211-0.011c-0.072,0-0.143,0.005-0.214,0.011C3.272,8.454,3.25,8.458,3.229,8.46
					C3.18,8.466,3.131,8.474,3.083,8.483C3.059,8.487,3.036,8.492,3.013,8.497c-0.05,0.011-0.098,0.024-0.146,0.038
					C2.849,8.541,2.83,8.545,2.812,8.552C2.747,8.572,2.683,8.596,2.621,8.622C2.609,8.627,2.597,8.634,2.585,8.639
					c-0.05,0.022-0.099,0.046-0.147,0.072C2.417,8.722,2.397,8.735,2.377,8.746C2.338,8.768,2.299,8.792,2.262,8.817
					c-0.02,0.014-0.041,0.027-0.061,0.041c-0.04,0.028-0.078,0.058-0.116,0.088C2.07,8.958,2.055,8.97,2.04,8.982
					C1.99,9.024,1.943,9.068,1.897,9.114C1.881,9.13,1.866,9.147,1.85,9.164C1.82,9.196,1.79,9.23,1.762,9.263
					C1.744,9.285,1.727,9.306,1.71,9.328C1.685,9.36,1.661,9.393,1.638,9.427C1.622,9.449,1.606,9.472,1.591,9.495
					c-0.026,0.04-0.05,0.081-0.073,0.122C1.505,9.639,1.492,9.662,1.48,9.685C1.453,9.737,1.428,9.79,1.404,9.845
					C1.393,9.87,1.384,9.897,1.374,9.923c-0.009,0.024-0.02,0.048-0.028,0.072c0.001,0,0.001,0.001,0.002,0.001
					c-0.085,0.244-0.133,0.505-0.133,0.778c0,1.289,1.027,2.334,2.294,2.334c1.267,0,2.294-1.045,2.294-2.334
					c0-0.315-0.062-0.616-0.173-0.891C5.628,9.882,5.627,9.88,5.626,9.879z"/>
			</g>
			<linearGradient id="SVGID_1_" gradientUnits="userSpaceOnUse" x1="3.4764" y1="8.1447" x2="3.4764" y2="13.0038">
				<stop  offset="0" style="stop-color:#FFFFFF"/>
				<stop  offset="0.3664" style="stop-color:#CCCBCB"/>
				<stop  offset="0.9323" style="stop-color:#A9A9AB"/>
			</linearGradient>
			<path class="st3" d="M2.957,9.263c0.175,0,1.907,1.001,1.907,1.318c0,0.316-1.685,1.318-1.907,1.318
				C2.736,11.898,2.782,9.263,2.957,9.263z M3.477,8.145c1.319,0,2.388,1.088,2.388,2.43c0,1.342-1.069,2.43-2.388,2.43
				s-2.388-1.088-2.388-2.43S2.158,8.145,3.477,8.145z"/>
			
				<linearGradient id="SVGID_2_" gradientUnits="userSpaceOnUse" x1="11.0184" y1="85.6092" x2="11.0184" y2="94.0384" gradientTransform="matrix(1 0 0 1 0 -77.8)">
				<stop  offset="0" style="stop-color:#D6D7D8"/>
				<stop  offset="0.2742" style="stop-color:#BEC0C0"/>
				<stop  offset="0.589" style="stop-color:#AAABAC"/>
				<stop  offset="0.7973" style="stop-color:#A2A4A4"/>
				<stop  offset="0.9896" style="stop-color:#A2A4A4"/>
			</linearGradient>
			<path class="st4" d="M11.037,9.856c0.425,0,0.77,0.348,0.77,0.778c0,0.43-0.345,0.778-0.77,0.778s-0.77-0.348-0.77-0.778
				C10.267,10.204,10.612,9.856,11.037,9.856z M11.807,7.809v1.302c-0.236-0.126-0.504-0.198-0.789-0.198
				c-0.93,0-1.684,0.761-1.684,1.7c0,0.939,0.754,1.7,1.684,1.7c0.285,0,0.553-0.072,0.789-0.198v0.198h0.895V7.809H11.807z"/>
			<linearGradient id="SVGID_3_" gradientUnits="userSpaceOnUse" x1="7.6105" y1="9.0362" x2="7.6105" y2="13.5396">
				<stop  offset="0" style="stop-color:#D6D7D8"/>
				<stop  offset="0.2992" style="stop-color:#BEC0C0"/>
				<stop  offset="0.6428" style="stop-color:#AAABAC"/>
				<stop  offset="0.8701" style="stop-color:#A2A4A4"/>
				<stop  offset="0.9896" style="stop-color:#A2A4A4"/>
			</linearGradient>
			<path class="st5" d="M7.592,9.937c0.425,0,0.77,0.348,0.77,0.777s-0.345,0.777-0.77,0.777c-0.425,0-0.77-0.348-0.77-0.777
				S7.167,9.937,7.592,9.937z M7.61,9.036c-0.285,0-0.554,0.072-0.789,0.198V9.036H5.926v4.503h0.895v-1.302
				c0.236,0.126,0.504,0.198,0.789,0.198c0.93,0,1.684-0.761,1.684-1.7S8.541,9.036,7.61,9.036z"/>
			<path class="st6" d="M3.477,8.145c-1.039,0-1.923,0.676-2.251,1.618c0.412,0.298,0.964,0.509,1.587,0.591
				C2.828,9.779,2.88,9.263,2.957,9.263c0.129,0,1.11,0.548,1.612,0.961c0.44-0.13,0.822-0.329,1.115-0.577
				C5.326,8.765,4.473,8.145,3.477,8.145z"/>
			<path class="st7" d="M2.957,9.263c0.175,0,1.907,1.001,1.907,1.318c0,0.316-1.685,1.318-1.907,1.318
				C2.736,11.898,2.782,9.263,2.957,9.263z"/>
			<g class="st8">
				<path class="st9" d="M2.957,9.263c-0.022,0-0.042,0.043-0.06,0.117c0.222,0.032,1.896,1.004,1.896,1.316
					c0,0.012-0.003,0.025-0.008,0.039c0.05-0.061,0.079-0.114,0.079-0.154C4.863,10.264,3.131,9.263,2.957,9.263z"/>
			</g>
			<path class="st10" d="M2.812,10.354c0.184,0.024,0.374,0.037,0.568,0.037c0.424,0,0.825-0.06,1.188-0.167
				c-0.502-0.413-1.483-0.96-1.612-0.96C2.88,9.263,2.828,9.779,2.812,10.354z"/>
			<path class="st0" d="M4.789,10.73c-0.001,0.001-0.003,0.003-0.004,0.004c0,0,0,0.001,0,0.001
				C4.786,10.733,4.787,10.732,4.789,10.73z"/>
			<path class="st0" d="M4.789,10.672c-0.338,0.413-1.67,1.19-1.868,1.19c-0.002,0-0.004-0.001-0.007-0.001
				c0.013,0.024,0.027,0.037,0.042,0.037c0.193,0,1.494-0.758,1.828-1.164c0.004-0.014,0.007-0.026,0.007-0.038
				C4.792,10.689,4.791,10.681,4.789,10.672z"/>
			<g>
				<path class="st11" d="M12.937,8.155c0-0.065,0.015-0.125,0.045-0.18c0.03-0.055,0.071-0.099,0.124-0.131
					c0.053-0.032,0.11-0.048,0.172-0.048s0.119,0.016,0.172,0.048c0.053,0.032,0.095,0.076,0.124,0.131
					c0.03,0.055,0.045,0.116,0.045,0.18c0,0.064-0.015,0.123-0.044,0.178c-0.029,0.055-0.07,0.099-0.123,0.132
					c-0.053,0.033-0.111,0.05-0.174,0.05s-0.121-0.017-0.174-0.05c-0.053-0.033-0.094-0.077-0.123-0.132
					C12.951,8.278,12.937,8.219,12.937,8.155z M12.978,8.155c0,0.057,0.013,0.111,0.04,0.16c0.027,0.049,0.063,0.088,0.11,0.117
					c0.047,0.028,0.097,0.043,0.15,0.043s0.104-0.014,0.15-0.043c0.047-0.028,0.083-0.067,0.11-0.117
					c0.026-0.05,0.04-0.103,0.04-0.16c0-0.056-0.013-0.109-0.039-0.158c-0.026-0.049-0.062-0.088-0.109-0.116
					c-0.047-0.029-0.097-0.043-0.152-0.043c-0.054,0-0.104,0.014-0.151,0.043c-0.047,0.028-0.083,0.067-0.11,0.116
					C12.991,8.045,12.978,8.098,12.978,8.155z M13.2,8.185v0.166h-0.047V7.948h0.124c0.047,0,0.083,0.01,0.109,0.03
					c0.025,0.02,0.038,0.05,0.038,0.089c0,0.043-0.023,0.074-0.068,0.095c0.023,0.008,0.039,0.021,0.048,0.039
					c0.009,0.017,0.013,0.038,0.013,0.063c0,0.024,0.001,0.042,0.002,0.053c0.001,0.011,0.003,0.02,0.006,0.027v0.008h-0.049
					C13.372,8.34,13.37,8.31,13.37,8.263c0-0.029-0.006-0.049-0.018-0.061c-0.012-0.012-0.032-0.018-0.061-0.018H13.2z M13.2,8.142
					h0.087c0.026,0,0.047-0.007,0.064-0.02c0.017-0.013,0.025-0.031,0.025-0.053c0-0.027-0.007-0.047-0.021-0.058
					c-0.014-0.012-0.038-0.018-0.072-0.019H13.2V8.142z"/>
			</g>
		</g>
	</g>
</g>
</svg>
