<?xml version="1.0" encoding="utf-8"?>
<!-- Generator: Adobe Illustrator 22.1.0, SVG Export Plug-In . SVG Version: 6.00 Build 0)  -->
<svg version="1.1" id="Layer_1" xmlns="http://www.w3.org/2000/svg" xmlns:xlink="http://www.w3.org/1999/xlink" x="0px" y="0px"
	 viewBox="0 0 50 50" style="enable-background:new 0 0 50 50;" xml:space="preserve">
<style type="text/css">
	.st0{fill:#00B4E3;}
</style>
<g>
	<path class="st0" d="M40.293,43.009c-1.524-1.536-3.057-3.063-4.588-4.592c-1.17-1.168-2.342-2.333-3.527-3.513
		c4.189-5.822,2.803-13.001-1.704-16.928c-4.917-4.285-11.787-4.267-16.689-0.027c-4.638,4.012-5.592,11.005-2.191,16.249
		c1.668,2.572,3.991,4.325,6.93,5.187c3.862,1.133,7.472,0.472,10.828-1.737c1.858,1.859,3.7,3.702,5.542,5.545
		c0.892,0.893,1.775,1.796,2.681,2.674c0.95,0.92,2.296,0.824,3.044-0.193C41.222,44.854,41.106,43.828,40.293,43.009z
		 M22.098,36.599c-5.135-0.008-9.246-4.148-9.234-9.3c0.011-5.08,4.188-9.241,9.283-9.218c5.251,0.024,9.336,4.38,9.247,9.511
		C31.306,32.506,27.141,36.607,22.098,36.599z"/>
	<path class="st0" d="M29.486,42.58c-8.231-0.001-16.461,0.001-24.692-0.003c-1.372-0.001-2.057-0.702-2.057-2.064
		c0-10.903,0-21.806,0-32.709c0-1.55,0.668-2.221,2.21-2.221c5.952,0,11.903,0.022,17.855-0.018
		c1.267-0.008,1.802,0.862,1.785,1.788c-0.022,1.213-0.008,2.426-0.005,3.64c0.004,1.249,0.804,2.056,2.054,2.065
		c1.066,0.008,2.132-0.012,3.197,0.01c1.059,0.023,1.834,0.85,1.832,1.907c-0.001,0.492-0.007,0.984,0.005,1.475
		c0.003,0.139,0.016,0.316,0.1,0.408c0.524,0.576,1.07,1.133,1.646,1.736c0.007-0.131,0.016-0.222,0.016-0.312
		c0.002-1.672,0.004-3.345,0.003-5.017c-0.001-1.066-0.378-1.985-1.112-2.753C30.546,8.653,28.759,6.8,26.98,4.94
		c-0.849-0.887-1.871-1.33-3.109-1.328c-6.46,0.01-12.92,0.002-19.379,0.009C2.45,3.623,0.777,5.304,0.777,7.356
		c-0.005,11.133-0.005,22.266,0,33.399c0.001,2.162,1.651,3.789,3.803,3.788c4.46,0,8.919,0.002,13.379,0.002
		c3.919,0,7.837,0.004,11.756-0.003c1.136-0.002,2.078-0.437,2.751-1.236c-0.443-0.482-0.848-0.924-1.265-1.379
		C30.714,42.402,30.134,42.58,29.486,42.58z"/>
	<path class="st0" d="M16.933,28.387c4.265,0,8.504,0,12.806,0c0.023-0.5,0.045-0.985,0.069-1.515c-4.341,0-8.608,0-12.875,0
		C16.933,27.394,16.933,27.879,16.933,28.387z"/>
	<path class="st0" d="M28.14,23.285c-2.832,0.019-5.663,0.009-8.495,0.008c-0.896,0-1.792,0-2.713,0c0,0.534,0,1.019,0,1.551
		c4.153,0,8.269,0,12.468,0c-0.189-0.403-0.369-0.748-0.513-1.106C28.746,23.385,28.523,23.283,28.14,23.285z"/>
	<path class="st0" d="M16.93,32.147c3.692,0,7.325,0,10.959-0.002c0.094,0,0.237,0,0.275-0.055c0.321-0.471,0.623-0.955,0.959-1.481
		c-4.147,0-8.166,0-12.193,0C16.93,31.128,16.93,31.612,16.93,32.147z"/>
</g>
</svg>
