<?xml version="1.0" encoding="utf-8"?>
<!-- Generator: Adobe Illustrator 22.1.0, SVG Export Plug-In . SVG Version: 6.00 Build 0)  -->
<svg version="1.1" id="Layer_1" xmlns="http://www.w3.org/2000/svg" xmlns:xlink="http://www.w3.org/1999/xlink" x="0px" y="0px"
	 viewBox="0 0 50 50" style="enable-background:new 0 0 50 50;" xml:space="preserve">
<style type="text/css">
	.st0{display:none;}
	.st1{display:inline;}
	.st2{fill:#FFFFFF;}
</style>
<g id="_x34_2FiKe_1_" class="st0">
	<g class="st1">
		<path d="M7.229,7.897c0.43,0,0.766,0,1.102,0c7.634,0,15.268,0.009,22.902-0.016c0.704-0.002,1.197,0.202,1.688,0.696
			c1.459,1.467,2.981,2.871,4.444,4.335c0.256,0.256,0.484,0.682,0.485,1.03c0.024,11.095,0.018,22.19,0.013,33.285
			c0,0.129-0.041,0.257-0.073,0.44c-10.188,0-20.345,0-30.56,0C7.229,34.415,7.229,21.229,7.229,7.897z M9.96,10.613
			c0,11.492,0,22.907,0,34.349c8.425,0,16.786,0,25.161,0c0-10.078,0-20.097,0-30.169c-1.161,0-2.247-0.043-3.328,0.014
			c-0.78,0.041-1.106-0.172-1.048-1.012c0.072-1.038,0.017-2.085,0.017-3.183C23.789,10.613,16.917,10.613,9.96,10.613z"/>
		<path d="M43.036,41.57c-1.245,0-2.451,0-3.726,0c0-0.854,0-1.682,0-2.568c0.322-0.054,0.641-0.108,1.002-0.169
			c0-10.032,0-20.025,0-30.124c-1.426,0-2.8,0-4.278,0c0-1.441,0-2.78,0-4.19c-7.036,0-13.967,0-20.962,0
			c-0.027,0.624-0.053,1.218-0.082,1.865c-0.864,0-1.663,0-2.537,0c0-1.497,0-2.97,0-4.592c0.345,0,0.703,0,1.06,0
			c7.635,0,15.27,0.009,22.905-0.015c0.703-0.002,1.204,0.2,1.694,0.695c1.456,1.471,2.977,2.878,4.425,4.355
			c0.293,0.299,0.538,0.8,0.539,1.209c0.029,10.927,0.023,21.853,0.021,32.78C43.095,41.047,43.06,41.277,43.036,41.57z"/>
		<path d="M22.158,40.501c-2.578,0-5.156-0.006-7.735,0.004c-0.754,0.003-1.401-0.151-1.422-1.054
			c-0.022-0.968,0.668-1.143,1.452-1.144c5.19-0.001,10.381,0.002,15.571-0.002c0.76-0.001,1.42,0.212,1.435,1.074
			c0.016,0.924-0.649,1.135-1.465,1.129C27.382,40.489,24.77,40.501,22.158,40.501z"/>
		<path d="M22.503,28.51c2.576,0,5.153,0.005,7.729-0.003c0.772-0.003,1.467,0.086,1.52,1.066c0.042,0.775-0.452,1.132-1.564,1.134
			c-5.119,0.005-10.237-0.001-15.356,0.006c-0.784,0.001-1.458-0.144-1.535-1.082c-0.061-0.75,0.479-1.117,1.578-1.119
			C17.418,28.507,19.96,28.51,22.503,28.51z"/>
		<path d="M22.506,20.949c-2.61,0-5.22-0.014-7.83,0.009c-0.802,0.007-1.374-0.248-1.371-1.106c0.003-0.81,0.599-1.081,1.322-1.082
			c5.288-0.005,10.576-0.008,15.864,0.005c0.719,0.002,1.279,0.289,1.258,1.13c-0.021,0.842-0.568,1.053-1.31,1.049
			C27.794,20.942,25.15,20.949,22.506,20.949z"/>
		<path d="M22.56,26.026c-2.542,0-5.085-0.007-7.627,0.004c-0.801,0.004-1.549-0.062-1.634-1.076
			c-0.063-0.748,0.484-1.124,1.579-1.125c5.119-0.004,10.237,0.001,15.356-0.004c0.772-0.001,1.497,0.102,1.511,1.075
			c0.015,1.043-0.75,1.131-1.557,1.129C27.644,26.022,25.102,26.026,22.56,26.026z"/>
		<path d="M22.508,33.59c2.609,0,5.218,0.01,7.827-0.006c0.756-0.004,1.391,0.115,1.412,1.04c0.02,0.915-0.623,1.129-1.362,1.13
			c-5.218,0.01-10.436,0.007-15.654,0.004c-0.744,0-1.417-0.205-1.423-1.084c-0.007-0.944,0.666-1.101,1.475-1.093
			C17.358,33.606,19.933,33.59,22.508,33.59z"/>
	</g>
</g>
<g id="j3TWvE_1_">
	<g>
		<path class="st2" d="M16.78,45.908c-3.154,0-6.309,0.001-9.463-0.001c-1.587-0.001-2.263-1.123-1.524-2.532
			c0.92-1.753,1.836-3.508,2.773-5.251c0.168-0.312,0.183-0.528-0.041-0.828C6.179,34.161,4.77,30.633,4.443,26.74
			c-0.599-7.119,1.738-13.156,7.034-17.971c3.52-3.201,7.716-4.997,12.456-5.301c7.34-0.471,13.451,2.13,18.147,7.806
			c3.627,4.385,5.105,9.508,4.684,15.162c-0.682,9.16-7.594,17.024-16.578,18.968c-2.382,0.515-4.788,0.505-7.2,0.498
			c-2.068-0.006-4.137-0.001-6.205-0.001C16.78,45.903,16.78,45.905,16.78,45.908z M7.978,43.757
			c0.209,0.01,0.329,0.021,0.448,0.021c5.773,0,11.546,0.037,17.318-0.028c1.518-0.017,3.07-0.202,4.544-0.565
			c10.165-2.503,16.415-12.957,13.889-23.13C41.632,9.803,31.29,3.55,21.015,6.051C10.518,8.606,4.187,19.514,7.171,29.895
			c0.768,2.672,2.075,5.053,3.844,7.185c0.217,0.261,0.265,0.462,0.085,0.77c-0.348,0.593-0.65,1.213-0.971,1.822
			C9.425,41.009,8.721,42.346,7.978,43.757z"/>
		<path class="st2" d="M29.897,19.922c0.972,0.053,1.948,0.107,2.925,0.16c1.327,0.072,2.239,0.811,2.303,1.979
			c0.024,0.437-0.137,0.91-0.315,1.323c-0.121,0.281-0.228,0.478-0.083,0.794c0.272,0.594,0.211,1.208-0.053,1.802
			c-0.021,0.047-0.063,0.09-0.068,0.138c-0.099,0.931-0.353,1.881-0.25,2.789c0.146,1.284-0.077,2.044-1.254,2.568
			c-2.537,1.13-5.155,1.581-7.891,0.799c-0.247-0.071-0.481-0.203-0.731-0.245c-0.377-0.064-0.77-0.133-1.143-0.091
			c-0.492,0.055-0.969,0.228-1.458,0.326c-0.375,0.075-0.693,0.151-0.887,0.566c-0.087,0.186-0.444,0.336-0.684,0.344
			c-1.119,0.037-2.239,0.025-3.359,0.016c-0.58-0.004-0.855-0.298-0.859-0.921c-0.009-1.361-0.003-2.722-0.003-4.083
			c0-1.396-0.002-2.791,0.001-4.187c0.001-0.742,0.216-0.969,0.943-0.969c1.171,0,2.343,0.027,3.514,0.009
			c0.186-0.003,0.454-0.131,0.54-0.283c0.491-0.86,1.015-1.715,1.376-2.632c0.265-0.673,0.614-1.207,1.257-1.482
			c1.055-0.45,1.697-1.25,2.125-2.27c0.326-0.777,0.671-1.546,0.992-2.324c0.327-0.791,0.78-1.044,1.621-0.877
			c1.764,0.35,2.843,1.946,2.417,3.693C30.626,17.878,30.242,18.858,29.897,19.922z M28.256,14.791
			c-0.207,0.499-0.409,1.005-0.627,1.504c-0.693,1.584-1.493,3.073-3.224,3.784c-0.183,0.075-0.341,0.331-0.412,0.538
			c-0.536,1.568-1.171,3.057-2.664,3.99c-0.115,0.072-0.164,0.323-0.165,0.492c-0.013,1.757-0.01,3.514-0.009,5.271
			c0,0.114,0.028,0.229,0.049,0.388c0.196-0.037,0.364-0.055,0.525-0.101c1.309-0.374,2.547-0.453,3.915,0.044
			c2.22,0.807,4.447,0.329,6.582-0.561c0.732-0.305,0.796-0.534,0.342-1.199c-0.207-0.304-0.285-0.656-0.011-0.896
			c0.522-0.459,0.479-0.961,0.321-1.549c-0.064-0.238-0.037-0.57,0.086-0.778c0.453-0.77,0.474-0.777-0.068-1.543
			c-0.296-0.418-0.261-0.811,0.127-1.138c0.308-0.26,0.67-0.51,0.514-0.973c-0.153-0.453-0.609-0.374-0.972-0.42
			c-0.255-0.033-0.516-0.022-0.774-0.038c-1.031-0.066-2.063-0.112-3.091-0.209c-0.896-0.085-1.123-0.64-0.753-1.453
			c0.51-1.121,0.984-2.265,1.374-3.433C29.597,15.674,29.191,15.098,28.256,14.791z"/>
	</g>
</g>
</svg>
