<?xml version="1.0" encoding="utf-8"?>
<!-- Generator: Adobe Illustrator 23.0.3, SVG Export Plug-In . SVG Version: 6.00 Build 0)  -->
<svg version="1.1" id="Layer_1" xmlns="http://www.w3.org/2000/svg" xmlns:xlink="http://www.w3.org/1999/xlink" x="0px" y="0px"
	 viewBox="0 0 50 50" style="enable-background:new 0 0 50 50;" xml:space="preserve">
<style type="text/css">
	.st0{fill:#FFFFFF;}
</style>
<g>
	<path class="st0" d="M29.698,15.276c2.025,0,3.667-1.642,3.667-3.667s-1.642-3.667-3.667-3.667s-3.667,1.642-3.667,3.667
		C26.032,13.635,27.673,15.276,29.698,15.276z"/>
	<path class="st0" d="M21.341,14.503c0.784,3.344,3.64,5.484,3.913,5.903c0.29,0.446,0.334,1.16,0.777,3.391
		c0.443,2.23,0.895,2.677,1.475,3.658c0.58,0.982,3.747,3.791,4.104,4.149c0.357,0.357-0.86,2.428-0.86,2.428l-2.084,3.594
		c-0.445,0.769-0.183,1.754,0.586,2.2c0.254,0.147,0.532,0.217,0.806,0.217c0.554,0,1.095-0.287,1.394-0.802l2.084-3.594
		c0,0,2.803-3.729,2.803-4.755c0-1.026-3.747-5.93-3.747-5.93l-0.089-0.807c0,0-0.134-0.714-0.223-1.293
		c-0.086-0.562-0.464-1.288-0.486-1.33c0.045-0.005,0.301-0.084,1.572-0.588c1.799-0.714,4.371-3.147,4.371-3.147h-0.015
		c2.2-1.497,3.341-3.243,3.431-3.388c0.472-0.752,0.245-1.746-0.508-2.22c-0.751-0.47-1.746-0.247-2.22,0.508
		c-0.032,0.052-3.335,5.184-10.028,3.802c-4.355-0.9-5.755-7.389-5.768-7.454c-0.179-0.87-1.036-1.428-1.898-1.252
		c-0.871,0.179-1.434,1.028-1.255,1.899C19.513,9.87,20.002,12.151,21.341,14.503z"/>
	<path class="st0" d="M26.615,28.972l-4.731,3.352c-0.72,0.522-0.881,1.528-0.36,2.248c0.315,0.435,0.807,0.666,1.304,0.666
		c0.328,0,0.658-0.099,0.944-0.306l5.519-3.104C29.291,31.827,27.686,30.355,26.615,28.972z"/>
	<polygon class="st0" points="20.414,15.99 17.648,11.797 15.105,10.503 9.93,17.061 12.741,21.21 15.105,22.949 	"/>
	<polygon class="st0" points="46.065,16.347 44.905,14.206 42.318,15.276 38.793,19.381 43.388,26.563 46.154,25.492 49.098,21.299 
			"/>
	<path class="st0" d="M24.087,41.605c0,1.079,1.877,1.953,4.193,1.953s4.193-0.875,4.193-1.953c0-0.267-0.116-0.521-0.324-0.752
		c-0.576,0.496-1.309,0.8-2.09,0.8c-0.564,0-1.122-0.15-1.612-0.433c-0.596-0.345-1.047-0.865-1.32-1.483
		C25.376,39.971,24.087,40.715,24.087,41.605z"/>
	<path class="st0" d="M19.382,41.844c0,2.554,3.909,4.555,8.898,4.555s8.899-2.001,8.899-4.555c0-1.461-1.281-2.738-3.307-3.566
		l-0.539,0.93c1.748,0.681,2.773,1.677,2.773,2.637c0,1.681-3.144,3.482-7.826,3.482c-4.68,0-7.825-1.801-7.825-3.482
		c0-1.504,2.519-3.1,6.398-3.421c0.001-0.371,0.058-0.737,0.186-1.088C22.659,37.637,19.382,39.506,19.382,41.844z"/>
	<path class="st0" d="M35.564,35.599c-0.204,0.285-0.419,0.583-0.659,0.904c3.132,1.176,5.192,3.14,5.192,5.363
		c0,3.592-5.367,6.514-11.965,6.514s-11.965-2.922-11.965-6.514c0-2.227,2.066-4.194,5.207-5.369
		c-0.368-0.187-0.686-0.457-0.961-0.774c-3.239,1.368-5.318,3.585-5.318,6.143c0,4.254,5.726,7.587,13.038,7.587
		s13.038-3.333,13.038-7.587C41.17,39.233,38.972,36.955,35.564,35.599z"/>
</g>
</svg>
