<?xml version="1.0" encoding="utf-8"?>
<!-- Generator: Adobe Illustrator 22.1.0, SVG Export Plug-In . SVG Version: 6.00 Build 0)  -->
<svg version="1.1" id="Layer_1" xmlns="http://www.w3.org/2000/svg" xmlns:xlink="http://www.w3.org/1999/xlink" x="0px" y="0px"
	 viewBox="0 0 400 30" style="enable-background:new 0 0 400 30;" xml:space="preserve">
<style type="text/css">
	.st0{fill:#FFFFFF;}
</style>
<path class="st0" d="M118.728,2.282c-0.395-0.068-0.812-0.079-1.252-0.034c-0.44,0.046-0.885,0.164-1.336,0.355
	c-0.451,0.192-0.88,0.469-1.286,0.829c-1.759-0.97-3.389-1.578-4.889-1.827c-1.5-0.248-2.808-0.225-3.924,0.068
	c-1.117,0.293-2.008,0.812-2.673,1.556s-1.026,1.613-1.083,2.605c-0.057,0.992,0.22,2.052,0.829,3.18
	c0.609,1.128,1.624,2.233,3.045,3.315c1.511,1.15,2.594,2.368,3.248,3.654c0.654,1.286,0.981,2.52,0.981,3.705
	c0,1.184-0.266,2.278-0.795,3.282c-0.53,1.004-1.207,1.805-2.03,2.402c-0.823,0.597-1.748,0.941-2.774,1.032
	c-1.026,0.09-2.025-0.181-2.994-0.812c-0.699-0.451-1.19-1.032-1.471-1.743c-0.282-0.71-0.401-1.455-0.355-2.233
	c0.045-0.778,0.237-1.551,0.575-2.317c0.338-0.767,0.778-1.432,1.32-1.996c0.541-0.564,1.161-0.986,1.861-1.268
	c0.699-0.282,1.421-0.322,2.165-0.119c0.068-0.338,0.011-0.722-0.169-1.15c-0.181-0.428-0.44-0.829-0.778-1.201
	c-0.338-0.372-0.739-0.687-1.201-0.948c-0.462-0.259-0.942-0.389-1.438-0.389c-0.88,0.046-1.641,0.311-2.284,0.795
	c-0.643,0.485-1.122,0.998-1.438,1.539c0.428-0.744,0.908-1.336,1.438-1.776c0.529-0.44,0.93-0.761,1.201-0.964
	c-0.812,0.181-1.551,0.587-2.216,1.218c-0.665,0.631-1.218,1.399-1.658,2.3c-0.44,0.902-0.733,1.883-0.88,2.943
	c-0.146,1.06-0.096,2.115,0.153,3.163c0.248,1.049,0.722,2.041,1.421,2.977c0.699,0.936,1.669,1.72,2.91,2.351
	c1.353,0.699,2.673,1.094,3.958,1.184c1.286,0.09,2.481-0.051,3.586-0.423c1.105-0.372,2.092-0.936,2.96-1.692
	c0.868-0.756,1.567-1.641,2.097-2.656c0.529-1.015,0.868-2.115,1.015-3.299c0.146-1.184,0.045-2.391-0.304-3.62
	c-0.35-1.229-0.964-2.441-1.844-3.637c-0.88-1.195-2.086-2.312-3.62-3.349c-0.609-0.406-1.043-0.857-1.302-1.353
	c-0.259-0.496-0.361-0.97-0.304-1.421c0.056-0.451,0.242-0.846,0.558-1.184c0.315-0.338,0.738-0.552,1.268-0.643
	c0.529-0.09,1.15-0.034,1.861,0.169s1.471,0.62,2.284,1.252c-0.384,1.083-0.496,2.019-0.338,2.808
	c0.157,0.79,0.445,1.427,0.863,1.912c0.417,0.485,0.896,0.801,1.438,0.948c0.541,0.147,1.003,0.107,1.387-0.119
	c-0.496-0.045-0.919-0.191-1.268-0.44c-0.35-0.248-0.604-0.547-0.761-0.896c-0.158-0.349-0.226-0.749-0.203-1.201
	c0.022-0.451,0.157-0.902,0.406-1.353c-0.09,0.248-0.141,0.541-0.153,0.88c-0.012,0.338,0.028,0.671,0.119,0.998
	c0.09,0.327,0.254,0.615,0.491,0.863c0.237,0.248,0.558,0.406,0.964,0.473c-0.226-0.315-0.355-0.637-0.389-0.964
	c-0.034-0.326,0.006-0.637,0.119-0.93c-0.068,0.451-0.023,0.801,0.135,1.049c-0.046-0.315-0.017-0.626,0.085-0.93
	c0.101-0.304,0.259-0.569,0.473-0.795c0.214-0.225,0.468-0.389,0.761-0.491c0.293-0.101,0.631-0.107,1.015-0.017
	c0,0.023,0.022,0.034,0.068,0.034l0.068,0.034c0.068,0,0.124,0.023,0.169,0.068c0.135-0.112,0.304-0.304,0.507-0.575
	c0.203-0.271,0.4-0.58,0.592-0.93c0.191-0.349,0.36-0.716,0.507-1.099c0.146-0.383,0.237-0.761,0.271-1.133
	c0.034-0.372,0-0.705-0.101-0.998c-0.101-0.293-0.311-0.518-0.626-0.676l0,0C119.467,2.463,119.122,2.35,118.728,2.282z
	 M101.407,16.592c-0.485,0.519-0.902,1.145-1.252,1.878s-0.598,1.528-0.744,2.385c-0.147,0.857-0.085,1.703,0.186,2.538
	c-0.248-0.473-0.367-1.11-0.355-1.912c0.011-0.801,0.153-1.612,0.423-2.436c0.271-0.823,0.665-1.562,1.184-2.216
	c0.518-0.654,1.173-1.071,1.962-1.252C102.359,15.736,101.891,16.074,101.407,16.592z M112.486,14.258
	c-0.361-0.631-0.722-1.105-1.083-1.421c0.203,0.113,0.411,0.288,0.626,0.525c0.214,0.237,0.411,0.507,0.592,0.812
	c0.18,0.304,0.322,0.643,0.423,1.015c0.101,0.372,0.153,0.739,0.153,1.099C113.084,15.567,112.847,14.89,112.486,14.258z
	 M112.605,16.035c-0.101-0.484-0.266-0.959-0.491-1.421c-0.226-0.462-0.491-0.885-0.795-1.268c-0.304-0.383-0.638-0.699-0.998-0.948
	c0.36,0.181,0.71,0.469,1.049,0.863c0.338,0.395,0.626,0.834,0.863,1.32c0.237,0.485,0.406,0.976,0.507,1.471
	c0.101,0.496,0.085,0.948-0.051,1.353C112.734,16.977,112.706,16.52,112.605,16.035z M111.234,14.461
	c-0.384-0.609-0.767-1.071-1.15-1.387c0.203,0.113,0.417,0.288,0.643,0.525c0.225,0.237,0.434,0.513,0.626,0.829
	c0.191,0.316,0.349,0.649,0.473,0.998c0.124,0.35,0.186,0.683,0.186,0.998C111.877,15.725,111.618,15.07,111.234,14.461z
	 M110.202,16.153c-0.282-0.654-0.604-1.223-0.964-1.709c-0.361-0.484-0.716-0.891-1.066-1.218c-0.35-0.326-0.626-0.569-0.829-0.727
	c0.383,0.158,0.79,0.451,1.218,0.88c0.428,0.429,0.812,0.925,1.15,1.489c0.338,0.564,0.614,1.15,0.829,1.759
	c0.214,0.609,0.299,1.184,0.254,1.725C110.681,17.54,110.485,16.807,110.202,16.153z M108.02,4.481
	c0.18-0.09,0.378-0.164,0.592-0.22c0.214-0.056,0.417-0.085,0.609-0.085c0.191,0,0.344,0.034,0.457,0.101
	c-0.203-0.045-0.412-0.051-0.626-0.017c-0.215,0.034-0.418,0.079-0.609,0.135c-0.192,0.057-0.361,0.124-0.507,0.203
	c-0.147,0.079-0.243,0.141-0.288,0.186C107.716,4.673,107.84,4.571,108.02,4.481z M106.887,4.362c0.259-0.304,0.58-0.525,0.964-0.66
	c0.383-0.135,0.783-0.197,1.201-0.186c0.417,0.012,0.749,0.062,0.998,0.153c-0.654-0.112-1.201-0.119-1.641-0.017
	c-0.44,0.101-0.795,0.259-1.066,0.473c-0.271,0.215-0.469,0.457-0.592,0.727c-0.124,0.271-0.186,0.519-0.186,0.744
	C106.521,5.079,106.627,4.667,106.887,4.362z M115.548,6.443c0.191-0.18,0.428-0.338,0.71-0.473
	c0.282-0.135,0.603-0.225,0.964-0.271c0.36-0.045,0.733,0,1.117,0.135c-0.384-0.068-0.739-0.073-1.066-0.017
	c-0.327,0.057-0.626,0.147-0.896,0.271c-0.271,0.124-0.513,0.265-0.727,0.423c-0.215,0.158-0.378,0.293-0.491,0.406
	C115.227,6.781,115.356,6.624,115.548,6.443z M105.889,16.83c0.068,0.226,0.225,0.316,0.473,0.271
	c0.135-0.022,0.208-0.085,0.22-0.186c0.011-0.101-0.017-0.203-0.085-0.304c-0.068-0.101-0.175-0.191-0.322-0.271
	c-0.147-0.079-0.322-0.107-0.524-0.085C105.742,16.412,105.821,16.604,105.889,16.83z M105.382,16.44
	c-0.046-0.101-0.101-0.175-0.169-0.22c-0.046,0.09-0.073,0.186-0.085,0.288c-0.012,0.101,0.039,0.141,0.153,0.119
	C105.393,16.604,105.427,16.542,105.382,16.44z M104.857,16.373c0.011,0.057,0.051,0.073,0.119,0.051
	c0.068-0.045,0.101-0.096,0.101-0.153c0-0.056-0.046-0.073-0.135-0.051C104.875,16.266,104.846,16.317,104.857,16.373z"/>
<path class="st0" d="M125.647,21.43v-0.034c-0.034,0.101-0.068,0.203-0.135,0.304l-0.101,0.068h0.034
	c-0.068,0.135-0.169,0.271-0.203,0.44l-0.034-0.135l-0.203,0.372h0.034l-0.068,0.135h0.034c-0.101,0.169-0.237,0.338-0.304,0.507
	c-0.101,0.271-0.372,0.473-0.44,0.744l-0.068,0.135l-0.101,0.068l-0.068,0.135v-0.135c-0.237,0.169-0.271,0.338-0.372,0.609h0.068
	l0.034-0.034v0.034h-0.034c-0.101,0.169-0.271,0.372-0.304,0.541l-0.034-0.135l-0.237,0.169l0.304-0.575l-1.083,1.252
	c0.609-1.252,1.725-2.369,2.436-3.586l-0.169,0.169c-0.169,0.169-0.304,0.44-0.44,0.609c-0.541,0.676-1.083,1.421-1.692,2.03
	c0,0.034,0,0.034-0.034,0.034v-0.034h0.034c0.304-0.71,0.914-1.252,1.353-1.894h-0.068c-0.338,0.372-0.676,0.846-1.117,1.117
	c0-1.083,1.489-5.277,1.928-6.496c0.068-0.203,0.169-0.44,0.169-0.676c0-0.169-0.135-0.271-0.304-0.304
	c-0.372,0.71-0.643,1.489-0.981,2.233c0,0.068-0.068,0.101-0.101,0.135c0,0.034,0,0.034-0.034,0.034l0.034-0.034
	c0.304-0.812,0.609-1.624,0.88-2.47l-0.169-0.068v0.034l-0.135,0.068l0.034-0.237c-0.034-0.034-0.101-0.101-0.169-0.101
	c-0.101,0-0.169,0.068-0.203,0.135l-0.101,0.068l-0.034,0.169l-0.101,0.034c0.135-0.135,0.068-0.101,0.135-0.237l0.101-0.034
	l-0.034-0.338c-0.778,0.304-0.88,1.015-1.489,1.556l-3.248,2.91l-0.541,0.406l-0.068-0.068c0.981-2.199,2.199-4.939,4.635-5.785
	l0.981,0.271c0.034-0.068,0.068-0.135,0.068-0.203c0-0.101-0.068-0.203-0.135-0.271c-0.609-0.575-1.32-1.049-2.165-1.049
	c-0.846,0-1.692,0.473-2.369,0.948c-1.624,1.15-3.755,4.77-3.755,6.766c0,0.948,1.252,1.725,2.097,1.725
	c1.184,0,2.165-1.421,2.876-2.165l1.15-1.184c-0.372,1.793-0.778,3.586-0.778,5.413c0,0.948,0.541,1.015,1.286,1.286
	c1.489-1.184,3.146-4.195,3.89-5.954C125.884,21.058,125.748,21.227,125.647,21.43z M123.718,17.134c0,0.068,0,0.101-0.034,0.169
	C123.684,17.235,123.684,17.202,123.718,17.134z M123.684,17.337l-0.135,0.271c0-0.034-0.034-0.101-0.034-0.101
	C123.515,17.405,123.583,17.371,123.684,17.337z M123.042,20.348c0-0.034,0-0.068,0.034-0.101L123.042,20.348z M123.177,20.01
	l-0.034,0.068c0-0.068,0-0.135,0.034-0.169V20.01z M123.245,17.066l-0.271,0.507C123.008,17.405,123.143,17.168,123.245,17.066z
	 M123.008,20.517c-0.034,0.237-0.068,0.473-0.237,0.676C122.839,20.957,122.906,20.754,123.008,20.517z M122.737,21.227h0.034
	l-0.068,0.135L122.737,21.227z M122.703,21.498v0.169h-0.034C122.67,21.6,122.67,21.566,122.703,21.498z M122.534,22.209v0.101
	l-0.034-0.068L122.534,22.209z M122.365,22.851h0.034v0.068h-0.034V22.851z M119.015,16.863v0.034h-0.034
	C118.982,16.863,118.982,16.863,119.015,16.863z M118.88,17.1v0.034h-0.068C118.846,17.134,118.846,17.134,118.88,17.1z
	 M118.711,16.254h0.034l-0.101,0.068L118.711,16.254z M116.614,19.874h-0.034c0-0.034,0.034-0.068,0.034-0.101V19.874z
	 M116.715,19.502l-0.068,0.169C116.648,19.603,116.681,19.536,116.715,19.502c0.237-0.643,1.286-2.47,1.759-2.943l0.068-0.135
	c0,0.169-0.304,0.541-0.406,0.676c-0.473,0.71-0.88,1.522-1.32,2.266C116.817,19.434,116.749,19.468,116.715,19.502z
	 M118.474,17.607v0.068c-0.372,0.609-0.778,1.184-1.117,1.827C117.662,18.792,118.035,18.216,118.474,17.607z M117.121,20.044
	c0.068-0.068,0.068-0.203,0.135-0.237l-0.101,0.237H117.121z M117.222,21.769h-0.034c0-0.034,0-0.101,0.034-0.135V21.769z
	 M117.358,21.329c-0.034,0.101-0.068,0.169-0.135,0.237c0.101-0.372,0.169-0.778,0.304-1.15c0.338-0.981,1.624-3.383,2.504-3.925
	C118.88,17.878,118.001,19.637,117.358,21.329z M122.432,26.166c0-0.034,0.034-0.068,0.068-0.068L122.432,26.166z M122.534,26.065
	l0.237-0.304C122.771,25.93,122.636,25.964,122.534,26.065z M122.771,25.896c0.034,0,0.034-0.034,0.068-0.034
	C122.839,25.896,122.805,25.896,122.771,25.896z M122.805,25.727l0.203-0.304c0,0.068-0.034,0.135-0.034,0.203L122.805,25.727z
	 M123.008,25.592l0.034-0.034C123.042,25.592,123.042,25.592,123.008,25.592z M123.177,25.558h-0.068
	c0.034,0,0.034-0.034,0.068-0.034V25.558z M123.312,25.287h-0.034l0.101-0.068h0.034L123.312,25.287z M123.988,24.34
	c0-0.034,0-0.101,0.034-0.135C124.022,24.238,124.022,24.306,123.988,24.34z"/>
<path class="st0" d="M131.195,1.064c0.135,0.203,0.237,0.44,0.237,0.676c0,0.676-2.334,6.563-2.741,7.815
	c-1.32,4.162-3.552,12.112-3.552,16.306c0,1.015,0.068,2.131,0.676,2.977c0.507,0.71,1.252,1.353,2.165,1.353
	c0.101,0,0.203-0.034,0.304-0.034c-0.034-0.406-0.203-0.846-0.304-1.252c-0.169-0.643-0.304-1.252-0.304-1.894
	c0-2.233,0.473-4.533,1.083-6.698l1.827-6.529c0.271-0.914,0.609-1.827,0.88-2.741c0.473-1.59,2.03-6.293,2.03-7.68
	c0-0.948-1.083-2.504-2.064-2.504C131.33,0.861,131.229,0.962,131.195,1.064z M127,24.915c0.237-2.436,0.778-4.838,1.455-7.173
	c0.372-1.286,2.097-7.646,2.538-8.322c-0.541,2.3-1.353,4.533-1.996,6.8c-0.44,1.624-0.812,3.248-1.218,4.872
	c-0.271,1.049-0.44,2.063-0.609,3.113C127.135,24.441,127.067,24.679,127,24.915z M131.093,9.048c0-0.169,0.034-0.271,0.169-0.372
	L131.093,9.048z M131.262,8.676c0-0.101,0-0.237,0.034-0.338l0.068,0.034L131.262,8.676z M131.499,7.796V7.763l0.034,0.034H131.499z
	"/>
<path class="st0" d="M137.352,16.931c0-1.489-0.914-2.605-2.266-3.045l-0.271,0.068l0.676,1.252
	c-0.304-0.068-0.609-0.135-0.914-0.135c-1.286,0-2.334,0.575-3.079,1.624c-0.948,1.32-1.624,2.943-1.624,4.567
	c0,1.996,1.218,3.417,3.282,3.417c0.948,0,1.861-0.643,1.928-1.624l-0.135,0.169c0,0.135-0.034,0.237-0.135,0.338v-0.135
	l-0.068,0.135h-0.034l-0.034,0.135h-0.034l0.034,0.068h-0.101v0.034l-0.068-0.034l0.034-0.101l-0.237-0.034
	c0.034-0.203,0.237-0.338,0.237-0.575c0-0.034-0.034-0.101-0.068-0.169c-0.203,0.304-0.271,0.643-0.643,0.812
	c0.101-0.271,0.372-0.507,0.372-0.812v-0.101l-0.034,0.034c-0.237,0.609-0.778,1.083-1.489,1.083c-0.473,0-0.575-1.286-0.575-1.624
	c0-0.271-0.034-0.846,0.101-1.117C134.442,21.16,137.352,19.4,137.352,16.931z M135.322,18.318v0.034l-0.101,0.034L135.322,18.318
	c0-0.034,0-0.101,0.034-0.135L135.322,18.318z M136.709,17.607c-0.135,0.44-0.338,0.88-0.676,1.218
	C136.032,18.623,136.573,17.844,136.709,17.607z M135.931,18.893c0.034-0.034,0.068-0.034,0.101-0.034
	C135.998,18.893,135.964,18.893,135.931,18.893z M135.964,18.081l-0.034,0.101h-0.034L135.964,18.081z M135.897,18.893
	c0,0.034-0.034,0.034-0.068,0.068L135.897,18.893z M135.694,17.54h0.068c0,0.034-0.034,0.068-0.068,0.068V17.54z M135.525,17.979
	v-0.034l0.068-0.135C135.592,17.878,135.559,17.912,135.525,17.979z M135.559,16.322v0.135c0,1.218-1.793,3.214-3.011,3.349
	C132.818,18.318,134.036,16.66,135.559,16.322z M133.156,17.134l0.034-0.034v0.034l-0.135,0.068
	C133.089,17.168,133.089,17.134,133.156,17.134z M132.277,17.472c0,0.034-0.034,0.101-0.068,0.135h-0.034
	C132.209,17.607,132.243,17.506,132.277,17.472z M132.074,17.675c0,0.068,0,0.101-0.034,0.135
	C132.04,17.776,132.04,17.743,132.074,17.675z M131.127,18.555h-0.034c0-0.034,0-0.034,0.034-0.034V18.555z M131.262,18.216
	l-0.068-0.034l0.101-0.169L131.262,18.216z M131.329,17.979h-0.034l0.034-0.034V17.979z M131.769,19.739h-0.034
	c0-0.068,0-0.135,0.034-0.169V19.739z M131.837,17.202l-0.135,0.101l-0.068,0.135c-0.034,0.135-0.068,0.271-0.237,0.338
	c0.068-0.135,0.169-0.237,0.237-0.338v-0.034l0.068-0.101l0.169-0.271c0.034-0.034,0.068-0.034,0.101-0.034l-0.101,0.034
	C131.87,17.1,131.837,17.134,131.837,17.202z M131.904,18.081c0,0.034,0,0.034,0,0.068v-0.034V18.081z M131.904,19.367
	c0-0.71,0.643-1.658,1.117-2.131C132.717,17.979,132.142,18.623,131.904,19.367z"/>
<path class="st0" d="M139.875,19.626c-0.09,0.03-0.164,0.075-0.224,0.135c0.04,0.04,0.119,0.07,0.239,0.09
	c0.119,0.02,0.169-0.019,0.15-0.119C140.019,19.631,139.964,19.596,139.875,19.626z M139.71,19.895c0-0.03-0.02-0.055-0.06-0.075
	c-0.04,0-0.06,0.015-0.06,0.045c0,0.03,0.019,0.055,0.06,0.075C139.69,19.94,139.71,19.925,139.71,19.895z M139.65,19.686
	c-0.02-0.01-0.04-0.005-0.06,0.015c-0.02,0.02-0.02,0.035,0,0.045c0.019,0.01,0.04,0.005,0.06-0.015
	C139.67,19.711,139.67,19.696,139.65,19.686z M145.931,20.239c-0.319,0.578-0.708,1.196-1.166,1.854
	c-0.04-0.638-0.259-1.286-0.658-1.944c-0.399-0.658-1.017-1.286-1.854-1.884c-0.04-0.04-0.16-0.124-0.359-0.254
	c-0.199-0.13-0.319-0.214-0.359-0.254c-0.239-0.159-0.384-0.309-0.433-0.449c-0.05-0.139-0.03-0.249,0.06-0.329
	c0.09-0.079,0.234-0.124,0.433-0.135c0.199-0.01,0.429,0.026,0.688,0.105c0.119,0.04,0.254,0.1,0.404,0.179
	c0.15,0.08,0.284,0.179,0.404,0.299c0.119,0.119,0.204,0.25,0.254,0.389c0.05,0.139,0.035,0.299-0.045,0.478
	c0.099-0.079,0.159-0.189,0.179-0.329c0.019-0.139-0.02-0.269-0.119-0.389c0.199,0.219,0.264,0.414,0.195,0.583
	c-0.07,0.17-0.264,0.264-0.583,0.284c0.359,0.139,0.698,0.195,1.017,0.164c0.319-0.03,0.602-0.115,0.852-0.254
	c0.249-0.139,0.449-0.324,0.598-0.553c0.15-0.229,0.244-0.483,0.284-0.763c0.04,0.219,0.04,0.439,0,0.658
	c0.179-0.558,0.224-1.027,0.135-1.406c-0.09-0.378-0.274-0.688-0.553-0.927c-0.279-0.239-0.633-0.419-1.061-0.538
	c-0.429-0.119-0.892-0.199-1.391-0.239c-1.037-0.079-1.919-0.01-2.647,0.209c-0.728,0.219-1.251,0.523-1.57,0.912
	c-0.319,0.389-0.419,0.847-0.299,1.375c0.119,0.529,0.509,1.072,1.166,1.63c0.079,0.04,0.184,0.115,0.314,0.224
	c0.13,0.11,0.234,0.184,0.314,0.224c0.698,0.459,1.206,0.968,1.525,1.525c0.319,0.558,0.498,1.097,0.538,1.615
	c0.04,0.618-0.03,1.121-0.209,1.51c-0.179,0.389-0.424,0.688-0.733,0.897c-0.309,0.209-0.648,0.329-1.017,0.359
	c-0.369,0.03-0.723-0.015-1.061-0.135c-0.34-0.119-0.638-0.309-0.897-0.568c-0.259-0.259-0.439-0.568-0.538-0.927
	c-0.1-0.378-0.105-0.747-0.015-1.106c0.09-0.359,0.224-0.688,0.404-0.987c0.179-0.299,0.393-0.568,0.643-0.807
	c0.249-0.239,0.483-0.438,0.703-0.598c-0.1,0.02-0.195,0.04-0.284,0.06c-0.09,0.02-0.184,0.07-0.284,0.15
	c0.099-0.139,0.214-0.254,0.344-0.344s0.264-0.154,0.404-0.195c-0.08-0.079-0.179-0.115-0.299-0.105
	c-0.119,0.01-0.209,0.035-0.269,0.075c0.079-0.079,0.189-0.135,0.329-0.164c0.139-0.03,0.259-0.005,0.359,0.075
	c-0.08-0.159-0.239-0.374-0.478-0.643c-0.239-0.269-0.419-0.444-0.538-0.523c-0.1-0.06-0.229-0.085-0.389-0.075
	c-0.16,0.01-0.319,0.085-0.478,0.224c-0.678,0.638-1.171,1.336-1.48,2.093c-0.309,0.758-0.449,1.496-0.419,2.213
	c0.03,0.718,0.224,1.371,0.583,1.959c0.359,0.588,0.857,1.032,1.496,1.331c0.678,0.299,1.38,0.453,2.108,0.464
	c0.727,0.01,1.361-0.095,1.899-0.314c0.558-0.179,1.121-0.543,1.689-1.092c0.568-0.548,1.092-1.156,1.57-1.824
	c0.478-0.668,0.902-1.335,1.271-2.003c0.369-0.668,0.643-1.201,0.823-1.6c0.139-0.279,0.189-0.498,0.15-0.658
	c-0.04-0.159-0.115-0.264-0.224-0.314c-0.11-0.05-0.244-0.04-0.404,0.03c-0.16,0.07-0.289,0.195-0.389,0.374
	C146.459,19.292,146.249,19.661,145.931,20.239z M143.717,16.605c-0.219-0.13-0.618-0.234-1.196-0.314
	c0.119,0,0.264,0.015,0.433,0.045c0.169,0.03,0.339,0.07,0.509,0.119c0.169,0.05,0.314,0.115,0.433,0.195
	c0.119,0.08,0.189,0.17,0.209,0.269C144.066,16.84,143.937,16.735,143.717,16.605z M143.329,16.695
	c-0.259-0.109-0.478-0.184-0.658-0.224c0.378,0.04,0.692,0.125,0.942,0.254c0.249,0.13,0.354,0.254,0.314,0.374
	C143.787,16.939,143.588,16.805,143.329,16.695z M143.523,17.263c-0.229-0.189-0.484-0.333-0.763-0.433
	c-0.28-0.099-0.549-0.169-0.807-0.209c-0.259-0.04-0.439-0.06-0.538-0.06c0.737-0.019,1.355,0.119,1.854,0.419
	c0.498,0.299,0.727,0.648,0.688,1.047C143.897,17.707,143.752,17.453,143.523,17.263z M142.91,21.824
	c-0.04-0.219-0.095-0.433-0.164-0.643c-0.07-0.209-0.15-0.399-0.239-0.568c-0.09-0.169-0.195-0.294-0.314-0.374
	c0.119,0.06,0.229,0.164,0.329,0.314c0.099,0.15,0.184,0.329,0.254,0.538c0.07,0.209,0.124,0.429,0.164,0.658
	c0.04,0.229,0.05,0.444,0.03,0.643C142.97,22.233,142.95,22.044,142.91,21.824z M141.235,19.581
	c0.279,0.259,0.538,0.588,0.778,0.987c0.239,0.399,0.413,0.847,0.523,1.346c0.109,0.498,0.075,1.027-0.105,1.585
	c0.139-0.678,0.13-1.286-0.03-1.824c-0.16-0.538-0.369-0.997-0.628-1.375c-0.259-0.378-0.519-0.668-0.778-0.867
	c-0.259-0.199-0.409-0.309-0.449-0.329C140.727,19.162,140.955,19.322,141.235,19.581z M142.91,24.291
	c0.099-0.229,0.169-0.478,0.209-0.747c0.04-0.269,0.055-0.533,0.045-0.792c-0.01-0.259-0.026-0.489-0.045-0.688
	c0.019,0.1,0.04,0.28,0.06,0.538c0.019,0.259,0.015,0.538-0.015,0.837c-0.03,0.299-0.095,0.583-0.195,0.852
	s-0.259,0.444-0.478,0.523C142.67,24.695,142.81,24.521,142.91,24.291z"/>
<path class="st0" d="M260.341,18.29c0.556-0.035,1.146-0.07,1.702-0.174c1.667-0.313,3.335-1.042,4.828-1.841
	c2.293-1.216,6.739-4.064,6.739-6.982c0-0.208-0.035-0.451-0.07-0.66c-0.903-4.794-5.419-6.044-9.692-6.044
	c-3.925,0-7.816,1.146-10.595,4.064c-0.764,0.799-1.32,1.806-1.32,2.918c0,0.868,0.313,1.702,0.729,2.431
	c0.729,1.285,1.91,1.841,3.369,1.841c0.243,0,0.451,0,0.695-0.07c-0.451-0.278-0.556-0.729-0.729-1.181
	c-0.868-0.174-1.737-0.451-2.467-1.008c-0.035-0.174-0.035-0.347-0.035-0.521c0-1.529,1.32-2.848,2.467-3.682
	c2.536-1.876,5.87-2.779,9.032-2.779c2.084,0,4.62,0.451,6.287,1.737c0.521,0.417,0.903,0.903,0.903,1.598
	c0,0.278-0.07,0.591-0.174,0.868c-0.382,0.938-2.293,2.362-3.161,2.952c-2.084,1.459-4.342,2.675-6.739,3.543
	c-0.347,0.139-0.556,0.208-0.938,0.208H261c0.382-1.181,1.667-6.079,1.667-7.121c0-0.972-0.66-2.084-1.459-2.605
	c-0.313,0-0.695-0.07-0.834,0.313c0.07,0.139,0.174,0.243,0.278,0.347l-0.139,0.208c0.07,0.07,0.104,0.139,0.104,0.243
	c0,0.139-0.104,0.278-0.174,0.417c-0.938,1.945-1.459,4.203-1.945,6.322c-0.903,3.925-1.529,7.92-1.529,11.95
	c0,1.841,0.66,3.752,2.605,4.307c-0.07-1.042-0.243-2.119-0.243-3.161C259.333,23.917,259.75,21.035,260.341,18.29z M270.31,12.941
	c0.104-0.104,0.243-0.174,0.382-0.243c-0.07,0.07-0.139,0.139-0.243,0.174c-1.945,1.667-3.752,2.744-6.079,3.752
	c-0.451,0.208-0.938,0.313-1.424,0.487c0.313-0.313,1.459-0.695,1.91-0.903C266.767,15.372,268.642,14.191,270.31,12.941z
	 M259.368,4.812c-0.208,0.139-0.417,0.243-0.625,0.347c-1.251,0.591-2.431,1.181-3.543,1.98c-0.07,0.07-0.139,0.104-0.243,0.139
	c0.487-0.382,0.903-0.799,1.389-1.146c0.868-0.591,1.91-0.938,2.883-1.32L259.368,4.812L259.368,4.812z M263.814,15.338
	c0.625-0.208,1.251-0.521,1.806-0.868c0.487-0.313,1.077-0.66,1.598-0.868c-0.799,0.591-1.702,1.008-2.571,1.459
	c-0.174,0-0.764,0.278-0.972,0.417L263.814,15.338z M266.836,14.608c0.313-0.139,0.556-0.382,0.868-0.521
	c-0.417,0.417-2.258,1.32-2.848,1.529L266.836,14.608z M255.582,5.542c0-0.035-0.034-0.104-0.034-0.104
	c0-0.139,0.104-0.139,0.208-0.139L255.582,5.542z M260.063,4.638l0.139-0.104v0.104H260.063z M257.597,4.882l0.104,0.07
	l-0.104,0.035V4.882z M262.564,17.179l-0.139,0.07v-0.07H262.564z M263.016,15.65c0.07,0,0.07,0,0.07,0.07L263.016,15.65z
	 M262.112,17.318v-0.035c0.034,0,0.034,0,0.07,0.035H262.112z M258.673,3.909c0.034-0.035,0.034-0.035,0.07-0.035v0.035H258.673z
	 M259.021,3.84c-0.035,0-0.035,0-0.035-0.035h0.035V3.84z M257.631,5.924v0.07h-0.034L257.631,5.924z M267.601,15.442h-0.034
	l0.034-0.07V15.442z M262.876,15.754c0,0.035-0.035,0.035-0.07,0.035l0.035-0.035H262.876z M268.018,15.164l-0.034,0.035v-0.035
	H268.018z M266.038,16.275v0.035l-0.035-0.035H266.038z M268.261,14.99h-0.034l0.034-0.035V14.99z M257.11,5.229
	c0.035-0.035,0.035-0.035,0.07-0.035C257.145,5.195,257.145,5.229,257.11,5.229z"/>
<path class="st0" d="M267.218,18.013c-1.667,0-3.126,3.856-3.126,5.28v0.417c0,2.154,1.598,3.96,3.786,3.96
	c0.243,0,0.487-0.035,0.729-0.07c0.834-0.139,1.389-0.591,1.98-1.146c1.98-1.841,4.203-5.106,4.203-7.92
	c0-1.493-1.772-3.335-3.265-3.335c-1.529,0-2.848,2.014-3.682,3.092L267.218,18.013z M266.593,26.037
	c-0.139-0.487-0.174-0.972-0.174-1.459c0-1.389,0.487-2.709,1.008-3.994c0.521,0.66,0.972,1.424,1.945,1.424
	c0.139,0,0.278-0.104,0.347-0.208c-0.278-0.208-0.487-0.487-0.487-0.834c0-1.112,2.397-3.994,3.543-3.994
	c0.07,0.139,0.104,0.313,0.104,0.451c0,0.243-0.07,0.451-0.104,0.695C272.22,21.208,269.754,25.168,266.593,26.037z M273.192,21.66
	c0.034,1.077-1.876,3.022-2.571,3.821c0.034-0.139,0.139-0.243,0.208-0.347C271.699,24.022,272.533,22.91,273.192,21.66z
	 M268.99,19.68c0.174-0.903,1.285-2.084,2.014-2.605c0.035,0,0.035-0.035,0.07-0.035h0.034v0.035
	C270.31,17.873,269.685,18.776,268.99,19.68z M267.392,19.332c-0.034,0.243-0.729,1.32-0.903,1.563
	c0.208-0.591,0.487-1.181,0.938-1.633L267.392,19.332z M268.642,18.117c0.451-0.66,0.972-1.251,1.598-1.772h0.07
	c-0.313,0.278-1.459,1.424-1.563,1.702L268.642,18.117z M270.691,23.744c0-0.139,0.591-0.834,0.764-1.077
	C271.248,23.084,271.004,23.466,270.691,23.744z M271.212,23.952v-0.035l0.799-1.077c-0.208,0.382-0.521,0.729-0.764,1.112
	L271.212,23.952L271.212,23.952z M266.037,19.436c0.139-0.243,0.278-0.487,0.556-0.625L266.037,19.436z M269.198,18.325
	c0-0.139,0.451-0.591,0.591-0.729C269.615,17.839,269.372,18.047,269.198,18.325z M266.94,19.089
	c-0.035,0.174-0.174,0.382-0.313,0.487L266.94,19.089z M266.35,21.382c-0.034,0.035-0.034,0.07-0.07,0.07v-0.07H266.35z
	 M272.012,22.841c0-0.035,0-0.07,0.034-0.104L272.012,22.841z M272.602,23.57v0.035h-0.034L272.602,23.57z M270.865,24.369
	c-0.034,0-0.034,0-0.034-0.035L270.865,24.369z"/>
<path class="st0" d="M279.115,16.432c0.562,0.236,1.438,0.531,1.438,1.24c0,0.443-0.344,1.388-0.531,1.83
	c-0.75,1.89-2.064,5.108-2.064,7.086c0,1.624,0.813,3.691,2.845,3.691c0.469,0,1.406-0.177,1.406-0.738
	c0-0.118-0.031-0.236-0.094-0.354h-0.25l-0.156,0.177l-0.031-0.03l0.031-0.236l-0.875-0.206c-0.156-0.354-0.219-0.767-0.219-1.151
	c0-1.624,1.001-4.075,1.563-5.639c0.313-0.885,0.907-2.362,0.907-3.248c0-0.649-0.25-1.151-0.75-1.594
	c-0.907-0.797-2.063-1.388-3.126-1.978c-0.031-0.649-0.125-1.299-0.188-1.949c-0.125-1.033-0.75-1.949-1.782-2.362
	c-0.25-0.118-0.5-0.177-0.781-0.177c-0.907,0-1.657,0.974-1.657,1.772c0,1.565,1.657,2.421,2.845,3.188
	c-0.531,2.746-1.563,5.255-3.126,7.618c-0.406,0.591-0.813,1.122-1.344,1.624l-0.063,0.088l1.094,0.354
	c0.562-0.295,0.969-0.767,1.344-1.24C277.333,21.864,278.74,19.325,279.115,16.432z M279.803,27.474
	c-0.031-0.177-0.031-0.354-0.031-0.531c0-0.62,0.125-1.21,0.313-1.801c0.656-2.008,1.344-4.045,2.095-6.023h0.063
	c-0.094,0.945-0.5,1.86-0.813,2.746c-0.531,1.447-1.094,2.894-1.406,4.37C279.927,26.647,279.896,27.061,279.803,27.474z
	 M277.645,14.572c-0.562-0.295-0.969-1.004-0.969-1.624c0-0.384,0.188-0.738,0.5-1.004c0.344,0.413,0.5,1.683,0.5,2.244
	C277.677,14.306,277.645,14.454,277.645,14.572z M281.397,19.709c-0.219,1.24-0.813,2.421-1.219,3.602
	c-0.313,0.885-0.531,1.801-0.813,2.687l-0.063,0.059c0.157-0.649,0.25-1.358,0.469-2.008l1.532-4.251L281.397,19.709z
	 M280.834,19.295c-0.469,1.594-1.063,3.13-1.594,4.694c-0.188,0.591-0.375,1.21-0.656,1.742l0.344-1.181l1.5-4.311
	C280.522,19.946,280.616,19.532,280.834,19.295z M278.489,17.318c-0.125,0.945-1.094,3.691-1.751,4.37
	c0.656-1.388,1.188-2.775,1.657-4.222C278.427,17.406,278.427,17.347,278.489,17.318z M277.208,18.794l0.063-0.03
	c-0.063,0.295-0.188,0.561-0.344,0.856L277.208,18.794z M276.239,12.476c-0.031-0.059-0.031-0.088-0.031-0.148
	c0-0.148,0.094-0.266,0.188-0.354C276.333,12.151,276.302,12.328,276.239,12.476z M276.051,21.451
	c-0.031,0.177-0.094,0.384-0.25,0.472L276.051,21.451z M277.27,18.705c-0.031-0.118,0-0.266,0.094-0.384L277.27,18.705z
	 M275.582,11.678c-0.063,0.088-0.094,0.206-0.125,0.325l-0.063-0.059L275.582,11.678z M279.24,26.293c0-0.059,0-0.088,0.031-0.148
	c0,0.059,0.031,0.088,0.031,0.148H279.24z M278.552,17.111h-0.031v-0.118h0.031V17.111z M280.896,19.119c0,0.03,0,0.088-0.031,0.118
	v-0.118H280.896z M280.709,25.171h-0.031v-0.089h0.031V25.171z M280.616,25.349h0.031v0.088h-0.031V25.349z M280.959,24.226
	c0.031,0.03,0.031,0.059,0.031,0.088l-0.063-0.03L280.959,24.226z M281.053,24.108h-0.031v-0.089h0.031V24.108z M281.397,19.65
	v-0.089h0.063L281.397,19.65z M278.615,16.756h-0.031v-0.088h0.031V16.756z M277.52,17.937c0,0.03-0.031,0.088-0.063,0.118
	c0.031-0.03,0.031-0.088,0.031-0.118H277.52z M280.428,26.146h-0.031v-0.059h0.031V26.146z M281.928,21.658h-0.031v-0.059h0.031
	V21.658z M281.553,22.485h0.031v0.059h-0.031V22.485z M277.645,17.465h0.031l-0.094,0.118L277.645,17.465z M280.834,24.758h-0.031
	c0-0.03,0-0.059,0.031-0.059V24.758z M281.491,22.691h0.031c0,0.03,0,0.059-0.031,0.059V22.691z M277.708,17.259v-0.088l0.031,0.059
	L277.708,17.259z M280.365,26.44c-0.031-0.03-0.031-0.03-0.031-0.059h0.031V26.44z M281.96,21.422h0.031v0.03h-0.031V21.422z
	 M281.241,23.488c-0.031,0-0.031,0-0.031-0.03h0.031V23.488z M280.428,23.37v0.03l-0.031-0.03H280.428z M280.272,23.754h0.031
	l-0.031,0.03V23.754z M281.272,23.311c0-0.03,0-0.03,0.031-0.03L281.272,23.311z M275.582,23.488h-0.031l0.031-0.03V23.488z
	 M280.365,23.547v0.03l-0.031-0.03H280.365z M282.429,20.064l0.031-0.03v0.03H282.429z M280.896,24.522h-0.031l0.031-0.03V24.522z
	 M282.054,21.215v0.03l-0.031-0.03H282.054z M281.429,22.898h0.031l-0.031,0.03V22.898z M281.303,20.949h-0.031l0.031-0.03V20.949z
	 M277.458,18.085c0,0.03,0,0.059-0.031,0.088L277.458,18.085z M280.834,22.219h-0.031l0.031-0.03V22.219z M279.927,24.846
	l0.031-0.03v0.03H279.927z"/>
<path class="st0" d="M292.85,11.427c-0.384-0.472-0.531-0.584-1.151-0.584c-0.531,0-1.033,0-1.536,0.111
	c-0.206,0.055-0.443,0.028-0.649,0.055c0,0,1.063-2.862,1.063-2.973c0-0.25-0.295-0.389-0.473-0.528l-0.236,0.056V7.286
	l-0.325-0.111l-0.236,0.195l0.148-0.389l-0.236,0.028l-0.118-0.167c-0.148,0.167-0.266,0.333-0.443,0.5l0.206-0.444L288.51,6.73
	c-0.266,0-0.384,0.167-0.502,0.361c-0.413,0.667-0.885,1.362-1.21,2.084c-0.413,0.945-1.004,1.778-1.654,2.584
	c-0.649,0.139-1.328,0.195-1.978,0.361c-0.295,0.084-0.354,0.167-0.413,0.444l0.266,0.139l-0.03,0.167
	c0.206,0.25,0.591,0.528,0.885,0.611l-0.03,0.028c0.295,0,0.62-0.028,0.915-0.028c0.088,0,0.354,0,0.354,0.139
	c0,0.195-0.088,0.361-0.118,0.556c-0.118,0.778-0.325,1.556-0.473,2.334c-0.148,0.667-0.206,1.362-0.325,2.028
	c-0.472,2.89-0.885,5.863-0.885,8.781c0,0.972,0,2.862,1.092,3.39c0.354,0.167,0.738,0.25,1.092,0.417l0.177-0.25
	c0.03,0.056,0.059,0.139,0.148,0.139c0.206,0,0.591-0.084,0.591-0.333c0-0.084,0-0.139-0.03-0.222
	c-0.177-0.695-0.295-1.445-0.295-2.168c0-1.806,0.236-3.64,0.531-5.418c0.591-3.362,1.21-6.725,2.273-9.976
	c1.063-0.167,3.691-0.389,4.37-1.167C293.087,11.704,292.85,11.649,292.85,11.427z M285.263,28.627
	c-0.059-0.417-0.059-0.861-0.059-1.278c0-2.418,0.413-4.863,0.797-7.253c0.413-2.334,0.856-4.724,1.594-7.002l0.266-0.028
	C286.444,18.151,285.499,23.375,285.263,28.627z M286.916,13.177c-0.354,1.611-0.738,3.195-1.063,4.807
	c-0.325,1.584-0.561,3.195-0.827,4.807v-0.139C285.026,21.514,286.384,13.816,286.916,13.177z M284.702,20.263v-0.139
	c0-0.889,0.974-6.169,1.388-6.78C285.469,15.623,285.115,17.957,284.702,20.263z M288.569,11.01
	c-0.03,0.111-0.088,0.222-0.236,0.222h-0.059c0-0.222,0.679-1.806,0.827-2.056c0.088-0.111,0.206-0.222,0.295-0.361
	C289.101,9.565,288.865,10.287,288.569,11.01z M284.348,22.792h-0.059l0.295-2.306l0.088,0.028
	C284.554,21.263,284.436,22.042,284.348,22.792z M287.832,10.537c-0.059,0.278-0.088,0.584-0.325,0.806
	C287.566,11.065,287.595,10.759,287.832,10.537z M287.802,14.872c0-0.167,0-0.333,0.148-0.444
	C287.92,14.567,287.861,14.733,287.802,14.872z M287.979,14.4c-0.03-0.056-0.03-0.111-0.03-0.167c0-0.111,0.059-0.222,0.148-0.306
	C288.038,14.094,288.008,14.233,287.979,14.4z M284.968,23.514h-0.059c0-0.139,0.03-0.25,0.03-0.389h0.03V23.514z M284.85,24.32
	h-0.03l0.03-0.528h0.03L284.85,24.32z M287.536,16.151l-0.088,0.278c0-0.056-0.03-0.084-0.03-0.139
	C287.418,16.206,287.477,16.178,287.536,16.151z M287.359,16.706c0-0.056-0.03-0.084-0.03-0.139c0-0.055,0.059-0.111,0.118-0.111
	L287.359,16.706z M288.215,13.316l0.118-0.306v0.111C288.333,13.205,288.304,13.288,288.215,13.316z M284.141,24.792h-0.03v-0.361
	h0.03V24.792z M284.259,23.597h-0.03v-0.333h0.03V23.597z M286.562,20.457V20.29h0.059v0.167H286.562z M287.507,15.872h0.059
	c0,0.084-0.03,0.167-0.03,0.25C287.507,16.039,287.507,15.956,287.507,15.872z M286.887,18.79v-0.167h0.03
	c0.03,0.056,0.03,0.111,0.03,0.167H286.887z M286.798,19.207l0.03-0.195h0.03v0.195H286.798z M287.034,18.012l0.03-0.167h0.03v0.195
	C287.063,18.04,287.063,18.04,287.034,18.012z M284.732,25.598V25.32h0.03v0.278H284.732z M288.186,13.511v0.111l-0.088,0.195
	C288.126,13.705,288.126,13.622,288.186,13.511z M286.65,20.013v-0.139h0.03c0.03,0.056,0.03,0.084,0.03,0.139H286.65z
	 M285.765,11.51l-0.118,0.167v-0.056C285.647,11.565,285.705,11.51,285.765,11.51z M286.503,20.93v-0.222h0.03v0.222H286.503z
	 M287.005,18.429h-0.03v-0.222h0.03V18.429z M288.599,7.48l-0.148,0.25c0.03-0.111,0.088-0.195,0.148-0.306V7.48z M287.152,17.678
	h-0.03v-0.195h0.03V17.678z M286.355,21.93h-0.03v-0.195h0.03V21.93z M287.063,13.899l0.059,0.028l-0.059,0.139V13.899z
	 M287.211,17.289v-0.167h0.03v0.167H287.211z M287.566,15.705c0-0.056,0.03-0.084,0.059-0.139v0.139H287.566z M287.329,16.956
	l-0.059-0.028l0.059-0.139V16.956z M287.802,14.9l-0.059,0.222c0-0.084,0.03-0.139,0.03-0.222l0.03-0.028V14.9z M285.883,25.07
	c0-0.055,0-0.111,0.03-0.139v0.139H285.883z M286.739,19.54v-0.111h0.03v0.111H286.739z M286.266,22.402
	c-0.03-0.028-0.03-0.084-0.03-0.111h0.03c0,0.028,0,0.084,0.03,0.111H286.266z M286.444,21.374h-0.03v-0.111h0.03V21.374z
	 M286.119,23.514h-0.03v-0.111h0.03V23.514z M286.591,15.984l-0.03,0.139h-0.03c0.03-0.056,0.03-0.084,0.03-0.139H286.591z
	 M286.503,16.344v0.084h-0.03v-0.084H286.503z M286.887,14.817h-0.059l0.059-0.084V14.817z M288.422,9.009h0.088l-0.088,0.055V9.009
	z M285.824,25.903h-0.03V25.82h0.03V25.903z M286.001,24.153V24.07h0.03v0.084H286.001z M287.005,14.4l-0.059,0.111l-0.03-0.028
	L287.005,14.4z M286.739,15.344v0.084h-0.03v-0.084H286.739z M288.393,7.842c0-0.028,0.03-0.084,0.059-0.111
	C288.451,7.759,288.422,7.814,288.393,7.842z M286.178,22.93v-0.111h0.03L286.178,22.93z M284.76,24.848h0.03v0.055h-0.03V24.848z
	 M288.038,8.37l0.059-0.139C288.097,8.286,288.068,8.342,288.038,8.37z M287.654,15.456l-0.03,0.028c0-0.028,0-0.056,0.03-0.084
	V15.456z M287.182,13.649c0,0.028,0,0.028-0.03,0.055v-0.055H287.182z M288.097,8.231l0.059-0.111
	C288.156,8.148,288.126,8.203,288.097,8.231z M286.65,15.705v0.056h-0.03L286.65,15.705z M286.887,11.037l-0.03,0.028
	C286.857,11.037,286.857,11.037,286.887,11.037z M287.743,15.122l-0.03,0.084C287.714,15.177,287.714,15.15,287.743,15.122z
	 M287.979,14.4v0.028h-0.03L287.979,14.4z M287.832,10.537c0-0.028,0-0.028,0.03-0.056
	C287.861,10.509,287.832,10.509,287.832,10.537z M288.038,8.425c0,0.028,0,0.028-0.03,0.055
	C288.008,8.453,288.038,8.453,288.038,8.425z"/>
<path class="st0" d="M297.88,22.861V22.83c-0.034,0.095-0.067,0.189-0.134,0.284l-0.101,0.063h0.034
	c-0.067,0.126-0.168,0.252-0.201,0.41l-0.034-0.126l-0.201,0.346h0.034l-0.067,0.126h0.034c-0.101,0.157-0.235,0.315-0.302,0.473
	c-0.101,0.252-0.369,0.441-0.435,0.694l-0.067,0.126l-0.101,0.063l-0.067,0.126v-0.126c-0.235,0.157-0.268,0.315-0.369,0.567h0.067
	l0.034-0.032v0.032h-0.034c-0.101,0.157-0.268,0.346-0.302,0.504l-0.034-0.126l-0.235,0.157l0.302-0.536l-1.072,1.166
	c0.603-1.166,1.708-2.206,2.411-3.342l-0.168,0.157c-0.168,0.157-0.302,0.41-0.435,0.567c-0.536,0.631-1.072,1.324-1.675,1.892
	c0,0.032,0,0.032-0.034,0.032v-0.032h0.034c0.302-0.662,0.904-1.166,1.34-1.765h-0.067c-0.335,0.346-0.67,0.788-1.106,1.04
	c0-1.009,1.473-4.917,1.909-6.052c0.067-0.189,0.168-0.41,0.168-0.631c0-0.157-0.134-0.252-0.302-0.284
	c-0.369,0.662-0.636,1.387-0.971,2.081c0,0.063-0.067,0.095-0.101,0.126c0,0.032,0,0.032-0.034,0.032l0.034-0.032
	c0.302-0.756,0.603-1.513,0.871-2.301l-0.168-0.063v0.032l-0.134,0.063l0.034-0.221c-0.034-0.032-0.101-0.095-0.168-0.095
	c-0.101,0-0.168,0.063-0.201,0.126l-0.101,0.063l-0.034,0.157l-0.101,0.032c0.134-0.126,0.067-0.095,0.134-0.221l0.101-0.032
	l-0.034-0.315c-0.77,0.284-0.871,0.945-1.473,1.45l-3.215,2.711l-0.536,0.378l-0.067-0.063c0.972-2.049,2.177-4.602,4.589-5.39
	l0.971,0.252c0.034-0.063,0.067-0.126,0.067-0.189c0-0.095-0.067-0.189-0.134-0.252c-0.603-0.536-1.306-0.977-2.144-0.977
	c-0.837,0-1.675,0.441-2.344,0.883c-1.608,1.072-3.718,4.444-3.718,6.304c0,0.883,1.239,1.607,2.077,1.607
	c1.173,0,2.144-1.324,2.847-2.017l1.139-1.104c-0.369,1.671-0.77,3.342-0.77,5.043c0,0.883,0.536,0.945,1.273,1.198
	c1.473-1.104,3.115-3.909,3.852-5.548C298.115,22.515,297.981,22.672,297.88,22.861z M295.971,18.858c0,0.063,0,0.095-0.034,0.157
	C295.937,18.952,295.937,18.921,295.971,18.858z M295.937,19.047l-0.134,0.252c0-0.032-0.034-0.095-0.034-0.095
	C295.77,19.111,295.836,19.079,295.937,19.047z M295.301,21.853c0-0.032,0-0.063,0.034-0.095L295.301,21.853z M295.435,21.538
	l-0.034,0.063c0-0.063,0-0.126,0.034-0.157V21.538z M295.502,18.795l-0.268,0.473C295.267,19.111,295.401,18.89,295.502,18.795z
	 M295.267,22.01c-0.034,0.221-0.067,0.441-0.235,0.63C295.1,22.42,295.167,22.231,295.267,22.01z M294.999,22.672h0.034
	l-0.067,0.126L294.999,22.672z M294.965,22.924v0.157h-0.034C294.932,23.019,294.932,22.988,294.965,22.924z M294.798,23.587v0.095
	l-0.034-0.063L294.798,23.587z M294.631,24.185h0.034v0.063h-0.034V24.185z M291.315,18.606v0.032h-0.034
	C291.282,18.606,291.282,18.606,291.315,18.606z M291.181,18.827v0.032h-0.067C291.148,18.858,291.148,18.858,291.181,18.827z
	 M291.014,18.039h0.034l-0.101,0.063L291.014,18.039z M288.936,21.411h-0.034c0-0.032,0.034-0.063,0.034-0.095V21.411z
	 M289.037,21.065l-0.067,0.157C288.97,21.16,289.003,21.096,289.037,21.065c0.235-0.599,1.273-2.301,1.742-2.743l0.067-0.126
	c0,0.157-0.302,0.504-0.402,0.631c-0.469,0.662-0.871,1.418-1.306,2.112C289.138,21.001,289.071,21.033,289.037,21.065z
	 M290.779,19.3v0.063c-0.369,0.567-0.77,1.104-1.106,1.702C289.975,20.402,290.344,19.867,290.779,19.3z M289.439,21.569
	c0.067-0.063,0.067-0.189,0.134-0.221l-0.101,0.221H289.439z M289.54,23.177h-0.034c0-0.032,0-0.095,0.034-0.126V23.177z
	 M289.674,22.767c-0.034,0.095-0.067,0.157-0.134,0.221c0.101-0.346,0.168-0.725,0.302-1.072c0.335-0.914,1.608-3.153,2.478-3.656
	C291.181,19.552,290.31,21.191,289.674,22.767z M294.698,27.275c0-0.032,0.034-0.063,0.067-0.063L294.698,27.275z M294.798,27.18
	l0.235-0.284C295.033,27.054,294.899,27.086,294.798,27.18z M295.033,27.022c0.034,0,0.034-0.032,0.067-0.032
	C295.1,27.022,295.066,27.022,295.033,27.022z M295.066,26.865l0.201-0.284c0,0.063-0.034,0.126-0.034,0.189L295.066,26.865z
	 M295.267,26.739l0.034-0.032C295.301,26.739,295.301,26.739,295.267,26.739z M295.435,26.708h-0.067
	c0.034,0,0.034-0.032,0.067-0.032V26.708z M295.569,26.455h-0.034l0.101-0.063h0.034L295.569,26.455z M296.239,25.572
	c0-0.032,0-0.095,0.034-0.126C296.272,25.478,296.272,25.541,296.239,25.572z"/>
<path class="st0" d="M301.992,4.591c0.118,0.167,0.206,0.361,0.206,0.556c0,0.556-2.037,5.391-2.391,6.419
	c-1.151,3.418-3.1,9.948-3.1,13.393c0,0.834,0.059,1.751,0.591,2.445c0.443,0.584,1.092,1.112,1.89,1.112
	c0.088,0,0.177-0.028,0.266-0.028c-0.03-0.333-0.177-0.695-0.266-1.028c-0.148-0.528-0.266-1.028-0.266-1.556
	c0-1.834,0.413-3.723,0.945-5.502l1.594-5.363c0.236-0.75,0.531-1.5,0.767-2.251C302.642,11.482,304,7.62,304,6.48
	c0-0.778-0.945-2.057-1.801-2.057C302.11,4.424,302.021,4.507,301.992,4.591z M298.331,24.181c0.206-2.001,0.679-3.974,1.27-5.891
	c0.325-1.056,1.83-6.28,2.215-6.836c-0.473,1.89-1.181,3.723-1.742,5.585c-0.384,1.334-0.709,2.667-1.063,4.001
	c-0.236,0.861-0.384,1.695-0.531,2.556C298.449,23.792,298.39,23.986,298.331,24.181z M301.903,11.148
	c0-0.139,0.03-0.222,0.148-0.306L301.903,11.148z M302.051,10.843c0-0.084,0-0.195,0.03-0.278l0.059,0.028L302.051,10.843z
	 M302.258,10.12v-0.028l0.03,0.028H302.258z"/>
<path class="st0" d="M161.779,22.246v0.068c-0.406,0.914-1.049,2.334-1.049,3.349c0,0.169,0.304,0.372,0.44,0.44l0.203-0.304
	l0.034,0.507l0.304-0.068l0.101,0.169l0.237-0.575h0.068c-0.068,0.169-0.068,0.372-0.068,0.575l0.237-0.101l0.101,0.237
	c0.068-0.203,0.135-0.406,0.271-0.575l0.034,0.406c0.643-0.169,0.643-0.101,0.981-0.71c0.541-0.948,1.015-1.962,1.489-2.943
	c0.237-0.507,0.44-1.049,0.744-1.522c0.846-0.135,1.692-0.271,2.538-0.271c0.338,0,0.71,0.034,1.049,0.068
	c-0.237,1.015-0.169,2.063-0.237,3.079c-0.034,0.609-0.101,1.218-0.101,1.827c0,1.59,0.068,3.518,1.387,4.635
	c0.406,0.372,0.643,0.44,1.184,0.44h0.135l0.169-0.135c0.068,0.034,0.135,0.101,0.237,0.101l0.101-0.101l0.203,0.237l0.101-0.237
	c-0.169-1.489-0.372-2.943-0.372-4.432c0-1.59,0.237-3.146,0.372-4.736c0.304-3.417,1.015-6.8,1.658-10.184
	c0.271-1.387,0.507-2.774,0.846-4.128c0.304-1.32,0.846-2.673,0.846-4.026c0-0.169-0.135-0.304-0.304-0.338l-0.101,0.203
	l-0.203-0.372c-0.135,0.101-0.135,0.237-0.169,0.372c-1.861,8.322-3.789,16.679-3.789,25.238c-0.135-0.406-0.203-1.793-0.203-2.3
	c0-0.271,0-0.507,0.034-0.778c0.203-2.165,0.338-4.331,0.643-6.496c0.44-3.146,0.914-6.259,1.624-9.337
	c0.271-1.218,0.541-2.47,0.846-3.687c0.135-0.575,0.372-1.15,0.44-1.725l0.169-1.353l-0.068-0.101
	c-0.034,0.101-0.101,0.169-0.169,0.237l-0.101-0.169c-0.101,0-0.169,0.034-0.237,0.101l-0.068-0.237
	c-0.812,0-1.658-0.034-2.266,0.609c-1.083,1.184-1.861,2.808-2.605,4.195l-3.011,5.582c-0.473,0.88-0.948,1.725-1.387,2.639
	c-0.473,1.049-1.083,2.03-1.522,3.079c-1.049,0.237-3.789,0.846-4.533,1.455c-0.203,0.169-0.271,0.237-0.271,0.507
	c0,0.135,0.034,0.237,0.135,0.338l-0.101,0.203c0.034,0.169,0.101,0.44,0.338,0.473l-0.101,0.203l0.271,0.034l-0.169,0.237v0.068
	l0.812-0.304l-0.507,0.575l0.338,0.068l-0.034,0.169c0.068,0.068,0.169,0.135,0.271,0.135c0.203,0,1.421-0.44,1.692-0.541
	L161.779,22.246z M170.982,10.641c-0.304,1.759-0.575,3.518-0.812,5.277c-0.135,0.914-0.304,1.827-0.406,2.741
	c-0.71-0.44-1.59-0.473-2.402-0.473C167.43,17.442,170.407,11.724,170.982,10.641z M172.504,7.732
	c-0.812,3.857-1.455,7.747-1.962,11.638h-0.135v-0.101c0-1.489,0.372-3.045,0.643-4.5l1.049-5.853
	c0.068-0.406,0.203-0.778,0.271-1.184L172.504,7.732L172.504,7.732z M171.049,20.622c0-0.372,0-0.71,0.068-1.049l0.981-6.36
	c0.203-1.421,0.609-2.808,0.846-4.229c0.135-0.744,0.169-1.522,0.44-2.233c0.034-0.101,0.101-0.203,0.169-0.304
	c-0.237,0.846-0.44,1.692-0.575,2.571c-0.169,1.083-0.44,2.165-0.609,3.248l-0.372,2.402c-0.304,1.996-0.507,3.992-0.88,5.954
	L171.049,20.622L171.049,20.622z M171.049,21.197c-0.169,1.692-0.304,3.349-0.406,5.041c-0.034-0.203-0.034-0.406-0.034-0.609
	C170.61,24.85,170.745,21.772,171.049,21.197z M162.355,21.163c-0.338,0.203-1.759,0.71-2.097,0.71h-0.237
	c0.406-0.237,1.827-0.778,2.266-0.778L162.355,21.163z M169.933,25.866c0-1.59,0.068-3.18,0.304-4.77h0.034L169.933,25.866z
	 M159.547,20.622c0.575-0.304,1.218-0.44,1.827-0.609C161.069,20.182,159.885,20.622,159.547,20.622z M159.919,21.163
	c0.304-0.135,0.609-0.237,0.914-0.304c-0.034,0.068-0.135,0.135-0.237,0.135c-0.203,0.101-0.406,0.203-0.609,0.271
	C159.987,21.197,159.987,21.197,159.919,21.163z M171.929,25.595h-0.068v-0.609h0.068V25.595z M172.031,22.449h0.068v0.372h-0.068
	V22.449z M172.2,21.197h0.068v0.338H172.2V21.197z M172.91,16.968h-0.068v-0.237h0.068V16.968z M172.267,20.69h0.068v0.237h-0.068
	V20.69z M171.387,20.69h0.068v0.237h-0.068V20.69z M172.031,23.193v0.406h-0.034v-0.406H172.031z M172.673,18.287h-0.068v-0.203
	h0.068V18.287z M171.997,24.005c0,0.101,0,0.169-0.068,0.237v-0.237H171.997z M173.215,14.938h-0.068v-0.169h0.068V14.938z
	 M172.369,20.418h-0.034v-0.304h0.034V20.418z M171.929,16.663h0.068v0.135h-0.068V16.663z M173.147,15.276h-0.068v-0.135h0.068
	V15.276z M173.553,13.044c-0.068-0.068-0.068-0.101-0.068-0.169h0.068V13.044z M171.659,18.524h0.034v0.237h-0.034V18.524z
	 M171.387,21.434h-0.068v-0.101h0.068V21.434z M172.606,12.705c0-0.034,0.034-0.101,0.068-0.135v0.135H172.606z M172.606,18.828
	h-0.034v-0.169h0.034V18.828z M173.79,11.42h0.034v0.169h-0.034V11.42z M174.06,10.472h-0.068v-0.068h0.068V10.472z M174.331,8.781
	h0.034v0.135h-0.034V8.781z M172.944,16.494h-0.034v-0.135h0.034V16.494z M171.625,19.066c0.034,0.068,0.034,0.101,0.034,0.169
	h-0.034V19.066z M161.475,25.426c-0.034,0.034-0.068,0.101-0.068,0.169l-0.034-0.068C161.407,25.46,161.407,25.46,161.475,25.426z
	 M173.486,13.382h-0.034V13.28h0.034V13.382z M173.621,12.569l-0.068-0.101h0.068V12.569z M172.741,17.746l-0.068-0.101h0.068
	V17.746z M173.384,13.754v-0.101h0.068L173.384,13.754z M172.775,17.306l0.068,0.101h-0.068V17.306z M173.722,11.825
	c0-0.034,0.034-0.068,0.068-0.068v0.068H173.722z M174.601,7.563h0.068l-0.068,0.068V7.563z M174.669,7.224l0.034,0.068
	l-0.034,0.068V7.224z M174.128,9.796h0.068v0.068L174.128,9.796z M173.824,5.262l-0.034-0.034l0.034-0.068V5.262z M173.249,14.532
	l-0.034-0.034l0.034-0.068V14.532z M160.934,20.859c0.034-0.034,0.034-0.034,0.068-0.034v0.034H160.934z M161.002,22.043
	l-0.068,0.034v-0.034H161.002z M172.031,16.359l-0.034-0.034h0.034V16.359z"/>
<path class="st0" d="M175.979,19.423c-0.091,0.03-0.167,0.076-0.228,0.137c0.04,0.041,0.121,0.071,0.243,0.091
	c0.121,0.021,0.172-0.02,0.152-0.121C176.125,19.429,176.07,19.393,175.979,19.423z M175.812,19.696c0-0.03-0.021-0.055-0.061-0.076
	c-0.041,0-0.061,0.015-0.061,0.046c0,0.03,0.02,0.056,0.061,0.076C175.791,19.742,175.812,19.727,175.812,19.696z M175.751,19.484
	c-0.021-0.01-0.041-0.005-0.061,0.015c-0.021,0.021-0.021,0.036,0,0.046c0.02,0.01,0.04,0.006,0.061-0.015
	C175.771,19.509,175.771,19.494,175.751,19.484z M182.125,20.046c-0.324,0.587-0.718,1.214-1.184,1.882
	c-0.041-0.647-0.263-1.305-0.668-1.973c-0.405-0.668-1.032-1.305-1.882-1.912c-0.041-0.04-0.162-0.126-0.364-0.258
	c-0.202-0.131-0.324-0.217-0.364-0.258c-0.243-0.161-0.39-0.313-0.44-0.455c-0.051-0.141-0.03-0.253,0.061-0.334
	c0.091-0.081,0.237-0.126,0.44-0.137c0.202-0.01,0.435,0.026,0.698,0.106c0.121,0.041,0.258,0.101,0.41,0.182
	c0.152,0.081,0.288,0.182,0.41,0.304s0.207,0.253,0.258,0.395c0.05,0.141,0.035,0.304-0.046,0.486
	c0.101-0.081,0.161-0.192,0.182-0.334c0.02-0.141-0.021-0.273-0.121-0.395c0.202,0.223,0.268,0.42,0.197,0.592
	c-0.071,0.172-0.268,0.268-0.592,0.288c0.364,0.141,0.708,0.197,1.032,0.167s0.612-0.116,0.865-0.258
	c0.253-0.141,0.455-0.329,0.607-0.562c0.152-0.233,0.248-0.491,0.288-0.774c0.04,0.223,0.04,0.445,0,0.668
	c0.182-0.567,0.228-1.042,0.137-1.427c-0.091-0.384-0.278-0.698-0.562-0.941c-0.284-0.243-0.643-0.425-1.077-0.547
	c-0.435-0.121-0.906-0.202-1.411-0.243c-1.052-0.081-1.948-0.01-2.686,0.213c-0.739,0.223-1.27,0.531-1.594,0.925
	c-0.324,0.395-0.425,0.861-0.304,1.396c0.121,0.536,0.516,1.088,1.184,1.654c0.081,0.041,0.187,0.117,0.319,0.228
	c0.131,0.111,0.237,0.187,0.319,0.228c0.708,0.466,1.224,0.982,1.548,1.548c0.324,0.567,0.506,1.113,0.547,1.639
	c0.04,0.627-0.03,1.138-0.213,1.533c-0.182,0.395-0.43,0.698-0.744,0.91c-0.314,0.213-0.658,0.334-1.032,0.364
	c-0.375,0.03-0.734-0.015-1.077-0.137c-0.344-0.121-0.648-0.313-0.91-0.577c-0.263-0.263-0.445-0.577-0.547-0.941
	c-0.101-0.384-0.106-0.759-0.015-1.123c0.091-0.364,0.228-0.698,0.41-1.001c0.182-0.304,0.4-0.577,0.653-0.82
	c0.253-0.243,0.491-0.445,0.714-0.607c-0.101,0.021-0.197,0.041-0.288,0.061c-0.091,0.021-0.187,0.071-0.288,0.152
	c0.101-0.141,0.217-0.258,0.349-0.349c0.131-0.091,0.268-0.157,0.41-0.197c-0.081-0.081-0.182-0.116-0.304-0.106
	c-0.121,0.01-0.213,0.036-0.273,0.076c0.081-0.081,0.192-0.137,0.334-0.167c0.141-0.03,0.263-0.005,0.364,0.076
	c-0.081-0.161-0.243-0.38-0.486-0.653c-0.243-0.273-0.425-0.45-0.547-0.531c-0.101-0.061-0.233-0.086-0.395-0.076
	c-0.162,0.01-0.324,0.086-0.486,0.228c-0.687,0.648-1.188,1.356-1.502,2.125c-0.313,0.769-0.455,1.518-0.425,2.246
	c0.03,0.729,0.228,1.391,0.592,1.988c0.364,0.597,0.87,1.047,1.518,1.351c0.687,0.304,1.401,0.46,2.14,0.471
	c0.738,0.01,1.381-0.097,1.928-0.319c0.567-0.182,1.138-0.551,1.715-1.108s1.108-1.173,1.594-1.852
	c0.486-0.678,0.915-1.355,1.29-2.034c0.374-0.678,0.653-1.219,0.835-1.624c0.141-0.283,0.192-0.506,0.152-0.668
	c-0.041-0.161-0.117-0.268-0.228-0.319c-0.111-0.05-0.248-0.04-0.41,0.03c-0.162,0.071-0.293,0.197-0.395,0.38
	C182.662,19.085,182.449,19.459,182.125,20.046z M179.879,16.358c-0.223-0.131-0.627-0.237-1.214-0.319
	c0.121,0,0.268,0.015,0.44,0.046c0.172,0.03,0.344,0.071,0.516,0.121c0.172,0.051,0.319,0.117,0.44,0.197
	c0.121,0.081,0.192,0.172,0.213,0.273C180.233,16.596,180.102,16.489,179.879,16.358z M179.485,16.449
	c-0.263-0.111-0.486-0.187-0.668-0.228c0.384,0.041,0.703,0.126,0.956,0.258c0.253,0.132,0.359,0.258,0.319,0.38
	C179.95,16.696,179.747,16.56,179.485,16.449z M179.682,17.026c-0.233-0.192-0.491-0.339-0.774-0.44
	c-0.284-0.101-0.557-0.172-0.82-0.213c-0.263-0.04-0.445-0.061-0.547-0.061c0.748-0.02,1.376,0.121,1.882,0.425
	c0.506,0.304,0.738,0.658,0.698,1.062C180.061,17.476,179.914,17.218,179.682,17.026z M179.06,21.654
	c-0.041-0.222-0.096-0.44-0.167-0.653c-0.071-0.213-0.152-0.404-0.243-0.577c-0.091-0.172-0.197-0.298-0.319-0.38
	c0.121,0.061,0.233,0.167,0.334,0.319c0.101,0.152,0.187,0.334,0.258,0.547c0.07,0.213,0.126,0.435,0.167,0.668
	c0.04,0.233,0.05,0.451,0.03,0.653C179.12,22.069,179.1,21.877,179.06,21.654z M177.36,19.378c0.283,0.263,0.547,0.597,0.79,1.001
	c0.243,0.405,0.42,0.861,0.531,1.366c0.111,0.506,0.076,1.043-0.106,1.609c0.141-0.687,0.131-1.305-0.03-1.852
	c-0.162-0.547-0.375-1.012-0.638-1.396s-0.527-0.678-0.79-0.88c-0.263-0.202-0.415-0.313-0.455-0.334
	C176.844,18.953,177.076,19.115,177.36,19.378z M179.06,24.158c0.101-0.233,0.172-0.486,0.213-0.759
	c0.04-0.273,0.055-0.541,0.046-0.805c-0.01-0.263-0.026-0.496-0.046-0.698c0.02,0.101,0.04,0.284,0.061,0.547
	c0.02,0.263,0.015,0.547-0.015,0.85c-0.03,0.304-0.096,0.592-0.197,0.865c-0.101,0.273-0.263,0.451-0.486,0.531
	C178.817,24.568,178.958,24.391,179.06,24.158z"/>
<path class="st0" d="M184.599,19.423c-0.091,0.03-0.167,0.076-0.228,0.137c0.04,0.041,0.121,0.071,0.243,0.091
	c0.121,0.021,0.172-0.02,0.152-0.121C184.746,19.429,184.69,19.393,184.599,19.423z M184.432,19.696c0-0.03-0.021-0.055-0.061-0.076
	c-0.041,0-0.061,0.015-0.061,0.046c0,0.03,0.02,0.056,0.061,0.076C184.412,19.742,184.432,19.727,184.432,19.696z M184.371,19.484
	c-0.021-0.01-0.041-0.005-0.061,0.015c-0.021,0.021-0.021,0.036,0,0.046c0.02,0.01,0.04,0.006,0.061-0.015
	C184.391,19.509,184.391,19.494,184.371,19.484z M190.746,20.046c-0.324,0.587-0.718,1.214-1.184,1.882
	c-0.041-0.647-0.263-1.305-0.668-1.973c-0.405-0.668-1.032-1.305-1.882-1.912c-0.041-0.04-0.162-0.126-0.364-0.258
	c-0.202-0.131-0.324-0.217-0.364-0.258c-0.243-0.161-0.39-0.313-0.44-0.455c-0.051-0.141-0.03-0.253,0.061-0.334
	c0.091-0.081,0.237-0.126,0.44-0.137c0.202-0.01,0.435,0.026,0.698,0.106c0.121,0.041,0.258,0.101,0.41,0.182
	c0.152,0.081,0.288,0.182,0.41,0.304s0.207,0.253,0.258,0.395c0.05,0.141,0.035,0.304-0.046,0.486
	c0.101-0.081,0.161-0.192,0.182-0.334c0.02-0.141-0.021-0.273-0.121-0.395c0.202,0.223,0.268,0.42,0.197,0.592
	c-0.071,0.172-0.268,0.268-0.592,0.288c0.364,0.141,0.708,0.197,1.032,0.167s0.612-0.116,0.865-0.258
	c0.253-0.141,0.455-0.329,0.607-0.562c0.152-0.233,0.248-0.491,0.288-0.774c0.04,0.223,0.04,0.445,0,0.668
	c0.182-0.567,0.228-1.042,0.137-1.427c-0.091-0.384-0.278-0.698-0.562-0.941c-0.284-0.243-0.643-0.425-1.077-0.547
	c-0.435-0.121-0.906-0.202-1.411-0.243c-1.052-0.081-1.948-0.01-2.686,0.213c-0.739,0.223-1.27,0.531-1.594,0.925
	c-0.324,0.395-0.425,0.861-0.304,1.396c0.121,0.536,0.516,1.088,1.184,1.654c0.081,0.041,0.187,0.117,0.319,0.228
	c0.131,0.111,0.237,0.187,0.319,0.228c0.708,0.466,1.224,0.982,1.548,1.548c0.324,0.567,0.506,1.113,0.547,1.639
	c0.04,0.627-0.03,1.138-0.213,1.533c-0.182,0.395-0.43,0.698-0.744,0.91c-0.314,0.213-0.658,0.334-1.032,0.364
	c-0.375,0.03-0.734-0.015-1.077-0.137c-0.344-0.121-0.648-0.313-0.91-0.577c-0.263-0.263-0.445-0.577-0.547-0.941
	c-0.101-0.384-0.106-0.759-0.015-1.123c0.091-0.364,0.228-0.698,0.41-1.001c0.182-0.304,0.4-0.577,0.653-0.82
	c0.253-0.243,0.491-0.445,0.714-0.607c-0.101,0.021-0.197,0.041-0.288,0.061c-0.091,0.021-0.187,0.071-0.288,0.152
	c0.101-0.141,0.217-0.258,0.349-0.349c0.131-0.091,0.268-0.157,0.41-0.197c-0.081-0.081-0.182-0.116-0.304-0.106
	c-0.121,0.01-0.213,0.036-0.273,0.076c0.081-0.081,0.192-0.137,0.334-0.167c0.141-0.03,0.263-0.005,0.364,0.076
	c-0.081-0.161-0.243-0.38-0.486-0.653c-0.243-0.273-0.425-0.45-0.547-0.531c-0.101-0.061-0.233-0.086-0.395-0.076
	c-0.162,0.01-0.324,0.086-0.486,0.228c-0.687,0.648-1.188,1.356-1.502,2.125c-0.313,0.769-0.455,1.518-0.425,2.246
	c0.03,0.729,0.228,1.391,0.592,1.988c0.364,0.597,0.87,1.047,1.518,1.351c0.687,0.304,1.401,0.46,2.14,0.471
	c0.738,0.01,1.381-0.097,1.928-0.319c0.567-0.182,1.138-0.551,1.715-1.108s1.108-1.173,1.594-1.852
	c0.486-0.678,0.915-1.355,1.29-2.034c0.374-0.678,0.653-1.219,0.835-1.624c0.141-0.283,0.192-0.506,0.152-0.668
	c-0.041-0.161-0.117-0.268-0.228-0.319c-0.111-0.05-0.248-0.04-0.41,0.03c-0.162,0.071-0.293,0.197-0.395,0.38
	C191.281,19.085,191.069,19.459,190.746,20.046z M188.499,16.358c-0.223-0.131-0.627-0.237-1.214-0.319
	c0.121,0,0.268,0.015,0.44,0.046c0.172,0.03,0.344,0.071,0.516,0.121c0.172,0.051,0.319,0.117,0.44,0.197
	c0.121,0.081,0.192,0.172,0.213,0.273C188.853,16.596,188.722,16.489,188.499,16.358z M188.105,16.449
	c-0.263-0.111-0.486-0.187-0.668-0.228c0.384,0.041,0.703,0.126,0.956,0.258c0.253,0.132,0.359,0.258,0.319,0.38
	C188.57,16.696,188.368,16.56,188.105,16.449z M188.302,17.026c-0.233-0.192-0.491-0.339-0.774-0.44
	c-0.284-0.101-0.557-0.172-0.82-0.213c-0.263-0.04-0.445-0.061-0.547-0.061c0.748-0.02,1.376,0.121,1.882,0.425
	c0.506,0.304,0.738,0.658,0.698,1.062C188.682,17.476,188.535,17.218,188.302,17.026z M187.679,21.654
	c-0.041-0.222-0.097-0.44-0.167-0.653c-0.071-0.213-0.152-0.404-0.243-0.577c-0.091-0.172-0.197-0.298-0.319-0.38
	c0.121,0.061,0.233,0.167,0.334,0.319c0.101,0.152,0.187,0.334,0.258,0.547c0.07,0.213,0.126,0.435,0.167,0.668
	c0.04,0.233,0.05,0.451,0.03,0.653C187.74,22.069,187.72,21.877,187.679,21.654z M185.98,19.378c0.283,0.263,0.547,0.597,0.79,1.001
	c0.243,0.405,0.42,0.861,0.531,1.366c0.111,0.506,0.076,1.043-0.106,1.609c0.141-0.687,0.131-1.305-0.03-1.852
	c-0.162-0.547-0.375-1.012-0.638-1.396s-0.527-0.678-0.79-0.88c-0.263-0.202-0.415-0.313-0.455-0.334
	C185.464,18.953,185.696,19.115,185.98,19.378z M187.679,24.158c0.101-0.233,0.172-0.486,0.213-0.759
	c0.04-0.273,0.055-0.541,0.046-0.805c-0.01-0.263-0.026-0.496-0.046-0.698c0.02,0.101,0.04,0.284,0.061,0.547
	c0.02,0.263,0.015,0.547-0.015,0.85c-0.03,0.304-0.097,0.592-0.197,0.865c-0.101,0.273-0.263,0.451-0.486,0.531
	C187.437,24.568,187.578,24.391,187.679,24.158z"/>
<path class="st0" d="M199.418,16.624c-0.507,0.473-0.745,1.184-1.083,1.759c-0.169,0.304-0.406,0.575-0.643,0.846
	c0.44-0.981,1.117-1.827,1.658-2.741l-0.237,0.271l0.169-0.304c-0.372,0.338-0.575,0.846-0.88,1.218
	c-0.541,0.71-1.15,1.387-1.658,2.131c-0.846,1.252-1.658,2.571-2.605,3.755c0-0.034-0.034-0.101-0.034-0.101
	c0-0.034,0.034-0.034,0.034-0.068l0.744-2.504c0.372-1.218,0.812-2.369,0.812-3.654c0-1.624-1.218-2.402-2.707-2.605
	c-0.101,0.034-0.304,0.101-0.304,0.237c0,0.169,0.101,0.338,0.101,0.507v0.135c-0.101,1.387-0.44,2.741-0.812,4.094
	c-0.473,1.725-0.914,3.654-0.914,5.481c0,1.015,0.71,1.556,1.692,1.556c0.271,0,0.473-0.034,0.676-0.237
	c0.778-0.846,1.861-2.334,2.538-3.315c0.541-0.778,1.015-1.624,1.522-2.436c0.88-1.421,1.928-2.876,2.538-4.432l-0.068-0.034
	l-0.135,0.237h-0.034l-0.068,0.135v-0.101l-0.068,0.101h0.068l-0.101,0.203l0.034-0.203l-0.271,0.271L199.418,16.624z
	 M194.918,9.452c-0.643,0-1.015,1.759-1.015,2.266c0,0.948,0.71,2.47,1.522,2.943c0.237-0.034,0.406,0.169,0.643,0.169
	c0.101,0,0.203-0.034,0.304-0.101c0-0.44-0.135-0.914-0.135-1.353c0-0.812,0.372-1.522,0.372-2.334c0-0.237-0.135-0.44-0.338-0.575
	l-0.169,0.034v-0.338l-0.406-0.068l0.068-0.237l-0.338-0.169c-0.068,0.068-0.135,0.135-0.237,0.169V9.622l-0.169-0.034
	L194.918,9.452z M193.971,24.202c0.304-0.609,0.778-1.117,1.15-1.692c0.575-0.948,1.218-1.861,1.793-2.808
	c0.372-0.643,0.948-1.218,1.489-1.793c-1.387,1.996-2.741,3.992-4.094,5.988C194.242,23.999,194.073,24.101,193.971,24.202z
	 M192.686,25.218c0.169-1.218,0.609-2.402,0.948-3.586c0.237-0.778,0.338-1.59,0.744-2.3c-0.541,1.962-1.117,3.925-1.624,5.887
	L192.686,25.218L192.686,25.218z M197.828,19.669l-0.169,0.068l0.406-0.575C197.997,19.331,197.929,19.5,197.828,19.669
	c0.034,0.034,0.068,0.034,0.101,0.034l-0.101,0.101V19.669z M198.539,18.621c0,0.034,0,0.101-0.034,0.135
	c0-0.034,0-0.101-0.034-0.135l-0.068,0.135l-0.135,0.068c0.068-0.169,0.169-0.338,0.304-0.507v0.135l-0.101,0.169
	C198.471,18.621,198.539,18.621,198.539,18.621z M198.742,18.18h0.068l-0.068,0.101V18.18l-0.135,0.068l0.304-0.575
	c0,0.135-0.068,0.237-0.068,0.372L198.742,18.18z M195.663,22.578v-0.068c0-0.203,0.135-0.271,0.304-0.304L195.663,22.578z
	 M196.949,20.887c0.135-0.203,0.304-0.406,0.406-0.643c-0.068,0.203-0.169,0.372-0.271,0.541L196.949,20.887z M199.418,16.624
	c0.101-0.135,0.203-0.271,0.237-0.44l-0.068-0.034C199.553,16.32,199.486,16.455,199.418,16.624z M195.256,23.12
	c0.068-0.135,0.135-0.304,0.304-0.338L195.256,23.12z M199.384,16.828c0,0.101-0.068,0.203-0.135,0.271l0.135-0.034l0.034-0.135
	L199.384,16.828z M194.479,18.959c-0.034,0.068-0.034,0.169-0.068,0.203v-0.203H194.479z M198.911,18.045
	c-0.034-0.034,0-0.101,0-0.135h0.034C198.911,17.944,198.911,18.011,198.911,18.045l-0.068,0.101v-0.101H198.911z M198.403,18.857
	c0-0.034,0-0.068,0.034-0.101h0.068L198.403,18.857z M199.384,17.166l0.034-0.101l0.068-0.034L199.384,17.166z M199.756,16.387
	h0.034v-0.101L199.756,16.387z M199.756,16.421v-0.034h-0.034v0.068L199.756,16.421z M198.606,18.485c0,0.034,0,0.034-0.034,0.068
	v-0.068H198.606z M199.824,16.387h-0.034v0.034L199.824,16.387z"/>
<path class="st0" d="M199.814,19.423c-0.091,0.03-0.167,0.076-0.228,0.137c0.04,0.041,0.121,0.071,0.243,0.091
	c0.121,0.021,0.172-0.02,0.152-0.121C199.96,19.429,199.905,19.393,199.814,19.423z M199.647,19.696c0-0.03-0.021-0.055-0.061-0.076
	c-0.041,0-0.061,0.015-0.061,0.046c0,0.03,0.02,0.056,0.061,0.076C199.626,19.742,199.647,19.727,199.647,19.696z M199.586,19.484
	c-0.021-0.01-0.041-0.005-0.061,0.015c-0.021,0.021-0.021,0.036,0,0.046c0.02,0.01,0.04,0.006,0.061-0.015
	C199.606,19.509,199.606,19.494,199.586,19.484z M205.96,20.046c-0.324,0.587-0.718,1.214-1.184,1.882
	c-0.041-0.647-0.263-1.305-0.668-1.973c-0.405-0.668-1.032-1.305-1.882-1.912c-0.041-0.04-0.162-0.126-0.364-0.258
	c-0.202-0.131-0.324-0.217-0.364-0.258c-0.243-0.161-0.39-0.313-0.44-0.455c-0.051-0.141-0.03-0.253,0.061-0.334
	c0.091-0.081,0.237-0.126,0.44-0.137c0.202-0.01,0.435,0.026,0.698,0.106c0.121,0.041,0.258,0.101,0.41,0.182
	c0.152,0.081,0.288,0.182,0.41,0.304s0.207,0.253,0.258,0.395c0.05,0.141,0.035,0.304-0.046,0.486
	c0.101-0.081,0.161-0.192,0.182-0.334c0.02-0.141-0.021-0.273-0.121-0.395c0.202,0.223,0.268,0.42,0.197,0.592
	c-0.071,0.172-0.268,0.268-0.592,0.288c0.364,0.141,0.708,0.197,1.032,0.167s0.612-0.116,0.865-0.258
	c0.253-0.141,0.455-0.329,0.607-0.562c0.152-0.233,0.248-0.491,0.288-0.774c0.04,0.223,0.04,0.445,0,0.668
	c0.182-0.567,0.228-1.042,0.137-1.427c-0.091-0.384-0.278-0.698-0.562-0.941c-0.284-0.243-0.643-0.425-1.077-0.547
	c-0.435-0.121-0.906-0.202-1.411-0.243c-1.052-0.081-1.948-0.01-2.686,0.213c-0.739,0.223-1.27,0.531-1.594,0.925
	c-0.324,0.395-0.425,0.861-0.304,1.396c0.121,0.536,0.516,1.088,1.184,1.654c0.081,0.041,0.187,0.117,0.319,0.228
	c0.131,0.111,0.237,0.187,0.319,0.228c0.708,0.466,1.224,0.982,1.548,1.548c0.324,0.567,0.506,1.113,0.547,1.639
	c0.04,0.627-0.03,1.138-0.213,1.533c-0.182,0.395-0.43,0.698-0.744,0.91c-0.314,0.213-0.658,0.334-1.032,0.364
	c-0.375,0.03-0.734-0.015-1.077-0.137c-0.344-0.121-0.648-0.313-0.91-0.577c-0.263-0.263-0.445-0.577-0.547-0.941
	c-0.101-0.384-0.106-0.759-0.015-1.123c0.091-0.364,0.228-0.698,0.41-1.001c0.182-0.304,0.4-0.577,0.653-0.82
	c0.253-0.243,0.491-0.445,0.714-0.607c-0.101,0.021-0.197,0.041-0.288,0.061c-0.091,0.021-0.187,0.071-0.288,0.152
	c0.101-0.141,0.217-0.258,0.349-0.349c0.131-0.091,0.268-0.157,0.41-0.197c-0.081-0.081-0.182-0.116-0.304-0.106
	c-0.121,0.01-0.213,0.036-0.273,0.076c0.081-0.081,0.192-0.137,0.334-0.167c0.141-0.03,0.263-0.005,0.364,0.076
	c-0.081-0.161-0.243-0.38-0.486-0.653c-0.243-0.273-0.425-0.45-0.547-0.531c-0.101-0.061-0.233-0.086-0.395-0.076
	c-0.162,0.01-0.324,0.086-0.486,0.228c-0.688,0.648-1.188,1.356-1.502,2.125c-0.313,0.769-0.455,1.518-0.425,2.246
	c0.03,0.729,0.228,1.391,0.592,1.988c0.364,0.597,0.87,1.047,1.518,1.351c0.687,0.304,1.401,0.46,2.14,0.471
	c0.738,0.01,1.381-0.097,1.928-0.319c0.567-0.182,1.138-0.551,1.715-1.108s1.108-1.173,1.594-1.852
	c0.486-0.678,0.915-1.355,1.29-2.034c0.374-0.678,0.653-1.219,0.835-1.624c0.141-0.283,0.192-0.506,0.152-0.668
	c-0.041-0.161-0.117-0.268-0.228-0.319c-0.111-0.05-0.248-0.04-0.41,0.03c-0.162,0.071-0.293,0.197-0.395,0.38
	C206.497,19.085,206.284,19.459,205.96,20.046z M203.714,16.358c-0.223-0.131-0.627-0.237-1.214-0.319
	c0.121,0,0.268,0.015,0.44,0.046c0.172,0.03,0.344,0.071,0.516,0.121c0.172,0.051,0.319,0.117,0.44,0.197
	c0.121,0.081,0.192,0.172,0.213,0.273C204.068,16.596,203.937,16.489,203.714,16.358z M203.32,16.449
	c-0.263-0.111-0.486-0.187-0.668-0.228c0.384,0.041,0.703,0.126,0.956,0.258c0.253,0.132,0.359,0.258,0.319,0.38
	C203.785,16.696,203.582,16.56,203.32,16.449z M203.517,17.026c-0.233-0.192-0.491-0.339-0.774-0.44
	c-0.284-0.101-0.557-0.172-0.82-0.213c-0.263-0.04-0.445-0.061-0.547-0.061c0.748-0.02,1.376,0.121,1.882,0.425
	c0.506,0.304,0.738,0.658,0.698,1.062C203.896,17.476,203.749,17.218,203.517,17.026z M202.895,21.654
	c-0.041-0.222-0.096-0.44-0.167-0.653c-0.071-0.213-0.152-0.404-0.243-0.577c-0.091-0.172-0.197-0.298-0.319-0.38
	c0.121,0.061,0.233,0.167,0.334,0.319c0.101,0.152,0.187,0.334,0.258,0.547c0.07,0.213,0.126,0.435,0.167,0.668
	c0.04,0.233,0.05,0.451,0.03,0.653C202.956,22.069,202.935,21.877,202.895,21.654z M201.195,19.378
	c0.283,0.263,0.547,0.597,0.79,1.001c0.243,0.405,0.42,0.861,0.531,1.366c0.111,0.506,0.076,1.043-0.106,1.609
	c0.141-0.687,0.131-1.305-0.03-1.852c-0.162-0.547-0.375-1.012-0.638-1.396s-0.527-0.678-0.79-0.88
	c-0.263-0.202-0.415-0.313-0.455-0.334C200.679,18.953,200.911,19.115,201.195,19.378z M202.895,24.158
	c0.101-0.233,0.172-0.486,0.213-0.759c0.04-0.273,0.055-0.541,0.046-0.805c-0.01-0.263-0.026-0.496-0.046-0.698
	c0.02,0.101,0.04,0.284,0.061,0.547c0.02,0.263,0.015,0.547-0.015,0.85c-0.03,0.304-0.096,0.592-0.197,0.865
	s-0.263,0.451-0.486,0.531C202.652,24.568,202.793,24.391,202.895,24.158z"/>
<path class="st0" d="M215.562,10.824c-0.374-0.46-0.518-0.569-1.121-0.569c-0.518,0-1.006,0-1.496,0.108
	c-0.202,0.054-0.431,0.027-0.633,0.054c0,0,1.035-2.787,1.035-2.896c0-0.244-0.288-0.379-0.46-0.514l-0.23,0.054V6.791l-0.316-0.108
	l-0.23,0.189l0.144-0.379l-0.23,0.027l-0.115-0.161c-0.144,0.162-0.259,0.325-0.431,0.487l0.202-0.433l-0.345-0.162
	c-0.259,0-0.374,0.162-0.489,0.352c-0.402,0.649-0.863,1.326-1.179,2.03c-0.402,0.92-0.978,1.732-1.61,2.517
	c-0.633,0.135-1.294,0.19-1.927,0.352c-0.288,0.081-0.345,0.162-0.402,0.433l0.259,0.135l-0.029,0.162
	c0.202,0.244,0.575,0.514,0.863,0.596l-0.029,0.027c0.288,0,0.604-0.027,0.892-0.027c0.086,0,0.345,0,0.345,0.135
	c0,0.19-0.086,0.352-0.115,0.541c-0.115,0.758-0.316,1.516-0.46,2.273c-0.144,0.649-0.202,1.326-0.316,1.976
	c-0.46,2.814-0.863,5.71-0.863,8.552c0,0.948,0,2.787,1.064,3.302c0.345,0.162,0.719,0.244,1.064,0.406l0.173-0.244
	c0.029,0.054,0.057,0.135,0.144,0.135c0.202,0,0.575-0.081,0.575-0.325c0-0.081,0-0.135-0.029-0.217
	c-0.173-0.676-0.288-1.407-0.288-2.111c0-1.759,0.23-3.545,0.518-5.277c0.575-3.275,1.179-6.549,2.214-9.716
	c1.035-0.162,3.594-0.379,4.256-1.137C215.791,11.095,215.562,11.041,215.562,10.824z M208.171,27.576
	c-0.057-0.406-0.057-0.839-0.057-1.245c0-2.355,0.402-4.736,0.776-7.064c0.402-2.273,0.834-4.6,1.553-6.82l0.259-0.027
	C209.321,17.373,208.401,22.462,208.171,27.576z M209.782,12.529c-0.345,1.569-0.719,3.113-1.035,4.682
	c-0.316,1.542-0.547,3.112-0.805,4.682v-0.135C207.941,20.648,209.264,13.152,209.782,12.529z M207.625,19.431v-0.135
	c0-0.866,0.949-6.008,1.351-6.603C208.372,14.911,208.027,17.184,207.625,19.431z M211.392,10.418
	c-0.029,0.108-0.086,0.217-0.23,0.217h-0.057c0-0.217,0.661-1.759,0.805-2.003c0.086-0.108,0.202-0.217,0.288-0.352
	C211.909,9.011,211.68,9.714,211.392,10.418z M207.28,21.893h-0.057l0.288-2.246l0.086,0.027
	C207.481,20.405,207.366,21.162,207.28,21.893z M210.673,9.958c-0.057,0.271-0.086,0.569-0.316,0.785
	C210.414,10.472,210.443,10.175,210.673,9.958z M210.644,14.18c0-0.162,0-0.325,0.144-0.433
	C210.759,13.883,210.702,14.045,210.644,14.18z M210.817,13.72c-0.029-0.054-0.029-0.108-0.029-0.162
	c0-0.108,0.057-0.217,0.144-0.297C210.874,13.422,210.845,13.558,210.817,13.72z M207.884,22.597h-0.057
	c0-0.135,0.029-0.244,0.029-0.379h0.029L207.884,22.597L207.884,22.597z M207.769,23.382h-0.029l0.029-0.514h0.029L207.769,23.382z
	 M210.386,15.425l-0.086,0.271c0-0.054-0.029-0.081-0.029-0.135C210.27,15.479,210.328,15.452,210.386,15.425z M210.213,15.966
	c0-0.054-0.029-0.081-0.029-0.135c0-0.054,0.057-0.108,0.115-0.108L210.213,15.966z M211.047,12.665l0.115-0.297v0.108
	C211.162,12.556,211.133,12.638,211.047,12.665z M207.078,23.842h-0.029V23.49h0.029V23.842z M207.194,22.678h-0.029v-0.325h0.029
	V22.678z M209.437,19.62v-0.162h0.057v0.162H209.437z M210.357,15.155h0.057c0,0.081-0.029,0.162-0.029,0.244
	C210.357,15.317,210.357,15.235,210.357,15.155z M209.753,17.996v-0.162h0.029c0.029,0.054,0.029,0.108,0.029,0.162H209.753z
	 M209.666,18.402l0.029-0.19h0.029v0.19H209.666z M209.896,17.238l0.029-0.162h0.029v0.19
	C209.925,17.265,209.925,17.265,209.896,17.238z M207.653,24.627v-0.271h0.029v0.271H207.653z M211.018,12.854v0.108l-0.086,0.19
	C210.96,13.044,210.96,12.962,211.018,12.854z M209.523,19.187v-0.135h0.029c0.029,0.054,0.029,0.081,0.029,0.135H209.523z
	 M208.66,10.906l-0.115,0.162v-0.054C208.545,10.959,208.602,10.906,208.66,10.906z M209.379,20.08v-0.217h0.029v0.217H209.379z
	 M209.868,17.644h-0.029v-0.217h0.029V17.644z M211.421,6.981l-0.144,0.244c0.029-0.108,0.086-0.19,0.144-0.297V6.981z
	 M210.011,16.914h-0.029v-0.189h0.029V16.914z M209.235,21.054h-0.029v-0.189h0.029V21.054z M209.925,13.233l0.057,0.027
	l-0.057,0.135V13.233z M210.069,16.535v-0.162h0.029v0.162H210.069z M210.414,14.992c0-0.054,0.029-0.081,0.057-0.135v0.135H210.414
	z M210.184,16.21l-0.057-0.027l0.057-0.135V16.21z M210.644,14.207l-0.057,0.217c0-0.081,0.029-0.135,0.029-0.217l0.029-0.027
	L210.644,14.207L210.644,14.207z M208.775,24.113c0-0.054,0-0.108,0.029-0.135v0.135H208.775z M209.609,18.727v-0.108h0.029v0.108
	H209.609z M209.149,21.514c-0.029-0.027-0.029-0.081-0.029-0.108h0.029c0,0.027,0,0.081,0.029,0.108H209.149z M209.321,20.513
	h-0.029v-0.108h0.029V20.513z M209.005,22.597h-0.029v-0.108h0.029V22.597z M209.465,15.262l-0.029,0.135h-0.029
	c0.029-0.054,0.029-0.081,0.029-0.135H209.465z M209.379,15.614v0.081h-0.029v-0.081H209.379z M209.753,14.126h-0.057l0.057-0.081
	V14.126z M211.248,8.47h0.086l-0.086,0.054V8.47z M208.717,24.924h-0.029v-0.081h0.029V24.924z M208.89,23.22v-0.081h0.029v0.081
	H208.89z M209.868,13.72l-0.057,0.108l-0.029-0.027L209.868,13.72z M209.609,14.641v0.081h-0.029v-0.081H209.609z M211.219,7.333
	c0-0.027,0.029-0.081,0.057-0.108C211.277,7.252,211.248,7.306,211.219,7.333z M209.063,22.028V21.92h0.029L209.063,22.028z
	 M207.682,23.896h0.029v0.054h-0.029V23.896z M210.874,7.848l0.057-0.135C210.931,7.766,210.903,7.82,210.874,7.848z M210.5,14.748
	l-0.029,0.027c0-0.027,0-0.054,0.029-0.081V14.748z M210.04,12.989c0,0.027,0,0.027-0.029,0.054v-0.054H210.04z M210.931,7.712
	l0.057-0.108C210.989,7.631,210.96,7.685,210.931,7.712z M209.523,14.992v0.054h-0.029L209.523,14.992z M209.753,10.445
	l-0.029,0.027C209.724,10.445,209.724,10.445,209.753,10.445z M210.586,14.424l-0.029,0.081
	C210.558,14.478,210.558,14.451,210.586,14.424z M210.817,13.72v0.027h-0.029L210.817,13.72z M210.673,9.958
	c0-0.027,0-0.027,0.029-0.054C210.702,9.931,210.673,9.931,210.673,9.958z M210.874,7.901c0,0.027,0,0.027-0.029,0.054
	C210.845,7.928,210.874,7.928,210.874,7.901z"/>
<path class="st0" d="M219.299,20.459v-0.027c-0.029,0.081-0.057,0.162-0.115,0.244l-0.086,0.054h0.029
	c-0.057,0.108-0.144,0.217-0.173,0.352l-0.029-0.108l-0.173,0.297h0.029l-0.057,0.108h0.029c-0.086,0.135-0.202,0.271-0.259,0.406
	c-0.086,0.217-0.316,0.379-0.374,0.596l-0.057,0.108l-0.086,0.054l-0.057,0.108v-0.108c-0.202,0.135-0.23,0.271-0.316,0.487h0.057
	l0.029-0.027v0.027h-0.029c-0.086,0.135-0.23,0.297-0.259,0.433l-0.029-0.108l-0.202,0.135l0.259-0.46l-0.92,1.001
	c0.518-1.001,1.467-1.894,2.07-2.869l-0.144,0.135c-0.144,0.135-0.259,0.352-0.374,0.487c-0.46,0.541-0.92,1.137-1.438,1.624
	c0,0.027,0,0.027-0.029,0.027v-0.027h0.029c0.259-0.569,0.776-1.001,1.15-1.516h-0.057c-0.288,0.297-0.575,0.676-0.949,0.893
	c0-0.866,1.265-4.222,1.639-5.196c0.057-0.162,0.144-0.352,0.144-0.541c0-0.135-0.115-0.217-0.259-0.244
	c-0.316,0.569-0.547,1.19-0.834,1.786c0,0.054-0.057,0.081-0.086,0.108c0,0.027,0,0.027-0.029,0.027l0.029-0.027
	c0.259-0.649,0.518-1.299,0.747-1.976l-0.144-0.054v0.027l-0.115,0.054l0.029-0.19c-0.029-0.027-0.086-0.081-0.144-0.081
	c-0.086,0-0.144,0.054-0.173,0.108l-0.086,0.054l-0.029,0.135l-0.086,0.027c0.115-0.108,0.057-0.081,0.115-0.189l0.086-0.027
	l-0.029-0.271c-0.661,0.244-0.747,0.812-1.265,1.245l-2.761,2.327l-0.46,0.325l-0.057-0.054c0.834-1.759,1.869-3.951,3.939-4.628
	l0.834,0.217c0.029-0.054,0.057-0.108,0.057-0.162c0-0.081-0.057-0.162-0.115-0.217c-0.518-0.46-1.121-0.839-1.841-0.839
	c-0.719,0-1.438,0.379-2.013,0.758c-1.38,0.92-3.192,3.816-3.192,5.413c0,0.758,1.064,1.38,1.783,1.38
	c1.006,0,1.841-1.137,2.444-1.732l0.978-0.948c-0.316,1.434-0.661,2.869-0.661,4.33c0,0.758,0.46,0.812,1.092,1.028
	c1.265-0.947,2.674-3.356,3.307-4.763C219.501,20.161,219.386,20.296,219.299,20.459z M217.66,17.021c0,0.054,0,0.081-0.029,0.135
	C217.632,17.103,217.632,17.076,217.66,17.021z M217.632,17.184l-0.115,0.217c0-0.027-0.029-0.081-0.029-0.081
	C217.488,17.238,217.546,17.211,217.632,17.184z M217.085,19.593c0-0.027,0-0.054,0.029-0.081L217.085,19.593z M217.201,19.322
	l-0.029,0.054c0-0.054,0-0.108,0.029-0.135V19.322z M217.258,16.968l-0.23,0.406C217.056,17.238,217.172,17.049,217.258,16.968z
	 M217.056,19.728c-0.029,0.189-0.057,0.379-0.202,0.541C216.913,20.08,216.97,19.917,217.056,19.728z M216.827,20.296h0.029
	l-0.057,0.108L216.827,20.296z M216.798,20.513v0.135h-0.029C216.769,20.594,216.769,20.567,216.798,20.513z M216.654,21.082v0.081
	l-0.029-0.054L216.654,21.082z M216.51,21.596h0.029v0.054h-0.029V21.596z M213.664,16.805v0.027h-0.029
	C213.635,16.805,213.635,16.805,213.664,16.805z M213.548,16.995v0.027h-0.057C213.519,17.021,213.519,17.021,213.548,16.995z
	 M213.405,16.318h0.029l-0.086,0.054L213.405,16.318z M211.622,19.214h-0.029c0-0.027,0.029-0.054,0.029-0.081V19.214z
	 M211.708,18.916l-0.057,0.135C211.651,18.997,211.68,18.944,211.708,18.916c0.202-0.514,1.092-1.976,1.496-2.355l0.057-0.108
	c0,0.135-0.259,0.433-0.345,0.541c-0.402,0.568-0.747,1.218-1.121,1.813C211.794,18.862,211.737,18.889,211.708,18.916z
	 M213.203,17.4v0.054c-0.316,0.487-0.661,0.948-0.949,1.462C212.513,18.348,212.829,17.888,213.203,17.4z M212.053,19.349
	c0.057-0.054,0.057-0.162,0.115-0.189l-0.086,0.189H212.053z M212.139,20.73h-0.029c0-0.027,0-0.081,0.029-0.108V20.73z
	 M212.254,20.378c-0.029,0.081-0.057,0.135-0.115,0.19c0.086-0.297,0.144-0.622,0.259-0.92c0.288-0.785,1.38-2.706,2.128-3.139
	C213.548,17.617,212.801,19.024,212.254,20.378z M216.568,24.248c0-0.027,0.029-0.054,0.057-0.054L216.568,24.248z M216.654,24.166
	l0.202-0.244C216.856,24.058,216.74,24.085,216.654,24.166z M216.856,24.031c0.029,0,0.029-0.027,0.057-0.027
	C216.913,24.031,216.884,24.031,216.856,24.031z M216.884,23.896l0.173-0.244c0,0.054-0.029,0.108-0.029,0.162L216.884,23.896z
	 M217.056,23.788l0.029-0.027C217.085,23.788,217.085,23.788,217.056,23.788z M217.201,23.761h-0.057
	c0.029,0,0.029-0.027,0.057-0.027V23.761z M217.315,23.544h-0.029l0.086-0.054h0.029L217.315,23.544z M217.891,22.786
	c0-0.027,0-0.081,0.029-0.108C217.919,22.705,217.919,22.759,217.891,22.786z"/>
<path class="st0" d="M220.484,23.941c0.192,0,0.274-0.026,0.438-0.155c0.712-0.593,2.109-2.81,2.685-3.687
	c0.904-1.366,1.917-2.785,3.123-3.945c0.082-0.077,0.164-0.103,0.246-0.155c-0.302,0.747-0.658,1.469-0.904,2.243
	c-0.52,1.573-1.37,3.79-1.37,5.414c0,1.212,0.302,2.449,1.863,2.449c0.164,0,0.274-0.103,0.274-0.258
	c-0.246-0.129-0.329-0.361-0.329-0.619c0-1.727,1.972-6.961,2.712-8.766c0.137-0.361,0.576-1.418,0.576-1.753
	c0-0.593-1.014-1.108-1.534-1.186c-0.302,0.077-0.493,0.284-0.712,0.49c-0.685,0.696-1.342,1.418-2,2.14
	c-1.698,1.856-3.15,3.868-4.684,5.852l-0.055-0.026c0.548-1.496,1.616-4.667,1.616-6.162c0-0.722-0.466-1.392-1.123-1.702
	c-0.055-0.026-0.328-0.155-0.384-0.155c-0.11,0-0.219,0-0.274,0.129c0.028,0.129,0.082,0.258,0.082,0.386
	c0,0.696-0.246,1.469-0.466,2.114c-0.438,1.418-1.397,4.486-1.397,5.879C218.869,23.245,219.69,23.941,220.484,23.941z
	 M229.278,14.763c-0.52,1.392-1.15,2.733-1.671,4.125c-0.438,1.16-0.712,2.398-1.178,3.558c-0.028,0.052-0.055,0.103-0.11,0.155
	c0.63-2.372,1.726-5.698,2.876-7.863L229.278,14.763z M224.84,18.166c-0.055,0.026-0.082,0.077-0.11,0.129l-0.082,0.052
	c-0.055,0.155-0.164,0.284-0.274,0.413h-0.055l-0.192,0.103c0.055-0.077,0.082-0.155,0.11-0.258
	c-0.302,0.335-0.493,0.567-0.74,0.928l-0.028-0.103v-0.077c1.096-1.496,2.301-2.914,3.671-4.202
	c-0.302,0.361-1.644,1.727-1.781,2.037c0.356-0.232,0.602-0.567,0.904-0.876v0.103l0.055,0.026c-0.164,0.077-0.822,0.825-0.876,0.98
	c-0.082,0.052-0.329,0.361-0.356,0.438l-0.137,0.129h-0.055l-0.11,0.155L224.84,18.166z M222.375,20.46
	c0.329-0.645,0.822-1.212,1.26-1.805c1.178-1.573,2.52-3.017,3.917-4.409l0.055,0.052l-0.082,0.103
	c-1.397,1.625-2.986,3.094-4.219,4.821c-0.192,0.258-0.329,0.542-0.548,0.774c-0.11,0.129-0.219,0.18-0.274,0.335L222.375,20.46z
	 M227.306,16.49c0.274-0.593,0.548-1.186,0.904-1.727v0.129c-0.274,0.516-0.576,1.031-0.822,1.547L227.306,16.49z M226.566,16.129
	c-0.11,0-0.164,0.052-0.246,0.103l1.068-1.108l-0.302,0.386c0,0.155-0.164,0.206-0.219,0.335
	C226.73,15.923,226.675,16.026,226.566,16.129z M226.319,22.652c-0.028,0.232-0.055,0.438-0.11,0.67l-0.082-0.026L226.319,22.652z
	 M228.538,15.226c-0.11,0.284-0.274,0.567-0.411,0.851C228.237,15.768,228.346,15.485,228.538,15.226z M222.484,21.182
	c0.11-0.232,0.274-0.438,0.466-0.645C222.813,20.77,222.649,20.976,222.484,21.182z M223.306,19.97
	c-0.082,0.206-0.219,0.386-0.356,0.542C223.032,20.306,223.196,20.151,223.306,19.97z M222.238,20.641
	c-0.137,0.18-0.246,0.361-0.411,0.541C221.936,21.002,222.074,20.796,222.238,20.641z M223.936,19.12
	c0,0.052-0.028,0.155-0.055,0.18v0.026c-0.055,0.026-0.11,0.052-0.164,0.103L223.936,19.12z M222.923,20.28l-0.028,0.077h-0.137
	c0.028-0.026,0.055-0.077,0.055-0.103h0.082L222.923,20.28z M222.018,21.853c0.028-0.103,0.137-0.232,0.219-0.309
	c-0.028,0.052-0.082,0.103-0.11,0.18L222.018,21.853z M223.306,19.713c0.028,0,0.055,0,0.082,0.026c-0.082,0-0.11,0.052-0.11,0.129
	c-0.028-0.026-0.028-0.077-0.028-0.103v-0.077L223.306,19.713z M227.306,16.696l-0.082-0.026l0.082-0.18V16.696z M223.06,20.048
	c0.028,0,0.082,0,0.11,0.026h-0.11c0,0.026,0,0.077-0.028,0.103c-0.028-0.026-0.028-0.052-0.028-0.077v-0.077L223.06,20.048z
	 M223.169,19.868c0,0,0.055,0.026,0.082,0.026c-0.028,0.026-0.055,0.026-0.082,0.026v0.155c0-0.026-0.055-0.155-0.055-0.155v-0.052
	L223.169,19.868L223.169,19.868z M223.388,19.532c0,0,0.055,0.026,0.082,0.026l-0.055,0.026c0,0.052,0,0.103-0.028,0.155
	c0-0.052,0-0.103-0.028-0.155v-0.052L223.388,19.532L223.388,19.532z M223.443,19.816l0.082-0.155l-0.028,0.103L223.443,19.816z
	 M226.1,23.477h0.028v0.077H226.1V23.477z M228.702,14.892v-0.103l0.028,0.026L228.702,14.892z M221.334,22.755
	c0-0.052,0.028-0.077,0.055-0.103L221.334,22.755z M223.936,19.3c0,0.026,0,0.052-0.028,0.077v-0.052L223.936,19.3z M223.032,20.719
	l-0.028,0.026v-0.052L223.032,20.719z M227.196,16.877h-0.028c0-0.026,0.028-0.026,0.028-0.052V16.877z M227.004,17.289h0.028
	l-0.028,0.026V17.289z M222.402,21.053l0.028-0.026v0.026H222.402z M222.183,21.363c0,0.026,0,0.026-0.028,0.026L222.183,21.363z"/>
<path class="st0" d="M234.527,22.229l-0.562-0.412c-0.156,0.059-0.313,0.118-0.438,0.206c-0.844,0.529-1.562,0.971-2.625,1.059
	c-0.031-0.117-0.063-0.206-0.063-0.324c0-2.118,0.438-4.678,2.375-6.031c0.219-0.147,0.438-0.177,0.687-0.177h0.219
	c-0.188,0.412-0.313,0.824-0.313,1.265c0,0.941,0.625,1.647,1.625,1.765c-0.063-0.294-0.219-0.559-0.219-0.853
	c0-0.5,0.25-0.941,0.25-1.442c0-0.206-0.063-0.382-0.156-0.559c-0.531-0.971-1.625-1.883-2.844-1.883c-2.375,0-3.97,4.06-3.97,5.943
	c0,1.677,1.251,3.471,3.188,3.471c0.844,0,2.563-0.794,3.032-1.471c0.094-0.117,0.125-0.265,0.219-0.382
	c-0.094-0.03-0.188-0.059-0.25-0.147l-0.25,0.235L234.527,22.229z M232.495,16.462c-0.594,0.5-0.938,1.03-1.375,1.647
	c-0.125,0.177-0.219,0.235-0.282,0.441h-0.031c0.188-0.5,0.844-1.794,1.375-2.001l0.282-0.088L232.495,16.462L232.495,16.462z
	 M230.464,16.815c0.125-0.177,0.594-0.853,0.812-0.853C231.121,16.197,230.714,16.697,230.464,16.815z M231.152,16.903
	c0-0.177,0.344-0.5,0.531-0.5C231.526,16.58,231.339,16.727,231.152,16.903z M234.402,16.932h-0.031c0-0.03,0-0.03,0.031-0.059
	V16.932z M234.558,22.169c0,0.03-0.031,0.03-0.031,0.059h0.031V22.169z"/>
<path class="st0" d="M242.872,17.109c0-1.295-0.844-2.265-2.094-2.648l-0.25,0.059l0.625,1.088
	c-0.282-0.059-0.562-0.118-0.844-0.118c-1.188,0-2.157,0.5-2.844,1.412c-0.875,1.148-1.5,2.56-1.5,3.972
	c0,1.736,1.125,2.972,3.032,2.972c0.875,0,1.719-0.559,1.781-1.412l-0.125,0.147c0,0.118-0.031,0.206-0.125,0.294v-0.118
	l-0.063,0.118h-0.031l-0.031,0.118h-0.031l0.031,0.059h-0.094v0.03l-0.063-0.03l0.031-0.088l-0.219-0.03
	c0.031-0.177,0.219-0.294,0.219-0.5c0-0.03-0.031-0.088-0.063-0.147c-0.188,0.265-0.25,0.559-0.594,0.706
	c0.094-0.235,0.344-0.441,0.344-0.706v-0.088l-0.031,0.03c-0.219,0.529-0.719,0.941-1.375,0.941c-0.438,0-0.531-1.118-0.531-1.412
	c0-0.235-0.031-0.736,0.094-0.971C240.184,20.787,242.872,19.257,242.872,17.109z M240.997,18.315v0.03l-0.094,0.03L240.997,18.315
	c0-0.03,0-0.088,0.031-0.117L240.997,18.315z M242.279,17.698c-0.125,0.382-0.313,0.765-0.625,1.059
	C241.653,18.58,242.154,17.903,242.279,17.698z M241.56,18.816c0.031-0.03,0.063-0.03,0.094-0.03
	C241.622,18.816,241.591,18.816,241.56,18.816z M241.591,18.11l-0.031,0.088h-0.031L241.591,18.11z M241.528,18.816
	c0,0.03-0.031,0.03-0.063,0.059L241.528,18.816z M241.341,17.639h0.063c0,0.03-0.031,0.059-0.063,0.059V17.639z M241.185,18.021
	v-0.03l0.063-0.118C241.247,17.933,241.216,17.963,241.185,18.021z M241.216,16.58v0.117c0,1.059-1.656,2.795-2.782,2.912
	C238.684,18.315,239.809,16.874,241.216,16.58z M238.996,17.286l0.031-0.03v0.03l-0.125,0.059
	C238.934,17.315,238.934,17.286,238.996,17.286z M238.184,17.58c0,0.03-0.031,0.088-0.063,0.118h-0.031
	C238.121,17.698,238.153,17.609,238.184,17.58z M237.996,17.756c0,0.059,0,0.088-0.031,0.118
	C237.965,17.845,237.965,17.815,237.996,17.756z M237.121,18.521h-0.031c0-0.03,0-0.03,0.031-0.03V18.521z M237.246,18.227
	l-0.063-0.03l0.094-0.147L237.246,18.227z M237.309,18.021h-0.031l0.031-0.03V18.021z M237.715,19.551h-0.031
	c0-0.059,0-0.118,0.031-0.147V19.551z M237.778,17.344l-0.125,0.088l-0.063,0.117c-0.031,0.118-0.063,0.235-0.219,0.294
	c0.063-0.117,0.156-0.206,0.219-0.294v-0.03l0.063-0.088l0.156-0.235c0.031-0.03,0.063-0.03,0.094-0.03l-0.094,0.03
	C237.809,17.256,237.778,17.286,237.778,17.344z M237.84,18.11c0,0.03,0,0.03,0,0.059v-0.03V18.11z M237.84,19.228
	c0-0.618,0.594-1.442,1.031-1.854C238.591,18.021,238.059,18.58,237.84,19.228z"/>
</svg>
