<?xml version="1.0" encoding="utf-8"?>
<!-- Generator: Adobe Illustrator 22.1.0, SVG Export Plug-In . SVG Version: 6.00 Build 0)  -->
<svg version="1.1" id="Layer_1" xmlns="http://www.w3.org/2000/svg" xmlns:xlink="http://www.w3.org/1999/xlink" x="0px" y="0px"
	 viewBox="0 0 50 50" style="enable-background:new 0 0 50 50;" xml:space="preserve">
<style type="text/css">
	.st0{display:none;}
	.st1{display:inline;}
	.st2{fill:#FFFFFF;}
</style>
<g id="_x34_2FiKe_1_" class="st0">
	<g class="st1">
		<path d="M7.229,7.897c0.43,0,0.766,0,1.102,0c7.634,0,15.268,0.009,22.902-0.016c0.704-0.002,1.197,0.202,1.688,0.696
			c1.459,1.467,2.981,2.871,4.444,4.335c0.256,0.256,0.484,0.682,0.485,1.03c0.024,11.095,0.018,22.19,0.013,33.285
			c0,0.129-0.041,0.257-0.073,0.44c-10.188,0-20.345,0-30.56,0C7.229,34.415,7.229,21.229,7.229,7.897z M9.96,10.613
			c0,11.492,0,22.907,0,34.349c8.425,0,16.786,0,25.161,0c0-10.078,0-20.097,0-30.169c-1.161,0-2.247-0.043-3.328,0.014
			c-0.78,0.041-1.106-0.172-1.048-1.012c0.072-1.038,0.017-2.085,0.017-3.183C23.789,10.613,16.917,10.613,9.96,10.613z"/>
		<path d="M43.036,41.57c-1.245,0-2.451,0-3.726,0c0-0.854,0-1.682,0-2.568c0.322-0.054,0.641-0.108,1.002-0.169
			c0-10.032,0-20.025,0-30.124c-1.426,0-2.8,0-4.278,0c0-1.441,0-2.78,0-4.19c-7.036,0-13.967,0-20.962,0
			c-0.027,0.624-0.053,1.218-0.082,1.865c-0.864,0-1.663,0-2.537,0c0-1.497,0-2.97,0-4.592c0.345,0,0.703,0,1.06,0
			c7.635,0,15.27,0.009,22.905-0.015c0.703-0.002,1.204,0.2,1.694,0.695c1.456,1.471,2.977,2.878,4.425,4.355
			c0.293,0.299,0.538,0.8,0.539,1.209c0.029,10.927,0.023,21.853,0.021,32.78C43.095,41.047,43.06,41.277,43.036,41.57z"/>
		<path d="M22.158,40.501c-2.578,0-5.156-0.006-7.735,0.004c-0.754,0.003-1.401-0.151-1.422-1.054
			c-0.022-0.968,0.668-1.143,1.452-1.144c5.19-0.001,10.381,0.002,15.571-0.002c0.76-0.001,1.42,0.212,1.435,1.074
			c0.016,0.924-0.649,1.135-1.465,1.129C27.382,40.489,24.77,40.501,22.158,40.501z"/>
		<path d="M22.503,28.51c2.576,0,5.153,0.005,7.729-0.003c0.772-0.003,1.467,0.086,1.52,1.066c0.042,0.775-0.452,1.132-1.564,1.134
			c-5.119,0.005-10.237-0.001-15.356,0.006c-0.784,0.001-1.458-0.144-1.535-1.082c-0.061-0.75,0.479-1.117,1.578-1.119
			C17.418,28.507,19.96,28.51,22.503,28.51z"/>
		<path d="M22.506,20.949c-2.61,0-5.22-0.014-7.83,0.009c-0.802,0.007-1.374-0.248-1.371-1.106c0.003-0.81,0.599-1.081,1.322-1.082
			c5.288-0.005,10.576-0.008,15.864,0.005c0.719,0.002,1.279,0.289,1.258,1.13c-0.021,0.842-0.568,1.053-1.31,1.049
			C27.794,20.942,25.15,20.949,22.506,20.949z"/>
		<path d="M22.56,26.026c-2.542,0-5.085-0.007-7.627,0.004c-0.801,0.004-1.549-0.062-1.634-1.076
			c-0.063-0.748,0.484-1.124,1.579-1.125c5.119-0.004,10.237,0.001,15.356-0.004c0.772-0.001,1.497,0.102,1.511,1.075
			c0.015,1.043-0.75,1.131-1.557,1.129C27.644,26.022,25.102,26.026,22.56,26.026z"/>
		<path d="M22.508,33.59c2.609,0,5.218,0.01,7.827-0.006c0.756-0.004,1.391,0.115,1.412,1.04c0.02,0.915-0.623,1.129-1.362,1.13
			c-5.218,0.01-10.436,0.007-15.654,0.004c-0.744,0-1.417-0.205-1.423-1.084c-0.007-0.944,0.666-1.101,1.475-1.093
			C17.358,33.606,19.933,33.59,22.508,33.59z"/>
	</g>
</g>
<g id="HRaI8H_1_">
	<g>
		<path class="st2" d="M32.828,18.718c-0.923,0-1.727,0-2.655,0c0-1.241,0-2.475,0-3.829c-1.906,0-3.692,0.002-5.477-0.001
			c-1.758-0.003-2.354-0.608-2.356-2.396c-0.003-1.753-0.001-3.505-0.001-5.307c-5.648,0-11.191,0-16.805,0
			c0,10.673,0,21.326,0,32.117c0.362,0,0.721,0,1.08,0c5.218,0,10.436,0.025,15.654-0.024c0.937-0.009,1.612,0.207,2.153,0.975
			c0.383,0.545,0.861,1.023,1.397,1.647c-0.45,0.024-0.768,0.057-1.086,0.057c-6.539,0.003-13.079,0.003-19.618,0.002
			c-1.754,0-2.298-0.544-2.298-2.295c-0.001-10.944-0.001-21.888,0-32.833c0-1.773,0.745-2.508,2.541-2.508
			c5.726-0.002,11.453,0.015,17.179-0.016c0.927-0.005,1.608,0.307,2.241,0.95c2.33,2.366,4.677,4.715,7.044,7.044
			c0.699,0.687,1.045,1.454,1.019,2.437C32.801,16.05,32.828,17.364,32.828,18.718z M24.529,12.756c1.506,0,2.929,0,4.478,0
			c-0.167-0.226-0.246-0.365-0.355-0.474c-1.323-1.333-2.65-2.662-4.123-4.14C24.529,9.789,24.529,11.214,24.529,12.756z"/>
		<path class="st2" d="M41.634,36.891c1.679,1.683,3.321,3.338,4.974,4.982c0.906,0.901,0.968,1.78,0.16,2.638
			c-0.698,0.741-1.91,0.748-2.719-0.05c-1.662-1.638-3.293-3.307-4.962-4.989c-2.594,1.748-5.379,2.28-8.349,1.541
			c-2.437-0.606-4.468-1.898-5.932-3.976c-2.963-4.205-2.335-10.121,1.424-13.591c3.702-3.417,9.622-3.544,13.584-0.309
			C43.571,26.205,44.82,32.287,41.634,36.891z M25.811,30.889c-0.003,4.131,3.357,7.532,7.448,7.539
			c4.083,0.007,7.569-3.435,7.557-7.462c-0.013-4.135-3.361-7.508-7.467-7.522C29.234,23.431,25.814,26.809,25.811,30.889z"/>
		<path class="st2" d="M15.989,23.837c-2.033,0-4.066,0.004-6.099-0.002c-1.094-0.003-1.694-0.472-1.7-1.303
			c-0.006-0.83,0.595-1.311,1.688-1.313c4.066-0.006,8.132-0.005,12.198,0c1.16,0.002,1.688,0.417,1.685,1.288
			c-0.003,0.858-0.569,1.321-1.673,1.326C20.055,23.844,18.022,23.837,15.989,23.837z"/>
		<path class="st2" d="M21.764,35.834c-2.079,0-4.069,0-6.058,0c-2.03,0-4.06,0.012-6.09-0.006
			c-1.018-0.009-1.523-0.484-1.521-1.356c0.002-0.88,0.475-1.291,1.547-1.293c3.784-0.007,7.569-0.003,11.345-0.003
			C21.252,34.083,21.493,34.91,21.764,35.834z"/>
		<path class="st2" d="M21.305,27.15c-0.171,0.845-0.331,1.633-0.512,2.528c-0.244,0.019-0.534,0.062-0.824,0.062
			c-3.415,0.005-6.83,0.006-10.245,0.001c-1.135-0.002-1.631-0.417-1.629-1.328c0.002-0.905,0.501-1.315,1.64-1.316
			c3.584-0.005,7.168-0.003,10.752,0C20.748,27.097,21.008,27.13,21.305,27.15z"/>
		<path class="st2" d="M13.958,15.18c1.419,0,2.838-0.02,4.256,0.006c1.07,0.02,1.539,0.459,1.524,1.337
			c-0.014,0.852-0.519,1.327-1.556,1.335c-2.871,0.021-5.742,0.018-8.613,0c-0.836-0.005-1.445-0.349-1.473-1.301
			c-0.025-0.865,0.475-1.349,1.505-1.37C11.053,15.159,12.505,15.18,13.958,15.18z"/>
	</g>
</g>
</svg>
