<?xml version="1.0" encoding="utf-8"?>
<!-- Generator: Adobe Illustrator 22.1.0, SVG Export Plug-In . SVG Version: 6.00 Build 0)  -->
<svg version="1.1" id="Layer_1" xmlns="http://www.w3.org/2000/svg" xmlns:xlink="http://www.w3.org/1999/xlink" x="0px" y="0px"
	 viewBox="0 0 50 50" style="enable-background:new 0 0 50 50;" xml:space="preserve">
<style type="text/css">
	.st0{fill:#FFFFFF;}
</style>
<g>
	<path class="st0" d="M44.494,4.603c-6.482-0.001-12.964,0-19.446,0s-12.964-0.001-19.446,0c-2.172,0-3.253,1.071-3.253,3.215
		c0,8.981,0.041,17.963-0.031,26.944c-0.016,2.03,1.359,3.352,3.29,3.313c3.953-0.08,7.91-0.024,11.865-0.024
		c1.902,0,1.876,0,1.911,1.906c0.011,0.614-0.137,0.834-0.784,0.882c-0.952,0.069-1.937,0.218-2.6,1.032
		c-0.71,0.872-1.386,1.772-2.056,2.676c-0.486,0.656-0.359,1.151,0.364,1.547c0.695,0.381,1.463,0.466,2.232,0.467
		c5.658,0.01,11.316,0.009,16.974,0c0.77-0.001,1.535-0.1,2.231-0.471c0.772-0.411,0.897-0.884,0.409-1.597
		c-0.481-0.701-1.025-1.362-1.469-2.084c-0.531-0.863-1.303-1.25-2.25-1.497c-0.557-0.146-1.359,0.198-1.631-0.386
		c-0.231-0.498-0.009-1.19-0.068-1.789c-0.06-0.612,0.192-0.703,0.738-0.7c4.339,0.022,8.679,0.013,13.019,0.012
		c2.227-0.001,3.34-1.107,3.34-3.327c0.002-8.926,0.002-17.853,0-26.779C47.832,5.723,46.712,4.603,44.494,4.603z M44.107,35.183
		c-12.719-0.016-25.438-0.016-38.156,0.001c-0.624,0.001-0.837-0.128-0.835-0.803C5.14,25.728,5.139,17.075,5.118,8.422
		C5.116,7.787,5.264,7.598,5.924,7.6c6.373,0.026,12.746,0.016,19.119,0.016c6.373,0,12.746,0.008,19.119-0.014
		c0.595-0.002,0.779,0.112,0.777,0.753c-0.025,8.681-0.026,17.361,0.001,26.042C44.943,35.088,44.712,35.184,44.107,35.183z"/>
	<path class="st0" d="M41.559,10.111c-5.493,0.025-10.986,0.014-16.478,0.014c-5.52,0-11.041,0.01-16.561-0.013
		c-0.641-0.003-0.9,0.096-0.897,0.83c0.03,6.976,0.027,13.952,0.003,20.927c-0.002,0.662,0.194,0.819,0.832,0.818
		c11.04-0.018,22.081-0.019,33.121,0.002c0.7,0.001,0.864-0.214,0.862-0.886c-0.023-6.948-0.026-13.897,0.003-20.845
		C42.446,10.244,42.219,10.108,41.559,10.111z M31.849,21.456c-0.205,1.773-1.298,2.988-2.809,3.827
		c-3.093,1.72-7.255,1.235-9.558-1.085c-0.954-0.961-1.445-2.112-1.432-3.474c0.008-0.795,0.001-1.591,0.001-2.416
		c0.375-0.042,0.644,0.169,0.927,0.291c1.812,0.78,3.622,1.563,5.421,2.371c0.433,0.195,0.798,0.204,1.238,0.006
		c1.772-0.801,3.56-1.566,5.344-2.342c0.272-0.118,0.551-0.217,0.889-0.35C31.87,19.392,31.967,20.436,31.849,21.456z
		 M27.224,19.252c-1.581,0.767-2.899,0.807-4.434-0.026c-1.535-0.833-3.203-1.419-4.801-2.139c-0.454-0.205-0.558-0.099-0.556,0.372
		c0.014,2.801,0.006,5.601,0.01,8.402c0,0.162-0.017,0.369,0.071,0.479c1.059,1.326,0.317,2.868,0.532,4.292
		c0.004,0.026,0.004,0.061-0.01,0.081c-0.366,0.504-0.893,0.166-1.34,0.249c-0.285,0.053-0.463-0.063-0.458-0.403
		c0.013-1.043-0.263-2.18,0.058-3.113c1.155-3.355,0.238-6.777,0.559-10.146c0.049-0.516-0.136-0.79-0.624-0.986
		c-1.134-0.454-2.244-0.968-3.609-1.564c1.373-0.326,2.505-0.589,3.634-0.863c2.766-0.671,5.532-1.344,8.297-2.023
		c0.273-0.067,0.538-0.097,0.812-0.031c3.858,0.931,7.716,1.861,11.573,2.795c0.07,0.017,0.13,0.078,0.324,0.198
		C33.827,16.323,30.471,17.676,27.224,19.252z"/>
</g>
</svg>
