<?xml version="1.0" encoding="utf-8"?>
<!-- Generator: Adobe Illustrator 22.1.0, SVG Export Plug-In . SVG Version: 6.00 Build 0)  -->
<svg version="1.1" id="Layer_1" xmlns="http://www.w3.org/2000/svg" xmlns:xlink="http://www.w3.org/1999/xlink" x="0px" y="0px"
	 viewBox="0 0 50 50" style="enable-background:new 0 0 50 50;" xml:space="preserve">
<style type="text/css">
	.st0{display:none;}
	.st1{display:inline;}
	.st2{fill:#FFFFFF;}
</style>
<g id="_x34_2FiKe_1_" class="st0">
	<g class="st1">
		<path d="M7.229,7.897c0.43,0,0.766,0,1.102,0c7.634,0,15.268,0.009,22.902-0.016c0.704-0.002,1.197,0.202,1.688,0.696
			c1.459,1.467,2.981,2.871,4.444,4.335c0.256,0.256,0.484,0.682,0.485,1.03c0.024,11.095,0.018,22.19,0.013,33.285
			c0,0.129-0.041,0.257-0.073,0.44c-10.188,0-20.345,0-30.56,0C7.229,34.415,7.229,21.229,7.229,7.897z M9.96,10.613
			c0,11.492,0,22.907,0,34.349c8.425,0,16.786,0,25.161,0c0-10.078,0-20.097,0-30.169c-1.161,0-2.247-0.043-3.328,0.014
			c-0.78,0.041-1.106-0.172-1.048-1.012c0.072-1.038,0.017-2.085,0.017-3.183C23.789,10.613,16.917,10.613,9.96,10.613z"/>
		<path d="M43.036,41.57c-1.245,0-2.451,0-3.726,0c0-0.854,0-1.682,0-2.568c0.322-0.054,0.641-0.108,1.002-0.169
			c0-10.032,0-20.025,0-30.124c-1.426,0-2.8,0-4.278,0c0-1.441,0-2.78,0-4.19c-7.036,0-13.967,0-20.962,0
			c-0.027,0.624-0.053,1.218-0.082,1.865c-0.864,0-1.663,0-2.537,0c0-1.497,0-2.97,0-4.592c0.345,0,0.703,0,1.06,0
			c7.635,0,15.27,0.009,22.905-0.015c0.703-0.002,1.204,0.2,1.694,0.695c1.456,1.471,2.977,2.878,4.425,4.355
			c0.293,0.299,0.538,0.8,0.539,1.209c0.029,10.927,0.023,21.853,0.021,32.78C43.095,41.047,43.06,41.277,43.036,41.57z"/>
		<path d="M22.158,40.501c-2.578,0-5.156-0.006-7.735,0.004c-0.754,0.003-1.401-0.151-1.422-1.054
			c-0.022-0.968,0.668-1.143,1.452-1.144c5.19-0.001,10.381,0.002,15.571-0.002c0.76-0.001,1.42,0.212,1.435,1.074
			c0.016,0.924-0.649,1.135-1.465,1.129C27.382,40.489,24.77,40.501,22.158,40.501z"/>
		<path d="M22.503,28.51c2.576,0,5.153,0.005,7.729-0.003c0.772-0.003,1.467,0.086,1.52,1.066c0.042,0.775-0.452,1.132-1.564,1.134
			c-5.119,0.005-10.237-0.001-15.356,0.006c-0.784,0.001-1.458-0.144-1.535-1.082c-0.061-0.75,0.479-1.117,1.578-1.119
			C17.418,28.507,19.96,28.51,22.503,28.51z"/>
		<path d="M22.506,20.949c-2.61,0-5.22-0.014-7.83,0.009c-0.802,0.007-1.374-0.248-1.371-1.106c0.003-0.81,0.599-1.081,1.322-1.082
			c5.288-0.005,10.576-0.008,15.864,0.005c0.719,0.002,1.279,0.289,1.258,1.13c-0.021,0.842-0.568,1.053-1.31,1.049
			C27.794,20.942,25.15,20.949,22.506,20.949z"/>
		<path d="M22.56,26.026c-2.542,0-5.085-0.007-7.627,0.004c-0.801,0.004-1.549-0.062-1.634-1.076
			c-0.063-0.748,0.484-1.124,1.579-1.125c5.119-0.004,10.237,0.001,15.356-0.004c0.772-0.001,1.497,0.102,1.511,1.075
			c0.015,1.043-0.75,1.131-1.557,1.129C27.644,26.022,25.102,26.026,22.56,26.026z"/>
		<path d="M22.508,33.59c2.609,0,5.218,0.01,7.827-0.006c0.756-0.004,1.391,0.115,1.412,1.04c0.02,0.915-0.623,1.129-1.362,1.13
			c-5.218,0.01-10.436,0.007-15.654,0.004c-0.744,0-1.417-0.205-1.423-1.084c-0.007-0.944,0.666-1.101,1.475-1.093
			C17.358,33.606,19.933,33.59,22.508,33.59z"/>
	</g>
</g>
<g>
	<path class="st2" d="M5.284,10.709c7.164,0,7.88,0,15.049,0c0,2.846,0,5.588,0,8.516c2.637,0,5.17,0,7.831,0
		c0,2.733,0,7.897,0,7.897l1.811-1.978c0,0,0.054-5.266-0.034-7.499c-0.025-0.634-0.314-1.39-0.739-1.854
		c-1.863-2.035-3.85-3.955-5.726-5.978c-0.643-0.694-1.31-0.931-2.235-0.927C13.722,8.917,12.548,8.904,5.03,8.904
		c-0.503,0-1.005,0-1.49,0c0,12.749,0,25.29,0,37.875c8.677,0,10.918,0,19.494,0c0-0.582,0-1.073,0-1.682c-8.08,0-9.712,0-17.75,0
		C5.284,33.547,5.284,22.118,5.284,10.709z M22.109,11.721c1.912,1.739,3.886,3.533,5.86,5.328
		c-0.055,0.108-0.111,0.216-0.166,0.324c-1.644,0-3.288,0.027-4.93-0.028c-0.261-0.009-0.723-0.381-0.73-0.598
		C22.083,14.975,22.109,13.2,22.109,11.721z"/>
	<path class="st2" d="M46.312,10.176c-0.002-0.49-0.33-1.076-0.682-1.451c-1.825-1.942-3.661-3.879-5.6-5.705
		c-0.546-0.514-1.45-0.908-2.194-0.914c-7.663-0.066-13.632-0.04-21.295-0.04c-0.461,0-0.922,0-1.433,0c0,1.784,0,3.412,0,5.009
		c0.664,0,1.209,0,1.879,0c0-1.038,0-1.973,0-2.937c7.232,0,12.64,0,19.885,0c0,2.749,0,5.392,0,8.17c2.544,0,4.95,0,7.403,0
		c0,8.717,0,17.293,0,26.027c-3.876,0-9.717,0-9.717,0l2.482,1.844c0,0,5.513,0.072,9.15,0.072c0.087-0.332,0.133-0.424,0.133-0.516
		C46.331,29.882,46.346,20.029,46.312,10.176z M38.905,10.247c0-1.939,0-3.879,0-5.25c1.71,1.552,3.678,3.337,5.786,5.25
		C42.677,10.247,40.852,10.247,38.905,10.247z"/>
	<path class="st2" d="M27.694,39.956c-1.564,0-2.957,0-4.393,0c0,0.98,0,1.856,0,2.858c1.47,0,2.892,0,4.44,0
		c0,0.814,0,1.501,0,2.339c1.972-1.352,3.779-2.591,5.67-3.888c-1.911-1.305-3.735-2.551-5.718-3.905
		C27.694,38.305,27.694,39.046,27.694,39.956z"/>
	<path class="st2" d="M30.902,28.716c-1.979,1.357-3.778,2.592-5.675,3.893c1.93,1.32,3.741,2.559,5.755,3.936
		c0-1.018,0-1.755,0-2.639c1.517,0,2.934,0,4.321,0c0-1.023,0-1.894,0-2.862c-1.477,0-2.869,0-4.281,0
		C30.981,30.258,30.946,29.57,30.902,28.716z"/>
	<path class="st2" d="M22.221,23.972c-6.575,0-6.67,0-13.213,0c0,0.542,0,1.034,0,1.61c6.527,0,6.658,0,13.213,0
		C22.221,25.044,22.221,24.591,22.221,23.972z"/>
	<path class="st2" d="M22.225,28.958c-6.592,0-6.692,0-13.185,0c0,0.604,0,1.129,0,1.617c6.577,0,6.671,0,13.185,0
		C22.225,30.022,22.225,29.568,22.225,28.958z"/>
	<path class="st2" d="M21.395,33.914c-6.592,0-5.862,0-12.354,0c0,0.604,0,1.129,0,1.617c6.577,0,5.841,0,12.354,0
		C21.395,34.978,21.395,34.525,21.395,33.914z"/>
	<path class="st2" d="M35.666,27.006c3.265,0,2.374,0,5.67,0c-0.029-0.609-0.053-1.095-0.077-1.603c-3.322,0-2.401,0-5.593,0
		C35.666,25.986,35.666,26.485,35.666,27.006z"/>
	<path class="st2" d="M41.262,15.565c-3.282,0-4.791,0-7.986,0c0,0.554,0,1.014,0,1.508c3.27,0,4.774,0,7.986,0
		C41.262,16.516,41.262,16.06,41.262,15.565z"/>
	<path class="st2" d="M33.262,22.02c3.327,0,4.797,0,8.072,0c-0.031-0.59-0.057-1.077-0.083-1.566c-3.321,0-4.788,0-7.99,0
		C33.262,21.008,33.262,21.469,33.262,22.02z"/>
</g>
</svg>
