<?xml version="1.0" encoding="utf-8"?>
<!-- Generator: Adobe Illustrator 23.0.3, SVG Export Plug-In . SVG Version: 6.00 Build 0)  -->
<svg version="1.1" id="Layer_1" xmlns="http://www.w3.org/2000/svg" xmlns:xlink="http://www.w3.org/1999/xlink" x="0px" y="0px"
	 viewBox="0 0 50 50" style="enable-background:new 0 0 50 50;" xml:space="preserve">
<style type="text/css">
	.st0{fill:#FFFFFF;}
</style>
<g id="_x36_zXyJI_1_">
	<g>
		<path class="st0" d="M37.871,45.674c-8.58,0-17.161,0-25.741,0c-0.735-0.311-0.988-0.867-0.977-1.657
			c0.033-2.304,0.012-4.609,0.011-6.913c0-0.141,0-0.282,0-0.44c-1.024,0-1.988,0.009-2.951-0.002
			c-1.704-0.019-3.188-1.164-3.656-2.804c-0.047-0.165-0.1-0.328-0.15-0.491c0-5.095,0-10.189,0-15.284
			c0.168-0.446,0.278-0.926,0.514-1.333c0.735-1.267,1.862-1.93,3.332-1.961c0.96-0.02,1.92-0.004,2.911-0.004
			c0-0.164,0-0.282,0-0.4c0-2.747,0.019-5.494-0.012-8.24c-0.009-0.79,0.242-1.345,0.977-1.657c8.58,0,17.161,0,25.741,0
			c0.735,0.312,0.986,0.866,0.977,1.657c-0.031,2.733-0.012,5.466-0.012,8.199c0,0.141,0,0.282,0,0.44
			c1.024,0,1.988-0.008,2.951,0.002c1.701,0.018,3.189,1.165,3.655,2.805c0.047,0.165,0.1,0.327,0.15,0.491
			c0,5.095,0,10.189,0,15.284c-0.029,0.086-0.065,0.171-0.086,0.259c-0.246,1.039-0.815,1.853-1.709,2.434
			c-0.622,0.404-1.31,0.601-2.051,0.604c-0.96,0.004-1.92,0.001-2.911,0.001c0,0.205,0,0.363,0,0.521
			c0,2.277-0.019,4.555,0.012,6.832C38.859,44.805,38.604,45.362,37.871,45.674z M38.836,34.035
			c0.062,0.028,0.085,0.047,0.108,0.047c0.858,0.004,1.716,0.008,2.574,0.008c1.011,0,1.501-0.491,1.501-1.506
			c0-4.598,0-9.196,0-13.795c0-0.905-0.518-1.431-1.414-1.431c-11.047,0-22.093,0-33.14,0c-0.989,0-1.482,0.494-1.483,1.483
			c-0.001,1.381,0,2.762,0,4.142c0,3.244-0.001,6.488,0,9.733c0,0.706,0.423,1.307,1.071,1.343c1.024,0.057,2.053,0.015,3.112,0.015
			c0-0.229,0-0.428,0-0.626c0-2.292-0.002-4.585,0-6.877c0.001-0.998,0.487-1.49,1.474-1.49c8.258-0.001,16.516-0.001,24.774,0
			c0.906,0,1.424,0.52,1.424,1.42c0.001,2.199,0,4.397-0.001,6.596C38.836,33.416,38.836,33.734,38.836,34.035z M13.755,43.071
			c7.519,0,15.003,0,22.474,0c0-5.154,0-10.279,0-15.394c-7.508,0-14.982,0-22.474,0C13.755,32.815,13.755,37.93,13.755,43.071z
			 M13.755,14.755c7.52,0,15.003,0,22.487,0c0-2.571,0-5.113,0-7.671c-7.503,0-14.987,0-22.487,0
			C13.755,9.648,13.755,12.19,13.755,14.755z"/>
		<path class="st0" d="M37.871,21.218c-0.002-0.699,0.57-1.278,1.267-1.285c0.722-0.007,1.304,0.568,1.306,1.287
			c0.002,0.696-0.573,1.279-1.268,1.286C38.456,22.514,37.873,21.939,37.871,21.218z"/>
		<path class="st0" d="M25.01,32.825c-2.427,0-4.853,0.002-7.28-0.001c-0.694-0.001-1.157-0.315-1.331-0.882
			c-0.269-0.876,0.334-1.686,1.28-1.69c1.998-0.009,3.995-0.004,5.993-0.004c2.882,0,5.765-0.002,8.647,0.003
			c1.046,0.002,1.691,0.931,1.275,1.832c-0.254,0.552-0.711,0.749-1.305,0.746c-2.319-0.012-4.639-0.006-6.958-0.006
			c-0.107,0-0.215,0-0.322,0C25.01,32.824,25.01,32.824,25.01,32.825z"/>
		<path class="st0" d="M25.017,37.973c-2.453,0-4.906-0.002-7.36,0.002c-0.535,0.001-0.936-0.219-1.175-0.693
			c-0.238-0.471-0.188-0.939,0.113-1.368c0.29-0.413,0.717-0.519,1.199-0.519c3.552,0.004,7.105,0.002,10.657,0.002
			c1.314,0,2.627,0,3.941,0.002c0.529,0.001,0.938,0.224,1.174,0.701c0.223,0.453,0.198,0.911-0.088,1.336
			c-0.271,0.403-0.666,0.541-1.143,0.539c-2.44-0.007-4.88-0.003-7.319-0.003C25.017,37.972,25.017,37.972,25.017,37.973z"/>
	</g>
</g>
</svg>
