<?xml version="1.0" encoding="utf-8"?>
<!-- Generator: Adobe Illustrator 23.0.4, SVG Export Plug-In . SVG Version: 6.00 Build 0)  -->
<svg version="1.1" id="Layer_1" xmlns="http://www.w3.org/2000/svg" xmlns:xlink="http://www.w3.org/1999/xlink" x="0px" y="0px"
	 viewBox="0 0 50 50" style="enable-background:new 0 0 50 50;" xml:space="preserve">
<style type="text/css">
	.st0{display:none;}
	.st1{display:inline;}
	.st2{fill:#FFFFFF;}
</style>
<g id="_x34_2FiKe_1_" class="st0">
	<g class="st1">
		<path d="M7.229,7.897c0.43,0,0.766,0,1.102,0c7.634,0,15.268,0.009,22.902-0.016c0.704-0.002,1.197,0.202,1.688,0.696
			c1.459,1.467,2.981,2.871,4.444,4.335c0.256,0.256,0.484,0.682,0.485,1.03c0.024,11.095,0.018,22.19,0.013,33.285
			c0,0.129-0.041,0.257-0.073,0.44c-10.188,0-20.345,0-30.56,0C7.229,34.415,7.229,21.229,7.229,7.897z M9.96,10.613
			c0,11.492,0,22.907,0,34.349c8.425,0,16.786,0,25.161,0c0-10.078,0-20.097,0-30.169c-1.161,0-2.247-0.043-3.328,0.014
			c-0.78,0.041-1.106-0.172-1.048-1.012c0.072-1.038,0.017-2.085,0.017-3.183C23.789,10.613,16.917,10.613,9.96,10.613z"/>
		<path d="M43.036,41.57c-1.245,0-2.451,0-3.726,0c0-0.854,0-1.682,0-2.568c0.322-0.054,0.641-0.108,1.002-0.169
			c0-10.032,0-20.025,0-30.124c-1.426,0-2.8,0-4.278,0c0-1.441,0-2.78,0-4.19c-7.036,0-13.967,0-20.962,0
			c-0.027,0.624-0.053,1.218-0.082,1.865c-0.864,0-1.663,0-2.537,0c0-1.497,0-2.97,0-4.592c0.345,0,0.703,0,1.06,0
			c7.635,0,15.27,0.009,22.905-0.015c0.703-0.002,1.204,0.2,1.694,0.695c1.456,1.471,2.977,2.878,4.425,4.355
			c0.293,0.299,0.538,0.8,0.539,1.209c0.029,10.927,0.023,21.853,0.021,32.78C43.095,41.047,43.06,41.277,43.036,41.57z"/>
		<path d="M22.158,40.501c-2.578,0-5.156-0.006-7.735,0.004c-0.754,0.003-1.401-0.151-1.422-1.054
			c-0.022-0.968,0.668-1.143,1.452-1.144c5.19-0.001,10.381,0.002,15.571-0.002c0.76-0.001,1.42,0.212,1.435,1.074
			c0.016,0.924-0.649,1.135-1.465,1.129C27.382,40.489,24.77,40.501,22.158,40.501z"/>
		<path d="M22.503,28.51c2.576,0,5.153,0.005,7.729-0.003c0.772-0.003,1.467,0.086,1.52,1.066c0.042,0.775-0.452,1.132-1.564,1.134
			c-5.119,0.005-10.237-0.001-15.356,0.006c-0.784,0.001-1.458-0.144-1.535-1.082c-0.061-0.75,0.479-1.117,1.578-1.119
			C17.418,28.507,19.96,28.51,22.503,28.51z"/>
		<path d="M22.506,20.949c-2.61,0-5.22-0.014-7.83,0.009c-0.802,0.007-1.374-0.248-1.371-1.106c0.003-0.81,0.599-1.081,1.322-1.082
			c5.288-0.005,10.576-0.008,15.864,0.005c0.719,0.002,1.279,0.289,1.258,1.13c-0.021,0.842-0.568,1.053-1.31,1.049
			C27.794,20.942,25.15,20.949,22.506,20.949z"/>
		<path d="M22.56,26.026c-2.542,0-5.085-0.007-7.627,0.004c-0.801,0.004-1.549-0.062-1.634-1.076
			c-0.063-0.748,0.484-1.124,1.579-1.125c5.119-0.004,10.237,0.001,15.356-0.004c0.772-0.001,1.497,0.102,1.511,1.075
			c0.015,1.043-0.75,1.131-1.557,1.129C27.644,26.022,25.102,26.026,22.56,26.026z"/>
		<path d="M22.508,33.59c2.609,0,5.218,0.01,7.827-0.006c0.756-0.004,1.391,0.115,1.412,1.04c0.02,0.915-0.623,1.129-1.362,1.13
			c-5.218,0.01-10.436,0.007-15.654,0.004c-0.744,0-1.417-0.205-1.423-1.084c-0.007-0.944,0.666-1.101,1.475-1.093
			C17.358,33.606,19.933,33.59,22.508,33.59z"/>
	</g>
</g>
<g id="KF0PSZ_1_">
	<g>
		<path class="st2" d="M33.658,9.982c0-0.814,0-1.563,0-2.281c1.298,0,2.59-0.134,3.842,0.034c1.577,0.211,2.687,1.686,2.688,3.284
			c0.005,10.192,0.006,20.385,0,30.577c-0.001,1.921-1.549,3.413-3.523,3.415c-4.883,0.005-9.765,0.003-14.648,0.003
			c-2.876,0-5.751,0.009-8.626-0.011c-0.447-0.003-0.915-0.074-1.334-0.223c-1.374-0.486-2.245-1.756-2.246-3.212
			c-0.003-10.121-0.005-20.242,0-30.364c0.001-2.122,1.444-3.564,3.56-3.581c0.979-0.008,1.959-0.001,2.98-0.001
			c0,0.796,0,1.553,0,2.359c-0.814,0-1.607,0-2.401,0c-0.199,0-0.399-0.002-0.598,0.001c-0.794,0.01-1.178,0.39-1.179,1.18
			c-0.002,2.961-0.001,5.922-0.001,8.883c0,7.118,0.001,14.236,0.002,21.353c0,0.877,0.37,1.253,1.236,1.253
			c7.715,0,15.431,0,23.146-0.002c0.911,0,1.27-0.358,1.27-1.262c0.001-10.064,0.002-20.129,0.001-30.193
			c0-0.829-0.369-1.205-1.189-1.21C35.659,9.977,34.68,9.982,33.658,9.982z"/>
		<path class="st2" d="M25,10.937c-2.092,0-4.184,0.001-6.276,0c-0.907,0-1.235-0.328-1.237-1.231
			c-0.001-0.669-0.003-1.338,0.001-2.007c0.004-0.756,0.356-1.195,1.081-1.093c1.147,0.161,1.751-0.3,2.258-1.306
			c0.746-1.483,0.443-1.248,2.146-1.255c1.594-0.007,3.188,0.006,4.782-0.007c0.406-0.003,0.665,0.153,0.856,0.504
			c0.312,0.575,0.662,1.129,0.972,1.704c0.131,0.242,0.282,0.355,0.566,0.341c0.44-0.022,0.882-0.009,1.323-0.003
			c0.658,0.01,1.036,0.38,1.042,1.03c0.007,0.754,0.007,1.509-0.001,2.263c-0.007,0.67-0.392,1.055-1.065,1.056
			c-2.149,0.005-4.298,0.002-6.447,0.002C25,10.935,25,10.936,25,10.937z"/>
		<path class="st2" d="M28.588,16.894c-1.593,0-3.185,0.002-4.778-0.001c-0.678-0.001-1.091-0.381-1.081-0.984
			c0.01-0.571,0.42-0.92,1.094-0.92c3.214-0.003,6.428-0.005,9.642-0.005c0.666,0,1.077,0.363,1.076,0.938
			c-0.001,0.609-0.4,0.972-1.089,0.974c-1.621,0.004-3.242,0.001-4.863,0.001C28.588,16.897,28.588,16.896,28.588,16.894z"/>
		<path class="st2" d="M28.641,21.902c1.635,0,3.27-0.005,4.905,0.003c0.623,0.003,1.009,0.396,0.993,0.973
			c-0.015,0.556-0.403,0.932-0.998,0.934c-1.863,0.007-3.725,0.004-5.588,0.004c-1.379,0-2.758,0-4.137-0.004
			c-0.679-0.002-1.092-0.378-1.086-0.982c0.005-0.568,0.418-0.922,1.091-0.923c1.607-0.003,3.213-0.001,4.82-0.001
			C28.641,21.904,28.641,21.903,28.641,21.902z"/>
		<path class="st2" d="M28.648,30.73c-1.635,0-3.27,0.006-4.905-0.003c-0.805-0.005-1.276-0.797-0.877-1.454
			c0.204-0.336,0.515-0.454,0.903-0.454c2.716,0.005,5.431,0.001,8.147,0c0.554,0,1.109-0.01,1.663,0.004
			c0.603,0.015,0.971,0.392,0.96,0.958c-0.01,0.557-0.398,0.945-0.985,0.947C31.918,30.736,30.283,30.731,28.648,30.73z"/>
		<path class="st2" d="M28.644,35.737c1.649,0,3.298-0.009,4.947,0.004c0.645,0.005,1.022,0.47,0.942,1.096
			c-0.063,0.487-0.46,0.809-1.037,0.81c-1.934,0.005-3.867,0.003-5.801,0.003c-1.322,0-2.644,0.003-3.967-0.004
			c-0.493-0.003-0.829-0.253-0.96-0.694c-0.122-0.413-0.008-0.784,0.339-1.016c0.196-0.131,0.474-0.188,0.716-0.19
			C25.431,35.729,27.038,35.737,28.644,35.737z"/>
		<path class="st2" d="M15.461,36.618c0-0.483-0.006-0.966,0.001-1.449c0.009-0.624,0.418-1.034,1.047-1.039
			c0.995-0.008,1.989-0.011,2.984-0.003c0.62,0.005,1.04,0.422,1.048,1.043c0.012,0.98,0.013,1.961,0.008,2.941
			c-0.003,0.687-0.411,1.134-1.097,1.151c-0.966,0.024-1.933,0.026-2.899-0.003c-0.714-0.022-1.096-0.468-1.098-1.192
			c-0.001-0.483,0-0.966,0-1.449C15.457,36.618,15.459,36.618,15.461,36.618z M17.953,38.232c0.44,0,0.88-0.007,1.32,0.003
			c0.221,0.005,0.3-0.082,0.298-0.3c-0.008-0.837-0.008-1.675-0.001-2.512c0.002-0.238-0.096-0.332-0.327-0.33
			c-0.823,0.006-1.646,0.009-2.469,0.003c-0.257-0.002-0.349,0.108-0.347,0.359c0.007,0.809,0.01,1.618-0.005,2.427
			c-0.005,0.291,0.118,0.366,0.382,0.355C17.186,38.222,17.57,38.233,17.953,38.232z"/>
		<path class="st2" d="M20.55,29.791c0,0.469,0.003,0.938-0.001,1.407c-0.006,0.683-0.424,1.137-1.097,1.148
			c-0.966,0.016-1.933,0.017-2.899-0.002c-0.681-0.014-1.094-0.466-1.095-1.15c-0.002-0.966-0.001-1.933,0.004-2.899
			c0.004-0.669,0.418-1.081,1.092-1.085c0.966-0.005,1.933-0.006,2.899-0.002c0.663,0.003,1.083,0.422,1.092,1.091
			c0.007,0.497,0.001,0.995,0.001,1.492C20.547,29.791,20.548,29.791,20.55,29.791z M19.566,31.351c0-1.02-0.002-1.957,0.001-2.894
			c0.001-0.274-0.184-0.28-0.377-0.28c-0.797,0.001-1.594,0.008-2.391,0.001c-0.273-0.003-0.381,0.101-0.374,0.378
			c0.013,0.569,0.002,1.139,0.004,1.708c0.004,1.044,0.005,1.054,1.025,1.083C18.145,31.367,18.838,31.351,19.566,31.351z"/>
		<path class="st2" d="M15.459,22.845c0-0.497-0.004-0.995,0.001-1.492c0.007-0.633,0.437-1.058,1.078-1.061
			c0.981-0.005,1.961-0.007,2.942-0.001c0.611,0.004,1.056,0.432,1.063,1.036c0.011,1.009,0.01,2.018,0.002,3.027
			c-0.005,0.605-0.431,1.06-1.036,1.071c-1.009,0.02-2.019,0.022-3.027-0.002c-0.603-0.014-1.018-0.483-1.024-1.087
			c-0.005-0.497-0.001-0.995-0.001-1.492C15.458,22.845,15.458,22.845,15.459,22.845z M19.568,22.896
			c0-0.413-0.014-0.826,0.005-1.238c0.014-0.299-0.104-0.405-0.396-0.4c-0.783,0.012-1.566,0.013-2.349,0.003
			c-0.286-0.004-0.411,0.086-0.406,0.392c0.015,0.797,0.014,1.594-0.003,2.391c-0.006,0.305,0.121,0.402,0.402,0.399
			c0.783-0.008,1.566-0.012,2.348-0.001c0.32,0.005,0.421-0.127,0.402-0.436C19.55,23.637,19.568,23.266,19.568,22.896z"/>
		<path class="st2" d="M15.458,15.953c0-0.512-0.006-1.023,0.001-1.535c0.008-0.577,0.441-1.034,1.016-1.042
			c1.009-0.014,2.018-0.011,3.027-0.001c0.597,0.006,1.037,0.454,1.042,1.061c0.009,1.009,0.008,2.018-0.003,3.027
			c-0.006,0.584-0.427,1.033-1.011,1.044c-1.023,0.02-2.047,0.022-3.07,0c-0.576-0.013-0.993-0.485-1.002-1.062
			c-0.004-0.256,0-0.512,0.001-0.767c0-0.242,0-0.483,0-0.725C15.459,15.953,15.459,15.953,15.458,15.953z M19.567,15.949
			c0.001,0,0.001,0,0.002,0c0-0.397-0.013-0.795,0.004-1.192c0.012-0.284-0.077-0.418-0.381-0.413
			c-0.795,0.012-1.589,0.009-2.384,0.003c-0.26-0.002-0.389,0.082-0.385,0.368c0.012,0.809,0.011,1.618-0.001,2.427
			c-0.004,0.269,0.09,0.393,0.365,0.391c0.809-0.006,1.618-0.01,2.426-0.003c0.281,0.002,0.369-0.121,0.358-0.389
			C19.555,16.744,19.567,16.346,19.567,15.949z"/>
	</g>
</g>
</svg>
