<?xml version="1.0" encoding="utf-8"?>
<!-- Generator: Adobe Illustrator 23.0.3, SVG Export Plug-In . SVG Version: 6.00 Build 0)  -->
<svg version="1.1" id="Layer_1" xmlns="http://www.w3.org/2000/svg" xmlns:xlink="http://www.w3.org/1999/xlink" x="0px" y="0px"
	 viewBox="0 0 50 50" style="enable-background:new 0 0 50 50;" xml:space="preserve">
<style type="text/css">
	.st0{fill:#FFFFFF;}
</style>
<g>
	<ellipse class="st0" cx="24.523" cy="14.09" rx="8.685" ry="8.685"/>
	<path class="st0" d="M24.524,24.895c-7.838,0-14.192,3.888-14.192,8.685v9.214h8.465l0,0c0.277,0.544,0.635,1.045,1.111,1.467
		c0.58,0.516,1.285,0.909,2.106,1.175v1.769h1.911h1.693h1.911v-1.776c0.646-0.225,1.219-0.54,1.713-0.943
		c0.585-0.476,1.011-1.051,1.293-1.694c0,0.001,0,0.002-0.001,0.002h8.181V33.58C38.716,28.783,32.362,24.895,24.524,24.895z
		 M29.078,36.879h-3.196V36.7c0-0.43-0.098-0.76-0.292-0.982c-0.19-0.218-0.459-0.323-0.822-0.323c-0.321,0-0.57,0.08-0.739,0.237
		c-0.167,0.157-0.249,0.371-0.249,0.656c0,0.286,0.094,0.506,0.29,0.671c0.217,0.184,0.579,0.365,1.076,0.537
		c0.518,0.181,1.018,0.371,1.484,0.568c0.473,0.199,0.888,0.43,1.234,0.684c0.355,0.262,0.637,0.572,0.838,0.921
		c0.205,0.355,0.309,0.786,0.309,1.278c0,0.837-0.329,1.529-0.977,2.056c-0.6,0.49-1.412,0.789-2.415,0.891v1.397h-1.693v-1.405
		c-1.176-0.125-2.101-0.481-2.749-1.057c-0.689-0.612-1.038-1.428-1.038-2.426v-0.179h3.188v0.179c0,0.477,0.121,0.824,0.369,1.064
		c0.247,0.238,0.61,0.358,1.08,0.358c0.336,0,0.599-0.079,0.782-0.236c0.178-0.151,0.265-0.357,0.265-0.63
		c0-0.314-0.089-0.55-0.272-0.722c-0.198-0.187-0.563-0.37-1.084-0.544c-0.553-0.185-1.068-0.374-1.53-0.561
		c-0.474-0.191-0.891-0.418-1.24-0.674c-0.356-0.262-0.633-0.571-0.823-0.917c-0.193-0.351-0.291-0.777-0.291-1.269
		c0-0.828,0.345-1.52,1.026-2.055c0.63-0.495,1.465-0.798,2.484-0.9v-1.465h1.693v1.5c0.987,0.144,1.779,0.501,2.36,1.062
		c0.619,0.598,0.932,1.367,0.932,2.284C29.078,36.698,29.078,36.879,29.078,36.879z"/>
	<polygon class="st0" points="6.383,10.251 13.055,10.251 13.055,3.579 10.88,5.754 7.921,2.796 5.6,5.118 8.558,8.076 	"/>
	<polygon class="st0" points="41.129,8.076 44.087,5.118 41.765,2.796 38.807,5.754 36.632,3.579 36.632,10.251 43.304,10.251 	"/>
	<polygon class="st0" points="12.442,21.717 7.724,16.999 7.724,20.076 3.54,20.076 3.54,23.359 7.724,23.359 7.724,26.435 	"/>
	<polygon class="st0" points="42.15,20.076 42.15,16.999 37.432,21.717 42.15,26.435 42.15,23.359 46.333,23.359 46.333,20.076 	"/>
</g>
</svg>
