<?xml version="1.0" encoding="utf-8"?>
<!-- Generator: Adobe Illustrator 24.0.3, SVG Export Plug-In . SVG Version: 6.00 Build 0)  -->
<svg version="1.1" id="Layer_1" xmlns="http://www.w3.org/2000/svg" xmlns:xlink="http://www.w3.org/1999/xlink" x="0px" y="0px"
	 viewBox="0 0 50 50" style="enable-background:new 0 0 50 50;" xml:space="preserve">
<style type="text/css">
	.st0{fill:#FFFFFF;}
</style>
<g>
	<path class="st0" d="M45.997,12.803c-0.002-0.525-0.091-1.069-0.243-1.572c-0.638-2.105-2.583-3.525-4.783-3.526
		c-5.335-0.003-10.67-0.002-16.005,0.002c-0.312,0-0.627,0.029-0.935,0.075c-2.608,0.383-4.387,2.446-4.388,5.077
		c0,2.14,0,4.28,0,6.421c0,0.672-0.001,0.674-0.676,0.675c-3.352,0.001-6.704-0.014-10.056,0.012
		c-0.682,0.005-1.395,0.061-2.039,0.267c-2.095,0.668-3.469,2.635-3.469,4.835c-0.001,3.95-0.009,7.9,0.01,11.85
		c0.002,0.51,0.103,1.034,0.246,1.525c0.553,1.891,2.49,3.513,4.905,3.497c4.768-0.034,9.537-0.006,14.305-0.016
		c0.389-0.001,0.681,0.11,0.968,0.378c1.355,1.269,2.734,2.513,4.092,3.778c0.384,0.358,0.805,0.506,1.288,0.297
		c0.47-0.203,0.554-0.626,0.553-1.1c-0.007-4.013-0.003-8.026-0.004-12.039c0-0.771-0.363-1.185-1.026-1.177
		c-0.634,0.007-0.976,0.416-0.977,1.172c0,3.084,0,6.169,0,9.253c0,0.18,0,0.359,0,0.674c-0.251-0.204-0.398-0.311-0.531-0.433
		c-0.846-0.776-1.696-1.549-2.531-2.338c-0.365-0.345-0.773-0.49-1.277-0.489c-4.989,0.01-9.977,0.007-14.966,0.005
		c-1.672,0-3.034-1.291-3.043-2.961c-0.022-3.982-0.024-7.963,0.001-11.945c0.011-1.704,1.402-3.02,3.102-3.022
		c3.509-0.003,7.019,0.008,10.528-0.012c0.472-0.002,0.609,0.112,0.606,0.598c-0.022,3.462-0.006,6.924-0.017,10.387
		c-0.002,0.534,0.114,0.965,0.635,1.202c0.516,0.234,0.907-0.006,1.273-0.341c1.347-1.231,2.7-2.457,4.039-3.697
		c0.293-0.272,0.592-0.401,1.005-0.4c4.768,0.014,9.537,0.01,14.305,0.009c2.875-0.001,5.112-2.241,5.113-5.118
		C46.009,20.671,46.017,16.737,45.997,12.803z M43.992,24.679c-0.011,1.739-1.388,3.034-3.137,3.035
		c-4.832,0.003-9.663,0.012-14.495-0.01c-0.78-0.003-1.4,0.243-1.957,0.761c-0.737,0.686-1.493,1.351-2.244,2.022
		c-0.121,0.108-0.259,0.196-0.507,0.381c0-0.334,0-0.53,0-0.726c0-5.744,0-11.489,0-17.233c0-1.788,1.306-3.181,3.09-3.189
		c5.414-0.023,10.828-0.021,16.242,0c1.671,0.006,3,1.344,3.009,3.015C44.016,16.716,44.018,20.698,43.992,24.679z"/>
	<path class="st0" d="M32.431,13.748c-1.475,0.162-2.724,1.584-2.683,3.054c0.016,0.586,0.4,1,0.952,1.027
		c0.556,0.027,0.977-0.347,1.053-0.923c0.024-0.184,0.05-0.38,0.131-0.543c0.207-0.414,0.55-0.635,1.027-0.613
		c0.478,0.022,0.789,0.286,0.97,0.707c0.188,0.437-0.032,0.757-0.345,1.034c-0.271,0.24-0.555,0.465-0.82,0.711
		c-0.572,0.531-1.11,1.084-1.101,2.007c-0.008,0.542,0.271,0.935,0.764,1.015c0.547,0.089,0.986-0.19,1.176-0.646
		c0.137-0.331,0.348-0.646,0.584-0.918c0.245-0.282,0.572-0.492,0.843-0.755c0.768-0.745,1.141-1.617,0.93-2.717
		C35.616,14.648,34.101,13.564,32.431,13.748z"/>
	<path class="st0" d="M32.614,22.34c-0.545,0.005-0.972,0.439-0.977,0.992c-0.004,0.576,0.434,1.016,1.005,1.009
		c0.537-0.007,0.986-0.455,0.993-0.991C33.643,22.799,33.173,22.335,32.614,22.34z"/>
	<path class="st0" d="M18.126,34.518c0.19-0.162,0.34-0.369,0.45-0.621s0.176-0.516,0.2-0.793c0.024-0.276,0.002-0.547-0.064-0.814
		c-0.067-0.267-0.181-0.495-0.343-0.686c-0.295-0.343-0.626-0.604-0.993-0.786c-0.367-0.181-0.76-0.352-1.179-0.514
		c0.009-0.314,0.014-0.652,0.014-1.014c0-0.362,0-0.7,0-1.014c0.114,0.038,0.226,0.081,0.335,0.129s0.219,0.093,0.328,0.136
		c0.109,0.043,0.221,0.074,0.335,0.093c0.114,0.019,0.233,0.019,0.357,0c0.21-0.038,0.364-0.112,0.464-0.221
		c0.1-0.109,0.155-0.231,0.164-0.364c0.009-0.133-0.021-0.274-0.093-0.421s-0.174-0.278-0.307-0.393
		c-0.21-0.19-0.457-0.333-0.743-0.429c-0.285-0.095-0.562-0.176-0.828-0.243c0-0.219,0-0.438,0-0.657
		c0-0.219-0.043-0.433-0.128-0.643c-0.057-0.133-0.136-0.24-0.236-0.322c-0.1-0.081-0.207-0.136-0.322-0.164
		c-0.114-0.029-0.233-0.026-0.357,0.007c-0.124,0.034-0.233,0.107-0.328,0.221c-0.086,0.095-0.15,0.205-0.193,0.328
		c-0.043,0.124-0.071,0.252-0.086,0.385s-0.021,0.269-0.021,0.407c0,0.138,0,0.264,0,0.379c-0.352,0.057-0.705,0.193-1.057,0.407
		c-0.352,0.215-0.648,0.476-0.886,0.786s-0.388,0.648-0.45,1.014c-0.062,0.367,0.016,0.736,0.236,1.107
		c0.238,0.4,0.552,0.719,0.943,0.957c0.39,0.238,0.79,0.452,1.2,0.643c0,0.333-0.002,0.693-0.007,1.079
		c-0.005,0.385-0.007,0.745-0.007,1.079c-0.048-0.019-0.105-0.045-0.171-0.079c-0.067-0.033-0.124-0.064-0.171-0.093
		c-0.086-0.057-0.169-0.124-0.25-0.2c-0.081-0.076-0.164-0.152-0.25-0.228s-0.174-0.143-0.264-0.2
		c-0.091-0.057-0.193-0.09-0.307-0.1c-0.21-0.029-0.381-0.002-0.514,0.079c-0.133,0.081-0.233,0.191-0.3,0.328
		c-0.067,0.138-0.093,0.291-0.078,0.457c0.014,0.167,0.064,0.322,0.15,0.464c0.276,0.333,0.595,0.619,0.957,0.857
		c0.362,0.238,0.757,0.41,1.186,0.514c0,0.219-0.002,0.457-0.007,0.714c-0.005,0.257,0.064,0.481,0.207,0.671
		c0.105,0.143,0.233,0.233,0.385,0.272c0.152,0.038,0.302,0.036,0.45-0.007c0.148-0.043,0.278-0.119,0.393-0.228
		c0.114-0.109,0.186-0.241,0.214-0.393c0.029-0.143,0.041-0.305,0.036-0.486c-0.005-0.181-0.007-0.338-0.007-0.471
		c0.362-0.086,0.705-0.2,1.029-0.343C17.536,34.961,17.84,34.766,18.126,34.518z M14.541,29.647
		c-0.171-0.114-0.307-0.212-0.407-0.293c-0.1-0.081-0.178-0.155-0.236-0.221c-0.057-0.066-0.095-0.133-0.114-0.2
		c-0.019-0.066-0.034-0.143-0.043-0.228c0.048-0.105,0.131-0.21,0.25-0.314c0.119-0.105,0.302-0.157,0.55-0.157L14.541,29.647
		L14.541,29.647z M16.998,33.304c-0.086,0.133-0.267,0.262-0.543,0.385c-0.048,0.019-0.093,0.036-0.136,0.05
		c-0.043,0.014-0.088,0.031-0.136,0.05c0-0.248,0.002-0.519,0.007-0.814c0.005-0.295,0.007-0.566,0.007-0.814
		c0.219,0.114,0.405,0.233,0.557,0.357c0.152,0.124,0.252,0.252,0.3,0.385C17.103,33.038,17.084,33.171,16.998,33.304z"/>
</g>
</svg>
