<?xml version="1.0" encoding="utf-8"?>
<!-- Generator: Adobe Illustrator 22.1.0, SVG Export Plug-In . SVG Version: 6.00 Build 0)  -->
<svg version="1.1" id="Layer_1" xmlns="http://www.w3.org/2000/svg" xmlns:xlink="http://www.w3.org/1999/xlink" x="0px" y="0px"
	 viewBox="0 0 50 50" style="enable-background:new 0 0 50 50;" xml:space="preserve">
<style type="text/css">
	.st0{display:none;}
	.st1{display:inline;}
	.st2{fill:#FFFFFF;}
</style>
<g id="_x34_2FiKe_1_" class="st0">
	<g class="st1">
		<path d="M7.229,7.897c0.43,0,0.766,0,1.102,0c7.634,0,15.268,0.009,22.902-0.016c0.704-0.002,1.197,0.202,1.688,0.696
			c1.459,1.467,2.981,2.871,4.444,4.335c0.256,0.256,0.484,0.682,0.485,1.03c0.024,11.095,0.018,22.19,0.013,33.285
			c0,0.129-0.041,0.257-0.073,0.44c-10.188,0-20.345,0-30.56,0C7.229,34.415,7.229,21.229,7.229,7.897z M9.96,10.613
			c0,11.492,0,22.907,0,34.349c8.425,0,16.786,0,25.161,0c0-10.078,0-20.097,0-30.169c-1.161,0-2.247-0.043-3.328,0.014
			c-0.78,0.041-1.106-0.172-1.048-1.012c0.072-1.038,0.017-2.085,0.017-3.183C23.789,10.613,16.917,10.613,9.96,10.613z"/>
		<path d="M43.036,41.57c-1.245,0-2.451,0-3.726,0c0-0.854,0-1.682,0-2.568c0.322-0.054,0.641-0.108,1.002-0.169
			c0-10.032,0-20.025,0-30.124c-1.426,0-2.8,0-4.278,0c0-1.441,0-2.78,0-4.19c-7.036,0-13.967,0-20.962,0
			c-0.027,0.624-0.053,1.218-0.082,1.865c-0.864,0-1.663,0-2.537,0c0-1.497,0-2.97,0-4.592c0.345,0,0.703,0,1.06,0
			c7.635,0,15.27,0.009,22.905-0.015c0.703-0.002,1.204,0.2,1.694,0.695c1.456,1.471,2.977,2.878,4.425,4.355
			c0.293,0.299,0.538,0.8,0.539,1.209c0.029,10.927,0.023,21.853,0.021,32.78C43.095,41.047,43.06,41.277,43.036,41.57z"/>
		<path d="M22.158,40.501c-2.578,0-5.156-0.006-7.735,0.004c-0.754,0.003-1.401-0.151-1.422-1.054
			c-0.022-0.968,0.668-1.143,1.452-1.144c5.19-0.001,10.381,0.002,15.571-0.002c0.76-0.001,1.42,0.212,1.435,1.074
			c0.016,0.924-0.649,1.135-1.465,1.129C27.382,40.489,24.77,40.501,22.158,40.501z"/>
		<path d="M22.503,28.51c2.576,0,5.153,0.005,7.729-0.003c0.772-0.003,1.467,0.086,1.52,1.066c0.042,0.775-0.452,1.132-1.564,1.134
			c-5.119,0.005-10.237-0.001-15.356,0.006c-0.784,0.001-1.458-0.144-1.535-1.082c-0.061-0.75,0.479-1.117,1.578-1.119
			C17.418,28.507,19.96,28.51,22.503,28.51z"/>
		<path d="M22.506,20.949c-2.61,0-5.22-0.014-7.83,0.009c-0.802,0.007-1.374-0.248-1.371-1.106c0.003-0.81,0.599-1.081,1.322-1.082
			c5.288-0.005,10.576-0.008,15.864,0.005c0.719,0.002,1.279,0.289,1.258,1.13c-0.021,0.842-0.568,1.053-1.31,1.049
			C27.794,20.942,25.15,20.949,22.506,20.949z"/>
		<path d="M22.56,26.026c-2.542,0-5.085-0.007-7.627,0.004c-0.801,0.004-1.549-0.062-1.634-1.076
			c-0.063-0.748,0.484-1.124,1.579-1.125c5.119-0.004,10.237,0.001,15.356-0.004c0.772-0.001,1.497,0.102,1.511,1.075
			c0.015,1.043-0.75,1.131-1.557,1.129C27.644,26.022,25.102,26.026,22.56,26.026z"/>
		<path d="M22.508,33.59c2.609,0,5.218,0.01,7.827-0.006c0.756-0.004,1.391,0.115,1.412,1.04c0.02,0.915-0.623,1.129-1.362,1.13
			c-5.218,0.01-10.436,0.007-15.654,0.004c-0.744,0-1.417-0.205-1.423-1.084c-0.007-0.944,0.666-1.101,1.475-1.093
			C17.358,33.606,19.933,33.59,22.508,33.59z"/>
	</g>
</g>
<g>
	<path class="st2" d="M40.886,9.688c-0.503-0.085-1.009-0.144-1.64-0.231c0-0.602,0.012-1.198-0.003-1.792
		c-0.018-0.732-0.335-1.041-1.051-1.012c-4.622,0.187-9.243,0.383-13.865,0.57c-0.523,0.022-1.047,0.003-1.613,0.003
		c-0.031-1.141,0.101-2.311-0.575-3.332c-0.686-1.039-1.633-1.633-2.887-1.716c-0.901-0.059-1.71,0.188-2.429,0.73
		c-1.162,0.875-1.517,2.107-1.466,3.545c-0.802-0.092-1.534-0.192-2.268-0.255c-0.612-0.052-0.871,0.169-0.988,0.773
		c-0.044,0.238-0.083,0.477-0.146,0.838c-0.77,0-1.527-0.012-2.284,0.003C8.817,7.828,8.546,8.149,8.582,8.996
		c0.098,2.222,0.18,4.445,0.272,6.668c0.125,3.07,0.258,6.138,0.378,9.208c0.052,1.322,0.236,2.663,0.092,3.966
		c-0.512,4.611-1.142,9.207-1.724,13.81c-0.082,0.648,0.184,0.982,0.851,1.086c0.503,0.078,1.006,0.141,1.535,0.214
		c0.036,0.663,0.059,1.294,0.107,1.925c0.048,0.637,0.355,0.919,0.998,0.894c3.722-0.148,7.446-0.272,11.165-0.469
		c3.074-0.163,6.13-0.201,9.18,0.331c1.544,0.269,3.113,0.411,4.672,0.584c0.705,0.078,0.955-0.148,1.08-0.848
		c0.036-0.204,0.067-0.41,0.122-0.751c0.802,0,1.593,0.012,2.383-0.003c0.776-0.015,1.061-0.31,1.041-1.07
		c-0.021-0.794-0.066-1.588-0.097-2.381c-0.202-4.992-0.405-9.985-0.606-14.977c-0.036-0.899-0.161-1.809-0.068-2.697
		c0.267-2.56,0.624-5.112,0.946-7.667c0.256-2.03,0.518-4.06,0.767-6.09C41.749,10.126,41.488,9.791,40.886,9.688z M17.025,5.941
		c0.043-1.269,0.859-2.113,2.035-2.105c1.155,0.008,1.969,0.888,1.972,2.158c0.006,2.33,0.006,4.66,0.002,6.99
		c-0.001,0.638-0.391,1.002-0.906,0.853c-0.438-0.126-0.513-0.474-0.512-0.875c0.005-2.065,0.003-4.131,0.001-6.195
		c0-0.159,0.008-0.321-0.025-0.474c-0.095-0.452-0.369-0.732-0.846-0.708c-0.468,0.024-0.737,0.296-0.786,0.77
		c-0.011,0.105-0.016,0.21-0.026,0.347C17.067,6.796,16.998,6.736,17.025,5.941z M35.621,45.482
		c-8.775-1.104-17.498-2.201-26.279-3.305c1.436-11.422,2.866-22.791,4.306-34.233c0.867,0.101,1.7,0.195,2.533,0.294
		c0.438,0.053,0.872,0.148,1.311,0.166c0.374,0.015,0.472,0.161,0.468,0.519c-0.017,1.36-0.006,2.719-0.005,4.079
		c0.001,1.45,0.957,2.503,2.288,2.525c1.412,0.023,2.438-1,2.457-2.479c0.016-1.303,0.003-2.607,0.003-3.982
		c5.751,0.723,11.445,1.439,17.226,2.165C38.491,22.668,37.061,34.037,35.621,45.482z"/>
	<path class="st2" d="M24.433,25.15c3.06,0.388,6.12,0.774,9.18,1.155c0.995,0.124,1.716-0.634,1.542-1.622
		c-0.327-1.859-1.31-3.279-2.896-4.294c-0.687-0.44-0.716-0.776-0.107-1.302c0.736-0.637,1.101-1.446,1.149-2.327
		c0.01-1.436-0.869-2.678-2.149-3.118c-1.269-0.437-2.701-0.024-3.529,1.018c-0.846,1.065-0.923,2.566-0.19,3.71
		c0.579,0.905,0.514,1.062-0.526,1.436c-1.656,0.594-2.881,1.679-3.632,3.275C22.791,24.114,23.297,25.005,24.433,25.15z"/>
	<path class="st2" d="M33.212,36.715c-2.448-0.319-4.897-0.626-7.346-0.937c-1.68-0.213-3.359-0.425-5-0.631
		c-0.586-0.021-0.96,0.283-0.989,0.77c-0.03,0.499,0.3,0.827,0.899,0.902c4.06,0.508,8.119,1.017,12.179,1.527
		c0.613,0.077,1.038-0.188,1.102-0.698C34.119,37.147,33.821,36.795,33.212,36.715z"/>
	<path class="st2" d="M13.791,32.16c2.779,0.352,5.559,0.7,8.339,1.047c0.944,0.118,1.888,0.233,2.834,0.335
		c0.396,0.042,0.74-0.135,0.815-0.516c0.054-0.271-0.009-0.654-0.176-0.855c-0.161-0.193-0.519-0.268-0.802-0.307
		c-1.57-0.214-3.145-0.403-4.719-0.599c-2.063-0.256-4.127-0.511-6.283-0.778c-0.403-0.019-0.783,0.293-0.819,0.755
		C12.94,31.74,13.241,32.089,13.791,32.16z"/>
	<path class="st2" d="M23.028,39.208c-0.086-0.018-0.175-0.022-0.263-0.032c-3.238-0.405-6.476-0.81-9.714-1.219
		c-0.617-0.078-1.049,0.171-1.122,0.672c-0.073,0.513,0.254,0.885,0.873,0.966c1.854,0.242,3.708,0.481,5.564,0.715
		c1.487,0.188,2.977,0.366,4.423,0.545c0.576,0.014,0.934-0.258,0.987-0.718C23.827,39.677,23.539,39.315,23.028,39.208z"/>
	<path class="st2" d="M20.265,29.177c1.924,0.249,3.848,0.491,5.773,0.726c0.518,0.064,0.93-0.262,0.979-0.741
		c0.046-0.454-0.265-0.832-0.766-0.909c-0.418-0.064-0.839-0.112-1.259-0.164c-1.539-0.193-3.079-0.385-4.596-0.575
		c-0.546-0.011-0.901,0.276-0.946,0.743C19.406,28.741,19.713,29.105,20.265,29.177z"/>
	<path class="st2" d="M34.173,33.035c-1.868-0.242-3.739-0.469-5.654-0.707c-0.419-0.022-0.785,0.266-0.857,0.713
		c-0.07,0.431,0.206,0.83,0.672,0.921c0.379,0.073,0.766,0.112,1.15,0.161c1.484,0.19,2.968,0.384,4.454,0.563
		c0.516,0.063,0.904-0.226,0.972-0.677C34.984,33.512,34.695,33.102,34.173,33.035z"/>
	<path class="st2" d="M29.71,28.683c-0.605-0.023-0.987,0.276-1.029,0.753c-0.039,0.444,0.28,0.816,0.787,0.902
		c0.191,0.032,0.386,0.041,0.578,0.066c1.453,0.185,2.904,0.376,4.357,0.553c0.519,0.064,0.933-0.255,0.993-0.731
		c0.054-0.429-0.24-0.841-0.706-0.905C33.012,29.097,31.33,28.89,29.71,28.683z"/>
	<path class="st2" d="M13.147,35.855c1.522,0.201,3.046,0.385,4.448,0.56c0.656,0.031,1.024-0.23,1.089-0.683
		c0.068-0.467-0.228-0.867-0.78-0.944c-1.52-0.213-3.043-0.405-4.566-0.585c-0.497-0.058-0.881,0.267-0.94,0.726
		C12.339,35.383,12.647,35.789,13.147,35.855z"/>
	<path class="st2" d="M14.195,28.411c0.925,0.131,1.854,0.249,2.782,0.349c0.529,0.057,0.906-0.225,0.976-0.676
		c0.077-0.492-0.212-0.898-0.745-0.974c-0.942-0.134-1.89-0.238-2.749-0.343c-0.698-0.04-1.072,0.216-1.134,0.712
		C13.267,27.954,13.596,28.327,14.195,28.411z"/>
</g>
</svg>
