<?xml version="1.0" encoding="utf-8"?>
<!-- Generator: Adobe Illustrator 22.1.0, SVG Export Plug-In . SVG Version: 6.00 Build 0)  -->
<svg version="1.1" id="Layer_1" xmlns="http://www.w3.org/2000/svg" xmlns:xlink="http://www.w3.org/1999/xlink" x="0px" y="0px"
	 viewBox="0 0 50 50" style="enable-background:new 0 0 50 50;" xml:space="preserve">
<style type="text/css">
	.st0{fill:#FFFFFF;}
</style>
<g>
	<path class="st0" d="M26.304,12.438c-0.283-0.316-0.249-0.914-0.249-1.58c0,0-0.216-0.881-1.48-0.881
		c-1.264,0-1.313,0.881-1.313,0.881c0,0.665,0.033,1.264-0.249,1.58c-0.284,0.316-0.434,0.383-0.434,0.383v0.682h2.028h0.1h2.028
		v-0.682C26.736,12.822,26.586,12.755,26.304,12.438z"/>
	<path class="st0" d="M23.747,14.143c0.31,0,0.561-0.216,0.561-0.483h-1.123C23.186,13.927,23.437,14.143,23.747,14.143z"/>
	<path class="st0" d="M43.459,42.048V30.49h-9.961v11.557h-1.336V29.154h0.82v-1.38l-8.323-6.253l-8.323,6.253v1.38h0.82v12.894
		h-1.336V30.49H5.855v11.557H4.346v1.725h20.052h0.518h20.052v-1.725H43.459z M10.081,39.849H7.062v-3.191h3.019V39.849z
		 M10.081,35.018H7.062v-3.192h3.019V35.018z M14.35,39.849h-3.019v-3.191h3.019V39.849z M14.35,35.018h-3.019v-3.192h3.019V35.018z
		 M24.097,41.962h-3.539v-7.073h3.539V41.962z M24.657,32.064c-1.56,0-2.825-1.265-2.825-2.825c0-1.56,1.265-2.825,2.825-2.825
		c1.56,0,2.825,1.265,2.825,2.825C27.482,30.8,26.217,32.064,24.657,32.064z M28.755,41.962h-3.539v-7.073h3.539V41.962z
		 M37.984,39.849h-3.019v-3.191h3.019V39.849z M37.984,35.018h-3.019v-3.192h3.019V35.018z M42.253,39.849h-3.019v-3.191h3.019
		V39.849z M42.253,35.018h-3.019v-3.192h3.019V35.018z"/>
	<path class="st0" d="M26.781,29.456c0-0.191-0.154-0.345-0.345-0.345h-1.595V27.71c0-0.191-0.154-0.345-0.345-0.345
		c-0.191,0-0.345,0.154-0.345,0.345v1.746c0,0.191,0.154,0.345,0.345,0.345h1.94C26.627,29.801,26.781,29.646,26.781,29.456z"/>
	<path class="st0" d="M14.983,27.281l4.226-3.187l5.448-4.109l5.448,4.109l4.226,3.187v2.016h10.407V17.625h-4.226h-6.181h-4.226
		v3.192h-0.69V8.994h0.712V7.311h-0.794l-4.345-2.258V4.107c0.129-0.057,0.306-0.133,0.497-0.21
		c0.382-0.153,0.613,0.039,1.282,0.268s0.956,0.172,1.76,0.039c0.804-0.134,1.895-1.53,1.895-1.53s-0.172,0.057-0.67,0.172
		c-0.498,0.115-2.545-0.995-3.233-1.282c-0.485-0.202-1.153-0.044-1.53,0.067V0.835h-0.787v4.283l-4.219,2.193h-0.831v1.682h0.747
		v11.823h-0.69v-3.192h-4.226H8.802H4.576v11.672h10.407C14.983,29.297,14.983,27.281,14.983,27.281z M21.057,8.994h7.202v6.167
		h-7.202V8.994z"/>
	<rect x="18.189" y="44.412" class="st0" width="12.937" height="0.991"/>
	<rect x="19.596" y="45.986" class="st0" width="10.122" height="0.776"/>
</g>
</svg>
