<?xml version="1.0" encoding="utf-8"?>
<!-- Generator: Adobe Illustrator 22.1.0, SVG Export Plug-In . SVG Version: 6.00 Build 0)  -->
<svg version="1.1" id="Layer_1" xmlns="http://www.w3.org/2000/svg" xmlns:xlink="http://www.w3.org/1999/xlink" x="0px" y="0px"
	 viewBox="0 0 50 50" style="enable-background:new 0 0 50 50;" xml:space="preserve">
<style type="text/css">
	.st0{display:none;}
	.st1{display:inline;}
	.st2{fill:#FFFFFF;}
</style>
<g id="_x34_2FiKe_1_" class="st0">
	<g class="st1">
		<path d="M7.229,7.897c0.43,0,0.766,0,1.102,0c7.634,0,15.268,0.009,22.902-0.016c0.704-0.002,1.197,0.202,1.688,0.696
			c1.459,1.467,2.981,2.871,4.444,4.335c0.256,0.256,0.484,0.682,0.485,1.03c0.024,11.095,0.018,22.19,0.013,33.285
			c0,0.129-0.041,0.257-0.073,0.44c-10.188,0-20.345,0-30.56,0C7.229,34.415,7.229,21.229,7.229,7.897z M9.96,10.613
			c0,11.492,0,22.907,0,34.349c8.425,0,16.786,0,25.161,0c0-10.078,0-20.097,0-30.169c-1.161,0-2.247-0.043-3.328,0.014
			c-0.78,0.041-1.106-0.172-1.048-1.012c0.072-1.038,0.017-2.085,0.017-3.183C23.789,10.613,16.917,10.613,9.96,10.613z"/>
		<path d="M43.036,41.57c-1.245,0-2.451,0-3.726,0c0-0.854,0-1.682,0-2.568c0.322-0.054,0.641-0.108,1.002-0.169
			c0-10.032,0-20.025,0-30.124c-1.426,0-2.8,0-4.278,0c0-1.441,0-2.78,0-4.19c-7.036,0-13.967,0-20.962,0
			c-0.027,0.624-0.053,1.218-0.082,1.865c-0.864,0-1.663,0-2.537,0c0-1.497,0-2.97,0-4.592c0.345,0,0.703,0,1.06,0
			c7.635,0,15.27,0.009,22.905-0.015c0.703-0.002,1.204,0.2,1.694,0.695c1.456,1.471,2.977,2.878,4.425,4.355
			c0.293,0.299,0.538,0.8,0.539,1.209c0.029,10.927,0.023,21.853,0.021,32.78C43.095,41.047,43.06,41.277,43.036,41.57z"/>
		<path d="M22.158,40.501c-2.578,0-5.156-0.006-7.735,0.004c-0.754,0.003-1.401-0.151-1.422-1.054
			c-0.022-0.968,0.668-1.143,1.452-1.144c5.19-0.001,10.381,0.002,15.571-0.002c0.76-0.001,1.42,0.212,1.435,1.074
			c0.016,0.924-0.649,1.135-1.465,1.129C27.382,40.489,24.77,40.501,22.158,40.501z"/>
		<path d="M22.503,28.51c2.576,0,5.153,0.005,7.729-0.003c0.772-0.003,1.467,0.086,1.52,1.066c0.042,0.775-0.452,1.132-1.564,1.134
			c-5.119,0.005-10.237-0.001-15.356,0.006c-0.784,0.001-1.458-0.144-1.535-1.082c-0.061-0.75,0.479-1.117,1.578-1.119
			C17.418,28.507,19.96,28.51,22.503,28.51z"/>
		<path d="M22.506,20.949c-2.61,0-5.22-0.014-7.83,0.009c-0.802,0.007-1.374-0.248-1.371-1.106c0.003-0.81,0.599-1.081,1.322-1.082
			c5.288-0.005,10.576-0.008,15.864,0.005c0.719,0.002,1.279,0.289,1.258,1.13c-0.021,0.842-0.568,1.053-1.31,1.049
			C27.794,20.942,25.15,20.949,22.506,20.949z"/>
		<path d="M22.56,26.026c-2.542,0-5.085-0.007-7.627,0.004c-0.801,0.004-1.549-0.062-1.634-1.076
			c-0.063-0.748,0.484-1.124,1.579-1.125c5.119-0.004,10.237,0.001,15.356-0.004c0.772-0.001,1.497,0.102,1.511,1.075
			c0.015,1.043-0.75,1.131-1.557,1.129C27.644,26.022,25.102,26.026,22.56,26.026z"/>
		<path d="M22.508,33.59c2.609,0,5.218,0.01,7.827-0.006c0.756-0.004,1.391,0.115,1.412,1.04c0.02,0.915-0.623,1.129-1.362,1.13
			c-5.218,0.01-10.436,0.007-15.654,0.004c-0.744,0-1.417-0.205-1.423-1.084c-0.007-0.944,0.666-1.101,1.475-1.093
			C17.358,33.606,19.933,33.59,22.508,33.59z"/>
	</g>
</g>
<g>
	<path class="st2" d="M46.114,18.148C42.709,8.497,33.834,3.26,26.33,2.961c-0.012,0.026-0.034,0.053-0.034,0.079
		c-0.004,3.35-0.015,6.699,0.008,10.048c0.001,0.208,0.222,0.467,0.411,0.607c0.2,0.149,0.48,0.208,0.734,0.265
		c4.817,1.075,8.64,5.287,9.097,10.11c0.391,4.119-0.967,7.593-4.131,10.268c-2.675,2.261-5.801,3.101-9.28,2.586
		c-1.43-0.212-2.765-0.687-4.03-1.378c-0.697-0.381-0.901-0.333-1.387,0.275c-1.953,2.442-3.906,4.884-5.858,7.328
		c-0.078,0.098-0.143,0.206-0.214,0.308c8.054,5.798,18.638,5.777,26.618-0.099C46.064,37.615,49.309,27.205,46.114,18.148z
		 M37.092,41.994c-7.19,5.264-16.53,5.03-22.893,1.016c1.499-1.896,2.995-3.786,4.493-5.68c3.888,1.933,7.818,2.085,11.756,0.341
		c3.331-1.475,5.693-3.958,7.016-7.358c1.476-3.793,1.286-7.551-0.593-11.156c-1.878-3.604-4.875-5.866-8.802-6.893
		c0-2.445,0-4.863,0-7.282c6.327,0.797,13.738,5.756,16.442,14.214C47.197,27.594,44.147,36.83,37.092,41.994z"/>
	<path class="st2" d="M14.224,19.167c0.478,0.196,0.77,0.07,1.084-0.379c1.768-2.533,4.198-4.087,7.175-4.816
		c0.656-0.161,0.841-0.349,0.842-1.02c0.002-2.199,0.003-4.398,0.004-6.597c0-1.119,0-2.238,0-3.39
		C14.499,3.624,7.781,9.166,4.801,15.27c0.037,0.023,0.073,0.051,0.113,0.067C8.017,16.615,11.119,17.894,14.224,19.167z
		 M21.661,4.916c0,2.501,0,4.959,0,7.435c-1.507,0.407-2.912,1.028-4.207,1.893c-1.149,0.768-2.142,1.704-3.013,2.776
		c-0.09,0.111-0.337,0.215-0.45,0.17c-2.198-0.879-4.387-1.78-6.577-2.679c-0.024-0.01-0.041-0.037-0.089-0.081
		C10.748,9.231,15.482,6.023,21.661,4.916z"/>
	<path class="st2" d="M20.474,20.927c-0.445,1.368-0.129,2.64,0.989,3.56c0.635,0.522,1.423,0.874,2.176,1.232
		c0.849,0.404,1.75,0.698,2.601,1.098c0.693,0.325,1.17,0.888,1.177,1.687c0.009,0.881-0.423,1.54-1.21,1.962
		c-0.945,0.507-1.949,0.518-2.973,0.378c-0.592-0.081-1.183-0.17-1.782-0.257c-0.17,0.586-0.325,1.117-0.506,1.739
		c0.972,0.154,1.897,0.301,2.859,0.453c0,0.294,0,0.616,0,0.965c0.601,0,1.169,0,1.765,0c0-0.425,0-0.821,0-1.222
		c0.394-0.142,0.772-0.259,1.135-0.412c1.675-0.705,2.646-2.185,2.481-3.846c-0.167-1.686-1.163-2.758-2.674-3.386
		c-0.842-0.35-1.72-0.614-2.558-0.972c-0.494-0.211-0.985-0.478-1.4-0.815c-0.53-0.431-0.617-1.01-0.346-1.633
		c0.384-0.882,1.034-1.403,2.022-1.482c1.019-0.081,1.992,0.104,2.981,0.466c0.211-0.547,0.416-1.075,0.649-1.677
		c-0.753-0.204-1.457-0.396-2.222-0.603c0-0.329,0-0.688,0-1.046c-0.612,0-1.166,0-1.763,0c0,0.247-0.022,0.469,0.005,0.684
		c0.045,0.368-0.132,0.467-0.465,0.521C21.89,18.563,20.933,19.513,20.474,20.927z"/>
	<path class="st2" d="M15.447,32.306c-1.919-2.797-2.608-5.852-1.941-9.195c0.14-0.702-0.024-1.002-0.683-1.284
		c-1.434-0.613-2.87-1.221-4.306-1.831c-1.596-0.677-3.192-1.353-4.817-2.043c-2.781,8.031-0.806,17.017,5.677,23.571
		c0.13-0.16,0.259-0.316,0.385-0.475c1.871-2.355,3.741-4.711,5.611-7.066C15.948,33.26,15.959,33.051,15.447,32.306z"/>
</g>
</svg>
