<?xml version="1.0" encoding="utf-8"?>
<!-- Generator: Adobe Illustrator 23.0.0, SVG Export Plug-In . SVG Version: 6.00 Build 0)  -->
<svg version="1.1" id="Layer_1" xmlns="http://www.w3.org/2000/svg" xmlns:xlink="http://www.w3.org/1999/xlink" x="0px" y="0px"
	 viewBox="0 0 50 50" style="enable-background:new 0 0 50 50;" xml:space="preserve">
<style type="text/css">
	.st0{fill:#FFFFFF;}
</style>
<polygon class="st0" points="7.151,16.868 7.165,16.872 7.165,16.856 "/>
<g>
	<path class="st0" d="M23.61,28.735c-0.058,0.156,0.045,0.366,0.073,0.551c0.207-0.048,0.467-0.038,0.612-0.155
		c0.467-0.379,0.923-0.778,1.326-1.217c2.029-2.212,3.737-4.642,5.359-7.129c0.777-1.191,1.532-2.395,2.312-3.618
		c0.208,0.114,0.384,0.212,0.58,0.32c-0.045,0.093-0.07,0.159-0.107,0.218c-0.907,1.484-1.823,2.963-2.715,4.455
		c-0.123,0.206-0.199,0.482-0.17,0.711c0.019,0.15,0.25,0.306,0.423,0.39c0.053,0.025,0.261-0.161,0.345-0.284
		c0.22-0.321,0.407-0.662,0.613-0.991c0.919-1.471,1.84-2.941,2.76-4.411c0-0.146,0-0.293,0-0.439
		c-0.428-0.266-0.857-0.531-1.285-0.796c0.106-0.356,0.222-0.683,0.299-1.017c0.121-0.523-0.168-0.874-0.597-1.144
		c-0.441-0.277-0.912-0.361-1.329,0.003c-0.366,0.319-0.726,0.664-1.002,1.053c-2.312,3.258-4.453,6.614-6.19,10.183
		C24.398,26.486,24.024,27.621,23.61,28.735z"/>
	<path class="st0" d="M12.951,22.31c1.931,0.002,3.862,0.001,5.793,0.001c1.931,0,3.862,0.002,5.793-0.001
		c0.619-0.001,0.926-0.226,0.923-0.662c-0.002-0.425-0.334-0.671-0.931-0.671c-3.862-0.002-7.723-0.002-11.585,0
		c-0.596,0-0.944,0.242-0.962,0.652C11.963,22.072,12.294,22.309,12.951,22.31z"/>
	<path class="st0" d="M24.426,23.829c0.006-0.014-0.003-0.034-0.013-0.121c-3.907,0-7.803,0-11.698,0
		c-0.039,0-0.093-0.012-0.113,0.007c-0.211,0.204-0.571,0.409-0.579,0.623c-0.008,0.222,0.297,0.491,0.527,0.668
		c0.12,0.092,0.372,0.036,0.564,0.036c3.124,0.001,6.249,0.001,9.373,0.001C23.884,25.043,23.884,25.043,24.426,23.829z"/>
	<path class="st0" d="M12.895,26.425c-0.115,0-0.267-0.029-0.339,0.027c-0.207,0.161-0.526,0.356-0.532,0.544
		c-0.007,0.227,0.223,0.505,0.429,0.676c0.13,0.107,0.404,0.076,0.613,0.076c2.797,0.004,5.595,0.003,8.392,0.003
		c1.288,0,1.288,0,1.642-1.178c0.005-0.016-0.004-0.036-0.018-0.126c-0.124-0.008-0.236-0.022-0.349-0.022
		C19.454,26.424,16.174,26.424,12.895,26.425z"/>
	<path class="st0" d="M21.428,19.619c1.1-0.001,2.2,0.007,3.299-0.004c0.462-0.004,0.798-0.204,0.791-0.684
		c-0.007-0.446-0.327-0.656-0.763-0.658c-2.199-0.01-4.399-0.011-6.598,0.001c-0.429,0.002-0.744,0.199-0.762,0.657
		c-0.016,0.428,0.279,0.678,0.849,0.685C19.306,19.628,20.367,19.619,21.428,19.619z"/>
	<path class="st0" d="M45.9,20.339c-0.033,0.011-0.065-0.174-0.065-0.174l-0.163-0.043l-0.152-0.043l-0.098-0.239
		c0,0-0.195-0.13-0.228-0.119c-0.033,0.011-0.206-0.575-0.206-0.575l-0.195-0.673l-0.412-0.261l-0.467,0.293l-0.152-0.119
		l0.022-0.152l-0.119,0.043l-0.293,0.998l0.065,0.141l-0.076,0.195c0,0,0.065,0.402,0.054,0.434
		c-0.011,0.033-0.054,0.217-0.054,0.217l-0.119,0.152l0.043,0.184l-0.119,0.152l-0.108-0.065l-0.185,0.098l-0.098,0.195l0.022,0.184
		l-2.301,0.521l-0.564,0.597l-0.087,0.26c0,0-0.261,0.261-0.282,0.293c-0.022,0.033,0.043,0.119,0.043,0.119l0.108,0.087
		l0.033,0.239l-0.098,0.163c0,0-0.141,0.109-0.174,0.152c-0.033,0.043-0.184,0.141-0.184,0.141l-0.478,0.195l-0.184-0.13
		l-0.358,0.065l-0.391,0.098l-0.065,0.271l0.174,0.217l-0.054,0.217l-0.206,0.239l-0.445,0.391l-0.13,0.033l-0.163,0.184
		l-0.228,0.152l-0.25,0.152l-0.185,0.054l-0.304,0.369l-0.163-0.076l-0.304,0.217l-0.358-0.054l-0.347-0.152l-0.163,0.033
		l-0.011-0.195l0.098-0.174l0.087-0.109v-0.185l0.109-0.108c0,0,0.087-0.358,0.065-0.326c-0.022,0.033,0.152-0.011,0.152-0.011
		l0.065-0.445l-0.282-0.836l-0.293-0.076l-0.402,0.51l-0.185-0.087l-0.033-0.25l0.217-0.185c0,0,0.119-0.163,0.098-0.195
		c-0.022-0.033-0.022-0.456-0.022-0.456l-0.087-0.184l-0.011-0.184l0.087-0.109L34.07,22.43l-0.347-0.065l-0.065-0.119l-0.391-0.109
		l-0.25,0.293l0.043,0.141l-0.174,0.184v0.25L32.68,23.2c0,0-0.13-0.098-0.119-0.13c0.011-0.033-0.141,0.098-0.141,0.098
		l-0.119,0.217c0,0,0.022,0.293,0,0.326c-0.022,0.033-0.076,0.304-0.076,0.304l0.033,0.271l0.119,0.391l0.174,0.391l-0.033,0.467
		l-0.065,0.434l-0.261,0.402l-0.315,0.195l-0.271-0.119l-0.13-0.358l-0.152-0.119c0,0,0.011-0.293,0-0.326
		c-0.011-0.033-0.163-0.825-0.163-0.825s0.13-0.293,0.108-0.293c-0.016,0-0.026-0.189-0.03-0.301l-1.298,2.141v3.323
		c0,2.729-2.233,4.022-4.962,4.022H12.968c-2.729,0-4.962-1.293-4.962-4.022V17.1l-0.841-0.228v0.223h0.109l-0.109,0.304
		l0.109,0.543l-0.347,0.575H6.774l0.065-0.293l0.098-0.206l-0.043-0.331H6.72l-0.163-0.136l-0.098,0.011L5.71,17.063l-0.076,0.25
		l0.076,0.374l-0.076,0.342l0.098,0.163l-0.098,0.271l0.119,0.054l0.087,0.098H5.689l-0.054,0.152l0.13,0.098l-0.043,0.141
		l-0.087,0.119H5.537v0.109L5.472,19.56l-0.184,0.51l-0.141,0.391l-0.141,0.38L4.843,21.21l-0.13,0.315l-0.087,0.228L4.462,21.99
		l-0.13,0.098l-0.043,0.228L4.094,22.49l0.076,0.304L4.093,23.01v0.944c0,0-0.206,0.282-0.195,0.326
		c0.011,0.043-0.358,0.564-0.358,0.564v0.239l0.239,0.738c0,0-0.13,0.141-0.141,0.174S3.54,26.288,3.54,26.288l0.109,0.152
		L3.54,26.58l0.152,0.261l0.228,0.304l-0.033,0.402l0.108,0.152l0.119,0.141l0.163-0.195l0.054,0.315l0.065,0.293l-0.174-0.109
		l-0.141-0.011V28.6l0.195,0.185l0.163,0.195v0.174l-0.152,0.13l-0.098,0.303l0.239,0.207l0.043,0.217l0.098,0.239l0.13,0.271
		l0.141,0.098l-0.011,0.163l-0.065,0.076l0.163,0.217l-0.163,0.434l0.261,0.206l0.239,0.043l0.521,0.25l0.076,0.228l0.109,0.098
		l0.391,0.108l0.076,0.217l-0.043,0.109H6.6l0.26,0.304l0.25,0.402l0.054,0.792l2.019,0.185v0.174l2.92,1.834l2.442,0.315
		l0.065-0.445l1.389,0.152l0.217,0.141v0.152l1.194,1.248v0.119l0.141,0.184l-0.054,0.293l0.13,0.228l1.031,0.738h0.152l0.195-0.206
		l0.217-0.499l0.271-0.011l0.119-0.152l0.109,0.13l0.25,0.054h0.336l0.217,0.141v0.141l0.195,0.195l0.282,0.206L21.1,39.93
		l0.228,0.532l0.326,0.391v0.098l0.13,0.195h0.163l0.065,0.195v0.206l0.087,0.304l0.271,0.543l0.749,0.337l0.499,0.098l0.25,0.184
		l0.109-0.098l0.141,0.098v-0.141l-0.163-0.163l-0.206-0.716l0.098-0.282L23.76,41.57l0.13-0.13l0.065-0.217l-0.065-0.152
		l0.087-0.109l0.141,0.011l0.098-0.141v-0.141l0.119-0.054l0.108,0.065l0.043-0.217l0.13-0.022l0.174-0.054l-0.119-0.163
		l0.282-0.119l0.065,0.109l0.261-0.109l0.38-0.206l0.228-0.13l0.076-0.195l0.217-0.174l-0.087-0.152l0.022-0.13l0.152-0.065
		l0.087-0.022v0.174l0.144,0.022l0.398-0.109l0.836-0.195l0.944,0.217v-0.217l0.174-0.087l0.076,0.076l0.185,0.043l0.13,0.206
		l0.228,0.043l0.163,0.228l0.304,0.108l0.13-0.152l0.25-0.033l0.076,0.13l0.098-0.065l0.043-0.26l0.163-0.011l0.065,0.119
		l0.358,0.163l0.043,0.141l0.163-0.076l0.152-0.076l-0.619-0.369l0.087-0.152l0.217-0.228l0.109-0.043l-0.065-0.174l-0.412,0.271
		l-0.076-0.174l-0.163-0.033l-0.304,0.076l-0.098-0.163l0.098-0.174l0.206,0.011l0.467,0.119l0.228-0.13l0.391-0.174l0.206,0.022
		l0.184,0.033l0.087-0.119l0.119,0.076l0.174-0.38l0.054,0.271l0.098,0.163l0.174,0.011l0.13-0.141l0.195-0.011l0.087-0.119h0.174
		l0.163,0.054l0.347-0.109v0.141l0.174,0.011l0.326,0.13l0.13-0.076l0.206,0.109l-0.076,0.141l0.228,0.141v0.174
		c0,0,0.391-0.239,0.38-0.206c-0.011,0.033,0.304-0.174,0.304-0.174l0.174-0.195l0.271-0.022l0.412,0.217l0.217,0.261l0.25,0.239
		l0.108,0.087l0.174-0.011l0.098,0.185l0.119,0.185l0.065,0.25L37.25,39.68l-0.076,0.217l0.011,0.206l0.108,0.141l0.076-0.076v-0.13
		l0.13,0.022l0.076,0.119l-0.043,0.195l-0.109,0.108l0.054,0.13l0.152,0.141l0.108,0.184l0.087,0.119h0.108l0.141,0.011v0.185
		l0.141,0.163l0.141,0.152l0.087,0.195v0.119l0.271,0.065l0.184,0.141l0.119,0.174l0.098,0.119l0.174,0.022v0.174l0.326-0.109
		l0.217-0.163l-0.054-0.347l0.174-0.228l-0.098-0.315l0.098-0.337l-0.163-0.326l-0.293-0.423l-0.152-0.456l-0.184-0.119
		l-0.054-0.271l0.033-0.25l-0.271-0.38l-0.206-0.087l-0.054-0.185l-0.184-0.206l-0.185-0.239l0.011-0.315l-0.152-0.185l-0.033-0.217
		l-0.087-0.13l-0.054-0.391l-0.043-0.38l0.119-0.391l0.13-0.271l0.13-0.195l0.065-0.217l0.206-0.293l0.25-0.206l0.391-0.282
		l0.087-0.228l0.141-0.163l0.13-0.347l0.195-0.315l0.228-0.174l0.336-0.065l0.109-0.109l0.087-0.326l0.206-0.271l0.217-0.25
		l0.141-0.076l0.239-0.087l0.174-0.13v-0.13c0,0-0.152,0.087-0.184,0.108c-0.033,0.022-0.282,0.054-0.282,0.054l-0.098-0.141
		l0.174-0.011l0.119-0.087l0.065-0.174l-0.098-0.13c0,0,0-0.087,0.022-0.119c0.022-0.033,0.13-0.054,0.13-0.054l0.054,0.098
		l0.098,0.033l0.152-0.076l0.13-0.163v-0.358l-0.108,0.043l-0.076,0.119l-0.141-0.163l-0.152,0.065l-0.185,0.054l-0.076-0.109
		l0.152-0.098l0.217-0.13l0.195-0.098v-0.152l-0.119-0.174l-0.022-0.184l-0.109-0.098l-0.163-0.011L41.015,30.1l-0.152-0.043
		l-0.022-0.174l0.141-0.011l-0.076-0.087v-0.109l0.109-0.099l-0.13-0.183l0.011-0.195l-0.054-0.163l-0.185-0.076l-0.141-0.022
		l-0.13-0.109l0.098-0.087h0.195c0,0,0.011-0.065,0-0.098c-0.011-0.033-0.065-0.174-0.065-0.174l-0.098-0.25v-0.521l0.109-0.174
		l0.13-0.141l0.098,0.011l-0.011,0.217l-0.119,0.25l0.087,0.217l0.054,0.261l0.043,0.239l0.184,0.054h0.13l0.011,0.239l0.217-0.043
		l-0.011,0.195l-0.076,0.25v0.303l0.152-0.281l0.065-0.25l0.043-0.239l0.119-0.195v-0.521l-0.163-0.206l-0.163-0.087l-0.109-0.185
		l-0.109-0.174l-0.109-0.152l0.065-0.195l0.119,0.184l0.174,0.152l0.217,0.109l0.076,0.13l0.152-0.152l0.152-0.304l0.13-0.293V26.18
		l-0.087-0.076l-0.152,0.022l0.076-0.163l0.25-0.033l0.228-0.13l0.206-0.13l0.38-0.163l0.184-0.271h-0.174
		c0,0-0.152,0.054-0.195,0.098c-0.043,0.043-0.282,0.163-0.282,0.163l-0.217,0.087l-0.163,0.109l-0.098-0.076l0.119-0.141
		l0.195-0.206l0.217-0.163l0.25-0.109l0.402-0.098l0.261-0.13l0.13-0.098v-0.239l0.13-0.054l0.043,0.109l0.076,0.087l0.206-0.282
		l0.195-0.076l0.043,0.109l0.13-0.109l0.195-0.065v-0.195l-0.13-0.261l-0.119,0.119l0.065,0.119v0.141c0,0-0.13,0.022-0.163,0.033
		c-0.033,0.011-0.152-0.087-0.152-0.087l-0.163-0.217l-0.271-0.054l0.087-0.282c0,0,0.087-0.174,0.065-0.141
		c-0.022,0.033-0.108-0.217-0.108-0.217l0.033-0.206l0.098-0.347l0.076-0.25L43.99,22.13l0.174-0.185L44.283,22l0.087-0.152
		l0.217-0.043l0.087-0.152l0.054-0.185l0.076-0.163l0.152-0.033l0.13-0.152l0.109-0.141l0.163,0.065l0.13-0.152l0.228-0.163
		l0.152-0.228l0.141-0.043C46.009,20.459,45.933,20.328,45.9,20.339z"/>
	<path class="st0" d="M12.623,32.568h12.71c1.93,0,3.5-1.57,3.5-3.5v-1.316h-1v1.316c0,1.379-1.121,2.5-2.5,2.5h-12.71
		c-1.378,0-2.5-1.121-2.5-2.5V12.207c0-1.378,1.122-2.5,2.5-2.5h8.96l0.185,0.159v4.974h5.797l0.268,0.23v2.222h1V14.61l-6.88-5.903
		h-9.33c-1.93,0-3.5,1.57-3.5,3.5v16.861C9.123,30.998,10.693,32.568,12.623,32.568z"/>
	<path class="st0" d="M13.799,16.923c-0.259,0-0.458-0.083-0.598-0.248s-0.211-0.407-0.211-0.724h-1.405
		c0,0.576,0.162,1.039,0.486,1.391s0.789,0.56,1.395,0.623v0.842h0.663v-0.838c0.52-0.05,0.931-0.225,1.232-0.525
		c0.302-0.3,0.453-0.688,0.453-1.164c0-0.281-0.047-0.521-0.142-0.721c-0.095-0.2-0.225-0.375-0.392-0.525s-0.365-0.284-0.594-0.402
		c-0.229-0.118-0.473-0.232-0.732-0.342s-0.446-0.225-0.563-0.346c-0.117-0.121-0.175-0.284-0.175-0.49
		c0-0.203,0.051-0.362,0.152-0.478c0.102-0.115,0.244-0.173,0.427-0.173c0.206,0,0.364,0.078,0.475,0.234s0.167,0.378,0.167,0.667
		h1.41c0-0.528-0.145-0.964-0.436-1.307c-0.291-0.343-0.69-0.553-1.199-0.628v-0.897h-0.663v0.88
		c-0.528,0.05-0.951,0.227-1.268,0.532c-0.317,0.304-0.475,0.692-0.475,1.161c0,0.281,0.044,0.52,0.133,0.717
		c0.089,0.197,0.217,0.371,0.384,0.521c0.167,0.15,0.366,0.282,0.596,0.396c0.231,0.114,0.482,0.227,0.755,0.338
		s0.463,0.229,0.571,0.354c0.108,0.125,0.163,0.297,0.163,0.517c0,0.197-0.054,0.352-0.163,0.465
		C14.136,16.866,13.988,16.923,13.799,16.923z"/>
</g>
</svg>
