<?xml version="1.0" encoding="utf-8"?>
<!-- Generator: Adobe Illustrator 22.1.0, SVG Export Plug-In . SVG Version: 6.00 Build 0)  -->
<svg version="1.1" id="Layer_1" xmlns="http://www.w3.org/2000/svg" xmlns:xlink="http://www.w3.org/1999/xlink" x="0px" y="0px"
	 viewBox="0 0 50 50" style="enable-background:new 0 0 50 50;" xml:space="preserve">
<style type="text/css">
	.st0{display:none;}
	.st1{display:inline;}
	.st2{fill:#FFFFFF;}
</style>
<g id="_x34_2FiKe_1_" class="st0">
	<g class="st1">
		<path d="M7.229,7.897c0.43,0,0.766,0,1.102,0c7.634,0,15.268,0.009,22.902-0.016c0.704-0.002,1.197,0.202,1.688,0.696
			c1.459,1.467,2.981,2.871,4.444,4.335c0.256,0.256,0.484,0.682,0.485,1.03c0.024,11.095,0.018,22.19,0.013,33.285
			c0,0.129-0.041,0.257-0.073,0.44c-10.188,0-20.345,0-30.56,0C7.229,34.415,7.229,21.229,7.229,7.897z M9.96,10.613
			c0,11.492,0,22.907,0,34.349c8.425,0,16.786,0,25.161,0c0-10.078,0-20.097,0-30.169c-1.161,0-2.247-0.043-3.328,0.014
			c-0.78,0.041-1.106-0.172-1.048-1.012c0.072-1.038,0.017-2.085,0.017-3.183C23.789,10.613,16.917,10.613,9.96,10.613z"/>
		<path d="M43.036,41.57c-1.245,0-2.451,0-3.726,0c0-0.854,0-1.682,0-2.568c0.322-0.054,0.641-0.108,1.002-0.169
			c0-10.032,0-20.025,0-30.124c-1.426,0-2.8,0-4.278,0c0-1.441,0-2.78,0-4.19c-7.036,0-13.967,0-20.962,0
			c-0.027,0.624-0.053,1.218-0.082,1.865c-0.864,0-1.663,0-2.537,0c0-1.497,0-2.97,0-4.592c0.345,0,0.703,0,1.06,0
			c7.635,0,15.27,0.009,22.905-0.015c0.703-0.002,1.204,0.2,1.694,0.695c1.456,1.471,2.977,2.878,4.425,4.355
			c0.293,0.299,0.538,0.8,0.539,1.209c0.029,10.927,0.023,21.853,0.021,32.78C43.095,41.047,43.06,41.277,43.036,41.57z"/>
		<path d="M22.158,40.501c-2.578,0-5.156-0.006-7.735,0.004c-0.754,0.003-1.401-0.151-1.422-1.054
			c-0.022-0.968,0.668-1.143,1.452-1.144c5.19-0.001,10.381,0.002,15.571-0.002c0.76-0.001,1.42,0.212,1.435,1.074
			c0.016,0.924-0.649,1.135-1.465,1.129C27.382,40.489,24.77,40.501,22.158,40.501z"/>
		<path d="M22.503,28.51c2.576,0,5.153,0.005,7.729-0.003c0.772-0.003,1.467,0.086,1.52,1.066c0.042,0.775-0.452,1.132-1.564,1.134
			c-5.119,0.005-10.237-0.001-15.356,0.006c-0.784,0.001-1.458-0.144-1.535-1.082c-0.061-0.75,0.479-1.117,1.578-1.119
			C17.418,28.507,19.96,28.51,22.503,28.51z"/>
		<path d="M22.506,20.949c-2.61,0-5.22-0.014-7.83,0.009c-0.802,0.007-1.374-0.248-1.371-1.106c0.003-0.81,0.599-1.081,1.322-1.082
			c5.288-0.005,10.576-0.008,15.864,0.005c0.719,0.002,1.279,0.289,1.258,1.13c-0.021,0.842-0.568,1.053-1.31,1.049
			C27.794,20.942,25.15,20.949,22.506,20.949z"/>
		<path d="M22.56,26.026c-2.542,0-5.085-0.007-7.627,0.004c-0.801,0.004-1.549-0.062-1.634-1.076
			c-0.063-0.748,0.484-1.124,1.579-1.125c5.119-0.004,10.237,0.001,15.356-0.004c0.772-0.001,1.497,0.102,1.511,1.075
			c0.015,1.043-0.75,1.131-1.557,1.129C27.644,26.022,25.102,26.026,22.56,26.026z"/>
		<path d="M22.508,33.59c2.609,0,5.218,0.01,7.827-0.006c0.756-0.004,1.391,0.115,1.412,1.04c0.02,0.915-0.623,1.129-1.362,1.13
			c-5.218,0.01-10.436,0.007-15.654,0.004c-0.744,0-1.417-0.205-1.423-1.084c-0.007-0.944,0.666-1.101,1.475-1.093
			C17.358,33.606,19.933,33.59,22.508,33.59z"/>
	</g>
</g>
<g>
	<path class="st2" d="M41.31,7.729c-0.083-1.447-1.052-2.418-2.456-2.419c-7.209-0.006-15.419-0.006-22.628,0
		c-1.427,0.001-2.433,1.038-2.435,2.468c-0.002,1.739-0.005,3.478,0.004,5.217c0.002,0.291-0.04,0.439-0.389,0.491
		c-4.347,0.641-7.663,4.311-7.944,8.763c-0.276,4.38,2.658,8.471,6.9,9.611c0.466,0.125,0.941,0.214,1.428,0.322
		c0,1.078,0.01,2.12-0.003,3.162c-0.01,0.776,0.263,1.416,0.837,1.933c3.478,3.126,6.957,6.253,10.437,9.378
		c0.074,0.066,0.168,0.111,0.323,0.211c0-3.044,0-6.009,0-9.027c0.234,0,0.419,0,0.604,0c3.921,0,8.842,0.001,12.763-0.002
		c0.204,0,0.414,0,0.612-0.042c1.241-0.257,1.947-1.221,1.948-2.651c0.001-9.043,0.001-18.087,0-27.13
		C41.312,7.919,41.315,7.824,41.31,7.729z M20.77,23.825c-2.976,0-5.91,0-8.838,0c-0.254,1.773,1.32,3.838,3.584,3.174
		c0.73-0.214,1.125-0.787,1.361-1.471c0.08-0.233,0.173-0.346,0.433-0.3c1.071,0.19,2.145,0.37,3.258,0.561
		c-0.015,0.099-0.012,0.187-0.041,0.262c-0.838,2.166-2.392,3.479-4.709,3.716c-1.005,0.103-2.061,0.056-3.053-0.135
		c-2.055-0.395-3.435-1.686-4.126-3.647c-0.771-2.192-0.754-4.413,0.099-6.578c1.001-2.54,3.508-3.951,6.2-3.729
		c3.189,0.263,5.395,2.35,5.77,6.049c0.061,0.596,0.067,1.197,0.095,1.796C20.806,23.6,20.787,23.677,20.77,23.825z M27.043,36.82
		c-0.638-0.001-1.14-0.493-1.153-1.131c-0.013-0.678,0.465-1.181,1.133-1.192c0.662-0.01,1.185,0.495,1.188,1.148
		C28.215,36.295,27.692,36.821,27.043,36.82z M38.533,32.649c0,0.94-0.189,1.124-1.145,1.124c-3.462,0-7.924,0-11.386,0
		c-0.186,0-0.371,0-0.599,0c-0.011-0.251-0.028-0.452-0.028-0.653c-0.001-5.469-0.004-10.939,0.006-16.408
		c0.001-0.366-0.112-0.603-0.394-0.839c-2.675-2.245-5.337-4.505-8.003-6.762c-0.119-0.101-0.231-0.209-0.345-0.313
		c0.184-0.379,0.498-0.437,0.844-0.437c1.059,0.002,2.118,0,3.177,0c5.248,0,11.496,0,16.744,0c0.935,0,1.128,0.197,1.128,1.145
		C38.533,17.221,38.533,24.935,38.533,32.649z"/>
	<path class="st2" d="M24.731,13.884c0.183,0.243,0.389,0.314,0.683,0.313c3-0.01,7-0.005,10-0.007c0.165,0,0.33-0.016,0.505-0.025
		c0-0.562,0-1.064,0-1.606c-3.765,0-8.48,0-12.278,0C24.038,13.037,24.402,13.447,24.731,13.884z"/>
	<path class="st2" d="M35.904,16.146c-2.527,0-6.022,0-8.531,0c0,0.53,0,1.016,0,1.54c2.54,0,6.038,0,8.531,0
		C35.904,17.15,35.904,16.652,35.904,16.146z"/>
	<path class="st2" d="M27.384,21.105c2.522,0,6.02,0,8.523,0c0-0.532,0-1.029,0-1.546c-2.523,0-6.019,0-8.523,0
		C27.384,20.096,27.384,20.594,27.384,21.105z"/>
	<path class="st2" d="M27.396,22.951c0,0.562,0,1.072,0,1.574c2.523,0,6.01,0,8.5,0c0-0.539,0-1.049,0-1.574
		C33.382,22.951,29.907,22.951,27.396,22.951z"/>
	<path class="st2" d="M27.374,27.934c2.539,0,6.037,0,8.531,0c0-0.535,0-1.033,0-1.54c-2.526,0-6.022,0-8.531,0
		C27.374,26.923,27.374,27.409,27.374,27.934z"/>
	<path class="st2" d="M14.521,18.476c-1.575,0.022-2.748,1.417-2.578,3.093c1.726,0,3.454,0,5.209,0
		C17.256,19.81,16.081,18.454,14.521,18.476z"/>
</g>
</svg>
