<?xml version="1.0" encoding="utf-8"?>
<!-- Generator: Adobe Illustrator 22.1.0, SVG Export Plug-In . SVG Version: 6.00 Build 0)  -->
<svg version="1.1" id="Layer_1" xmlns="http://www.w3.org/2000/svg" xmlns:xlink="http://www.w3.org/1999/xlink" x="0px" y="0px"
	 viewBox="0 0 50 50" style="enable-background:new 0 0 50 50;" xml:space="preserve">
<style type="text/css">
	.st0{display:none;}
	.st1{display:inline;}
	.st2{fill:#FFFFFF;}
</style>
<g id="_x34_2FiKe_1_" class="st0">
	<g class="st1">
		<path d="M7.229,7.897c0.43,0,0.766,0,1.102,0c7.634,0,15.268,0.009,22.902-0.016c0.704-0.002,1.197,0.202,1.688,0.696
			c1.459,1.467,2.981,2.871,4.444,4.335c0.256,0.256,0.484,0.682,0.485,1.03c0.024,11.095,0.018,22.19,0.013,33.285
			c0,0.129-0.041,0.257-0.073,0.44c-10.188,0-20.345,0-30.56,0C7.229,34.415,7.229,21.229,7.229,7.897z M9.96,10.613
			c0,11.492,0,22.907,0,34.349c8.425,0,16.786,0,25.161,0c0-10.078,0-20.097,0-30.169c-1.161,0-2.247-0.043-3.328,0.014
			c-0.78,0.041-1.106-0.172-1.048-1.012c0.072-1.038,0.017-2.085,0.017-3.183C23.789,10.613,16.917,10.613,9.96,10.613z"/>
		<path d="M43.036,41.57c-1.245,0-2.451,0-3.726,0c0-0.854,0-1.682,0-2.568c0.322-0.054,0.641-0.108,1.002-0.169
			c0-10.032,0-20.025,0-30.124c-1.426,0-2.8,0-4.278,0c0-1.441,0-2.78,0-4.19c-7.036,0-13.967,0-20.962,0
			c-0.027,0.624-0.053,1.218-0.082,1.865c-0.864,0-1.663,0-2.537,0c0-1.497,0-2.97,0-4.592c0.345,0,0.703,0,1.06,0
			c7.635,0,15.27,0.009,22.905-0.015c0.703-0.002,1.204,0.2,1.694,0.695c1.456,1.471,2.977,2.878,4.425,4.355
			c0.293,0.299,0.538,0.8,0.539,1.209c0.029,10.927,0.023,21.853,0.021,32.78C43.095,41.047,43.06,41.277,43.036,41.57z"/>
		<path d="M22.158,40.501c-2.578,0-5.156-0.006-7.735,0.004c-0.754,0.003-1.401-0.151-1.422-1.054
			c-0.022-0.968,0.668-1.143,1.452-1.144c5.19-0.001,10.381,0.002,15.571-0.002c0.76-0.001,1.42,0.212,1.435,1.074
			c0.016,0.924-0.649,1.135-1.465,1.129C27.382,40.489,24.77,40.501,22.158,40.501z"/>
		<path d="M22.503,28.51c2.576,0,5.153,0.005,7.729-0.003c0.772-0.003,1.467,0.086,1.52,1.066c0.042,0.775-0.452,1.132-1.564,1.134
			c-5.119,0.005-10.237-0.001-15.356,0.006c-0.784,0.001-1.458-0.144-1.535-1.082c-0.061-0.75,0.479-1.117,1.578-1.119
			C17.418,28.507,19.96,28.51,22.503,28.51z"/>
		<path d="M22.506,20.949c-2.61,0-5.22-0.014-7.83,0.009c-0.802,0.007-1.374-0.248-1.371-1.106c0.003-0.81,0.599-1.081,1.322-1.082
			c5.288-0.005,10.576-0.008,15.864,0.005c0.719,0.002,1.279,0.289,1.258,1.13c-0.021,0.842-0.568,1.053-1.31,1.049
			C27.794,20.942,25.15,20.949,22.506,20.949z"/>
		<path d="M22.56,26.026c-2.542,0-5.085-0.007-7.627,0.004c-0.801,0.004-1.549-0.062-1.634-1.076
			c-0.063-0.748,0.484-1.124,1.579-1.125c5.119-0.004,10.237,0.001,15.356-0.004c0.772-0.001,1.497,0.102,1.511,1.075
			c0.015,1.043-0.75,1.131-1.557,1.129C27.644,26.022,25.102,26.026,22.56,26.026z"/>
		<path d="M22.508,33.59c2.609,0,5.218,0.01,7.827-0.006c0.756-0.004,1.391,0.115,1.412,1.04c0.02,0.915-0.623,1.129-1.362,1.13
			c-5.218,0.01-10.436,0.007-15.654,0.004c-0.744,0-1.417-0.205-1.423-1.084c-0.007-0.944,0.666-1.101,1.475-1.093
			C17.358,33.606,19.933,33.59,22.508,33.59z"/>
	</g>
</g>
<g>
	<path class="st2" d="M23.564,13.738c-4.143-2.826-8.28-5.66-12.423-8.486c-0.152-0.104-0.3-0.338-0.499-0.231
		c-0.16,0.086-0.07,0.324-0.07,0.492c-0.003,9.916,0,19.832-0.014,29.748c-0.001,0.413,0.141,0.575,0.51,0.711
		c2.926,1.08,5.642,2.553,8.128,4.442c1.769,1.345,3.333,2.895,4.733,4.825c0.022-0.267,0.037-0.361,0.037-0.455
		c0.001-10.113,0-20.227,0.011-30.34C23.977,14.089,23.825,13.916,23.564,13.738z"/>
	<path class="st2" d="M39.13,35.096c-0.017-9.836-0.012-19.673-0.016-29.509c0-0.19,0.098-0.461-0.061-0.556
		c-0.211-0.126-0.38,0.135-0.546,0.248c-4.078,2.78-8.147,5.574-12.231,8.345c-0.4,0.272-0.572,0.541-0.571,1.042
		c0.017,9.935,0.014,19.87,0.014,29.805c0,0.195,0,0.39,0,0.74c0.605-0.722,1.084-1.345,1.615-1.919
		c3.11-3.356,6.915-5.658,11.16-7.27C38.985,35.838,39.131,35.614,39.13,35.096z"/>
	<path class="st2" d="M43.533,38.095c-0.035-0.589,0.02-1.183,0.02-1.775c0.002-6.871,0.002-13.743,0.001-20.614
		c0-0.967-0.003-1.933-0.003-2.9c0-1.678-0.006-3.357,0.008-5.035c0.003-0.408-0.124-0.477-0.485-0.319
		c-0.487,0.214-0.98,0.426-1.489,0.576c-0.531,0.157-0.707,0.43-0.706,1.005c0.022,9.162,0.012,18.324,0.025,27.485
		c0.001,0.46-0.104,0.702-0.568,0.861c-1.026,0.352-2.012,0.812-2.977,1.309c-1.67,0.86-3.313,1.762-4.581,3.199
		c-0.042,0.05-0.084,0.099-0.125,0.149c0.089,0.065,0.161,0.042,0.223-0.041c0.727-0.353,1.442-0.732,2.182-1.055
		c2.527-1.101,5.141-1.901,7.894-2.182C43.389,38.714,43.561,38.555,43.533,38.095z"/>
	<path class="st2" d="M10.261,41.956c-1.655-0.884-3.464-1.178-5.307-1.304c-0.794-0.054-0.796-0.033-0.796-0.821
		c0-9.266-0.005-18.533,0.015-27.799c0.001-0.572-0.218-0.626-0.687-0.634c-0.483-0.008-0.635,0.123-0.635,0.626
		c0.015,9.839,0.017,19.679,0,29.518c-0.001,0.532,0.164,0.617,0.637,0.551c1.616-0.225,3.229-0.136,4.837,0.12
		c1.167,0.186,2.273,0.584,3.397,0.924C11.405,42.537,10.818,42.254,10.261,41.956z"/>
	<path class="st2" d="M11.723,43.138c0.003,0.006,0.007,0.012,0.011,0.019l0.01-0.013C11.737,43.142,11.73,43.14,11.723,43.138z"/>
	<path class="st2" d="M46.823,12.157c0-0.158-0.002-0.316-0.004-0.474c-0.001-0.103-0.023-0.226-0.134-0.232
		c-0.333-0.018-0.688-0.081-0.997,0.007c-0.317,0.09-0.155,0.446-0.155,0.677c-0.008,9.263-0.01,18.526,0.006,27.79
		c0.001,0.538-0.089,0.72-0.69,0.744c-2.047,0.08-4.045,0.435-5.834,1.525c-0.404,0.246-0.851,0.47-1.055,0.948
		c0.072-0.009,0.148-0.009,0.213-0.035c2.569-1,5.226-1.356,7.96-1.013c0.607,0.076,0.702-0.104,0.701-0.666
		C46.817,31.671,46.822,21.914,46.823,12.157z"/>
	<path class="st2" d="M16.917,41.9c-0.281-0.361-0.62-0.663-0.974-0.948c-1.96-1.579-4.202-2.647-6.529-3.546
		c-0.488-0.188-0.637-0.418-0.636-0.936c0.018-8.71,0.014-17.42,0.009-26.131c0-0.669,0.262-1.497-0.101-1.962
		C8.329,7.919,7.507,7.819,6.885,7.57c-0.751-0.3-0.754-0.296-0.753,0.495c0.01,10.033,0.024,20.066,0.02,30.099
		c0,0.418,0.134,0.543,0.516,0.589c1.234,0.149,2.461,0.342,3.664,0.67c2.256,0.615,4.409,1.486,6.477,2.571
		c0.046,0.035,0.092,0.071,0.138,0.106l-0.007,0.018l0,0l0,0c0.009-0.004,0.019-0.008,0.028-0.012
		c-0.005-0.002-0.01-0.004-0.015-0.006C17.001,42.028,16.968,41.963,16.917,41.9z"/>
	<path class="st2" d="M17,42.116c0.004,0.001,0.012-0.021,0.018-0.032c-0.017,0.007-0.034,0.015-0.051,0.022
		C16.978,42.111,16.989,42.115,17,42.116z"/>
	<path class="st2" d="M11.764,43.183c0.004,0.004,0.02-0.002,0.03-0.004c-0.014-0.005-0.028-0.011-0.042-0.016
		C11.755,43.171,11.759,43.178,11.764,43.183z"/>
	<path class="st2" d="M11.734,43.157c0.006,0.002,0.012,0.005,0.019,0.007c-0.003-0.007-0.006-0.013-0.009-0.02
		C11.744,43.144,11.734,43.157,11.734,43.157z"/>
	<path class="st2" d="M37.933,43.164c0.006-0.002,0.012-0.005,0.018-0.007l0,0c0.002-0.005,0.005-0.009,0.007-0.015
		c-0.006,0.001-0.012,0.001-0.017,0.002C37.939,43.15,37.936,43.157,37.933,43.164z"/>
	<path class="st2" d="M37.921,43.183c0.005-0.005,0.009-0.012,0.012-0.02c-0.014,0.005-0.028,0.011-0.042,0.016
		C37.901,43.181,37.917,43.188,37.921,43.183z"/>
</g>
</svg>
