<?xml version="1.0" encoding="utf-8"?>
<!-- Generator: Adobe Illustrator 23.0.3, SVG Export Plug-In . SVG Version: 6.00 Build 0)  -->
<svg version="1.1" id="Layer_1" xmlns="http://www.w3.org/2000/svg" xmlns:xlink="http://www.w3.org/1999/xlink" x="0px" y="0px"
	 viewBox="0 0 50 50" style="enable-background:new 0 0 50 50;" xml:space="preserve">
<style type="text/css">
	.st0{fill:#FFFFFF;}
</style>
<g>
	<path class="st0" d="M42.716,5.2c-5.928,0-11.856,0-17.784,0c-5.956,0-11.911-0.001-17.867,0.003c-0.248,0-0.504,0.004-0.744,0.059
		C5.093,5.544,4.355,6.557,4.355,7.943c-0.001,11.217,0,22.434,0,33.651c0,1.814,1.028,2.832,2.844,2.831
		c4.054-0.003,8.107-0.005,12.161,0.008c0.211,0.001,0.471,0.084,0.625,0.221c2.759,2.476,7.035,2.53,9.834,0.093
		c0.27-0.235,0.537-0.332,0.893-0.331c4.012,0.01,8.024,0.009,12.036,0.001c0.329-0.001,0.671-0.029,0.985-0.119
		c1.143-0.328,1.787-1.297,1.787-2.643c0.001-11.217,0.001-22.434,0-33.651C45.521,6.282,44.436,5.2,42.716,5.2z M7.119,6.48
		c11.864-0.001,23.729-0.001,35.593,0c0.991,0,1.447,0.461,1.448,1.454c0.001,2.165,0,4.329,0,6.494c0,0.136,0,0.271,0,0.442
		c-12.858,0-25.649,0-38.478,0c-0.007-0.144-0.02-0.277-0.02-0.41c-0.001-2.179-0.002-4.357,0-6.536
		C5.661,6.94,6.125,6.48,7.119,6.48z M26.385,45.07c-2.646,0.674-5.503-0.553-6.749-2.898c-1.546-2.91-0.308-6.378,2.769-7.759
		c3.391-1.523,7.373,0.332,8.278,3.866c0.109,0.426,0.138,0.873,0.205,1.31C30.836,42.171,29.02,44.399,26.385,45.07z
		 M36.251,20.815c-3.465,3.014-6.93,6.028-10.399,9.039c-0.592,0.514-1.034,0.512-1.62,0.006c-3.518-3.038-7.035-6.077-10.553-9.115
		c-0.051-0.044-0.109-0.082-0.164-0.122c0.014-0.029,0.029-0.058,0.043-0.087c7.627,0,15.254,0,22.96,0
		C36.404,20.655,36.334,20.742,36.251,20.815z M37.658,21.333c0,5.09,0,10.093,0,15.162c-3.015-2.477-5.989-4.921-8.998-7.392
		C31.657,26.515,34.622,23.955,37.658,21.333z M21.291,29.038c-2.992,2.519-5.939,5-8.939,7.526c0-5.093,0-10.12,0-15.241
		C15.341,23.903,18.293,26.45,21.291,29.038z M22.319,29.949c0.371,0.305,0.743,0.61,1.113,0.915
		c1.038,0.856,2.236,0.844,3.249-0.033c0.335-0.29,0.667-0.583,1.011-0.885c2.923,2.432,5.829,4.851,8.839,7.356
		c-0.4,0-0.671,0-0.941,0c-1.166,0-2.332-0.006-3.497,0.005c-0.239,0.002-0.36-0.065-0.458-0.301
		c-1.126-2.709-3.717-4.402-6.714-4.406c-2.958-0.004-5.588,1.716-6.745,4.394c-0.056,0.13-0.232,0.294-0.356,0.298
		c-1.387,0.041-2.775,0.054-4.163,0.073c-0.037,0.001-0.074-0.016-0.186-0.043C16.444,34.845,19.364,32.411,22.319,29.949z
		 M44.233,16.643c0,8.328,0,16.657,0,24.985c0,0.965-0.525,1.491-1.489,1.491c-3.748,0.001-7.496,0-11.243,0
		c-0.097,0-0.193,0-0.365,0c0.812-1.404,1.157-2.872,0.963-4.511c0.155,0,0.301,0,0.446,0c1.666,0,3.331,0.001,4.997,0
		c0.902-0.001,1.384-0.482,1.384-1.389c0.001-5.691,0.001-11.382,0-17.073c0-0.694-0.166-0.859-0.856-0.859
		c-8.564-0.001-17.129-0.001-25.693-0.001c-0.878,0-1.365,0.486-1.365,1.367c-0.002,5.511-0.002,11.021,0,16.532
		c0,0.931,0.484,1.421,1.405,1.423c1.61,0.004,3.22,0.001,4.831,0.001c0.15,0,0.299,0,0.471,0c-0.18,1.62,0.136,3.096,0.978,4.512
		c-0.237,0-0.4,0-0.562,0c-3.678,0-7.357,0.001-11.035,0c-0.997,0-1.437-0.448-1.437-1.453c0-8.328,0-16.657,0-24.985
		c0-0.15,0-0.299,0-0.471c12.863,0,25.684,0,38.573,0C44.233,16.353,44.233,16.498,44.233,16.643z"/>
	<path class="st0" d="M26.014,13.018c1.216,0,2.193-0.982,2.193-2.203c0-1.225-0.972-2.195-2.196-2.191
		c-1.256,0.005-2.202,0.966-2.193,2.229C23.826,12.026,24.832,13.018,26.014,13.018z M25.989,9.974
		c0.473-0.014,0.91,0.405,0.921,0.882c0.011,0.479-0.397,0.914-0.872,0.932c-0.468,0.017-0.933-0.418-0.934-0.874
		C25.102,10.455,25.544,9.987,25.989,9.974z"/>
	<path class="st0" d="M18.333,13.019c1.201-0.007,2.164-0.965,2.176-2.165c0.013-1.257-0.935-2.226-2.184-2.23
		c-1.23-0.004-2.191,0.946-2.201,2.174C16.115,12.035,17.101,13.026,18.333,13.019z M18.306,9.974
		c0.472-0.004,0.907,0.416,0.921,0.887c0.013,0.466-0.412,0.913-0.88,0.926c-0.476,0.013-0.911-0.394-0.931-0.871
		C17.394,10.403,17.796,9.978,18.306,9.974z"/>
	<path class="st0" d="M10.57,13.018c1.223-0.003,2.185-0.971,2.186-2.199c0.001-1.233-0.952-2.192-2.182-2.193
		c-1.208-0.002-2.208,0.99-2.209,2.19C8.364,12.005,9.381,13.021,10.57,13.018z M10.554,9.973c0.473-0.001,0.908,0.421,0.918,0.891
		c0.009,0.471-0.411,0.911-0.882,0.924c-0.491,0.014-0.925-0.417-0.924-0.916C9.666,10.372,10.06,9.974,10.554,9.973z"/>
	<path class="st0" d="M25.981,39.297c-0.166-0.069-0.35-0.099-0.506-0.185c-0.099-0.054-0.22-0.173-0.227-0.27
		c-0.026-0.385-0.011-0.773-0.011-1.183c0.143,0.021,0.257,0.019,0.356,0.056c0.244,0.094,0.48,0.206,0.765,0.33
		c0.16-0.221,0.312-0.431,0.521-0.719c-0.561-0.21-1.072-0.401-1.625-0.608c-0.01-0.059-0.03-0.175-0.051-0.297
		c-0.163,0-0.297,0-0.446,0c-0.025,0.148-0.048,0.28-0.066,0.389c-0.281,0.073-0.543,0.114-0.784,0.208
		c-0.62,0.241-0.94,0.736-0.928,1.384c0.011,0.596,0.306,0.981,0.946,1.223c0.168,0.063,0.352,0.088,0.512,0.165
		c0.089,0.043,0.201,0.154,0.206,0.24c0.021,0.411,0.01,0.824,0.01,1.364c-0.51-0.241-0.939-0.444-1.406-0.664
		c-0.148,0.165-0.329,0.367-0.589,0.656c0.683,0.307,1.306,0.586,1.981,0.889c0.01,0.071,0.031,0.228,0.053,0.384
		c0.163,0,0.297,0,0.449,0c0.016-0.166,0.03-0.314,0.045-0.471c0.248-0.063,0.495-0.105,0.726-0.189c0.643-0.234,0.985-0.72,1-1.385
		C26.926,39.95,26.672,39.586,25.981,39.297z M24.696,38.854c-0.518-0.057-0.783-0.297-0.755-0.663
		c0.025-0.328,0.306-0.54,0.755-0.555C24.696,38.042,24.696,38.447,24.696,38.854z M25.267,41.379c0-0.456,0-0.875,0-1.345
		c0.387,0.129,0.812,0.207,0.79,0.687C26.038,41.149,25.66,41.268,25.267,41.379z"/>
</g>
</svg>
