<?xml version="1.0" encoding="utf-8"?>
<!-- Generator: Adobe Illustrator 22.1.0, SVG Export Plug-In . SVG Version: 6.00 Build 0)  -->
<svg version="1.1" id="Layer_1" xmlns="http://www.w3.org/2000/svg" xmlns:xlink="http://www.w3.org/1999/xlink" x="0px" y="0px"
	 viewBox="0 0 50 50" style="enable-background:new 0 0 50 50;" xml:space="preserve">
<style type="text/css">
	.st0{fill:#FFFFFF;}
</style>
<g>
	<path class="st0" d="M21.639,23.633c3.114-3.254,6.987-4.688,11.481-4.513c0-5.007,0-9.977,0-14.983c-0.204,0-0.373,0-0.542,0
		C26.6,4.135,20.623,4.134,14.645,4.134c-1.51,0-3.02-0.004-4.53,0.004C9.414,4.141,8.901,4.489,8.856,5.071
		C8.801,5.777,8.843,6.49,8.843,7.249c0.47,0,0.903-0.015,1.335,0.003c0.934,0.039,1.691,0.712,1.771,1.551
		c0.094,0.997-0.718,1.815-1.883,1.878c-0.399,0.022-0.8,0.004-1.204,0.004c0,0.689,0,1.313,0,1.98c0.492,0,0.943-0.024,1.391,0.005
		c0.913,0.058,1.636,0.742,1.697,1.57c0.06,0.822-0.527,1.588-1.409,1.774c-0.361,0.076-0.742,0.061-1.114,0.08
		c-0.194,0.009-0.388,0.002-0.569,0.002c0,0.649,0,1.216,0,1.813c0.44,0,0.843-0.013,1.246,0.003
		c1.178,0.047,2.004,0.954,1.828,1.996c-0.134,0.797-0.934,1.415-1.883,1.444c-0.398,0.012-0.797,0.002-1.2,0.002
		c0,0.685,0,1.3,0,1.97c0.46,0,0.892-0.019,1.323,0.004c1.248,0.064,2.083,1.173,1.695,2.232c-0.256,0.697-0.978,1.173-1.842,1.201
		c-0.384,0.013-0.77,0.002-1.165,0.002c0,0.679,0,1.304,0,1.979c0.503,0,0.97-0.031,1.431,0.007
		c0.922,0.075,1.622,0.769,1.662,1.601c0.041,0.839-0.582,1.58-1.495,1.755c-0.257,0.049-0.525,0.052-0.789,0.062
		c-0.273,0.01-0.546,0.002-0.85,0.002c0,0.665-0.003,1.254,0.001,1.843c0.006,0.896,0.459,1.356,1.348,1.357
		c1.977,0.004,3.954,0.001,5.931,0.001c0.495,0,0.99,0,1.541,0C17.272,30.829,18.52,26.891,21.639,23.633z M16.347,8.964
		c4.057,0,8.102,0,12.208,0c0,1.626,0,3.245,0,4.908c-4.045,0-8.07,0-12.208,0C16.347,12.229,16.347,10.629,16.347,8.964z"/>
	<path class="st0" d="M32.199,20.402c-7.35-0.012-13.338,5.943-13.379,13.305c-0.042,7.387,5.94,13.432,13.323,13.464
		c7.407,0.032,13.431-5.961,13.45-13.383C45.611,26.407,39.614,20.414,32.199,20.402z M32.207,44.73
		c-6.114-0.005-11.009-4.872-11.012-10.947c-0.003-6.008,4.991-11.024,10.954-11.003c6.086,0.022,11.008,4.96,11,11.037
		C43.14,39.85,38.243,44.735,32.207,44.73z"/>
	<path class="st0" d="M6.884,18.916c-0.344,0.163-0.597,0.408-0.592,0.814c0.004,0.425,0.261,0.692,0.638,0.829
		c0.214,0.078,0.451,0.113,0.679,0.126c0.371,0.02,0.745,0.005,1.117,0.005c0,0.009,0.001,0.017,0.001,0.026
		c0.526-0.027,1.057-0.013,1.574-0.094c0.529-0.082,0.858-0.48,0.859-0.901c0.001-0.413-0.345-0.863-0.862-0.891
		c-1.033-0.057-2.071-0.021-3.108-0.013C7.088,18.817,6.98,18.87,6.884,18.916z"/>
	<path class="st0" d="M7.35,15.298c0.915,0.026,1.831,0.027,2.746,0c0.621-0.018,1.084-0.468,1.066-0.957
		c-0.018-0.487-0.502-0.899-1.113-0.922c-0.434-0.016-0.869-0.003-1.303-0.003c0-0.001,0-0.002,0-0.003c-0.233,0-0.465,0-0.698,0
		c-0.233,0.001-0.467-0.012-0.698,0.008c-0.604,0.051-1.074,0.488-1.061,0.971C6.302,14.874,6.74,15.281,7.35,15.298z"/>
	<path class="st0" d="M7.342,9.946c0.933,0.034,1.868,0.032,2.801,0c0.561-0.019,1.005-0.463,1.016-0.919
		c0.012-0.479-0.434-0.913-1.027-0.951c-0.465-0.029-0.933-0.006-1.4-0.006c0-0.001,0-0.002,0-0.002
		c-0.452,0-0.904-0.019-1.354,0.004C6.767,8.105,6.312,8.496,6.293,8.967C6.273,9.465,6.719,9.924,7.342,9.946z"/>
	<path class="st0" d="M6.769,25.835c0.183,0.102,0.406,0.182,0.612,0.186c0.9,0.02,1.8,0.025,2.699,0.002
		c0.611-0.016,1.084-0.461,1.079-0.95c-0.006-0.493-0.468-0.899-1.095-0.929c-0.433-0.021-0.869-0.004-1.303-0.004
		c0-0.002,0-0.004,0-0.007c-0.419,0-0.839-0.024-1.256,0.009c-0.255,0.02-0.528,0.083-0.748,0.207
		C6.114,24.711,6.123,25.475,6.769,25.835z"/>
	<path class="st0" d="M10.131,31.37c0.574-0.035,1.009-0.441,1.028-0.904c0.018-0.431-0.436-0.936-0.981-0.959
		c-0.963-0.041-1.931-0.042-2.893,0.001c-0.574,0.026-0.997,0.48-0.998,0.934c-0.001,0.485,0.428,0.888,1.045,0.93
		c0.449,0.03,0.902,0.006,1.353,0.006c0,0,0-0.001,0-0.001C9.167,31.376,9.651,31.4,10.131,31.37z"/>
	<path class="st0" d="M33.387,23.888c-0.642,0.055-1.082,0.546-1.088,1.232c-0.007,0.669-0.002,1.339-0.002,2.008
		c0,2.209,0,4.418,0,6.709c-0.205,0-0.357,0-0.509,0c-1.448,0.001-2.895-0.008-4.343,0.007c-0.78,0.008-1.271,0.495-1.262,1.198
		c0.009,0.707,0.51,1.176,1.283,1.178c2.039,0.006,4.078,0.006,6.117,0.005c0.58,0,0.971-0.324,1.081-0.89
		c0.026-0.136,0.035-0.278,0.035-0.417c0.002-3.206,0.002-6.413,0-9.619c0-0.124-0.004-0.25-0.027-0.371
		C34.553,24.271,34.01,23.835,33.387,23.888z"/>
</g>
</svg>
