<?xml version="1.0" encoding="utf-8"?>
<!-- Generator: Adobe Illustrator 22.1.0, SVG Export Plug-In . SVG Version: 6.00 Build 0)  -->
<svg version="1.1" id="Layer_1" xmlns="http://www.w3.org/2000/svg" xmlns:xlink="http://www.w3.org/1999/xlink" x="0px" y="0px"
	 viewBox="0 0 50 50" style="enable-background:new 0 0 50 50;" xml:space="preserve">
<style type="text/css">
	.st0{display:none;}
	.st1{display:inline;}
	.st2{fill:#FFFFFF;}
</style>
<g id="_x34_2FiKe_1_" class="st0">
	<g class="st1">
		<path d="M7.229,7.897c0.43,0,0.766,0,1.102,0c7.634,0,15.268,0.009,22.902-0.016c0.704-0.002,1.197,0.202,1.688,0.696
			c1.459,1.467,2.981,2.871,4.444,4.335c0.256,0.256,0.484,0.682,0.485,1.03c0.024,11.095,0.018,22.19,0.013,33.285
			c0,0.129-0.041,0.257-0.073,0.44c-10.188,0-20.345,0-30.56,0C7.229,34.415,7.229,21.229,7.229,7.897z M9.96,10.613
			c0,11.492,0,22.907,0,34.349c8.425,0,16.786,0,25.161,0c0-10.078,0-20.097,0-30.169c-1.161,0-2.247-0.043-3.328,0.014
			c-0.78,0.041-1.106-0.172-1.048-1.012c0.072-1.038,0.017-2.085,0.017-3.183C23.789,10.613,16.917,10.613,9.96,10.613z"/>
		<path d="M43.036,41.57c-1.245,0-2.451,0-3.726,0c0-0.854,0-1.682,0-2.568c0.322-0.054,0.641-0.108,1.002-0.169
			c0-10.032,0-20.025,0-30.124c-1.426,0-2.8,0-4.278,0c0-1.441,0-2.78,0-4.19c-7.036,0-13.967,0-20.962,0
			c-0.027,0.624-0.053,1.218-0.082,1.865c-0.864,0-1.663,0-2.537,0c0-1.497,0-2.97,0-4.592c0.345,0,0.703,0,1.06,0
			c7.635,0,15.27,0.009,22.905-0.015c0.703-0.002,1.204,0.2,1.694,0.695c1.456,1.471,2.977,2.878,4.425,4.355
			c0.293,0.299,0.538,0.8,0.539,1.209c0.029,10.927,0.023,21.853,0.021,32.78C43.095,41.047,43.06,41.277,43.036,41.57z"/>
		<path d="M22.158,40.501c-2.578,0-5.156-0.006-7.735,0.004c-0.754,0.003-1.401-0.151-1.422-1.054
			c-0.022-0.968,0.668-1.143,1.452-1.144c5.19-0.001,10.381,0.002,15.571-0.002c0.76-0.001,1.42,0.212,1.435,1.074
			c0.016,0.924-0.649,1.135-1.465,1.129C27.382,40.489,24.77,40.501,22.158,40.501z"/>
		<path d="M22.503,28.51c2.576,0,5.153,0.005,7.729-0.003c0.772-0.003,1.467,0.086,1.52,1.066c0.042,0.775-0.452,1.132-1.564,1.134
			c-5.119,0.005-10.237-0.001-15.356,0.006c-0.784,0.001-1.458-0.144-1.535-1.082c-0.061-0.75,0.479-1.117,1.578-1.119
			C17.418,28.507,19.96,28.51,22.503,28.51z"/>
		<path d="M22.506,20.949c-2.61,0-5.22-0.014-7.83,0.009c-0.802,0.007-1.374-0.248-1.371-1.106c0.003-0.81,0.599-1.081,1.322-1.082
			c5.288-0.005,10.576-0.008,15.864,0.005c0.719,0.002,1.279,0.289,1.258,1.13c-0.021,0.842-0.568,1.053-1.31,1.049
			C27.794,20.942,25.15,20.949,22.506,20.949z"/>
		<path d="M22.56,26.026c-2.542,0-5.085-0.007-7.627,0.004c-0.801,0.004-1.549-0.062-1.634-1.076
			c-0.063-0.748,0.484-1.124,1.579-1.125c5.119-0.004,10.237,0.001,15.356-0.004c0.772-0.001,1.497,0.102,1.511,1.075
			c0.015,1.043-0.75,1.131-1.557,1.129C27.644,26.022,25.102,26.026,22.56,26.026z"/>
		<path d="M22.508,33.59c2.609,0,5.218,0.01,7.827-0.006c0.756-0.004,1.391,0.115,1.412,1.04c0.02,0.915-0.623,1.129-1.362,1.13
			c-5.218,0.01-10.436,0.007-15.654,0.004c-0.744,0-1.417-0.205-1.423-1.084c-0.007-0.944,0.666-1.101,1.475-1.093
			C17.358,33.606,19.933,33.59,22.508,33.59z"/>
	</g>
</g>
<g>
	<path class="st2" d="M14.778,20.727c0.045-0.031,0.074-0.086,0.169-0.201c-1.47,0.348-2.828,0.247-4.134-0.365
		c-0.082-0.039-0.201-0.033-0.294-0.011c-1.211,0.29-2.463,0.475-3.621,0.909c-1.794,0.674-2.937,2.048-3.15,3.965
		c-0.193,1.738-0.156,3.502-0.208,5.254c-0.004,0.12,0.069,0.309,0.161,0.356c0.958,0.484,1.928,0.945,3.02,1.474
		c0-1.306,0-2.389,0-3.472c0.045-0.005,0.091-0.01,0.136-0.015c0.174,1.049,0.34,2.1,0.531,3.146
		c0.032,0.172,0.151,0.442,0.272,0.467c1.112,0.233,2.234,0.422,3.43,0.638c0-0.378-0.001-0.597,0-0.815
		c0.006-1.393-0.03-2.788,0.027-4.178C11.239,24.943,12.275,22.454,14.778,20.727z"/>
	<path class="st2" d="M46.232,25.61c-0.167-2.201-1.279-3.829-3.369-4.605c-1.121-0.417-2.336-0.582-3.509-0.855
		c-0.093-0.022-0.212-0.027-0.295,0.012c-1.14,0.538-2.339,0.675-3.602,0.536c0.104,0.151,0.221,0.248,0.34,0.344
		c1.227,0.999,2.118,2.251,2.462,3.787c0.28,1.249,0.415,2.542,0.493,3.822c0.082,1.344,0.018,2.697,0.018,4.215
		c1.121-0.196,2.145-0.392,3.176-0.548c0.4-0.06,0.516-0.258,0.569-0.632c0.144-1.03,0.335-2.053,0.507-3.079
		c0.042,0.002,0.084,0.004,0.125,0.007c0,1.093,0,2.185,0,3.493c1.092-0.524,2.049-0.969,2.988-1.449
		c0.116-0.059,0.2-0.299,0.199-0.454C46.317,28.672,46.348,27.135,46.232,25.61z"/>
	<path class="st2" d="M37.962,19.207c2.256-0.628,3.807-2.663,3.822-5.423c-0.074-1.801-1.046-3.477-3.077-4.39
		c-2.021-0.908-3.93-0.581-5.644,0.837c-0.251,0.208-0.356,0.406-0.286,0.772c0.336,1.76,0.082,3.453-0.753,5.04
		c-0.179,0.34-0.135,0.578,0.052,0.88C33.304,18.897,35.705,19.835,37.962,19.207z"/>
	<path class="st2" d="M11.823,19.185c2.282,0.667,4.701-0.248,5.956-2.235c0.2-0.317,0.243-0.568,0.054-0.931
		c-0.816-1.57-1.072-3.244-0.743-4.984c0.072-0.383-0.025-0.599-0.3-0.823c-1.703-1.389-3.591-1.719-5.595-0.83
		c-2.036,0.904-3.017,2.572-3.104,4.369C8.096,16.491,9.618,18.54,11.823,19.185z"/>
	<path class="st2" d="M31.826,20.593l-13.359,0.012c-2.678,0.322-5.244,2.732-5.716,5.599c-0.254,1.54-0.232,3.132-0.262,4.702
		c-0.04,2.084-0.017,2.099,1.878,2.987c0.411,0.193,0.533,0.419,0.54,0.863c0.083,5.446,4.512,9.844,9.916,9.875
		c5.519,0.031,9.991-4.267,10.144-9.768c0.012-0.416,0.113-0.646,0.522-0.809c0.54-0.215,1.053-0.51,1.552-0.812
		c0.159-0.096,0.341-0.326,0.34-0.493c-0.02-2.057,0.053-4.126-0.143-6.168C36.936,23.444,34.738,21.143,31.826,20.593z
		 M24.905,43.052c-4.682-0.035-8.462-3.858-8.435-8.53c0.027-4.659,3.877-8.437,8.56-8.4c4.629,0.036,8.402,3.879,8.373,8.526
		C33.375,39.28,29.527,43.086,24.905,43.052z"/>
	<path class="st2" d="M24.881,19.119c3.684,0,6.67-2.986,6.67-6.67c0-1.162-0.299-2.255-0.821-3.206
		c-0.198-0.365-0.43-0.705-0.689-1.019c-0.047-0.058-0.1-0.111-0.149-0.167c-0.082-0.093-0.163-0.187-0.25-0.275
		c-0.104-0.106-0.215-0.206-0.326-0.305c-0.032-0.028-0.061-0.058-0.093-0.085c-1.167-1.003-2.682-1.613-4.342-1.613
		c-3.684,0-6.67,2.986-6.67,6.67C18.211,16.133,21.197,19.119,24.881,19.119z"/>
	<path class="st2" d="M27.044,39.93c-0.18-0.09-0.269-0.193-0.269-0.309V28.157h-0.658c-0.143,0-0.243,0.017-0.301,0.051
		c-0.058,0.034-0.248,0.26-0.57,0.677c-0.417,0.539-0.845,0.969-1.283,1.291c-0.438,0.322-0.784,0.536-1.038,0.642
		c-0.19,0.074-0.309,0.141-0.356,0.202c-0.048,0.061-0.071,0.152-0.071,0.273v0.317c0,0.18,0.082,0.269,0.246,0.269
		c0.333,0,0.737-0.082,1.212-0.246v7.898c0,0.169-0.148,0.298-0.444,0.388c-0.19,0.058-0.3,0.119-0.329,0.182
		c-0.029,0.063-0.044,0.227-0.044,0.491c0,0.185,0.017,0.301,0.052,0.349c0.034,0.048,0.128,0.071,0.281,0.071h3.628
		c0.185,0,0.277-0.069,0.277-0.206c0-0.349-0.017-0.564-0.051-0.646C27.291,40.081,27.197,40.003,27.044,39.93z"/>
</g>
</svg>
