<?xml version="1.0" encoding="utf-8"?>
<!-- Generator: Adobe Illustrator 23.0.1, SVG Export Plug-In . SVG Version: 6.00 Build 0)  -->
<svg version="1.1" id="Layer_1" xmlns="http://www.w3.org/2000/svg" xmlns:xlink="http://www.w3.org/1999/xlink" x="0px" y="0px"
	 viewBox="0 0 50 50" style="enable-background:new 0 0 50 50;" xml:space="preserve">
<style type="text/css">
	.st0{fill:#FFFFFF;}
</style>
<g>
	<path class="st0" d="M33.741,30.205l-0.492-0.281l-0.102-0.056l-0.151-0.091l-0.806-0.471l-0.373-0.201l-0.078-0.042l-0.053-0.03
		l-0.297-0.166v0.476v0.959h-1.392h-0.65c-0.333,1.726-1.074,3.688-2.172,5.024l0.005,0.011l0.021,0.07l0.015,0.069l0.007,0.058
		l0.01,0.053l0.007,0.026l0.016,0.026l0.025,0.027l0.021,0.025l0.016,0.019l0.015,0.019l0.046,0.052l0.025,0.021l0.017,0.017
		l0.004,0.001l0.023,0.014l0.026,0.008l0.023,0.005l0.019,0.004l0.016,0.004l0.023,0.011l0.014,0.005l0.019,0.016l0.016,0.011
		l0.017,0.011l0.03,0.039l0.033,0.039l0.024,0.031l0.016,0.021l0.01,0.013l0.03,0.053l0.015,0.034l0.016,0.044l0.011,0.039
		l0.012,0.032l0.014,0.027l0.008,0.029l0.016,0.025l0.019,0.03l0.012,0.022l0.01,0.012l0.002,0.003l0.013,0.013l0.014,0.006
		l0.045,0.027l0.045,0.03l0.027,0.013l0.031,0.013l0.034,0.016l0.027,0.016l0.03,0.02l0.004,0.002l0.034,0.022l0.037,0.031
		l0.019,0.01l0.025,0.024l0.014,0.013l0.007,0.008l0.015,0.022l0.015,0.027l0.01,0.022l0.011,0.027l0.013,0.026l0.016,0.022
		l0.007,0.019l0.002,0.019l0.008,0.023l0.005,0.013l0.011,0.019l0.016,0.014l0.019,0.016l0.016,0.011l0.015,0.007l0.027,0.011
		l0.007,0.004l0.013,0.016l0.016,0.016l0.004,0.004l0.022,0.019l0.025,0.033l0.019,0.033l0.013,0.036l0.001,0.046l-0.011,0.028
		l-0.003,0.006l-0.016,0.033l-0.03,0.03l-0.031,0.025l-0.027,0.022l-0.027,0.018l-0.019,0.006h-0.021l-0.029,0.001l-0.03,0.004
		l-0.019,0.007l-0.004,0.002l-0.024,0.01l-0.023,0.016l-0.019,0.017l-0.019,0.014l-0.016,0.015l-0.004,0.002l-0.016,0.012
		l-0.016,0.007l-0.018,0.003H28.19l-0.004-0.002l-0.019-0.004l-0.022-0.006l-0.035-0.018l-0.003-0.001l-0.035-0.014l-0.027-0.007
		h-0.026l-0.023,0.007l-0.019,0.007l-0.016,0.015l-0.014,0.019l-0.015,0.024L27.925,37.5l-0.013,0.03l-0.004,0.033l-0.007,0.026
		l-0.014,0.019l-0.019,0.016l-0.023,0.015l-0.027,0.013l-0.019,0.013l-0.016,0.014l-0.013,0.016l-0.01,0.016l-0.01,0.016
		l-0.015,0.016l-0.012,0.011l-0.023,0.01l-0.021,0.01l-0.024,0.01l-0.023,0.012l-0.028,0.01l-0.034,0.011l-0.03,0.011l-0.02,0.009
		l-0.023,0.007l-0.027,0.007l-0.023,0.007l-0.023,0.007L27.4,37.867l-0.042,0.003l-0.021-0.001h-0.009l-0.031,0.007l-0.03,0.017
		l-0.061,0.041l-0.078,0.051l-0.047,0.024l-0.039,0.023l-0.01,0.008l-0.017,0.014l-0.026,0.022l-0.023,0.018l-0.016,0.018
		l-0.032,0.036l-0.017,0.022l-0.007,0.008l-0.024,0.022l-0.027,0.021l-0.003,0.002l-0.027,0.02l-0.021,0.015l-0.015,0.009
		l-0.039,0.019l-0.041,0.013l-0.031,0.01l-0.03,0.01l-0.027,0.014l-0.023,0.014l-0.015,0.016l-0.02,0.021l-0.009,0.018l-0.016,0.025
		l-0.008,0.026l-0.011,0.023l-0.012,0.022l-0.011,0.022l-0.022,0.024l-0.023,0.027l-0.027,0.024l-0.03,0.024l-0.042,0.021
		l-0.05,0.015l-0.049,0.016l-0.027,0.009l-0.046,0.017l-0.051,0.033l-0.035,0.025l-0.012,0.008l-0.007,0.007l-0.024,0.024
		l-0.019,0.022l-0.009,0.019l-0.01,0.025l-0.003,0.02l-0.005,0.03l0.003,0.033l0.003,0.03l0.002,0.034l0.007,0.034l0.007,0.033
		l0.007,0.023l0.01,0.03l0.007,0.023l0.004,0.022l-0.001,0.033l-0.004,0.025l-0.002,0.012l-0.007,0.033l-0.012,0.027l-0.019,0.03
		l-0.019,0.024l-0.004,0.005l-0.026,0.025l-0.024,0.017l-0.004,0.001l-0.02,0.005l-0.033,0.007l-0.044,0.002l-0.049-0.002
		l-0.044-0.005l-0.027,0.001l-0.013,0.002l-0.007,0.001l-0.021,0.008l-0.013,0.01l-0.007,0.004l-0.013,0.009l-0.005,0.004
		l-0.011,0.017l-0.047,0.043l-0.042,0.036l-0.008,0.005l-0.047,0.029l-0.07,0.03l-0.077,0.027l-0.045,0.01l-0.045,0.009
		l-0.046,0.013l-0.042,0.011l-0.037,0.007l-0.038,0.004l-0.043,0.003l-0.06-0.01l-0.062-0.012l-0.046-0.004h-0.038l-0.038,0.003
		l-0.03,0.008l-0.027,0.008l-0.011,0.004l-0.031,0.014l-0.03,0.018l-0.038,0.023l-0.049,0.038l-0.042,0.045l-0.109,0.089
		l-0.183,0.137l0.057,0.051l-0.03,0.015l-0.061,0.026l-0.033,0.019l-0.004,0.003l-0.033,0.019l-0.008,0.008L24.1,40.219
		l-0.046,0.041l-0.045,0.049l-0.023,0.022l-0.015,0.022l-0.016,0.007l-0.015,0.015l-0.012,0.016l-0.007,0.022l-0.011,0.022
		l-0.008,0.022l-0.011,0.034l-0.015,0.033l-0.016,0.03l-0.011,0.026l-0.016,0.03l-0.007,0.022l-0.004,0.026l-0.004,0.022
		l-0.008,0.034v0.022l-0.004,0.015l-0.004,0.011l-0.007,0.011h-0.019l-0.019-0.004l-0.007-0.004l-0.012,0.004l-0.007,0.015
		l-0.004,0.015l-0.017,0.033l-0.017,0.034l-0.008,0.012l-0.025,0.024l-0.016,0.013l-0.011,0.019l-0.007,0.022l-0.004,0.03
		l-0.004,0.03l-0.004,0.033l-0.004,0.019l-0.004,0.033l-0.004,0.022l-0.011,0.023l-0.016,0.022l-0.015,0.019l-0.016,0.019
		l-0.015,0.015l-0.015,0.016l-0.012,0.019l-0.011,0.015l-0.007,0.019l-0.012,0.015l-0.007,0.007l-0.004,0.007l-0.023,0.015
		l-0.027,0.012l-0.019,0.015l-0.015,0.015l-0.011,0.015l-0.012,0.011l-0.019,0.015l-0.016,0.019l-0.011,0.023l-0.013,0.04
		l-0.006,0.016l0.004,0.038l0.012,0.051l0.011,0.053l0.004,0.014l0.004,0.013l0.011,0.019l0.023,0.022l0.03,0.019l0.015,0.011
		l0.016,0.004l0.015,0.004l0.012,0.011l0.004,0.011v0.012l0.011,0.015l0.008,0.015l0.011,0.011l0.016,0.011l0.054,0.015l0.022,0.019
		l0.016,0.019l0.011,0.027l0.004,0.026l-0.004,0.03l-0.019,0.041l-0.007,0.027l-0.012,0.022l-0.012,0.02l-0.011,0.017l-0.015,0.019
		L23.5,42.151l-0.027,0.022l-0.011,0.015l-0.004,0.022l0.004,0.011l0.007,0.015l0.013,0.009l0.01,0.007l0.004,0.007v0.03
		l-0.004,0.041l-0.007,0.03v0.033l0.004,0.011l-0.004,0.019l-0.007,0.019l-0.004,0.011l-0.004,0.023l0.004,0.019l0.004,0.007
		l0.015,0.045l-0.012,0.007l-0.01,0.006l-0.012,0.006l-0.07,0.004l-0.069,0.003h-0.049l-0.012,0.026l-0.008,0.019l-0.013,0.048
		l-0.006,0.023v0.03l0.033,0.076l0.052,0.077l0.02,0.025l0.057,0.063l0.053-0.033h0.05l0.03-0.012l0.046,0.004l0.042,0.034
		l0.05,0.048l0.023,0.015l0.053,0.022l0.068,0.071l0.08,0.082l0.038,0.075l0.027,0.068L24,43.372l0.03,0.019l0.038,0.033l0.03,0.053
		l0.046,0.026l0.042-0.015l0.053-0.019l0.023-0.008l-0.012,0.03l0.008,0.037l0.038,0.026v0.038l0.027,0.037l0.007,0.105l0.012,0.022
		l0.034,0.015l0.03,0.026l0.034,0.038l0.053,0.056l0.016,0.022h0.042l0.016-0.026l0.007-0.037l0.011-0.004l0.012-0.008l0.068,0.011
		l0.05,0.019l0.018,0.045l0.004,0.045l0.008,0.042l0.011,0.022l0.03,0.03l0.027,0.068v0.03l-0.011,0.03l0.007,0.022l0.012,0.019
		l0.102,0.063l0.035,0.045l0.034,0.019l0.027-0.026l0.015-0.033l0.011-0.026l0.023-0.015l0.088-0.001h0.053l0.015,0.015
		l-0.004,0.049l0.03,0.004l0.039,0.011l0.027,0.015v0.041l-0.03,0.034l-0.027,0.011l0.03,0.041l0.042,0.026l0.062,0.045l0.053,0.019
		l0.053,0.019l0.042,0.019l0.019,0.015l0.004,0.064l0.011,0.041l0.019,0.004l0.026-0.015l0.019-0.019l0.03,0.004l0.05,0.026
		l0.053,0.085l0.004,0.053l-0.015,0.033l-0.019,0.03v0.03l0.023,0.011l0.023,0.022l-0.004,0.03l-0.019,0.007l-0.034,0.007
		l-0.004,0.027l0.004,0.019h0.034l0.057,0.033l0.038,0.052l0.035,0.049l0.027,0.026l0.015,0.011l0.061-0.019l0.042-0.019
		l0.019-0.034l0.004-0.045l0.011-0.042l0.008-0.03l0.03-0.011l0.042-0.004l0.016-0.019l0.026-0.015l0.084,0.011l0.091,0.007
		l0.137-0.019l0.007-0.022l0.016-0.026l0.053-0.007l0.039,0.015l0.011,0.018l-0.007,0.026l0.019,0.019l0.027,0.064l-0.039,0.03
		l-0.004,0.03l0.03,0.027l0.05-0.008l0.088-0.004l0.08,0.022l0.129-0.026l0.057,0.004l0.061,0.022l0.061,0.026l0.061,0.044
		l0.042,0.019l0.045,0.019l0.062-0.001l0.03,0.027l0.027,0.048l0.019,0.041l0.039,0.038l0.015,0.026l0.004,0.037l-0.004,0.041
		l0.008,0.045l0.011,0.041l0.008,0.071l-0.008,0.052l-0.019,0.045l-0.027,0.045l-0.004,0.019l-0.011,0.038l-0.027,0.063
		l-0.046,0.064l-0.015,0.03l-0.015,0.049l-0.012,0.059l-0.015,0.056l-0.023,0.068L27.3,46.327l-0.038,0.042l-0.034,0.044
		l-0.038,0.042l-0.012,0.041l-0.007,0.037l-0.011,0.056l-0.019,0.059l-0.03,0.075l-0.011,0.03l-0.03,0.053l-0.007,0.019
		l-0.007,0.026l-0.004,0.038v0.019l-0.008,0.022l0.008,0.033l0.007,0.015l0.004,0.019l-0.004,0.033l-0.007,0.041l-0.011,0.034
		l-0.042,0.022l-0.004,0.033l0.012,0.026l0.026,0.042l-0.004,0.007l-0.015,0.033l-0.008,0.019l0.019,0.011h0.031l0.035,0.011h0.045
		l0.053-0.004l0.065-0.019l0.046-0.011l0.057-0.016l0.068-0.015l0.042-0.007l0.08-0.026l0.015-0.004l0.027-0.012l0.034-0.022
		l0.03-0.033l-0.007-0.03l-0.034-0.008l-0.023,0.008l-0.019,0.007l-0.026,0.004l-0.008,0.004l-0.027,0.011l-0.045,0.004
		l-0.027-0.019l0.004-0.019l0.023-0.026l0.072-0.001h0.023l0.034-0.007l0.042-0.015l0.004-0.004v-0.037l-0.008-0.022l-0.022-0.011
		l-0.027-0.004L27.56,46.97l-0.004-0.008l-0.008-0.037l0.019-0.015l0.03,0.011l0.03,0.019l0.03-0.015l0.008-0.026l-0.004-0.019
		l-0.011-0.023l-0.016-0.019V46.82l0.008-0.004l0.019-0.011l0.012,0.004l0.022,0.026h0.03l0.03-0.011l0.046-0.022l0.027,0.007
		l0.011,0.015l0.016,0.015l0.004,0.004l-0.015,0.03l-0.004,0.015l-0.007,0.019l-0.019,0.015l-0.035,0.019l-0.022,0.004l-0.019-0.022
		h-0.03l-0.007,0.007l-0.016,0.011l-0.004,0.033l0.012,0.027l0.011,0.03v0.033l-0.011,0.053l0.023,0.022l0.011-0.007l0.007-0.011
		l0.016-0.023l0.038-0.026l0.045-0.03l0.039-0.023l0.038-0.033l0.038-0.045l0.054-0.049l0.053-0.041l0.076-0.06l0.053-0.06
		l0.03-0.056v-0.026l-0.008-0.026l-0.022-0.019l-0.023-0.033V46.55l-0.008-0.022l-0.015-0.022l-0.008-0.015l-0.007-0.023
		l0.012-0.011l0.042-0.004l0.027-0.019l0.011-0.045l0.016-0.056l0.019-0.045l0.016-0.03l0.034-0.033l0.015-0.011l0.016-0.015
		l0.007-0.015l0.004-0.034l-0.007-0.03l-0.012-0.007l-0.007-0.004l-0.011-0.048l-0.016-0.079l-0.012,0.004l-0.045,0.041l-0.05-0.078
		l0.007-0.045l0.008-0.037l0.049-0.011l0.038-0.007l0.042-0.007l0.027-0.011h0.015l0.019,0.026l0.004,0.026v0.011l0.004,0.019
		L28.4,45.96l-0.008,0.033l-0.015,0.033l-0.004,0.03l0.016,0.045l0.011,0.015l0.019,0.026l0.011,0.026l-0.007,0.019l-0.019,0.019
		l-0.03,0.019l-0.049,0.015l-0.016,0.041l-0.007,0.023l-0.019,0.033l-0.004,0.041l-0.004,0.027l0.016,0.074l0.027-0.019l0.007-0.007
		l0.011-0.007l0.019-0.026l0.034-0.042l0.03-0.026l0.042-0.038l0.034-0.056l0.027-0.045l0.03-0.068l0.038-0.071l0.03-0.052
		l0.03-0.049l0.042-0.044l0.034-0.049v-0.037l-0.016-0.044l-0.007-0.004l-0.016-0.004l-0.065,0.019l-0.03,0.019l-0.031,0.007
		l-0.007-0.007v-0.007l0.007-0.041l0.011-0.034h-0.027l-0.038,0.001l-0.027-0.012l-0.011-0.007l0.027-0.03l0.095-0.011l0.015-0.03
		v-0.03l0.007-0.033v-0.026l0.019-0.022l0.007-0.004l0.03-0.008l0.007,0.012l-0.004,0.019l-0.004,0.026l-0.007,0.026l-0.011,0.033
		v0.042l0.007,0.015l0.012,0.007l0.015-0.004l0.023-0.015l0.015-0.011l0.012-0.03l0.007-0.022l0.015-0.037l0.007-0.022l0.035-0.019
		l0.03-0.022l0.026-0.045l0.023-0.034l0.011-0.037l0.023-0.048l0.016-0.045l0.015-0.026l0.027-0.03l0.03-0.049l0.027-0.041
		l0.042-0.045l0.004-0.041l-0.011-0.011l-0.03-0.011l-0.027-0.007l-0.012-0.015l0.016-0.011l0.022-0.001l0.016-0.004l0.015-0.026
		l0.004-0.019l-0.001-0.03l0.03-0.015l0.031,0.004l0.026,0.004l0.042-0.012l0.038-0.03l0.03-0.03l0.027-0.045l0.034-0.082
		l0.019-0.056l0.034-0.053l0.061-0.067l0.073-0.06l0.068-0.019l0.072-0.027l0.039-0.022l0.026-0.101L29.695,44.3l-0.019-0.019
		l-0.034,0.004L29.6,44.3l-0.023,0.022l-0.042,0.03l-0.034,0.022l-0.042,0.026l-0.039-0.015l-0.034-0.026l-0.011,0.004l-0.012,0.004
		l-0.011,0.022l-0.004,0.016l0.004,0.007l0.011,0.015l0.008,0.018v0.022l-0.004,0.022l-0.019,0.022l-0.027,0.019l-0.019,0.011
		l-0.039,0.026l-0.026,0.03l-0.012-0.004l-0.007-0.022l0.015-0.056l0.027-0.086l0.011-0.019l-0.007-0.034l-0.042-0.015l-0.065-0.022
		l-0.072,0.008L29.03,44.33l0.023-0.026l0.03-0.041l-0.03-0.049l-0.035-0.026l0.042-0.041l0.042,0.022l0.034,0.022l0.027,0.007
		l0.019-0.026l0.027-0.026l0.019,0.003l0.023,0.027l0.038,0.022l0.053-0.004l0.057-0.034l0.114,0.007l0.053,0.03l0.053-0.004
		l0.042-0.045l0.031-0.038l-0.012-0.048l-0.027-0.052l0.039-0.082l0.015-0.03l0.023-0.011l0.045,0.03l0.027,0.016l0.039-0.004
		l0.004-0.074l0.03-0.042l0.026-0.019l0.016-0.093l0.007-0.056l0.065-0.03l0.023-0.004l0.072,0.004l0.042,0.022l0.007,0.019
		l0.004,0.049l-0.004,0.019v0.011l-0.042,0.049l-0.042,0.022l0.019,0.022h0.019l-0.007,0.03l-0.004,0.004l-0.018,0.019l-0.016,0.015
		l-0.022,0.019L30,43.926l-0.034,0.019l-0.027,0.011l-0.004,0.027l-0.007,0.022v0.037l-0.012,0.034l-0.011,0.026l-0.023,0.026
		l-0.019,0.019l-0.016,0.038l-0.004,0.015l0.012,0.007h0.015l0.027,0.004l0.027-0.011l0.03-0.034l0.027-0.03l0.034-0.022
		l0.053-0.038l0.056-0.052l0.053-0.038l0.065-0.022l0.076-0.03l0.057-0.022l0.068-0.041l0.079-0.053l0.08-0.049l0.042-0.033
		l-0.004-0.011v-0.007l-0.004-0.019l-0.004-0.015l-0.008-0.027l-0.008-0.03l-0.015-0.015l-0.023-0.004L30.54,43.6l-0.008-0.007
		l0.004-0.015l0.008-0.019l-0.008-0.026l-0.015-0.012l-0.039-0.007l-0.015,0.001H30.46l-0.004-0.016l0.008-0.022v-0.022
		l-0.035-0.022l-0.072-0.022l-0.065,0.007l-0.061,0.019l-0.038,0.034l-0.001-0.086l-0.019-0.094l0.022-0.026l0.095-0.03l0.027-0.052
		l0.004-0.127l0.027-0.045l0.05,0.004l0.019-0.037l-0.007-0.053l0.015-0.019l0.034,0.004l0.008,0.03l0.061,0.007l0.019,0.004v0.007
		l-0.007,0.031l0.019,0.056l0.027,0.042l0.019,0.03l0.038,0.03l0.03-0.022l0.053-0.034l-0.035-0.071l-0.027-0.038l-0.011-0.044
		l0.015-0.03h0.039l0.011-0.031l-0.038-0.067l-0.042-0.004l-0.011-0.026l0.034-0.042l0.065,0.007l0.016,0.038l0.045,0.011
		l0.023-0.03l-0.019-0.052l-0.099-0.094l-0.031-0.052l0.004-0.068l-0.065-0.07l0.004-0.086v-0.026l0.03-0.011l-0.027-0.071
		l-0.007-0.052l-0.016-0.053l0.027-0.011l0.053,0.033l0.038,0.026l0.004,0.056l0.012,0.033l0.034-0.004l0.045-0.004l0.069,0.007
		l0.057,0.011l-0.012-0.053l0.023-0.022l0.042,0.019l0.004,0.037l0.061,0.011l0.053-0.03l0.05,0.041l0.042,0.026l-0.012,0.023
		l-0.007,0.022l0.027,0.026l0.008,0.019l-0.031,0.007l-0.011,0.011l0.004,0.03l-0.004,0.026l-0.007,0.03l0.007,0.007l0.007,0.011
		l0.042-0.03h0.045l0.042,0.011v-0.045l0.019-0.026l0.05-0.052l-0.016-0.03l-0.004-0.033l0.011-0.026l-0.042-0.037l-0.05-0.019
		l-0.03-0.019l-0.016-0.03l-0.015-0.015l-0.03-0.007l-0.007-0.033l-0.004-0.022l-0.026-0.019l-0.023-0.023l-0.008-0.033l0.004-0.048
		l0.008-0.023h0.022l0.016,0.027l0.027,0.007l0.015-0.03l0.007-0.022l0.004-0.019l0.034-0.015l0.03-0.004l0.004-0.042l0.007-0.052
		l0.015-0.038l0.039-0.022l0.022-0.015l0.012-0.004l0.015,0.019l0.019,0.033h0.019l0.004-0.033l-0.008-0.033l0.007-0.019
		l0.046-0.015l0.016,0.015l0.022,0.027l0.039-0.004l0.022-0.007l0.016-0.015l-0.012-0.026l-0.015-0.026l0.004-0.023l0.004-0.011
		l0.027-0.026l0.011-0.022v-0.042l0.027,0.008l0.027-0.004l0.004-0.007l-0.016-0.03l-0.007-0.059l0.011-0.019l0.016-0.007
		l0.007,0.007l0.027,0.007l0.046-0.015l0.019-0.019l0.027,0.004l0.019,0.011l0.015-0.004l0.019-0.03l0.004-0.008l0.008-0.037
		l0.034-0.026l0.004-0.022l-0.004-0.03l0.016-0.011l0.011-0.019l0.019-0.022l0.045-0.007l0.045-0.03l0.027-0.015l0.019-0.015
		l-0.004-0.015l-0.027-0.007l-0.023-0.004l-0.007-0.007l0.011-0.03l0.011-0.019l0.016-0.03l0.045-0.022l0.016-0.008v-0.045
		l0.011-0.033l0.019-0.004l0.034,0.015l0.027-0.004l0.007-0.03l0.007-0.011l0.019-0.011l0.011-0.015l0.004-0.015l-0.042-0.011
		h-0.038l-0.019-0.004l-0.019-0.007l-0.007-0.015l-0.011-0.015v-0.015l0.03-0.001l0.022,0.004h0.016l0.027-0.004l0.004-0.022
		l-0.016-0.019l-0.007-0.019l0.011-0.049v-0.019l-0.004-0.011l-0.046-0.007l-0.056-0.007l-0.03-0.007l-0.027-0.007L32.03,40.55
		l0.004-0.033v-0.038l0.004-0.022v-0.015l0.007-0.03l0.016-0.016l0.007-0.019l0.016-0.022l0.011-0.015v-0.019l-0.019-0.027
		l-0.011-0.022l-0.016-0.037l0.027-0.03l0.023-0.023l0.034-0.03l0.015-0.06l-0.004-0.041l0.019-0.056l0.057-0.027l0.039-0.011
		l-0.008-0.033l-0.03-0.008l-0.03,0.004l-0.019-0.007l-0.001-0.026l0.03-0.019l0.042-0.011l0.038-0.019l0.023-0.038l0.019-0.056
		l0.004-0.033l0.012-0.03l0.015-0.011l0.03-0.007l0.03-0.011l0.019-0.019l-0.023-0.031l-0.023-0.007l-0.038-0.004L32.322,39.6h-0.03
		l-0.027-0.007l-0.015-0.004l-0.008-0.011l0.007-0.03l0.016-0.004l0.027-0.004h0.049l0.023-0.004l0.016-0.03l-0.004-0.027
		l-0.004-0.048l0.016-0.045l0.019-0.06l0.038-0.068l0.023-0.045l0.023-0.03l0.034-0.03l0.019-0.011l0.023-0.011l0.015-0.015v-0.027
		l-0.011-0.015l-0.023-0.007l-0.034,0.004H32.47l-0.05,0.001l-0.046-0.004l-0.045,0.011l-0.023-0.007l-0.027-0.019l-0.034-0.022
		l-0.03-0.03l-0.023-0.011L32.15,38.98h-0.027l-0.034,0.004h-0.012l-0.015-0.011v-0.042l-0.004-0.015l0.061-0.004h0.026l0.027-0.007
		l0.027-0.008l0.03,0.023l0.016,0.015l0.042,0.037l0.039,0.007l0.045,0.007l0.03,0.007l0.023-0.004l0.023-0.022l0.011-0.016
		l0.019-0.004l0.027,0.004l0.019-0.022l0.011-0.033l0.004-0.027l0.008-0.015l-0.004-0.011l-0.008-0.022l-0.004-0.015l0.016-0.015
		l0.011-0.042l0.015-0.03V38.71l-0.007-0.015l-0.023-0.015l-0.015-0.019l-0.012-0.012l0.004-0.019l0.019-0.015l0.004-0.015v-0.019
		l-0.011-0.007l-0.023-0.015l-0.019,0.011l-0.015,0.019l-0.034,0.011l-0.046-0.015l-0.023-0.015l-0.011-0.03l0.015-0.042
		l0.016-0.015l0.007-0.015l0.034,0.007l0.034,0.011h0.034l0.012-0.015l0.022-0.022l0.016,0.011l0.019,0.007l0.022-0.007l0.012-0.03
		l-0.016-0.022l-0.023-0.019l-0.045-0.015h-0.076l-0.019-0.004l-0.008-0.022l0.038-0.049l-0.015-0.019l-0.034-0.03l-0.016-0.011
		l-0.004-0.015l0.023-0.022h0.03l0.022,0.022l0.027,0.037l0.03,0.022l0.023,0.011l0.027,0.007l0.034-0.011l0.023,0.019l0.007,0.033
		l0.016,0.023l0.027-0.004l0.042-0.004l0.019-0.056l-0.008-0.042l0.053-0.041l0.016-0.026l0.007-0.045l0.004-0.015l-0.004-0.033
		l-0.042-0.007l-0.053,0.011l-0.042,0.019l-0.042,0.016l-0.016-0.023h-0.038l-0.038,0.008l-0.023-0.019l-0.019-0.023l-0.038-0.004
		L32.43,38.06l0.004-0.033l0.042-0.019l0.035,0.037l0.068,0.011l0.05,0.007l0.045,0.015l0.038-0.015l0.03-0.012l0.039-0.026
		l0.022-0.015l0.03-0.022l0.023-0.016l0.05,0.011l0.007,0.004l-0.004,0.019l-0.011,0.022l-0.012,0.041l-0.015,0.042v0.041
		l0.004,0.048v0.086l0.004,0.03l-0.008,0.059l-0.011,0.033l-0.011,0.034l-0.023,0.052l-0.007,0.034L32.8,38.59l-0.004,0.056
		l-0.012,0.052l-0.011,0.053l-0.019,0.056l-0.027,0.023l-0.016,0.015l0.004,0.03l0.012,0.019l0.023,0.022l0.015,0.034l0.004,0.037
		l-0.007,0.044l-0.011,0.042l-0.019,0.033l-0.011,0.026l-0.011,0.023l-0.011,0.063l-0.008,0.064l-0.008,0.056l-0.007,0.053
		l-0.004,0.033v0.06l0.004,0.037l-0.003,0.06l-0.012,0.074l-0.011,0.064l-0.004,0.063l0.004,0.071l0.001,0.075v0.03l-0.019,0.053
		l-0.023,0.056l-0.011,0.026v0.023l-0.004,0.037l0.012,0.037l0.011,0.03v0.034l-0.019,0.03l-0.023-0.004l-0.027-0.011l-0.016,0.011
		l-0.004,0.015l-0.004,0.023h0.019l0.027,0.003l0.015,0.012l0.019,0.026l0.023-0.004l0.008-0.004l0.004-0.019l0.016-0.022
		l0.007-0.03l0.011-0.037l0.007-0.045v-0.142l0.007-0.06l0.011-0.041l0.012-0.033l0.011-0.068v-0.06l0.007-0.045l0.011-0.068
		l0.018-0.067l0.008-0.064l-0.004-0.068l-0.004-0.074l0.019-0.127l0.004-0.101l0.016-0.071l0.019-0.101l0.011-0.079l0.016-0.056
		l0.015-0.068l0.019-0.086l0.011-0.149l0.03-0.12l-0.004-0.075l-0.004-0.041l0.015-0.082l0.015-0.042l0.016-0.056l0.015-0.038
		l0.027-0.063l0.015-0.049l0.016-0.056l0.015-0.075l0.004-0.048l-0.004-0.053v-0.041l-0.012-0.019l-0.004-0.004L33,37.697
		l-0.053-0.01l-0.068,0.011l-0.053,0.037l-0.049,0.016l-0.061-0.022l-0.039-0.004l-0.045-0.049l-0.012-0.052l-0.015-0.101
		l0.011-0.022l0.015-0.011l0.008,0.026l0.015,0.041l0.027,0.053l0.035,0.022l0.019,0.022l0.023,0.019l0.038-0.007l0.053-0.027
		l0.042-0.022l0.016-0.011l0.019,0.007l0.027,0.011L33,37.626l0.038-0.042l0.004-0.078v-0.079l0.007-0.094l0.022-0.086l0.012-0.059
		l0.022-0.086l0.007-0.042l0.004-0.044l-0.015-0.022l-0.019-0.004l-0.042,0.022l-0.042,0.015l-0.053-0.008l-0.057-0.022
		l-0.042-0.041l-0.019-0.019l-0.004-0.022l0.016-0.03l0.034,0.007l0.03,0.027l0.019,0.015l0.034-0.004l0.015-0.027l0.008-0.019h0.03
		l0.019,0.026l0.016,0.015l0.042,0.019l0.03-0.004l0.027-0.015l0.015-0.064l0.03-0.071l0.019-0.056v-0.082l-0.001-0.056l0.019-0.053
		l0.015-0.033l0.027-0.053l0.03-0.082l0.011-0.056l0.019-0.068l0.015-0.094l-0.004-0.067l-0.004-0.045l0.004-0.082l0.016-0.056
		l0.03-0.053l0.015-0.07l0.004-0.016l0.007-0.044l-0.016-0.079v-0.094l0.011-0.089l0.007-0.068v-0.064l0.004-0.056L33.41,35.26
		l-0.004-0.012l-0.016-0.041l-0.004-0.056l-0.004-0.056l-0.016-0.063l-0.007-0.071l-0.001-0.045l-0.019-0.026l-0.012-0.044
		l-0.023-0.068l-0.018-0.052l-0.019-0.033l-0.042-0.056l-0.019-0.011l-0.034-0.022l-0.019-0.015l-0.03,0.011l-0.019,0.015v0.022
		l0.031,0.019l0.015,0.037l0.004,0.026v0.037l0.004,0.045l0.042,0.007h0.027l0.019-0.004l0.027,0.026v0.03l-0.015,0.031v0.026
		l0.034,0.085l0.042,0.094l0.019,0.049v0.037l0.007,0.052v0.019l0.004,0.026l0.007,0.033v0.033l0.004,0.075l0.008,0.053
		l-0.012,0.067l-0.007,0.049l-0.015,0.052l-0.027,0.056h-0.027l-0.027-0.004l-0.022,0.015l0.008,0.034l-0.015,0.022l-0.004,0.011
		l-0.015,0.026l-0.03-0.008l-0.007-0.019l-0.027-0.007l-0.019,0.026l-0.011,0.023l-0.011,0.011h-0.023l-0.012-0.015v-0.027
		l0.016-0.03l-0.012-0.033l-0.019-0.026l-0.004-0.023h0.027l0.035,0.011l0.049-0.019l0.011-0.026l-0.015-0.022l0.03-0.027
		l0.049-0.022l0.038-0.033l0.016-0.042l0.004-0.052l-0.007-0.023l-0.039-0.015l-0.034-0.015l-0.034-0.011l-0.05-0.004l-0.034,0.023
		l-0.038,0.007l-0.027,0.019l-0.019,0.042l-0.019,0.007l-0.045,0.004h-0.019l-0.038,0.03l-0.03,0.023l-0.023,0.03l-0.03,0.015
		L32.79,35.56l-0.007-0.037l0.015-0.027l0.061-0.037l0.034-0.03l0.034-0.012l0.039-0.011l0.011-0.022l0.019-0.019l0.026-0.012
		l0.019-0.004l0.03-0.026l0.027-0.022l0.015-0.019l0.034-0.016l0.03,0.015l0.046,0.007l0.015,0.023l0.016,0.011l0.019,0.019
		l0.011,0.015h0.023l0.004-0.03l-0.007-0.041l-0.004-0.048L33.296,35.2l-0.03-0.033l-0.023-0.037l-0.027-0.038l-0.053-0.022
		l-0.137-0.018l-0.061-0.011l-0.039-0.022l-0.049-0.007l-0.057-0.015l-0.03-0.027l-0.057-0.033l-0.042-0.037l-0.072-0.044
		l-0.088-0.033l-0.061-0.011l-0.034-0.026l-0.046-0.034l-0.049-0.03h-0.035l-0.011,0.004l-0.034,0.042h-0.057l-0.068-0.011
		l-0.053-0.045l-0.03-0.022l-0.034,0.041l-0.042,0.082l-0.08,0.049l-0.045,0.004l0.015-0.015l0.007-0.027l-0.011-0.033l-0.05-0.037
		L31.77,34.74l-0.05-0.015l-0.084-0.045l-0.072-0.037l-0.053-0.026l-0.042-0.086l-0.004-0.048L31.359,34.4l-0.073-0.022L31.221,34.4
		l-0.038,0.079l-0.022,0.059l-0.027,0.03l-0.095,0.011l-0.05-0.011l-0.034-0.015l0.045-0.038l0.038-0.026l0.053-0.03l0.038-0.038
		l0.046-0.048l0.015-0.042l0.023-0.03l0.038-0.007h0.05l0.061,0.022l0.042,0.015l0.027,0.019l0.023,0.037l0.019,0.022l0.03,0.004
		l0.019-0.037V34.34l-0.004-0.03l0.007-0.026l0.004-0.03l0.011-0.027l0.016-0.03l0.022-0.026l0.016-0.03l0.004-0.03l-0.012-0.037
		l-0.007-0.053l0.007-0.041l0.016-0.033l0.026-0.053l0.042-0.033l0.03-0.016l0.034-0.007l0.053-0.007l0.019-0.022l0.015-0.064
		l0.012-0.075l0.019-0.052l0.015-0.049v-0.011l-0.004-0.068l-0.004-0.048l0.007-0.06l0.007-0.059l0.011-0.049l0.023-0.052
		l0.027-0.034l0.034-0.026l0.042-0.03l0.057-0.012l0.038,0.004l0.042-0.03l0.019-0.033l0.03-0.045l0.034-0.045l0.011-0.037
		l0.004-0.033l0.016-0.038l0.034-0.033l0.042-0.034l0.023-0.045l0.011-0.03l0.011-0.034l0.031-0.03l0.034-0.022l0.019-0.004
		l0.038-0.012h0.038l0.008,0.071v0.026l-0.016,0.045L32.5,32.813l-0.034,0.053l-0.03,0.015l-0.034,0.056l-0.015,0.045l-0.015,0.038
		l-0.012,0.045l-0.007,0.03v0.016l0.012,0.011l0.042-0.004l0.03-0.019h0.053l0.034,0.004h0.027l0.022,0.004L32.6,33.09l-0.011-0.026
		l-0.03-0.023l-0.012-0.022l0.019-0.033l0.03,0.007l0.061,0.022l0.023,0.007l0.022,0.007l0.023,0.007l0.019-0.015l-0.019-0.038
		l-0.045-0.019l-0.03-0.015l-0.019-0.03l0.03-0.015h0.038l0.042-0.03l0.007-0.044l0.012-0.026l0.019-0.008h0.042l0.022-0.004
		l0.023-0.037l0.019-0.03l0.015-0.011l0.034-0.03l0.007-0.015l0.012-0.023L33,32.656l0.001-0.004l0.014-0.08
		c0.085-0.035,0.17-0.071,0.237-0.127c0.11-0.091,0.193-0.212,0.284-0.323c0.008-0.01-0.002-0.039-0.01-0.057
		c-0.029-0.066-0.06-0.131-0.088-0.192c-0.065,0.01-0.128,0.022-0.191,0.032l0.001-0.001l0.011-0.019l0.049-0.086l0.042-0.082
		l0.037-0.087l0.01-0.022l0.085-0.199l0.079-0.207l0.01-0.03l0.04-0.115l0.037-0.1l0.025-0.097l0.043-0.165l0.025-0.1l0.042-0.169
		l0.017-0.068l0.016-0.129l-0.05-0.009L33.741,30.205z"/>
	<path class="st0" d="M10.219,23.332c0.421-0.689,0.944-1.308,1.494-1.942c1.522-1.755,3.768-2.466,5.817-2.882v-0.714v-1.392h0.895
		h1.229h0.703v1.392v0.687c2.08,0.39,4.24,1.016,6.1,2.856c1.587,1.57,2.483,3.647,2.888,5.728l0.523,0
		c0.073,0,0.146,0.005,0.233,0.013l1.29,0.095v0.966v0.091c0.443,0.259,0.892,0.51,1.341,0.76c0.605,0.337,1.219,0.659,1.825,0.995
		c0.225,0.125,0.225,0.157,0.157,0.399c-0.117,0.412-0.288,0.8-0.515,1.168c-0.053,0.086-0.065,0.201-0.077,0.304
		c-0.004,0.038,0.041,0.114,0.07,0.117c0.054,0.006,0.123-0.017,0.166-0.05c0.035-0.028,0.05-0.088,0.059-0.136
		c0.057-0.313,0.25-0.504,0.578-0.545c0.093-0.012,0.192,0.015,0.281,0.023c-0.015-0.101-0.031-0.209-0.047-0.317
		c0.018,0.004,0.037,0.008,0.055,0.012c0.03-0.065,0.041-0.154,0.093-0.189c0.186-0.126,0.199-0.442,0.51-0.426
		c0.01,0.001,0.029-0.018,0.032-0.03c0.033-0.149,0.117-0.297,0.018-0.451c-0.107-0.167-0.213-0.335-0.326-0.514
		c0.331-0.209,0.642-0.406,0.953-0.603c0.311-0.197,0.305-0.193,0.077-0.492c-0.074-0.097-0.153-0.224-0.151-0.336
		c0.033-1.307,0.089-2.614,0.122-3.921c0.009-0.366,0.087-0.733-0.032-1.103c-0.042-0.132,0.012-0.3,0.048-0.445
		c0.14-0.566,0.294-1.128,0.434-1.694c0.185-0.748,0.363-1.498,0.542-2.248c0.011-0.047,0.01-0.099,0.003-0.147
		c-0.019-0.144-0.062-0.287-0.063-0.431c-0.003-0.359,0.015-0.719,0.017-1.079c0.007-1.242,0.01-2.484,0.014-3.725
		c0-0.096-0.008-0.188-0.124-0.219c-0.104-0.027-0.136-0.078-0.126-0.187c0.011-0.131-0.091-0.171-0.216-0.191
		c-0.138-0.021-0.163,0.057-0.184,0.152c-0.007,0.03-0.01,0.06-0.015,0.09c-0.013,0.075-0.046,0.16-0.136,0.119
		c-0.056-0.026-0.088-0.116-0.115-0.183c-0.021-0.051-0.018-0.112-0.023-0.168c-0.005-0.044-0.022-0.094-0.007-0.13
		c0.065-0.153,0.153-0.298,0.207-0.453c0.051-0.147,0.162-0.297,0.058-0.46c-0.081-0.128-0.199-0.243-0.069-0.404
		c0.012-0.014,0.001-0.05-0.008-0.073c-0.045-0.117-0.098-0.231-0.139-0.349c-0.019-0.054-0.022-0.114-0.027-0.172
		c-0.015-0.194-0.026-0.388-0.041-0.582c-0.001-0.008-0.023-0.015-0.046-0.029c-0.018,0.047-0.035,0.089-0.051,0.131
		c-0.016-0.002-0.032-0.003-0.048-0.005c-0.007-0.211-0.014-0.421,0.052-0.632c0.052-0.167,0.173-0.336,0.019-0.512
		c-0.005-0.006,0-0.019,0.002-0.05c0.299-0.025,0.318-0.322,0.467-0.442c-0.036-0.1-0.068-0.166-0.085-0.237
		c-0.025-0.102-0.056-0.206-0.054-0.309c0.003-0.163-0.153-0.3-0.069-0.479c0.022-0.047-0.029-0.126-0.047-0.191
		c-0.016,0.003-0.033,0.005-0.049,0.008c-0.026,0.101-0.052,0.202-0.078,0.303c-0.017-0.002-0.034-0.004-0.051-0.006
		c0.006-0.065,0.003-0.131,0.019-0.193c0.027-0.107,0.079-0.209-0.01-0.317c-0.016-0.019,0.006-0.092,0.034-0.115
		c0.132-0.108,0.084-0.193-0.015-0.291c-0.12-0.119-0.184-0.263-0.171-0.434c0.003-0.033-0.014-0.066-0.019-0.1
		c-0.006-0.044-0.013-0.088-0.012-0.132c0.001-0.048,0.018-0.097,0.014-0.144c-0.008-0.096-0.033-0.19-0.036-0.286
		c-0.001-0.036,0.036-0.072,0.056-0.109c0.032,0.019,0.068,0.034,0.095,0.058c0.04,0.035,0.075,0.076,0.112,0.114
		c0.021-0.013,0.042-0.026,0.062-0.039c-0.034-0.07-0.052-0.153-0.104-0.207c-0.131-0.137-0.12-0.22,0.045-0.313
		c0.043-0.024,0.078-0.095,0.08-0.145c0.001-0.038-0.055-0.079-0.089-0.117c-0.038-0.043-0.11-0.081-0.112-0.124
		c-0.003-0.076,0.01-0.179,0.061-0.227c0.129-0.121,0.047-0.248,0.024-0.36c-0.027-0.128,0.007-0.173,0.117-0.173
		c0-0.134,0-0.258,0-0.392c-0.04,0-0.075-0.002-0.111,0c-0.459,0.024-0.917,0.054-1.376,0.073c-1.102,0.046-2.203,0.09-3.305,0.129
		c-0.654,0.023-1.31-0.063-1.962,0.044c-0.023,0.004-0.06-0.003-0.072-0.019c-0.067-0.083-0.133-0.083-0.214-0.017
		c-0.02,0.017-0.064,0.008-0.097,0.011c-0.014-0.018-0.027-0.035-0.041-0.053c0.044-0.009,0.089-0.018,0.133-0.026
		c-0.016-0.02-0.031-0.04-0.047-0.061c-0.088,0.038-0.176,0.076-0.264,0.114c0.004,0.012,0.007,0.025,0.011,0.037
		c0.028,0.005,0.056,0.011,0.085,0.016c0.005,0.011,0.01,0.023,0.015,0.034c-0.061,0.037-0.123,0.075-0.184,0.112
		c-0.018-0.043-0.036-0.087-0.068-0.161c-0.053,0.103-0.098,0.192-0.15,0.294c-0.177-0.177-0.247-0.004-0.313,0.08
		c-0.093,0.117-0.195,0.175-0.346,0.171c-0.044-0.001-0.093,0.015-0.132,0.036c-0.235,0.125-0.469,0.254-0.703,0.381
		c-0.009,0.005-0.02,0.005-0.031,0.006c-0.122,0.011-0.225,0.037-0.25,0.181c-0.007,0.038-0.069,0.069-0.108,0.101
		c-0.048,0.038-0.103,0.069-0.147,0.111c-0.111,0.106-0.21,0.224-0.327,0.321c-0.158,0.132-0.34,0.238-0.493,0.375
		c-0.284,0.255-0.557,0.522-0.831,0.788c-0.199,0.194-0.396,0.391-0.475,0.677c0.194,0.053,0.134,0.15,0.043,0.254
		c-0.047,0.054-0.087,0.113-0.13,0.168c-0.153-0.058-0.214-0.005-0.208,0.154c0.001,0.03-0.069,0.07-0.114,0.093
		c-0.042,0.022-0.098,0.02-0.139,0.043c-0.048,0.026-0.086,0.068-0.135,0.108c-0.012-0.039-0.021-0.068-0.018-0.058
		c-0.128,0.016-0.237,0.022-0.342,0.046c-0.091,0.021-0.177,0.064-0.254,0.093c0.028,0.074,0.045,0.115,0.059,0.156
		c0.011,0.033,0.011,0.076,0.034,0.095c0.014,0.012,0.067-0.005,0.093-0.022c0.079-0.053,0.154-0.112,0.242-0.178
		c0,0.033,0.003,0.044-0.001,0.05c-0.01,0.017-0.024,0.033-0.037,0.049c-0.174,0.206-0.394,0.343-0.647,0.449
		c-0.226,0.095-0.438,0.222-0.647,0.349c-0.15,0.091-0.283,0.208-0.428,0.307c-0.118,0.081-0.272,0.137-0.158,0.322
		c0.012,0.02-0.003,0.054-0.001,0.037c0.113,0.083,0.255,0.134,0.271,0.21c0.026,0.123-0.021,0.257,0.126,0.342
		c0.017,0.01,0.002,0.075-0.002,0.114c-0.004,0.036-0.015,0.071-0.025,0.115c0.213-0.061,0.294-0.178,0.306-0.431
		c-0.106,0.021-0.208,0.042-0.326,0.066c0.039-0.242,0.195-0.327,0.401-0.383c-0.016,0.056-0.028,0.099-0.041,0.144
		c0.114-0.038,0.217-0.072,0.32-0.106c0.01,0.012,0.019,0.024,0.029,0.035c-0.037,0.073-0.074,0.145-0.12,0.236
		c0.102-0.036,0.174-0.061,0.246-0.086c0.011,0.017,0.021,0.034,0.032,0.052c-0.081,0.064-0.155,0.143-0.246,0.189
		c-0.094,0.047-0.217,0.049-0.25,0.209c0.108,0.029,0.224,0.098,0.315,0.075c0.147-0.037,0.279-0.134,0.292-0.332
		c0.03,0.033,0.045,0.046,0.054,0.062c0.028,0.046,0.053,0.093,0.079,0.14c-0.039,0.02-0.079,0.038-0.118,0.059
		c-0.022,0.012-0.049,0.023-0.062,0.041c-0.054,0.079-0.104,0.162-0.179,0.281c0.047,0.13,0.041,0.137-0.17,0.268
		c-0.073,0.045-0.134,0.11-0.212,0.176c-0.032-0.012-0.078-0.029-0.127-0.048c0.013-0.044,0.023-0.079,0.036-0.124
		c-0.082,0.018-0.159,0.018-0.211,0.052c-0.055,0.036-0.095,0.101-0.126,0.16c-0.009,0.018,0.024,0.076,0.052,0.089
		c0.234,0.11,0.329,0.298,0.348,0.536c0.01,0.121,0.041,0.241,0.047,0.362c0.006,0.125,0.065,0.211,0.175,0.263
		c0.101,0.048,0.065,0.107,0.014,0.154c-0.18,0.164-0.21,0.302-0.118,0.459c-0.056,0.051-0.113,0.086-0.146,0.136
		c-0.099,0.149-0.233,0.232-0.418,0.224c-0.089-0.004-0.177-0.026-0.265-0.042c-0.12-0.021-0.233-0.04-0.341,0.051
		c-0.132,0.111-0.27,0.219-0.419,0.306c-0.29,0.171-0.598,0.312-0.76,0.631c-0.064,0.126-0.176,0.23-0.269,0.348
		c-0.021-0.034-0.049-0.077-0.068-0.108c-0.167,0.074-0.321,0.142-0.477,0.211c0.005,0.049,0.01,0.102,0.012,0.117
		c-0.087-0.031-0.168-0.082-0.247-0.081c-0.084,0.001-0.167,0.052-0.251,0.079c-0.123,0.04-0.118,0.12-0.079,0.215
		c0.026,0.066,0.046,0.134,0.068,0.201c-0.122-0.076-0.217-0.16-0.314-0.241c-0.039-0.032-0.08-0.066-0.127-0.083
		c-0.073-0.026-0.15-0.046-0.227-0.056c-0.155-0.021-0.311-0.048-0.467-0.046c-0.237,0.003-0.478,0.064-0.709,0.036
		c-0.394-0.048-0.736,0.094-1.088,0.207c-0.164,0.053-0.308,0.056-0.45-0.036c-0.194-0.126-0.387-0.255-0.579-0.384
		c-0.015-0.01-0.026-0.031-0.029-0.048c-0.022-0.148-0.141-0.179-0.263-0.197c-0.174-0.026-0.352-0.036-0.525-0.068
		c-0.149-0.028-0.292-0.093-0.441-0.113c-0.433-0.058-0.866-0.119-1.305-0.051c-0.04,0.006-0.084-0.008-0.125-0.015
		c-0.597-0.105-1.192-0.04-1.78,0.052c-0.718,0.112-1.421,0.294-2.109,0.524c-0.052,0.018-0.103,0.039-0.124,0.047
		c0.013,0.217,0.042,0.408,0.031,0.597c-0.011,0.194-0.061,0.387-0.097,0.595c0.14,0.017,0.261,0.021,0.378,0.048
		c0.136,0.031,0.276,0.066,0.401,0.124c0.152,0.071,0.138,0.231-0.001,0.323c-0.069,0.046-0.115,0.124-0.173,0.186
		c-0.021,0.023-0.047,0.042-0.071,0.062c-0.009-0.035-0.036-0.082-0.022-0.102c0.049-0.071,0.109-0.135,0.172-0.196
		c0.067-0.065,0.151-0.146,0.034-0.205c-0.1-0.05-0.287-0.093-0.344-0.043c-0.226,0.199-0.162,0.493,0.108,0.634
		c0.027,0.014,0.062,0.015,0.09,0.029c0.096,0.047,0.183,0.099,0.175,0.225c-0.003,0.043,0.018,0.089,0.034,0.132
		c0.076,0.206,0.172,0.4,0.177,0.634c0.004,0.157-0.032,0.259-0.152,0.33c-0.203,0.121-0.412,0.236-0.629,0.332
		c-0.154,0.068-0.27,0.144-0.284,0.318c-0.002,0.027-0.015,0.064-0.036,0.079c-0.16,0.114-0.267,0.262-0.336,0.44
		c-0.02,0.052-0.071,0.109-0.123,0.132c-0.229,0.098-0.464,0.183-0.696,0.276c-0.112,0.045-0.262,0.07-0.324,0.152
		c-0.125,0.167-0.385,0.197-0.44,0.422c-0.52,0.304-1.038,0.611-1.562,0.91c-0.082,0.047-0.125,0.086-0.127,0.182
		c-0.01,0.497-0.021,0.993-0.046,1.49c-0.007,0.141,0.029,0.183,0.176,0.187c1.077,0.028,2.153,0.067,3.23,0.098
		C8.849,23.294,9.534,23.313,10.219,23.332z"/>
	<path class="st0" d="M45.22,29.227c-0.113,0.007-0.205-0.155-0.335-0.03c0.019,0.045,0.037,0.087,0.077,0.179
		c-0.163-0.123-0.274-0.167-0.27,0.007c-0.147,0.091-0.267,0.166-0.393,0.245c-0.004,0.026-0.009,0.065-0.014,0.104
		c-0.016,0.008-0.032,0.015-0.048,0.023c-0.014-0.039-0.027-0.077-0.04-0.113c-0.216,0.174-0.261,0.167-0.381-0.034
		c-0.015-0.025-0.004-0.068-0.023-0.084c-0.041-0.034-0.092-0.056-0.139-0.083c-0.02,0.037-0.051,0.072-0.057,0.111
		c-0.01,0.059-0.003,0.121-0.003,0.214c-0.257-0.295-0.257-0.295-0.353-0.267c0.038,0.159-0.126,0.315-0.295,0.301
		c0.003-0.062,0.02-0.127,0.004-0.182c-0.008-0.026-0.08-0.035-0.131-0.054c0.017,0.094,0.054,0.194,0.033,0.207
		c-0.063,0.039-0.148,0.043-0.231,0.063c-0.035,0.078-0.073,0.172-0.122,0.261c-0.02,0.037-0.071,0.09-0.098,0.086
		c-0.236-0.038-0.109,0.109-0.106,0.199c-0.078,0.037-0.157,0.104-0.237,0.105c-0.21,0.003-0.42-0.019-0.629-0.039
		c-0.03-0.003-0.054-0.053-0.081-0.081c0.03-0.022,0.058-0.06,0.09-0.062c0.143-0.01,0.216-0.094,0.29-0.201
		c0.055-0.079,0.145-0.139,0.226-0.198c0.057-0.042,0.127-0.068,0.199-0.106c0.019,0.009,0.052,0.025,0.093,0.045
		c-0.029-0.219-0.028-0.217,0.169-0.239c0.026-0.003,0.071-0.031,0.069-0.045c-0.003-0.027-0.026-0.058-0.05-0.076
		c-0.022-0.017-0.056-0.02-0.093-0.032c0.015-0.035,0.019-0.068,0.038-0.087c0.089-0.095,0.178-0.19,0.275-0.278
		c0.119-0.108,0.213-0.269,0.421-0.212c0.004,0.031,0.007,0.059,0.016,0.125c0.065-0.097,0.108-0.161,0.152-0.225
		c-0.009-0.011-0.018-0.023-0.028-0.034c-0.224,0.048-0.452,0.074-0.618,0.274c-0.071,0.086-0.187,0.137-0.283,0.204
		c-0.04,0.028-0.084,0.053-0.121,0.084c-0.085,0.071-0.167,0.146-0.252,0.217c-0.07,0.058-0.161,0.1-0.214,0.17
		c-0.142,0.186-0.34,0.272-0.562,0.305c-0.358,0.053-0.717,0.098-1.077,0.13c-0.367,0.033-0.736,0.042-1.107,0.026
		c0.076,0.111-0.084,0.069-0.118,0.145c-0.033-0.158-0.059-0.167-0.258-0.12c0.07,0.219,0.053,0.286-0.137,0.429
		c0.02-0.053,0.04-0.106,0.069-0.181c-0.094,0.047-0.166,0.084-0.246,0.124c0.036,0.059,0.062,0.102,0.101,0.165
		c-0.16-0.084-0.289-0.17-0.433-0.22c-0.105-0.036-0.236-0.003-0.341-0.04c-0.105-0.037-0.191-0.123-0.302-0.199
		c0,0.089,0,0.163,0,0.225c0.072-0.009,0.152-0.041,0.181-0.017c0.045,0.037,0.055,0.113,0.091,0.199
		c-0.238-0.092-0.287-0.085-0.362,0.018c-0.048-0.041-0.097-0.084-0.174-0.15c0.043-0.018,0.081-0.034,0.145-0.06
		c-0.136-0.051-0.229-0.087-0.323-0.122c-0.017,0.01-0.034,0.02-0.05,0.029c0.042,0.141,0.084,0.281,0.126,0.422
		c-0.019,0.011-0.038,0.022-0.057,0.033c-0.02-0.046-0.039-0.093-0.049-0.116c-0.071,0.053-0.113,0.104-0.164,0.115
		c-0.027,0.006-0.087-0.053-0.102-0.093c-0.012-0.033,0.019-0.081,0.031-0.123c0.039,0.019,0.078,0.038,0.117,0.057
		c0.026-0.103,0.013-0.127-0.075-0.111c-0.138,0.025-0.275,0.054-0.411,0.088c-0.174,0.043-0.229,0.145-0.192,0.321
		c0.014,0.069,0.011,0.141,0.015,0.212c-0.071-0.063-0.096-0.145-0.152-0.197c-0.052-0.047-0.135-0.077-0.207-0.083
		c-0.028-0.002-0.064,0.08-0.099,0.128c0.191,0.089,0.203,0.122,0.115,0.258c-0.056-0.059-0.114-0.118-0.201-0.209
		c-0.008,0.103-0.016,0.162-0.015,0.221c0.002,0.062,0.013,0.123,0.023,0.207c-0.189-0.163-0.389-0.17-0.536-0.041
		c-0.109-0.035-0.221-0.14-0.325-0.021c-0.072,0.082-0.135,0.19-0.153,0.295c-0.028,0.162-0.126,0.26-0.246,0.354
		c-0.035,0.027-0.091,0.084-0.083,0.099c0.063,0.112-0.035,0.16-0.081,0.233c-0.057,0.09-0.085,0.177,0.044,0.254
		c0.074,0.044,0.12,0.13,0.195,0.217c0.15,0.018,0.305-0.011,0.351-0.209c0.068,0.05,0.128,0.094,0.188,0.137
		c0.015-0.013,0.03-0.026,0.045-0.04c-0.059-0.101-0.118-0.202-0.178-0.304c0.055-0.023,0.115-0.042,0.169-0.07
		c0.169-0.089,0.327-0.121,0.496,0.011c0.096,0.075,0.116,0.146,0.005,0.209c-0.211,0.119-0.404,0.275-0.664,0.3
		c-0.049,0.005-0.094,0.051-0.141,0.078c0.007,0.013,0.015,0.026,0.022,0.04c0.098-0.03,0.195-0.064,0.294-0.089
		c0.229-0.057,0.415-0.228,0.684-0.194c0.254,0.032,0.515,0.011,0.773,0.009c0.037,0,0.073-0.022,0.11-0.034
		c-0.003-0.011-0.006-0.022-0.009-0.033c-0.243,0-0.486,0-0.725,0c0.036-0.056,0.067-0.104,0.106-0.166
		c0.064,0.031,0.167-0.195,0.232-0.005c0.217-0.065,0.422-0.133,0.63-0.188c0.191-0.051,0.385-0.116,0.58-0.123
		c0.187-0.006,0.339-0.044,0.475-0.164c0.023-0.021,0.068-0.017,0.099-0.032c0.097-0.048,0.196-0.095,0.288-0.151
		c0.035-0.021,0.054-0.067,0.054-0.068c0.122,0.032,0.211,0.066,0.302,0.076c0.067,0.007,0.138-0.017,0.208-0.027
		c-0.02-0.054-0.039-0.108-0.064-0.175c0.06,0.012,0.127,0.007,0.169,0.036c0.178,0.121,0.329,0.014,0.464-0.062
		c0.121-0.068,0.217-0.15,0.363-0.066c0.022,0.013,0.071,0,0.099-0.015c0.081-0.044,0.157-0.094,0.237-0.143
		c0.039,0.084,0.068,0.146,0.097,0.206c-0.694,0.388-1.431,0.653-2.197,0.851c1.037-0.074,1.867-0.65,2.783-1.017
		c-0.009-0.021-0.017-0.042-0.026-0.063c-0.142,0.063-0.284,0.125-0.426,0.188c-0.006-0.011-0.013-0.022-0.019-0.034
		c0.059-0.044,0.118-0.088,0.179-0.134c-0.035-0.061-0.066-0.114-0.098-0.167c0.184,0.117,0.324,0.05,0.463-0.061
		c0.032-0.026,0.078-0.046,0.119-0.049c0.071-0.005,0.143,0.008,0.215,0.008c0.061,0,0.123-0.007,0.184-0.01
		c0.003,0.016,0.006,0.031,0.008,0.047c-0.161,0.053-0.323,0.106-0.523,0.172c0.236,0.04,1.253-0.369,1.31-0.495
		c-0.166,0.063-0.337,0.128-0.508,0.192c-0.009-0.021-0.018-0.042-0.026-0.062c0.129-0.113,0.231-0.275,0.433-0.189
		c0.051-0.079,0.077-0.166,0.134-0.192c0.047-0.022,0.13,0.028,0.197,0.046c-0.017,0.057-0.034,0.115-0.061,0.203
		c0.245-0.135,0.473-0.266,0.706-0.388c0.429-0.224,0.859-0.447,1.292-0.664c0.255-0.128,0.52-0.24,0.774-0.37
		c0.086-0.044,0.154-0.12,0.23-0.182C45.235,29.253,45.228,29.24,45.22,29.227z"/>
	<path class="st0" d="M38.208,32.263c-0.038-0.015-0.083-0.052-0.114-0.043c-0.135,0.039-0.265,0.094-0.398,0.137
		c-0.241,0.078-0.484,0.15-0.725,0.227c-0.128,0.041-0.255,0.085-0.382,0.127c0.008,0.021,0.015,0.043,0.022,0.064
		c0.069-0.017,0.14-0.03,0.208-0.051c0.328-0.103,0.654-0.211,0.983-0.31c0.104-0.031,0.218-0.031,0.323-0.059
		C38.16,32.347,38.181,32.295,38.208,32.263z"/>
	<path class="st0" d="M42.822,29.118c-0.274,0.264-0.291,0.229-0.193,0.34c0.181,0.028,0.329,0.05,0.478,0.073
		c0.047-0.144-0.133-0.129-0.209-0.218c0.067-0.01,0.114-0.016,0.213-0.031C42.989,29.213,42.907,29.166,42.822,29.118z"/>
	<path class="st0" d="M44.01,29.421c0.129-0.245,0.108-0.333-0.158-0.442c-0.021,0.056-0.038,0.103-0.051,0.138
		c0.071,0.041,0.139,0.061,0.169,0.104C44.001,29.266,43.994,29.334,44.01,29.421z"/>
	<path class="st0" d="M28.737,29.39c0.673,0,1.341,0,2.01,0c0-0.433,0-0.867,0-1.3c-0.048-0.003-0.095-0.01-0.143-0.01
		c-0.574-0.001-1.147,0-1.721,0c-0.047,0-0.095,0-0.147,0c-0.2-2.439-1.135-4.536-2.863-6.256c-1.729-1.72-3.83-2.644-6.273-2.824
		c0-0.687,0-1.371,0-2.056c-0.441,0-0.883,0-1.324,0c0,0.685,0,1.371,0,2.066c-2.401,0.215-4.471,1.152-6.167,2.865
		c-1.697,1.713-2.615,3.792-2.812,6.205c-0.053,0-0.1,0-0.147,0c-0.618,0-1.235,0-1.853,0c-0.048,0-0.095,0.007-0.143,0.01
		c0,0.433,0,0.867,0,1.3c0.709,0,1.418,0,2.141,0c0.193,2.411,1.107,4.494,2.803,6.212c1.695,1.716,3.763,2.654,6.178,2.875
		c0,0.684,0,1.372,0,2.059c0.441,0,0.883,0,1.324,0c0-0.681,0-1.362,0-2.049c2.442-0.178,4.546-1.104,6.277-2.827
		C27.607,33.938,28.541,31.837,28.737,29.39z M19.604,37.212c0-0.588,0-1.176,0-1.772c-0.444,0-0.875,0-1.321,0
		c0,0.584,0,1.171,0,1.759c-4.006-0.26-7.463-3.679-7.679-7.803c0.548,0,1.095,0,1.649,0c0-0.441,0-0.868,0-1.311
		c-0.543,0-1.086,0-1.651,0c0.173-1.832,0.837-3.439,2.036-4.81c1.489-1.704,3.373-2.651,5.637-2.882c0,0.557,0,1.097,0,1.647
		c0.442,0,0.873,0,1.319,0c0-0.542,0-1.089,0-1.654c2.013,0.17,3.751,0.924,5.199,2.308c1.531,1.463,2.378,3.264,2.591,5.386
		c-0.587,0-1.158,0-1.736,0c0,0.442,0,0.869,0,1.313c0.576,0,1.151,0,1.726,0C27.199,33.285,23.933,36.936,19.604,37.212z"/>
	<path class="st0" d="M20.062,28.234c-0.244-0.052-0.484-0.126-0.716-0.188c0-1.052,0-2.077,0-3.11
		c0.8,0.137,1.196,0.647,1.322,1.411c0.399-0.057,0.783-0.111,1.178-0.168c-0.063-0.443-0.217-0.837-0.485-1.183
		c-0.508-0.654-1.203-0.93-2.023-0.977c0-0.185,0-0.358,0-0.531c-0.257,0-0.496,0-0.75,0c0,0.18,0,0.354,0,0.523
		c-0.182,0.029-0.349,0.051-0.514,0.083c-0.689,0.135-1.251,0.467-1.626,1.074c-0.312,0.506-0.4,1.066-0.308,1.644
		c0.109,0.684,0.432,1.247,1.052,1.599c0.198,0.112,0.41,0.202,0.622,0.283c0.253,0.096,0.513,0.173,0.768,0.257
		c0,1.138,0,2.275,0,3.427c-0.623-0.138-1.08-0.469-1.309-1.063c-0.104-0.27-0.156-0.561-0.235-0.855
		c-0.357,0.065-0.725,0.131-1.102,0.199c0.005,0.069,0.006,0.129,0.014,0.188c0.068,0.55,0.276,1.04,0.617,1.478
		c0.277,0.357,0.616,0.617,1.057,0.731c0.267,0.069,0.535,0.138,0.806,0.189c0.125,0.024,0.173,0.064,0.164,0.198
		c-0.014,0.198-0.004,0.398-0.004,0.602c0.257,0,0.499,0,0.753,0c0-0.259,0-0.511,0-0.766c0.162-0.022,0.306-0.036,0.448-0.06
		c1.341-0.229,2.2-1.218,2.279-2.403c0.052-0.775-0.153-1.456-0.754-1.978C20.955,28.524,20.529,28.335,20.062,28.234z
		 M18.582,27.898c-0.374-0.152-0.75-0.286-1.03-0.582c-0.275-0.292-0.326-0.663-0.303-1.044c0.042-0.707,0.583-1.264,1.286-1.337
		c0.012-0.001,0.023,0.002,0.047,0.004C18.582,25.926,18.582,26.904,18.582,27.898z M19.346,32.359c0-1.085,0-2.169,0-3.269
		c0.433,0.113,0.848,0.237,1.17,0.561c0.275,0.276,0.37,0.621,0.374,0.998C20.9,31.727,20.108,32.268,19.346,32.359z"/>
</g>
</svg>
