<?xml version="1.0" encoding="utf-8"?>
<!-- Generator: Adobe Illustrator 23.0.3, SVG Export Plug-In . SVG Version: 6.00 Build 0)  -->
<svg version="1.1" id="Layer_1" xmlns="http://www.w3.org/2000/svg" xmlns:xlink="http://www.w3.org/1999/xlink" x="0px" y="0px"
	 viewBox="0 0 50 50" style="enable-background:new 0 0 50 50;" xml:space="preserve">
<style type="text/css">
	.st0{fill:#FFFFFF;}
</style>
<path id="valqkY_1_" class="st0" d="M7.069,41.975c0.231,0,0.409,0,0.587,0c11.396,0,22.793,0,34.189,0
	c0.612,0,0.614-0.001,0.614-0.615c0-10.308,0-20.616,0-30.924c0-0.135-0.012-0.27-0.019-0.422c-2.216,0-4.387,0-6.594,0
	c0,0.521-0.002,1.017,0.003,1.512c0,0.056,0.029,0.152,0.063,0.162c0.376,0.108,0.342,0.515,0.528,0.76
	c0.367,0.481,0.272,1.115,0.267,1.701c-0.004,0.543-0.115,1.039-0.533,1.426c-0.107,0.1-0.197,0.218-0.303,0.319
	c-0.298,0.284-0.519,0.697-0.994,0.713c-0.664,0.022-1.33,0.012-1.995,0.007c-0.098,0-0.222-0.014-0.29-0.072
	c-0.321-0.279-0.611-0.596-0.942-0.862c-0.595-0.476-0.707-1.107-0.656-1.811c0.023-0.319,0.015-0.64,0.029-0.96
	c0.004-0.086,0.011-0.231,0.055-0.248c0.372-0.143,0.248-0.627,0.572-0.807c0.099-0.055,0.2-0.203,0.204-0.313
	c0.022-0.507,0.01-1.015,0.01-1.528c-4.69,0-9.331,0-14.01,0c0,0.52-0.004,1.016,0.004,1.511c0.001,0.063,0.055,0.129,0.095,0.186
	c0.069,0.099,0.15,0.189,0.221,0.286c0.075,0.102,0.154,0.203,0.217,0.313c0.136,0.237,0.359,0.472,0.377,0.722
	c0.069,0.906,0.161,1.839-0.587,2.566c-0.104,0.101-0.197,0.215-0.302,0.315c-0.29,0.276-0.521,0.668-0.965,0.691
	c-0.663,0.035-1.33,0.018-1.995,0.01c-0.12-0.001-0.246-0.05-0.358-0.101c-0.122-0.055-0.238-0.129-0.344-0.211
	c-0.118-0.091-0.231-0.192-0.33-0.303c-0.078-0.087-0.111-0.222-0.2-0.291c-0.634-0.492-0.736-1.166-0.68-1.903
	c0.023-0.306,0.019-0.614,0.031-0.921c0.003-0.076-0.004-0.2,0.035-0.219c0.371-0.182,0.321-0.645,0.603-0.883
	c0.078-0.066,0.19-0.155,0.193-0.237c0.018-0.507,0.009-1.015,0.009-1.514c-2.304,0-4.56,0-6.811,0
	C7.069,20.685,7.069,31.296,7.069,41.975z M17.347,11.39c0.001,0,0.001,0,0.002,0c0-0.717,0.015-1.434-0.005-2.15
	c-0.014-0.505,0.167-1.066-0.29-1.476c-0.244-0.219-0.502-0.484-0.799-0.569c-0.363-0.104-0.742-0.069-1.115,0.215
	c-0.296,0.225-0.669,0.311-0.668,0.775c0,0.049-0.063,0.096-0.091,0.148c-0.06,0.111-0.166,0.223-0.167,0.335
	c-0.011,1.856-0.01,3.712-0.003,5.568c0,0.114,0.055,0.243,0.123,0.337c0.144,0.2,0.334,0.369,0.469,0.574
	c0.279,0.421,0.793,0.499,1.144,0.461c0.293-0.032,0.783,0.007,1-0.434c0.157-0.32,0.441-0.542,0.415-0.981
	C17.309,13.261,17.347,12.324,17.347,11.39z M35.328,11.357c-0.002,0-0.004,0-0.006,0c0-1.05,0.004-2.1-0.004-3.149
	c-0.001-0.203,0.041-0.432-0.266-0.513c-0.188-0.049-0.449-0.151-0.507-0.296c-0.126-0.318-0.361-0.215-0.565-0.244
	c-0.345-0.049-0.61,0.127-0.914,0.268c-0.37,0.173-0.595,0.354-0.605,0.766c-0.003,0.101,0.01,0.251-0.048,0.295
	c-0.345,0.262-0.204,0.626-0.215,0.95c-0.018,0.511-0.043,1.028,0.003,1.536c0.111,1.206-0.302,2.449,0.253,3.622
	c0.09,0.19,0.157,0.401,0.288,0.559c0.113,0.137,0.291,0.232,0.457,0.312c0.171,0.082,0.359,0.134,0.544,0.178
	c0.095,0.023,0.224,0.036,0.296-0.011c0.281-0.184,0.682-0.161,0.879-0.465c0.157-0.243,0.439-0.389,0.424-0.774
	C35.302,13.381,35.328,12.369,35.328,11.357z M38.995,18.873c0,6.552,0,13.068,0,19.616c-9.491,0-18.971,0-28.474,0
	c0-6.532,0-13.058,0-19.616C20,18.873,29.479,18.873,38.995,18.873z M29.891,26.314c0,0.001,0,0.002,0,0.002
	c0.511,0,1.023-0.003,1.534,0.001c0.259,0.002,0.411-0.088,0.41-0.376c-0.004-0.946,0.01-1.893-0.006-2.838
	c-0.005-0.281-0.137-0.495-0.484-0.492c-0.959,0.009-1.918,0.002-2.877,0.006c-0.349,0.001-0.575,0.231-0.576,0.579
	c-0.003,0.882,0.015,1.765-0.009,2.647c-0.01,0.368,0.152,0.475,0.474,0.473C28.868,26.312,29.379,26.314,29.891,26.314z
	 M31.597,35.976c0.083-0.192,0.223-0.37,0.227-0.551c0.023-0.934,0.008-1.87,0.012-2.804c0.001-0.227-0.111-0.335-0.324-0.335
	c-1.088-0.002-2.177-0.003-3.265,0.004c-0.236,0.001-0.364,0.109-0.36,0.382c0.014,0.909,0.002,1.818,0.006,2.727
	c0.001,0.269,0.315,0.575,0.585,0.576C29.502,35.978,30.526,35.976,31.597,35.976z M29.901,27.448c0,0.001,0,0.003,0,0.004
	c-0.538,0-1.076-0.005-1.613,0.003c-0.214,0.003-0.402,0.039-0.399,0.339c0.011,0.922-0.001,1.844,0.007,2.766
	c0.003,0.318,0.299,0.584,0.625,0.584c0.896,0.002,1.793,0.001,2.689,0.001c0.463,0,0.622-0.152,0.625-0.632
	c0.006-0.883-0.008-1.767,0.007-2.651c0.005-0.33-0.142-0.424-0.441-0.418C30.9,27.456,30.4,27.448,29.901,27.448z M21.608,31.119
	c0-1.232,0-2.438,0-3.64c-1.259,0-2.482,0-3.709,0c0,1.228,0,2.425,0,3.64C19.149,31.119,20.371,31.119,21.608,31.119z
	 M26.753,27.477c-1.268,0-2.49,0-3.721,0c0,1.227,0,2.424,0,3.632c1.252,0,2.472,0,3.721,0
	C26.753,29.89,26.753,28.706,26.753,27.477z M23.033,26.277c1.259,0,2.478,0,3.741,0c0-1.161,0.007-2.283-0.013-3.405
	c-0.001-0.085-0.188-0.232-0.296-0.238c-0.472-0.029-0.945-0.017-1.418-0.018c-0.661-0.001-1.322,0-2.013,0
	C23.033,23.861,23.033,25.056,23.033,26.277z M17.9,35.948c1.266,0,2.474,0,3.713,0c0-1.223,0-2.416,0-3.636
	c-1.244,0-2.474,0-3.713,0C17.9,33.535,17.9,34.729,17.9,35.948z M23.029,35.969c1.179,0,2.304-0.002,3.428,0.001
	c0.261,0.001,0.321-0.155,0.321-0.372c0-0.525,0.002-1.05,0.002-1.575c0-0.559,0-1.118,0-1.706c-1.286,0-2.518,0-3.752,0
	C23.029,33.539,23.029,34.726,23.029,35.969z M17.905,22.641c0,1.232,0,2.437,0,3.643c1.257,0,2.478,0,3.709,0
	c0-1.227,0-2.422,0-3.643C20.374,22.641,19.163,22.641,17.905,22.641z M33.024,26.287c1.269,0,2.464,0,3.666,0
	c0-1.234,0-2.439,0-3.672c-0.987,0-1.932,0.001-2.878,0c-0.961-0.001-0.776,0.022-0.785,0.787
	C33.016,24.345,33.024,25.289,33.024,26.287z M16.481,27.483c-1.244,0-2.441,0-3.64,0c0,1.229,0,2.424,0,3.634
	c1.232,0,2.427,0,3.64,0C16.481,29.891,16.481,28.693,16.481,27.483z M33.058,27.473c-0.015,0.148-0.035,0.248-0.035,0.348
	c-0.001,0.958,0.016,1.917-0.007,2.875c-0.008,0.367,0.146,0.456,0.469,0.452c0.83-0.01,1.661-0.003,2.492-0.003
	c0.238,0,0.475,0,0.716,0c0-1.263,0-2.468,0-3.672C35.468,27.473,34.283,27.473,33.058,27.473z M12.815,32.306
	c0,1.161,0.005,2.271-0.004,3.381c-0.002,0.292,0.177,0.29,0.378,0.29c1.023-0.001,2.046,0,3.068-0.003
	c0.071,0,0.142-0.028,0.219-0.045c0-1.216,0-2.412,0-3.624C15.256,32.306,14.061,32.306,12.815,32.306z"/>
</svg>
