<?xml version="1.0" encoding="utf-8"?>
<!-- Generator: Adobe Illustrator 22.1.0, SVG Export Plug-In . SVG Version: 6.00 Build 0)  -->
<svg version="1.1" id="Layer_1" xmlns="http://www.w3.org/2000/svg" xmlns:xlink="http://www.w3.org/1999/xlink" x="0px" y="0px"
	 viewBox="0 0 50 50" style="enable-background:new 0 0 50 50;" xml:space="preserve">
<style type="text/css">
	.st0{display:none;}
	.st1{display:inline;}
	.st2{fill:#FFFFFF;}
</style>
<g id="_x34_2FiKe_1_" class="st0">
	<g class="st1">
		<path d="M7.229,7.897c0.43,0,0.766,0,1.102,0c7.634,0,15.268,0.009,22.902-0.016c0.704-0.002,1.197,0.202,1.688,0.696
			c1.459,1.467,2.981,2.871,4.444,4.335c0.256,0.256,0.484,0.682,0.485,1.03c0.024,11.095,0.018,22.19,0.013,33.285
			c0,0.129-0.041,0.257-0.073,0.44c-10.188,0-20.345,0-30.56,0C7.229,34.415,7.229,21.229,7.229,7.897z M9.96,10.613
			c0,11.492,0,22.907,0,34.349c8.425,0,16.786,0,25.161,0c0-10.078,0-20.097,0-30.169c-1.161,0-2.247-0.043-3.328,0.014
			c-0.78,0.041-1.106-0.172-1.048-1.012c0.072-1.038,0.017-2.085,0.017-3.183C23.789,10.613,16.917,10.613,9.96,10.613z"/>
		<path d="M43.036,41.57c-1.245,0-2.451,0-3.726,0c0-0.854,0-1.682,0-2.568c0.322-0.054,0.641-0.108,1.002-0.169
			c0-10.032,0-20.025,0-30.124c-1.426,0-2.8,0-4.278,0c0-1.441,0-2.78,0-4.19c-7.036,0-13.967,0-20.962,0
			c-0.027,0.624-0.053,1.218-0.082,1.865c-0.864,0-1.663,0-2.537,0c0-1.497,0-2.97,0-4.592c0.345,0,0.703,0,1.06,0
			c7.635,0,15.27,0.009,22.905-0.015c0.703-0.002,1.204,0.2,1.694,0.695c1.456,1.471,2.977,2.878,4.425,4.355
			c0.293,0.299,0.538,0.8,0.539,1.209c0.029,10.927,0.023,21.853,0.021,32.78C43.095,41.047,43.06,41.277,43.036,41.57z"/>
		<path d="M22.158,40.501c-2.578,0-5.156-0.006-7.735,0.004c-0.754,0.003-1.401-0.151-1.422-1.054
			c-0.022-0.968,0.668-1.143,1.452-1.144c5.19-0.001,10.381,0.002,15.571-0.002c0.76-0.001,1.42,0.212,1.435,1.074
			c0.016,0.924-0.649,1.135-1.465,1.129C27.382,40.489,24.77,40.501,22.158,40.501z"/>
		<path d="M22.503,28.51c2.576,0,5.153,0.005,7.729-0.003c0.772-0.003,1.467,0.086,1.52,1.066c0.042,0.775-0.452,1.132-1.564,1.134
			c-5.119,0.005-10.237-0.001-15.356,0.006c-0.784,0.001-1.458-0.144-1.535-1.082c-0.061-0.75,0.479-1.117,1.578-1.119
			C17.418,28.507,19.96,28.51,22.503,28.51z"/>
		<path d="M22.506,20.949c-2.61,0-5.22-0.014-7.83,0.009c-0.802,0.007-1.374-0.248-1.371-1.106c0.003-0.81,0.599-1.081,1.322-1.082
			c5.288-0.005,10.576-0.008,15.864,0.005c0.719,0.002,1.279,0.289,1.258,1.13c-0.021,0.842-0.568,1.053-1.31,1.049
			C27.794,20.942,25.15,20.949,22.506,20.949z"/>
		<path d="M22.56,26.026c-2.542,0-5.085-0.007-7.627,0.004c-0.801,0.004-1.549-0.062-1.634-1.076
			c-0.063-0.748,0.484-1.124,1.579-1.125c5.119-0.004,10.237,0.001,15.356-0.004c0.772-0.001,1.497,0.102,1.511,1.075
			c0.015,1.043-0.75,1.131-1.557,1.129C27.644,26.022,25.102,26.026,22.56,26.026z"/>
		<path d="M22.508,33.59c2.609,0,5.218,0.01,7.827-0.006c0.756-0.004,1.391,0.115,1.412,1.04c0.02,0.915-0.623,1.129-1.362,1.13
			c-5.218,0.01-10.436,0.007-15.654,0.004c-0.744,0-1.417-0.205-1.423-1.084c-0.007-0.944,0.666-1.101,1.475-1.093
			C17.358,33.606,19.933,33.59,22.508,33.59z"/>
	</g>
</g>
<g>
	<path class="st2" d="M45.372,44.654c-0.037-0.729-0.577-1.156-1.489-1.156c-11.356-0.002-22.713-0.001-34.069-0.001
		c-1.225,0-2.451,0-3.728,0c-0.011-0.203-0.024-0.335-0.024-0.467c0-8.21,0.001-16.421,0.001-24.631c0-2.978,0.01-5.956-0.016-8.934
		c-0.003-0.379-0.13-0.801-0.329-1.123C5.462,7.931,4.86,7.828,4.395,7.992C3.87,8.178,3.577,8.635,3.577,9.307
		c-0.003,4.559-0.001,9.119-0.003,13.678c-0.003,7.234-0.006,14.469-0.012,21.703C3.561,45.471,4.098,46,4.895,46
		c11.205-0.004,22.41-0.006,33.615-0.008c1.834,0,3.668,0.005,5.502-0.005C44.883,45.982,45.413,45.449,45.372,44.654z"/>
	<path class="st2" d="M33.689,40.902c2.493,0,4.958,0,7.466,0c0-7.382,0-14.704,0-22.031c-2.511,0-4.977,0-7.466,0
		C33.689,26.223,33.689,33.548,33.689,40.902z"/>
	<path class="st2" d="M21.566,40.903c2.505,0,4.968,0,7.463,0c0-4.939,0-9.849,0-14.756c-2.512,0-4.976,0-7.463,0
		C21.566,31.068,21.566,35.956,21.566,40.903z"/>
	<path class="st2" d="M11.512,30.722c0.53,0.093,0.931-0.191,1.313-0.511c4.525-3.786,9.052-7.571,13.579-11.355
		c0.121-0.101,0.249-0.194,0.396-0.307c0,0.308-0.008,0.559,0.002,0.809c0.026,0.664,0.556,1.241,1.185,1.301
		c0.76,0.072,1.428-0.358,1.519-1.082c0.169-1.349,0.313-2.704,0.39-4.06c0.055-0.972-0.397-1.492-1.357-1.611
		c-1.316-0.162-2.639-0.276-3.961-0.364c-0.75-0.05-1.362,0.52-1.42,1.218c-0.066,0.786,0.419,1.408,1.206,1.532
		c0.197,0.031,0.399,0.03,0.599,0.044c0.024,0.042,0.048,0.084,0.072,0.126c-0.072,0.041-0.153,0.073-0.215,0.125
		c-3.702,3.094-7.403,6.189-11.104,9.284c-0.967,0.809-1.935,1.617-2.897,2.432c-0.457,0.387-0.594,0.896-0.43,1.458
		C10.546,30.308,10.957,30.624,11.512,30.722z"/>
	<path class="st2" d="M37.519,15.877c3.622,0.001,6.625-3.006,6.614-6.623c-0.011-3.621-2.987-6.594-6.586-6.579
		c-3.736,0.015-6.623,2.929-6.618,6.679C30.935,12.919,33.922,15.876,37.519,15.877z M37.552,4.275
		c2.773,0.025,5.012,2.28,4.985,5.023c-0.027,2.746-2.325,5.015-5.045,4.983c-2.788-0.033-4.992-2.295-4.963-5.095
		C32.557,6.44,34.796,4.251,37.552,4.275z"/>
	<path class="st2" d="M16.928,33.795c-2.516,0-4.991,0-7.474,0c0,2.388,0,4.733,0,7.093c2.502,0,4.975,0,7.474,0
		C16.928,38.512,16.928,36.181,16.928,33.795z"/>
	<path class="st2" d="M37.413,11.232c-0.545,0.008-1.092-0.065-1.702-0.108c-0.065,0.257-0.144,0.57-0.243,0.964
		c0.627,0.121,1.194,0.23,1.791,0.345c0.014,0.263,0.029,0.538,0.044,0.827c0.247,0,0.441,0,0.76,0
		c-0.244-0.719,0.075-1.028,0.656-1.3c0.652-0.305,0.846-0.942,0.817-1.656c-0.028-0.684-0.351-1.133-0.962-1.403
		c-0.414-0.183-0.827-0.367-1.238-0.555c-0.3-0.137-0.471-0.4-0.344-0.689c0.088-0.201,0.351-0.444,0.548-0.456
		c0.491-0.029,0.989,0.064,1.552,0.113c0.068-0.229,0.155-0.523,0.258-0.87c-0.476-0.122-0.893-0.23-1.321-0.34
		c-0.008-0.122-0.025-0.239-0.02-0.354c0.012-0.285,0.024-0.54-0.393-0.528c-0.408,0.011-0.357,0.289-0.33,0.528
		c0.039,0.343-0.114,0.444-0.426,0.527c-0.673,0.18-1.103,0.624-1.176,1.345c-0.092,0.901,0.14,1.347,0.898,1.725
		c0.375,0.187,0.765,0.343,1.143,0.522c0.318,0.15,0.506,0.395,0.451,0.762C38.11,11.061,37.776,11.226,37.413,11.232z"/>
</g>
</svg>
