<?xml version="1.0" encoding="utf-8"?>
<!-- Generator: Adobe Illustrator 25.2.0, SVG Export Plug-In . SVG Version: 6.00 Build 0)  -->
<svg version="1.1" id="Layer_1" xmlns="http://www.w3.org/2000/svg" xmlns:xlink="http://www.w3.org/1999/xlink" x="0px" y="0px"
	 viewBox="0 0 50 50" style="enable-background:new 0 0 50 50;" xml:space="preserve">
<style type="text/css">
	.st0{display:none;}
	.st1{display:inline;}
	.st2{fill:#FFFFFF;}
</style>
<g id="_x34_2FiKe_1_" class="st0">
	<g class="st1">
		<path d="M7.229,7.897c0.43,0,0.766,0,1.102,0c7.634,0,15.268,0.009,22.902-0.016c0.704-0.002,1.197,0.202,1.688,0.696
			c1.459,1.467,2.981,2.871,4.444,4.335c0.256,0.256,0.484,0.682,0.485,1.03c0.024,11.095,0.018,22.19,0.013,33.285
			c0,0.129-0.041,0.257-0.073,0.44c-10.188,0-20.345,0-30.56,0C7.229,34.415,7.229,21.229,7.229,7.897z M9.96,10.613
			c0,11.492,0,22.907,0,34.349c8.425,0,16.786,0,25.161,0c0-10.078,0-20.097,0-30.169c-1.161,0-2.247-0.043-3.328,0.014
			c-0.78,0.041-1.106-0.172-1.048-1.012c0.072-1.038,0.017-2.085,0.017-3.183C23.789,10.613,16.917,10.613,9.96,10.613z"/>
		<path d="M43.036,41.57c-1.245,0-2.451,0-3.726,0c0-0.854,0-1.682,0-2.568c0.322-0.054,0.641-0.108,1.002-0.169
			c0-10.032,0-20.025,0-30.124c-1.426,0-2.8,0-4.278,0c0-1.441,0-2.78,0-4.19c-7.036,0-13.967,0-20.962,0
			c-0.027,0.624-0.053,1.218-0.082,1.865c-0.864,0-1.663,0-2.537,0c0-1.497,0-2.97,0-4.592c0.345,0,0.703,0,1.06,0
			c7.635,0,15.27,0.009,22.905-0.015c0.703-0.002,1.204,0.2,1.694,0.695c1.456,1.471,2.977,2.878,4.425,4.355
			c0.293,0.299,0.538,0.8,0.539,1.209c0.029,10.927,0.023,21.853,0.021,32.78C43.095,41.047,43.06,41.277,43.036,41.57z"/>
		<path d="M22.158,40.501c-2.578,0-5.156-0.006-7.735,0.004c-0.754,0.003-1.401-0.151-1.422-1.054
			c-0.022-0.968,0.668-1.143,1.452-1.144c5.19-0.001,10.381,0.002,15.571-0.002c0.76-0.001,1.42,0.212,1.435,1.074
			c0.016,0.924-0.649,1.135-1.465,1.129C27.382,40.489,24.77,40.501,22.158,40.501z"/>
		<path d="M22.503,28.51c2.576,0,5.153,0.005,7.729-0.003c0.772-0.003,1.467,0.086,1.52,1.066c0.042,0.775-0.452,1.132-1.564,1.134
			c-5.119,0.005-10.237-0.001-15.356,0.006c-0.784,0.001-1.458-0.144-1.535-1.082c-0.061-0.75,0.479-1.117,1.578-1.119
			C17.418,28.507,19.96,28.51,22.503,28.51z"/>
		<path d="M22.506,20.949c-2.61,0-5.22-0.014-7.83,0.009c-0.802,0.007-1.374-0.248-1.371-1.106c0.003-0.81,0.599-1.081,1.322-1.082
			c5.288-0.005,10.576-0.008,15.864,0.005c0.719,0.002,1.279,0.289,1.258,1.13c-0.021,0.842-0.568,1.053-1.31,1.049
			C27.794,20.942,25.15,20.949,22.506,20.949z"/>
		<path d="M22.56,26.026c-2.542,0-5.085-0.007-7.627,0.004c-0.801,0.004-1.549-0.062-1.634-1.076
			c-0.063-0.748,0.484-1.124,1.579-1.125c5.119-0.004,10.237,0.001,15.356-0.004c0.772-0.001,1.497,0.102,1.511,1.075
			c0.015,1.043-0.75,1.131-1.557,1.129C27.644,26.022,25.102,26.026,22.56,26.026z"/>
		<path d="M22.508,33.59c2.609,0,5.218,0.01,7.827-0.006c0.756-0.004,1.391,0.115,1.412,1.04c0.02,0.915-0.623,1.129-1.362,1.13
			c-5.218,0.01-10.436,0.007-15.654,0.004c-0.744,0-1.417-0.205-1.423-1.084c-0.007-0.944,0.666-1.101,1.475-1.093
			C17.358,33.606,19.933,33.59,22.508,33.59z"/>
	</g>
</g>
<g>
	<path class="st2" d="M45.212,12.576c-1.805-5.29-6.984-8.641-12.576-8.14c-3.002,0.269-5.61,1.444-7.638,3.659
		c-3.656,3.992-4.351,8.546-2.272,13.53c0.106,0.253,0.106,0.412-0.103,0.615c-0.72,0.701-1.409,1.435-2.134,2.132
		c-0.114,0.109-0.365,0.154-0.528,0.118c-0.535-0.118-1.059-0.285-1.586-0.438c-0.454-0.132-0.906-0.27-1.439-0.43
		c0.724-0.721,1.38-1.374,2.035-2.027c0.568-0.566,0.825-1.261,0.766-2.049c-0.084-1.126-0.672-1.927-1.731-2.305
		c-1.072-0.383-2.047-0.137-2.856,0.671c-3.782,3.776-7.56,7.556-11.336,11.337c-0.472,0.473-0.462,0.856,0.017,1.339
		c0.775,0.781,1.555,1.558,2.333,2.335c0.571,0.569,0.907,0.573,1.467,0.013c1.546-1.544,3.095-3.085,4.63-4.639
		c0.22-0.223,0.441-0.305,0.745-0.284c1.191,0.08,2.383,0.142,3.574,0.216c0.16,0.01,0.319,0.052,0.55,0.092
		c-0.481,0.563-0.922,1.05-1.331,1.563c-1.326,1.662-0.77,4.11,1.146,4.968c1.186,0.531,2.331,0.391,3.366-0.406
		c0.54-0.416,1.048-0.876,1.646-1.38c0.084,1.468,0.15,2.826,0.246,4.182c0.022,0.317-0.077,0.526-0.294,0.74
		c-1.563,1.549-3.117,3.107-4.671,4.665c-0.489,0.49-0.494,0.844-0.012,1.33c0.796,0.804,1.597,1.604,2.4,2.401
		c0.498,0.495,0.881,0.503,1.371,0.013c3.77-3.766,7.541-7.53,11.302-11.305c1.124-1.128,1.144-2.787,0.084-3.842
		c-1.075-1.071-2.725-1.019-3.869,0.125c-0.62,0.62-1.238,1.242-1.919,1.925c-0.329-1.139-0.637-2.189-0.926-3.244
		c-0.023-0.083,0.073-0.226,0.151-0.304c0.723-0.722,1.461-1.428,2.176-2.157c0.2-0.204,0.349-0.213,0.603-0.095
		c2.288,1.057,4.69,1.376,7.168,0.958C43.127,27.218,47.623,19.641,45.212,12.576z M44.331,15.835c-0.783,0-1.499,0-2.281,0
		c-0.184-1.761-0.804-3.358-1.924-4.69c0.531-0.557,1.027-1.076,1.56-1.636C43.301,11.317,44.127,13.406,44.331,15.835z
		 M34.383,7.554c0.029-0.514,0.007-1.031,0.007-1.631c2.442,0.173,4.501,1.046,6.279,2.557c-0.546,0.539-1.065,1.051-1.614,1.593
		c-0.979-0.804-2.134-1.414-3.446-1.698c-0.215-0.046-0.433-0.134-0.645-0.121C34.42,8.287,34.358,7.992,34.383,7.554z
		 M33.057,5.919c0,0.731,0.008,1.413-0.012,2.095c-0.002,0.07-0.166,0.183-0.264,0.194c-1.667,0.194-3.142,0.834-4.401,1.869
		c-0.556-0.553-1.064-1.059-1.602-1.593C28.554,6.961,30.619,6.104,33.057,5.919z M25.723,9.531
		c0.557,0.563,1.062,1.074,1.586,1.604c-0.787,0.976-1.388,2.084-1.679,3.343c-0.071,0.305-0.147,0.613-0.166,0.923
		c-0.022,0.365-0.18,0.475-0.534,0.458c-0.575-0.027-1.152-0.007-1.789-0.007C23.295,13.414,24.175,11.351,25.723,9.531z
		 M25.18,17.181c0.088,0.003,0.235,0.16,0.246,0.259c0.185,1.653,0.827,3.109,1.862,4.4c0.018,0.022,0.017,0.059,0.013,0.042
		c-0.518,0.534-1.019,1.051-1.558,1.606c-1.564-1.804-2.432-3.876-2.608-6.319C23.841,17.169,24.511,17.159,25.18,17.181z
		 M16.41,18.859c0.46-0.375,1.083-0.318,1.491,0.096c0.406,0.413,0.446,1.029,0.06,1.488c-0.27,0.321-0.582,0.607-0.863,0.897
		c-0.57-0.532-1.093-1.021-1.667-1.557C15.779,19.451,16.076,19.132,16.41,18.859z M6.904,31.33
		c-0.447-0.441-0.973-0.96-1.461-1.442c0.317-0.337,0.657-0.699,1.006-1.07c0.511,0.533,1.007,1.051,1.52,1.586
		C7.621,30.706,7.236,31.041,6.904,31.33z M8.954,29.334c-0.463-0.462-0.972-0.969-1.429-1.424c2.332-2.332,4.678-4.678,7.026-7.025
		c0.421,0.436,0.929,0.961,1.402,1.451C13.642,24.646,11.294,26.994,8.954,29.334z M14.451,26.61
		c-0.103-0.006-0.205-0.032-0.385-0.062c0.557-0.561,1.058-1.07,1.569-1.569c0.054-0.052,0.18-0.074,0.257-0.052
		c1.084,0.304,2.164,0.617,3.264,0.934c-0.367,0.665-0.786,1.06-1.607,0.95C16.525,26.675,15.484,26.673,14.451,26.61z
		 M17.179,33.188c-0.696-0.62-0.765-1.556-0.177-2.305c0.764,0.791,1.53,1.583,2.296,2.375
		C18.78,33.775,17.842,33.779,17.179,33.188z M20.362,44.85c-0.532-0.519-1.054-1.028-1.592-1.553
		c0.353-0.344,0.708-0.69,1.053-1.027c0.502,0.518,1.008,1.04,1.522,1.57C21.026,44.167,20.678,44.525,20.362,44.85z M29.93,32.193
		c0.435-0.322,1.048-0.204,1.406,0.199c0.362,0.408,0.389,0.994,0.06,1.428c-0.076,0.099-0.174,0.181-0.256,0.276
		c-0.202,0.239-0.401,0.481-0.593,0.713c-0.618-0.599-1.124-1.089-1.683-1.631C29.226,32.839,29.548,32.476,29.93,32.193z
		 M27.954,34.256c0.437,0.461,0.932,0.982,1.375,1.45c-2.302,2.302-4.649,4.649-6.988,6.988c-0.422-0.433-0.93-0.954-1.397-1.433
		C23.246,38.96,25.593,36.615,27.954,34.256z M23.41,32.102c-0.006-0.146,0.077-0.332,0.181-0.44
		c0.212-0.222,0.466-0.404,0.772-0.66c0.328,1.151,0.634,2.202,0.919,3.26c0.033,0.121-0.013,0.315-0.098,0.407
		c-0.457,0.496-0.937,0.969-1.489,1.532c-0.042-0.338-0.084-0.573-0.099-0.809C23.526,34.296,23.457,33.2,23.41,32.102z
		 M20.473,32.25c-0.831-0.833-1.659-1.663-2.537-2.544c1.858-2.111,3.733-4.241,5.662-6.432c0.411,0.524,0.719,0.915,1.106,1.408
		c-0.3,0.261-0.611,0.502-0.888,0.776c-1.129,1.117-2.251,2.24-3.368,3.368c-0.333,0.337-0.349,0.72-0.078,1.002
		c0.273,0.283,0.694,0.256,1.045-0.071c0.115-0.107,0.223-0.221,0.334-0.333c1.277-1.279,2.553-2.557,3.854-3.859
		c0.424,0.326,0.83,0.639,1.236,0.951C26.369,27.261,21.741,31.422,20.473,32.25z M33.058,27.024
		c-1.488,0.284-5.14-1.216-6.276-2.567c0.519-0.492,1.039-0.985,1.606-1.523c1.297,1.068,2.866,1.714,4.67,1.89
		C33.058,25.598,33.058,26.314,33.058,27.024z M26.889,16.492c0.01-3.771,3.073-6.81,6.856-6.803
		c3.773,0.007,6.814,3.066,6.808,6.849c-0.006,3.754-3.085,6.79-6.878,6.783C29.941,23.315,26.879,20.233,26.889,16.492z
		 M34.41,27.099c0-0.778,0-1.506,0-2.181c0.861-0.243,1.714-0.404,2.5-0.726c0.774-0.317,1.482-0.797,2.22-1.207
		c0.489,0.496,1.001,1.016,1.532,1.554C38.893,26.062,36.814,26.917,34.41,27.099z M41.64,23.488
		c-0.466-0.473-0.942-0.946-1.4-1.436c-0.055-0.058-0.055-0.248-0.002-0.315c1.046-1.331,1.631-2.846,1.803-4.549
		c0.755,0,1.486,0,2.214,0C44.527,18.664,43.022,22.324,41.64,23.488z"/>
	<path class="st2" d="M33.728,14.334c-1.219-0.003-2.201,0.973-2.192,2.176c0.009,1.187,0.973,2.156,2.158,2.169
		c1.211,0.013,2.201-0.951,2.216-2.158C35.926,15.32,34.944,14.336,33.728,14.334z M33.688,17.344
		c-0.447-0.024-0.815-0.437-0.791-0.886c0.023-0.432,0.411-0.797,0.837-0.789c0.451,0.008,0.834,0.409,0.82,0.858
		C34.541,16.971,34.121,17.367,33.688,17.344z"/>
	<path class="st2" d="M44.454,31.018c0,0-0.355-1.213-0.711-1.213c-0.355,0-0.606,1.213-0.606,1.213s-1.213,0.355-1.213,0.711
		c0,0.355,1.213,0.606,1.213,0.606s0.355,1.213,0.711,1.213c0.355,0,0.606-1.213,0.606-1.213s1.213-0.355,1.213-0.711
		C45.667,31.269,44.454,31.018,44.454,31.018z"/>
	<path class="st2" d="M31.859,43.483c0,0-0.355-1.213-0.711-1.213c-0.355,0-0.606,1.213-0.606,1.213s-1.213,0.355-1.213,0.711
		c0,0.355,1.213,0.606,1.213,0.606s0.355,1.213,0.711,1.213c0.355,0,0.606-1.213,0.606-1.213s1.213-0.355,1.213-0.711
		S31.859,43.483,31.859,43.483z"/>
	<path class="st2" d="M14.773,12.219c0,0,0.355,1.213,0.711,1.213s0.606-1.213,0.606-1.213s1.213-0.355,1.213-0.711
		c0-0.355-1.213-0.606-1.213-0.606s-0.355-1.213-0.711-1.213s-0.606,1.213-0.606,1.213s-1.213,0.355-1.213,0.711
		C13.56,11.968,14.773,12.219,14.773,12.219z"/>
	<circle class="st2" cx="36.783" cy="37.602" r="0.873"/>
	<circle class="st2" cx="7.968" cy="36.202" r="0.873"/>
	<circle class="st2" cx="16.304" cy="38.475" r="0.873"/>
</g>
</svg>
