<?xml version="1.0" encoding="utf-8"?>
<!-- Generator: Adobe Illustrator 23.0.4, SVG Export Plug-In . SVG Version: 6.00 Build 0)  -->
<svg version="1.1" id="Layer_1" xmlns="http://www.w3.org/2000/svg" xmlns:xlink="http://www.w3.org/1999/xlink" x="0px" y="0px"
	 viewBox="0 0 50 50" style="enable-background:new 0 0 50 50;" xml:space="preserve">
<style type="text/css">
	.st0{display:none;}
	.st1{display:inline;}
	.st2{fill:#FFFFFF;}
</style>
<g id="_x34_2FiKe_1_" class="st0">
	<g class="st1">
		<path d="M7.229,7.897c0.43,0,0.766,0,1.102,0c7.634,0,15.268,0.009,22.902-0.016c0.704-0.002,1.197,0.202,1.688,0.696
			c1.459,1.467,2.981,2.871,4.444,4.335c0.256,0.256,0.484,0.682,0.485,1.03c0.024,11.095,0.018,22.19,0.013,33.285
			c0,0.129-0.041,0.257-0.073,0.44c-10.188,0-20.345,0-30.56,0C7.229,34.415,7.229,21.229,7.229,7.897z M9.96,10.613
			c0,11.492,0,22.907,0,34.349c8.425,0,16.786,0,25.161,0c0-10.078,0-20.097,0-30.169c-1.161,0-2.247-0.043-3.328,0.014
			c-0.78,0.041-1.106-0.172-1.048-1.012c0.072-1.038,0.017-2.085,0.017-3.183C23.789,10.613,16.917,10.613,9.96,10.613z"/>
		<path d="M43.036,41.57c-1.245,0-2.451,0-3.726,0c0-0.854,0-1.682,0-2.568c0.322-0.054,0.641-0.108,1.002-0.169
			c0-10.032,0-20.025,0-30.124c-1.426,0-2.8,0-4.278,0c0-1.441,0-2.78,0-4.19c-7.036,0-13.967,0-20.962,0
			c-0.027,0.624-0.053,1.218-0.082,1.865c-0.864,0-1.663,0-2.537,0c0-1.497,0-2.97,0-4.592c0.345,0,0.703,0,1.06,0
			c7.635,0,15.27,0.009,22.905-0.015c0.703-0.002,1.204,0.2,1.694,0.695c1.456,1.471,2.977,2.878,4.425,4.355
			c0.293,0.299,0.538,0.8,0.539,1.209c0.029,10.927,0.023,21.853,0.021,32.78C43.095,41.047,43.06,41.277,43.036,41.57z"/>
		<path d="M22.158,40.501c-2.578,0-5.156-0.006-7.735,0.004c-0.754,0.003-1.401-0.151-1.422-1.054
			c-0.022-0.968,0.668-1.143,1.452-1.144c5.19-0.001,10.381,0.002,15.571-0.002c0.76-0.001,1.42,0.212,1.435,1.074
			c0.016,0.924-0.649,1.135-1.465,1.129C27.382,40.489,24.77,40.501,22.158,40.501z"/>
		<path d="M22.503,28.51c2.576,0,5.153,0.005,7.729-0.003c0.772-0.003,1.467,0.086,1.52,1.066c0.042,0.775-0.452,1.132-1.564,1.134
			c-5.119,0.005-10.237-0.001-15.356,0.006c-0.784,0.001-1.458-0.144-1.535-1.082c-0.061-0.75,0.479-1.117,1.578-1.119
			C17.418,28.507,19.96,28.51,22.503,28.51z"/>
		<path d="M22.506,20.949c-2.61,0-5.22-0.014-7.83,0.009c-0.802,0.007-1.374-0.248-1.371-1.106c0.003-0.81,0.599-1.081,1.322-1.082
			c5.288-0.005,10.576-0.008,15.864,0.005c0.719,0.002,1.279,0.289,1.258,1.13c-0.021,0.842-0.568,1.053-1.31,1.049
			C27.794,20.942,25.15,20.949,22.506,20.949z"/>
		<path d="M22.56,26.026c-2.542,0-5.085-0.007-7.627,0.004c-0.801,0.004-1.549-0.062-1.634-1.076
			c-0.063-0.748,0.484-1.124,1.579-1.125c5.119-0.004,10.237,0.001,15.356-0.004c0.772-0.001,1.497,0.102,1.511,1.075
			c0.015,1.043-0.75,1.131-1.557,1.129C27.644,26.022,25.102,26.026,22.56,26.026z"/>
		<path d="M22.508,33.59c2.609,0,5.218,0.01,7.827-0.006c0.756-0.004,1.391,0.115,1.412,1.04c0.02,0.915-0.623,1.129-1.362,1.13
			c-5.218,0.01-10.436,0.007-15.654,0.004c-0.744,0-1.417-0.205-1.423-1.084c-0.007-0.944,0.666-1.101,1.475-1.093
			C17.358,33.606,19.933,33.59,22.508,33.59z"/>
	</g>
</g>
<g>
	<path class="st2" d="M43.054,23.728l-5.636-4.054v-1.312c0-1.532-1.246-2.777-2.777-2.777h-2.907l-5.75-4.136
		c-0.318-0.229-0.746-0.233-1.069-0.009l-5.971,4.145h-2.7c-1.532,0-2.777,1.246-2.777,2.777v1.025l-6.238,4.332
		c-0.249,0.173-0.397,0.457-0.397,0.76v19.667c0,1.532,1.246,2.777,2.777,2.777h31.053c1.532,0,2.777-1.246,2.777-2.777V24.48
		C43.438,24.182,43.294,23.902,43.054,23.728z M37.418,21.955l3.503,2.52l-3.503,2.49V21.955z M25.432,13.334l3.128,2.251H22.19
		L25.432,13.334z M15.318,18.362c0-0.51,0.416-0.926,0.926-0.926H34.64c0.51,0,0.926,0.416,0.926,0.926v9.919l-6.778,4.817
		c-0.002,0.001-0.003,0.002-0.006,0.003l-3.648,2.593l-9.816-6.976C15.318,28.718,15.318,18.362,15.318,18.362z M13.467,21.642v5.76
		l-4.1-2.914L13.467,21.642z M41.586,44.147c0,0.51-0.416,0.926-0.926,0.926H9.608c-0.51,0-0.926-0.416-0.926-0.926V26.274
		l10.741,7.633l-5.651,5.111c-0.379,0.343-0.409,0.928-0.066,1.307c0.183,0.202,0.434,0.305,0.686,0.305
		c0.221,0,0.443-0.079,0.621-0.24l5.954-5.385l3.63,2.58c0.16,0.114,0.348,0.172,0.537,0.172c0.189,0,0.375-0.056,0.537-0.172
		l3.591-2.552l5.924,5.358c0.177,0.16,0.4,0.24,0.621,0.24c0.252,0,0.504-0.103,0.686-0.305c0.343-0.379,0.313-0.965-0.066-1.307
		l-5.621-5.083l10.779-7.661v17.873H41.586z"/>
	<path class="st2" d="M19.234,21.268H32.57c0.511,0,0.926-0.415,0.926-0.926c0-0.511-0.415-0.926-0.926-0.926H19.234
		c-0.511,0-0.926,0.415-0.926,0.926C18.308,20.853,18.723,21.268,19.234,21.268z"/>
	<path class="st2" d="M31.728,24.173c0-0.511-0.415-0.926-0.926-0.926H19.234c-0.511,0-0.926,0.415-0.926,0.926
		s0.415,0.926,0.926,0.926h11.568C31.313,25.099,31.728,24.684,31.728,24.173z"/>
	<path class="st2" d="M10.658,18.166c0.437,0,0.789-0.354,0.789-0.789V8.461c0-0.435-0.354-0.789-0.789-0.789
		S9.869,8.026,9.869,8.461v8.915C9.869,17.812,10.221,18.166,10.658,18.166z"/>
	<path class="st2" d="M39.513,13.616c0.335,0,0.607-0.272,0.607-0.607V7.735c0-0.335-0.272-0.607-0.607-0.607
		s-0.607,0.272-0.607,0.607v5.275C38.906,13.345,39.178,13.616,39.513,13.616z"/>
	<path class="st2" d="M21.486,11.342c0.567,0,1.025-0.46,1.025-1.025V3.475c0-0.567-0.46-1.025-1.025-1.025
		c-0.567,0-1.025,0.46-1.025,1.025v6.841C20.461,10.883,20.921,11.342,21.486,11.342z"/>
</g>
</svg>
