<?xml version="1.0" encoding="utf-8"?>
<!-- Generator: Adobe Illustrator 22.1.0, SVG Export Plug-In . SVG Version: 6.00 Build 0)  -->
<svg version="1.1" id="Layer_1" xmlns="http://www.w3.org/2000/svg" xmlns:xlink="http://www.w3.org/1999/xlink" x="0px" y="0px"
	 viewBox="0 0 50 50" style="enable-background:new 0 0 50 50;" xml:space="preserve">
<style type="text/css">
	.st0{fill:#00B4E3;}
</style>
<g>
	<path class="st0" d="M41.196,36.571c-0.529-0.529-1.387-0.529-1.915,0l-9.576,9.576l-9.576-9.576c-0.529-0.529-1.387-0.529-1.915,0
		c-0.529,0.529-0.529,1.386,0,1.915L28.748,49.02c0.254,0.254,0.599,0.397,0.958,0.397c0.359,0,0.704-0.143,0.958-0.397
		l10.534-10.534C41.725,37.957,41.725,37.1,41.196,36.571z"/>
</g>
<g>
	<path class="st0" d="M18.214,13.346c0.529,0.529,1.387,0.529,1.915,0l9.576-9.576l9.576,9.576c0.529,0.529,1.387,0.529,1.915,0
		c0.529-0.529,0.529-1.386,0-1.915L30.663,0.897C30.409,0.643,30.064,0.5,29.705,0.5c-0.359,0-0.704,0.143-0.958,0.397
		L18.214,11.431C17.685,11.96,17.685,12.817,18.214,13.346z"/>
</g>
<g>
	<path class="st0" d="M47.8,26.074l-36.175-0.162c-0.839,0.055-1.58,0.699-1.584,1.569c-0.005,0.871,0.698,1.58,1.569,1.584
		l36.175,0.162c0.002,0,0.005,0,0.008,0c0.868,0,1.572-0.701,1.577-1.569C49.374,26.787,48.671,26.078,47.8,26.074z"/>
	<path class="st0" d="M11.61,23.843l36.175,0.162c0.002,0,0.005,0,0.008,0c0.868,0,1.572-0.701,1.577-1.569
		c0.005-0.871-0.698-1.58-1.569-1.584L11.626,20.69c-0.839,0.059-1.58,0.699-1.584,1.569C10.037,23.13,10.739,23.838,11.61,23.843z"
		/>
</g>
</svg>
