<?xml version="1.0" encoding="utf-8"?>
<!-- Generator: Adobe Illustrator 22.1.0, SVG Export Plug-In . SVG Version: 6.00 Build 0)  -->
<svg version="1.1" id="Layer_1" xmlns="http://www.w3.org/2000/svg" xmlns:xlink="http://www.w3.org/1999/xlink" x="0px" y="0px"
	 viewBox="0 0 12 12" style="enable-background:new 0 0 12 12;" xml:space="preserve">
<style type="text/css">
	.st0{fill:#FFFFFF;}
	.st1{fill:#323E48;}
</style>
<circle class="st0" cx="5.998" cy="5.998" r="5.905"/>
<g id="FaqzY4_1_">
	<g>
		<path class="st1" d="M5.604,2.165c1.927,0.386,2.912,2.564,1.934,4.271C7.495,6.513,7.502,6.552,7.563,6.612
			c0.606,0.601,1.209,1.205,1.812,1.81c0.239,0.241,0.269,0.594,0.077,0.86c-0.244,0.336-0.708,0.37-1.008,0.071
			C7.835,8.746,7.226,8.138,6.62,7.528C6.568,7.475,6.535,7.475,6.471,7.51C5.84,7.874,5.164,7.985,4.45,7.843
			C2.882,7.529,1.869,5.997,2.183,4.426c0.267-1.342,1.464-2.319,2.841-2.334C5.217,2.117,5.415,2.127,5.604,2.165z M2.959,5.007
			c0.001,1.144,0.924,2.064,2.07,2.063c1.142-0.001,2.062-0.928,2.06-2.072c-0.002-1.142-0.925-2.061-2.066-2.06
			C3.879,2.941,2.958,3.862,2.959,5.007z"/>
	</g>
</g>
<path class="st0" d="M10.248-6.119"/>
</svg>
