<?xml version="1.0" encoding="utf-8"?>
<!-- Generator: Adobe Illustrator 22.1.0, SVG Export Plug-In . SVG Version: 6.00 Build 0)  -->
<svg version="1.1" id="Layer_1" xmlns="http://www.w3.org/2000/svg" xmlns:xlink="http://www.w3.org/1999/xlink" x="0px" y="0px"
	 viewBox="0 0 15 18" style="enable-background:new 0 0 15 18;" xml:space="preserve">
<style type="text/css">
	.st0{fill:#FFFFFF;}
	.st1{fill:#323E48;}
</style>
<circle class="st0" cx="7.44" cy="10.406" r="7.285"/>
<path class="st1" d="M10.983,9.924c-0.367-0.036-0.62-0.252-0.742-0.598c-0.118-0.338-0.047-0.651,0.192-0.922
	c0.175-0.198,0.184-0.255,0.006-0.453c-0.167-0.186-0.35-0.359-0.531-0.532C9.78,7.298,9.652,7.306,9.521,7.429
	C9.225,7.704,8.875,7.783,8.503,7.624C8.138,7.469,7.949,7.167,7.956,6.768C7.961,6.521,7.781,6.513,7.62,6.466
	c-0.221,0-0.441,0-0.662,0C6.925,6.476,6.893,6.493,6.858,6.495C6.703,6.508,6.63,6.588,6.624,6.743
	c-0.015,0.4-0.19,0.708-0.57,0.862C5.677,7.758,5.336,7.67,5.043,7.393C4.926,7.28,4.803,7.272,4.688,7.38
	c-0.21,0.195-0.414,0.396-0.611,0.603C3.968,8.097,3.978,8.224,4.092,8.342c0.281,0.291,0.372,0.632,0.213,1.009
	c-0.158,0.376-0.47,0.556-0.868,0.563c-0.245,0.004-0.254,0.177-0.299,0.337c0,0.221,0,0.441,0,0.662
	c0.019,0.252,0.159,0.34,0.406,0.358c0.368,0.026,0.624,0.243,0.751,0.586c0.13,0.351,0.057,0.672-0.197,0.951
	c-0.155,0.175-0.167,0.245-0.018,0.413c0.174,0.195,0.364,0.379,0.555,0.56c0.126,0.12,0.254,0.119,0.387-0.007
	c0.294-0.278,0.645-0.356,1.016-0.198c0.365,0.154,0.549,0.454,0.552,0.856c0.001,0.168,0.069,0.265,0.246,0.274
	c0.041,0,0.081,0.019,0.122,0.029c0.221,0,0.441,0,0.662,0c0.223-0.034,0.297-0.157,0.312-0.386c0.024-0.37,0.237-0.64,0.589-0.77
	c0.352-0.13,0.673-0.042,0.952,0.202c0.168,0.147,0.247,0.161,0.41,0.015c0.195-0.175,0.381-0.36,0.56-0.553
	c0.137-0.148,0.127-0.251-0.008-0.399c-0.273-0.299-0.356-0.642-0.191-1.015c0.161-0.363,0.46-0.545,0.858-0.549
	c0.172-0.001,0.264-0.074,0.273-0.248c0.002-0.041,0.019-0.08,0.029-0.121c0-0.208,0-0.417,0-0.625
	C11.396,10.016,11.228,9.947,10.983,9.924z M9.311,11.82c-0.205-0.206-0.406-0.409-0.607-0.61c-0.026-0.027-0.049-0.057-0.078-0.078
	c-0.261-0.192-0.332-0.407-0.264-0.753c0.192-0.965-0.815-1.848-1.769-1.592C6.414,8.834,6.377,8.96,6.509,9.099
	c0.178,0.186,0.354,0.374,0.546,0.545c0.118,0.105,0.14,0.218,0.111,0.359c-0.081,0.404,0.032,0.371-0.449,0.443
	c-0.162,0.025-0.264-0.016-0.368-0.131C6.192,10.143,6.025,9.98,5.854,9.822c-0.059-0.053-0.161-0.124-0.21-0.104
	C5.578,9.747,5.518,9.847,5.501,9.924c-0.197,0.909,0.545,1.779,1.476,1.737c0.109-0.005,0.224-0.011,0.325-0.048
	c0.153-0.058,0.252-0.021,0.363,0.097c0.285,0.301,0.585,0.59,0.89,0.895c-1.001,0.66-2.368,0.434-3.135-0.5
	c-0.771-0.939-0.698-2.322,0.167-3.192C6.442,8.056,7.841,7.98,8.766,8.741C9.694,9.504,9.942,10.858,9.311,11.82z"/>
</svg>
