<?xml version="1.0" encoding="utf-8"?>
<!-- Generator: Adobe Illustrator 22.1.0, SVG Export Plug-In . SVG Version: 6.00 Build 0)  -->
<svg version="1.1" id="Layer_1" xmlns="http://www.w3.org/2000/svg" xmlns:xlink="http://www.w3.org/1999/xlink" x="0px" y="0px"
	 viewBox="0 0 200 25" style="enable-background:new 0 0 200 25;" xml:space="preserve">
<style type="text/css">
	.st0{fill:#323E48;}
</style>
<g>
	<polygon class="st0" points="7.842,5.709 0.438,5.374 0.723,6.871 3.032,6.621 2.821,18.714 3.75,18.927 5.025,6.527 7.537,6.412 	
		"/>
	<path class="st0" d="M11.457,16.578c-0.107,0.015-0.216,0.012-0.321,0.026c-1.315,0.07-2.904-0.315-3.34-3.323l5.418-0.366
		c-0.046-0.509-0.068-0.765-0.138-1.17C12.724,9.731,11.802,8.042,9.5,8.195C9.415,8.209,9.306,8.203,9.22,8.214
		c-2.27,0.329-3.109,2.749-2.631,5.515c0.381,2.205,1.745,4.664,5.033,4.19c0.784-0.112,1.571-0.345,1.98-0.623l-0.655-1.272
		C12.618,16.253,12.136,16.478,11.457,16.578z M9.262,9.202c1.104-0.159,1.931,0.85,2.237,2.61l-3.644,0.427
		C7.71,10.892,8.011,9.384,9.262,9.202z"/>
	<path class="st0" d="M21.024,9.978L20.982,9.97c-0.405-1.049-1.194-1.521-2-1.637c-1.675-0.242-3.647,1.1-4.175,4.136
		c-0.414,2.378-0.119,5.316,2.574,5.707c1.146,0.165,2.161-0.423,2.6-1.071l0.064,0.008l-0.623,4.828l1.16-0.169l1.822-9.869
		l0.493-2.843l-1.855-0.844L21.024,9.978z M20.592,12.354l-0.271,2.32c-0.201,1.774-1.439,2.271-2.159,2.167
		c-1.868-0.27-1.997-2.787-1.72-4.372c0.315-1.818,1.221-3.155,2.601-2.956C20.165,9.676,20.773,10.933,20.592,12.354z"/>
	<path class="st0" d="M25.29,5.272c-0.157-0.094-0.325-0.141-0.506-0.141c-0.182,0-0.351,0.047-0.506,0.141
		C24.121,5.366,24,5.493,23.91,5.658c-0.088,0.163-0.132,0.339-0.132,0.531c0,0.189,0.044,0.363,0.127,0.525
		c0.087,0.161,0.206,0.293,0.364,0.39c0.157,0.098,0.329,0.146,0.514,0.146s0.356-0.049,0.514-0.146
		c0.157-0.098,0.278-0.227,0.364-0.39s0.131-0.338,0.131-0.525c0-0.193-0.044-0.368-0.132-0.531
		C25.567,5.493,25.445,5.364,25.29,5.272z M25.547,6.658c-0.076,0.146-0.185,0.261-0.323,0.345
		c-0.138,0.083-0.285,0.125-0.442,0.125s-0.305-0.041-0.44-0.124c-0.138-0.085-0.245-0.201-0.325-0.345
		c-0.078-0.145-0.119-0.302-0.119-0.473c0-0.167,0.039-0.325,0.117-0.468c0.076-0.145,0.185-0.259,0.323-0.341
		c0.138-0.083,0.285-0.125,0.444-0.125c0.161,0,0.31,0.042,0.448,0.127c0.138,0.087,0.244,0.201,0.321,0.343
		c0.076,0.143,0.116,0.297,0.116,0.463C25.665,6.354,25.624,6.512,25.547,6.658z"/>
	<path class="st0" d="M25.192,6.508c0-0.072-0.013-0.133-0.039-0.185c-0.026-0.053-0.073-0.088-0.141-0.114
		c0.133-0.06,0.201-0.155,0.201-0.278c0-0.119-0.036-0.206-0.111-0.264C25.025,5.609,24.919,5.58,24.78,5.58h-0.366v1.188h0.138
		V6.276h0.264c0.085,0,0.145,0.018,0.181,0.054s0.054,0.094,0.054,0.179c0,0.138,0.008,0.225,0.019,0.259h0.145V6.745
		c-0.008-0.021-0.015-0.049-0.018-0.081C25.194,6.631,25.192,6.579,25.192,6.508z M24.809,6.148h-0.255V5.706h0.245
		c0.099,0.002,0.17,0.019,0.211,0.054s0.062,0.091,0.062,0.17c0,0.064-0.026,0.119-0.075,0.158
		C24.95,6.129,24.887,6.148,24.809,6.148z"/>
	<rect x="34.67" y="8.24" class="st0" width="2.052" height="9.969"/>
	<path class="st0" d="M42.16,10.666c-0.889,0-1.599,0.33-2.131,0.992l-0.062-0.857v0.002h-1.863v7.409h1.978v-5.238
		c0.278-0.475,0.696-0.715,1.254-0.715c0.424,0,0.729,0.094,0.912,0.285c0.182,0.191,0.273,0.496,0.273,0.917v4.748H44.5v-4.786
		c-0.01-0.917-0.204-1.607-0.589-2.069C43.529,10.895,42.945,10.666,42.16,10.666z"/>
	<path class="st0" d="M48.178,16.54c-0.106-0.119-0.158-0.315-0.158-0.589v-3.698h1.266V10.8H48.02V8.98h-1.978v1.821h-1.081v1.452
		h1.081v3.991c0.026,1.401,0.734,2.103,2.121,2.103c0.412,0,0.81-0.058,1.198-0.179v-1.5c-0.169,0.032-0.363,0.047-0.582,0.047
		C48.483,16.719,48.282,16.659,48.178,16.54z"/>
	<path class="st0" d="M51.962,11.686l-0.054-0.882h-1.87v7.409h1.978v-4.849c0.232-0.506,0.724-0.759,1.473-0.759
		c0.204,0,0.441,0.018,0.71,0.054l0.026-1.904c-0.193-0.058-0.397-0.088-0.614-0.088C52.91,10.666,52.36,11.006,51.962,11.686z"/>
	<path class="st0" d="M60.594,13.288c0-0.831-0.268-1.475-0.805-1.934c-0.536-0.458-1.26-0.688-2.174-0.688
		c-0.603,0-1.146,0.104-1.631,0.31c-0.484,0.206-0.857,0.496-1.122,0.858c-0.264,0.364-0.397,0.761-0.397,1.192h1.978
		c0-0.278,0.094-0.497,0.283-0.657c0.191-0.159,0.451-0.24,0.784-0.24c0.379,0,0.657,0.102,0.833,0.307
		c0.176,0.204,0.264,0.48,0.264,0.821v0.424h-0.912c-1.1,0.004-1.94,0.216-2.523,0.637c-0.584,0.421-0.873,1.024-0.873,1.808
		c0,0.638,0.239,1.169,0.715,1.589c0.476,0.42,1.076,0.631,1.804,0.631c0.767,0,1.39-0.266,1.87-0.801
		c0.041,0.264,0.107,0.486,0.199,0.665l0,0h2v-0.117c-0.193-0.361-0.289-0.893-0.295-1.597
		C60.594,16.499,60.594,13.288,60.594,13.288z M58.611,16.114c-0.119,0.219-0.302,0.393-0.548,0.525
		c-0.245,0.131-0.516,0.195-0.809,0.195c-0.301,0-0.538-0.081-0.712-0.24c-0.172-0.159-0.261-0.363-0.261-0.61l0.008-0.117
		c0.064-0.684,0.592-1.026,1.581-1.026h0.74V16.114L58.611,16.114C58.611,16.113,58.611,16.114,58.611,16.114z"/>
	<path class="st0" d="M65.779,10.666c-0.889,0-1.599,0.33-2.131,0.992l-0.062-0.857v0.002h-1.863v7.409h1.978v-5.238
		c0.278-0.475,0.696-0.715,1.254-0.715c0.424,0,0.729,0.094,0.912,0.285c0.182,0.191,0.273,0.496,0.273,0.917v4.748h1.978v-4.786
		c-0.01-0.917-0.206-1.607-0.589-2.069C67.147,10.894,66.564,10.666,65.779,10.666z"/>
	<path class="st0" d="M72.459,10.666c-0.674,0-1.278,0.159-1.804,0.475c-0.527,0.317-0.935,0.769-1.221,1.356
		c-0.289,0.587-0.431,1.252-0.431,1.997v0.193c0,1.109,0.341,1.997,1.024,2.663c0.682,0.667,1.57,0.999,2.653,0.999
		c0.614,0,1.178-0.119,1.683-0.353c0.509-0.234,0.907-0.562,1.204-0.984l-0.974-1.088c-0.429,0.553-1.024,0.829-1.786,0.829
		c-0.491,0-0.901-0.146-1.221-0.439c-0.321-0.293-0.514-0.681-0.578-1.164h4.718v-0.809c0-1.172-0.291-2.079-0.873-2.719
		C74.271,10.985,73.473,10.666,72.459,10.666z M73.779,13.801h-2.751c0.07-0.496,0.225-0.877,0.468-1.143
		c0.244-0.266,0.562-0.4,0.955-0.4c0.417,0,0.742,0.121,0.972,0.363c0.228,0.24,0.346,0.582,0.356,1.022L73.779,13.801
		L73.779,13.801z"/>
	<path class="st0" d="M79.627,16.719c-0.296,0-0.497-0.058-0.603-0.179c-0.106-0.119-0.158-0.315-0.158-0.589v-3.698h1.266V10.8
		h-1.266V8.98h-1.979v1.821h-1.081v1.452h1.081v3.991c0.026,1.401,0.734,2.103,2.121,2.103c0.412,0,0.81-0.058,1.198-0.179v-1.5
		C80.043,16.702,79.848,16.719,79.627,16.719z"/>
	<rect x="29.684" y="1.019" class="st0" width="0.351" height="23.523"/>
</g>
</svg>
