<?xml version="1.0" encoding="utf-8"?>
<!-- Generator: Adobe Illustrator 22.1.0, SVG Export Plug-In . SVG Version: 6.00 Build 0)  -->
<svg version="1.1" id="Layer_1" xmlns="http://www.w3.org/2000/svg" xmlns:xlink="http://www.w3.org/1999/xlink" x="0px" y="0px"
	 viewBox="0 0 75 30" style="enable-background:new 0 0 75 30;" xml:space="preserve">
<style type="text/css">
	.st0{fill:#FFFFFF;}
</style>
<g>
	<polygon class="st0" points="11.622,9.357 5.749,9.091 5.976,10.279 7.807,10.081 7.64,19.672 8.376,19.84 9.388,10.005 
		11.38,9.915 	"/>
	<path class="st0" d="M14.489,17.977c-0.085,0.012-0.172,0.009-0.255,0.021c-1.043,0.056-2.303-0.25-2.649-2.636l4.296-0.29
		c-0.036-0.404-0.054-0.606-0.109-0.928c-0.278-1.596-1.01-2.936-2.835-2.815c-0.067,0.01-0.154,0.006-0.222,0.016
		c-1.8,0.26-2.466,2.18-2.086,4.374c0.303,1.749,1.384,3.7,3.992,3.323c0.622-0.089,1.246-0.274,1.57-0.494l-0.52-1.009
		C15.41,17.719,15.028,17.899,14.489,17.977z M12.748,12.127c0.876-0.127,1.531,0.674,1.774,2.071l-2.89,0.339
		C11.516,13.468,11.755,12.271,12.748,12.127z"/>
	<path class="st0" d="M22.077,12.743l-0.033-0.006c-0.321-0.832-0.946-1.206-1.586-1.298c-1.329-0.192-2.893,0.872-3.311,3.28
		c-0.328,1.887-0.094,4.217,2.042,4.526c0.909,0.13,1.714-0.335,2.062-0.85l0.051,0.007l-0.493,3.829l0.92-0.134l1.446-7.827
		l0.391-2.255l-1.471-0.669L22.077,12.743z M21.734,14.627l-0.215,1.84c-0.158,1.407-1.141,1.801-1.713,1.719
		c-1.481-0.214-1.583-2.21-1.364-3.468c0.25-1.442,0.969-2.502,2.063-2.344C21.396,12.503,21.878,13.5,21.734,14.627z"/>
	<path class="st0" d="M25.46,9.01c-0.124-0.075-0.258-0.112-0.401-0.112c-0.144,0-0.278,0.038-0.401,0.112
		c-0.124,0.075-0.221,0.176-0.291,0.307c-0.07,0.129-0.105,0.27-0.105,0.422c0,0.149,0.035,0.288,0.101,0.417
		c0.068,0.128,0.164,0.232,0.289,0.309c0.124,0.078,0.26,0.116,0.407,0.116c0.147,0,0.283-0.039,0.407-0.116
		c0.124-0.078,0.22-0.181,0.289-0.309c0.068-0.129,0.103-0.268,0.103-0.417c0-0.152-0.035-0.291-0.105-0.422
		C25.681,9.186,25.584,9.083,25.46,9.01z M25.665,10.11c-0.061,0.116-0.147,0.206-0.257,0.273c-0.109,0.066-0.226,0.099-0.351,0.099
		s-0.242-0.033-0.35-0.099c-0.109-0.067-0.195-0.158-0.258-0.273c-0.062-0.115-0.094-0.24-0.094-0.375
		c0-0.133,0.031-0.258,0.093-0.371c0.061-0.115,0.147-0.205,0.257-0.271s0.226-0.099,0.352-0.099c0.128,0,0.246,0.033,0.355,0.101
		c0.109,0.068,0.194,0.158,0.254,0.272s0.091,0.236,0.091,0.368C25.758,9.869,25.726,9.994,25.665,10.11z"/>
	<path class="st0" d="M25.383,9.991c0-0.057-0.01-0.106-0.031-0.147c-0.02-0.041-0.058-0.07-0.112-0.09
		c0.106-0.048,0.158-0.122,0.158-0.221c0-0.094-0.029-0.164-0.088-0.21c-0.059-0.047-0.144-0.069-0.254-0.069h-0.29v0.942h0.11
		V9.807h0.21c0.067,0,0.115,0.014,0.143,0.042s0.042,0.075,0.042,0.142c0,0.109,0.006,0.178,0.016,0.205h0.115v-0.018
		c-0.007-0.017-0.011-0.039-0.014-0.065C25.384,10.088,25.383,10.047,25.383,9.991z M25.078,9.705h-0.203V9.354h0.195
		c0.079,0.001,0.136,0.016,0.168,0.043s0.049,0.072,0.049,0.136c0,0.051-0.02,0.094-0.059,0.125
		C25.19,9.69,25.14,9.705,25.078,9.705z"/>
	<rect x="32.901" y="11.365" class="st0" width="1.628" height="7.907"/>
	<path class="st0" d="M38.841,13.288c-0.706,0-1.269,0.262-1.69,0.787l-0.049-0.679v0.001h-1.478v5.876h1.569V15.12
		c0.221-0.377,0.552-0.567,0.994-0.567c0.337,0,0.578,0.075,0.723,0.226s0.217,0.393,0.217,0.727v3.766h1.569v-3.796
		c-0.008-0.727-0.163-1.275-0.467-1.641C39.927,13.471,39.463,13.288,38.841,13.288z"/>
	<path class="st0" d="M43.613,17.947c-0.084-0.094-0.125-0.25-0.125-0.467v-2.933h1.005v-1.151h-1.005v-1.444h-1.569v1.444h-0.858
		v1.151h0.858v3.166c0.021,1.112,0.583,1.667,1.683,1.667c0.326,0,0.642-0.047,0.95-0.142v-1.19
		c-0.134,0.026-0.288,0.038-0.462,0.038C43.856,18.089,43.696,18.042,43.613,17.947z"/>
	<path class="st0" d="M46.616,14.097l-0.043-0.7H45.09v5.876h1.569v-3.845c0.185-0.401,0.574-0.602,1.168-0.602
		c0.163,0,0.35,0.014,0.564,0.043l0.021-1.51c-0.152-0.047-0.315-0.07-0.488-0.07C47.367,13.288,46.931,13.558,46.616,14.097z"/>
	<path class="st0" d="M53.462,15.368c0-0.659-0.213-1.17-0.638-1.535c-0.425-0.364-1-0.546-1.724-0.546
		c-0.478,0-0.909,0.083-1.293,0.246c-0.384,0.164-0.68,0.393-0.89,0.681c-0.21,0.289-0.315,0.604-0.315,0.945h1.569
		c0-0.221,0.075-0.395,0.225-0.521c0.151-0.126,0.358-0.191,0.622-0.191c0.3,0,0.521,0.081,0.66,0.244s0.21,0.38,0.21,0.651v0.337
		h-0.723c-0.872,0.003-1.539,0.172-2.001,0.505c-0.462,0.333-0.693,0.812-0.693,1.434c0,0.507,0.19,0.927,0.568,1.26
		c0.378,0.333,0.854,0.5,1.431,0.5c0.609,0,1.103-0.211,1.483-0.636c0.032,0.21,0.085,0.386,0.157,0.528l0,0h1.586v-0.093
		c-0.152-0.286-0.23-0.708-0.233-1.266C53.462,17.915,53.462,15.368,53.462,15.368z M51.888,17.61
		c-0.094,0.174-0.24,0.312-0.435,0.416c-0.195,0.103-0.409,0.155-0.641,0.155c-0.239,0-0.427-0.064-0.565-0.191
		c-0.137-0.127-0.206-0.288-0.206-0.483l0.006-0.093c0.05-0.543,0.47-0.814,1.255-0.814h0.587v1.009h-0.001V17.61z"/>
	<path class="st0" d="M57.574,13.288c-0.706,0-1.269,0.262-1.69,0.787l-0.049-0.679v0.001h-1.478v5.876h1.569V15.12
		c0.221-0.377,0.552-0.567,0.994-0.567c0.337,0,0.578,0.075,0.723,0.226s0.217,0.393,0.217,0.727v3.766h1.569v-3.796
		c-0.008-0.727-0.164-1.275-0.467-1.641S58.196,13.288,57.574,13.288z"/>
	<path class="st0" d="M62.872,13.288c-0.535,0-1.013,0.126-1.431,0.377c-0.418,0.252-0.742,0.61-0.969,1.075
		c-0.229,0.465-0.342,0.993-0.342,1.583v0.152c0,0.88,0.271,1.584,0.812,2.112c0.542,0.529,1.244,0.793,2.104,0.793
		c0.488,0,0.935-0.094,1.335-0.28c0.403-0.186,0.72-0.446,0.956-0.78l-0.772-0.863c-0.34,0.438-0.813,0.658-1.417,0.658
		c-0.39,0-0.714-0.116-0.969-0.348c-0.255-0.232-0.408-0.54-0.458-0.923h3.742v-0.641c0-0.93-0.231-1.649-0.693-2.156
		C64.309,13.541,63.676,13.288,62.872,13.288z M63.92,15.775h-2.183c0.055-0.393,0.178-0.695,0.372-0.906
		c0.193-0.211,0.446-0.317,0.757-0.317c0.332,0,0.589,0.096,0.771,0.287c0.182,0.191,0.275,0.461,0.282,0.81L63.92,15.775
		L63.92,15.775z"/>
	<path class="st0" d="M68.558,18.089c-0.235,0-0.395-0.047-0.478-0.142c-0.084-0.094-0.125-0.25-0.125-0.467v-2.933h1.005v-1.151
		h-1.005v-1.444h-1.569v1.444h-0.858v1.151h0.858v3.166c0.021,1.112,0.583,1.667,1.683,1.667c0.326,0,0.642-0.047,0.95-0.142v-1.19
		C68.886,18.077,68.732,18.089,68.558,18.089z"/>
	<rect x="28.945" y="5.637" class="st0" width="0.279" height="18.656"/>
</g>
</svg>
