<?xml version="1.0" encoding="utf-8"?>
<!-- Generator: Adobe Illustrator 22.1.0, SVG Export Plug-In . SVG Version: 6.00 Build 0)  -->
<svg version="1.1" id="Layer_1" xmlns="http://www.w3.org/2000/svg" xmlns:xlink="http://www.w3.org/1999/xlink" x="0px" y="0px"
	 viewBox="0 0 21 20" style="enable-background:new 0 0 21 20;" xml:space="preserve">
<style type="text/css">
	.st0{fill:#00B2E3;}
	.st1{fill:#2374BA;}
	.st2{fill:#FFFFFF;}
</style>
<g>
	<g>
		<g>
			<rect x="0.143" y="2.458" class="st0" width="16.582" height="13.072"/>
			<polygon class="st1" points="16.725,2.458 16.725,15.531 0.143,15.531 3.16,17.542 19.752,17.542 19.752,5.475 			"/>
			<polygon class="st2" points="2.899,12.676 3.032,5.039 1.574,5.196 1.392,4.25 6.07,4.462 5.877,4.906 4.291,4.978 3.485,12.81 
							"/>
			<g>
				<path class="st2" d="M9.709,11.782c-0.258,0.175-0.754,0.322-1.25,0.393c-2.077,0.3-2.937-1.254-3.179-2.647
					C4.977,7.781,5.507,6.252,6.941,6.045C6.995,6.037,7.064,6.04,7.117,6.032C8.57,5.935,9.154,7.003,9.375,8.273
					C9.419,8.53,9.433,8.691,9.462,9.012L6.041,9.243c0.275,1.901,1.279,2.145,2.109,2.1c0.067-0.01,0.136-0.007,0.203-0.017
					c0.429-0.062,0.733-0.206,0.942-0.349L9.709,11.782z M8.379,8.317c-0.193-1.112-0.716-1.75-1.413-1.649
					C6.176,6.782,5.985,7.736,6.078,8.587L8.379,8.317z"/>
				<path class="st2" d="M13.386,14.714l0.392-3.049l-0.04-0.006c-0.277,0.411-0.918,0.781-1.642,0.677
					c-1.701-0.246-1.887-2.101-1.626-3.604c0.333-1.918,1.579-2.765,2.637-2.612c0.509,0.073,1.007,0.371,1.263,1.034l0.027,0.004
					l0.015-1.112l1.171,0.532L15.27,8.374l-1.151,6.233L13.386,14.714z M14.122,8.659c0.115-0.898-0.269-1.692-0.979-1.794
					c-0.871-0.126-1.443,0.718-1.643,1.867c-0.174,1.001-0.093,2.591,1.086,2.762c0.456,0.066,1.238-0.247,1.364-1.368L14.122,8.659
					z"/>
			</g>
		</g>
	</g>
	<g>
		<path class="st2" d="M19.575,3.289c0-0.12,0.028-0.232,0.084-0.335S19.792,2.77,19.89,2.71s0.205-0.089,0.32-0.089
			s0.221,0.03,0.32,0.089s0.176,0.141,0.232,0.244s0.084,0.215,0.084,0.335c0,0.119-0.027,0.229-0.081,0.332
			c-0.054,0.103-0.131,0.185-0.229,0.246C20.436,3.929,20.328,3.96,20.21,3.96s-0.226-0.031-0.324-0.093
			c-0.099-0.062-0.175-0.144-0.229-0.246C19.602,3.519,19.575,3.408,19.575,3.289z M19.651,3.289c0,0.107,0.025,0.206,0.075,0.298
			c0.05,0.092,0.118,0.164,0.205,0.217c0.087,0.053,0.18,0.079,0.279,0.079s0.193-0.026,0.28-0.079
			c0.087-0.053,0.155-0.125,0.204-0.217c0.049-0.092,0.074-0.191,0.074-0.298c0-0.105-0.024-0.203-0.072-0.294
			c-0.048-0.091-0.116-0.163-0.203-0.217c-0.087-0.054-0.181-0.08-0.283-0.08c-0.1,0-0.194,0.026-0.28,0.079
			c-0.087,0.053-0.155,0.125-0.204,0.216C19.676,3.084,19.651,3.183,19.651,3.289z M20.065,3.345v0.309h-0.088v-0.75h0.231
			c0.088,0,0.155,0.018,0.202,0.055c0.047,0.037,0.071,0.092,0.071,0.167c0,0.079-0.042,0.138-0.126,0.176
			c0.043,0.016,0.073,0.04,0.089,0.072c0.017,0.032,0.025,0.071,0.025,0.117c0,0.045,0.001,0.078,0.004,0.099
			c0.002,0.02,0.006,0.037,0.012,0.051v0.014h-0.091c-0.008-0.021-0.013-0.076-0.013-0.163c0-0.053-0.011-0.091-0.034-0.113
			c-0.022-0.022-0.06-0.033-0.114-0.033H20.065z M20.065,3.264h0.162c0.048,0,0.088-0.013,0.119-0.038s0.047-0.058,0.047-0.099
			c0-0.051-0.013-0.087-0.039-0.109c-0.026-0.022-0.071-0.033-0.134-0.034h-0.156V3.264z"/>
	</g>
</g>
</svg>
