<?xml version="1.0" encoding="utf-8"?>
<!-- Generator: Adobe Illustrator 22.1.0, SVG Export Plug-In . SVG Version: 6.00 Build 0)  -->
<svg version="1.1" id="Layer_1" xmlns="http://www.w3.org/2000/svg" xmlns:xlink="http://www.w3.org/1999/xlink" x="0px" y="0px"
	 viewBox="0 0 400 75" style="enable-background:new 0 0 400 75;" xml:space="preserve">
<style type="text/css">
	.st0{fill:#FFFFFF;}
	.st1{fill:url(#SVGID_1_);}
	.st2{fill:url(#SVGID_2_);}
	.st3{fill:url(#SVGID_3_);}
	.st4{opacity:0.44;fill:#FFFFFF;enable-background:new    ;}
	.st5{fill:#8CC46E;}
	.st6{fill:#6BAF46;}
	.st7{opacity:0.33;fill:#FFFFFF;enable-background:new    ;}
	.st8{opacity:0.46;}
	.st9{opacity:0.33;fill:#5C6A75;enable-background:new    ;}
	.st10{fill:url(#SVGID_4_);}
	.st11{fill:url(#SVGID_5_);}
	.st12{fill:url(#SVGID_6_);}
	.st13{fill:#51C4DC;}
	.st14{fill:#2DA6D4;}
	.st15{opacity:0.33;enable-background:new    ;}
	.st16{fill:#5C6A75;}
	.st17{fill:url(#SVGID_7_);}
	.st18{fill:url(#SVGID_8_);}
	.st19{fill:url(#SVGID_9_);}
	.st20{fill:url(#SVGID_10_);}
	.st21{fill:url(#SVGID_11_);}
	.st22{fill:url(#SVGID_12_);}
	.st23{fill:#D9AF28;}
	.st24{fill:#BB6C28;}
</style>
<g>
	<path class="st0" d="M266.15,66.565h-0.27V63.31h0.27V66.565z"/>
	<path class="st0" d="M268.817,66.565h-0.269l-1.454-2.725l-0.014,0.001v2.725h-0.27v-3.256h0.27l1.454,2.726l0.014-0.001v-2.725
		h0.269V66.565z"/>
	<path class="st0" d="M270.952,65.77c0-0.179-0.052-0.323-0.156-0.434c-0.104-0.111-0.288-0.21-0.546-0.295
		c-0.296-0.091-0.522-0.208-0.674-0.352c-0.153-0.144-0.229-0.336-0.229-0.579c0-0.248,0.086-0.454,0.256-0.609
		c0.171-0.158,0.39-0.237,0.661-0.237c0.284,0,0.51,0.094,0.683,0.28c0.172,0.186,0.256,0.414,0.251,0.682l-0.008,0.014h-0.253
		c0-0.217-0.06-0.394-0.181-0.531c-0.12-0.138-0.286-0.206-0.495-0.206c-0.204,0-0.362,0.057-0.476,0.172
		c-0.114,0.115-0.17,0.258-0.17,0.432c0,0.161,0.054,0.296,0.165,0.407c0.11,0.11,0.295,0.205,0.559,0.288
		c0.289,0.09,0.508,0.21,0.657,0.362c0.149,0.153,0.224,0.353,0.224,0.603c0,0.261-0.089,0.467-0.266,0.621
		c-0.177,0.153-0.404,0.229-0.682,0.229c-0.272,0-0.51-0.082-0.712-0.246c-0.203-0.163-0.299-0.403-0.291-0.714l0.005-0.014h0.251
		c0,0.255,0.075,0.442,0.22,0.564c0.147,0.12,0.323,0.181,0.53,0.181c0.203,0,0.366-0.056,0.49-0.168
		C270.889,66.105,270.952,65.955,270.952,65.77z"/>
	<path class="st0" d="M273.472,63.548h-0.91v3.02h-0.269v-3.02h-0.908V63.31h2.088L273.472,63.548L273.472,63.548z"/>
	<path class="st0" d="M274.086,65.092v1.475h-0.269v-3.253h0.934c0.293,0,0.516,0.077,0.671,0.229
		c0.156,0.153,0.232,0.376,0.232,0.67c0,0.174-0.041,0.327-0.123,0.461c-0.082,0.136-0.199,0.234-0.35,0.299
		c0.166,0.051,0.285,0.142,0.357,0.274c0.071,0.132,0.109,0.294,0.109,0.49v0.307c0,0.101,0.01,0.193,0.029,0.274
		c0.019,0.081,0.053,0.146,0.098,0.198v0.053H275.5c-0.047-0.053-0.077-0.129-0.096-0.224c-0.016-0.095-0.025-0.198-0.025-0.305
		v-0.299c0-0.198-0.051-0.353-0.151-0.471c-0.099-0.117-0.238-0.175-0.412-0.175h-0.73V65.092z M274.086,64.864h0.635
		c0.229,0,0.398-0.058,0.504-0.176c0.106-0.118,0.16-0.276,0.16-0.478c0-0.214-0.053-0.377-0.157-0.492
		c-0.105-0.115-0.262-0.172-0.476-0.172h-0.666C274.086,63.548,274.086,64.864,274.086,64.864z"/>
	<path class="st0" d="M278.088,63.31v2.279c0,0.332-0.09,0.587-0.266,0.761c-0.177,0.175-0.408,0.262-0.694,0.262
		c-0.279,0-0.504-0.087-0.678-0.262c-0.174-0.175-0.26-0.429-0.26-0.761V63.31h0.265v2.283c0,0.255,0.062,0.451,0.186,0.588
		c0.124,0.137,0.288,0.205,0.486,0.205c0.21,0,0.378-0.066,0.504-0.196c0.125-0.13,0.189-0.331,0.189-0.597V63.31H278.088z"/>
	<path class="st0" d="M280.418,65.62l0.006,0.014c-0.003,0.318-0.086,0.56-0.251,0.727c-0.163,0.168-0.39,0.251-0.678,0.251
		c-0.299,0-0.538-0.106-0.714-0.318s-0.265-0.514-0.265-0.906v-0.902c0-0.39,0.089-0.69,0.266-0.906
		c0.177-0.214,0.414-0.32,0.712-0.32c0.29,0,0.518,0.082,0.679,0.246c0.162,0.163,0.246,0.408,0.247,0.733l-0.006,0.014h-0.247
		c-0.008-0.258-0.067-0.448-0.179-0.571c-0.111-0.123-0.277-0.184-0.494-0.184c-0.224,0-0.398,0.084-0.523,0.253
		c-0.125,0.168-0.188,0.412-0.188,0.73v0.91c0,0.324,0.062,0.57,0.188,0.739c0.125,0.168,0.299,0.253,0.523,0.253
		c0.218,0,0.383-0.06,0.494-0.181c0.112-0.122,0.171-0.314,0.179-0.584h0.248C280.418,65.62,280.418,65.62,280.418,65.62z"/>
	<path class="st0" d="M282.651,63.548h-0.91v3.02h-0.269v-3.02h-0.908V63.31h2.088L282.651,63.548L282.651,63.548z"/>
	<path class="st0" d="M283.311,66.565h-0.27V63.31h0.27V66.565z"/>
	<path class="st0" d="M285.881,65.396c0,0.395-0.092,0.697-0.276,0.906c-0.184,0.208-0.437,0.312-0.758,0.312
		c-0.314,0-0.562-0.104-0.741-0.312c-0.18-0.208-0.269-0.509-0.269-0.906v-0.912c0-0.395,0.09-0.697,0.269-0.907
		c0.179-0.209,0.426-0.314,0.74-0.314c0.32,0,0.574,0.105,0.759,0.314c0.185,0.21,0.277,0.512,0.277,0.906L285.881,65.396
		L285.881,65.396z M285.617,64.478c0-0.323-0.066-0.565-0.199-0.727c-0.133-0.162-0.323-0.244-0.57-0.244
		c-0.241,0-0.423,0.081-0.552,0.244c-0.129,0.162-0.193,0.405-0.193,0.727v0.918c0,0.327,0.065,0.57,0.193,0.735
		c0.129,0.162,0.313,0.244,0.554,0.244c0.247,0,0.438-0.081,0.569-0.244c0.132-0.162,0.199-0.407,0.199-0.735V64.478L285.617,64.478
		z"/>
	<path class="st0" d="M288.376,66.565h-0.269l-1.454-2.725l-0.014,0.001v2.725h-0.27v-3.256h0.27l1.454,2.726l0.014-0.001v-2.725
		h0.269V66.565z"/>
	<path class="st0" d="M290.49,65.662h-1.187l-0.277,0.903h-0.277l1.031-3.256h0.244l1.02,3.256h-0.277L290.49,65.662z
		 M289.378,65.416h1.038l-0.511-1.675h-0.014L289.378,65.416z"/>
	<path class="st0" d="M291.643,66.337h1.315v0.228h-1.586V63.31h0.27L291.643,66.337L291.643,66.337z"/>
	<path class="st0" d="M273.082,70.29c0-0.179-0.052-0.323-0.156-0.434c-0.104-0.11-0.288-0.21-0.546-0.294
		c-0.296-0.091-0.522-0.208-0.674-0.353c-0.153-0.144-0.229-0.337-0.229-0.579c0-0.248,0.086-0.452,0.256-0.609
		c0.171-0.158,0.39-0.238,0.661-0.238c0.284,0,0.511,0.094,0.683,0.28c0.172,0.186,0.257,0.414,0.251,0.682l-0.008,0.014h-0.253
		c0-0.217-0.06-0.393-0.181-0.531c-0.12-0.138-0.286-0.206-0.495-0.206c-0.204,0-0.362,0.057-0.476,0.172
		c-0.114,0.114-0.17,0.258-0.17,0.432c0,0.161,0.054,0.296,0.165,0.405c0.11,0.11,0.295,0.205,0.559,0.288
		c0.289,0.09,0.508,0.21,0.657,0.362c0.149,0.153,0.224,0.353,0.224,0.603c0,0.261-0.089,0.467-0.266,0.621
		c-0.177,0.152-0.405,0.229-0.681,0.229c-0.272,0-0.511-0.082-0.712-0.246c-0.203-0.163-0.299-0.403-0.291-0.714l0.005-0.014h0.25
		c0,0.255,0.075,0.442,0.22,0.564c0.147,0.12,0.323,0.181,0.53,0.181c0.203,0,0.366-0.056,0.49-0.168
		C273.02,70.624,273.082,70.476,273.082,70.29z"/>
	<path class="st0" d="M275.623,67.83v2.279c0,0.332-0.09,0.587-0.266,0.761c-0.177,0.175-0.408,0.262-0.694,0.262
		c-0.279,0-0.504-0.087-0.678-0.262c-0.174-0.175-0.26-0.429-0.26-0.761V67.83h0.264v2.283c0,0.256,0.062,0.451,0.186,0.588
		c0.124,0.137,0.288,0.205,0.486,0.205c0.21,0,0.378-0.066,0.504-0.196c0.125-0.13,0.189-0.331,0.189-0.597V67.83H275.623
		L275.623,67.83z"/>
	<path class="st0" d="M276.443,69.739v1.349h-0.269v-3.256h0.964c0.285,0,0.505,0.086,0.663,0.262
		c0.157,0.175,0.234,0.405,0.234,0.69c0,0.289-0.077,0.521-0.234,0.694c-0.157,0.175-0.378,0.261-0.663,0.261L276.443,69.739
		L276.443,69.739z M276.443,69.503h0.695c0.209,0,0.366-0.068,0.47-0.205c0.105-0.137,0.157-0.307,0.157-0.511
		c0-0.206-0.053-0.379-0.157-0.516s-0.261-0.205-0.47-0.205h-0.695V69.503z"/>
	<path class="st0" d="M278.744,69.739v1.349h-0.269v-3.256h0.964c0.285,0,0.505,0.086,0.663,0.262
		c0.157,0.175,0.234,0.405,0.234,0.69c0,0.289-0.077,0.521-0.234,0.694c-0.157,0.175-0.378,0.261-0.663,0.261L278.744,69.739
		L278.744,69.739z M278.744,69.503h0.695c0.209,0,0.366-0.068,0.47-0.205c0.105-0.136,0.157-0.307,0.157-0.511
		c0-0.206-0.053-0.379-0.157-0.516c-0.105-0.137-0.261-0.205-0.47-0.205h-0.695V69.503z"/>
	<path class="st0" d="M282.688,69.917c0,0.395-0.092,0.697-0.276,0.904c-0.184,0.208-0.437,0.312-0.758,0.312
		c-0.314,0-0.562-0.104-0.741-0.312c-0.18-0.208-0.269-0.509-0.269-0.904v-0.912c0-0.395,0.09-0.697,0.269-0.907
		c0.179-0.209,0.426-0.314,0.74-0.314c0.32,0,0.574,0.105,0.759,0.314c0.185,0.21,0.277,0.512,0.277,0.906L282.688,69.917
		L282.688,69.917z M282.423,68.997c0-0.323-0.066-0.565-0.199-0.727c-0.133-0.162-0.323-0.244-0.57-0.244
		c-0.241,0-0.423,0.081-0.552,0.244c-0.129,0.162-0.193,0.405-0.193,0.727v0.918c0,0.327,0.065,0.57,0.193,0.733
		c0.129,0.162,0.313,0.244,0.554,0.244c0.247,0,0.438-0.081,0.569-0.244c0.132-0.162,0.199-0.407,0.199-0.733
		C282.423,69.917,282.423,68.997,282.423,68.997z"/>
	<path class="st0" d="M283.439,69.613v1.475h-0.269v-3.254h0.934c0.293,0,0.516,0.076,0.671,0.229
		c0.156,0.153,0.232,0.376,0.232,0.67c0,0.174-0.041,0.327-0.123,0.461c-0.082,0.136-0.199,0.234-0.35,0.299
		c0.166,0.051,0.285,0.142,0.357,0.274s0.109,0.294,0.109,0.49v0.307c0,0.101,0.01,0.193,0.029,0.274
		c0.019,0.081,0.053,0.146,0.098,0.198v0.053h-0.275c-0.047-0.053-0.077-0.129-0.095-0.224c-0.016-0.096-0.025-0.198-0.025-0.305
		v-0.299c0-0.198-0.051-0.353-0.151-0.471c-0.099-0.117-0.238-0.175-0.412-0.175L283.439,69.613L283.439,69.613z M283.439,69.385
		h0.635c0.229,0,0.398-0.058,0.504-0.176c0.106-0.118,0.16-0.276,0.16-0.478c0-0.214-0.053-0.378-0.157-0.492
		c-0.105-0.114-0.262-0.172-0.476-0.172h-0.666L283.439,69.385L283.439,69.385z"/>
	<path class="st0" d="M287.241,68.066h-0.91v3.02h-0.269v-3.02h-0.908V67.83h2.088L287.241,68.066L287.241,68.066z"/>
</g>
<g>
	<g>
		<g>
			
				<linearGradient id="SVGID_1_" gradientUnits="userSpaceOnUse" x1="261.824" y1="-238.8696" x2="261.824" y2="-251.4474" gradientTransform="matrix(1 0 0 -1 0 -197)">
				<stop  offset="0" style="stop-color:#FFFFFF"/>
				<stop  offset="0.3126" style="stop-color:#E1E0DF"/>
				<stop  offset="0.4767" style="stop-color:#DFDFDE"/>
				<stop  offset="0.7198" style="stop-color:#C7C7C7"/>
			</linearGradient>
			<path class="st1" d="M259.869,42.099l0.125,1.449c0.851-1.119,2.027-1.678,3.527-1.678c1.285,0,2.245,0.384,2.882,1.153
				c0.636,0.769,0.964,1.925,0.987,3.468v7.957h-3.857v-7.794c0-0.625-0.125-1.083-0.378-1.377c-0.252-0.293-0.708-0.44-1.371-0.44
				c-0.754,0-1.314,0.296-1.678,0.891v8.72h-3.848v-12.35h3.612V42.099z"/>
			
				<linearGradient id="SVGID_2_" gradientUnits="userSpaceOnUse" x1="296.1465" y1="-239.1002" x2="296.1465" y2="-251.4524" gradientTransform="matrix(1 0 0 -1 0 -197)">
				<stop  offset="0" style="stop-color:#FFFFFF"/>
				<stop  offset="0.3126" style="stop-color:#E1E0DF"/>
				<stop  offset="0.4767" style="stop-color:#DFDFDE"/>
				<stop  offset="0.7198" style="stop-color:#C7C7C7"/>
			</linearGradient>
			<path class="st2" d="M299.429,49.383l1.243-7.283h3.686l-2.911,12.352h-3.253l-2.042-7.327l-2.055,7.327h-3.253l-2.91-12.352
				h3.686l1.22,7.455l1.965-7.455h2.682L299.429,49.383z"/>
		</g>
		
			<linearGradient id="SVGID_3_" gradientUnits="userSpaceOnUse" x1="278.4327" y1="176.3672" x2="278.4327" y2="196.5747" gradientTransform="matrix(1 0 0 1 0 -138.55)">
			<stop  offset="0" style="stop-color:#FFFFFF"/>
			<stop  offset="0.3126" style="stop-color:#E1E0DF"/>
			<stop  offset="0.4767" style="stop-color:#DFDFDE"/>
			<stop  offset="0.7198" style="stop-color:#C7C7C7"/>
		</linearGradient>
		<path class="st3" d="M276.27,42.466c0.726,0,7.931,4.161,7.931,5.48c0,1.316-7.009,5.48-7.931,5.48
			C275.349,53.429,275.547,42.466,276.27,42.466z M278.433,37.817c5.486,0,9.933,4.525,9.933,10.104
			c0,5.581-4.446,10.104-9.933,10.104c-5.485,0-9.933-4.525-9.933-10.108S272.946,37.817,278.433,37.817z"/>
		<path class="st4" d="M278.433,37.817c-4.323,0-7.997,2.81-9.363,6.732c1.715,1.24,4.011,2.119,6.602,2.458
			c0.065-2.394,0.281-4.539,0.6-4.539c0.537,0,4.616,2.279,6.706,3.995c1.829-0.54,3.42-1.368,4.636-2.398
			C286.124,40.399,282.576,37.817,278.433,37.817z"/>
		<path class="st5" d="M276.27,42.466c0.726,0,7.931,4.161,7.931,5.48c0,1.316-7.009,5.48-7.931,5.48
			C275.349,53.429,275.547,42.466,276.27,42.466z"/>
		<g>
			<path class="st6" d="M276.27,42.466c-0.091,0-0.175,0.177-0.248,0.488c0.923,0.134,7.884,4.177,7.884,5.474
				c0,0.049-0.014,0.104-0.032,0.162c0.209-0.253,0.329-0.473,0.329-0.642C284.202,46.629,276.995,42.466,276.27,42.466z"/>
		</g>
		<path class="st7" d="M275.67,47.008c0.766,0.101,1.554,0.153,2.364,0.153c1.762,0,3.434-0.248,4.943-0.694
			c-2.089-1.72-6.168-3.995-6.706-3.995C275.951,42.466,275.734,44.613,275.67,47.008z"/>
	</g>
	<g>
		<g>
			<path class="st0" d="M306.727,41.258h-0.503v1.397h-0.205v-1.397h-0.503v-0.168h1.211V41.258L306.727,41.258z"/>
			<path class="st0" d="M307.226,41.088l0.512,1.277l0.512-1.277h0.267v1.564h-0.208v-0.609l0.02-0.659l-0.514,1.268h-0.16
				l-0.513-1.264l0.02,0.656v0.609h-0.205v-1.564h0.269V41.088z"/>
		</g>
	</g>
</g>
<g>
	<path class="st0" d="M96.902,63.452c-0.184-0.115-0.395-0.174-0.635-0.174s-0.451,0.06-0.636,0.177
		c-0.184,0.118-0.327,0.286-0.427,0.505c-0.1,0.219-0.151,0.471-0.151,0.755v0.32c0,0.442,0.111,0.794,0.336,1.055
		c0.224,0.26,0.518,0.39,0.882,0.39c0.242,0,0.454-0.058,0.638-0.175s0.327-0.284,0.424-0.5c0.099-0.217,0.149-0.469,0.149-0.756
		v-0.374c-0.005-0.279-0.056-0.523-0.156-0.735C97.228,63.732,97.084,63.568,96.902,63.452z M97.22,65.041
		c0,0.381-0.084,0.679-0.251,0.892c-0.167,0.214-0.399,0.32-0.698,0.32c-0.294,0-0.527-0.108-0.698-0.324
		c-0.171-0.217-0.257-0.509-0.257-0.879v-0.326c0-0.383,0.086-0.68,0.258-0.894c0.172-0.214,0.403-0.32,0.693-0.32
		c0.296,0,0.528,0.106,0.698,0.319c0.17,0.213,0.255,0.507,0.255,0.882C97.22,64.712,97.22,65.041,97.22,65.041z"/>
	<polygon class="st0" points="100.097,65.991 98.303,63.321 98.038,63.321 98.038,66.44 98.303,66.44 98.303,63.771 100.094,66.44 
		100.358,66.44 100.358,63.321 100.097,63.321 	"/>
	<polygon class="st0" points="101.307,63.321 101.041,63.321 101.041,66.44 102.846,66.44 102.846,66.217 101.307,66.217 	"/>
	<rect x="103.299" y="63.321" class="st0" width="0.263" height="3.118"/>
	<polygon class="st0" points="104.565,63.771 106.356,66.44 106.619,66.44 106.619,63.321 106.358,63.321 106.358,65.991 
		104.565,63.321 104.299,63.321 104.299,66.44 104.565,66.44 	"/>
	<polygon class="st0" points="109.242,66.217 107.564,66.217 107.564,64.945 109.022,64.945 109.022,64.722 107.564,64.722 
		107.564,63.545 109.231,63.545 109.231,63.321 107.302,63.321 107.302,66.44 109.242,66.44 	"/>
	<path class="st0" d="M112.483,64.931c0.181-0.16,0.271-0.385,0.271-0.678c0-0.29-0.094-0.518-0.281-0.683
		c-0.187-0.166-0.443-0.248-0.768-0.248h-1.062v3.118h0.263v-1.269h0.792C112.041,65.169,112.303,65.091,112.483,64.931z
		 M110.907,63.545h0.816c0.246,0.003,0.436,0.068,0.569,0.196c0.133,0.128,0.2,0.299,0.2,0.516s-0.067,0.388-0.201,0.508
		c-0.134,0.122-0.329,0.182-0.584,0.182h-0.798L110.907,63.545L110.907,63.545z"/>
	<path class="st0" d="M115.432,66.412l-0.779-1.328c0.196-0.058,0.353-0.163,0.471-0.317c0.117-0.153,0.175-0.329,0.175-0.528
		c0-0.29-0.094-0.514-0.281-0.675c-0.186-0.161-0.447-0.242-0.779-0.242h-1.012v3.118h0.266v-1.3h0.906l0.754,1.3h0.281
		L115.432,66.412L115.432,66.412z M114.299,64.917h-0.807v-1.372h0.742c0.253,0,0.448,0.061,0.589,0.182
		c0.139,0.122,0.21,0.293,0.21,0.512c0,0.2-0.067,0.362-0.201,0.489C114.699,64.854,114.52,64.917,114.299,64.917z"/>
	<path class="st0" d="M117.629,63.452c-0.184-0.115-0.395-0.174-0.635-0.174c-0.239,0-0.451,0.06-0.636,0.177
		c-0.185,0.118-0.327,0.286-0.427,0.505c-0.1,0.219-0.151,0.471-0.151,0.755v0.32c0,0.442,0.111,0.794,0.336,1.055
		c0.224,0.26,0.518,0.39,0.882,0.39c0.242,0,0.454-0.058,0.638-0.175c0.184-0.117,0.327-0.284,0.424-0.5
		c0.099-0.217,0.149-0.469,0.149-0.756v-0.374c-0.005-0.279-0.056-0.523-0.156-0.735C117.954,63.732,117.813,63.568,117.629,63.452z
		 M117.948,65.041c0,0.381-0.084,0.679-0.251,0.892c-0.167,0.213-0.399,0.32-0.698,0.32c-0.294,0-0.527-0.108-0.698-0.324
		c-0.171-0.217-0.257-0.509-0.257-0.879v-0.326c0-0.383,0.086-0.68,0.258-0.894c0.172-0.214,0.403-0.32,0.693-0.32
		c0.296,0,0.528,0.106,0.698,0.319s0.255,0.507,0.255,0.882C117.948,64.712,117.948,65.041,117.948,65.041z"/>
	<polygon class="st0" points="118.765,66.44 119.029,66.44 119.029,64.982 120.483,64.982 120.483,64.759 119.029,64.759 
		119.029,63.545 120.696,63.545 120.696,63.321 118.765,63.321 	"/>
	<polygon class="st0" points="123.061,66.217 121.385,66.217 121.385,64.945 122.843,64.945 122.843,64.722 121.385,64.722 
		121.385,63.545 123.051,63.545 123.051,63.321 121.121,63.321 121.121,66.44 123.061,66.44 	"/>
	<path class="st0" d="M125.536,65.668c0-0.156-0.037-0.29-0.109-0.405c-0.072-0.114-0.181-0.213-0.326-0.294
		c-0.144-0.082-0.357-0.162-0.636-0.238c-0.28-0.077-0.484-0.165-0.611-0.265c-0.127-0.1-0.19-0.229-0.19-0.388
		c0-0.171,0.071-0.31,0.212-0.418c0.141-0.106,0.331-0.16,0.569-0.16c0.246,0,0.441,0.066,0.587,0.194
		c0.146,0.129,0.218,0.301,0.218,0.514h0.266c0-0.175-0.044-0.334-0.136-0.478c-0.09-0.143-0.217-0.253-0.38-0.334
		c-0.163-0.08-0.348-0.12-0.556-0.12c-0.305,0-0.556,0.075-0.752,0.223c-0.196,0.149-0.294,0.343-0.294,0.581
		c0,0.246,0.105,0.445,0.317,0.595c0.148,0.108,0.384,0.205,0.706,0.296c0.323,0.09,0.545,0.186,0.666,0.286
		c0.122,0.1,0.182,0.237,0.182,0.41c0,0.177-0.073,0.319-0.22,0.427s-0.342,0.161-0.584,0.161c-0.272,0-0.49-0.063-0.655-0.19
		c-0.165-0.127-0.246-0.3-0.246-0.521H123.3c0,0.182,0.047,0.345,0.142,0.486c0.095,0.141,0.234,0.251,0.418,0.329
		s0.385,0.118,0.606,0.118c0.32,0,0.58-0.075,0.775-0.223C125.439,66.112,125.536,65.914,125.536,65.668z"/>
	<path class="st0" d="M127.538,66.099c-0.147,0.108-0.342,0.161-0.584,0.161c-0.272,0-0.49-0.063-0.655-0.19
		c-0.165-0.127-0.246-0.3-0.246-0.521h-0.263c0,0.182,0.047,0.345,0.142,0.486c0.095,0.141,0.234,0.251,0.418,0.329
		c0.184,0.079,0.385,0.118,0.606,0.118c0.321,0,0.58-0.075,0.775-0.223c0.195-0.148,0.294-0.345,0.294-0.59
		c0-0.156-0.037-0.29-0.109-0.405c-0.072-0.114-0.181-0.213-0.326-0.294c-0.144-0.082-0.357-0.162-0.636-0.238
		c-0.28-0.077-0.484-0.165-0.611-0.265c-0.127-0.1-0.19-0.229-0.19-0.388c0-0.171,0.071-0.31,0.212-0.418
		c0.141-0.106,0.331-0.16,0.569-0.16c0.246,0,0.441,0.066,0.587,0.194c0.146,0.129,0.218,0.301,0.218,0.514h0.266
		c0-0.175-0.044-0.334-0.136-0.478c-0.09-0.143-0.217-0.253-0.38-0.334c-0.163-0.08-0.348-0.12-0.556-0.12
		c-0.305,0-0.556,0.075-0.752,0.223c-0.196,0.149-0.294,0.343-0.294,0.581c0,0.246,0.105,0.445,0.317,0.595
		c0.148,0.108,0.384,0.205,0.706,0.296c0.323,0.09,0.545,0.186,0.666,0.286c0.122,0.1,0.182,0.237,0.182,0.41
		C127.758,65.85,127.684,65.991,127.538,66.099z"/>
	<rect x="128.54" y="63.321" class="st0" width="0.263" height="3.118"/>
	<path class="st0" d="M130.63,66.482c0.242,0,0.454-0.058,0.638-0.175c0.184-0.117,0.327-0.284,0.424-0.5
		c0.099-0.217,0.149-0.469,0.149-0.756v-0.372c-0.005-0.279-0.056-0.523-0.156-0.735s-0.242-0.375-0.424-0.49
		c-0.184-0.115-0.395-0.174-0.635-0.174c-0.239,0-0.451,0.06-0.636,0.177c-0.184,0.118-0.327,0.286-0.427,0.505
		c-0.1,0.219-0.151,0.471-0.151,0.755v0.32c0,0.442,0.111,0.794,0.336,1.055C129.972,66.351,130.266,66.482,130.63,66.482z
		 M129.676,64.725c0-0.383,0.086-0.68,0.258-0.894c0.172-0.214,0.403-0.32,0.693-0.32c0.296,0,0.528,0.106,0.698,0.319
		c0.17,0.213,0.255,0.507,0.255,0.882v0.329c0,0.381-0.084,0.679-0.251,0.892c-0.167,0.214-0.399,0.32-0.698,0.32
		c-0.294,0-0.527-0.108-0.698-0.324s-0.256-0.509-0.256-0.879L129.676,64.725L129.676,64.725z"/>
	<polygon class="st0" points="134.455,65.991 132.662,63.321 132.397,63.321 132.397,66.44 132.662,66.44 132.662,63.771 
		134.454,66.44 134.716,66.44 134.716,63.321 134.455,63.321 	"/>
	<path class="st0" d="M136.288,63.321l-1.179,3.118h0.276l0.32-0.875h1.415l0.323,0.875h0.275l-1.179-3.118
		C136.539,63.321,136.288,63.321,136.288,63.321z M135.788,65.34l0.625-1.699l0.625,1.699H135.788z"/>
	<polygon class="st0" points="138.332,66.217 138.332,63.321 138.067,63.321 138.067,66.44 139.872,66.44 139.872,66.217 	"/>
	<path class="st0" d="M104.747,67.805c-0.203-0.117-0.432-0.175-0.688-0.175h-0.872v3.118h0.851c0.266,0,0.5-0.06,0.706-0.175
		c0.205-0.117,0.364-0.284,0.476-0.499c0.113-0.215,0.168-0.462,0.168-0.741v-0.286c0-0.277-0.056-0.523-0.17-0.741
		C105.108,68.088,104.951,67.922,104.747,67.805z M105.131,69.315c0,0.371-0.099,0.666-0.298,0.884
		c-0.199,0.218-0.462,0.327-0.79,0.327h-0.59v-2.672h0.612c0.32,0.001,0.578,0.11,0.773,0.326c0.196,0.215,0.293,0.503,0.293,0.861
		v0.274H105.131z"/>
	<polygon class="st0" points="106.214,69.253 107.671,69.253 107.671,69.032 106.214,69.032 106.214,67.855 107.88,67.855 
		107.88,67.631 105.951,67.631 105.951,70.748 107.89,70.748 107.89,70.526 106.214,70.526 	"/>
	<polygon class="st0" points="109.311,70.363 109.292,70.429 109.275,70.363 108.294,67.631 108.008,67.631 109.168,70.748 
		109.42,70.748 110.581,67.631 110.292,67.631 	"/>
	<polygon class="st0" points="111.192,69.253 112.65,69.253 112.65,69.032 111.192,69.032 111.192,67.855 112.858,67.855 
		112.858,67.631 110.929,67.631 110.929,70.748 112.868,70.748 112.868,70.526 111.192,70.526 	"/>
	<polygon class="st0" points="113.579,67.631 113.314,67.631 113.314,70.748 115.118,70.748 115.118,70.526 113.579,70.526 	"/>
	<path class="st0" d="M117.098,67.762c-0.184-0.115-0.395-0.174-0.635-0.174c-0.239,0-0.451,0.06-0.636,0.177
		c-0.185,0.118-0.327,0.286-0.427,0.505c-0.1,0.219-0.151,0.471-0.151,0.755v0.32c0,0.442,0.111,0.794,0.336,1.055
		c0.224,0.26,0.518,0.39,0.882,0.39c0.242,0,0.454-0.058,0.638-0.175c0.185-0.117,0.327-0.284,0.424-0.5
		c0.099-0.217,0.149-0.469,0.149-0.756v-0.372c-0.005-0.279-0.056-0.523-0.156-0.735C117.422,68.041,117.281,67.878,117.098,67.762z
		 M117.416,69.351c0,0.381-0.084,0.679-0.251,0.892c-0.167,0.214-0.399,0.32-0.698,0.32c-0.294,0-0.527-0.108-0.698-0.324
		c-0.171-0.217-0.257-0.509-0.257-0.879v-0.326c0-0.383,0.086-0.68,0.258-0.894c0.172-0.214,0.403-0.32,0.693-0.32
		c0.296,0,0.528,0.106,0.698,0.319c0.17,0.213,0.255,0.507,0.255,0.882C117.416,69.022,117.416,69.351,117.416,69.351z"/>
	<path class="st0" d="M119.296,67.631h-1.062v3.118h0.263v-1.269h0.792c0.342,0,0.604-0.08,0.785-0.238s0.271-0.385,0.271-0.678
		c0-0.29-0.094-0.518-0.281-0.683C119.876,67.714,119.619,67.631,119.296,67.631z M119.88,69.075
		c-0.134,0.122-0.329,0.182-0.584,0.182h-0.798v-1.402h0.816c0.246,0.003,0.436,0.068,0.569,0.196c0.133,0.128,0.2,0.299,0.2,0.516
		C120.081,68.783,120.014,68.953,119.88,69.075z"/>
	<polygon class="st0" points="122.322,70.383 121.172,67.631 120.824,67.631 120.824,70.748 121.087,70.748 121.087,69.383 
		121.066,68.009 122.222,70.748 122.425,70.748 123.585,67.999 123.564,69.39 123.564,70.748 123.827,70.748 123.827,67.631 
		123.476,67.631 	"/>
	<polygon class="st0" points="124.771,69.253 126.229,69.253 126.229,69.032 124.771,69.032 124.771,67.855 126.437,67.855 
		126.437,67.631 124.507,67.631 124.507,70.748 126.447,70.748 126.447,70.526 124.771,70.526 	"/>
	<polygon class="st0" points="128.953,70.301 127.158,67.631 126.893,67.631 126.893,70.748 127.158,70.748 127.158,68.08 
		128.95,70.748 129.213,70.748 129.213,67.631 128.953,67.631 	"/>
	<polygon class="st0" points="129.552,67.855 130.617,67.855 130.617,70.748 130.881,70.748 130.881,67.855 131.948,67.855 
		131.948,67.631 129.552,67.631 	"/>
</g>
<g>
	<g class="st8">
		<path class="st9" d="M136.338,36.416v5.617c-1.016-0.543-2.173-0.853-3.405-0.853c-4.016,0-7.269,3.283-7.269,7.333
			s3.253,7.333,7.269,7.333c1.231,0,2.39-0.31,3.405-0.853v0.853h3.864V36.415h-3.864V36.416z M133.015,51.961
			c-1.836,0-3.323-1.502-3.323-3.357c0.001-1.853,1.49-3.357,3.323-3.357c1.836,0,3.323,1.502,3.323,3.357
			C136.338,50.457,134.851,51.961,133.015,51.961z"/>
		<path class="st9" d="M118.229,41.707c-1.231,0-2.39,0.309-3.405,0.853v-0.853h-3.864v19.43h3.864V55.52
			c1.016,0.543,2.173,0.853,3.405,0.853c4.016,0,7.269-3.283,7.269-7.333C125.497,44.992,122.244,41.707,118.229,41.707z
			 M118.15,52.304c-1.836,0-3.323-1.502-3.323-3.354c0-1.851,1.49-3.354,3.323-3.354c1.836,0,3.323,1.502,3.323,3.354
			C121.474,50.8,119.985,52.304,118.15,52.304z"/>
		<path class="st9" d="M109.918,44.344c-0.003-0.008-0.008-0.016-0.01-0.025c-0.035-0.087-0.077-0.171-0.115-0.257
			c-0.086-0.193-0.175-0.383-0.271-0.571c-0.054-0.105-0.11-0.208-0.168-0.312c-0.096-0.171-0.198-0.341-0.302-0.505
			c-0.058-0.09-0.111-0.181-0.171-0.269c-0.162-0.238-0.329-0.47-0.511-0.694c-0.048-0.061-0.101-0.117-0.151-0.175
			c-0.143-0.171-0.291-0.338-0.445-0.498c-0.076-0.08-0.153-0.156-0.231-0.232c-0.144-0.142-0.294-0.28-0.447-0.413
			c-0.076-0.066-0.149-0.132-0.227-0.196c-0.224-0.185-0.456-0.365-0.697-0.53c-0.042-0.029-0.089-0.054-0.13-0.084
			c-0.205-0.137-0.418-0.269-0.633-0.39c-0.086-0.048-0.175-0.095-0.262-0.142c-0.19-0.101-0.381-0.195-0.579-0.284
			c-0.086-0.038-0.168-0.08-0.256-0.114c-0.277-0.117-0.559-0.224-0.846-0.314c-0.025-0.008-0.051-0.013-0.075-0.02
			c-0.269-0.082-0.542-0.153-0.817-0.214c-0.092-0.02-0.185-0.038-0.277-0.054c-0.223-0.042-0.448-0.077-0.678-0.105
			c-0.092-0.01-0.185-0.023-0.28-0.032c-0.313-0.029-0.63-0.051-0.95-0.051c-0.323,0-0.645,0.02-0.961,0.051
			c-0.099,0.009-0.196,0.025-0.291,0.035c-0.22,0.027-0.441,0.06-0.657,0.099c-0.105,0.02-0.208,0.041-0.312,0.065
			c-0.223,0.052-0.442,0.109-0.657,0.172c-0.082,0.025-0.166,0.046-0.25,0.073c-0.291,0.092-0.578,0.199-0.856,0.317
			c-0.054,0.023-0.108,0.052-0.16,0.075c-0.227,0.101-0.445,0.208-0.661,0.326c-0.092,0.051-0.184,0.105-0.275,0.156
			c-0.176,0.101-0.348,0.208-0.518,0.319c-0.092,0.061-0.182,0.122-0.272,0.184c-0.179,0.128-0.352,0.26-0.522,0.396
			c-0.066,0.054-0.136,0.105-0.201,0.16c-0.223,0.189-0.437,0.388-0.642,0.594c-0.073,0.071-0.138,0.148-0.208,0.223
			c-0.137,0.144-0.271,0.294-0.399,0.445c-0.08,0.096-0.156,0.193-0.233,0.293c-0.111,0.143-0.219,0.293-0.323,0.442
			c-0.071,0.101-0.143,0.201-0.212,0.308c-0.115,0.177-0.223,0.362-0.327,0.549c-0.058,0.099-0.115,0.199-0.17,0.301
			c-0.122,0.233-0.236,0.475-0.339,0.72c-0.051,0.115-0.092,0.236-0.138,0.353c-0.042,0.109-0.089,0.214-0.128,0.326
			c0.003,0.001,0.005,0.003,0.008,0.005c-0.381,1.094-0.599,2.266-0.599,3.495c0,5.789,4.614,10.483,10.304,10.483
			c5.69,0,10.304-4.692,10.304-10.483C110.696,46.928,110.417,45.576,109.918,44.344C109.916,44.346,109.918,44.346,109.918,44.344z
			"/>
	</g>
	<g>
		
			<linearGradient id="SVGID_4_" gradientUnits="userSpaceOnUse" x1="100.226" y1="-212.3322" x2="100.226" y2="-233.2972" gradientTransform="matrix(1 0 0 -1 0 -174.8)">
			<stop  offset="0" style="stop-color:#FFFFFF"/>
			<stop  offset="0.3126" style="stop-color:#E1E0DF"/>
			<stop  offset="0.7198" style="stop-color:#C7C7C7"/>
			<stop  offset="0.9324" style="stop-color:#AEAFB0"/>
		</linearGradient>
		<path class="st10" d="M97.984,42.356c0.754,0,8.228,4.318,8.228,5.685c0,1.364-7.271,5.685-8.228,5.685
			C97.03,53.728,97.231,42.356,97.984,42.356z M100.227,37.532c5.692,0,10.304,4.695,10.304,10.483
			c0,5.789-4.614,10.483-10.304,10.483c-5.69,0-10.306-4.695-10.306-10.485S94.536,37.532,100.227,37.532z"/>
		
			<linearGradient id="SVGID_5_" gradientUnits="userSpaceOnUse" x1="132.7681" y1="-76.883" x2="132.7681" y2="-113.254" gradientTransform="matrix(1 0 0 -1 0 -40.8)">
			<stop  offset="0.097" style="stop-color:#E1E0DF"/>
			<stop  offset="0.3528" style="stop-color:#C7C7C7"/>
			<stop  offset="0.7418" style="stop-color:#AEAFB0"/>
		</linearGradient>
		<path class="st11" d="M132.849,44.917c1.836,0,3.323,1.502,3.323,3.357c0,1.855-1.488,3.357-3.323,3.357
			c-1.836,0-3.323-1.502-3.323-3.357C129.526,46.42,131.015,44.917,132.849,44.917z M136.173,36.084v5.617
			c-1.016-0.543-2.173-0.853-3.405-0.853c-4.016,0-7.269,3.283-7.269,7.333s3.253,7.333,7.269,7.333
			c1.231,0,2.388-0.309,3.405-0.853v0.853h3.864V36.083h-3.864V36.084z"/>
		
			<linearGradient id="SVGID_6_" gradientUnits="userSpaceOnUse" x1="118.0634" y1="-82.1781" x2="118.0634" y2="-114.2497" gradientTransform="matrix(1 0 0 -1 0 -40.8)">
			<stop  offset="0" style="stop-color:#E1E0DF"/>
			<stop  offset="0.3528" style="stop-color:#C7C7C7"/>
			<stop  offset="0.7418" style="stop-color:#AEAFB0"/>
		</linearGradient>
		<path class="st12" d="M117.982,45.263c1.836,0,3.323,1.502,3.323,3.354s-1.488,3.354-3.323,3.354
			c-1.834,0-3.323-1.502-3.323-3.354S116.149,45.263,117.982,45.263z M118.063,41.378c-1.231,0-2.39,0.309-3.405,0.853v-0.853
			h-3.864v19.431h3.864v-5.617c1.016,0.543,2.173,0.853,3.405,0.853c4.016,0,7.269-3.283,7.269-7.333S122.079,41.378,118.063,41.378
			z"/>
		<path class="st4" d="M100.227,37.532c-4.486,0-8.297,2.916-9.714,6.984c1.78,1.286,4.16,2.198,6.848,2.55
			c0.067-2.483,0.291-4.709,0.623-4.709c0.557,0,4.79,2.364,6.957,4.146c1.898-0.56,3.548-1.419,4.811-2.488
			C108.207,40.209,104.525,37.532,100.227,37.532z"/>
		<path class="st13" d="M97.984,42.356c0.754,0,8.228,4.318,8.228,5.685c0,1.364-7.271,5.685-8.228,5.685
			C97.03,53.728,97.231,42.356,97.984,42.356z"/>
		<g>
			<path class="st14" d="M97.984,42.356c-0.095,0-0.182,0.184-0.258,0.505c0.958,0.141,8.178,4.334,8.178,5.679
				c0,0.052-0.014,0.108-0.032,0.168c0.217-0.262,0.341-0.49,0.341-0.666C106.21,46.674,98.736,42.356,97.984,42.356z"/>
		</g>
		<path class="st7" d="M97.361,47.065c0.794,0.105,1.613,0.16,2.451,0.16c1.828,0,3.562-0.258,5.128-0.721
			c-2.166-1.782-6.4-4.144-6.957-4.144C97.652,42.356,97.428,44.583,97.361,47.065z"/>
	</g>
	<g>
		<path class="st0" d="M105.888,48.687c-0.005,0.006-0.01,0.013-0.016,0.018c-0.001,0.001-0.001,0.003-0.001,0.004
			C105.877,48.701,105.883,48.694,105.888,48.687z"/>
		<path class="st0" d="M105.888,48.438c-1.458,1.782-7.208,5.134-8.059,5.134c-0.01,0-0.02-0.003-0.029-0.005
			c0.056,0.103,0.117,0.16,0.184,0.16c0.832,0,6.448-3.272,7.889-5.021c0.018-0.06,0.032-0.114,0.032-0.165
			C105.904,48.509,105.896,48.473,105.888,48.438z"/>
	</g>
</g>
<g>
	<path class="st0" d="M180.22,65.04c0,0.29-0.051,0.545-0.151,0.764c-0.1,0.219-0.243,0.388-0.429,0.505
		c-0.186,0.118-0.402,0.177-0.645,0.177c-0.367,0-0.665-0.132-0.891-0.395c-0.227-0.262-0.34-0.618-0.34-1.064v-0.324
		c0-0.286,0.051-0.541,0.152-0.763c0.101-0.222,0.246-0.391,0.432-0.511s0.4-0.179,0.642-0.179c0.242,0,0.456,0.058,0.641,0.175
		c0.185,0.117,0.328,0.281,0.429,0.495c0.101,0.214,0.153,0.46,0.158,0.742L180.22,65.04L180.22,65.04z M179.954,64.699
		c0-0.379-0.086-0.676-0.257-0.891c-0.171-0.214-0.405-0.322-0.706-0.322c-0.293,0-0.526,0.108-0.699,0.323
		c-0.175,0.215-0.26,0.517-0.26,0.903v0.329c0,0.374,0.086,0.669,0.26,0.888c0.174,0.218,0.408,0.327,0.706,0.327
		c0.301,0,0.536-0.108,0.706-0.323c0.168-0.215,0.253-0.516,0.253-0.901L179.954,64.699
		C179.955,64.699,179.954,64.699,179.954,64.699z"/>
	<path class="st0" d="M183.123,66.444h-0.266l-1.81-2.694v2.694h-0.269v-3.148h0.269l1.811,2.696v-2.696h0.263L183.123,66.444
		L183.123,66.444z"/>
	<path class="st0" d="M185.594,65.67c0-0.175-0.061-0.313-0.184-0.414s-0.347-0.199-0.673-0.29
		c-0.327-0.091-0.564-0.191-0.713-0.299c-0.214-0.153-0.32-0.353-0.32-0.6c0-0.242,0.099-0.436,0.296-0.588
		c0.199-0.151,0.451-0.227,0.76-0.227c0.209,0,0.396,0.041,0.561,0.122c0.166,0.081,0.293,0.193,0.384,0.337
		c0.091,0.144,0.136,0.305,0.136,0.481h-0.269c0-0.215-0.073-0.389-0.22-0.519s-0.345-0.196-0.593-0.196
		c-0.242,0-0.432,0.053-0.575,0.161c-0.143,0.108-0.214,0.247-0.214,0.421c0,0.16,0.065,0.29,0.193,0.393
		c0.128,0.101,0.333,0.19,0.616,0.269c0.283,0.077,0.497,0.157,0.642,0.239c0.146,0.082,0.255,0.182,0.329,0.296
		c0.073,0.115,0.11,0.251,0.11,0.408c0,0.247-0.099,0.447-0.296,0.597c-0.199,0.151-0.46,0.224-0.784,0.224
		c-0.222,0-0.426-0.039-0.611-0.119c-0.185-0.079-0.327-0.19-0.421-0.333c-0.096-0.143-0.144-0.307-0.144-0.49h0.266
		c0,0.222,0.082,0.396,0.248,0.526c0.166,0.128,0.386,0.193,0.661,0.193c0.244,0,0.442-0.054,0.59-0.162
		C185.519,65.991,185.594,65.848,185.594,65.67z"/>
	<path class="st0" d="M186.649,66.444h-0.266v-3.148h0.266V66.444z"/>
	<path class="st0" d="M189.466,63.521h-1.079v2.922h-0.266v-2.922h-1.077v-0.224h2.421v0.224H189.466z"/>
	<path class="st0" d="M191.599,64.935h-1.472v1.285h1.692v0.224h-1.958v-3.148h1.948v0.224h-1.682v1.188h1.472L191.599,64.935
		L191.599,64.935z"/>
	<path class="st0" d="M193.502,65.162v1.283h-0.266v-3.148h1.073c0.327,0,0.585,0.084,0.775,0.251
		c0.19,0.167,0.284,0.396,0.284,0.69c0,0.296-0.091,0.523-0.274,0.684c-0.182,0.161-0.447,0.242-0.792,0.242L193.502,65.162
		L193.502,65.162L193.502,65.162z M193.502,64.936h0.806c0.257,0,0.454-0.061,0.59-0.184c0.136-0.123,0.203-0.294,0.203-0.513
		c0-0.218-0.067-0.391-0.201-0.521c-0.136-0.129-0.327-0.196-0.574-0.199h-0.825C193.502,63.52,193.502,64.936,193.502,64.936z"/>
	<path class="st0" d="M197.029,65.131h-0.915v1.312h-0.269v-3.148h1.022c0.336,0,0.598,0.081,0.787,0.244
		c0.189,0.163,0.284,0.39,0.284,0.683c0,0.201-0.06,0.379-0.177,0.533s-0.277,0.26-0.475,0.32l0.787,1.34v0.029h-0.284
		L197.029,65.131z M196.113,64.906h0.816c0.223,0,0.403-0.063,0.538-0.19c0.136-0.127,0.203-0.291,0.203-0.493
		c0-0.223-0.071-0.395-0.212-0.518c-0.141-0.123-0.34-0.184-0.594-0.184h-0.75L196.113,64.906L196.113,64.906z"/>
	<path class="st0" d="M200.878,65.04c0,0.29-0.051,0.545-0.151,0.764c-0.1,0.219-0.243,0.388-0.429,0.505
		c-0.186,0.118-0.402,0.177-0.645,0.177c-0.367,0-0.665-0.132-0.891-0.395c-0.227-0.262-0.339-0.618-0.339-1.064v-0.324
		c0-0.286,0.051-0.541,0.152-0.763c0.101-0.222,0.246-0.391,0.432-0.511c0.186-0.119,0.4-0.179,0.642-0.179s0.456,0.058,0.641,0.175
		c0.185,0.117,0.328,0.281,0.429,0.495c0.101,0.214,0.153,0.46,0.158,0.742L200.878,65.04L200.878,65.04z M200.612,64.699
		c0-0.379-0.086-0.676-0.257-0.891s-0.405-0.322-0.706-0.322c-0.293,0-0.526,0.108-0.699,0.323c-0.175,0.215-0.26,0.517-0.26,0.903
		v0.329c0,0.374,0.086,0.669,0.26,0.888c0.174,0.218,0.408,0.327,0.706,0.327c0.301,0,0.536-0.108,0.706-0.323
		c0.168-0.215,0.253-0.516,0.253-0.901L200.612,64.699C200.614,64.699,200.612,64.699,200.612,64.699z"/>
	<path class="st0" d="M203.171,64.972h-1.468v1.472h-0.266v-3.148h1.951v0.224h-1.684v1.226h1.468v0.225H203.171z"/>
	<path class="st0" d="M205.555,64.935h-1.472v1.285h1.692v0.224h-1.958v-3.148h1.948v0.224h-1.682v1.188h1.472L205.555,64.935
		L205.555,64.935z"/>
	<path class="st0" d="M208.007,65.67c0-0.175-0.061-0.313-0.184-0.414s-0.347-0.199-0.673-0.29
		c-0.327-0.091-0.564-0.191-0.713-0.299c-0.214-0.153-0.321-0.353-0.321-0.6c0-0.242,0.099-0.436,0.296-0.588
		c0.199-0.151,0.451-0.227,0.76-0.227c0.209,0,0.396,0.041,0.561,0.122c0.166,0.081,0.293,0.193,0.384,0.337
		c0.091,0.144,0.136,0.305,0.136,0.481h-0.269c0-0.215-0.073-0.389-0.22-0.519s-0.345-0.196-0.593-0.196
		c-0.242,0-0.433,0.053-0.575,0.161c-0.143,0.108-0.214,0.247-0.214,0.421c0,0.16,0.065,0.29,0.193,0.393
		c0.128,0.101,0.333,0.19,0.616,0.269c0.282,0.079,0.497,0.157,0.642,0.239c0.146,0.082,0.255,0.182,0.329,0.296
		c0.073,0.115,0.11,0.251,0.11,0.408c0,0.247-0.099,0.447-0.296,0.597c-0.199,0.151-0.46,0.224-0.784,0.224
		c-0.223,0-0.426-0.039-0.611-0.119c-0.185-0.079-0.327-0.19-0.421-0.333c-0.095-0.143-0.144-0.307-0.144-0.49h0.266
		c0,0.222,0.082,0.396,0.248,0.526c0.166,0.128,0.386,0.193,0.661,0.193c0.244,0,0.442-0.054,0.59-0.162
		C207.933,65.991,208.007,65.848,208.007,65.67z"/>
	<path class="st0" d="M210.519,65.67c0-0.175-0.061-0.313-0.184-0.414s-0.347-0.199-0.673-0.29
		c-0.327-0.091-0.564-0.191-0.713-0.299c-0.214-0.153-0.32-0.353-0.32-0.6c0-0.242,0.099-0.436,0.296-0.588
		c0.199-0.151,0.451-0.227,0.76-0.227c0.209,0,0.396,0.041,0.561,0.122c0.166,0.081,0.293,0.193,0.384,0.337
		c0.091,0.144,0.136,0.305,0.136,0.481h-0.269c0-0.215-0.073-0.389-0.22-0.519s-0.345-0.196-0.593-0.196
		c-0.242,0-0.433,0.053-0.575,0.161c-0.143,0.108-0.214,0.247-0.214,0.421c0,0.16,0.065,0.29,0.193,0.393
		c0.128,0.101,0.333,0.19,0.616,0.269c0.282,0.079,0.497,0.157,0.642,0.239s0.255,0.182,0.329,0.296
		c0.073,0.115,0.11,0.251,0.11,0.408c0,0.247-0.099,0.447-0.296,0.597c-0.199,0.151-0.46,0.224-0.784,0.224
		c-0.223,0-0.426-0.039-0.611-0.119c-0.185-0.079-0.327-0.19-0.422-0.333c-0.095-0.143-0.144-0.307-0.144-0.49h0.266
		c0,0.222,0.082,0.396,0.248,0.526c0.166,0.128,0.386,0.193,0.661,0.193c0.244,0,0.442-0.054,0.59-0.162
		C210.445,65.991,210.519,65.848,210.519,65.67z"/>
	<path class="st0" d="M211.574,66.444h-0.266v-3.148h0.266V66.444z"/>
	<path class="st0" d="M214.643,65.04c0,0.29-0.051,0.545-0.151,0.764c-0.1,0.219-0.243,0.388-0.429,0.505
		c-0.186,0.118-0.402,0.177-0.645,0.177c-0.367,0-0.665-0.132-0.891-0.395c-0.227-0.262-0.34-0.618-0.34-1.064v-0.324
		c0-0.286,0.051-0.541,0.152-0.763c0.101-0.222,0.246-0.391,0.432-0.511s0.4-0.179,0.642-0.179c0.242,0,0.456,0.058,0.641,0.175
		c0.185,0.117,0.328,0.281,0.429,0.495c0.101,0.214,0.153,0.46,0.158,0.742L214.643,65.04L214.643,65.04z M214.377,64.699
		c0-0.379-0.086-0.676-0.257-0.891c-0.171-0.214-0.405-0.322-0.706-0.322c-0.293,0-0.526,0.108-0.699,0.323
		c-0.175,0.215-0.26,0.517-0.26,0.903v0.329c0,0.374,0.086,0.669,0.26,0.888c0.174,0.218,0.408,0.327,0.706,0.327
		c0.301,0,0.536-0.108,0.706-0.323c0.168-0.215,0.253-0.516,0.253-0.901L214.377,64.699L214.377,64.699z"/>
	<path class="st0" d="M217.547,66.444h-0.266l-1.81-2.694v2.694h-0.269v-3.148h0.269l1.811,2.696v-2.696h0.263L217.547,66.444
		L217.547,66.444z"/>
	<path class="st0" d="M219.974,65.559h-1.429l-0.324,0.885h-0.279l1.191-3.149h0.253l1.192,3.148h-0.277L219.974,65.559z
		 M218.627,65.334h1.263l-0.632-1.714L218.627,65.334z"/>
	<path class="st0" d="M221.196,66.218h1.554v0.224h-1.823v-3.148h0.269L221.196,66.218L221.196,66.218z"/>
	<path class="st0" d="M185.834,70.894v-3.148h0.879c0.257,0,0.49,0.06,0.694,0.176c0.205,0.117,0.365,0.286,0.479,0.505
		c0.114,0.219,0.171,0.469,0.171,0.749v0.29c0,0.281-0.057,0.53-0.171,0.749c-0.114,0.217-0.275,0.386-0.481,0.504
		c-0.206,0.118-0.445,0.177-0.712,0.177h-0.859V70.894z M186.1,67.971v2.698h0.597c0.332,0,0.597-0.11,0.798-0.329
		c0.2-0.22,0.3-0.518,0.3-0.893V69.17c0-0.362-0.099-0.652-0.296-0.87c-0.198-0.218-0.457-0.327-0.78-0.329H186.1V67.971z"/>
	<path class="st0" d="M190.362,69.385h-1.472v1.285h1.692v0.224h-1.958v-3.148h1.948v0.224h-1.682v1.188h1.472L190.362,69.385
		L190.362,69.385z"/>
	<path class="st0" d="M191.979,70.505l0.016,0.067l0.02-0.067l0.991-2.759h0.293l-1.172,3.148h-0.255l-1.172-3.148h0.29
		L191.979,70.505z"/>
	<path class="st0" d="M195.39,69.385h-1.472v1.285h1.692v0.224h-1.958v-3.148h1.948v0.224h-1.682v1.188h1.472L195.39,69.385
		L195.39,69.385z"/>
	<path class="st0" d="M196.327,70.668h1.554v0.224h-1.823v-3.148h0.269L196.327,70.668L196.327,70.668z"/>
	<path class="st0" d="M200.467,69.49c0,0.29-0.051,0.545-0.151,0.764c-0.1,0.219-0.243,0.388-0.429,0.505
		c-0.186,0.118-0.402,0.177-0.645,0.177c-0.367,0-0.665-0.132-0.891-0.395c-0.227-0.262-0.339-0.618-0.339-1.064v-0.324
		c0-0.286,0.051-0.541,0.152-0.763c0.101-0.222,0.246-0.391,0.432-0.511s0.4-0.179,0.642-0.179c0.242,0,0.456,0.058,0.641,0.175
		c0.185,0.117,0.328,0.281,0.429,0.495c0.101,0.214,0.153,0.46,0.158,0.742L200.467,69.49L200.467,69.49z M200.201,69.15
		c0-0.379-0.086-0.675-0.257-0.891c-0.171-0.214-0.405-0.322-0.706-0.322c-0.293,0-0.526,0.108-0.699,0.323
		c-0.175,0.215-0.26,0.517-0.26,0.903v0.329c0,0.374,0.086,0.669,0.26,0.888c0.174,0.218,0.408,0.327,0.706,0.327
		c0.301,0,0.536-0.108,0.706-0.323c0.168-0.215,0.253-0.516,0.253-0.901L200.201,69.15L200.201,69.15z"/>
	<path class="st0" d="M201.291,69.612v1.283h-0.266v-3.148h1.073c0.327,0,0.585,0.084,0.775,0.251
		c0.19,0.167,0.284,0.396,0.284,0.69c0,0.296-0.091,0.523-0.274,0.684c-0.182,0.161-0.447,0.242-0.792,0.242h-0.801L201.291,69.612
		L201.291,69.612z M201.291,69.388h0.806c0.257,0,0.454-0.061,0.59-0.184c0.136-0.123,0.203-0.294,0.203-0.513
		c0-0.218-0.067-0.391-0.201-0.521c-0.136-0.129-0.327-0.196-0.574-0.199h-0.825L201.291,69.388L201.291,69.388z"/>
	<path class="st0" d="M203.993,67.746l1.162,2.778l1.164-2.778h0.355v3.148h-0.266v-1.371l0.022-1.405l-1.172,2.777h-0.205
		l-1.168-2.765l0.022,1.386v1.38h-0.266v-3.148C203.641,67.746,203.993,67.746,203.993,67.746z"/>
	<path class="st0" d="M209.1,69.385h-1.472v1.285h1.692v0.224h-1.958v-3.148h1.948v0.224h-1.682v1.188h1.472L209.1,69.385
		L209.1,69.385z"/>
	<path class="st0" d="M212.113,70.894h-0.266l-1.81-2.694v2.694h-0.269v-3.148h0.269l1.811,2.696v-2.696h0.263L212.113,70.894
		L212.113,70.894z"/>
	<path class="st0" d="M214.876,67.971h-1.079v2.922h-0.266v-2.922h-1.077v-0.224h2.421v0.224H214.876z"/>
</g>
<g>
	<g class="st15">
		<path class="st16" d="M188.313,42.537l0.13,1.507c0.885-1.164,2.108-1.744,3.669-1.744c1.338,0,2.336,0.399,2.998,1.2
			c0.66,0.801,1.003,2.003,1.027,3.608v8.273h-4.012v-8.107c0-0.649-0.13-1.125-0.391-1.43c-0.261-0.305-0.736-0.457-1.425-0.457
			c-0.783,0-1.364,0.308-1.744,0.926v9.069h-4V42.537C184.564,42.537,188.313,42.537,188.313,42.537z"/>
		<path class="st16" d="M204.2,51.771c0-0.339-0.177-0.613-0.535-0.818c-0.356-0.205-1.034-0.419-2.029-0.641
			c-0.997-0.222-1.82-0.512-2.469-0.873c-0.649-0.36-1.143-0.797-1.483-1.311s-0.511-1.103-0.511-1.768
			c0-1.179,0.488-2.151,1.461-2.915s2.249-1.146,3.822-1.146c1.692,0,3.054,0.384,4.084,1.151c1.029,0.768,1.544,1.777,1.544,3.028
			h-4.012c0-1.029-0.542-1.544-1.625-1.544c-0.419,0-0.771,0.117-1.056,0.351c-0.285,0.233-0.428,0.524-0.428,0.873
			c0,0.356,0.175,0.645,0.522,0.866c0.347,0.222,0.903,0.404,1.668,0.546c0.764,0.142,1.434,0.313,2.012,0.511
			c1.931,0.665,2.896,1.856,2.896,3.572c0,1.172-0.521,2.124-1.561,2.862c-1.04,0.736-2.388,1.103-4.042,1.103
			c-1.101,0-2.081-0.198-2.944-0.594s-1.535-0.934-2.018-1.614s-0.725-1.396-0.725-2.148h3.74c0.015,0.594,0.214,1.027,0.594,1.3
			c0.38,0.272,0.866,0.409,1.459,0.409c0.546,0,0.955-0.11,1.227-0.332C204.063,52.415,204.2,52.128,204.2,51.771z"/>
		<path class="st16" d="M209.021,39.212c0-0.573,0.205-1.043,0.618-1.41c0.412-0.366,0.946-0.55,1.602-0.55s1.191,0.184,1.602,0.55
			s0.617,0.836,0.617,1.41c0,0.574-0.206,1.043-0.617,1.41c-0.412,0.366-0.946,0.55-1.602,0.55s-1.192-0.184-1.602-0.55
			C209.228,40.256,209.021,39.786,209.021,39.212z M213.271,55.38h-4.012V42.537h4.012V55.38z"/>
		<path class="st16" d="M219.518,39.342v3.194h2.113v2.777h-2.113v5.877c0,0.483,0.086,0.818,0.261,1.01
			c0.175,0.19,0.518,0.285,1.034,0.285c0.396,0,0.727-0.024,0.997-0.071v2.86c-0.721,0.229-1.472,0.345-2.255,0.345
			c-1.377,0-2.394-0.324-3.05-0.973s-0.986-1.634-0.986-2.955v-6.374h-1.638v-2.777h1.638v-3.194h3.999V39.342z"/>
		<path class="st16" d="M228.542,55.617c-1.971,0-3.566-0.588-4.783-1.762c-1.219-1.176-1.828-2.705-1.828-4.588v-0.332
			c0-1.314,0.243-2.473,0.73-3.477c0.486-1.005,1.197-1.782,2.131-2.333c0.934-0.55,2.042-0.825,3.324-0.825
			c1.804,0,3.229,0.56,4.273,1.68c1.045,1.119,1.567,2.68,1.567,4.683v1.556h-7.953c0.142,0.721,0.455,1.286,0.937,1.697
			c0.483,0.412,1.107,0.618,1.875,0.618c1.265,0,2.255-0.443,2.968-1.329l1.828,2.16c-0.499,0.689-1.205,1.236-2.119,1.644
			C230.579,55.414,229.595,55.617,228.542,55.617z M228.091,45.385c-1.172,0-1.868,0.775-2.089,2.327h4.036v-0.308
			c0.015-0.641-0.147-1.138-0.488-1.49C229.211,45.561,228.725,45.385,228.091,45.385z"/>
	</g>
	<g>
		
			<linearGradient id="SVGID_7_" gradientUnits="userSpaceOnUse" x1="190.2085" y1="245.0786" x2="190.2085" y2="258.1593" gradientTransform="matrix(1 0 0 1 0 -203)">
			<stop  offset="0" style="stop-color:#FFFFFF"/>
			<stop  offset="0.5072" style="stop-color:#D3D4D4"/>
			<stop  offset="0.7205" style="stop-color:#D1D2D2"/>
			<stop  offset="0.8722" style="stop-color:#C7C8C7"/>
			<stop  offset="1" style="stop-color:#B8BABA"/>
		</linearGradient>
		<path class="st17" d="M188.17,42.316l0.13,1.507c0.885-1.164,2.108-1.744,3.669-1.744c1.338,0,2.336,0.399,2.998,1.2
			c0.66,0.801,1.003,2.003,1.027,3.608v8.273h-4.012v-8.109c0-0.649-0.13-1.125-0.391-1.43c-0.261-0.305-0.736-0.457-1.425-0.457
			c-0.783,0-1.364,0.308-1.744,0.926v9.069h-4V42.316H188.17z"/>
		
			<linearGradient id="SVGID_8_" gradientUnits="userSpaceOnUse" x1="202.2839" y1="245.0774" x2="202.2839" y2="258.3962" gradientTransform="matrix(1 0 0 1 0 -203)">
			<stop  offset="0" style="stop-color:#FFFFFF"/>
			<stop  offset="0.5072" style="stop-color:#D3D4D4"/>
			<stop  offset="0.7205" style="stop-color:#D1D2D2"/>
			<stop  offset="0.8722" style="stop-color:#C7C8C7"/>
			<stop  offset="1" style="stop-color:#B8BABA"/>
		</linearGradient>
		<path class="st18" d="M204.057,51.55c0-0.339-0.177-0.613-0.535-0.818c-0.356-0.205-1.034-0.419-2.029-0.641
			c-0.997-0.222-1.82-0.512-2.469-0.873c-0.649-0.36-1.143-0.797-1.483-1.311c-0.341-0.514-0.511-1.103-0.511-1.768
			c0-1.179,0.488-2.151,1.461-2.915s2.249-1.146,3.822-1.146c1.692,0,3.054,0.384,4.084,1.151c1.029,0.768,1.544,1.777,1.544,3.028
			h-4.012c0-1.029-0.542-1.544-1.625-1.544c-0.419,0-0.771,0.117-1.056,0.351c-0.285,0.233-0.428,0.524-0.428,0.873
			c0,0.356,0.175,0.645,0.522,0.866c0.347,0.222,0.903,0.404,1.668,0.546c0.764,0.142,1.434,0.313,2.012,0.511
			c1.931,0.665,2.896,1.856,2.896,3.572c0,1.172-0.521,2.124-1.561,2.862c-1.04,0.736-2.388,1.103-4.042,1.103
			c-1.101,0-2.081-0.198-2.944-0.594s-1.535-0.934-2.018-1.614s-0.725-1.396-0.725-2.148h3.74c0.015,0.594,0.214,1.027,0.594,1.3
			c0.38,0.272,0.866,0.409,1.459,0.409c0.546,0,0.955-0.11,1.227-0.332C203.92,52.195,204.057,51.906,204.057,51.55z"/>
		
			<linearGradient id="SVGID_9_" gradientUnits="userSpaceOnUse" x1="211.0994" y1="240.0305" x2="211.0994" y2="258.158" gradientTransform="matrix(1 0 0 1 0 -203)">
			<stop  offset="0" style="stop-color:#FFFFFF"/>
			<stop  offset="0.5072" style="stop-color:#D3D4D4"/>
			<stop  offset="0.7205" style="stop-color:#D1D2D2"/>
			<stop  offset="0.8722" style="stop-color:#C7C8C7"/>
			<stop  offset="1" style="stop-color:#B8BABA"/>
		</linearGradient>
		<path class="st19" d="M208.879,38.99c0-0.573,0.205-1.043,0.618-1.41c0.412-0.366,0.946-0.55,1.602-0.55s1.191,0.184,1.602,0.55
			c0.412,0.366,0.617,0.836,0.617,1.41c0,0.574-0.206,1.043-0.617,1.41c-0.412,0.366-0.946,0.55-1.602,0.55s-1.192-0.184-1.602-0.55
			C209.085,40.034,208.879,39.564,208.879,38.99z M213.128,55.158h-4.012V42.316h4.012V55.158z"/>
		
			<linearGradient id="SVGID_10_" gradientUnits="userSpaceOnUse" x1="217.7031" y1="242.1207" x2="217.7031" y2="258.3975" gradientTransform="matrix(1 0 0 1 0 -203)">
			<stop  offset="0" style="stop-color:#FFFFFF"/>
			<stop  offset="0.5072" style="stop-color:#D3D4D4"/>
			<stop  offset="0.7205" style="stop-color:#D1D2D2"/>
			<stop  offset="0.8722" style="stop-color:#C7C8C7"/>
			<stop  offset="1" style="stop-color:#B8BABA"/>
		</linearGradient>
		<path class="st20" d="M219.376,39.121v3.194h2.113v2.777h-2.113v5.877c0,0.483,0.086,0.818,0.261,1.01
			c0.175,0.19,0.518,0.285,1.034,0.285c0.396,0,0.727-0.024,0.997-0.071v2.862c-0.721,0.229-1.472,0.345-2.255,0.345
			c-1.377,0-2.394-0.324-3.05-0.973c-0.657-0.649-0.986-1.634-0.986-2.955v-6.377h-1.638v-2.777h1.638v-3.194h3.999V39.121z"/>
		
			<linearGradient id="SVGID_11_" gradientUnits="userSpaceOnUse" x1="227.8011" y1="245.0786" x2="227.8011" y2="258.3962" gradientTransform="matrix(1 0 0 1 0 -203)">
			<stop  offset="0" style="stop-color:#FFFFFF"/>
			<stop  offset="0.5072" style="stop-color:#D3D4D4"/>
			<stop  offset="0.7205" style="stop-color:#D1D2D2"/>
			<stop  offset="0.8722" style="stop-color:#C7C8C7"/>
			<stop  offset="1" style="stop-color:#B8BABA"/>
		</linearGradient>
		<path class="st21" d="M228.4,55.396c-1.971,0-3.566-0.588-4.783-1.762c-1.219-1.176-1.828-2.705-1.828-4.588v-0.332
			c0-1.314,0.243-2.473,0.73-3.477c0.486-1.005,1.197-1.782,2.131-2.333c0.934-0.55,2.042-0.825,3.324-0.825
			c1.804,0,3.229,0.56,4.273,1.68c1.045,1.119,1.567,2.68,1.567,4.683v1.553h-7.953c0.142,0.721,0.455,1.286,0.937,1.697
			c0.483,0.412,1.107,0.618,1.875,0.618c1.265,0,2.255-0.443,2.968-1.329l1.828,2.16c-0.499,0.689-1.205,1.236-2.119,1.644
			C230.436,55.192,229.453,55.396,228.4,55.396z M227.949,45.163c-1.172,0-1.868,0.775-2.089,2.327h4.036v-0.308
			c0.015-0.641-0.147-1.138-0.488-1.49C229.068,45.339,228.583,45.163,227.949,45.163z"/>
	</g>
	<path class="st9" d="M182.717,44.349c-0.003-0.008-0.008-0.016-0.01-0.024c-0.034-0.084-0.075-0.163-0.11-0.244
		c-0.081-0.184-0.166-0.366-0.258-0.545c-0.052-0.099-0.105-0.198-0.16-0.296c-0.092-0.163-0.189-0.326-0.288-0.483
		c-0.054-0.086-0.106-0.171-0.163-0.257c-0.155-0.227-0.314-0.448-0.488-0.663c-0.047-0.058-0.096-0.111-0.144-0.166
		c-0.137-0.163-0.277-0.322-0.424-0.475c-0.072-0.076-0.146-0.148-0.22-0.22c-0.138-0.136-0.281-0.267-0.427-0.393
		c-0.072-0.062-0.142-0.125-0.214-0.186c-0.214-0.176-0.436-0.347-0.664-0.505c-0.041-0.029-0.085-0.052-0.124-0.08
		c-0.196-0.13-0.398-0.257-0.604-0.372c-0.081-0.047-0.166-0.09-0.25-0.136c-0.181-0.096-0.364-0.185-0.552-0.27
		c-0.081-0.038-0.16-0.076-0.243-0.108c-0.263-0.111-0.533-0.214-0.807-0.299c-0.024-0.008-0.047-0.011-0.071-0.02
		c-0.255-0.079-0.517-0.146-0.779-0.205c-0.087-0.02-0.176-0.035-0.263-0.052c-0.212-0.041-0.428-0.075-0.645-0.099
		c-0.089-0.01-0.176-0.023-0.267-0.032c-0.299-0.029-0.599-0.047-0.906-0.047c-0.308,0-0.614,0.02-0.916,0.047
		c-0.095,0.009-0.186,0.024-0.277,0.034c-0.212,0.025-0.421,0.056-0.627,0.095c-0.099,0.02-0.199,0.038-0.296,0.061
		c-0.212,0.049-0.421,0.104-0.627,0.165c-0.079,0.024-0.158,0.043-0.238,0.07c-0.277,0.089-0.551,0.19-0.816,0.303
		c-0.052,0.023-0.103,0.049-0.153,0.071c-0.214,0.096-0.424,0.199-0.631,0.31c-0.089,0.047-0.175,0.099-0.261,0.148
		c-0.167,0.096-0.332,0.198-0.494,0.304c-0.087,0.058-0.174,0.115-0.26,0.175c-0.171,0.122-0.336,0.247-0.497,0.379
		c-0.062,0.052-0.129,0.099-0.191,0.153c-0.212,0.18-0.418,0.37-0.613,0.566c-0.07,0.068-0.132,0.141-0.199,0.212
		c-0.13,0.138-0.258,0.281-0.38,0.424c-0.076,0.092-0.148,0.184-0.223,0.279c-0.106,0.137-0.209,0.279-0.308,0.421
		c-0.068,0.096-0.137,0.193-0.201,0.294c-0.11,0.168-0.212,0.346-0.312,0.522c-0.054,0.095-0.11,0.19-0.162,0.288
		c-0.115,0.223-0.223,0.454-0.323,0.685c-0.047,0.11-0.089,0.223-0.132,0.337c-0.041,0.104-0.085,0.205-0.122,0.31
		c0.003,0.001,0.005,0.003,0.008,0.005c-0.364,1.043-0.571,2.161-0.571,3.332c0,5.519,4.398,9.994,9.824,9.994
		c5.424,0,9.824-4.473,9.824-9.994C183.459,46.811,183.193,45.524,182.717,44.349C182.716,44.349,182.717,44.349,182.717,44.349z"/>
	
		<linearGradient id="SVGID_12_" gradientUnits="userSpaceOnUse" x1="173.4782" y1="498.6552" x2="173.4782" y2="518.6423" gradientTransform="matrix(1 0 0 1 0 -460.8)">
		<stop  offset="0" style="stop-color:#FFFFFF"/>
		<stop  offset="0.3126" style="stop-color:#E1E0DF"/>
		<stop  offset="0.4767" style="stop-color:#DFDFDE"/>
		<stop  offset="0.7198" style="stop-color:#C7C7C7"/>
	</linearGradient>
	<path class="st22" d="M171.34,42.454c0.718,0,7.844,4.116,7.844,5.421c0,1.301-6.932,5.421-7.844,5.421
		C170.43,53.293,170.624,42.454,171.34,42.454z M173.478,37.855c5.426,0,9.824,4.475,9.824,9.994c0,5.519-4.398,9.994-9.824,9.994
		c-5.424,0-9.824-4.475-9.824-9.995S168.053,37.855,173.478,37.855z"/>
	<path class="st4" d="M173.478,37.855c-4.275,0-7.911,2.779-9.26,6.657c1.696,1.226,3.966,2.095,6.529,2.431
		c0.063-2.366,0.277-4.489,0.594-4.489c0.531,0,4.567,2.255,6.633,3.952c1.809-0.535,3.382-1.353,4.586-2.371
		C181.086,40.406,177.576,37.855,173.478,37.855z"/>
	<path class="st23" d="M171.34,42.454c0.718,0,7.844,4.116,7.844,5.421c0,1.301-6.932,5.421-7.844,5.421
		C170.43,53.293,170.624,42.454,171.34,42.454z"/>
	<g>
		<path class="st24" d="M171.34,42.454c-0.09,0-0.174,0.175-0.246,0.483c0.912,0.133,7.797,4.131,7.797,5.414
			c0,0.049-0.014,0.103-0.032,0.16c0.206-0.25,0.326-0.467,0.326-0.636C179.182,46.571,172.057,42.454,171.34,42.454z"/>
	</g>
	<path class="st7" d="M170.746,46.942c0.756,0.099,1.538,0.151,2.337,0.151c1.742,0,3.396-0.246,4.888-0.688
		c-2.066-1.699-6.101-3.95-6.633-3.95C171.025,42.454,170.81,44.577,170.746,46.942z"/>
	<g>
		<g>
			<path class="st0" d="M234.063,39.306h-0.418v1.165h-0.171v-1.165h-0.418v-0.141h1.01L234.063,39.306L234.063,39.306z"/>
			<path class="st0" d="M234.48,39.164l0.427,1.064l0.427-1.064h0.223v1.305h-0.174v-0.507l0.016-0.55l-0.429,1.058h-0.132
				l-0.427-1.055l0.016,0.547v0.508h-0.171v-1.305C234.257,39.164,234.48,39.164,234.48,39.164z"/>
		</g>
	</g>
</g>
<g>
	<path class="st0" d="M141.036,36.12c0-0.174,0.041-0.334,0.12-0.483c0.08-0.148,0.191-0.265,0.333-0.351
		c0.142-0.085,0.295-0.128,0.46-0.128s0.317,0.043,0.46,0.128c0.141,0.086,0.252,0.201,0.332,0.351s0.12,0.309,0.12,0.483
		c0,0.168-0.038,0.327-0.115,0.475c-0.077,0.147-0.186,0.266-0.329,0.356c-0.142,0.09-0.298,0.134-0.467,0.134
		c-0.168,0-0.324-0.044-0.466-0.133c-0.141-0.089-0.252-0.206-0.329-0.353C141.076,36.449,141.036,36.291,141.036,36.12z
		 M141.184,36.118c0,0.147,0.035,0.284,0.103,0.409c0.068,0.125,0.162,0.223,0.28,0.295c0.118,0.072,0.244,0.106,0.383,0.106
		c0.138,0,0.266-0.037,0.384-0.108c0.118-0.072,0.212-0.171,0.279-0.295c0.067-0.124,0.101-0.26,0.101-0.408
		c0-0.147-0.034-0.281-0.101-0.405c-0.067-0.124-0.16-0.222-0.279-0.293s-0.246-0.108-0.384-0.108c-0.137,0-0.265,0.035-0.384,0.106
		c-0.119,0.071-0.212,0.168-0.28,0.294C141.219,35.839,141.184,35.973,141.184,36.118z M141.761,36.216v0.435h-0.181v-1.092h0.355
		c0.13,0,0.233,0.029,0.305,0.084c0.072,0.056,0.109,0.138,0.109,0.244c0,0.105-0.056,0.186-0.165,0.242
		c0.105,0.043,0.157,0.13,0.158,0.262v0.079c0,0.075,0.008,0.127,0.022,0.16v0.02h-0.186c-0.013-0.032-0.018-0.086-0.018-0.166
		c0-0.079-0.001-0.125-0.004-0.141c-0.014-0.082-0.07-0.125-0.168-0.129C141.989,36.216,141.761,36.216,141.761,36.216z
		 M141.761,36.051h0.201c0.062-0.001,0.111-0.016,0.149-0.044c0.038-0.028,0.056-0.066,0.056-0.111c0-0.062-0.016-0.106-0.051-0.132
		c-0.034-0.025-0.092-0.039-0.179-0.039h-0.177V36.051L141.761,36.051z"/>
</g>
</svg>
