<?xml version="1.0" encoding="utf-8"?>
<!-- Generator: Adobe Illustrator 22.1.0, SVG Export Plug-In . SVG Version: 6.00 Build 0)  -->
<svg version="1.1" id="Layer_1" xmlns="http://www.w3.org/2000/svg" xmlns:xlink="http://www.w3.org/1999/xlink" x="0px" y="0px"
	 viewBox="0 0 200 155" style="enable-background:new 0 0 200 155;" xml:space="preserve">
<style type="text/css">
	.st0{opacity:0.7;fill:#768693;enable-background:new    ;}
	.st1{fill:#FFFFFF;}
</style>
<circle class="st0" cx="100" cy="77.5" r="75.3"/>
<g>
	<path class="st1" d="M75.7,91.7C73.3,90,73,89.4,72.8,88c-0.2-1.1-0.1-1.5,0-1.6c0,0,0.1-0.1,0.3-0.1c0.5,0,0.9,0.3,1.2,2l0.3,1.9
		h5.4l-0.3-2c-0.3-1.7-1.2-6.8-7.3-6.8c-1.9,0-3.3,0.5-4.2,1.6c-1.1,1.3-1.4,3.2-0.9,5.9c0.7,3.9,2.5,5.5,5.8,7.9
		c2.9,2.2,3.4,2.8,3.8,5.1c0.2,1.2,0,1.6-0.1,1.7c-0.1,0.1-0.2,0.2-0.4,0.2c-0.7,0-1.2-0.4-1.5-2.1l-0.4-2.1h-5.6l0.4,2
		c0.8,4.8,3.4,7.1,7.7,7.1c2.1,0,3.6-0.6,4.5-1.7c1.1-1.3,1.4-3.3,0.9-6.1C81.6,96.5,80,94.8,75.7,91.7z"/>
	<path class="st1" d="M93.1,85.3l-0.1-0.4h-5c0,0,0,0.5,0,0.6c-0.6-0.5-1.4-0.9-2.7-0.9c-1.2,0-2.2,0.4-2.8,1.2
		c-1.2,1.4-1.1,3.7-0.8,5.4l1.3,7.4c0.5,3.1,1.6,6.6,5.4,6.6c1.1,0,2-0.4,2.6-1.1l1.7,8.9h5.2l-3.9-21.7
		C93.6,88.5,93.3,86.4,93.1,85.3z M90,100.2c-0.1,0.1-0.2,0.1-0.4,0.1c-0.7,0-1.1-1-1.2-1.8l-1.3-7.6c-0.1-0.6-0.1-1.1,0.1-1.3
		c0,0,0.1-0.2,0.5-0.2c0.7,0,1,0.5,1.3,2.1l1.1,6.6C90.1,98.5,90.4,99.8,90,100.2z"/>
	<path class="st1" d="M108.4,102.9l-2-11.2h-4.6l2,11.2c0.2,1,0.1,1.4,0,1.5c0,0-0.1,0.1-0.4,0.1c-0.2,0-0.7,0-0.9-1.3l-2.1-11.5
		h-4.6l2.3,12.5c0.7,3.7,2.7,4.4,4.2,4.4c1.1,0,2-0.3,2.5-0.9c0,0.2,0.1,0.3,0.1,0.4l0.1,0.3h4.4l-0.1-0.5
		C109.2,107.1,108.9,105.6,108.4,102.9z"/>
	<path class="st1" d="M121,104.2l-1.8-9.6c-0.7-3.5-2.8-5.3-6.5-5.3c-1.9,0-3.3,0.5-4.1,1.5c-0.8,1-1,2.4-0.7,4.3l0.1,0.6l5.1,0
		l-0.2-0.9c-0.1-0.8-0.1-1,0-1.1c0-0.1,0.1-0.1,0.3-0.1c0.4,0,0.6,0.1,0.9,1.5l0.3,1.7c-2.3,0-3.8,0.6-4.8,1.7
		c-0.9,1.1-1.1,2.6-0.8,4.6l0.1,0.3c0.5,2.8,2.2,5.7,5.2,5.7h0c1.2,0,2.1-0.4,2.7-1.1c0.1,0.2,0.2,0.4,0.2,0.6l0.1,0.2l4.9,0
		l-0.1-0.5C121.6,107.5,121.2,105.4,121,104.2z M115.5,104.5c0,0-0.1,0.1-0.4,0.1c-0.2,0-0.9,0-1.2-1.6l0-0.2
		c-0.2-0.8-0.1-1.4,0.2-1.7c0.2-0.2,0.6-0.4,1.1-0.4h0.1l0.3,1.8C115.7,103.9,115.6,104.4,115.5,104.5z"/>
	<path class="st1" d="M135.2,108.5c-0.2-1-0.5-2.5-0.9-5.2l-3.6-20.4h-5.1l1.3,7.1c-0.8-0.5-1.8-0.6-2.4-0.6c-1.2,0-2.1,0.4-2.7,1.1
		c-0.9,1-1.1,2.7-0.7,4.9l1.3,7.6c0.5,2.7,1.5,6.2,5.1,6.2c1.2,0,2.1-0.4,2.7-1.2c0.1,0.2,0.3,0.9,0.3,0.9h4.9L135.2,108.5z
		 M129,104.4c0,0.1-0.1,0.1-0.4,0.1c-0.5,0-0.9-0.2-1.2-1.7l-1.3-7.3c-0.2-0.9,0-1.2,0.1-1.3c0,0,0.1-0.1,0.4-0.1
		c0.6,0,1,0.3,1.3,2.2l1.1,6.2C129.2,103.6,129.2,104.2,129,104.4z"/>
	<polygon class="st1" points="70.4,78 73.7,78.8 77.3,44.4 84.1,44 85.3,41.3 63.7,40.3 64.6,45.4 71,44.7 	"/>
	<path class="st1" d="M82.7,51.6C80.7,54.5,80,59,80.8,64c0.6,3.6,3.1,12.1,12.1,12.1c0.7,0,1.5-0.1,2.3-0.2c2.4-0.3,4.5-1,5.7-1.8
		l0.3-0.2L99,69.7l-0.4,0.3c-1.1,0.7-2.4,1.2-4,1.5c-0.1,0-0.3,0-0.4,0c-0.2,0-0.3,0-0.5,0c-0.2,0-0.5,0-0.7,0c-2.9,0-6.8-0.9-8-8.4
		l15-1l0-0.4c-0.1-1.4-0.2-2.1-0.4-3.3c-1.2-6.8-4.4-10.2-9.5-10.2c-0.3,0-0.5,0-0.9,0c-0.1,0-0.2,0-0.3,0c-0.2,0-0.3,0-0.4,0
		C86,48.6,84.1,49.7,82.7,51.6z M88.7,51.8c0.2,0,0.4,0,0.6,0c2.4,0,4.3,2.4,5.1,6.5l-9.2,1.1C84.8,55.9,85.6,52.2,88.7,51.8z"/>
	<path class="st1" d="M111,76.6c0.4,0.1,0.8,0.1,1.1,0.1c2.4,0,4.5-1.1,5.7-2.4l-1.6,12.8l4-0.6l5.1-27.6l1.4-8.2l-6-2.7l-0.1,4
		c-1.2-1.9-3-3.1-5.2-3.4c-0.4-0.1-0.8-0.1-1.1-0.1c-4.4,0-9.5,3.7-10.9,11.9c-0.6,3.2-1.1,9.1,1.8,13
		C106.7,75.2,108.6,76.3,111,76.6z M108.9,60.5c0.9-4.9,3.1-7.9,6.1-7.9c0.2,0,0.4,0,0.7,0.1c2.8,0.4,4.4,3.5,3.9,7.4l-0.8,6.4
		c-0.5,4.5-3.4,5.7-5,5.7c-0.2,0-0.3,0-0.5,0c-1.3-0.2-2.4-0.8-3.1-1.9C108.4,67.8,108.4,63.6,108.9,60.5z"/>
</g>
</svg>
