<?xml version="1.0" encoding="utf-8"?>
<!-- Generator: Adobe Illustrator 22.1.0, SVG Export Plug-In . SVG Version: 6.00 Build 0)  -->
<svg version="1.1" id="Layer_1" xmlns="http://www.w3.org/2000/svg" xmlns:xlink="http://www.w3.org/1999/xlink" x="0px" y="0px"
	 viewBox="0 0 9.634 15" style="enable-background:new 0 0 9.634 15;" xml:space="preserve">
<style type="text/css">
	.st0{fill:#00B3E3;}
	.st1{fill:#0075C9;}
	.st2{fill:#FFFFFF;}
</style>
<g>
	<rect x="0.081" y="3.7" class="st0" width="6.966" height="5.466"/>
	<polygon class="st1" points="7.047,3.7 7.047,9.166 0.081,9.166 1.315,10.048 8.369,10.048 8.369,4.935 	"/>
	<polygon class="st2" points="1.226,8.021 1.315,4.758 0.697,4.846 0.61,4.493 2.55,4.582 2.461,4.758 1.844,4.758 1.492,8.021 	"/>
	<g>
		<path class="st2" d="M4.136,7.668c-0.176,0-0.353,0.088-0.529,0.088c-0.881,0.176-1.233-0.528-1.41-1.057
			c-0.089-0.794,0.088-1.411,0.706-1.5H2.99c0.617,0,0.882,0.44,0.969,0.969c0,0.088,0,0.176,0,0.353H2.55
			c0.088,0.793,0.529,0.882,0.882,0.882H3.52c0.176,0,0.353-0.088,0.44-0.176L4.136,7.668z M3.519,6.169
			C3.432,5.728,3.255,5.464,2.903,5.464C2.637,5.551,2.55,5.904,2.55,6.257L3.519,6.169z"/>
		<path class="st2" d="M5.636,8.902L5.812,7.58l0,0C5.723,7.755,5.371,7.932,5.107,7.844C4.401,7.755,4.312,6.962,4.401,6.346
			c0.176-0.794,0.706-1.147,1.146-1.147c0.176,0,0.44,0.176,0.529,0.44l0,0v-0.44l0.529,0.265L6.429,6.169L5.9,8.814L5.636,8.902z
			 M5.989,6.346c0.088-0.353-0.088-0.706-0.44-0.793C5.194,5.464,4.93,5.817,4.841,6.346c-0.088,0.44,0,1.058,0.44,1.146
			c0.264,0,0.529-0.088,0.617-0.529L5.989,6.346z"/>
	</g>
</g>
</svg>
