<?xml version="1.0" encoding="utf-8"?>
<!-- Generator: Adobe Illustrator 25.3.1, SVG Export Plug-In . SVG Version: 6.00 Build 0)  -->
<svg version="1.1" id="Layer_1" xmlns="http://www.w3.org/2000/svg" xmlns:xlink="http://www.w3.org/1999/xlink" x="0px" y="0px"
	 viewBox="0 0 100 50" style="enable-background:new 0 0 100 50;" xml:space="preserve">
<style type="text/css">
	.st0{display:none;}
	.st1{display:inline;fill:#412F17;}
	.st2{fill:#412F17;}
	.st3{fill:#A8765B;}
	.st4{fill:#F2DFC1;}
	.st5{fill:#FF0000;}
	.st6{fill:#7FC2DC;}
</style>
<g class="st0">
	<path class="st1" d="M338.034,129.522c-0.018,1.022-0.202,2.035-0.529,3.004c-0.371,0.95-0.821,1.876-1.416,2.709
		c-1.145,1.699-2.651,3.118-4.235,4.401c-3.199,2.554-6.823,4.512-10.516,6.246c-7.424,3.431-15.245,5.909-23.12,8.064
		c-15.785,4.246-31.906,7.147-48.092,9.393c-32.388,4.502-65.098,6.566-97.814,6.959c-16.361,0.176-32.734-0.069-49.094-0.831
		c-16.358-0.775-32.713-1.982-49.002-3.988c-16.277-2.059-32.529-4.674-48.529-8.857c-7.984-2.147-15.926-4.614-23.615-8.122
		c-3.832-1.782-7.624-3.79-11.14-6.565c-1.743-1.402-3.449-2.974-4.848-5.018c-0.714-0.998-1.303-2.158-1.778-3.386
		c-0.437-1.261-0.695-2.622-0.717-4.007c0.015-1.385,0.273-2.748,0.711-4.009c0.475-1.229,1.064-2.389,1.778-3.387
		c1.4-2.044,3.105-3.616,4.849-5.019c3.517-2.776,7.309-4.784,11.141-6.566c7.689-3.508,15.632-5.975,23.616-8.122
		c7.989-2.131,16.065-3.787,24.161-5.229c8.099-1.427,16.224-2.63,24.368-3.636c16.287-2.022,32.645-3.215,49.002-3.993
		c16.36-0.761,32.733-1.005,49.095-0.827c32.717,0.397,65.428,2.459,97.815,6.969c16.187,2.247,32.307,5.147,48.092,9.396
		c7.875,2.155,15.696,4.633,23.12,8.064c3.693,1.734,7.317,3.692,10.516,6.246c1.584,1.282,3.091,2.702,4.235,4.401
		c0.595,0.833,1.045,1.759,1.416,2.709C337.832,127.487,338.016,128.499,338.034,129.522z M338.034,129.522
		c-0.022-1.022-0.211-2.033-0.542-2.999c-0.375-0.947-0.829-1.869-1.426-2.697c-1.15-1.69-2.66-3.1-4.247-4.372
		c-3.205-2.535-6.832-4.472-10.528-6.187c-7.43-3.392-15.254-5.831-23.131-7.947c-15.8-4.139-31.957-6.735-48.142-8.782
		c-16.201-1.999-32.489-3.195-48.784-3.967c-16.298-0.757-32.615-1-48.921-0.822c-32.605,0.394-65.208,2.461-97.424,6.938
		c-16.096,2.231-32.117,5.127-47.706,9.314c-7.768,2.124-15.471,4.574-22.636,7.888c-3.557,1.667-7.015,3.555-9.904,5.868
		c-2.885,2.269-5.118,5.158-5.057,7.767c-0.072,2.612,2.171,5.503,5.054,7.772c2.889,2.313,6.347,4.201,9.905,5.868
		c7.166,3.314,14.868,5.765,22.637,7.888c15.585,4.206,31.61,7.086,47.706,9.321c32.215,4.491,64.82,6.544,97.425,6.939
		c16.307,0.177,32.624-0.068,48.922-0.826c16.295-0.774,32.584-1.968,48.784-3.973c16.185-2.048,32.342-4.643,48.142-8.786
		c7.877-2.116,15.701-4.555,23.131-7.947c3.696-1.715,7.323-3.653,10.528-6.187c1.587-1.273,3.097-2.682,4.247-4.372
		c0.597-0.829,1.051-1.75,1.426-2.697C337.823,131.555,338.012,130.544,338.034,129.522z"/>
</g>
<g class="st0">
	<path class="st1" d="M338.034,143.34c-0.014,1.02-0.218,2.028-0.565,2.986c-0.373,0.949-0.882,1.839-1.478,2.665
		c-1.205,1.648-2.737,3.026-4.351,4.261c-3.259,2.454-6.902,4.343-10.618,5.999c-7.461,3.286-15.282,5.671-23.159,7.728
		c-15.78,4.071-31.867,6.856-48.016,9.012c-32.311,4.325-64.92,6.321-97.536,6.712c-16.311,0.177-32.633-0.051-48.944-0.773
		c-16.309-0.735-32.616-1.882-48.863-3.798c-16.236-1.968-32.45-4.466-48.436-8.47c-7.98-2.046-15.918-4.418-23.635-7.773
		c-3.849-1.699-7.656-3.633-11.227-6.292c-1.772-1.347-3.505-2.871-4.973-4.853c-0.726-0.997-1.377-2.11-1.869-3.354
		c-0.469-1.26-0.758-2.64-0.775-4.049c0.011-1.41,0.3-2.792,0.77-4.052c0.492-1.245,1.143-2.358,1.869-3.356
		c1.468-1.983,3.202-3.507,4.974-4.854c3.571-2.66,7.379-4.594,11.228-6.293c7.717-3.355,15.655-5.727,23.635-7.773
		c15.982-4.023,32.2-6.507,48.435-8.478c16.245-1.932,32.555-3.065,48.863-3.803c16.311-0.721,32.633-0.948,48.945-0.769
		c32.617,0.395,65.227,2.389,97.537,6.722c16.149,2.157,32.237,4.941,48.016,9.015c7.876,2.057,15.698,4.441,23.158,7.728
		c3.716,1.656,7.359,3.546,10.618,6c1.615,1.235,3.146,2.614,4.351,4.261c0.596,0.827,1.104,1.716,1.478,2.665
		C337.816,141.312,338.02,142.32,338.034,143.34z M338.034,143.34c-0.019-1.02-0.227-2.026-0.578-2.98
		c-0.377-0.946-0.889-1.831-1.487-2.653c-1.21-1.639-2.745-3.007-4.363-4.233c-3.265-2.434-6.911-4.304-10.63-5.941
		c-7.466-3.247-15.291-5.593-23.169-7.611c-15.794-3.964-31.916-6.445-48.064-8.401c-16.162-1.91-32.405-3.046-48.654-3.778
		c-16.251-0.717-32.519-0.943-48.778-0.765c-32.509,0.392-65.015,2.391-97.161,6.693c-16.062,2.142-32.054,4.923-47.645,8.939
		c-7.775,2.028-15.482,4.387-22.692,7.566c-3.586,1.595-7.067,3.419-10.019,5.647c-1.46,1.113-2.792,2.337-3.74,3.64
		c-0.468,0.651-0.837,1.313-1.096,1.963c-0.229,0.652-0.352,1.284-0.373,1.914c0.015,0.63,0.138,1.264,0.368,1.916
		c0.259,0.65,0.628,1.313,1.096,1.964c0.948,1.304,2.281,2.528,3.741,3.641c2.953,2.229,6.435,4.053,10.02,5.648
		c7.211,3.179,14.918,5.538,22.693,7.566c15.587,4.035,31.583,6.801,47.645,8.946c32.145,4.317,64.653,6.301,97.162,6.695
		c16.258,0.177,32.527-0.05,48.778-0.768c16.249-0.734,32.492-1.868,48.654-3.785c16.148-1.958,32.271-4.438,48.064-8.405
		c7.878-2.018,15.703-4.364,23.169-7.611c3.719-1.637,7.365-3.507,10.63-5.941c1.617-1.225,3.152-2.594,4.363-4.233
		c0.598-0.822,1.11-1.708,1.487-2.653C337.807,145.366,338.015,144.36,338.034,143.34z"/>
</g>
<g>
	<g>
		<path class="st2" d="M78.114,12.012c-0.503-0.928-1.673-0.991-2.375-0.935c-0.437-1.437-1.165-2.85-2.348-4.014
			c-3.086-3.037-7.339-4.779-11.669-4.779c-1.265,0-2.519,0.15-3.727,0.444c-2.429,0.593-4.656,1.903-6.439,3.789
			c-0.251,0.266-0.493,0.543-0.723,0.828c-0.668-0.429-1.758-0.784-2.781,0.418c-1.139,1.339-0.108,2.774,0.611,3.514
			c-0.516,1.637-0.663,2.039-0.674,2.07c-0.066,0.175-0.1,0.36-0.1,0.546c0,0.629,0.073,3.856,1.51,5.643
			c0.126,0.156,0.275,0.321,0.441,0.49c-0.204,0.045-0.395,0.131-0.563,0.255c-0.996-0.798-2.337-1.547-3.866-1.547
			c-0.071,0-0.142,0.002-0.214,0.005c-1.548,0.072-2.761,0.732-3.417,1.857c-0.51,0.876-0.63,1.948-0.369,3.067
			c-0.215-0.008-0.461-0.014-0.719-0.014c-0.722,0-1.289,0.046-1.733,0.14c-0.142,0.03-0.276,0.06-0.403,0.091
			c-0.043-0.445-0.175-0.885-0.495-1.285c-0.363-0.454-0.831-0.98-0.85-1.002c-0.229-0.257-0.534-0.428-0.865-0.491
			c-0.261-0.223-0.585-0.35-0.921-0.367c-0.155-0.022-0.437-0.062-0.792-0.062c-1.389,0-2.604,0.623-3.421,1.755
			c-0.934,1.293-1.379,2.765-1.559,3.913c-0.493-0.728-1.271-2.712-1.962-4.475c-0.742-1.892-1.509-3.849-2.323-5.45
			c-0.75-1.474-2.175-2.695-4.236-3.63c-2.348-1.065-4.757-1.405-4.858-1.419c-0.071-0.01-0.141-0.014-0.211-0.014
			c-0.62,0-1.19,0.374-1.429,0.961c-0.266,0.653-0.056,1.403,0.511,1.823c0.029,0.021,1.402,1.043,3.023,2.501
			c1.298,1.168,1.623,2.755,1.861,5.87c0.262,3.431,1.369,5.729,3.203,9.536c0.128,0.265,0.26,0.539,0.396,0.822
			c1.455,3.03,4.857,6.644,9.837,10.452c1.563,1.195,6.199,2.914,7.112,3.247c0.173,0.063,0.351,0.093,0.528,0.093
			c0.244,0,0.483-0.058,0.699-0.167c2.491,1.385,5.653,1.386,7.023,1.386c0.482,0,0.932-0.009,1.329-0.017l0.22-0.004
			c5.786-0.11,11.044-1.65,15.208-4.454c4.324-2.912,7.156-6.868,8.419-11.757c0.741-2.872,0.319-8.051,0.3-8.27
			c-0.027-0.318-0.153-0.612-0.349-0.85c0.534-0.485,0.939-0.954,1.149-1.358c0.188-0.359,0.418-0.87,0.601-1.332
			c0.154-0.389,0.311-0.785,0.342-1.189c0.078-0.41,0.257-1.503,0.284-2.912c0.322-0.09,0.727-0.219,0.986-0.356
			C77.8,15.12,78.856,13.381,78.114,12.012z"/>
		<g>
			<path class="st3" d="M71.497,24.25c-0.69,0.367-1.612,0.801-2.64,1.135c-2.196,0.713-4.735,0.2-4.735,0.2
				s0.485,0.941,0.656,2.481c0.171,1.54-0.114,2.081-0.114,2.081s-0.428-1.055-0.656-1.996c-0.228-0.941-1.455-2.823-2.139-3.992
				c-0.685-1.169-2.111-1.796-2.111-1.796l-0.057,1.768l-0.627-1.796l-1.312,0.029l0.342,2.224l-0.827-1.882
				c0,0-0.685,0.656-0.799,1.682c-0.114,1.026,0.599,2.538,1.882,4.819c1.283,2.281,4.849,4.876,6.902,5.56
				c1.43,0.477,3.248,0.068,4.22-0.224c0.423-0.127,0.686-0.232,0.686-0.232s-0.408,0.38-1.105,0.766
				c-0.718,0.398-1.744,0.802-2.945,0.802c-2.367,0-4.107-1.654-4.107-1.654s-1.911-1.568-4.164-4.191
				c-2.253-2.623-2.396-6.387-2.396-6.387s-1.084-0.542-1.854-0.884c-0.77-0.342-1.825-1.568-1.825-1.568s-0.428,0.143-0.799,0.257
				c-0.371,0.114-0.77,0.086-0.77,0.086s0.913,1.34,1.369,1.882c0.456,0.542,1.169,1.112,0.342,4.049
				c-0.827,2.937-5.932,1.711-6.931,1.14c-0.998-0.57-2.424-2.623-2.424-2.623s-1.141,0.656-1.569,1.026
				c-0.428,0.371-2.481,2.538-2.481,2.538s0,0-0.827,1.369c-0.827,1.369-1.084,4.391-1.084,4.391l-0.799,0.285v-2.623
				c0,0-1.825-0.855-2.909-1.312c-1.084-0.456-3.251-2.794-4.392-4.277c-1.141-1.483-2.795-6.9-4.506-10.264
				c-0.679-1.336-2.069-2.276-3.498-2.924c-2.17-0.984-4.431-1.295-4.431-1.295s1.426,1.055,3.137,2.595
				c1.711,1.54,2.111,3.536,2.367,6.9c0.257,3.364,1.398,5.531,3.451,9.808c2.054,4.277,7.929,8.782,9.383,9.894
				c1.455,1.112,6.702,3.022,6.702,3.022l-1.483-1.825c0,0,0.2,0.513-0.599-1.198c-0.799-1.711-0.742-4.762-0.742-4.762
				s0.029-0.713,0.086-2.195s0.342-3.593,1.797-5.389c1.455-1.796,4.107-0.77,5.333,0.057c1.226,0.827,0.485,4.847,0.485,4.847
				s1.654-0.855,2.139-1.083c0.485-0.228,3.023-0.656,5.476,0.342c2.453,0.998,2.966,3.193,2.966,3.193s0.257,0.485,0.399,1.255
				c0.143,0.77,0.029,1.312,0.029,1.312s-0.599-1.169-1.169-2.623c-0.57-1.454-2.139-2.024-4.535-2.652
				c-2.396-0.627-5.676,1.682-5.676,1.682l-0.77-0.228c0,0,0.371-2.737,0.257-3.992c-0.114-1.255-0.799-1.711-0.799-1.711
				l-0.029,1.14c0,0-0.314,0.57-0.314,0.656c0,0.086-0.314-1.996-0.371-2.081c-0.057-0.086-0.542-0.029-0.542-0.029l0.228,1.597
				c0,0-0.542,0.57-0.627,0.599c-0.086,0.029,0-2.252,0-2.252s-0.97,0-2.025,0.884c-1.055,0.884-1.711,7.1-0.456,11.519
				c1.255,4.419,7.187,4.191,10.182,4.134c2.995-0.057,8.956-0.542,14.375-4.191c5.419-3.65,7.102-8.212,7.786-10.863
				c0.685-2.652,0.257-7.755,0.257-7.755S72.281,23.833,71.497,24.25z"/>
			<path class="st3" d="M32.007,29.615c0,0,1.683,1.244,2.253,1.586c0.57,0.342,1.226,0.542,1.312,0.57c0.086,0.029,0.742,0,0.742,0
				s1.198-2.595,1.911-3.364c0.713-0.77,3.793-3.165,3.793-3.165s-1.797-0.143-2.738,0.057c-0.941,0.2-1.369,0.399-1.341,0.485
				c0.029,0.086-0.314,2.024-0.627,2.794c-0.314,0.77-0.513,1.037-0.513,1.037h-0.97c0,0,1.055-2.406,1.084-3.603
				c0.029-1.198,0.285-2.024-0.057-2.452c-0.342-0.428-0.799-0.941-0.799-0.941s-1.112,1.739-1.055,1.597
				c0.057-0.143,0.086-0.713,0.086-0.713l0.257-1.226c-0.114,0.029-1.768-0.485-2.881,1.055c-1.112,1.54-1.398,3.45-1.369,4.334
				c0.029,0.884-0.002,1.397-0.002,1.397L32.007,29.615z"/>
			<path class="st3" d="M46.496,27.865c0.656,0.171,1.996,0.257,1.996,0.257s-0.998-1.825-0.827-1.625
				c0.171,0.2,1.569,1.511,1.569,1.511l0.941-0.855l-1.34-1.882c0,0,1.74,1.835,1.882,1.73c0.143-0.105,1.255-1.388-0.884-3.954
				c0,0-2.111-2.88-4.563-2.766c-2.453,0.114-2.966,2.11-1.968,4.077C44.3,26.325,45.84,27.694,46.496,27.865z"/>
			<path class="st3" d="M63.352,3.848C51.335,2.29,49.434,13.894,49.434,13.894s0,3.222,1.169,4.676
				c1.169,1.454,5.02,3.963,5.02,3.963s1.683-1.967,3.594-1.312s2.824,1.54,3.251,1.967c0.428,0.428,0.77,1.226,0.77,1.226
				s4.592,0.029,6.588-0.969c1.996-0.998,3.565-2.338,3.907-2.994c0.342-0.656,0.827-1.853,0.77-1.967
				C74.504,18.485,76.796,5.592,63.352,3.848z M56.764,11.87c-0.977,0-1.768-0.843-1.768-1.882c0-1.039,0.792-1.882,1.768-1.882
				c0.977,0,1.768,0.843,1.768,1.882C58.532,11.027,57.74,11.87,56.764,11.87z M69.185,13.723c-0.969,0-1.754-0.785-1.754-1.754
				s0.785-1.754,1.754-1.754s1.754,0.785,1.754,1.754S70.154,13.723,69.185,13.723z"/>
		</g>
		<g>
			<path class="st4" d="M57.848,30.032c-2.253-2.623-2.396-6.387-2.396-6.387s-1.084-0.542-1.854-0.884
				c-0.77-0.342-1.825-1.568-1.825-1.568s-0.428,0.143-0.799,0.257c-0.371,0.114-0.77,0.086-0.77,0.086s0.913,1.34,1.369,1.882
				c0.456,0.542,1.169,1.112,0.342,4.049c-0.827,2.937-5.932,1.711-6.931,1.14c-0.998-0.57-2.424-2.623-2.424-2.623
				s-1.141,0.656-1.569,1.026c-0.428,0.371-2.481,2.538-2.481,2.538s0,0-0.827,1.369c0,0-0.143,2.195-0.143,3.393
				s0.742,3.108,0.742,3.108s-0.799-7.556,4.021-8.554c4.82-0.998,3.765,5.931,3.765,5.931s0.314-0.855,1.797-1.226
				c1.483-0.371,2.196-0.456,4.991,0.171c2.795,0.627,3.793,3.393,3.793,3.393s2.339-0.342,3.366-0.912
				c1.027-0.57,1.996-1.996,1.996-1.996S60.101,32.655,57.848,30.032z"/>
			<path class="st4" d="M74.504,18.485c-0.057-0.114-0.998-3.136-2.938-3.564c-1.939-0.428-4.478,0.143-5.105,0.342
				c-0.627,0.2-3.137,0.713-3.28,0.713c-0.143,0-1.198,0-1.198,0s-2.824-1.14-4.107-1.939s-1.882-1.853-3.907-1.853
				c-2.025,0-4.535,1.711-4.535,1.711s0,3.222,1.169,4.676c1.169,1.454,5.02,3.963,5.02,3.963s1.683-1.967,3.594-1.312
				s2.824,1.54,3.251,1.967c0.428,0.428,0.77,1.226,0.77,1.226s4.592,0.029,6.588-0.969c1.996-0.998,3.565-2.338,3.907-2.994
				C74.076,19.796,74.561,18.599,74.504,18.485z"/>
			<path class="st4" d="M57.534,10.539c0.273,0,0.494-0.221,0.494-0.494c0-0.273-0.221-0.494-0.494-0.494
				c-0.273,0-0.494,0.221-0.494,0.494C57.04,10.318,57.261,10.539,57.534,10.539z"/>
			<path class="st4" d="M69.684,12.183c0.276,0,0.499-0.223,0.499-0.499s-0.223-0.499-0.499-0.499c-0.276,0-0.499,0.223-0.499,0.499
				S69.408,12.183,69.684,12.183z"/>
		</g>
		<g>
			<path class="st2" d="M72.983,16.653c-0.008,0-0.81-0.012-1.664-0.012c-0.502,0-0.924,0.004-1.255,0.012
				c-1.102,0.027-3.179,0.122-3.2,0.123c-0.09,0.004-0.16,0.057-0.16,0.12c0,0.063,0.07,0.116,0.16,0.12
				c0.016,0.001,1.587,0.074,2.698,0.074c0.21,0,0.393-0.003,0.545-0.008c1.049-0.036,2.874-0.188,2.893-0.19
				c0.089-0.007,0.155-0.062,0.151-0.125C73.146,16.704,73.073,16.654,72.983,16.653z"/>
			<path class="st2" d="M72.734,18.75c-0.008-0.002-0.771-0.156-1.586-0.31c-0.48-0.09-0.883-0.163-1.199-0.215
				c-1.056-0.175-3.054-0.467-3.074-0.47c-0.087-0.013-0.162,0.02-0.173,0.075c-0.01,0.055,0.048,0.113,0.133,0.132
				c0.015,0.003,1.502,0.35,2.563,0.55c0.2,0.038,0.376,0.068,0.521,0.091c1.007,0.158,2.774,0.355,2.792,0.357
				c0.087,0.01,0.158-0.026,0.165-0.081C72.882,18.824,72.82,18.767,72.734,18.75z"/>
			<path class="st2" d="M71.992,20.4c-0.007-0.002-0.743-0.217-1.53-0.436c-0.463-0.129-0.852-0.233-1.158-0.311
				c-1.021-0.26-2.954-0.715-2.974-0.72c-0.084-0.02-0.16,0.005-0.175,0.056c-0.014,0.051,0.038,0.112,0.12,0.138
				c0.014,0.005,1.444,0.466,2.467,0.751c0.193,0.054,0.362,0.098,0.503,0.133c0.974,0.24,2.689,0.583,2.706,0.587
				c0.084,0.017,0.157-0.011,0.167-0.063C72.131,20.483,72.075,20.424,71.992,20.4z"/>
			<path class="st2" d="M56.239,15.726c-0.019-0.008-1.932-0.822-2.955-1.232c-0.306-0.123-0.7-0.274-1.171-0.449
				c-0.8-0.298-1.556-0.567-1.564-0.57c-0.085-0.03-0.171-0.009-0.197,0.049c-0.026,0.058,0.016,0.132,0.098,0.17
				c0.017,0.008,1.674,0.788,2.644,1.188c0.14,0.058,0.311,0.124,0.508,0.198c1.041,0.388,2.539,0.868,2.554,0.873
				c0.086,0.027,0.17,0.003,0.192-0.057C56.37,15.835,56.322,15.762,56.239,15.726z"/>
			<path class="st2" d="M53.259,16.468c1.063,0.183,2.578,0.378,2.593,0.38c0.087,0.011,0.162-0.023,0.171-0.078
				c0.009-0.055-0.05-0.112-0.136-0.13c-0.02-0.004-1.993-0.428-3.044-0.633c-0.315-0.061-0.718-0.134-1.199-0.217
				c-0.817-0.141-1.587-0.262-1.595-0.264c-0.086-0.014-0.164,0.018-0.178,0.071c-0.014,0.054,0.041,0.112,0.126,0.133
				c0.017,0.004,1.742,0.437,2.741,0.641C52.883,16.401,53.058,16.433,53.259,16.468z"/>
			<path class="st2" d="M55.984,17.934c-0.02-0.003-1.99-0.252-3.038-0.364c-0.314-0.034-0.715-0.072-1.194-0.113
				c-0.813-0.07-1.578-0.125-1.585-0.126c-0.086-0.006-0.159,0.03-0.168,0.082c-0.009,0.052,0.05,0.104,0.135,0.117
				c0.017,0.003,1.744,0.28,2.74,0.395c0.144,0.017,0.319,0.034,0.518,0.051c1.058,0.091,2.559,0.158,2.574,0.158
				c0.086,0.004,0.157-0.034,0.161-0.088C56.133,17.995,56.07,17.945,55.984,17.934z"/>
			<path class="st2" d="M65.919,16.66c-0.342-0.029-0.599,0.029-0.827,0.599c-0.228,0.57-0.884,1.112-1.483,1.041
				c-0.599-0.071-1.226-0.385-1.426-1.069c-0.2-0.684-0.199-1.264-0.199-1.264c1.234,0.089,2.272-0.407,2.381-1.172
				c0.117-0.823-0.886-1.647-2.24-1.84c-1.354-0.193-2.547,0.318-2.665,1.142c-0.097,0.682,0.575,1.365,1.578,1.688
				c0,0-0.053,1.389-0.937,1.618c-0.884,0.228-2.139-0.314-2.139-0.884c0-0.57-0.029-1.169-0.456-1.055
				c-0.428,0.114-0.371,1.283,0,1.739c0.371,0.456,0.542,0.684,0.57,0.77c0.029,0.086,0.352,2.965,2.714,3.079
				c2.363,0.114,2.79-0.32,3.019-0.773c0.228-0.453,0.566-1.08,0.566-1.08s1.031-0.684,1.174-1.083S66.261,16.688,65.919,16.66z"/>
		</g>
		<path class="st5" d="M63.022,19.776c-0.055,0.413-0.848,0.815-1.894,0.676s-1.949-0.768-1.894-1.181
			c0.055-0.413,0.948-0.634,1.994-0.495C62.273,18.916,63.077,19.363,63.022,19.776z"/>
	</g>
	<g>
		<path class="st6" d="M77.272,33.058c-0.202-0.25-0.433-0.396-0.661-0.524c-0.23-0.123-0.463-0.213-0.697-0.292
			c-0.471-0.148-0.945-0.244-1.428-0.284c0.415,0.251,0.828,0.484,1.212,0.738c0.191,0.127,0.375,0.259,0.539,0.397
			c0.159,0.139,0.307,0.29,0.377,0.428c0.037,0.068,0.051,0.128,0.053,0.172c-0.004,0.044-0.009,0.076-0.031,0.119
			c-0.042,0.084-0.158,0.21-0.31,0.319c-0.152,0.111-0.332,0.218-0.525,0.312c-0.191,0.097-0.393,0.187-0.6,0.27
			c-0.831,0.336-1.718,0.614-2.606,0.903c-0.89,0.29-1.791,0.576-2.686,0.944c0.967,0.054,1.922-0.015,2.871-0.157
			c0.948-0.149,1.89-0.366,2.811-0.739c0.458-0.197,0.917-0.411,1.349-0.779c0.208-0.189,0.436-0.416,0.551-0.782
			c0.056-0.181,0.064-0.391,0.019-0.579C77.46,33.339,77.371,33.184,77.272,33.058z"/>
		<path class="st6" d="M19.164,34.464c0.093,0.11,0.197,0.188,0.3,0.26c0.419,0.265,0.857,0.361,1.318,0.341
			c-0.281-0.363-0.579-0.654-0.773-0.936c-0.094-0.138-0.152-0.27-0.149-0.339c0.001-0.035,0.007-0.054,0.015-0.078
			c0.012-0.024,0.02-0.058,0.052-0.101c0.051-0.088,0.158-0.204,0.283-0.318c0.125-0.116,0.27-0.232,0.419-0.356
			c0.302-0.246,0.628-0.5,0.942-0.84c-0.458-0.064-0.893-0.008-1.319,0.124c-0.213,0.069-0.421,0.163-0.626,0.29
			c-0.202,0.13-0.405,0.296-0.572,0.556c-0.08,0.128-0.147,0.29-0.178,0.465c-0.023,0.179-0.011,0.368,0.049,0.53
			C18.982,34.228,19.069,34.358,19.164,34.464z"/>
		<path class="st6" d="M47.221,38.524c1.16-0.005,2.321-0.01,3.48-0.041c1.16-0.042,2.319-0.078,3.477-0.161
			c2.316-0.148,4.629-0.375,6.922-0.756c-2.324-0.043-4.635-0.039-6.946-0.043l-3.465-0.011c-1.154-0.002-2.309,0-3.463-0.015
			l-6.927-0.049c-2.311-0.022-4.622-0.054-6.946-0.045c2.287,0.418,4.597,0.674,6.912,0.847C42.58,38.421,44.9,38.514,47.221,38.524
			z"/>
		<path class="st6" d="M17.87,37.435c-0.235-0.083-0.464-0.174-0.681-0.27c-0.219-0.094-0.423-0.201-0.596-0.312
			c-0.173-0.109-0.304-0.235-0.352-0.319c-0.025-0.042-0.031-0.075-0.035-0.119c0.002-0.044,0.019-0.105,0.06-0.172
			c0.08-0.139,0.247-0.289,0.428-0.428c0.186-0.138,0.395-0.27,0.612-0.397c0.436-0.254,0.905-0.487,1.376-0.738
			c-0.549,0.04-1.088,0.136-1.622,0.284c-0.266,0.079-0.531,0.169-0.792,0.292c-0.259,0.127-0.522,0.274-0.751,0.524
			c-0.112,0.125-0.214,0.281-0.27,0.468c-0.051,0.188-0.042,0.398,0.021,0.579c0.131,0.366,0.389,0.593,0.626,0.782
			c0.49,0.368,1.011,0.582,1.532,0.779c1.046,0.373,2.116,0.59,3.192,0.739c1.077,0.142,2.162,0.211,3.26,0.157
			c-1.017-0.369-2.039-0.654-3.05-0.944C19.82,38.049,18.813,37.77,17.87,37.435z"/>
		<path class="st6" d="M81.827,36.254c-0.035-0.175-0.11-0.337-0.202-0.465c-0.189-0.26-0.419-0.426-0.649-0.556
			c-0.232-0.128-0.469-0.221-0.711-0.29c-0.484-0.132-0.977-0.188-1.498-0.124c0.356,0.34,0.727,0.594,1.069,0.84
			c0.168,0.124,0.333,0.24,0.475,0.356c0.142,0.114,0.263,0.23,0.321,0.318c0.037,0.043,0.045,0.076,0.059,0.101
			c0.009,0.024,0.016,0.043,0.017,0.078c0.003,0.069-0.062,0.201-0.169,0.339c-0.22,0.282-0.559,0.573-0.878,0.936
			c0.523,0.019,1.02-0.076,1.496-0.341c0.117-0.072,0.235-0.15,0.341-0.26c0.108-0.106,0.207-0.237,0.272-0.401
			C81.839,36.622,81.853,36.433,81.827,36.254z"/>
		<path class="st6" d="M49.634,40.216c-1.311,0.015-2.621,0.013-3.932,0.015l-3.934,0.011c-2.624,0.004-5.249,0-7.888,0.043
			c2.604,0.382,5.23,0.608,7.86,0.756c1.315,0.083,2.632,0.118,3.949,0.161c1.317,0.031,2.635,0.037,3.952,0.041
			c2.635-0.01,5.27-0.103,7.898-0.275c2.628-0.173,5.252-0.429,7.848-0.847c-2.639-0.009-5.263,0.023-7.887,0.045L49.634,40.216z"/>
	</g>
</g>
<g class="st0">
	<path class="st1" d="M338.034,129.522c-0.018,1.022-0.202,2.035-0.529,3.004c-0.371,0.95-0.821,1.876-1.416,2.709
		c-1.145,1.699-2.651,3.118-4.235,4.401c-3.199,2.554-6.823,4.512-10.516,6.246c-7.424,3.431-15.245,5.909-23.12,8.064
		c-15.785,4.246-31.906,7.147-48.092,9.393c-32.388,4.502-65.098,6.566-97.814,6.959c-16.361,0.176-32.734-0.069-49.094-0.831
		c-16.358-0.775-32.713-1.982-49.002-3.988c-16.277-2.059-32.529-4.674-48.529-8.857c-7.984-2.147-15.926-4.614-23.615-8.122
		c-3.832-1.782-7.624-3.79-11.14-6.565c-1.743-1.402-3.449-2.974-4.848-5.018c-0.714-0.998-1.303-2.158-1.778-3.386
		c-0.437-1.261-0.695-2.622-0.717-4.007c0.015-1.385,0.273-2.748,0.711-4.009c0.475-1.229,1.064-2.389,1.778-3.387
		c1.4-2.044,3.105-3.616,4.849-5.019c3.517-2.776,7.309-4.784,11.141-6.566c7.689-3.508,15.632-5.975,23.616-8.122
		c7.989-2.131,16.065-3.787,24.161-5.229c8.099-1.427,16.224-2.63,24.368-3.636c16.287-2.022,32.645-3.215,49.002-3.993
		c16.36-0.761,32.733-1.005,49.095-0.827c32.717,0.397,65.428,2.459,97.815,6.969c16.187,2.247,32.307,5.147,48.092,9.396
		c7.875,2.155,15.696,4.633,23.12,8.064c3.693,1.734,7.317,3.692,10.516,6.246c1.584,1.282,3.091,2.702,4.235,4.401
		c0.595,0.833,1.045,1.759,1.416,2.709C337.832,127.487,338.016,128.499,338.034,129.522z M338.034,129.522
		c-0.022-1.022-0.211-2.033-0.542-2.999c-0.375-0.947-0.829-1.869-1.426-2.697c-1.15-1.69-2.66-3.1-4.247-4.372
		c-3.205-2.535-6.832-4.472-10.528-6.187c-7.43-3.392-15.254-5.831-23.131-7.947c-15.8-4.139-31.957-6.735-48.142-8.782
		c-16.201-1.999-32.489-3.195-48.784-3.967c-16.298-0.757-32.615-1-48.921-0.822c-32.605,0.394-65.208,2.461-97.424,6.938
		c-16.096,2.231-32.117,5.127-47.706,9.314c-7.768,2.124-15.471,4.574-22.636,7.888c-3.557,1.667-7.015,3.555-9.904,5.868
		c-2.885,2.269-5.118,5.158-5.057,7.767c-0.072,2.612,2.171,5.503,5.054,7.772c2.889,2.313,6.347,4.201,9.905,5.868
		c7.166,3.314,14.868,5.765,22.637,7.888c15.585,4.206,31.61,7.086,47.706,9.321c32.215,4.491,64.82,6.544,97.425,6.939
		c16.307,0.177,32.624-0.068,48.922-0.826c16.295-0.774,32.584-1.968,48.784-3.973c16.185-2.048,32.342-4.643,48.142-8.786
		c7.877-2.116,15.701-4.555,23.131-7.947c3.696-1.715,7.323-3.653,10.528-6.187c1.587-1.273,3.097-2.682,4.247-4.372
		c0.597-0.829,1.051-1.75,1.426-2.697C337.823,131.555,338.012,130.544,338.034,129.522z"/>
</g>
<g class="st0">
	<path class="st1" d="M338.034,143.34c-0.014,1.02-0.218,2.028-0.565,2.986c-0.373,0.949-0.882,1.839-1.478,2.665
		c-1.205,1.648-2.737,3.026-4.351,4.261c-3.259,2.454-6.902,4.343-10.618,5.999c-7.461,3.286-15.282,5.671-23.159,7.728
		c-15.78,4.071-31.867,6.856-48.016,9.012c-32.311,4.325-64.92,6.321-97.536,6.712c-16.311,0.177-32.633-0.051-48.944-0.773
		c-16.309-0.735-32.616-1.882-48.863-3.798c-16.236-1.968-32.45-4.466-48.436-8.47c-7.98-2.046-15.918-4.418-23.635-7.773
		c-3.849-1.699-7.656-3.633-11.227-6.292c-1.772-1.347-3.505-2.871-4.973-4.853c-0.726-0.997-1.377-2.11-1.869-3.354
		c-0.469-1.26-0.758-2.64-0.775-4.049c0.011-1.41,0.3-2.792,0.77-4.052c0.492-1.245,1.143-2.358,1.869-3.356
		c1.468-1.983,3.202-3.507,4.974-4.854c3.571-2.66,7.379-4.594,11.228-6.293c7.717-3.355,15.655-5.727,23.635-7.773
		c15.982-4.023,32.2-6.507,48.435-8.478c16.245-1.932,32.555-3.065,48.863-3.803c16.311-0.721,32.633-0.948,48.945-0.769
		c32.617,0.395,65.227,2.389,97.537,6.722c16.149,2.157,32.237,4.941,48.016,9.015c7.876,2.057,15.698,4.441,23.158,7.728
		c3.716,1.656,7.359,3.546,10.618,6c1.615,1.235,3.146,2.614,4.351,4.261c0.596,0.827,1.104,1.716,1.478,2.665
		C337.816,141.312,338.02,142.32,338.034,143.34z M338.034,143.34c-0.019-1.02-0.227-2.026-0.578-2.98
		c-0.377-0.946-0.889-1.831-1.487-2.653c-1.21-1.639-2.745-3.007-4.363-4.233c-3.265-2.434-6.911-4.304-10.63-5.941
		c-7.466-3.247-15.291-5.593-23.169-7.611c-15.794-3.964-31.916-6.445-48.064-8.401c-16.162-1.91-32.405-3.046-48.654-3.778
		c-16.251-0.717-32.519-0.943-48.778-0.765c-32.509,0.392-65.015,2.391-97.161,6.693c-16.062,2.142-32.054,4.923-47.645,8.939
		c-7.775,2.028-15.482,4.387-22.692,7.566c-3.586,1.595-7.067,3.419-10.019,5.647c-1.46,1.113-2.792,2.337-3.74,3.64
		c-0.468,0.651-0.837,1.313-1.096,1.963c-0.229,0.652-0.352,1.284-0.373,1.914c0.015,0.63,0.138,1.264,0.368,1.916
		c0.259,0.65,0.628,1.313,1.096,1.964c0.948,1.304,2.281,2.528,3.741,3.641c2.953,2.229,6.435,4.053,10.02,5.648
		c7.211,3.179,14.918,5.538,22.693,7.566c15.587,4.035,31.583,6.801,47.645,8.946c32.145,4.317,64.653,6.301,97.162,6.695
		c16.258,0.177,32.527-0.05,48.778-0.768c16.249-0.734,32.492-1.868,48.654-3.785c16.148-1.958,32.271-4.438,48.064-8.405
		c7.878-2.018,15.703-4.364,23.169-7.611c3.719-1.637,7.365-3.507,10.63-5.941c1.617-1.225,3.152-2.594,4.363-4.233
		c0.598-0.822,1.11-1.708,1.487-2.653C337.807,145.366,338.015,144.36,338.034,143.34z"/>
</g>
</svg>
