<?xml version="1.0" encoding="utf-8"?>
<!-- Generator: Adobe Illustrator 21.1.0, SVG Export Plug-In . SVG Version: 6.00 Build 0)  -->
<svg version="1.1" id="Layer_1" xmlns="http://www.w3.org/2000/svg" xmlns:xlink="http://www.w3.org/1999/xlink" x="0px" y="0px"
	 viewBox="0 0 4.125 5" style="enable-background:new 0 0 4.125 5;" xml:space="preserve">
<style type="text/css">
	.st0{fill:#00B3E3;}
	.st1{fill:#2374BA;}
	.st2{fill:#FFFFFF;}
</style>
<g>
	<rect x="0.334" y="1.028" class="st0" width="2.706" height="2.133"/>
	<polygon class="st1" points="3.04,1.028 3.04,3.161 0.334,3.161 0.826,3.489 3.534,3.489 3.534,1.52 	"/>
	<polygon class="st2" points="0.784,2.696 0.805,1.449 0.568,1.475 0.538,1.32 1.301,1.355 1.27,1.427 1.011,1.439 0.88,2.717 	"/>
	<g>
		<path class="st2" d="M1.895,2.549C1.853,2.578,1.772,2.602,1.691,2.613C1.352,2.662,1.212,2.408,1.172,2.181
			c-0.05-0.285,0.037-0.535,0.271-0.568c0.009-0.002,0.02-0.001,0.029-0.002c0.237-0.016,0.333,0.158,0.369,0.365
			c0.007,0.042,0.01,0.068,0.014,0.121L1.297,2.135c0.045,0.31,0.209,0.35,0.344,0.343c0.011-0.002,0.022-0.001,0.033-0.002
			c0.07-0.01,0.12-0.034,0.154-0.057L1.895,2.549z M1.678,1.984c-0.031-0.182-0.117-0.285-0.23-0.269
			c-0.129,0.018-0.16,0.174-0.145,0.313L1.678,1.984z"/>
		<path class="st2" d="M2.495,3.028l0.064-0.497L2.553,2.53c-0.046,0.067-0.15,0.127-0.268,0.11C2.008,2.6,1.977,2.297,2.02,2.052
			c0.054-0.313,0.257-0.451,0.43-0.426c0.083,0.012,0.165,0.061,0.206,0.169L2.66,1.796l0.002-0.182l0.191,0.087L2.802,1.994
			L2.615,3.011L2.495,3.028z M2.615,2.04c0.018-0.146-0.044-0.276-0.16-0.293C2.313,1.726,2.219,1.864,2.187,2.052
			C2.158,2.215,2.172,2.475,2.365,2.503c0.074,0.01,0.202-0.04,0.222-0.223L2.615,2.04z"/>
	</g>
</g>
</svg>
