<?xml version="1.0" encoding="utf-8"?>
<!-- Generator: Adobe Illustrator 20.1.0, SVG Export Plug-In . SVG Version: 6.00 Build 0)  -->
<svg version="1.1" id="Layer_1" xmlns="http://www.w3.org/2000/svg" xmlns:xlink="http://www.w3.org/1999/xlink" x="0px" y="0px"
	 viewBox="0 0 10 7.7" style="enable-background:new 0 0 10 7.7;" xml:space="preserve">
<style type="text/css">
	.st0{fill:#00B3E3;}
	.st1{fill:#0075C9;}
	.st2{fill:#FFFFFF;}
</style>
<g>
	<rect x="0.4" y="0.3" class="st0" width="7.9" height="6.3"/>
	<polygon class="st1" points="8.3,0.3 8.3,6.5 0.4,6.5 1.8,7.5 9.8,7.5 9.8,1.7 	"/>
	<polygon class="st2" points="1.7,5.2 1.8,1.5 1.1,1.6 1,1.2 3.2,1.3 3.1,1.5 2.4,1.5 2,5.2 	"/>
	<g>
		<path class="st2" d="M5,4.8C4.8,4.8,4.6,4.9,4.4,4.9C3.4,5.1,3,4.3,2.8,3.7C2.7,2.8,2.9,2.1,3.6,2c0,0,0.1,0,0.1,0
			c0.7,0,1,0.5,1.1,1.1c0,0.1,0,0.2,0,0.4L3.2,3.5c0.1,0.9,0.6,1,1,1c0,0,0.1,0,0.1,0c0.2,0,0.4-0.1,0.5-0.2L5,4.8z M4.3,3.1
			C4.2,2.6,4,2.3,3.6,2.3C3.3,2.4,3.2,2.8,3.2,3.2L4.3,3.1z"/>
		<path class="st2" d="M6.7,6.2l0.2-1.5l0,0C6.8,4.9,6.4,5.1,6.1,5C5.3,4.9,5.2,4,5.3,3.3C5.5,2.4,6.1,2,6.6,2
			c0.2,0,0.5,0.2,0.6,0.5l0,0l0-0.5l0.6,0.3L7.6,3.1l-0.6,3L6.7,6.2z M7.1,3.3c0.1-0.4-0.1-0.8-0.5-0.9C6.2,2.3,5.9,2.7,5.8,3.3
			c-0.1,0.5,0,1.2,0.5,1.3C6.6,4.6,6.9,4.5,7,4L7.1,3.3z"/>
	</g>
</g>
</svg>
